# Blender v3.5.0 OBJ File: ''
# www.blender.org
mtllib capitate_lvs.mtl
o capitate_lvs.vtp_capitate_lvs.vtp.011
v -0.013803 -0.026908 -0.003993
v -0.011822 -0.023896 -0.008425
v -0.013661 -0.025863 -0.004057
v -0.013905 -0.026050 -0.002741
v -0.012682 -0.027714 -0.006819
v -0.010398 -0.028567 -0.006015
v -0.011745 -0.027669 -0.002485
v -0.011697 -0.026265 0.000328
v -0.012024 -0.022477 -0.003478
v -0.011910 -0.027010 -0.009027
v -0.010435 -0.020082 -0.007488
v -0.009268 -0.022702 -0.008323
v -0.013424 -0.022140 -0.000880
v -0.012616 -0.024168 0.000911
v -0.009081 -0.027998 -0.007584
v -0.005247 -0.027214 -0.002928
v -0.004244 -0.027459 -0.004371
v -0.003405 -0.024908 0.003243
v -0.011494 -0.024014 0.003175
v -0.003557 -0.022498 0.005508
v -0.011637 -0.019667 0.000295
v -0.007323 -0.014970 -0.006505
v -0.006878 -0.014404 -0.004275
v -0.008640 -0.017907 -0.001675
v -0.004688 -0.014503 -0.006745
v -0.001620 -0.024554 -0.003862
v -0.002948 -0.016417 -0.006924
v -0.011125 -0.021380 0.002219
v -0.002214 -0.027800 -0.002398
v 0.000716 -0.029113 0.006303
v 0.000702 -0.029953 0.004556
v -0.010003 -0.021571 0.004733
v -0.002754 -0.020649 0.006465
v -0.005615 -0.019156 0.006846
v 0.000138 -0.027014 0.007157
v -0.006393 -0.015370 0.000483
v -0.006390 -0.015810 0.001282
v -0.003838 -0.016383 0.004267
v -0.007103 -0.013523 -0.004834
v -0.004837 -0.012741 -0.005838
v -0.006147 -0.012992 0.000610
v -0.002895 -0.009789 -0.005437
v 0.000477 -0.013368 -0.006868
v 0.001478 -0.025646 -0.001873
v 0.003186 -0.014688 -0.005971
v 0.003067 -0.016721 -0.004963
v 0.001377 -0.028923 0.000399
v 0.000486 -0.029865 0.001249
v 0.002655 -0.029199 0.003518
v 0.002639 -0.028099 0.005935
v -0.001701 -0.018797 0.007322
v -0.000225 -0.021341 0.007428
v -0.004373 -0.017152 0.007763
v 0.002701 -0.020423 0.006324
v 0.001681 -0.021416 0.006890
v -0.004951 -0.014096 0.002447
v -0.003800 -0.015528 0.004281
v -0.003356 -0.014774 0.005632
v -0.007375 -0.012289 -0.003101
v -0.006894 -0.011255 0.001543
v 0.002452 -0.008688 -0.006459
v -0.000168 -0.007025 -0.002638
v 0.002393 -0.010394 -0.007203
v 0.004049 -0.009966 -0.007045
v 0.005027 -0.012240 -0.006566
v 0.004406 -0.019733 -0.002237
v 0.004847 -0.014447 -0.004353
v 0.005129 -0.016008 -0.001241
v 0.005578 -0.019518 0.000184
v 0.004435 -0.026331 0.003310
v 0.001265 -0.015036 0.008488
v 0.002095 -0.019074 0.007308
v -0.001663 -0.013427 0.007558
v -0.002683 -0.014074 0.007181
v -0.003250 -0.013934 0.006653
v -0.005424 -0.012075 0.004458
v -0.003336 -0.013121 0.006533
v 0.000162 -0.006194 0.000696
v -0.001251 -0.009225 0.005493
v 0.004049 -0.007243 -0.003664
v 0.003330 -0.005896 -0.000086
v 0.006673 -0.010579 -0.003715
v 0.006642 -0.011715 -0.003326
v 0.006810 -0.011927 0.003525
v 0.005528 -0.014984 0.005418
v 0.000932 -0.013540 0.008327
v 0.004651 -0.011557 0.005686
v -0.002479 -0.013306 0.007087
v 0.004036 -0.006438 0.002998
v 0.005030 -0.006711 0.002757
vt 0.350113 0.849501
vt 0.236448 0.795652
vt 0.344673 0.826899
vt 0.374520 0.826429
vt 0.287207 0.873923
vt 0.484158 0.560731
vt 0.558502 0.507246
vt 0.569881 0.558006
vt 0.489063 0.510077
vt 0.634350 0.581229
vt 0.589432 0.515651
vt 0.338400 0.745764
vt 0.234178 0.864948
vt 0.237578 0.704894
vt 0.400830 0.355332
vt 0.443373 0.398530
vt 0.437415 0.460479
vt 0.424902 0.313800
vt 0.399260 0.733396
vt 0.440406 0.766100
vt 0.506226 0.468507
vt 0.522376 0.506063
vt 0.443373 0.507246
vt 0.443373 0.513841
vt 0.446691 0.579681
vt 0.517952 0.692406
vt 0.480446 0.703330
vt 0.642622 0.777542
vt 0.554447 0.464013
vt 0.703387 0.610284
vt 0.703387 0.795825
vt 0.138681 0.787333
vt 0.202789 0.775959
vt 0.134752 0.850266
vt 0.227471 0.579418
vt 0.271191 0.556381
vt 0.346321 0.627398
vt 0.202789 0.889053
vt 0.364462 0.464906
vt 0.380234 0.189769
vt 0.336727 0.159499
vt 0.201030 0.352719
vt 0.297938 0.184816
vt 0.461964 0.426105
vt 0.499924 0.366025
vt 0.539547 0.403826
vt 0.241564 0.429826
vt 0.503839 0.757701
vt 0.180254 0.429078
vt 0.701527 0.435324
vt 0.719330 0.390621
vt 0.828217 0.507246
vt 0.134752 0.916153
vt 0.042398 0.937287
vt 0.050604 0.895745
vt 0.830310 0.029000
vt 0.915227 0.000000
vt 0.915227 0.142196
vt 0.592168 0.407227
vt 0.739284 0.349035
vt 0.688318 0.335247
vt 0.821553 0.468280
vt 0.188774 0.972323
vt 0.580045 0.244587
vt 0.591842 0.255781
vt 0.677109 0.259941
vt 0.257412 0.540772
vt 0.556149 0.837547
vt 0.556693 0.892738
vt 0.510484 0.888202
vt 0.524395 0.830532
vt 0.373728 0.555460
vt 0.367529 0.503207
vt 0.599590 0.795825
vt 0.248511 0.097011
vt 0.310747 0.054758
vt 0.116443 0.359338
vt 0.182435 0.107030
vt 0.163739 0.153300
vt 0.077278 0.435715
vt 0.079612 0.464906
vt 0.134752 0.775959
vt 0.067008 0.828287
vt 0.010465 0.871001
vt 0.000000 0.928229
vt 0.952217 0.479010
vt 0.931257 0.507246
vt 0.891327 0.475556
vt 0.762373 0.305671
vt 0.798739 0.351036
vt 0.638144 0.934009
vt 0.599590 0.851307
vt 0.668361 0.891711
vt 0.714984 0.287694
vt 0.876382 0.331336
vt 0.863703 0.358876
vt 0.830310 0.367253
vt 0.800660 0.867400
vt 0.754239 0.837044
vt 0.800660 0.814699
vt 0.202968 0.782290
vt 0.221375 0.775959
vt 0.221375 0.827425
vt 0.674968 0.241659
vt 0.626175 0.213791
vt 0.638134 0.824150
vt 0.605736 0.833699
vt 0.291649 0.508363
vt 0.599590 0.908297
vt 0.703387 0.867131
vt 0.754239 0.814699
vt 0.754239 0.914611
vt 0.385231 0.465240
vt 0.404843 0.514464
vt 0.907016 0.725670
vt 0.806113 0.687417
vt 0.871960 0.608659
vt 0.823325 0.507246
vt 0.934089 0.714500
vt 0.230901 0.020588
vt 0.200669 0.000000
vt 0.166724 0.040917
vt 0.094187 0.215176
vt 0.134637 0.095812
vt 0.086829 0.137483
vt 0.046116 0.211240
vt 0.000000 0.370932
vt 0.017047 0.443681
vt 0.999600 0.414361
vt 1.000000 0.477240
vt 0.816565 0.211355
vt 0.830310 0.289083
vt 0.840977 0.315756
vt 0.747265 0.192387
vt 0.726673 0.211202
vt 0.665018 0.812705
vt 0.709410 0.210331
vt 0.984063 0.165126
vt 1.000000 0.247015
vt 0.443373 0.464906
vt 0.443373 0.532912
vt 0.703511 0.193351
vt 0.697436 0.226300
vt 0.636417 0.178610
vt 0.668361 0.795825
vt 0.733126 0.707243
vt 0.722618 0.534747
vt 0.570318 0.163001
vt 0.666599 0.012234
vt 0.713475 0.096129
vt 0.845941 0.774069
vt 0.934587 0.752409
vt 0.760020 0.774454
vt 0.111753 0.005534
vt 0.881235 0.814699
vt 0.102637 0.030455
vt 0.221375 0.568201
vt 0.129761 0.602309
vt 0.155477 0.481155
vt 0.443373 0.927223
vt 0.510484 0.795825
vt 0.510484 0.971817
vt 0.173269 0.673682
vt 0.803383 0.181284
vt 0.095871 0.762260
vt 0.096017 0.660432
vt 0.127947 0.773491
vt 0.221375 0.775959
vt 0.726393 0.193524
vt 0.703387 0.795300
vt 0.765377 0.000000
vt 0.714321 0.814699
vt 0.046814 0.467007
vt 0.134493 0.464906
vt 0.014171 0.566038
vt 0.000000 0.578639
vn 0.9326 -0.1056 0.3451
vn 0.9788 -0.1230 0.1640
vn 0.9237 -0.0482 0.3801
vn 0.3973 0.9141 -0.0809
vn 0.3816 0.9177 -0.1104
vn 0.5526 0.7419 -0.3797
vn 0.6274 0.6652 -0.4048
vn 0.8765 -0.4521 0.1655
vn 0.9487 -0.0857 0.3044
vn 0.9182 -0.3692 0.1434
vn 0.0501 -0.1909 0.9803
vn 0.0866 -0.2673 0.9597
vn 0.7614 -0.4482 0.4684
vn 0.9695 -0.1918 0.1525
vn 0.9322 0.0556 -0.3577
vn 0.7355 0.4605 -0.4969
vn 0.2111 0.9075 0.3632
vn 0.1040 0.9038 0.4150
vn -0.0859 0.9572 -0.2763
vn -0.1096 0.9646 -0.2399
vn -0.2176 0.9618 0.1662
vn -0.0927 0.8915 -0.4434
vn -0.0339 0.9395 -0.3409
vn 0.7829 0.4597 -0.4193
vn 0.0331 0.7829 -0.6213
vn 0.1403 0.6828 -0.7170
vn 0.6272 -0.6541 0.4228
vn 0.8518 -0.5233 0.0250
vn 0.8415 -0.5394 -0.0310
vn 0.8229 -0.5415 -0.1719
vn 0.6473 -0.6416 0.4115
vn -0.4206 0.1108 0.9005
vn 0.1151 -0.2547 0.9601
vn 0.1330 -0.2584 0.9568
vn -0.4821 0.1044 0.8699
vn -0.0665 -0.1526 0.9860
vn -0.4413 0.2521 0.8612
vn 0.7946 -0.3329 -0.5078
vn 0.8109 -0.1711 -0.5596
vn 0.8696 -0.2715 -0.4125
vn -0.5439 0.3584 0.7587
vn 0.1948 0.9803 -0.0310
vn 0.2409 0.8834 -0.4020
vn -0.5960 0.4182 0.6855
vn 0.7812 0.4530 -0.4296
vn 0.7792 0.5624 -0.2766
vn 0.7854 0.6022 -0.1429
vn 0.8713 -0.2707 -0.4094
vn 0.1704 0.4538 -0.8747
vn 0.1005 0.4225 -0.9007
vn 0.1705 0.4549 -0.8740
vn 0.5677 0.1704 -0.8054
vn 0.7434 0.4174 -0.5227
vn 0.6079 -0.7529 0.2522
vn 0.5918 -0.7052 -0.3905
vn 0.5512 -0.5449 -0.6318
vn 0.5492 -0.5976 -0.5842
vn 0.9694 0.1075 -0.2207
vn 0.4780 -0.6942 0.5382
vn 0.1586 -0.4412 0.8833
vn 0.8106 -0.5523 -0.1948
vn 0.9881 -0.0958 -0.1202
vn 0.9740 0.1321 -0.1839
vn 0.4191 -0.3873 0.8212
vn 0.0880 -0.2973 0.9507
vn 0.0369 -0.0598 0.9975
vn -0.4609 0.2457 0.8528
vn -0.3716 0.4373 0.8189
vn -0.2095 0.2178 0.9532
vn -0.2579 0.4413 0.8595
vn -0.2730 0.3578 0.8930
vn 0.5953 -0.7363 -0.3216
vn -0.4133 0.5274 0.7423
vn -0.2313 0.7632 0.6034
vn 0.6243 0.7809 -0.0200
vn -0.4997 0.7822 -0.3721
vn -0.4880 0.7932 -0.3642
vn -0.3207 0.2798 -0.9049
vn -0.3379 0.9400 0.0471
vn 0.5794 -0.7224 -0.3775
vn 0.0769 0.3824 -0.9208
vn 0.3946 0.1915 -0.8987
vn 0.3712 0.0680 -0.9260
vn 0.8473 -0.5310 0.0129
vn 0.0780 0.3744 -0.9240
vn -0.4211 0.0493 -0.9057
vn -0.5667 0.1173 -0.8155
vn -0.2705 0.0287 -0.9623
vn 0.8214 -0.0547 -0.5677
vn 0.8203 -0.4996 -0.2782
vn 0.7577 -0.0230 -0.6522
vn 0.7505 -0.2025 -0.6291
vn 0.9381 -0.3395 0.0689
vn 0.9554 -0.0377 -0.2930
vn 0.8623 0.4666 -0.1969
vn 0.4806 -0.6769 0.5575
vn 0.6013 -0.4821 0.6372
vn 0.8589 0.4738 -0.1945
vn 0.8346 0.4920 -0.2477
vn 0.2672 -0.8030 0.5327
vn 0.5637 -0.7923 0.2332
vn 0.2502 -0.3943 0.8843
vn 0.3061 -0.0905 0.9477
vn -0.1447 0.2023 0.9686
vn -0.1052 0.1615 0.9813
vn -0.1449 0.3352 0.9309
vn -0.7388 0.3992 0.5430
vn -0.6251 0.3524 0.6964
vn -0.6776 0.3581 0.6423
vn -0.6071 0.5868 0.5358
vn -0.8774 0.0425 0.4779
vn -0.7837 0.5239 0.3338
vn -0.8435 0.3853 0.3741
vn -0.7852 0.3622 0.5023
vn -0.7792 0.5100 0.3644
vn -0.5479 0.7833 0.2938
vn -0.8337 0.5005 -0.2333
vn -0.8355 0.0345 -0.5484
vn 0.0167 0.2841 -0.9587
vn 0.0172 0.2837 -0.9588
vn -0.0070 -0.0457 -0.9989
vn -0.2576 0.2137 -0.9423
vn 0.5412 -0.4334 -0.7206
vn 0.9491 -0.2845 0.1355
vn 0.5526 -0.4375 -0.7094
vn 0.1972 -0.1963 -0.9605
vn -0.8502 -0.2877 -0.4408
vn -0.9167 -0.1383 -0.3749
vn -0.9020 -0.0457 -0.4294
vn -0.6408 0.2432 -0.7281
vn 0.8311 0.4778 -0.2847
vn 0.8784 0.4244 -0.2199
vn 0.8868 0.2129 -0.4102
vn 0.7410 0.3770 -0.5556
vn 0.9827 0.0793 -0.1672
vn 0.5777 -0.8036 0.1431
vn 0.5881 -0.8003 0.1173
vn 0.5205 -0.7827 -0.3413
vn 0.5734 -0.6664 -0.4766
vn 0.0585 -0.9000 0.4319
vn -0.3658 -0.7248 0.5838
vn 0.0160 -0.4002 0.9163
vn 0.1463 -0.9632 0.2256
vn 0.0391 -0.9325 0.3589
vn -0.7859 -0.2159 0.5795
vn -0.6992 -0.5568 0.4484
vn -0.8379 0.4190 0.3498
vn -0.8929 0.1675 0.4179
vn -0.9005 0.0596 0.4307
vn -0.8452 0.4430 0.2988
vn -0.9374 0.3467 0.0337
vn -0.7763 0.6284 -0.0501
vn -0.9230 0.3847 -0.0039
vn 0.2823 -0.0403 -0.9585
vn -0.4937 -0.2010 -0.8461
vn -0.5816 -0.0856 -0.8090
vn -0.5814 0.1158 -0.8053
vn 0.4613 -0.2275 -0.8576
vn 0.2362 -0.4471 -0.8627
vn 0.4007 -0.4354 -0.8061
vn 0.6241 -0.2561 -0.7381
vn 0.5311 -0.0685 -0.8445
vn 0.4977 -0.4623 -0.7339
vn 0.4199 -0.4370 -0.7954
vn 0.0471 -0.9819 -0.1834
vn 0.2266 -0.8522 -0.4717
vn -0.0808 -0.5754 -0.8139
vn -0.6305 -0.7596 0.1593
vn -0.7735 -0.6110 0.1688
vn -0.2864 -0.9527 -0.1019
vn -0.9436 -0.3284 -0.0433
vn -0.9990 0.0360 0.0256
vn -0.6953 -0.3312 -0.6379
vn -0.7125 -0.1284 -0.6898
vn -0.3314 -0.4689 -0.8187
vn -0.3279 -0.4711 -0.8189
usemtl Material_with_Texture.768
s off
f 1/1/1 2/2/1 3/3/1
f 1/1/2 3/3/2 4/4/2
f 5/5/3 2/2/3 1/1/3
f 6/6/4 1/7/4 7/8/4
f 1/7/5 6/6/5 5/9/5
f 1/7/6 8/10/6 7/8/6
f 1/7/7 4/11/7 8/10/7
f 2/2/8 9/12/8 3/3/8
f 2/2/9 5/5/9 10/13/9
f 9/12/10 2/2/10 11/14/10
f 12/15/11 2/16/11 10/17/11
f 11/18/12 2/16/12 12/15/12
f 13/19/13 3/3/13 9/12/13
f 3/3/14 13/19/14 4/4/14
f 4/4/15 13/19/15 14/20/15
f 14/21/16 8/22/16 4/23/16
f 6/6/17 10/24/17 5/9/17
f 10/24/18 6/6/18 15/25/18
f 16/26/19 6/6/19 7/8/19
f 6/6/20 16/26/20 17/27/20
f 17/27/21 15/25/21 6/6/21
f 8/10/22 16/26/22 7/8/22
f 18/28/23 16/26/23 8/10/23
f 14/21/24 19/29/24 8/22/24
f 19/30/25 20/31/25 8/10/25
f 8/10/26 20/31/26 18/28/26
f 13/32/27 9/33/27 21/34/27
f 22/35/28 9/12/28 11/14/28
f 23/36/29 9/12/29 22/35/29
f 9/12/30 23/36/30 24/37/30
f 21/34/31 9/33/31 24/38/31
f 12/15/32 10/17/32 15/39/32
f 22/40/33 11/18/33 12/15/33
f 25/41/34 22/40/34 12/15/34
f 12/15/35 15/39/35 26/42/35
f 27/43/36 25/41/36 12/15/36
f 26/42/37 27/43/37 12/15/37
f 13/44/38 21/45/38 28/46/38
f 14/21/39 13/44/39 28/46/39
f 19/29/40 14/21/40 28/46/40
f 17/47/41 26/42/41 15/39/41
f 29/48/42 17/27/42 16/26/42
f 16/26/43 18/28/43 29/48/43
f 17/47/44 29/49/44 26/42/44
f 18/50/45 20/51/45 30/52/45
f 18/53/46 30/54/46 31/55/46
f 18/56/47 31/57/47 29/58/47
f 19/29/48 28/46/48 32/59/48
f 19/29/49 32/59/49 20/51/49
f 33/60/50 20/51/50 34/61/50
f 32/59/51 34/61/51 20/51/51
f 35/62/52 20/51/52 33/60/52
f 20/51/53 35/62/53 30/52/53
f 21/34/54 24/38/54 36/63/54
f 21/45/55 36/64/55 37/65/55
f 38/66/56 28/46/56 21/45/56
f 38/66/57 21/45/57 37/65/57
f 22/35/58 39/67/58 23/36/58
f 40/68/59 39/69/59 22/70/59
f 25/71/60 40/68/60 22/70/60
f 23/36/61 36/72/61 24/37/61
f 36/72/62 23/36/62 41/73/62
f 41/73/63 23/36/63 39/67/63
f 40/68/64 25/71/64 42/74/64
f 43/75/65 42/76/65 25/41/65
f 25/41/66 27/43/66 43/75/66
f 26/42/67 44/77/67 27/43/67
f 26/42/68 29/49/68 44/77/68
f 43/75/69 27/43/69 45/78/69
f 27/43/70 46/79/70 45/78/70
f 44/77/71 46/79/71 27/43/71
f 32/59/72 28/46/72 38/66/72
f 47/80/73 44/77/73 29/49/73
f 48/81/74 47/80/74 29/49/74
f 29/82/75 31/55/75 48/83/75
f 30/54/76 49/84/76 31/55/76
f 30/54/77 50/85/77 49/84/77
f 50/86/78 30/87/78 35/88/78
f 31/55/79 49/84/79 48/83/79
f 38/66/80 34/61/80 32/59/80
f 34/61/81 51/89/81 33/60/81
f 52/90/82 33/60/82 51/89/82
f 33/60/83 52/90/83 35/62/83
f 34/91/84 38/92/84 53/93/84
f 53/94/85 51/89/85 34/61/85
f 50/86/86 35/88/86 54/95/86
f 35/88/87 55/96/87 54/95/87
f 35/88/88 52/97/88 55/96/88
f 56/98/89 36/99/89 41/100/89
f 37/101/90 36/102/90 56/103/90
f 38/66/91 37/65/91 57/104/91
f 57/104/92 37/65/92 56/105/92
f 53/93/93 38/92/93 58/106/93
f 57/107/94 58/106/94 38/92/94
f 59/108/95 41/73/95 39/67/95
f 39/69/96 40/68/96 59/109/96
f 40/110/97 42/111/97 59/112/97
f 59/108/98 60/113/98 41/73/98
f 60/113/99 56/114/99 41/73/99
f 61/115/100 62/116/100 42/117/100
f 42/117/101 62/116/101 59/118/101
f 42/117/102 63/119/102 61/115/102
f 63/120/103 42/76/103 43/75/103
f 43/75/104 64/121/104 63/120/104
f 43/75/105 65/122/105 64/121/105
f 45/78/106 65/122/106 43/75/106
f 44/77/107 47/80/107 66/123/107
f 44/77/108 66/123/108 46/79/108
f 46/79/109 67/124/109 45/78/109
f 65/122/110 45/78/110 67/124/110
f 46/79/111 66/123/111 68/125/111
f 67/124/112 46/79/112 68/125/112
f 66/123/113 47/80/113 69/126/113
f 69/126/114 47/80/114 70/127/114
f 47/80/115 49/128/115 70/127/115
f 48/81/116 49/128/116 47/80/116
f 50/86/117 70/129/117 49/130/117
f 54/95/118 70/129/118 50/86/118
f 71/131/119 51/89/119 53/94/119
f 72/132/120 51/89/120 71/131/120
f 52/90/121 51/89/121 72/132/121
f 52/97/122 72/133/122 55/96/122
f 73/134/123 53/94/123 74/135/123
f 75/136/124 53/93/124 58/106/124
f 75/137/125 74/135/125 53/94/125
f 73/134/126 71/131/126 53/94/126
f 54/95/127 68/138/127 69/139/127
f 68/138/128 54/95/128 72/133/128
f 54/95/129 69/139/129 70/129/129
f 55/96/130 72/133/130 54/95/130
f 56/114/131 60/113/131 76/140/131
f 56/114/132 76/140/132 57/141/132
f 57/104/133 77/142/133 58/143/133
f 57/104/134 76/144/134 77/142/134
f 77/145/135 75/136/135 58/106/135
f 59/118/136 62/116/136 78/146/136
f 59/118/137 78/146/137 60/147/137
f 60/148/138 78/149/138 79/150/138
f 76/144/139 60/148/139 79/150/139
f 61/115/140 80/151/140 62/116/140
f 80/151/141 61/115/141 64/152/141
f 64/152/142 61/115/142 63/119/142
f 81/153/143 78/146/143 62/116/143
f 80/151/144 81/153/144 62/116/144
f 82/154/145 64/121/145 65/122/145
f 64/152/146 82/155/146 80/151/146
f 83/156/147 65/122/147 67/124/147
f 82/154/148 65/122/148 83/156/148
f 69/126/149 68/125/149 66/123/149
f 67/124/150 68/125/150 83/156/150
f 68/157/151 84/158/151 83/159/151
f 85/160/152 68/161/152 72/162/152
f 68/157/153 85/163/153 84/158/153
f 71/131/154 73/134/154 86/164/154
f 86/165/155 87/166/155 71/167/155
f 87/166/156 85/163/156 71/167/156
f 71/167/157 85/163/157 72/168/157
f 88/169/158 73/134/158 74/135/158
f 79/150/159 86/164/159 73/134/159
f 79/150/160 73/134/160 88/169/160
f 75/137/161 88/169/161 74/135/161
f 77/142/162 88/169/162 75/137/162
f 76/144/163 79/150/163 77/142/163
f 77/142/164 79/150/164 88/169/164
f 89/170/165 78/146/165 81/153/165
f 89/171/166 79/150/166 78/149/166
f 86/164/167 79/150/167 89/171/167
f 90/172/168 81/153/168 80/151/168
f 80/173/169 82/174/169 90/175/169
f 81/153/170 90/172/170 89/170/170
f 82/174/171 84/158/171 90/175/171
f 84/158/172 82/174/172 83/159/172
f 90/175/173 84/158/173 87/166/173
f 87/166/174 84/158/174 85/163/174
f 90/175/175 87/166/175 86/165/175
f 86/165/176 89/176/176 90/175/176
