# Blender v3.5.0 OBJ File: ''
# www.blender.org
mtllib capitate_rvs.mtl
o capitate_rvs.vtp_capitate_rvs.vtp.010
v -0.013661 -0.025863 0.004057
v -0.011822 -0.023896 0.008425
v -0.013803 -0.026908 0.003993
v -0.013905 -0.026050 0.002741
v -0.012024 -0.022477 0.003478
v -0.013424 -0.022140 0.000880
v -0.011910 -0.027010 0.009027
v -0.012682 -0.027714 0.006819
v -0.010435 -0.020082 0.007488
v -0.009268 -0.022702 0.008323
v -0.011745 -0.027669 0.002485
v -0.010398 -0.028567 0.006015
v -0.011697 -0.026265 -0.000328
v -0.012616 -0.024168 -0.000911
v -0.011637 -0.019667 -0.000295
v -0.007323 -0.014970 0.006505
v -0.006878 -0.014404 0.004275
v -0.008640 -0.017907 0.001675
v -0.011125 -0.021380 -0.002219
v -0.009081 -0.027998 0.007584
v -0.004688 -0.014503 0.006745
v -0.001620 -0.024554 0.003862
v -0.002948 -0.016417 0.006924
v -0.005247 -0.027214 0.002928
v -0.004244 -0.027459 0.004371
v -0.003405 -0.024908 -0.003243
v -0.011494 -0.024014 -0.003175
v -0.003557 -0.022498 -0.005508
v -0.006393 -0.015370 -0.000483
v -0.006390 -0.015810 -0.001282
v -0.003838 -0.016383 -0.004267
v -0.007103 -0.013523 0.004834
v -0.004837 -0.012741 0.005838
v -0.006147 -0.012992 -0.000610
v -0.010003 -0.021571 -0.004733
v -0.002895 -0.009789 0.005437
v 0.000477 -0.013368 0.006868
v -0.002214 -0.027800 0.002398
v 0.001478 -0.025646 0.001873
v 0.003186 -0.014688 0.005971
v 0.003067 -0.016721 0.004963
v 0.000716 -0.029113 -0.006303
v 0.000702 -0.029953 -0.004556
v -0.005615 -0.019156 -0.006846
v -0.002754 -0.020649 -0.006465
v 0.000138 -0.027014 -0.007157
v -0.004951 -0.014096 -0.002447
v -0.003800 -0.015528 -0.004281
v -0.004373 -0.017152 -0.007763
v -0.003356 -0.014774 -0.005632
v -0.007375 -0.012289 0.003101
v -0.006894 -0.011255 -0.001543
v -0.000168 -0.007025 0.002638
v 0.002452 -0.008688 0.006459
v 0.002393 -0.010394 0.007203
v 0.004049 -0.009966 0.007045
v 0.005027 -0.012240 0.006566
v 0.001377 -0.028923 -0.000399
v 0.000486 -0.029865 -0.001249
v 0.004406 -0.019733 0.002237
v 0.004847 -0.014447 0.004353
v 0.005129 -0.016008 0.001241
v 0.002655 -0.029199 -0.003518
v 0.002639 -0.028099 -0.005935
v -0.001701 -0.018797 -0.007322
v -0.000225 -0.021341 -0.007428
v 0.002701 -0.020423 -0.006324
v 0.001681 -0.021416 -0.006890
v -0.005424 -0.012075 -0.004458
v -0.003336 -0.013121 -0.006533
v -0.002683 -0.014074 -0.007181
v -0.001663 -0.013427 -0.007558
v -0.003250 -0.013934 -0.006653
v 0.001265 -0.015036 -0.008488
v 0.000162 -0.006194 -0.000696
v -0.001251 -0.009225 -0.005493
v 0.004049 -0.007243 0.003664
v 0.003330 -0.005896 0.000086
v 0.006673 -0.010579 0.003715
v 0.006642 -0.011715 0.003326
v 0.005578 -0.019518 -0.000184
v 0.004435 -0.026331 -0.003310
v 0.006810 -0.011927 -0.003525
v 0.002095 -0.019074 -0.007308
v 0.005528 -0.014984 -0.005418
v -0.002479 -0.013306 -0.007087
v 0.000932 -0.013540 -0.008327
v 0.004651 -0.011557 -0.005686
v 0.004036 -0.006438 -0.002998
v 0.005030 -0.006711 -0.002757
vt 0.344673 0.511931
vt 0.236448 0.543178
vt 0.350113 0.489328
vt 0.374520 0.512401
vt 0.338400 0.593066
vt 0.399260 0.605433
vt 0.234178 0.473881
vt 0.287208 0.464906
vt 0.237578 0.633935
vt 0.005958 0.460479
vt 0.000000 0.398530
vt 0.042543 0.355332
vt 0.018471 0.313800
vt 0.569881 0.745065
vt 0.558502 0.795825
vt 0.484158 0.742340
vt 0.489063 0.792994
vt 0.634350 0.721842
vt 0.589432 0.787420
vt 0.440406 0.572729
vt 0.830310 0.507246
vt 0.751307 0.506063
vt 0.767457 0.468508
vt 0.134752 0.898016
vt 0.202789 0.972323
vt 0.138681 0.960948
vt 0.227471 0.759411
vt 0.271191 0.782448
vt 0.346321 0.711431
vt 0.202789 0.859229
vt 0.734136 0.403826
vt 0.773759 0.366025
vt 0.811719 0.426106
vt 0.443373 0.789230
vt 0.446691 0.723390
vt 0.078911 0.464906
vt 0.063139 0.189769
vt 0.106646 0.159499
vt 0.242343 0.352719
vt 0.145435 0.184816
vt 0.517952 0.610665
vt 0.480446 0.599741
vt 0.642622 0.525529
vt 0.719236 0.464013
vt 0.703387 0.507246
vt 0.703387 0.692787
vt 0.188774 0.775959
vt 0.681841 0.255781
vt 0.693638 0.244587
vt 0.596574 0.259941
vt 0.257412 0.798057
vt 0.510484 0.815920
vt 0.556693 0.811383
vt 0.556149 0.866575
vt 0.524395 0.873590
vt 0.373728 0.783369
vt 0.367529 0.835623
vt 0.681515 0.407227
vt 0.201810 0.429826
vt 0.599590 0.908297
vt 0.132627 0.054758
vt 0.194863 0.097011
vt 0.263119 0.429078
vt 0.326930 0.359338
vt 0.260939 0.107030
vt 0.279634 0.153300
vt 0.503839 0.545370
vt 0.445466 0.507246
vt 0.554353 0.390621
vt 0.572156 0.435324
vt 0.050604 0.817500
vt 0.042398 0.775959
vt 0.134752 0.797092
vt 0.915227 0.000000
vt 0.915227 0.142196
vt 0.830310 0.113195
vt 0.585365 0.335247
vt 0.534399 0.349035
vt 0.452130 0.468280
vt 0.800660 0.867401
vt 0.754239 0.845055
vt 0.800660 0.814699
vt 0.221375 0.775959
vt 0.221375 0.827425
vt 0.202968 0.821094
vt 0.598715 0.241659
vt 0.647508 0.213791
vt 0.668361 0.838123
vt 0.599590 0.878527
vt 0.638144 0.795825
vt 0.638134 0.905684
vt 0.605736 0.896135
vt 0.291649 0.830466
vt 0.599590 0.795825
vt 0.754239 0.814699
vt 0.754239 0.914611
vt 0.703388 0.862179
vt 0.385231 0.873589
vt 0.404843 0.824365
vt 0.766015 0.608659
vt 0.831862 0.687417
vt 0.730958 0.725670
vt 0.814650 0.507246
vt 0.703885 0.714500
vt 0.212472 0.020588
vt 0.242705 0.000000
vt 0.276649 0.040917
vt 0.366096 0.435715
vt 0.363761 0.464906
vt 0.067008 0.884958
vt 0.134752 0.937287
vt 0.349187 0.215176
vt 0.308737 0.095812
vt 0.356544 0.137483
vt 0.010465 0.842244
vt 0.000000 0.785016
vt 0.891327 0.196816
vt 0.931257 0.165126
vt 0.952217 0.193362
vt 0.511310 0.305671
vt 0.558699 0.287694
vt 0.474944 0.351036
vt 0.876382 0.341036
vt 0.863703 0.313496
vt 0.830310 0.305119
vt 0.443373 0.873923
vt 0.443373 0.805917
vt 0.576247 0.226300
vt 0.570171 0.193351
vt 0.637266 0.178610
vt 0.547010 0.211202
vt 0.526417 0.192387
vt 0.665018 0.917129
vt 0.564272 0.210331
vt 0.457117 0.211355
vt 0.668361 0.934009
vt 0.904849 0.707243
vt 0.915357 0.534747
vt 0.560208 0.096129
vt 0.607084 0.012234
vt 0.703365 0.163001
vt 0.792033 0.774069
vt 0.877954 0.774454
vt 0.703388 0.752409
vt 0.331620 0.005534
vt 0.756740 0.814699
vt 0.340737 0.030455
vt 0.397257 0.211240
vt 0.443373 0.370932
vt 0.426327 0.443681
vt 0.155477 0.759709
vt 0.129761 0.638555
vt 0.221375 0.672663
vt 1.000000 0.425357
vt 0.984064 0.507246
vt 0.840977 0.356616
vt 0.510484 0.795825
vt 0.510484 0.971818
vt 0.443373 0.840420
vt 0.173269 0.567182
vt 1.000000 0.195132
vt 0.999600 0.258011
vt 0.443373 0.289083
vt 0.547290 0.193524
vt 0.470299 0.181284
vt 0.127947 0.467374
vt 0.096017 0.580433
vt 0.095871 0.478605
vt 0.221375 0.464906
vt 0.934587 0.795300
vt 0.508306 0.000000
vt 0.923653 0.814699
vt 0.014171 0.674827
vt 0.134493 0.775959
vt 0.046814 0.773858
vt 0.000000 0.662226
vn 0.9326 -0.1056 -0.3451
vn 0.9788 -0.1230 -0.1640
vn 0.8765 -0.4521 -0.1655
vn 0.7614 -0.4482 -0.4684
vn 0.9695 -0.1918 -0.1525
vn 0.9487 -0.0857 -0.3044
vn 0.9237 -0.0482 -0.3801
vn 0.9182 -0.3692 -0.1434
vn 0.0501 -0.1909 -0.9803
vn 0.0866 -0.2673 -0.9597
vn 0.3973 0.9141 0.0809
vn 0.3816 0.9177 0.1104
vn 0.5526 0.7419 0.3797
vn 0.6274 0.6652 0.4048
vn 0.9322 0.0556 0.3577
vn 0.7355 0.4605 0.4969
vn 0.6272 -0.6541 -0.4228
vn 0.8518 -0.5233 -0.0250
vn 0.8415 -0.5394 0.0310
vn 0.8229 -0.5415 0.1719
vn 0.6473 -0.6416 -0.4115
vn 0.7946 -0.3329 0.5078
vn 0.8109 -0.1711 0.5596
vn 0.2111 0.9075 -0.3632
vn 0.1040 0.9038 -0.4150
vn -0.4206 0.1108 -0.9005
vn 0.1151 -0.2547 -0.9601
vn 0.1330 -0.2584 -0.9568
vn -0.4821 0.1044 -0.8699
vn -0.0665 -0.1526 -0.9860
vn -0.4413 0.2521 -0.8612
vn -0.0859 0.9572 0.2763
vn -0.0927 0.8915 0.4434
vn -0.1096 0.9646 0.2399
vn -0.2176 0.9618 -0.1662
vn -0.0339 0.9395 0.3409
vn 0.7829 0.4597 0.4193
vn 0.0331 0.7829 0.6213
vn 0.1403 0.6828 0.7170
vn 0.8696 -0.2715 0.4125
vn 0.6079 -0.7529 -0.2522
vn 0.5918 -0.7052 0.3905
vn 0.5512 -0.5449 0.6318
vn 0.5492 -0.5976 0.5842
vn 0.9694 0.1075 0.2207
vn 0.4780 -0.6942 -0.5382
vn 0.1586 -0.4412 -0.8833
vn 0.8106 -0.5523 0.1948
vn 0.9881 -0.0958 0.1202
vn 0.9740 0.1321 0.1839
vn 0.8713 -0.2707 0.4094
vn 0.5953 -0.7363 0.3216
vn -0.5439 0.3584 -0.7587
vn 0.4191 -0.3873 -0.8212
vn 0.0880 -0.2973 -0.9507
vn 0.0369 -0.0598 -0.9975
vn -0.5960 0.4182 -0.6855
vn -0.4609 0.2457 -0.8528
vn -0.3716 0.4373 -0.8189
vn -0.2095 0.2178 -0.9532
vn -0.2579 0.4413 -0.8595
vn -0.2730 0.3578 -0.8930
vn 0.1948 0.9803 0.0310
vn 0.2409 0.8834 0.4020
vn 0.7812 0.4530 0.4296
vn 0.7792 0.5624 0.2766
vn 0.7854 0.6022 0.1429
vn 0.1704 0.4538 0.8747
vn 0.1005 0.4225 0.9007
vn 0.1705 0.4549 0.8740
vn 0.5677 0.1704 0.8054
vn 0.7434 0.4174 0.5227
vn 0.8214 -0.0547 0.5677
vn 0.8203 -0.4996 0.2782
vn 0.7577 -0.0230 0.6522
vn 0.7505 -0.2025 0.6291
vn 0.5794 -0.7224 0.3775
vn 0.8473 -0.5310 -0.0129
vn 0.9381 -0.3395 -0.0689
vn 0.9554 -0.0377 0.2930
vn 0.8623 0.4666 0.1969
vn 0.4806 -0.6769 -0.5575
vn 0.6013 -0.4821 -0.6372
vn 0.8589 0.4738 0.1945
vn 0.8346 0.4920 0.2477
vn 0.2672 -0.8030 -0.5327
vn 0.5637 -0.7923 -0.2332
vn 0.2502 -0.3943 -0.8843
vn 0.3061 -0.0905 -0.9477
vn -0.1447 0.2023 -0.9686
vn -0.1052 0.1615 -0.9813
vn -0.1449 0.3352 -0.9309
vn -0.4133 0.5274 -0.7423
vn -0.2313 0.7632 -0.6034
vn 0.6243 0.7809 0.0200
vn -0.7388 0.3992 -0.5430
vn -0.6251 0.3524 -0.6964
vn -0.6776 0.3581 -0.6423
vn -0.6071 0.5868 -0.5358
vn -0.8774 0.0425 -0.4779
vn -0.7837 0.5239 -0.3338
vn -0.4997 0.7822 0.3721
vn -0.4880 0.7932 0.3642
vn -0.3207 0.2798 0.9049
vn -0.3379 0.9400 -0.0471
vn 0.0780 0.3744 0.9240
vn 0.0769 0.3824 0.9208
vn 0.3946 0.1915 0.8987
vn 0.3712 0.0680 0.9260
vn -0.4211 0.0493 0.9057
vn -0.5667 0.1173 0.8155
vn -0.2705 0.0287 0.9623
vn 0.8311 0.4778 0.2847
vn 0.8784 0.4244 0.2199
vn 0.8868 0.2129 0.4102
vn 0.7410 0.3770 0.5556
vn 0.5412 -0.4334 0.7206
vn 0.9491 -0.2845 -0.1355
vn 0.5526 -0.4375 0.7094
vn 0.1972 -0.1963 0.9605
vn 0.0167 0.2841 0.9587
vn 0.9827 0.0793 0.1672
vn 0.5777 -0.8036 -0.1431
vn 0.5881 -0.8003 -0.1173
vn 0.5205 -0.7827 0.3413
vn 0.5734 -0.6664 0.4766
vn 0.0585 -0.9000 -0.4319
vn 0.1463 -0.9632 -0.2256
vn 0.0391 -0.9325 -0.3589
vn -0.3658 -0.7248 -0.5838
vn 0.0160 -0.4002 -0.9163
vn -0.7859 -0.2159 -0.5795
vn -0.6992 -0.5568 -0.4484
vn -0.8379 0.4190 -0.3498
vn -0.8929 0.1675 -0.4179
vn -0.8435 0.3853 -0.3741
vn -0.7852 0.3622 -0.5023
vn -0.7792 0.5100 -0.3644
vn -0.5479 0.7833 -0.2938
vn -0.9005 0.0596 -0.4307
vn -0.8452 0.4430 -0.2988
vn -0.9374 0.3467 -0.0337
vn -0.8502 -0.2877 0.4408
vn -0.9167 -0.1383 0.3749
vn -0.7763 0.6284 0.0501
vn -0.9230 0.3847 0.0039
vn -0.8337 0.5005 0.2333
vn -0.8355 0.0345 0.5484
vn 0.0172 0.2837 0.9588
vn -0.0070 -0.0457 0.9989
vn -0.2576 0.2137 0.9423
vn -0.9020 -0.0457 0.4294
vn -0.6408 0.2432 0.7281
vn 0.4977 -0.4623 0.7339
vn 0.5311 -0.0685 0.8445
vn 0.4199 -0.4370 0.7954
vn 0.4613 -0.2275 0.8576
vn 0.6241 -0.2561 0.7381
vn 0.2823 -0.0403 0.9585
vn 0.2362 -0.4471 0.8627
vn 0.4007 -0.4354 0.8061
vn -0.4937 -0.2010 0.8461
vn -0.5816 -0.0856 0.8090
vn -0.5814 0.1158 0.8053
vn 0.0471 -0.9819 0.1834
vn 0.2266 -0.8522 0.4717
vn -0.0808 -0.5754 0.8139
vn -0.6305 -0.7596 -0.1593
vn -0.7735 -0.6110 -0.1688
vn -0.2864 -0.9527 0.1019
vn -0.9436 -0.3284 0.0433
vn -0.9990 0.0360 -0.0256
vn -0.6953 -0.3312 0.6379
vn -0.7125 -0.1284 0.6898
vn -0.3314 -0.4689 0.8187
vn -0.3279 -0.4711 0.8189
usemtl Material_with_Texture.769
s off
f 1/1/1 2/2/1 3/3/1
f 4/4/2 1/1/2 3/3/2
f 1/1/3 5/5/3 2/2/3
f 5/5/4 1/1/4 6/6/4
f 4/4/5 6/6/5 1/1/5
f 7/7/6 8/8/6 2/2/6
f 3/3/7 2/2/7 8/8/7
f 9/9/8 2/2/8 5/5/8
f 7/10/9 2/11/9 10/12/9
f 10/12/10 2/11/10 9/13/10
f 11/14/11 3/15/11 12/16/11
f 8/17/12 12/16/12 3/15/12
f 11/14/13 13/18/13 3/15/13
f 13/18/14 4/19/14 3/15/14
f 14/20/15 6/6/15 4/4/15
f 4/21/16 13/22/16 14/23/16
f 15/24/17 5/25/17 6/26/17
f 9/9/18 5/5/18 16/27/18
f 16/27/19 5/5/19 17/28/19
f 18/29/20 17/28/20 5/5/20
f 18/30/21 5/25/21 15/24/21
f 19/31/22 15/32/22 6/33/22
f 19/31/23 6/33/23 14/23/23
f 8/17/24 7/34/24 12/16/24
f 20/35/25 12/16/25 7/34/25
f 20/36/26 7/10/26 10/12/26
f 10/12/27 9/13/27 16/37/27
f 10/12/28 16/37/28 21/38/28
f 22/39/29 20/36/29 10/12/29
f 10/12/30 21/38/30 23/40/30
f 10/12/31 23/40/31 22/39/31
f 11/14/32 12/16/32 24/41/32
f 11/14/33 24/41/33 13/18/33
f 25/42/34 24/41/34 12/16/34
f 12/16/35 20/35/35 25/42/35
f 13/18/36 24/41/36 26/43/36
f 13/22/37 27/44/37 14/23/37
f 13/18/38 28/45/38 27/46/38
f 26/43/39 28/45/39 13/18/39
f 19/31/40 14/23/40 27/44/40
f 29/47/41 18/30/41 15/24/41
f 30/48/42 29/49/42 15/32/42
f 15/32/43 19/31/43 31/50/43
f 30/48/44 15/32/44 31/50/44
f 17/28/45 32/51/45 16/27/45
f 16/52/46 32/53/46 33/54/46
f 16/52/47 33/54/47 21/55/47
f 18/29/48 29/56/48 17/28/48
f 34/57/49 17/28/49 29/56/49
f 32/51/50 17/28/50 34/57/50
f 35/58/51 19/31/51 27/44/51
f 31/50/52 19/31/52 35/58/52
f 20/36/53 22/39/53 25/59/53
f 36/60/54 21/55/54 33/54/54
f 21/38/55 36/61/55 37/62/55
f 37/62/56 23/40/56 21/38/56
f 22/39/57 38/63/57 25/59/57
f 23/40/58 39/64/58 22/39/58
f 39/64/59 38/63/59 22/39/59
f 40/65/60 23/40/60 37/62/60
f 40/65/61 41/66/61 23/40/61
f 23/40/62 41/66/62 39/64/62
f 24/41/63 25/42/63 38/67/63
f 38/67/64 26/43/64 24/41/64
f 42/68/65 28/69/65 26/70/65
f 43/71/66 42/72/66 26/73/66
f 38/74/67 43/75/67 26/76/67
f 28/69/68 35/58/68 27/44/68
f 44/77/69 28/69/69 45/78/69
f 28/69/70 44/77/70 35/58/70
f 45/78/71 28/69/71 46/79/71
f 42/68/72 46/79/72 28/69/72
f 34/80/73 29/81/73 47/82/73
f 47/83/74 29/84/74 30/85/74
f 48/86/75 30/48/75 31/50/75
f 47/87/76 30/48/76 48/86/76
f 35/58/77 44/77/77 31/50/77
f 49/88/78 31/89/78 44/90/78
f 50/91/79 31/89/79 49/88/79
f 31/89/80 50/91/80 48/92/80
f 32/51/81 34/57/81 51/93/81
f 51/94/82 33/54/82 32/53/82
f 51/95/83 36/96/83 33/97/83
f 34/57/84 52/98/84 51/93/84
f 34/57/85 47/99/85 52/98/85
f 36/100/86 53/101/86 54/102/86
f 51/103/87 53/101/87 36/100/87
f 54/102/88 55/104/88 36/100/88
f 37/62/89 36/61/89 55/105/89
f 55/105/90 56/106/90 37/62/90
f 56/106/91 57/107/91 37/62/91
f 37/62/92 57/107/92 40/65/92
f 38/63/93 39/64/93 58/108/93
f 38/63/94 58/108/94 59/109/94
f 59/110/95 43/71/95 38/111/95
f 60/112/96 58/108/96 39/64/96
f 41/66/97 60/112/97 39/64/97
f 40/65/98 61/113/98 41/66/98
f 61/113/99 40/65/99 57/107/99
f 62/114/100 60/112/100 41/66/100
f 62/114/101 41/66/101 61/113/101
f 43/71/102 63/115/102 42/72/102
f 63/115/103 64/116/103 42/72/103
f 46/117/104 42/118/104 64/119/104
f 59/110/105 63/115/105 43/71/105
f 44/77/106 65/120/106 49/121/106
f 45/78/107 65/120/107 44/77/107
f 65/120/108 45/78/108 66/122/108
f 46/79/109 66/122/109 45/78/109
f 67/123/110 46/117/110 64/119/110
f 67/123/111 68/124/111 46/117/111
f 68/124/112 66/125/112 46/117/112
f 69/126/113 52/98/113 47/99/113
f 48/127/114 69/126/114 47/99/114
f 50/128/115 70/129/115 48/86/115
f 70/129/116 69/130/116 48/86/116
f 71/131/117 49/121/117 72/132/117
f 50/91/118 49/88/118 73/133/118
f 49/121/119 71/131/119 73/134/119
f 49/121/120 74/135/120 72/132/120
f 49/121/121 65/120/121 74/135/121
f 50/91/122 73/133/122 70/136/122
f 75/137/123 53/101/123 51/103/123
f 52/138/124 75/137/124 51/103/124
f 76/139/125 75/140/125 52/141/125
f 76/139/126 52/141/126 69/130/126
f 53/101/127 77/142/127 54/102/127
f 53/101/128 75/137/128 78/143/128
f 53/101/129 78/143/129 77/142/129
f 56/144/130 54/102/130 77/142/130
f 55/104/131 54/102/131 56/144/131
f 57/107/132 56/106/132 79/145/132
f 77/142/133 79/146/133 56/144/133
f 61/113/134 57/107/134 80/147/134
f 80/147/135 57/107/135 79/145/135
f 81/148/136 58/108/136 60/112/136
f 82/149/137 58/108/137 81/148/137
f 82/149/138 63/150/138 58/108/138
f 58/108/139 63/150/139 59/109/139
f 60/112/140 62/114/140 81/148/140
f 80/147/141 62/114/141 61/113/141
f 80/151/142 83/152/142 62/153/142
f 81/154/143 62/155/143 67/123/143
f 84/156/144 67/123/144 62/155/144
f 84/157/145 62/158/145 85/159/145
f 83/152/146 85/160/146 62/153/146
f 63/161/147 82/162/147 64/119/147
f 64/119/148 82/162/148 67/123/148
f 74/135/149 65/120/149 84/163/149
f 84/163/150 65/120/150 66/122/150
f 68/124/151 84/156/151 66/125/151
f 82/162/152 81/154/152 67/123/152
f 67/123/153 84/156/153 68/124/153
f 70/129/154 76/139/154 69/130/154
f 73/134/155 86/164/155 70/129/155
f 86/164/156 76/139/156 70/129/156
f 71/131/157 72/132/157 86/164/157
f 71/131/158 86/164/158 73/134/158
f 87/165/159 72/132/159 74/135/159
f 72/132/160 87/165/160 76/139/160
f 86/164/161 72/132/161 76/139/161
f 74/166/162 88/167/162 87/168/162
f 74/166/163 85/160/163 88/167/163
f 84/169/164 85/160/164 74/166/164
f 78/143/165 75/137/165 89/170/165
f 75/140/166 76/139/166 89/171/166
f 89/171/167 76/139/167 87/165/167
f 77/142/168 78/143/168 90/172/168
f 90/173/169 79/174/169 77/175/169
f 89/170/170 90/172/170 78/143/170
f 90/173/171 83/152/171 79/174/171
f 80/151/172 79/174/172 83/152/172
f 88/167/173 83/152/173 90/173/173
f 85/160/174 83/152/174 88/167/174
f 87/168/175 88/167/175 90/173/175
f 90/173/176 89/176/176 87/168/176
