# Blender v3.5.0 OBJ File: ''
# www.blender.org
mtllib index_distal_rvs.mtl
o index_distal_rvs.vtp_index_distal_rvs.vtp.010
v 0.046059 -0.161847 -0.017249
v 0.046947 -0.162285 -0.015753
v 0.047813 -0.161855 -0.016602
v 0.045819 -0.162088 -0.016636
v 0.047144 -0.161178 -0.017455
v 0.044895 -0.161979 -0.018110
v 0.049857 -0.162555 -0.015397
v 0.050163 -0.163457 -0.013730
v 0.042394 -0.161788 -0.015568
v 0.047794 -0.160908 -0.017148
v 0.048847 -0.161372 -0.016446
v 0.042512 -0.161731 -0.016539
v 0.044100 -0.162113 -0.017617
v 0.044394 -0.160782 -0.019556
v 0.045373 -0.159706 -0.019448
v 0.044157 -0.161802 -0.018563
v 0.044131 -0.161266 -0.019206
v 0.053033 -0.164426 -0.013174
v 0.051288 -0.162351 -0.015443
v 0.050415 -0.162008 -0.015572
v 0.052710 -0.164411 -0.012590
v 0.050038 -0.163283 -0.011876
v 0.045754 -0.161991 -0.011779
v 0.041619 -0.161354 -0.012269
v 0.041856 -0.161571 -0.014423
v 0.047945 -0.159941 -0.016571
v 0.046018 -0.159019 -0.018747
v 0.050477 -0.161422 -0.014963
v 0.048938 -0.160537 -0.015687
v 0.043522 -0.161450 -0.018628
v 0.043187 -0.160643 -0.014152
v 0.043990 -0.159601 -0.014515
v 0.044814 -0.159463 -0.019677
v 0.044132 -0.159067 -0.019264
v 0.043702 -0.160228 -0.019347
v 0.045210 -0.158539 -0.018965
v 0.055030 -0.164243 -0.014094
v 0.052439 -0.162623 -0.015273
v 0.056456 -0.164778 -0.012307
v 0.051625 -0.162000 -0.015298
v 0.055615 -0.164644 -0.010750
v 0.052760 -0.163871 -0.011252
v 0.051127 -0.162400 -0.010350
v 0.049824 -0.162656 -0.010871
v 0.048146 -0.161401 -0.010489
v 0.046773 -0.160889 -0.010241
v 0.044872 -0.160651 -0.009956
v 0.042598 -0.160640 -0.010128
v 0.042338 -0.160826 -0.011155
v 0.043821 -0.159804 -0.013630
v 0.045760 -0.157193 -0.010652
v 0.045312 -0.157608 -0.017554
v 0.050256 -0.160973 -0.013091
v 0.044366 -0.158308 -0.015163
v 0.044275 -0.158670 -0.014589
v 0.043552 -0.160169 -0.014154
v 0.044011 -0.159112 -0.014156
v 0.044182 -0.158532 -0.018824
v 0.044394 -0.157656 -0.017714
v 0.044054 -0.157550 -0.016825
v 0.055819 -0.164301 -0.014903
v 0.056218 -0.164728 -0.014041
v 0.052697 -0.162351 -0.016289
v 0.052203 -0.162258 -0.015670
v 0.056778 -0.164903 -0.012701
v 0.056637 -0.164886 -0.011799
v 0.057779 -0.164460 -0.013025
v 0.057217 -0.164679 -0.011714
v 0.051679 -0.161495 -0.012939
v 0.052369 -0.161681 -0.014617
v 0.052622 -0.161458 -0.015469
v 0.053941 -0.163589 -0.009531
v 0.056088 -0.163722 -0.009634
v 0.057165 -0.164290 -0.010722
v 0.052013 -0.162269 -0.009529
v 0.051779 -0.162618 -0.010315
v 0.050650 -0.162253 -0.010426
v 0.051579 -0.162123 -0.010076
v 0.051066 -0.161902 -0.010470
v 0.049780 -0.162024 -0.010590
v 0.049923 -0.161430 -0.011066
v 0.047610 -0.159743 -0.010330
v 0.045852 -0.159561 -0.009550
v 0.043676 -0.159390 -0.008825
v 0.042840 -0.160280 -0.009627
v 0.042444 -0.160488 -0.010692
v 0.043018 -0.159212 -0.010167
v 0.042789 -0.160118 -0.010801
v 0.044246 -0.158168 -0.012956
v 0.046105 -0.158231 -0.009726
v 0.045010 -0.157588 -0.009424
v 0.043832 -0.157261 -0.009775
v 0.043827 -0.156844 -0.010955
v 0.043916 -0.156957 -0.013647
v 0.044467 -0.157383 -0.017193
v 0.044045 -0.157879 -0.014331
v 0.056563 -0.163615 -0.015321
v 0.055732 -0.163148 -0.015770
v 0.056922 -0.163850 -0.015025
v 0.053973 -0.162262 -0.016405
v 0.057465 -0.164243 -0.014132
v 0.052933 -0.161871 -0.016658
v 0.052422 -0.161788 -0.016346
v 0.056884 -0.163316 -0.014681
v 0.057605 -0.163968 -0.012100
v 0.056367 -0.162729 -0.013886
v 0.052933 -0.161776 -0.012669
v 0.051946 -0.161663 -0.010867
v 0.052833 -0.161390 -0.016172
v 0.054011 -0.161723 -0.015983
v 0.053678 -0.162489 -0.008813
v 0.053042 -0.162174 -0.008845
v 0.055459 -0.162731 -0.009569
v 0.052569 -0.161975 -0.009008
v 0.051862 -0.161784 -0.009324
v 0.052106 -0.161452 -0.010266
v 0.044558 -0.158714 -0.008803
v 0.042985 -0.159060 -0.008961
v 0.043824 -0.158891 -0.008726
v 0.043871 -0.157988 -0.011730
v 0.043027 -0.158150 -0.010151
v 0.043345 -0.158601 -0.008889
v 0.043005 -0.158092 -0.009287
v 0.043216 -0.157434 -0.010429
v 0.056258 -0.162839 -0.015206
v 0.053185 -0.161659 -0.009277
v 0.052190 -0.161392 -0.009766
vt 0.054292 0.133605
vt 0.102237 0.188628
vt 0.058693 0.203139
vt 0.081133 0.135681
vt 0.942097 0.740214
vt 0.871359 0.811823
vt 0.894181 0.760012
vt 0.034562 0.085132
vt 0.927144 0.691228
vt 0.081609 0.300598
vt 0.143271 0.344517
vt 0.163451 0.020152
vt 0.962835 0.717854
vt 0.964704 0.662993
vt 0.938777 0.591068
vt 0.124137 0.012977
vt 0.063289 0.064362
vt 0.912304 0.875429
vt 0.968796 0.859527
vt 0.025608 0.051022
vt 0.887456 0.869158
vt 0.864787 0.847104
vt 0.131109 0.468936
vt 0.977496 0.549537
vt 0.970755 0.585529
vt 0.927831 0.415881
vt 0.157737 0.463450
vt 0.217068 0.357044
vt 0.271438 0.183864
vt 0.301302 0.020680
vt 0.214476 0.009642
vt 0.993511 0.717525
vt 0.412337 0.339556
vt 0.455348 0.226502
vt 0.483788 0.237900
vt 1.000000 0.836443
vt 0.525932 0.108111
vt 0.510352 0.184725
vt 0.475168 0.175556
vt 0.498179 0.102200
vt 0.030527 0.021808
vt 0.410737 0.633955
vt 0.421107 0.544703
vt 0.471512 0.641805
vt 0.525215 0.627363
vt 0.454375 0.456535
vt 0.966487 0.885802
vt 0.961172 0.906007
vt 0.913740 0.902491
vt 0.497108 0.417431
vt 0.551848 0.415881
vt 0.550356 0.437709
vt 1.000000 0.874316
vt 0.000679 0.034203
vt 0.000000 0.000000
vt 0.071414 0.527102
vt 0.055771 0.395010
vt 0.992383 0.505015
vt 0.124347 0.606032
vt 0.995391 0.541651
vt 0.503084 0.059462
vt 0.195076 0.590547
vt 0.209218 0.470531
vt 0.263443 0.397384
vt 0.258668 0.349690
vt 0.293190 0.272984
vt 0.319055 0.218167
vt 0.352714 0.149541
vt 0.373032 0.066538
vt 0.444434 0.766090
vt 0.455726 0.806849
vt 0.411422 0.722792
vt 0.513858 0.663017
vt 0.748907 0.325578
vt 0.472545 0.384731
vt 0.410737 0.378866
vt 0.604749 0.110898
vt 0.501004 0.431760
vt 0.578504 0.604722
vt 0.563596 0.626788
vt 0.495811 0.641803
vt 0.542270 0.643745
vt 0.591803 0.446334
vt 0.569567 0.457392
vt 0.603558 0.504623
vt 0.599137 0.542618
vt 0.470472 0.415881
vt 0.421603 0.412603
vt 0.030477 0.547487
vt 0.059489 0.578110
vt 0.012979 0.388730
vt 0.042985 0.376222
vt 0.064306 0.355305
vt 0.105176 0.615367
vt 0.142050 0.619741
vt 0.053971 0.691321
vt 0.042105 0.655244
vt 0.053971 0.640101
vt 0.043405 0.714366
vt 0.053972 0.691321
vt 0.053972 0.728750
vt 0.761571 0.715858
vt 0.761571 0.771376
vt 0.727828 0.762970
vt 0.154631 0.798813
vt 0.128334 0.704176
vt 0.157341 0.726279
vt 0.600342 0.050446
vt 0.130387 0.684817
vt 0.167690 0.690399
vt 0.262270 0.526322
vt 0.232762 0.603898
vt 0.138418 0.637833
vt 0.177648 0.640101
vt 0.714185 0.715858
vt 0.727828 0.770370
vt 0.689280 0.770370
vt 0.284917 0.435546
vt 0.257116 0.424633
vt 0.854486 0.241011
vt 0.826796 0.191069
vt 0.851763 0.220921
vt 0.858260 0.267732
vt 0.869855 0.256973
vt 0.872106 0.230001
vt 0.837119 0.119109
vt 0.845655 0.184476
vt 0.873730 0.174228
vt 0.884462 0.078644
vt 0.827997 0.066680
vt 0.799290 0.000000
vt 0.851676 0.024909
vt 0.410737 0.097937
vt 0.389612 0.074492
vt 0.668798 0.715858
vt 0.668798 0.772997
vt 0.614168 0.757368
vt 0.458050 0.785585
vt 0.473030 0.827257
vt 0.514166 0.809054
vt 0.478406 0.780946
vt 0.579038 0.694762
vt 0.777616 0.284367
vt 0.736292 0.205535
vt 0.799290 0.332888
vt 0.793267 0.382388
vt 0.748750 0.400645
vt 0.639940 0.415881
vt 0.492667 0.415324
vt 0.684505 0.096682
vt 0.668798 0.787139
vt 0.689280 0.715858
vt 0.689280 0.818493
vt 0.585686 0.641673
vt 0.614168 0.526352
vt 0.614168 0.673725
vt 0.358962 0.818853
vt 0.362431 0.776091
vt 0.401942 0.818828
vt 0.359153 0.840043
vt 0.374990 0.693967
vt 0.363438 0.881834
vt 0.410736 0.856413
vt 0.387363 0.650495
vt 0.410736 0.660420
vt 0.080513 0.640101
vt 0.040984 0.613399
vt 0.013874 0.368880
vt 0.399631 0.640101
vt 0.149167 0.656431
vt 0.675679 0.647135
vt 0.633448 0.629414
vt 0.614168 0.585820
vt 0.039276 0.704863
vt 0.039276 0.763645
vt 0.012455 0.738731
vt 0.627863 0.546063
vt 0.703611 0.611777
vt 0.014216 0.799076
vt 0.699582 0.043342
vt 0.528586 0.036043
vt 0.603034 0.000000
vt 0.680784 0.021888
vt 0.172245 0.800239
vt 0.172245 0.660692
vt 0.837604 0.553620
vt 0.864788 0.665509
vt 0.813337 0.689431
vt 0.861501 0.694065
vt 0.172245 0.734842
vt 0.200447 0.721867
vt 0.202260 0.813489
vt 0.202178 0.694421
vt 0.299354 0.477933
vt 0.227553 0.779537
vt 0.631017 0.490806
vt 0.676608 0.442828
vt 0.719804 0.435309
vt 0.189674 0.648624
vt 0.203636 0.672533
vt 0.202718 0.640101
vt 0.268689 0.411772
vt 0.294583 0.424232
vt 0.904891 0.263315
vt 0.092232 0.742845
vt 0.092232 0.777648
vt 0.058287 0.766974
vt 0.053971 0.741389
vt 0.079924 0.719561
vt 0.092232 0.742845
vt 0.904891 0.012305
vt 0.000000 0.667059
vt 0.039275 0.640101
vt 0.039275 0.704863
vt 0.296851 0.700132
vt 0.343009 0.710457
vt 0.266429 0.733653
vt 0.229878 0.765038
vt 0.236217 0.726052
vt 0.270415 0.714699
vt 0.517771 0.858401
vt 0.576153 0.746813
vt 0.550991 0.814085
vt 0.092232 0.668414
vt 0.128334 0.640101
vt 0.102228 0.719807
vt 0.300506 0.645678
vt 0.343009 0.655769
vt 0.248311 0.706262
vt 0.248970 0.640101
vt 0.227553 0.685323
vt 0.580021 0.804901
vt 0.614075 0.783012
vt 0.598895 0.828739
vt 0.551854 0.849218
vt 0.128334 0.775294
vt 0.343009 0.796945
vt 0.663707 0.663289
vt 0.682160 0.673839
vt 0.709378 0.665621
vt 0.722362 0.688986
vt 0.804108 0.708661
vt 0.849076 0.715858
vt 0.156078 0.640101
vt 0.820068 0.415881
vt 0.861555 0.433216
vt 0.092232 0.640101
vt 0.864788 0.453624
vt 0.227553 0.687596
vt 0.226655 0.641371
vt 0.065134 0.747922
vn -0.1232 0.9303 0.3455
vn -0.0956 0.9386 0.3316
vn -0.4118 0.8014 0.4338
vn -0.2896 0.9240 0.2498
vn -0.2617 0.6455 0.7175
vn 0.0242 0.8817 0.4712
vn 0.0240 0.8811 0.4724
vn 0.1157 0.9281 0.3538
vn 0.1113 0.9907 0.0788
vn -0.5240 0.4175 0.7424
vn -0.3347 0.4489 0.8285
vn -0.3403 0.4645 0.8175
vn 0.0994 0.9749 -0.1990
vn 0.1091 0.9915 0.0715
vn -0.0873 0.9880 0.1277
vn -0.4151 0.6249 0.6612
vn -0.5203 0.3975 0.7559
vn -0.5215 0.3960 0.7558
vn 0.0348 0.9488 0.3140
vn -0.2082 0.7471 0.6312
vn -0.3362 0.6650 0.6669
vn 0.2113 0.8754 0.4349
vn -0.0149 0.3185 0.9478
vn -0.2481 0.5155 0.8202
vn -0.0779 0.7051 0.7048
vn 0.2928 0.9462 0.1376
vn 0.2266 0.9710 -0.0759
vn 0.3742 0.9253 -0.0616
vn 0.2790 0.9399 -0.1971
vn 0.1622 0.9825 -0.0912
vn 0.2389 0.9684 -0.0713
vn 0.5763 0.8088 0.1175
vn -0.6199 -0.3285 0.7127
vn -0.7749 -0.2303 0.5887
vn -0.7035 -0.0620 0.7080
vn -0.5881 -0.5079 0.6293
vn -0.5645 -0.5653 0.6014
vn -0.7312 -0.4135 0.5426
vn 0.4200 0.8502 0.3174
vn 0.5260 -0.8202 0.2251
vn 0.7991 -0.5994 0.0472
vn 0.6796 -0.6949 0.2351
vn 0.4378 0.8460 0.3045
vn -0.3037 0.1825 0.9351
vn 0.1838 -0.1376 0.9733
vn 0.4965 0.3151 0.8088
vn 0.4846 -0.0744 0.8716
vn -0.4504 -0.3944 0.8010
vn -0.4893 -0.3910 0.7796
vn 0.3430 0.7283 0.5932
vn 0.5900 0.3431 0.7309
vn 0.2072 0.7703 0.6030
vn 0.0877 0.7678 0.6347
vn 0.0954 0.9951 0.0272
vn 0.0326 0.9643 0.2627
vn -0.1916 -0.2119 0.9583
vn -0.2157 -0.1887 0.9581
vn -0.1523 -0.7044 0.6933
vn 0.0998 0.9945 -0.0317
vn 0.3026 0.8799 -0.3664
vn 0.2762 0.8876 -0.3685
vn 0.2992 0.7177 -0.6288
vn 0.0416 0.8516 -0.5225
vn 0.2442 0.8453 -0.4753
vn 0.2664 0.5886 -0.7633
vn 0.1626 0.7479 -0.6436
vn 0.1899 0.8327 -0.5202
vn 0.0131 0.8087 -0.5881
vn 0.0294 0.9441 -0.3283
vn 0.5982 -0.8013 -0.0063
vn 0.5462 -0.8253 0.1433
vn 0.5803 -0.8143 0.0114
vn 0.6651 -0.6861 0.2948
vn -0.6002 -0.7868 0.1437
vn -0.6788 -0.7290 0.0879
vn -0.6914 -0.6359 0.3429
vn -0.5391 -0.6846 0.4907
vn -0.5410 -0.8301 0.1352
vn -0.4038 -0.8993 0.1680
vn -0.5822 -0.7968 0.1617
vn 0.9002 -0.3116 -0.3043
vn 0.9682 -0.2502 -0.0089
vn 0.9565 -0.2910 0.0220
vn 0.9674 -0.2530 -0.0062
vn 0.7922 -0.6100 0.0182
vn 0.7923 -0.6101 0.0014
vn 0.8247 -0.3573 0.4384
vn 0.9193 -0.2578 0.2974
vn 0.0972 -0.6333 0.7678
vn 0.1004 -0.6376 0.7638
vn 0.9348 0.1695 -0.3123
vn 0.7664 -0.5342 0.3568
vn 0.9757 0.1988 -0.0925
vn 0.0781 -0.7898 0.6084
vn -0.0528 -0.8317 0.5526
vn 0.3522 0.8932 0.2795
vn 0.3788 0.9251 -0.0253
vn 0.3942 0.8605 0.3228
vn 0.3884 0.8607 0.3291
vn 0.5719 0.7445 0.3446
vn 0.5616 0.7480 0.3538
vn 0.3408 0.9399 -0.0197
vn 0.3148 0.9450 0.0887
vn -0.4784 0.6453 -0.5956
vn -0.3596 0.8784 0.3149
vn -0.1908 0.9782 0.0816
vn 0.2267 -0.9534 0.1989
vn -0.3563 -0.9120 0.2034
vn 0.3624 -0.4012 0.8413
vn 0.4632 -0.8814 -0.0931
vn 0.0168 0.7673 -0.6410
vn -0.2446 0.8651 -0.4379
vn -0.2008 0.9084 -0.3667
vn -0.1708 0.7939 -0.5836
vn 0.3018 0.8859 -0.3523
vn 0.5003 0.7315 -0.4632
vn 0.2705 0.7034 -0.6574
vn 0.4880 0.7346 -0.4714
vn 0.2664 0.4147 -0.8701
vn 0.2100 0.4926 -0.8445
vn 0.0858 -0.2234 -0.9709
vn 0.5696 -0.1259 -0.8122
vn 0.1003 0.4101 -0.9065
vn 0.2715 0.4067 -0.8723
vn -0.2634 -0.5639 -0.7828
vn -0.3090 -0.0087 -0.9510
vn -0.1624 0.0420 -0.9858
vn -0.0842 0.4134 -0.9067
vn -0.3789 0.2066 -0.9021
vn 0.0017 0.6686 -0.7437
vn -0.2338 0.5169 -0.8235
vn 0.0491 0.7997 -0.5983
vn 0.9667 0.0427 -0.2525
vn 0.9277 -0.2796 -0.2472
vn 0.6281 -0.6911 -0.3577
vn 0.9583 -0.2804 0.0545
vn 0.7422 -0.6108 0.2759
vn 0.7714 -0.5989 0.2150
vn 0.9005 -0.3914 -0.1896
vn 0.8919 -0.3498 0.2866
vn 0.9666 -0.2561 0.0122
vn -0.7278 -0.5752 -0.3736
vn -0.7064 -0.5661 -0.4248
vn -0.5325 -0.6551 -0.5360
vn -0.1406 -0.9143 -0.3799
vn -0.1173 -0.9365 -0.3304
vn -0.1880 -0.9796 0.0711
vn -0.3587 -0.9331 0.0273
vn -0.2236 -0.9712 0.0819
vn -0.0353 -0.8832 0.4677
vn -0.6219 -0.7357 -0.2683
vn -0.3084 -0.9158 -0.2574
vn 0.8591 0.5071 0.0700
vn 0.9450 0.1874 0.2680
vn 0.8256 0.0569 0.5614
vn 0.9868 -0.0491 -0.1546
vn 0.5818 -0.7511 0.3120
vn 0.5022 -0.8459 0.1797
vn 0.9921 0.1240 0.0199
vn -0.0982 0.5934 0.7989
vn -0.1838 0.6491 0.7382
vn 0.0147 0.6016 0.7986
vn -0.2728 0.8084 0.5216
vn -0.2747 0.8050 0.5259
vn 0.0221 0.6025 0.7978
vn 0.0402 0.6159 0.7868
vn -0.3316 0.9036 0.2712
vn -0.3217 0.9123 0.2536
vn 0.7405 0.4152 0.5285
vn 0.5299 0.3376 0.7780
vn 0.8886 -0.4577 -0.0304
vn -0.8762 -0.4548 0.1594
vn -0.8922 0.3071 -0.3312
vn -0.8020 -0.5767 0.1559
vn -0.7680 -0.6399 -0.0270
vn -0.9016 0.3845 -0.1981
vn -0.2712 -0.9366 -0.2217
vn -0.2221 -0.9749 0.0167
vn -0.2076 -0.9768 -0.0525
vn 0.2156 -0.9707 -0.1065
vn 0.3378 -0.9303 -0.1432
vn 0.6617 -0.7389 0.1271
vn -0.2915 -0.9535 -0.0759
vn -0.2477 -0.9522 -0.1785
vn -0.2436 -0.9557 -0.1655
vn -0.0064 0.5455 -0.8381
vn 0.3205 0.5703 -0.7563
vn 0.4063 0.5945 -0.6938
vn -0.4057 -0.1990 -0.8921
vn -0.6959 -0.6175 -0.3665
vn -0.7746 -0.4634 -0.4303
vn 0.4579 0.4706 -0.7542
vn 0.4629 0.4635 -0.7556
vn 0.7342 0.5120 -0.4459
vn 0.7570 0.4399 -0.4832
vn 0.1138 -0.2552 -0.9602
vn 0.3734 -0.5123 -0.7734
vn 0.7842 -0.6203 -0.0155
vn 0.1314 -0.6390 -0.7579
vn 0.3491 -0.9094 0.2263
vn -0.4089 -0.0429 -0.9116
vn -0.5083 -0.0172 -0.8610
vn -0.2661 0.3761 -0.8875
vn 0.3618 0.4132 -0.8357
vn 0.2457 0.1180 -0.9621
vn -0.1577 0.2370 -0.9586
vn 0.9888 -0.1421 0.0450
vn 0.8865 -0.3940 0.2428
vn 0.9187 -0.2370 0.3158
vn 0.9996 -0.0089 0.0285
vn 0.8824 -0.0146 0.4702
vn 0.9016 0.3719 0.2212
vn 0.9730 0.2091 -0.0983
vn -0.4157 -0.3056 -0.8566
vn 0.0164 -0.4879 -0.8727
vn 0.0849 -0.5708 -0.8167
vn 0.0953 -0.5729 -0.8141
vn 0.5274 -0.8003 -0.2851
vn 0.5642 -0.7562 -0.3315
vn 0.7168 -0.6952 0.0529
vn 0.8661 0.4314 0.2524
vn -0.5877 -0.3398 0.7343
vn -0.7248 -0.4088 0.5545
vn -0.7466 -0.3749 0.5496
vn -0.4911 -0.4849 0.7236
vn -0.5073 -0.5088 0.6955
vn -0.8665 -0.3125 0.3894
vn -0.3871 -0.5513 0.7391
vn -0.3025 -0.7079 0.6383
vn 0.3227 -0.6387 0.6985
vn -0.6619 -0.7405 0.1164
vn -0.6038 -0.7869 -0.1274
vn -0.4342 -0.8961 -0.0917
vn -0.2453 -0.9672 0.0652
vn -0.4728 -0.8740 0.1119
vn -0.2744 -0.9610 0.0336
vn 0.3246 -0.9161 0.2352
vn -0.0288 -0.9919 0.1238
vn -0.3779 -0.6126 -0.6942
vn -0.2488 -0.5810 -0.7750
vn -0.0057 -0.6417 -0.7669
vn 0.0939 -0.7451 -0.6603
vn 0.0956 -0.7789 -0.6198
vn 0.7411 -0.6699 -0.0441
vn 0.0194 -0.4653 -0.8849
vn 0.2823 -0.0714 -0.9567
vn 0.5208 -0.2821 -0.8057
vn 0.9996 -0.0118 0.0262
vn 0.8829 -0.0519 0.4666
vn 0.9699 -0.2402 0.0408
usemtl Material_with_Texture.779
s off
f 1/1/1 2/2/1 3/3/1
f 4/4/2 2/2/2 1/1/2
f 5/5/3 6/6/3 1/7/3
f 6/8/4 4/4/4 1/1/4
f 5/5/5 1/7/5 3/9/5
f 7/10/6 3/3/6 2/2/6
f 8/11/7 7/10/7 2/2/7
f 8/11/8 2/2/8 9/12/8
f 2/2/9 4/4/9 9/12/9
f 10/13/10 5/5/10 3/9/10
f 11/14/11 3/9/11 7/15/11
f 11/14/12 10/13/12 3/9/12
f 12/16/13 4/4/13 13/17/13
f 9/12/14 4/4/14 12/16/14
f 4/4/15 6/8/15 13/17/15
f 6/6/16 5/5/16 14/18/16
f 14/18/17 5/5/17 15/19/17
f 5/5/18 10/13/18 15/19/18
f 16/20/19 13/17/19 6/8/19
f 17/21/20 16/22/20 6/6/20
f 6/6/21 14/18/21 17/21/21
f 8/11/22 18/23/22 7/10/22
f 19/24/23 20/25/23 7/15/23
f 20/25/24 11/14/24 7/15/24
f 18/26/25 19/24/25 7/15/25
f 21/27/26 18/23/26 8/11/26
f 22/28/27 8/11/27 9/12/27
f 22/28/28 21/27/28 8/11/28
f 23/29/29 22/28/29 9/12/29
f 9/12/30 24/30/30 23/29/30
f 24/30/31 9/12/31 25/31/31
f 12/16/32 25/31/32 9/12/32
f 10/13/33 11/14/33 26/32/33
f 27/33/34 10/34/34 26/35/34
f 15/19/35 10/13/35 27/36/35
f 28/37/36 29/38/36 11/39/36
f 28/37/37 11/39/37 20/40/37
f 29/38/38 26/35/38 11/39/38
f 12/16/39 13/17/39 30/41/39
f 25/42/40 12/43/40 31/44/40
f 31/44/41 12/43/41 32/45/41
f 12/43/42 30/46/42 32/45/42
f 13/17/43 16/20/43 30/41/43
f 33/47/44 14/18/44 15/19/44
f 34/48/45 35/49/45 14/18/45
f 17/21/46 14/18/46 35/49/46
f 14/50/47 33/51/47 34/52/47
f 27/36/48 36/53/48 15/19/48
f 33/47/49 15/19/49 36/53/49
f 17/54/50 30/41/50 16/20/50
f 30/41/51 17/54/51 35/55/51
f 37/56/52 38/57/52 18/23/52
f 18/26/53 38/58/53 19/24/53
f 18/23/54 21/27/54 39/59/54
f 37/56/55 18/23/55 39/59/55
f 38/58/56 40/60/56 19/24/56
f 20/25/57 19/24/57 40/60/57
f 28/37/58 20/40/58 40/61/58
f 39/59/59 21/27/59 41/62/59
f 42/63/60 41/62/60 21/27/60
f 22/28/61 42/63/61 21/27/61
f 42/63/62 22/28/62 43/64/62
f 44/65/63 43/64/63 22/28/63
f 23/29/64 44/65/64 22/28/64
f 45/66/65 44/65/65 23/29/65
f 46/67/66 45/66/66 23/29/66
f 47/68/67 23/29/67 24/30/67
f 46/67/68 23/29/68 47/68/68
f 48/69/69 47/68/69 24/30/69
f 49/70/70 48/71/70 24/72/70
f 31/44/71 24/72/71 25/42/71
f 49/70/72 24/72/72 50/73/72
f 24/72/73 31/44/73 50/73/73
f 26/35/74 29/38/74 51/74/74
f 52/75/75 26/35/75 51/74/75
f 27/33/76 26/35/76 52/75/76
f 36/76/77 27/33/77 52/75/77
f 53/77/78 29/38/78 28/37/78
f 40/61/79 53/77/79 28/37/79
f 51/74/80 29/38/80 53/77/80
f 34/52/81 30/46/81 35/78/81
f 30/46/82 34/52/82 54/79/82
f 32/45/83 30/46/83 55/80/83
f 30/46/84 54/79/84 55/80/84
f 50/73/85 31/44/85 56/81/85
f 32/45/86 56/81/86 31/44/86
f 32/45/87 57/82/87 56/81/87
f 32/45/88 55/80/88 57/82/88
f 33/51/89 36/83/89 34/52/89
f 58/84/90 34/52/90 36/83/90
f 58/84/91 59/85/91 34/52/91
f 60/86/92 34/52/92 59/85/92
f 54/79/93 34/52/93 60/86/93
f 59/87/94 58/88/94 36/76/94
f 59/87/95 36/76/95 52/75/95
f 61/89/96 37/56/96 62/90/96
f 62/90/97 37/56/97 39/59/97
f 63/91/98 37/56/98 61/89/98
f 63/91/99 38/57/99 37/56/99
f 63/91/100 64/92/100 38/57/100
f 38/57/101 64/92/101 40/93/101
f 62/90/102 39/59/102 65/94/102
f 41/62/103 66/95/103 39/59/103
f 67/96/104 65/97/104 39/98/104
f 66/99/105 68/100/105 39/101/105
f 67/102/106 39/103/106 68/104/106
f 69/105/107 40/106/107 70/107/107
f 40/61/108 69/108/108 53/77/108
f 40/106/109 64/109/109 71/110/109
f 70/107/110 40/106/110 71/110/110
f 72/111/111 73/112/111 41/62/111
f 68/113/112 66/95/112 41/62/112
f 68/113/113 41/62/113 74/114/113
f 73/115/114 74/116/114 41/117/114
f 72/111/115 41/62/115 42/63/115
f 72/111/116 42/63/116 75/118/116
f 43/64/117 76/119/117 42/63/117
f 76/119/118 75/118/118 42/63/118
f 43/120/119 44/121/119 77/122/119
f 76/123/120 43/120/120 78/124/120
f 77/122/121 79/125/121 43/120/121
f 78/124/122 43/120/122 79/125/122
f 45/126/123 80/127/123 44/121/123
f 80/127/124 77/122/124 44/121/124
f 80/127/125 45/126/125 81/128/125
f 82/129/126 81/128/126 45/126/126
f 45/126/127 46/130/127 82/129/127
f 46/130/128 47/131/128 83/132/128
f 46/130/129 83/132/129 82/129/129
f 84/133/130 47/68/130 85/134/130
f 84/135/131 83/136/131 47/137/131
f 48/69/132 85/134/132 47/68/132
f 49/70/133 86/138/133 48/71/133
f 85/139/134 48/71/134 87/140/134
f 88/141/135 48/71/135 86/138/135
f 48/71/136 88/141/136 87/140/136
f 86/138/137 49/70/137 88/141/137
f 88/141/138 49/70/138 50/73/138
f 50/73/139 56/81/139 57/82/139
f 89/142/140 88/141/140 50/73/140
f 89/142/141 50/73/141 57/82/141
f 90/143/142 51/74/142 82/144/142
f 82/144/143 51/74/143 53/77/143
f 91/145/144 51/74/144 90/143/144
f 51/74/145 91/145/145 92/146/145
f 51/74/146 92/146/146 93/147/146
f 51/74/147 93/147/147 52/75/147
f 93/147/148 94/148/148 52/75/148
f 95/149/149 52/75/149 94/148/149
f 95/149/150 59/87/150 52/75/150
f 81/150/151 82/144/151 53/77/151
f 81/150/152 53/77/152 69/108/152
f 54/151/153 60/152/153 96/153/153
f 54/79/154 96/154/154 55/80/154
f 55/80/155 96/154/155 57/82/155
f 57/82/156 96/154/156 89/142/156
f 59/85/157 95/155/157 60/86/157
f 95/155/158 94/156/158 60/86/158
f 60/86/159 94/156/159 96/154/159
f 97/157/160 98/158/160 61/159/160
f 99/160/161 97/157/161 61/159/161
f 100/161/162 61/159/162 98/158/162
f 99/160/163 61/159/163 101/162/163
f 61/159/164 62/163/164 101/162/164
f 102/164/165 63/165/165 61/159/165
f 102/164/166 61/159/166 100/161/166
f 62/90/167 67/166/167 101/167/167
f 65/94/168 67/166/168 62/90/168
f 63/91/169 103/168/169 64/92/169
f 102/164/170 103/169/170 63/165/170
f 103/170/171 71/110/171 64/109/171
f 104/171/172 101/172/172 67/173/172
f 67/174/173 68/175/173 105/176/173
f 105/177/174 106/178/174 67/173/174
f 67/173/175 106/178/175 104/171/175
f 68/175/176 74/179/176 105/176/176
f 69/108/177 79/180/177 81/150/177
f 70/181/178 107/182/178 69/108/178
f 107/182/179 108/183/179 69/108/179
f 69/108/180 108/183/180 79/180/180
f 71/110/181 107/184/181 70/107/181
f 103/170/182 109/185/182 71/110/182
f 107/186/183 71/187/183 106/178/183
f 106/178/184 71/187/184 110/188/184
f 109/189/185 110/188/185 71/187/185
f 72/190/186 111/191/186 73/192/186
f 72/190/187 112/193/187 111/191/187
f 72/111/188 75/118/188 112/194/188
f 111/191/189 113/195/189 73/192/189
f 74/196/190 73/197/190 105/177/190
f 113/198/191 105/177/191 73/197/191
f 75/199/192 114/200/192 112/193/192
f 75/199/193 115/201/193 114/200/193
f 75/118/194 76/119/194 78/202/194
f 78/202/195 115/203/195 75/118/195
f 80/127/196 79/125/196 77/122/196
f 78/124/197 79/125/197 116/204/197
f 115/205/198 78/206/198 116/207/198
f 80/127/199 81/128/199 79/125/199
f 79/208/200 108/209/200 116/210/200
f 90/211/201 82/129/201 83/132/201
f 83/212/202 117/213/202 90/214/202
f 117/215/203 83/216/203 84/217/203
f 85/218/204 118/219/204 84/217/204
f 84/217/205 118/219/205 119/220/205
f 84/217/206 119/220/206 117/215/206
f 118/221/207 85/139/207 87/140/207
f 87/140/208 88/141/208 89/142/208
f 87/140/209 89/142/209 120/222/209
f 118/221/210 87/140/210 121/223/210
f 120/222/211 121/223/211 87/140/211
f 89/224/212 94/225/212 120/226/212
f 96/154/213 94/156/213 89/142/213
f 91/227/214 90/228/214 117/215/214
f 122/229/215 91/227/215 117/215/215
f 91/227/216 122/229/216 92/230/216
f 122/229/217 123/231/217 92/230/217
f 124/232/218 93/233/218 92/234/218
f 123/235/219 124/232/219 92/234/219
f 124/232/220 94/156/220 93/233/220
f 94/225/221 124/236/221 120/226/221
f 125/237/222 98/158/222 97/157/222
f 99/238/223 104/171/223 97/239/223
f 104/171/224 125/240/224 97/239/224
f 98/241/225 125/240/225 110/188/225
f 98/241/226 110/188/226 100/242/226
f 104/171/227 99/238/227 101/172/227
f 110/188/228 102/243/228 100/242/228
f 109/189/229 102/243/229 110/188/229
f 103/170/230 102/244/230 109/185/230
f 125/240/231 104/171/231 106/178/231
f 106/178/232 105/177/232 113/198/232
f 126/245/233 106/178/233 113/198/233
f 127/246/234 107/186/234 106/178/234
f 110/188/235 125/240/235 106/178/235
f 126/245/236 127/246/236 106/178/236
f 107/247/237 116/210/237 108/209/237
f 107/186/238 127/246/238 116/248/238
f 113/195/239 111/191/239 126/249/239
f 111/191/240 112/193/240 126/249/240
f 114/200/241 126/249/241 112/193/241
f 115/201/242 126/249/242 114/200/242
f 115/201/243 127/250/243 126/249/243
f 127/251/244 115/205/244 116/207/244
f 122/229/245 117/215/245 119/220/245
f 122/229/246 119/220/246 118/219/246
f 118/219/247 123/231/247 122/229/247
f 121/223/248 123/235/248 118/221/248
f 120/222/249 124/232/249 121/223/249
f 123/235/250 121/223/250 124/232/250
