# Blender v3.5.0 OBJ File: ''
# www.blender.org
mtllib index_distal_lvs.mtl
o index_distal_lvs.vtp_index_distal_lvs.vtp.010
v 0.047813 -0.161855 0.016602
v 0.046947 -0.162285 0.015753
v 0.046059 -0.161847 0.017249
v 0.047144 -0.161178 0.017455
v 0.049857 -0.162555 0.015397
v 0.047794 -0.160908 0.017148
v 0.048847 -0.161372 0.016446
v 0.045819 -0.162088 0.016636
v 0.050163 -0.163457 0.013730
v 0.042394 -0.161788 0.015568
v 0.044895 -0.161979 0.018110
v 0.044394 -0.160782 0.019556
v 0.045373 -0.159706 0.019448
v 0.053033 -0.164426 0.013174
v 0.050415 -0.162008 0.015572
v 0.051288 -0.162351 0.015443
v 0.047945 -0.159941 0.016571
v 0.046018 -0.159019 0.018747
v 0.048938 -0.160537 0.015687
v 0.050477 -0.161422 0.014963
v 0.044100 -0.162113 0.017617
v 0.042512 -0.161731 0.016539
v 0.052710 -0.164411 0.012590
v 0.050038 -0.163283 0.011876
v 0.045754 -0.161991 0.011779
v 0.041619 -0.161354 0.012269
v 0.041856 -0.161571 0.014423
v 0.044157 -0.161802 0.018563
v 0.044131 -0.161266 0.019206
v 0.044814 -0.159463 0.019677
v 0.043702 -0.160228 0.019347
v 0.044132 -0.159067 0.019264
v 0.045210 -0.158539 0.018965
v 0.052439 -0.162623 0.015273
v 0.055030 -0.164243 0.014094
v 0.056456 -0.164778 0.012307
v 0.051625 -0.162000 0.015298
v 0.045760 -0.157193 0.010652
v 0.045312 -0.157608 0.017554
v 0.050256 -0.160973 0.013091
v 0.043522 -0.161450 0.018628
v 0.043187 -0.160643 0.014152
v 0.043990 -0.159601 0.014515
v 0.055615 -0.164644 0.010750
v 0.052760 -0.163871 0.011252
v 0.051127 -0.162400 0.010350
v 0.049824 -0.162656 0.010871
v 0.048146 -0.161401 0.010489
v 0.046773 -0.160889 0.010241
v 0.044872 -0.160651 0.009956
v 0.042598 -0.160640 0.010128
v 0.042338 -0.160826 0.011155
v 0.043821 -0.159804 0.013630
v 0.044366 -0.158308 0.015163
v 0.044182 -0.158532 0.018824
v 0.044394 -0.157656 0.017714
v 0.044054 -0.157550 0.016825
v 0.052697 -0.162351 0.016289
v 0.052203 -0.162258 0.015670
v 0.056218 -0.164728 0.014041
v 0.055819 -0.164301 0.014903
v 0.056778 -0.164903 0.012701
v 0.056637 -0.164886 0.011799
v 0.057779 -0.164460 0.013025
v 0.057217 -0.164679 0.011714
v 0.052369 -0.161681 0.014617
v 0.051679 -0.161495 0.012939
v 0.052622 -0.161458 0.015469
v 0.047610 -0.159743 0.010330
v 0.046105 -0.158231 0.009726
v 0.045010 -0.157588 0.009424
v 0.043832 -0.157261 0.009775
v 0.043827 -0.156844 0.010955
v 0.043916 -0.156957 0.013647
v 0.044467 -0.157383 0.017193
v 0.049923 -0.161430 0.011066
v 0.044275 -0.158670 0.014589
v 0.043552 -0.160169 0.014154
v 0.044011 -0.159112 0.014156
v 0.056088 -0.163722 0.009634
v 0.053941 -0.163589 0.009531
v 0.057165 -0.164290 0.010722
v 0.052013 -0.162269 0.009529
v 0.051779 -0.162618 0.010315
v 0.050650 -0.162253 0.010426
v 0.051579 -0.162123 0.010076
v 0.051066 -0.161902 0.010470
v 0.049780 -0.162024 0.010590
v 0.045852 -0.159561 0.009550
v 0.042840 -0.160280 0.009627
v 0.043676 -0.159390 0.008825
v 0.042444 -0.160488 0.010692
v 0.043018 -0.159212 0.010167
v 0.042789 -0.160118 0.010801
v 0.044246 -0.158168 0.012956
v 0.044045 -0.157879 0.014331
v 0.052933 -0.161871 0.016658
v 0.052422 -0.161788 0.016346
v 0.057465 -0.164243 0.014132
v 0.055732 -0.163148 0.015770
v 0.056563 -0.163615 0.015321
v 0.056922 -0.163850 0.015025
v 0.053973 -0.162262 0.016405
v 0.056884 -0.163316 0.014681
v 0.057605 -0.163968 0.012100
v 0.056367 -0.162729 0.013886
v 0.052933 -0.161776 0.012669
v 0.051946 -0.161663 0.010867
v 0.052833 -0.161390 0.016172
v 0.054011 -0.161723 0.015983
v 0.044558 -0.158714 0.008803
v 0.043345 -0.158601 0.008889
v 0.043005 -0.158092 0.009287
v 0.043216 -0.157434 0.010429
v 0.043871 -0.157988 0.011730
v 0.053678 -0.162489 0.008813
v 0.055459 -0.162731 0.009569
v 0.053042 -0.162174 0.008845
v 0.052569 -0.161975 0.009008
v 0.051862 -0.161784 0.009324
v 0.052106 -0.161452 0.010266
v 0.042985 -0.159060 0.008961
v 0.043824 -0.158891 0.008726
v 0.043027 -0.158150 0.010151
v 0.056258 -0.162839 0.015206
v 0.053185 -0.161659 0.009277
v 0.052190 -0.161392 0.009766
vt 0.352044 0.203139
vt 0.308499 0.188628
vt 0.356445 0.133605
vt 0.927144 0.630659
vt 0.894181 0.561875
vt 0.942097 0.581674
vt 0.329128 0.300598
vt 0.962835 0.604034
vt 0.938777 0.730819
vt 0.964704 0.658894
vt 0.329604 0.135681
vt 0.267466 0.344517
vt 0.247285 0.020152
vt 0.871359 0.510064
vt 0.376175 0.085132
vt 0.912304 0.446459
vt 0.968796 0.462360
vt 0.279627 0.468936
vt 0.970755 0.736358
vt 0.977496 0.772350
vt 0.927831 0.906006
vt 0.993511 0.604363
vt 0.726238 0.237900
vt 0.754678 0.226502
vt 0.797689 0.339555
vt 1.000000 0.485445
vt 0.734858 0.175556
vt 0.699675 0.184724
vt 0.684094 0.108110
vt 0.711848 0.102200
vt 0.347448 0.064362
vt 0.286599 0.012977
vt 0.252999 0.463450
vt 0.193669 0.357044
vt 0.139299 0.183864
vt 0.109435 0.020680
vt 0.196260 0.009642
vt 0.385128 0.051022
vt 0.864787 0.474784
vt 0.887456 0.452730
vt 0.966487 0.436086
vt 0.913740 0.419397
vt 0.961172 0.415881
vt 0.550356 0.836573
vt 0.551848 0.858401
vt 0.497108 0.856851
vt 1.000000 0.447571
vt 0.354966 0.395010
vt 0.339322 0.527102
vt 0.992383 0.816872
vt 0.286389 0.606032
vt 0.995391 0.780237
vt 0.706942 0.059462
vt 0.461119 0.325577
vt 0.737481 0.384731
vt 0.799290 0.378866
vt 0.605278 0.110898
vt 0.380210 0.021808
vt 0.471512 0.632477
vt 0.421107 0.729579
vt 0.410737 0.640327
vt 0.525215 0.646919
vt 0.454375 0.817747
vt 0.215661 0.590547
vt 0.201518 0.470531
vt 0.147294 0.397384
vt 0.152069 0.349690
vt 0.117546 0.272984
vt 0.091682 0.218167
vt 0.058023 0.149541
vt 0.037705 0.066538
vt 0.411422 0.551490
vt 0.455726 0.467433
vt 0.444434 0.508192
vt 0.513858 0.611265
vt 0.410057 0.034203
vt 0.410737 0.000000
vt 0.591803 0.827948
vt 0.501004 0.842521
vt 0.578504 0.669560
vt 0.569567 0.816890
vt 0.603558 0.769659
vt 0.599137 0.731664
vt 0.788423 0.412603
vt 0.739554 0.415881
vt 0.397757 0.388730
vt 0.367751 0.376222
vt 0.346430 0.355305
vt 0.351248 0.578110
vt 0.380260 0.547487
vt 0.305561 0.615367
vt 0.268686 0.619741
vt 0.053972 0.691321
vt 0.042106 0.676178
vt 0.053972 0.640101
vt 0.053972 0.728750
vt 0.043406 0.705706
vt 0.727828 0.724264
vt 0.761571 0.715858
vt 0.761571 0.771376
vt 0.157342 0.714061
vt 0.128335 0.736164
vt 0.154632 0.641527
vt 0.609684 0.050445
vt 0.167691 0.749941
vt 0.130388 0.755523
vt 0.473734 0.205535
vt 0.432410 0.284367
vt 0.410737 0.332888
vt 0.416759 0.382388
vt 0.461276 0.400645
vt 0.570086 0.415881
vt 0.717359 0.415323
vt 0.525521 0.096681
vt 0.563596 0.647494
vt 0.495811 0.632479
vt 0.542270 0.630537
vt 0.177975 0.603898
vt 0.148466 0.526322
vt 0.272319 0.637833
vt 0.233089 0.640101
vt 0.727828 0.770370
vt 0.689280 0.770370
vt 0.702923 0.715858
vt 0.125820 0.435546
vt 0.153621 0.424633
vt 0.851763 0.046811
vt 0.826796 0.076662
vt 0.854486 0.026721
vt 0.869855 0.010759
vt 0.858259 0.000000
vt 0.872105 0.037731
vt 0.845655 0.083256
vt 0.837119 0.148623
vt 0.873730 0.093504
vt 0.884462 0.189088
vt 0.827997 0.201052
vt 0.851676 0.242823
vt 0.799290 0.267732
vt 0.021125 0.074492
vt 0.000000 0.097937
vt 0.614168 0.731487
vt 0.668798 0.715858
vt 0.668798 0.772997
vt 0.458050 0.488697
vt 0.514166 0.465228
vt 0.473030 0.447026
vt 0.478407 0.493336
vt 0.579038 0.579520
vt 0.689280 0.715858
vt 0.689280 0.818493
vt 0.668798 0.747212
vt 0.585686 0.632609
vt 0.614168 0.747930
vt 0.614168 0.600557
vt 0.401943 0.703108
vt 0.410736 0.861516
vt 0.387364 0.871440
vt 0.396863 0.368880
vt 0.399631 0.881835
vt 0.149168 0.783909
vt 0.363438 0.640101
vt 0.410736 0.665523
vt 0.369753 0.613399
vt 0.330224 0.640101
vt 0.362431 0.745845
vt 0.358962 0.703083
vt 0.359153 0.681893
vt 0.374990 0.827969
vt 0.614168 0.545919
vt 0.633448 0.502325
vt 0.675679 0.484604
vt 0.012455 0.765208
vt 0.039276 0.740294
vt 0.039276 0.799076
vt 0.703611 0.519962
vt 0.627863 0.585676
vt 0.014216 0.704863
vt 0.606992 0.000000
vt 0.681441 0.036043
vt 0.172246 0.640101
vt 0.510444 0.043342
vt 0.529242 0.021887
vt 0.172246 0.779648
vt 0.864788 0.466230
vt 0.837604 0.578119
vt 0.813337 0.442308
vt 0.861501 0.437674
vt 0.904891 0.255427
vt 0.039275 0.640101
vt 0.039275 0.704863
vt 0.000000 0.677905
vt 0.296852 0.705008
vt 0.343009 0.749370
vt 0.300506 0.759462
vt 0.248312 0.698877
vt 0.248970 0.765038
vt 0.227553 0.719816
vt 0.598895 0.445543
vt 0.614075 0.491270
vt 0.580021 0.469381
vt 0.551854 0.425064
vt 0.102228 0.695587
vt 0.128335 0.775294
vt 0.092232 0.746981
vt 0.128335 0.640101
vt 0.202261 0.640101
vt 0.200448 0.731723
vt 0.172246 0.718748
vt 0.227553 0.674054
vt 0.676608 0.688911
vt 0.631017 0.640933
vt 0.719804 0.696430
vt 0.202179 0.759169
vt 0.111383 0.477933
vt 0.203637 0.781058
vt 0.189675 0.804966
vt 0.202718 0.813489
vt 0.142047 0.411772
vt 0.116153 0.424232
vt 0.904891 0.004417
vt 0.058288 0.753519
vt 0.092232 0.742845
vt 0.092232 0.777648
vt 0.092232 0.640101
vt 0.079925 0.663385
vt 0.053972 0.641558
vt 0.266429 0.671487
vt 0.343009 0.694682
vt 0.236217 0.679088
vt 0.229879 0.640101
vt 0.517771 0.415881
vt 0.270416 0.690440
vt 0.576153 0.527469
vt 0.550991 0.460197
vt 0.804108 0.423078
vt 0.849076 0.415881
vt 0.156079 0.800239
vt 0.663707 0.468450
vt 0.343009 0.724991
vt 0.709378 0.466118
vt 0.722362 0.442753
vt 0.682160 0.457900
vt 0.820068 0.715858
vt 0.861555 0.698523
vt 0.092232 0.742845
vt 0.864788 0.678115
vt 0.227553 0.765994
vt 0.226655 0.812219
vt 0.065135 0.772571
vn -0.1232 0.9303 -0.3455
vn -0.2617 0.6455 -0.7175
vn 0.0242 0.8817 -0.4712
vn -0.5240 0.4175 -0.7424
vn -0.3347 0.4489 -0.8285
vn -0.3403 0.4645 -0.8176
vn -0.0956 0.9386 -0.3316
vn 0.0240 0.8811 -0.4724
vn 0.1157 0.9281 -0.3538
vn 0.1113 0.9907 -0.0788
vn -0.4118 0.8014 -0.4338
vn -0.2896 0.9240 -0.2498
vn -0.4151 0.6249 -0.6612
vn -0.5203 0.3975 -0.7559
vn -0.5215 0.3960 -0.7558
vn 0.2113 0.8754 -0.4349
vn -0.0149 0.3185 -0.9478
vn -0.2481 0.5155 -0.8202
vn -0.0779 0.7052 -0.7048
vn -0.6199 -0.3285 -0.7127
vn -0.7749 -0.2303 -0.5887
vn -0.7035 -0.0620 -0.7080
vn -0.5881 -0.5079 -0.6293
vn -0.5645 -0.5653 -0.6014
vn -0.7312 -0.4135 -0.5426
vn 0.0994 0.9749 0.1990
vn 0.1091 0.9915 -0.0715
vn -0.0873 0.9880 -0.1277
vn 0.2928 0.9462 -0.1376
vn 0.2266 0.9710 0.0759
vn 0.3742 0.9253 0.0616
vn 0.2790 0.9399 0.1971
vn 0.1622 0.9825 0.0912
vn 0.2389 0.9684 0.0713
vn 0.5763 0.8088 -0.1175
vn 0.0348 0.9488 -0.3140
vn -0.2082 0.7471 -0.6312
vn -0.3362 0.6650 -0.6669
vn -0.3037 0.1825 -0.9351
vn 0.1838 -0.1376 -0.9733
vn 0.4965 0.3151 -0.8088
vn 0.4846 -0.0744 -0.8716
vn -0.4504 -0.3944 -0.8010
vn -0.4893 -0.3910 -0.7796
vn 0.2072 0.7703 -0.6031
vn 0.0877 0.7678 -0.6347
vn 0.0954 0.9951 -0.0272
vn 0.0326 0.9643 -0.2627
vn -0.2157 -0.1887 -0.9581
vn -0.1523 -0.7044 -0.6933
vn -0.1916 -0.2119 -0.9583
vn -0.6002 -0.7868 -0.1437
vn -0.6788 -0.7290 -0.0879
vn -0.6914 -0.6359 -0.3429
vn -0.5391 -0.6846 -0.4907
vn -0.5410 -0.8301 -0.1352
vn -0.5822 -0.7968 -0.1617
vn -0.4038 -0.8993 -0.1680
vn 0.4200 0.8502 -0.3174
vn 0.4378 0.8460 -0.3045
vn 0.5260 -0.8202 -0.2251
vn 0.7991 -0.5994 -0.0472
vn 0.6796 -0.6949 -0.2351
vn 0.0998 0.9945 0.0317
vn 0.3026 0.8799 0.3664
vn 0.2762 0.8876 0.3685
vn 0.2992 0.7177 0.6288
vn 0.0416 0.8516 0.5225
vn 0.2442 0.8453 0.4753
vn 0.2664 0.5886 0.7633
vn 0.1626 0.7479 0.6436
vn 0.1899 0.8327 0.5202
vn 0.0131 0.8087 0.5881
vn 0.0294 0.9441 0.3283
vn 0.5982 -0.8013 0.0063
vn 0.5462 -0.8253 -0.1433
vn 0.5803 -0.8143 -0.0114
vn 0.6651 -0.6861 -0.2948
vn 0.3430 0.7283 -0.5932
vn 0.5900 0.3431 -0.7309
vn 0.0972 -0.6333 -0.7678
vn 0.9001 -0.3116 0.3043
vn 0.9682 -0.2502 0.0089
vn 0.1004 -0.6376 -0.7638
vn 0.9348 0.1695 0.3123
vn 0.7664 -0.5342 -0.3568
vn 0.9757 0.1988 0.0925
vn 0.0781 -0.7898 -0.6084
vn -0.0528 -0.8318 -0.5526
vn 0.3884 0.8607 -0.3291
vn 0.5719 0.7445 -0.3446
vn 0.5616 0.7480 -0.3538
vn 0.3522 0.8932 -0.2795
vn 0.3788 0.9251 0.0253
vn 0.3942 0.8605 -0.3228
vn 0.3408 0.9399 0.0197
vn 0.3148 0.9450 -0.0887
vn -0.4784 0.6453 0.5956
vn -0.3596 0.8784 -0.3149
vn -0.1908 0.9782 -0.0816
vn 0.2267 -0.9534 -0.1989
vn -0.3563 -0.9120 -0.2034
vn 0.3624 -0.4012 -0.8413
vn 0.4632 -0.8814 0.0931
vn -0.7278 -0.5752 0.3736
vn -0.7064 -0.5661 0.4248
vn -0.5325 -0.6551 0.5360
vn -0.1406 -0.9143 0.3799
vn -0.1173 -0.9365 0.3304
vn -0.1880 -0.9796 -0.0711
vn -0.3587 -0.9331 -0.0273
vn -0.2236 -0.9712 -0.0819
vn -0.0353 -0.8832 -0.4677
vn -0.6219 -0.7357 0.2683
vn -0.3084 -0.9158 0.2574
vn 0.9565 -0.2910 -0.0220
vn 0.9674 -0.2530 0.0062
vn 0.7922 -0.6100 -0.0181
vn 0.7923 -0.6101 -0.0014
vn 0.8247 -0.3573 -0.4384
vn 0.9193 -0.2578 -0.2974
vn 0.0168 0.7673 0.6410
vn -0.2446 0.8651 0.4379
vn -0.2008 0.9084 0.3667
vn -0.1708 0.7939 0.5836
vn 0.3018 0.8859 0.3523
vn 0.5003 0.7315 0.4632
vn 0.2705 0.7034 0.6574
vn 0.4880 0.7346 0.4714
vn 0.2664 0.4147 0.8701
vn 0.2100 0.4926 0.8445
vn 0.0858 -0.2234 0.9709
vn 0.5696 -0.1259 0.8122
vn 0.1003 0.4101 0.9065
vn 0.2715 0.4067 0.8723
vn -0.2634 -0.5639 0.7828
vn -0.3090 -0.0087 0.9510
vn -0.1624 0.0420 0.9858
vn -0.0842 0.4134 0.9067
vn -0.3789 0.2066 0.9021
vn 0.0017 0.6686 0.7437
vn -0.2338 0.5169 0.8235
vn 0.0491 0.7997 0.5983
vn 0.9667 0.0427 0.2525
vn 0.9277 -0.2796 0.2472
vn 0.6281 -0.6911 0.3577
vn 0.9583 -0.2804 -0.0545
vn 0.7422 -0.6108 -0.2760
vn 0.7714 -0.5989 -0.2150
vn 0.9005 -0.3914 0.1896
vn 0.8919 -0.3498 -0.2866
vn 0.9666 -0.2561 -0.0122
vn 0.8591 0.5071 -0.0700
vn 0.9450 0.1874 -0.2680
vn 0.5818 -0.7511 -0.3120
vn 0.5022 -0.8459 -0.1797
vn 0.9921 0.1240 -0.0199
vn 0.0221 0.6025 -0.7978
vn 0.7405 0.4152 -0.5285
vn 0.5299 0.3376 -0.7780
vn 0.8886 -0.4577 0.0304
vn -0.2747 0.8050 -0.5259
vn -0.3316 0.9036 -0.2712
vn -0.3217 0.9123 -0.2536
vn -0.0982 0.5934 -0.7989
vn -0.1838 0.6491 -0.7382
vn 0.0147 0.6017 -0.7986
vn -0.2728 0.8084 -0.5216
vn 0.0402 0.6159 -0.7868
vn -0.8762 -0.4548 -0.1594
vn -0.8922 0.3071 0.3312
vn -0.8020 -0.5767 -0.1559
vn -0.7680 -0.6399 0.0270
vn -0.9016 0.3845 0.1981
vn -0.2221 -0.9749 -0.0167
vn 0.3378 -0.9303 0.1432
vn -0.2712 -0.9366 0.2217
vn -0.2076 -0.9768 0.0525
vn 0.2156 -0.9707 0.1065
vn 0.6617 -0.7389 -0.1271
vn -0.2915 -0.9535 0.0759
vn -0.2477 -0.9522 0.1785
vn -0.2436 -0.9557 0.1655
vn -0.4089 -0.0428 0.9116
vn -0.5083 -0.0172 0.8610
vn -0.4157 -0.3056 0.8566
vn 0.0164 -0.4879 0.8727
vn 0.0849 -0.5708 0.8167
vn 0.0953 -0.5729 0.8141
vn 0.5274 -0.8003 0.2851
vn 0.5642 -0.7562 0.3314
vn 0.7168 -0.6952 -0.0529
vn 0.9016 0.3719 -0.2212
vn 0.9730 0.2091 0.0983
vn 0.8661 0.4314 -0.2524
vn 0.1314 -0.6390 0.7579
vn 0.8256 0.0569 -0.5614
vn 0.9868 -0.0492 0.1546
vn -0.0064 0.5455 0.8381
vn -0.4057 -0.1990 0.8921
vn -0.6959 -0.6175 0.3665
vn -0.7746 -0.4634 0.4303
vn 0.3205 0.5703 0.7563
vn 0.4063 0.5945 0.6939
vn 0.4579 0.4706 0.7542
vn 0.4629 0.4635 0.7556
vn 0.7342 0.5119 0.4459
vn 0.7570 0.4399 0.4832
vn 0.1138 -0.2552 0.9602
vn 0.3734 -0.5123 0.7734
vn 0.7842 -0.6203 0.0155
vn 0.3491 -0.9094 -0.2263
vn -0.2661 0.3761 0.8875
vn 0.3618 0.4132 0.8357
vn 0.9888 -0.1421 -0.0450
vn 0.2457 0.1180 0.9621
vn -0.1577 0.2370 0.9586
vn 0.8865 -0.3940 -0.2428
vn 0.9187 -0.2370 -0.3158
vn 0.9996 -0.0089 -0.0285
vn 0.8824 -0.0146 -0.4702
vn -0.3871 -0.5513 -0.7391
vn -0.3025 -0.7078 -0.6383
vn 0.3227 -0.6387 -0.6985
vn -0.8665 -0.3125 -0.3893
vn -0.5877 -0.3398 -0.7343
vn -0.4911 -0.4849 -0.7237
vn -0.5073 -0.5088 -0.6955
vn -0.7248 -0.4088 -0.5545
vn -0.7466 -0.3749 -0.5496
vn -0.6619 -0.7405 -0.1164
vn -0.6038 -0.7869 0.1274
vn -0.4342 -0.8961 0.0917
vn -0.2453 -0.9672 -0.0652
vn -0.4728 -0.8740 -0.1119
vn -0.2744 -0.9610 -0.0337
vn 0.3246 -0.9161 -0.2352
vn -0.0288 -0.9919 -0.1238
vn 0.0194 -0.4653 0.8849
vn 0.2823 -0.0714 0.9567
vn 0.5208 -0.2821 0.8057
vn 0.9996 -0.0118 -0.0262
vn 0.9699 -0.2402 -0.0408
vn 0.8829 -0.0519 -0.4666
vn -0.3779 -0.6126 0.6942
vn -0.2488 -0.5810 0.7750
vn -0.0057 -0.6417 0.7669
vn 0.0939 -0.7451 0.6603
vn 0.0956 -0.7789 0.6198
vn 0.7411 -0.6699 0.0441
usemtl Material_with_Texture.778
s off
f 1/1/1 2/2/1 3/3/1
f 1/4/2 3/5/2 4/6/2
f 2/2/3 1/1/3 5/7/3
f 1/4/4 4/6/4 6/8/4
f 5/9/5 1/4/5 7/10/5
f 1/4/6 6/8/6 7/10/6
f 3/3/7 2/2/7 8/11/7
f 2/2/8 5/7/8 9/12/8
f 10/13/9 2/2/9 9/12/9
f 10/13/10 8/11/10 2/2/10
f 3/5/11 11/14/11 4/6/11
f 3/3/12 8/11/12 11/15/12
f 12/16/13 4/6/13 11/14/13
f 13/17/14 4/6/14 12/16/14
f 13/17/15 6/8/15 4/6/15
f 5/7/16 14/18/16 9/12/16
f 5/9/17 15/19/17 16/20/17
f 5/9/18 7/10/18 15/19/18
f 5/9/19 16/20/19 14/21/19
f 17/22/20 7/10/20 6/8/20
f 17/23/21 6/24/21 18/25/21
f 18/26/22 6/8/22 13/17/22
f 7/27/23 19/28/23 20/29/23
f 15/30/24 7/27/24 20/29/24
f 7/27/25 17/23/25 19/28/25
f 21/31/26 8/11/26 22/32/26
f 22/32/27 8/11/27 10/13/27
f 21/31/28 11/15/28 8/11/28
f 9/12/29 14/18/29 23/33/29
f 10/13/30 9/12/30 24/34/30
f 9/12/31 23/33/31 24/34/31
f 10/13/32 24/34/32 25/35/32
f 25/35/33 26/36/33 10/13/33
f 27/37/34 10/13/34 26/36/34
f 10/13/35 27/37/35 22/32/35
f 11/15/36 21/31/36 28/38/36
f 11/14/37 28/39/37 29/40/37
f 29/40/38 12/16/38 11/14/38
f 13/17/39 12/16/39 30/41/39
f 12/16/40 31/42/40 32/43/40
f 31/42/41 12/16/41 29/40/41
f 32/44/42 30/45/42 12/46/42
f 13/17/43 33/47/43 18/26/43
f 33/47/44 13/17/44 30/41/44
f 14/18/45 34/48/45 35/49/45
f 16/20/46 34/50/46 14/21/46
f 36/51/47 23/33/47 14/18/47
f 36/51/48 14/18/48 35/49/48
f 37/52/49 16/20/49 15/19/49
f 37/53/50 15/30/50 20/29/50
f 16/20/51 37/52/51 34/50/51
f 38/54/52 19/28/52 17/23/52
f 38/54/53 17/23/53 39/55/53
f 39/55/54 17/23/54 18/25/54
f 39/55/55 18/25/55 33/56/55
f 20/29/56 19/28/56 40/57/56
f 40/57/57 19/28/57 38/54/57
f 20/29/58 40/57/58 37/53/58
f 41/58/59 21/31/59 22/32/59
f 41/58/60 28/38/60 21/31/60
f 42/59/61 22/60/61 27/61/61
f 43/62/62 22/60/62 42/59/62
f 43/62/63 41/63/63 22/60/63
f 44/64/64 23/33/64 36/51/64
f 23/33/65 44/64/65 45/65/65
f 23/33/66 45/65/66 24/34/66
f 46/66/67 24/34/67 45/65/67
f 24/34/68 46/66/68 47/67/68
f 24/34/69 47/67/69 25/35/69
f 25/35/70 47/67/70 48/68/70
f 25/35/71 48/68/71 49/69/71
f 26/36/72 25/35/72 50/70/72
f 50/70/73 25/35/73 49/69/73
f 26/36/74 50/70/74 51/71/74
f 26/72/75 51/73/75 52/74/75
f 27/61/76 26/72/76 42/59/76
f 53/75/77 26/72/77 52/74/77
f 53/75/78 42/59/78 26/72/78
f 28/38/79 41/58/79 29/76/79
f 31/77/80 29/76/80 41/58/80
f 32/44/81 33/78/81 30/45/81
f 31/79/82 41/63/82 32/44/82
f 54/80/83 32/44/83 41/63/83
f 33/78/84 32/44/84 55/81/84
f 32/44/85 56/82/85 55/81/85
f 56/82/86 32/44/86 57/83/86
f 57/83/87 32/44/87 54/80/87
f 33/56/88 55/84/88 56/85/88
f 39/55/89 33/56/89 56/85/89
f 35/49/90 34/48/90 58/86/90
f 34/48/91 59/87/91 58/86/91
f 37/88/92 59/87/92 34/48/92
f 60/89/93 35/49/93 61/90/93
f 36/51/94 35/49/94 60/89/94
f 61/90/95 35/49/95 58/86/95
f 62/91/96 36/51/96 60/89/96
f 36/51/97 63/92/97 44/64/97
f 36/93/98 62/94/98 64/95/98
f 36/93/99 65/96/99 63/97/99
f 65/98/100 36/99/100 64/100/100
f 66/101/101 37/102/101 67/103/101
f 40/57/102 67/104/102 37/53/102
f 68/105/103 59/106/103 37/102/103
f 68/105/104 37/102/104 66/101/104
f 69/107/105 38/54/105 70/108/105
f 40/57/106 38/54/106 69/107/106
f 70/108/107 38/54/107 71/109/107
f 72/110/108 71/109/108 38/54/108
f 73/111/109 72/110/109 38/54/109
f 39/55/110 73/111/110 38/54/110
f 39/55/111 74/112/111 73/111/111
f 74/112/112 39/55/112 75/113/112
f 39/55/113 56/85/113 75/113/113
f 40/57/114 69/107/114 76/114/114
f 67/104/115 40/57/115 76/114/115
f 77/115/116 41/63/116 43/62/116
f 77/115/117 54/80/117 41/63/117
f 78/116/118 42/59/118 53/75/118
f 42/59/119 78/116/119 43/62/119
f 78/116/120 79/117/120 43/62/120
f 79/117/121 77/115/121 43/62/121
f 44/64/122 80/118/122 81/119/122
f 44/64/123 63/92/123 65/120/123
f 82/121/124 44/64/124 65/120/124
f 44/122/125 82/123/125 80/124/125
f 45/65/126 44/64/126 81/119/126
f 83/125/127 45/65/127 81/119/127
f 45/65/128 84/126/128 46/66/128
f 45/65/129 83/125/129 84/126/129
f 85/127/130 47/128/130 46/129/130
f 86/130/131 46/129/131 84/131/131
f 46/129/132 87/132/132 85/127/132
f 87/132/133 46/129/133 86/130/133
f 47/128/134 88/133/134 48/134/134
f 47/128/135 85/127/135 88/133/135
f 76/135/136 48/134/136 88/133/136
f 48/134/137 76/135/137 69/136/137
f 69/136/138 49/137/138 48/134/138
f 89/138/139 50/139/139 49/137/139
f 69/136/140 89/138/140 49/137/140
f 90/140/141 50/70/141 91/141/141
f 50/142/142 89/143/142 91/144/142
f 50/70/143 90/140/143 51/71/143
f 51/73/144 92/145/144 52/74/144
f 93/146/145 51/73/145 90/147/145
f 92/145/146 51/73/146 94/148/146
f 93/146/147 94/148/147 51/73/147
f 94/148/148 52/74/148 92/145/148
f 53/75/149 52/74/149 94/148/149
f 79/117/150 78/116/150 53/75/150
f 53/75/151 94/148/151 95/149/151
f 79/117/152 53/75/152 95/149/152
f 96/150/153 57/151/153 54/152/153
f 77/115/154 96/153/154 54/80/154
f 57/83/155 75/154/155 56/82/155
f 57/83/156 74/155/156 75/154/156
f 96/153/157 74/155/157 57/83/157
f 61/156/158 58/157/158 97/158/158
f 59/87/159 98/159/159 58/86/159
f 58/157/160 98/160/160 97/158/160
f 59/106/161 68/105/161 98/161/161
f 99/162/162 60/163/162 61/156/162
f 99/164/163 64/165/163 60/89/163
f 60/89/164 64/165/164 62/91/164
f 61/156/165 100/166/165 101/167/165
f 61/156/166 101/167/166 102/168/166
f 100/166/167 61/156/167 103/169/167
f 99/162/168 61/156/168 102/168/168
f 103/169/169 61/156/169 97/158/169
f 64/170/170 99/171/170 104/172/170
f 105/173/171 65/174/171 64/175/171
f 64/170/172 106/176/172 105/177/172
f 104/172/173 106/176/173 64/170/173
f 105/173/174 82/178/174 65/174/174
f 67/104/175 107/179/175 66/180/175
f 66/101/176 107/181/176 68/105/176
f 76/114/177 87/182/177 67/104/177
f 67/104/178 108/183/178 107/179/178
f 87/182/179 108/183/179 67/104/179
f 68/105/180 109/184/180 98/161/180
f 106/176/181 68/185/181 107/186/181
f 110/187/182 68/185/182 106/176/182
f 68/185/183 110/187/183 109/188/183
f 89/138/184 69/136/184 70/189/184
f 70/190/185 111/191/185 89/192/185
f 111/193/186 70/194/186 71/195/186
f 111/193/187 71/195/187 112/196/187
f 72/197/188 112/196/188 71/195/188
f 72/197/189 113/198/189 112/196/189
f 72/199/190 73/200/190 114/201/190
f 72/199/191 114/201/191 113/202/191
f 73/200/192 74/155/192 114/201/192
f 115/203/193 74/204/193 95/205/193
f 95/149/194 74/155/194 96/153/194
f 115/203/195 114/206/195 74/204/195
f 87/132/196 76/135/196 88/133/196
f 79/117/197 96/153/197 77/115/197
f 95/149/198 96/153/198 79/117/198
f 80/207/199 116/208/199 81/209/199
f 80/207/200 117/210/200 116/208/200
f 105/177/201 80/211/201 82/212/201
f 80/211/202 105/177/202 117/213/202
f 116/208/203 118/214/203 81/209/203
f 118/215/204 83/125/204 81/119/204
f 118/214/205 119/216/205 83/217/205
f 119/216/206 120/218/206 83/217/206
f 86/219/207 84/126/207 83/125/207
f 83/125/208 120/220/208 86/219/208
f 85/127/209 87/132/209 88/133/209
f 121/221/210 87/132/210 86/130/210
f 121/222/211 86/223/211 120/224/211
f 121/225/212 108/226/212 87/227/212
f 91/228/213 89/229/213 111/193/213
f 91/228/214 122/230/214 90/231/214
f 93/146/215 90/147/215 122/232/215
f 123/233/216 122/230/216 91/228/216
f 111/193/217 123/233/217 91/228/217
f 95/149/218 94/148/218 93/146/218
f 115/234/219 95/149/219 93/146/219
f 124/235/220 93/146/220 122/232/220
f 93/146/221 124/235/221 115/234/221
f 103/236/222 97/237/222 110/187/222
f 110/187/223 97/237/223 109/188/223
f 109/184/224 97/238/224 98/161/224
f 99/171/225 102/239/225 104/172/225
f 101/167/226 100/166/226 125/240/226
f 110/187/227 125/241/227 100/242/227
f 103/236/228 110/187/228 100/242/228
f 101/243/229 104/172/229 102/239/229
f 101/243/230 125/241/230 104/172/230
f 106/176/231 104/172/231 125/241/231
f 117/213/232 105/177/232 106/176/232
f 117/213/233 106/176/233 126/244/233
f 106/176/234 107/186/234 127/245/234
f 106/176/235 125/241/235 110/187/235
f 106/176/236 127/245/236 126/244/236
f 108/226/237 121/225/237 107/246/237
f 121/247/238 127/245/238 107/186/238
f 123/233/239 111/193/239 112/196/239
f 122/230/240 123/233/240 112/196/240
f 112/196/241 113/198/241 122/230/241
f 122/232/242 113/202/242 124/235/242
f 114/201/243 124/235/243 113/202/243
f 124/235/244 114/201/244 115/234/244
f 126/248/245 116/208/245 117/210/245
f 126/248/246 118/214/246 116/208/246
f 118/214/247 126/248/247 119/216/247
f 119/216/248 126/248/248 120/218/248
f 126/248/249 127/249/249 120/218/249
f 121/222/250 120/224/250 127/250/250
