# Blender v3.5.0 OBJ File: ''
# www.blender.org
mtllib l_pelvis.mtl
o l_pelvis.vtp_l_pelvis.vtp.010
v -0.044327 -0.080850 0.054677
v -0.045322 -0.072010 0.052929
v -0.029819 -0.076501 0.068863
v -0.034255 -0.084908 0.061013
v -0.059127 -0.078011 0.051587
v -0.062600 -0.083971 0.057797
v -0.053206 -0.085034 0.059938
v -0.066647 -0.093034 0.065978
v -0.042967 -0.062222 0.062107
v -0.055024 -0.068663 0.051879
v -0.051217 -0.063678 0.053320
v -0.035282 -0.057528 0.079741
v -0.038811 -0.055471 0.094431
v -0.031418 -0.051766 0.087808
v -0.025297 -0.071682 0.060148
v -0.007545 -0.088843 0.018857
v -0.035677 -0.082371 0.050467
v -0.061014 -0.087158 0.045616
v -0.070805 -0.077244 0.060373
v -0.062172 -0.069728 0.051929
v -0.078097 -0.091478 0.074637
v -0.084540 -0.093541 0.064794
v -0.076817 -0.104660 0.044220
v -0.048283 -0.054949 0.066246
v -0.050719 -0.058978 0.057932
v -0.060491 -0.061737 0.054657
v -0.051734 -0.048677 0.085567
v -0.062716 -0.052389 0.099876
v -0.052851 -0.035891 0.095170
v -0.022260 -0.035255 0.096690
v -0.029869 -0.054046 0.063728
v -0.034961 -0.044478 0.077175
v -0.015992 -0.078453 0.037371
v -0.025342 -0.066449 0.041354
v -0.027254 -0.106601 -0.000583
v 0.000010 -0.083726 0.004923
v 0.000000 -0.079469 0.026656
v -0.033729 -0.075291 0.043025
v -0.036188 -0.073046 0.035638
v -0.025952 -0.110440 0.005670
v -0.037579 -0.099974 0.017788
v -0.046114 -0.064378 0.050000
v -0.108060 -0.072228 0.042708
v -0.108512 -0.088166 0.051595
v -0.077588 -0.043167 0.059939
v -0.047115 -0.040845 0.058661
v -0.075574 -0.066825 0.066582
v -0.069460 -0.066047 0.054626
v -0.084704 -0.074215 0.085320
v -0.079861 -0.062776 0.083072
v -0.089841 -0.078409 0.067783
v -0.092707 -0.101931 0.064757
v -0.094825 -0.075459 0.059127
v -0.071467 -0.116395 0.035196
v -0.114270 -0.103318 0.043711
v -0.097672 -0.117728 0.061403
v -0.088941 -0.130816 0.045117
v -0.060880 -0.050643 0.073063
v -0.056570 -0.054964 0.060940
v -0.070113 -0.060373 0.058863
v -0.064099 -0.055428 0.060779
v -0.077804 -0.060868 0.093843
v -0.079371 -0.043451 0.085611
v -0.020766 -0.012688 0.106588
v -0.058845 -0.015489 0.094861
v -0.030136 -0.023374 0.093810
v -0.022294 -0.080640 0.002346
v -0.029246 -0.091680 0.001081
v -0.044549 -0.127827 0.023459
v -0.079997 -0.126794 0.030146
v -0.039082 -0.105622 0.017475
v -0.002515 -0.076525 0.007104
v -0.101320 -0.083184 0.058633
v -0.086209 -0.025934 0.061845
v -0.113492 -0.094068 0.058714
v -0.076923 -0.000898 0.053148
v -0.088650 -0.062281 0.076225
v -0.064376 -0.133792 0.031678
v -0.113448 -0.115644 0.050164
v -0.057751 0.022653 0.093126
v -0.007194 -0.014923 0.123270
v 0.000000 0.000000 0.120833
v -0.025767 -0.013557 0.111765
v -0.050796 0.037341 0.118911
v -0.075179 0.015460 0.072247
v -0.094028 -0.020262 0.063989
v -0.091164 0.009621 0.045500
v -0.095802 -0.005519 0.040828
v -0.110692 -0.024093 0.051881
v -0.080792 0.031718 0.057625
v -0.075767 0.081005 0.076435
v -0.032203 0.042817 0.117986
v -0.011673 0.020720 0.123144
v -0.003795 0.011367 0.129272
v -0.022141 0.017064 0.132168
v -0.049975 0.045190 0.127943
v -0.074054 0.072924 0.095217
v -0.125581 0.031049 0.054190
v -0.099992 0.057224 0.060352
v -0.112670 0.004130 0.047053
v -0.106515 0.024731 0.040493
v -0.120638 -0.019939 0.044479
v -0.125632 -0.010078 0.042406
v -0.126153 0.001275 0.050133
v -0.084582 0.052767 0.050023
v -0.051691 0.065471 0.113834
v -0.072556 0.080010 0.092479
v -0.092867 0.080280 0.065454
v -0.085418 0.076531 0.060986
v -0.022800 0.036117 0.131464
v -0.109011 0.066410 0.060971
v -0.136826 0.027100 0.042425
v -0.122957 0.056362 0.047167
v -0.129456 0.005228 0.042604
v -0.124117 0.016544 0.030060
v -0.118317 0.036791 0.035422
v -0.137926 0.016807 0.040577
v -0.101838 0.064646 0.047068
v -0.105080 0.071715 0.055333
v -0.136949 0.015755 0.035222
v -0.134522 0.032374 0.036368
v -0.133523 0.006379 0.036939
vt 0.436458 0.799288
vt 0.418428 0.778110
vt 0.490818 0.759371
vt 0.477265 0.797427
vt 0.852867 0.604182
vt 0.851314 0.644014
vt 0.823291 0.633674
vt 0.839008 0.577813
vt 0.822413 0.597044
vt 0.816399 0.543082
vt 0.796191 0.644014
vt 0.427926 0.734238
vt 0.389746 0.772455
vt 0.394188 0.755405
vt 0.874991 0.624641
vt 0.473079 0.688445
vt 0.248965 0.722347
vt 0.267722 0.677502
vt 0.267722 0.790018
vt 0.938223 0.738584
vt 0.908806 0.720200
vt 0.942873 0.654701
vt 0.911140 0.644014
vt 0.709619 0.906892
vt 0.735841 0.942603
vt 0.705066 0.942603
vt 0.987408 0.217583
vt 0.987408 0.361627
vt 0.949882 0.332165
vt 0.270093 0.603252
vt 0.364815 0.492015
vt 0.304899 0.593805
vt 0.290808 0.711371
vt 0.348308 0.667907
vt 0.870143 0.559750
vt 0.881778 0.604998
vt 0.835729 0.500336
vt 0.315746 0.761976
vt 0.278816 0.750229
vt 0.364815 0.735235
vt 0.413776 0.707682
vt 0.397715 0.734087
vt 0.902870 0.613484
vt 0.884339 0.637476
vt 0.373090 0.749312
vt 0.490818 0.657207
vt 0.434808 0.656511
vt 0.436354 0.615150
vt 0.490818 0.591767
vt 0.462802 0.656511
vt 0.969733 0.811385
vt 0.006976 0.252891
vt 0.082593 0.270027
vt 0.026285 0.314861
vt 0.906455 0.811385
vt 0.935568 0.164488
vt 0.908837 0.106677
vt 0.948720 0.060353
vt 0.897999 0.155642
vt 0.935851 0.228978
vt 0.961733 0.269873
vt 0.911194 0.030861
vt 0.949882 0.000000
vt 0.000000 0.786868
vt 0.065824 0.859264
vt 0.024570 0.895192
vt 0.111765 0.838179
vt 0.090640 0.890084
vt 1.000000 0.534198
vt 0.980149 0.613794
vt 0.977020 0.526473
vt 0.962598 0.946778
vt 0.993920 0.811385
vt 0.985517 0.929070
vt 0.707353 0.819684
vt 0.673073 0.769419
vt 0.720667 0.732519
vt 0.022964 0.782873
vt 0.796191 0.738942
vt 0.551033 0.942008
vt 0.490818 0.900338
vt 0.551033 0.873443
vt 0.993920 0.976009
vt 0.448352 0.820935
vt 0.488051 0.799288
vt 0.488051 0.947012
vt 0.248965 0.843764
vt 0.111765 0.854606
vt 0.202508 0.721158
vt 0.162597 0.975148
vt 0.111765 0.912172
vt 0.162597 0.854606
vt 0.270093 0.602565
vt 0.123919 0.677502
vt 0.192667 0.618516
vt 0.262530 0.677502
vt 0.906961 0.548315
vt 0.902528 0.585684
vt 0.894867 0.484030
vt 0.082036 0.895192
vt 0.082036 0.975206
vt 0.067260 0.934023
vt 0.922575 0.513139
vt 0.000000 0.092342
vt 0.061238 0.081547
vt 0.049160 0.139536
vt 0.014149 0.055634
vt 0.205215 0.897952
vt 0.204724 0.864750
vt 0.267246 0.928697
vt 0.084865 0.058117
vt 0.322445 0.796544
vt 0.943423 0.484030
vt 0.977020 0.520076
vt 0.925819 0.592845
vt 0.977020 0.618257
vt 0.757787 0.484030
vt 0.765213 0.582580
vt 0.707192 0.517654
vt 0.723295 0.596814
vt 0.796191 0.510565
vt 0.381981 0.602098
vt 0.405910 0.574040
vt 0.384715 0.718664
vt 0.370889 0.572015
vt 0.919739 0.582965
vt 0.925819 0.600601
vt 0.368015 0.721585
vt 0.490818 0.532798
vt 0.054170 0.241461
vt 0.064669 0.192365
vt 0.119435 0.198642
vt 0.074870 0.379511
vt 0.147280 0.295516
vt 0.890780 0.245278
vt 0.908682 0.304893
vt 0.837320 0.115053
vt 0.972883 0.466448
vt 0.949882 0.407555
vt 0.972883 0.361627
vt 0.111765 0.492015
vt 0.172082 0.558119
vt 0.141748 0.581615
vt 0.958662 0.898167
vt 0.906455 0.867596
vt 0.962598 0.811385
vt 0.921113 0.837343
vt 0.490818 0.746178
vt 0.596940 0.740755
vt 0.649545 0.790940
vt 0.608345 0.803819
vt 0.075229 0.696310
vt 0.068930 0.587946
vt 0.612384 0.730154
vt 0.649545 0.583489
vt 0.936623 0.912181
vt 0.962598 0.960608
vt 0.995320 0.811385
vt 0.969733 0.788449
vt 0.995320 0.668848
vt 1.000000 0.484030
vt 0.575915 0.832339
vt 0.551148 0.873443
vt 0.706469 0.722166
vt 0.649545 0.669979
vt 0.077116 0.035482
vt 0.082867 0.000000
vt 0.130523 0.004787
vt 0.248965 0.677502
vt 0.196208 0.158987
vt 0.587704 0.920899
vt 0.618939 0.932774
vt 0.618810 0.963146
vt 0.618939 0.873443
vt 0.139799 0.704445
vt 0.684438 0.176930
vt 0.789346 0.906892
vt 0.705066 0.906892
vt 0.752122 0.833447
vt 0.378711 0.524149
vt 0.412605 0.508961
vt 0.375530 0.548601
vt 0.461243 0.514862
vt 0.483424 0.492015
vt 0.094678 0.131366
vt 0.264182 0.900737
vt 0.267246 0.854606
vt 0.361756 0.810301
vt 0.361364 0.861082
vt 0.292938 0.796544
vt 0.610589 0.607274
vt 0.569052 0.511872
vt 0.661846 0.598621
vt 0.299536 0.872446
vt 0.270093 0.847111
vt 0.587107 0.484030
vt 0.361756 0.925084
vt 0.111765 0.548739
vt 0.100273 0.492015
vt 0.089673 0.625210
vt 0.737642 0.333588
vt 0.983620 0.089225
vt 0.949882 0.026973
vt 0.983620 0.000000
vt 0.949882 0.379959
vt 0.962027 0.096385
vt 0.968176 0.217583
vt 0.251891 0.455025
vt 0.077899 0.384601
vt 0.275902 0.268820
vt 0.223899 0.163671
vt 0.734691 0.819684
vt 0.621152 0.175258
vt 0.634189 0.126308
vt 0.448352 0.837648
vt 0.368015 0.941479
vt 0.371993 0.865757
vt 0.448352 0.906678
vt 0.617715 0.260856
vt 0.558224 0.421580
vt 0.789865 0.452917
vt 0.886389 0.426030
vt 0.901517 0.877280
vt 0.906455 0.916706
vt 0.861606 0.944140
vt 0.135487 0.492015
vt 0.030986 0.435610
vt 0.863764 0.827757
vt 0.931132 0.422876
vt 0.263927 0.492015
vt 0.406311 0.424307
vt 0.424129 0.183488
vt 0.440280 0.276189
vt 0.254149 0.104948
vt 0.204724 0.854606
vt 0.204724 0.915917
vt 0.162597 0.888767
vt 0.550122 0.189493
vt 0.705066 0.860626
vt 0.654404 0.883332
vt 0.689692 0.819684
vt 0.439451 0.799288
vt 0.621060 0.910834
vt 0.649545 0.873443
vt 0.649545 0.934211
vt 0.167649 0.966933
vt 0.350500 0.122744
vt 0.325811 0.084944
vt 0.289171 0.080218
vt 0.556697 0.290867
vt 0.695986 0.484030
vt 0.590381 0.456990
vt 0.067260 0.955284
vt 0.045751 0.929396
vt 0.067260 0.895192
vt 0.506109 0.384243
vt 0.523546 0.370423
vt 0.843299 0.473315
vt 0.894333 0.774407
vt 0.853014 0.700544
vt 0.906455 0.644014
vt 0.330979 0.488046
vt 0.424157 0.431191
vt 0.483380 0.336900
vt 0.480557 0.281329
vt 0.551033 0.959872
vt 0.587704 0.873443
vt 0.587704 0.980929
vt 0.443744 0.132507
vt 0.490818 0.211483
vt 0.045750 0.944371
vt 0.000000 0.921288
vt 0.045750 0.895192
vt 0.705066 0.932094
vt 0.649545 0.937383
vt 0.492876 0.198765
vt 0.512474 0.135535
vt 0.372760 0.106030
vt 0.420309 0.109205
vt 0.490818 0.300825
vt 0.825074 0.886470
vt 0.847787 0.929992
vt 0.821789 0.935965
vt 0.802078 0.871526
vt 0.853014 0.862078
vt 0.811846 0.812107
vt 0.796191 0.705431
vt 0.814571 0.665464
vt 0.817200 0.717889
vt 0.798390 0.672382
vt 0.851001 0.749768
vt 0.662521 0.956446
vt 0.387681 0.088342
vt 0.853014 0.678658
vt 0.815907 0.644014
vt 0.419868 0.095203
vn 0.7070 -0.0598 -0.7047
vn 0.5962 0.3569 -0.7191
vn 0.1694 -0.1728 -0.9703
vn 0.0055 -0.7230 -0.6908
vn 0.0400 -0.8139 -0.5797
vn 0.0938 -0.7640 -0.6384
vn 0.0384 -0.8126 -0.5815
vn 0.7143 0.3795 -0.5880
vn 0.1603 0.1592 -0.9741
vn 0.6078 0.4604 -0.6470
vn 0.1028 -0.0141 -0.9946
vn 0.7520 0.4772 -0.4547
vn 0.9650 0.1576 0.2097
vn -0.7148 0.3955 -0.5767
vn -0.9104 0.2128 -0.3547
vn -0.8253 0.5509 -0.1236
vn -0.7295 0.4610 -0.5052
vn 0.3931 0.9046 0.1646
vn -0.2058 0.9539 0.2183
vn -0.2266 0.9396 0.2566
vn 0.0473 -0.6513 -0.7574
vn -0.5643 -0.4149 -0.7138
vn -0.5984 -0.1878 -0.7789
vn -0.0125 0.0367 -0.9992
vn -0.5587 -0.4042 -0.7242
vn 0.0862 -0.6885 -0.7201
vn -0.5861 -0.4037 -0.7025
vn -0.0148 0.9805 -0.1958
vn -0.7417 0.6706 -0.0117
vn 0.0064 0.8807 -0.4736
vn 0.5890 0.6795 -0.4375
vn 0.5627 0.5479 -0.6191
vn 0.5476 0.6787 -0.4894
vn -0.0681 0.3247 -0.9434
vn -0.0562 0.3331 -0.9412
vn 0.0428 0.6974 -0.7154
vn 0.4709 0.8821 -0.0104
vn 0.4018 0.8897 -0.2170
vn 0.2046 0.8978 0.3899
vn -0.2426 -0.7058 -0.6656
vn 0.0346 0.4585 -0.8880
vn -0.3584 -0.0516 -0.9321
vn -0.9692 -0.2433 -0.0393
vn -0.8909 -0.4540 -0.0143
vn -0.8617 0.2363 0.4491
vn -0.9291 -0.1680 -0.3296
vn -0.9691 -0.2382 -0.0640
vn -0.8037 -0.5737 -0.1578
vn -0.6343 0.7707 -0.0609
vn -0.3364 0.7474 -0.5729
vn 0.5192 0.8504 0.0856
vn 0.7252 0.3940 0.5647
vn -0.7141 0.6870 -0.1349
vn -0.2079 0.6327 -0.7460
vn -0.8003 0.4221 0.4258
vn -0.1749 0.5503 -0.8165
vn -0.1738 -0.0753 0.9819
vn 0.6971 0.4194 0.5815
vn 0.0993 0.4824 0.8703
vn -0.1718 -0.3629 0.9159
vn 0.1266 -0.1919 0.9732
vn 0.2309 -0.3274 0.9162
vn 0.0620 -0.2878 0.9557
vn -0.8794 -0.1295 -0.4581
vn -0.4770 -0.3553 -0.8039
vn -0.8749 -0.0359 -0.4831
vn -0.9302 -0.3299 -0.1608
vn -0.8312 0.2548 -0.4941
vn -0.1648 0.3495 -0.9223
vn 0.7804 0.5166 -0.3522
vn 0.7398 0.3701 -0.5618
vn 0.1982 -0.1887 -0.9618
vn 0.8538 0.3712 -0.3651
vn -0.6006 0.5871 -0.5427
vn -0.0328 -0.6186 0.7850
vn -0.0283 -0.4529 0.8911
vn -0.7126 0.3087 -0.6301
vn -0.6337 0.2689 -0.7253
vn -0.7167 0.3530 -0.6014
vn 0.1739 0.9454 -0.2758
vn 0.3101 0.8167 -0.4866
vn 0.1744 0.9455 -0.2750
vn 0.0657 0.6579 -0.7502
vn -0.2485 0.5976 -0.7623
vn -0.0269 0.6882 -0.7250
vn -0.2650 0.5572 -0.7870
vn -0.3836 0.9133 0.1370
vn -0.4508 0.8850 -0.1164
vn 0.5049 -0.3313 -0.7971
vn 0.4148 -0.4702 -0.7790
vn 0.0372 0.3993 -0.9161
vn 0.2889 0.0704 -0.9548
vn 0.3180 0.0791 -0.9448
vn -0.7154 -0.3243 0.6189
vn -0.6581 -0.2655 0.7046
vn -0.6340 -0.7230 0.2744
vn -0.6340 -0.7236 0.2728
vn -0.8358 -0.2091 0.5077
vn -0.5563 -0.1629 -0.8148
vn 0.0520 -0.7014 0.7109
vn 0.1677 -0.7885 0.5918
vn 0.3383 -0.3123 0.8877
vn -0.1263 -0.0874 0.9881
vn -0.0040 -0.1114 0.9938
vn 0.7268 -0.4052 0.5546
vn 0.9840 0.1163 0.1350
vn -0.2337 0.8062 0.5436
vn 0.1546 0.6828 0.7140
vn 0.5152 -0.7687 0.3791
vn 0.8051 -0.2442 0.5406
vn -0.1538 -0.3354 0.9294
vn -0.9349 -0.3484 0.0678
vn -0.2024 -0.9719 -0.1203
vn 0.6632 0.7484 0.0067
vn 0.7421 -0.5163 0.4275
vn 0.1326 -0.9529 0.2727
vn -0.6117 0.2051 -0.7641
vn -0.6748 -0.0325 -0.7373
vn 0.7670 -0.3289 -0.5509
vn 0.6289 -0.4902 -0.6034
vn -0.2882 -0.2465 0.9253
vn 0.7653 -0.0982 -0.6362
vn 0.6584 -0.7374 -0.1508
vn 0.8631 -0.4486 0.2318
vn 0.0483 -0.0859 0.9951
vn -0.6996 -0.4449 0.5591
vn 0.1777 0.2635 0.9482
vn -0.8738 0.2223 -0.4324
vn -0.6563 0.7388 0.1532
vn -0.7438 0.5782 -0.3353
vn -0.9087 0.4048 0.1018
vn 0.8503 -0.1110 -0.5145
vn 0.9503 0.0863 -0.2990
vn -0.5887 0.7934 -0.1548
vn -0.5536 0.8317 -0.0416
vn 0.8779 0.1695 -0.4477
vn 0.2831 -0.1778 -0.9425
vn 0.1933 -0.2233 -0.9554
vn 0.3131 0.1021 -0.9442
vn 0.9613 -0.1547 -0.2279
vn 0.0359 -0.4602 0.8871
vn 0.5136 -0.6772 0.5269
vn -0.4816 -0.0191 -0.8762
vn -0.3898 0.0273 -0.9205
vn -0.4422 -0.1303 -0.8874
vn 0.9971 0.0298 -0.0701
vn 0.5651 0.4119 0.7148
vn 0.4107 0.8055 -0.4272
vn 0.5793 0.3013 -0.7573
vn 0.5280 0.6866 0.4999
vn 0.3348 0.8406 0.4258
vn -0.0501 0.9350 -0.3511
vn 0.8459 -0.1638 -0.5076
vn 0.7652 -0.3930 -0.5099
vn 0.8798 -0.2248 -0.4188
vn -0.5948 -0.3461 0.7256
vn -0.6740 0.4237 0.6051
vn -0.4812 -0.1765 0.8587
vn -0.0188 0.9888 0.1478
vn -0.0958 0.9926 0.0741
vn 0.4155 0.3237 -0.8501
vn 0.8636 0.0939 -0.4953
vn 0.6624 -0.1815 -0.7268
vn 0.3847 0.7393 -0.5527
vn -0.7023 -0.4128 0.5800
vn 0.1696 0.5567 0.8132
vn 0.3770 0.1760 0.9093
vn -0.5267 -0.0992 0.8443
vn -0.5015 0.7025 0.5050
vn -0.5102 0.7168 0.4753
vn -0.8459 -0.1697 0.5056
vn -0.5642 -0.1776 0.8063
vn -0.8464 -0.1124 0.5206
vn -0.5286 -0.3063 0.7917
vn -0.6940 -0.0083 0.7199
vn -0.5167 -0.3768 0.7688
vn -0.7210 0.2415 -0.6495
vn 0.4960 0.4400 -0.7485
vn -0.0810 0.2318 -0.9694
vn -0.8173 -0.4936 0.2973
vn 0.6003 0.3930 -0.6965
vn 0.6385 0.5512 -0.5371
vn 0.8295 0.1932 -0.5240
vn 0.8719 0.3276 -0.3639
vn 0.3131 -0.0834 -0.9460
vn 0.7220 0.2446 -0.6473
vn 0.3464 0.0340 -0.9375
vn 0.5501 0.1827 -0.8149
vn 0.1524 -0.3337 0.9303
vn -0.4965 -0.2267 0.8379
vn -0.0094 0.3059 0.9520
vn -0.2670 0.6418 0.7189
vn 0.0188 0.2148 0.9765
vn 0.1089 -0.3974 0.9112
vn 0.7300 0.4071 -0.5489
vn 0.6315 0.1604 -0.7586
vn 0.3079 0.1226 -0.9435
vn -0.9341 -0.0401 0.3547
vn -0.5789 0.1828 0.7947
vn -0.7577 -0.6088 0.2349
vn -0.6212 -0.7799 0.0760
vn 0.0936 -0.9924 -0.0803
vn -0.2144 -0.8942 0.3929
vn -0.7724 -0.2883 0.5660
vn -0.7407 -0.6421 0.1976
vn -0.7586 -0.6113 0.2254
vn -0.7873 -0.6115 0.0788
vn -0.1686 -0.0422 -0.9848
vn 0.1177 -0.0326 -0.9925
vn -0.0861 -0.5739 -0.8144
vn 0.4612 -0.4801 -0.7462
vn 0.5030 -0.4020 -0.7651
vn 0.6305 -0.5603 -0.5371
vn 0.5249 0.5587 -0.6421
vn 0.7400 -0.3728 -0.5599
vn 0.0845 0.1493 -0.9852
vn 0.7065 0.0822 -0.7029
vn 0.7654 -0.2445 -0.5953
vn 0.7405 -0.2499 -0.6239
vn -0.2602 -0.0774 0.9625
vn -0.5978 0.3999 0.6948
vn -0.1189 0.7619 0.6367
vn -0.3964 -0.0019 0.9181
vn -0.4741 -0.0960 0.8752
vn 0.9294 0.2359 -0.2839
vn 0.8102 0.5841 -0.0488
vn 0.6754 0.0598 -0.7350
vn -0.4117 -0.3936 0.8219
vn -0.3033 -0.2093 0.9296
vn 0.0019 -0.7645 0.6446
vn 0.6699 -0.7137 -0.2044
vn -0.0007 -0.7601 0.6498
vn 0.6872 -0.7032 -0.1825
vn 0.9607 -0.1561 0.2295
vn 0.9049 -0.4248 -0.0256
vn 0.9688 -0.1402 0.2043
vn 0.2689 -0.6773 0.6848
vn 0.1796 -0.4745 0.8617
vn 0.1892 -0.4719 0.8611
vn -0.4574 0.7483 0.4804
vn 0.7574 0.4758 -0.4471
vn 0.3420 0.2887 0.8943
vn 0.3768 -0.1184 0.9187
vn 0.1342 -0.2894 0.9477
vn 0.9286 0.3575 0.0992
usemtl Material_with_Texture.797
s off
f 1/1/1 2/2/1 3/3/1
f 3/3/2 4/4/2 1/1/2
f 5/5/3 2/6/3 1/7/3
f 5/5/4 1/7/4 6/8/4
f 1/7/5 7/9/5 6/8/5
f 8/10/6 1/7/6 4/11/6
f 4/11/7 7/9/7 1/7/7
f 2/2/8 9/12/8 3/3/8
f 2/2/9 10/13/9 11/14/9
f 9/12/10 2/2/10 11/14/10
f 2/6/11 5/5/11 10/15/11
f 3/3/12 9/12/12 12/16/12
f 12/17/13 13/18/13 3/19/13
f 13/20/14 14/21/14 3/22/14
f 15/23/15 3/22/15 14/21/15
f 15/24/16 4/25/16 3/26/16
f 16/27/17 4/28/17 15/29/17
f 4/30/18 16/31/18 17/32/18
f 8/33/19 4/30/19 18/34/19
f 18/34/20 4/30/20 17/32/20
f 7/9/21 4/11/21 8/10/21
f 6/8/22 19/35/22 5/5/22
f 5/5/23 19/35/23 20/36/23
f 5/5/24 20/36/24 10/15/24
f 8/10/25 19/35/25 6/8/25
f 7/9/26 8/10/26 6/8/26
f 21/37/27 19/35/27 8/10/27
f 8/33/28 22/38/28 21/39/28
f 8/33/29 18/34/29 23/40/29
f 22/38/30 8/33/30 23/40/30
f 12/16/31 9/12/31 24/41/31
f 9/12/32 11/14/32 25/42/32
f 24/41/33 9/12/33 25/42/33
f 10/15/34 26/43/34 11/44/34
f 20/36/35 26/43/35 10/15/35
f 11/14/36 26/45/36 25/42/36
f 13/46/37 12/16/37 27/47/37
f 27/47/38 12/16/38 24/41/38
f 27/48/39 28/49/39 13/50/39
f 13/20/40 28/51/40 14/21/40
f 14/52/41 29/53/41 30/54/41
f 14/21/42 28/51/42 29/55/42
f 14/56/43 31/57/43 15/58/43
f 32/59/44 31/57/44 14/56/44
f 30/60/45 32/59/45 14/56/45
f 15/29/46 33/61/46 16/27/46
f 15/58/47 31/57/47 34/62/47
f 33/63/48 15/58/48 34/62/48
f 35/64/49 16/65/49 36/66/49
f 16/65/50 33/67/50 37/68/50
f 38/69/51 16/70/51 39/71/51
f 17/72/52 16/73/52 38/74/52
f 36/66/53 16/65/53 37/68/53
f 16/75/54 40/76/54 41/77/54
f 16/65/55 35/64/55 40/78/55
f 16/75/56 41/77/56 39/79/56
f 42/80/57 18/81/57 17/82/57
f 38/74/58 42/83/58 17/72/58
f 43/84/59 44/85/59 18/86/59
f 43/87/60 18/88/60 45/89/60
f 44/90/61 23/91/61 18/92/61
f 46/93/62 18/94/62 42/95/62
f 45/96/63 18/94/63 46/93/63
f 19/35/64 47/97/64 48/98/64
f 19/35/65 48/98/65 20/36/65
f 21/37/66 49/99/66 19/35/66
f 19/100/67 50/101/67 47/102/67
f 49/99/68 50/103/68 19/35/68
f 48/98/69 26/43/69 20/36/69
f 21/104/70 51/105/70 49/106/70
f 21/104/71 22/107/71 51/105/71
f 22/108/72 52/109/72 53/110/72
f 22/107/73 53/111/73 51/105/73
f 22/38/74 23/40/74 52/112/74
f 54/113/75 23/114/75 55/115/75
f 44/116/76 55/115/76 23/114/76
f 56/117/77 23/118/77 57/119/77
f 57/119/78 23/118/78 54/120/78
f 52/121/79 23/118/79 56/117/79
f 27/48/80 24/122/80 58/123/80
f 24/41/81 25/42/81 59/124/81
f 58/123/82 24/122/82 59/125/82
f 25/42/83 26/45/83 59/124/83
f 60/126/84 61/127/84 26/43/84
f 59/124/85 26/45/85 61/128/85
f 60/126/86 26/43/86 48/98/86
f 62/129/87 27/48/87 58/123/87
f 28/49/88 27/48/88 62/129/88
f 28/130/89 62/131/89 63/132/89
f 28/130/90 63/132/90 29/53/90
f 30/54/91 29/53/91 64/133/91
f 64/133/92 29/53/92 65/134/92
f 65/134/93 29/53/93 63/132/93
f 32/59/94 30/60/94 66/135/94
f 64/136/95 66/135/95 30/60/95
f 46/137/96 31/57/96 32/59/96
f 34/62/97 31/57/97 46/137/97
f 46/137/98 32/59/98 66/135/98
f 37/138/99 33/139/99 34/140/99
f 37/141/100 34/142/100 39/143/100
f 39/143/101 34/142/101 42/95/101
f 34/142/102 46/93/102 42/95/102
f 36/144/103 67/145/103 35/146/103
f 68/147/104 35/146/104 67/145/104
f 39/148/105 41/149/105 35/150/105
f 39/148/106 35/150/106 68/151/106
f 35/64/107 69/152/107 40/78/107
f 69/152/108 35/64/108 70/153/108
f 71/154/109 70/155/109 35/150/109
f 71/154/110 35/150/110 41/149/110
f 36/144/111 72/156/111 67/145/111
f 72/156/112 36/144/112 37/157/112
f 72/158/113 37/159/113 39/160/113
f 39/71/114 42/161/114 38/69/114
f 68/151/115 67/162/115 39/148/115
f 67/162/116 72/163/116 39/148/116
f 40/76/117 71/164/117 41/77/117
f 40/76/118 69/165/118 71/164/118
f 73/166/119 44/167/119 43/168/119
f 43/168/120 53/111/120 73/166/120
f 74/169/121 43/87/121 45/89/121
f 43/168/122 74/170/122 53/111/122
f 75/171/123 44/172/123 73/173/123
f 55/174/124 44/172/124 75/171/124
f 45/89/125 46/175/125 74/169/125
f 66/135/126 76/176/126 46/137/126
f 46/177/127 76/178/127 74/179/127
f 48/98/128 47/97/128 60/126/128
f 60/180/129 47/181/129 61/182/129
f 50/183/130 61/182/130 47/181/130
f 49/184/131 62/129/131 50/183/131
f 62/131/132 49/106/132 77/185/132
f 49/106/133 51/105/133 77/185/133
f 58/123/134 61/182/134 50/183/134
f 50/183/135 62/129/135 58/123/135
f 53/111/136 77/185/136 51/105/136
f 53/110/137 52/109/137 73/186/137
f 52/109/138 75/187/138 73/186/138
f 52/188/139 56/189/139 75/190/139
f 53/111/140 74/170/140 77/185/140
f 54/191/141 55/192/141 70/155/141
f 54/191/142 70/155/142 71/154/142
f 78/193/143 57/119/143 54/120/143
f 54/120/144 69/165/144 78/193/144
f 69/165/145 54/120/145 71/164/145
f 75/190/146 79/194/146 55/195/146
f 55/192/147 79/196/147 70/155/147
f 56/189/148 57/197/148 79/194/148
f 56/189/149 79/194/149 75/190/149
f 57/198/150 70/153/150 79/199/150
f 78/200/151 70/153/151 57/198/151
f 61/182/152 58/123/152 59/125/152
f 62/131/153 77/185/153 63/132/153
f 74/170/154 65/134/154 63/132/154
f 74/170/155 63/132/155 77/185/155
f 64/136/156 80/201/156 66/135/156
f 64/202/157 81/203/157 82/204/157
f 82/205/158 80/201/158 64/136/158
f 83/206/159 81/203/159 64/202/159
f 83/206/160 64/202/160 65/207/160
f 84/208/161 83/209/161 65/134/161
f 85/210/162 84/208/162 65/134/162
f 85/210/163 65/134/163 86/211/163
f 74/170/164 86/211/164 65/134/164
f 66/135/165 80/201/165 76/176/165
f 78/200/166 69/152/166 70/153/166
f 74/179/167 76/178/167 86/212/167
f 76/176/168 87/213/168 88/214/168
f 89/215/169 76/216/169 88/217/169
f 86/218/170 76/216/170 89/215/170
f 90/219/171 76/176/171 80/201/171
f 76/176/172 90/219/172 87/213/172
f 90/219/173 80/201/173 91/220/173
f 92/221/174 80/201/174 93/222/174
f 91/220/175 80/201/175 92/221/175
f 80/201/176 82/205/176 93/222/176
f 94/223/177 82/224/177 81/225/177
f 83/209/178 95/226/178 81/227/178
f 81/225/179 95/228/179 94/223/179
f 93/222/180 82/205/180 94/229/180
f 95/226/181 83/209/181 84/208/181
f 95/226/182 84/208/182 96/230/182
f 84/208/183 85/210/183 97/231/183
f 84/208/184 97/231/184 96/230/184
f 85/210/185 98/232/185 99/233/185
f 85/210/186 99/233/186 97/231/186
f 98/232/187 85/210/187 86/211/187
f 98/232/188 86/211/188 89/234/188
f 87/235/189 100/236/189 88/237/189
f 90/219/190 101/238/190 87/213/190
f 101/239/191 100/240/191 87/241/191
f 102/242/192 89/215/192 88/217/192
f 102/243/193 88/244/193 103/245/193
f 88/237/194 100/236/194 103/246/194
f 104/247/195 89/234/195 103/248/195
f 103/248/196 89/234/196 102/249/196
f 89/234/197 104/247/197 98/232/197
f 91/220/198 105/250/198 90/219/198
f 90/219/199 105/250/199 101/238/199
f 91/220/200 92/221/200 106/251/200
f 107/252/201 91/220/201 106/251/201
f 108/253/202 91/254/202 107/255/202
f 91/220/203 108/256/203 109/257/203
f 109/257/204 105/250/204 91/220/204
f 92/221/205 93/222/205 110/258/205
f 92/221/206 110/258/206 106/251/206
f 110/258/207 93/222/207 94/229/207
f 110/259/208 94/223/208 95/228/208
f 110/259/209 95/228/209 96/260/209
f 106/261/210 110/259/210 96/260/210
f 106/262/211 96/230/211 97/231/211
f 107/263/212 106/262/212 97/231/212
f 108/264/213 97/231/213 111/265/213
f 97/231/214 99/233/214 111/265/214
f 107/263/215 97/231/215 108/264/215
f 99/266/216 98/267/216 111/268/216
f 98/232/217 104/247/217 112/269/217
f 111/265/218 98/232/218 113/270/218
f 98/232/219 112/269/219 113/270/219
f 114/271/220 103/272/220 100/273/220
f 115/274/221 100/240/221 101/239/221
f 114/275/222 100/240/222 115/274/222
f 105/250/223 116/276/223 101/238/223
f 101/238/224 116/276/224 115/277/224
f 114/278/225 104/247/225 103/248/225
f 117/279/226 104/247/226 114/278/226
f 112/269/227 104/247/227 117/279/227
f 118/280/228 105/250/228 109/257/228
f 116/276/229 105/250/229 118/280/229
f 119/281/230 109/282/230 108/283/230
f 111/284/231 119/281/231 108/283/231
f 118/285/232 109/282/232 119/281/232
f 111/284/233 113/286/233 119/281/233
f 112/287/234 120/288/234 121/289/234
f 113/286/235 112/287/235 121/289/235
f 117/290/236 120/288/236 112/287/236
f 113/286/237 118/285/237 119/281/237
f 113/286/238 121/289/238 116/291/238
f 116/291/239 118/285/239 113/286/239
f 115/274/240 122/292/240 114/275/240
f 117/279/241 114/278/241 122/293/241
f 115/294/242 120/288/242 122/295/242
f 115/294/243 121/289/243 120/288/243
f 116/291/244 121/289/244 115/294/244
f 122/293/245 120/296/245 117/279/245
