# Blender v3.5.0 OBJ File: ''
# www.blender.org
mtllib l_talus.mtl
o l_talus.vtp_l_talus.vtp.010
v -0.015336 -0.001709 -0.005020
v -0.014889 -0.004263 -0.007677
v -0.017534 -0.005773 -0.001672
v -0.016408 -0.000916 0.001140
v -0.008588 0.000363 -0.016332
v -0.009812 0.008402 -0.009034
v -0.015134 -0.009392 -0.006469
v -0.008109 -0.002378 -0.019176
v -0.016145 -0.011160 -0.000750
v -0.016894 -0.008737 0.003632
v -0.017213 -0.004306 0.005621
v -0.011834 0.006489 0.002472
v -0.001819 0.005958 -0.018558
v -0.001849 0.000709 -0.018580
v -0.002403 0.009072 -0.015098
v -0.004040 0.008542 -0.005741
v -0.008156 -0.010315 -0.019210
v -0.009509 -0.013840 -0.011591
v -0.011753 -0.011069 0.001350
v -0.012790 -0.004464 0.007535
v -0.013200 0.000903 0.010083
v -0.006053 0.006568 0.005703
v 0.004224 0.010541 -0.016663
v 0.004404 0.008107 -0.017781
v -0.001458 -0.007908 -0.021141
v 0.004365 0.001357 -0.017810
v 0.004701 -0.003949 -0.019925
v 0.002786 0.009264 -0.008480
v 0.001097 0.009358 0.001186
v -0.002952 -0.009810 -0.012653
v -0.003984 -0.009892 -0.006743
v -0.005343 -0.006355 0.001153
v -0.006902 -0.002759 0.010219
v -0.007451 -0.000894 0.013429
v -0.007312 0.002795 0.012766
v -0.001113 0.006381 0.013734
v -0.000964 0.011758 0.013080
v -0.000284 0.012208 0.009203
v 0.010816 0.013197 -0.017977
v 0.011067 0.008327 -0.019597
v 0.009372 0.012608 -0.009729
v 0.010820 0.001011 -0.018459
v 0.004377 -0.007954 -0.018219
v 0.009790 -0.000758 -0.012617
v 0.008875 -0.006587 -0.007593
v 0.007844 0.010954 -0.001054
v 0.006297 0.013113 0.007881
v 0.002490 -0.006676 -0.007377
v 0.001319 -0.004636 -0.000596
v 0.000020 -0.008159 0.006716
v -0.001083 -0.009117 0.012991
v -0.001320 -0.007122 0.014416
v -0.000879 -0.001614 0.012100
v 0.004587 -0.002166 0.017112
v 0.004393 0.005266 0.018499
v 0.004559 0.013894 0.017860
v 0.016815 0.009905 -0.016115
v 0.017353 0.006290 -0.019331
v 0.017451 -0.000895 -0.020162
v 0.008122 -0.008226 -0.003352
v 0.016136 -0.007106 -0.012861
v 0.013560 0.010656 0.002543
v 0.011494 0.012555 0.014434
v 0.006425 -0.009819 0.006307
v 0.004808 -0.016224 0.015331
v 0.004027 -0.013425 0.019898
v 0.003969 -0.008552 0.020410
v 0.011431 -0.002194 0.014249
v 0.011223 0.000865 0.015554
v 0.010979 0.007109 0.017182
v 0.011171 0.012550 0.016281
v 0.022744 0.006111 -0.013885
v 0.020859 0.007388 -0.003044
v 0.022406 0.007167 -0.011911
v 0.023483 -0.002124 -0.018414
v 0.023415 -0.006313 -0.018186
v 0.015590 -0.010241 -0.009858
v 0.014124 -0.007268 -0.001350
v 0.022780 -0.008386 -0.014624
v 0.022242 -0.008646 -0.011547
v 0.018882 0.007665 0.008285
v 0.018275 0.006965 0.011730
v 0.012082 -0.006681 0.010352
v 0.011014 -0.007763 0.016441
v 0.011147 -0.005011 0.015775
v 0.017952 -0.004539 0.013159
v 0.018189 -0.002472 0.011876
v 0.018252 0.003153 0.011715
v 0.028566 0.003878 -0.010972
v 0.026307 0.005710 0.002026
v 0.027208 -0.004271 -0.003496
v 0.021713 -0.010781 -0.008600
v 0.020847 -0.009610 -0.003608
v 0.025728 0.002451 0.005214
v 0.018541 -0.006527 0.009704
v 0.018140 -0.007222 0.011979
v 0.024665 -0.001069 0.011172
v 0.028607 -0.002347 -0.002356
v 0.027173 -0.000936 0.005899
vt 0.335494 0.762163
vt 0.286095 0.810373
vt 0.274017 0.779773
vt 0.294604 0.719063
vt 0.179676 0.864956
vt 0.136816 0.778878
vt 0.340193 0.809004
vt 0.192670 0.897722
vt 0.947104 0.037417
vt 0.976335 0.011979
vt 0.976335 0.186101
vt 0.000000 0.487855
vt 0.047231 0.476160
vt 0.027092 0.541407
vt 0.380054 0.710730
vt 0.383025 0.757629
vt 0.347154 0.682805
vt 0.207410 0.672236
vt 0.878805 0.423507
vt 0.768671 0.419804
vt 0.814117 0.337264
vt 0.757572 0.344059
vt 0.729967 0.417856
vt 0.858829 0.339919
vt 0.092438 0.432646
vt 0.002953 0.337223
vt 0.070097 0.314973
vt 0.000000 0.234650
vt 0.494073 0.974616
vt 0.441559 0.858449
vt 0.494073 0.802471
vt 0.087026 0.612228
vt 0.053372 0.701151
vt 0.644465 0.428149
vt 0.093160 0.476191
vt 0.040672 0.432646
vt 0.916089 0.942930
vt 0.913015 0.883161
vt 0.984210 0.935958
vt 0.881065 0.903174
vt 0.869779 0.835282
vt 0.295036 0.610309
vt 0.190564 0.615357
vt 0.159276 0.409704
vt 0.862025 0.264035
vt 0.832216 0.265032
vt 0.656567 0.350322
vt 0.759499 0.273774
vt 0.695560 0.276573
vt 0.091406 0.241605
vt 0.027986 0.173514
vt 0.162128 0.326303
vt 0.093160 0.756581
vt 0.869779 0.642245
vt 0.941708 0.633576
vt 0.977687 0.720738
vt 0.929431 0.573080
vt 0.873216 0.510249
vt 0.405230 0.802471
vt 0.441559 0.881846
vt 0.383025 0.916291
vt 0.595553 0.802471
vt 0.595553 0.948668
vt 0.549115 0.866657
vt 0.944780 0.837819
vt 0.916039 0.825855
vt 0.258520 0.555078
vt 0.296484 0.556064
vt 0.198133 0.512933
vt 0.144217 0.508493
vt 0.122274 0.544815
vt 0.112713 0.627460
vt 0.821161 0.190286
vt 0.878805 0.187079
vt 0.947104 0.077069
vt 0.947104 0.167729
vt 0.878805 0.097158
vt 0.885113 0.186101
vt 0.746136 0.202036
vt 0.979932 0.243988
vt 0.970302 0.297957
vt 0.922782 0.291089
vt 0.655441 0.802471
vt 0.655441 0.901458
vt 0.595553 0.820193
vt 0.644465 0.076800
vt 0.567460 0.110046
vt 0.584883 0.042636
vt 0.878805 0.323414
vt 0.979932 0.428149
vt 0.899750 0.394091
vt 0.184834 0.259599
vt 0.881525 0.000000
vt 0.213556 0.403910
vt 0.244801 0.343396
vt 0.992149 0.559914
vt 1.000000 0.670663
vt 1.000000 0.490837
vt 0.441559 0.961237
vt 0.635074 0.327268
vt 0.559390 0.363947
vt 0.588700 0.276992
vt 0.644465 0.419398
vt 0.546111 0.434510
vt 0.555809 0.446181
vt 0.299509 0.590596
vt 0.266413 0.544554
vt 0.329154 0.533304
vt 0.984210 0.796401
vt 0.932547 0.720738
vt 0.900555 0.788098
vt 0.263666 0.471835
vt 0.199591 0.443705
vt 0.114955 0.432646
vt 0.316035 0.432646
vt 0.841877 0.124033
vt 0.116828 0.188199
vt 0.054722 0.117718
vt 0.120318 0.073846
vt 0.792566 0.122506
vt 0.712572 0.130262
vt 0.517631 0.000000
vt 0.591497 0.090656
vt 0.585400 0.206800
vt 0.527752 0.176505
vt 0.513094 0.226153
vt 0.472903 0.092130
vt 0.255354 0.238840
vt 0.337698 0.347776
vt 0.491960 0.334995
vt 0.443979 0.446362
vt 0.454399 0.490837
vt 0.341547 0.550956
vt 0.383025 0.467535
vt 0.339201 0.452907
vt 0.574215 0.553381
vt 0.591224 0.622421
vt 0.519357 0.664834
vt 0.544266 0.691400
vt 0.641380 0.690984
vt 0.589095 0.747958
vt 0.686556 0.775642
vt 0.614687 0.802471
vt 0.351271 0.363901
vt 0.106145 0.036140
vt 0.189911 0.031873
vt 0.266182 0.129969
vt 0.201647 0.051926
vt 0.697471 0.064310
vt 0.800744 0.062383
vt 0.653142 0.070222
vt 0.425664 0.004550
vt 0.451186 0.131173
vt 0.457696 0.218426
vt 0.409335 0.047611
vt 0.404014 0.081793
vt 0.348646 0.229672
vt 0.375765 0.257910
vt 0.104627 0.846563
vt 0.024526 0.856920
vt 0.091801 0.756581
vt 0.104627 0.971683
vt 0.000000 0.918788
vt 0.501235 0.490837
vt 0.543635 0.507531
vt 0.500529 0.606184
vt 0.512259 0.634225
vt 0.444652 0.680909
vt 0.448911 0.703738
vt 0.479853 0.758351
vt 0.501525 0.795093
vt 0.778616 0.000000
vt 0.260457 0.000000
vt 0.351110 0.118422
vt 0.789587 0.814091
vt 0.746265 0.809041
vt 0.869779 0.722420
vt 0.775343 0.640054
vt 0.719842 0.770963
vt 0.388102 0.118250
vt 0.388649 0.170584
vt 0.446567 0.345343
vt 0.712729 0.739056
vt 0.686556 0.707284
vt 0.383025 0.137612
vt 0.549115 0.937808
vt 0.494073 0.845771
vt 0.531604 0.836617
vt 0.383025 0.802471
vt 0.389846 0.310201
vt 0.383025 0.336463
vt 0.432777 0.414100
vt 0.422605 0.657685
vt 0.397695 0.755086
vt 0.730533 0.814091
vt 0.730533 0.912313
vt 0.686556 0.860437
vt 0.800778 0.624842
vt 0.869779 0.589540
vt 0.803314 0.540613
vt 0.549115 0.802471
vt 0.691345 0.656557
vt 0.786982 0.490837
vt 0.703728 0.521246
vt 0.703280 0.923255
vt 0.693310 0.497331
vn 0.9137 -0.2051 0.3509
vn 0.9215 -0.3312 0.2030
vn 0.8395 -0.3142 0.4433
vn 0.8457 -0.2823 0.4528
vn 0.8908 -0.4045 0.2071
vn 0.9087 0.0541 0.4139
vn 0.8396 -0.3136 0.4436
vn 0.8527 0.0808 0.5160
vn 0.9261 0.2817 0.2508
vn 0.9670 0.2536 0.0250
vn 0.9929 0.1001 -0.0638
vn 0.9738 -0.2274 0.0029
vn 0.8477 -0.4850 -0.2146
vn 0.8444 -0.5324 0.0599
vn 0.6063 -0.4819 0.6325
vn 0.3167 -0.0058 0.9485
vn 0.2653 -0.6715 0.6919
vn 0.5496 -0.5727 0.6082
vn 0.1065 -0.9837 -0.1448
vn 0.0513 -0.9976 -0.0475
vn 0.8768 -0.0073 0.4807
vn 0.7612 0.5265 0.3787
vn 0.7479 0.5853 0.3131
vn -0.0930 -0.0037 0.9957
vn 0.0737 0.9777 -0.1966
vn 0.1964 0.8719 -0.4485
vn -0.0150 0.6822 -0.7310
vn 0.3757 0.4019 -0.8351
vn 0.3729 0.4210 -0.8269
vn 0.8518 -0.4833 -0.2019
vn 0.3055 -0.7930 -0.5272
vn 0.0986 -0.9834 -0.1523
vn 0.3079 -0.6808 0.6647
vn 0.0299 -0.4154 0.9092
vn -0.1227 -0.0035 0.9924
vn 0.3506 -0.2521 0.9019
vn -0.1226 -0.0036 0.9924
vn -0.0756 -0.3733 0.9246
vn -0.0060 -0.2851 0.9585
vn 0.0889 -0.9952 -0.0408
vn 0.1880 -0.9749 -0.1191
vn 0.2998 -0.9476 -0.1107
vn 0.1171 -0.9927 0.0301
vn -0.2145 0.9004 0.3785
vn -0.5088 0.8548 0.1020
vn -0.5314 0.8432 -0.0811
vn -0.4017 0.8787 -0.2578
vn -0.5463 0.7253 -0.4189
vn -0.5539 0.7369 -0.3875
vn 0.1262 0.6885 -0.7141
vn -0.0198 0.8630 -0.5048
vn 0.5512 0.3918 -0.7366
vn 0.4541 -0.1741 -0.8738
vn 0.4312 -0.8255 -0.3641
vn 0.5106 -0.7929 -0.3325
vn 0.8476 -0.0871 -0.5234
vn 0.6872 -0.7255 0.0363
vn 0.5290 -0.7668 0.3637
vn 0.2973 -0.2875 0.9104
vn 0.2543 -0.3881 0.8859
vn 0.4425 -0.8946 -0.0618
vn 0.3736 -0.9276 -0.0008
vn 0.2561 0.1401 0.9565
vn 0.0998 -0.0049 0.9950
vn -0.4108 0.3852 0.8264
vn -0.0935 0.9749 0.2020
vn 0.0813 0.9499 0.3020
vn -0.3901 0.6355 0.6663
vn -0.9436 -0.1724 0.2825
vn -0.9074 0.2247 0.3552
vn 0.2463 -0.9678 0.0525
vn 0.4366 -0.8948 -0.0937
vn 0.1975 -0.9124 0.3584
vn 0.3064 -0.9118 0.2734
vn -0.3619 0.9164 -0.1710
vn -0.4491 0.8910 -0.0661
vn -0.4459 0.8330 -0.3276
vn -0.3301 0.8390 -0.4326
vn -0.1245 0.9023 0.4126
vn 0.5207 0.8205 -0.2359
vn 0.6677 0.7094 0.2257
vn 0.7341 0.4503 -0.5083
vn 0.3411 -0.3874 -0.8565
vn -0.0071 0.8641 -0.5033
vn -0.1742 0.1923 -0.9657
vn 0.2528 -0.1804 -0.9506
vn 0.6755 0.1666 -0.7183
vn 0.6642 0.1539 -0.7315
vn 0.6375 -0.1104 -0.7625
vn 0.6678 -0.0677 -0.7413
vn 0.3893 -0.9203 -0.0385
vn 0.1560 -0.9823 0.1040
vn -0.4309 -0.3048 0.8494
vn -0.4424 -0.8857 -0.1407
vn -0.2452 -0.6645 0.7059
vn 0.0079 0.1534 0.9881
vn -0.5109 -0.8234 -0.2470
vn 0.2177 -0.1092 0.9699
vn 0.3377 0.8827 0.3268
vn -0.0179 0.9926 -0.1201
vn 0.6318 0.4468 0.6334
vn -0.0008 0.9328 0.3604
vn 0.4899 0.6185 0.6144
vn 0.3447 0.8534 0.3910
vn -0.1774 -0.9632 0.2020
vn -0.0696 -0.9972 0.0280
vn -0.1664 -0.9849 0.0481
vn -0.2440 -0.9634 0.1115
vn 0.3917 0.8976 -0.2024
vn 0.5250 0.8202 0.2275
vn 0.2505 0.8540 0.4560
vn 0.2376 0.7715 0.5902
vn 0.7119 0.6647 0.2266
vn 0.7854 0.5785 -0.2202
vn 0.8414 0.3767 -0.3875
vn 0.7567 0.0772 -0.6492
vn 0.6659 -0.3339 -0.6672
vn 0.5920 -0.4143 -0.6913
vn -0.3548 -0.4017 -0.8443
vn -0.3610 0.3451 -0.8664
vn -0.2973 0.1677 -0.9400
vn -0.2534 0.2348 -0.9384
vn -0.1769 -0.0693 -0.9818
vn -0.2582 -0.1490 -0.9545
vn -0.2080 -0.9774 -0.0390
vn -0.5856 -0.5857 0.5604
vn -0.4333 -0.9004 -0.0393
vn -0.4095 -0.9110 -0.0487
vn -0.5916 -0.7487 0.2992
vn -0.6554 -0.4083 0.6354
vn -0.2978 -0.1137 0.9478
vn -0.2672 0.0567 0.9620
vn 0.3928 0.6643 0.6359
vn 0.6498 0.4637 0.6023
vn -0.0383 0.9413 -0.3355
vn -0.1971 0.9723 0.1257
vn 0.2925 0.8029 0.5194
vn 0.2184 0.9684 0.1200
vn 0.0183 0.6900 0.7236
vn -0.5254 -0.8497 0.0444
vn -0.4431 -0.8948 -0.0554
vn -0.6591 -0.7428 -0.1173
vn -0.6738 -0.6919 -0.2593
vn -0.4160 0.9017 -0.1178
vn -0.6378 0.6774 0.3665
vn -0.8036 0.5941 -0.0354
vn -0.6850 0.5631 -0.4623
vn -0.2901 -0.2118 -0.9333
vn -0.5681 0.0793 -0.8192
vn -0.3354 -0.4224 -0.8421
vn -0.2975 -0.4314 -0.8517
vn -0.3088 -0.4758 -0.8236
vn -0.2963 0.3577 -0.8856
vn -0.4742 -0.0199 -0.8802
vn -0.5185 0.1967 -0.8321
vn -0.5985 0.0068 -0.8011
vn -0.5963 -0.1106 -0.7951
vn -0.5313 -0.4444 0.7213
vn -0.4823 -0.8041 0.3476
vn -0.2736 -0.9615 -0.0242
vn -0.2740 -0.9614 -0.0238
vn -0.4755 -0.8788 0.0412
vn -0.8408 0.0430 0.5396
vn -0.9239 0.3306 0.1926
vn -0.8461 0.5122 0.1473
vn -0.0476 0.8129 0.5804
vn 0.1278 0.9703 -0.2054
vn 0.2282 0.9307 -0.2859
vn 0.3321 0.9432 0.0106
vn -0.6209 0.7828 -0.0424
vn -0.8247 0.5180 0.2272
vn -0.6561 -0.7086 -0.2596
vn -0.6361 -0.4788 -0.6050
vn -0.6558 0.0069 -0.7549
vn -0.0465 0.9714 -0.2330
vn 0.0066 0.9560 0.2932
vn 0.0390 0.9826 0.1815
vn -0.5124 -0.1785 -0.8400
vn -0.3568 0.3550 -0.8641
vn -0.4240 0.3395 -0.8396
vn 0.0224 -0.5291 -0.8483
vn 0.1342 -0.8635 -0.4862
vn -0.6569 -0.0142 -0.7539
vn -0.8467 0.4294 0.3143
vn -0.9684 -0.2072 -0.1391
vn -0.9716 -0.1941 -0.1356
vn -0.7165 -0.4186 -0.5580
vn -0.6143 0.7378 -0.2796
vn -0.6165 0.7402 -0.2685
vn -0.6978 0.6651 -0.2662
vn -0.6012 0.7493 -0.2777
vn -0.8124 -0.4269 -0.3972
vn -0.6755 0.7300 0.1039
vn -0.5300 0.8158 -0.2315
usemtl Material_with_Texture.798
s off
f 3/1/1 2/2/1 1/3/1
f 3/1/2 1/3/2 4/4/2
f 1/3/3 2/2/3 5/5/3
f 1/3/4 5/5/4 6/6/4
f 4/4/5 1/3/5 6/6/5
f 3/1/6 7/7/6 2/2/6
f 2/2/7 8/8/7 5/5/7
f 2/9/8 7/10/8 8/11/8
f 3/12/9 9/13/9 7/14/9
f 3/1/10 10/15/10 9/16/10
f 3/1/11 11/17/11 10/15/11
f 3/1/12 4/4/12 11/17/12
f 11/17/13 4/4/13 12/18/13
f 4/4/14 6/6/14 12/18/14
f 6/19/15 5/20/15 13/21/15
f 5/20/16 14/22/16 13/21/16
f 5/20/17 8/23/17 14/22/17
f 6/19/18 13/21/18 15/24/18
f 12/25/19 6/26/19 16/27/19
f 6/26/20 15/28/20 16/27/20
f 7/29/21 17/30/21 8/31/21
f 7/14/22 18/32/22 17/33/22
f 7/14/23 9/13/23 18/32/23
f 8/23/24 17/34/24 14/22/24
f 9/13/25 19/35/25 18/32/25
f 9/13/26 10/36/26 19/35/26
f 10/37/27 20/38/27 19/39/27
f 10/37/28 11/40/28 20/38/28
f 11/40/29 21/41/29 20/38/29
f 11/17/30 12/18/30 21/42/30
f 21/42/31 12/18/31 22/43/31
f 12/25/32 16/27/32 22/44/32
f 15/24/33 13/21/33 23/45/33
f 13/21/34 24/46/34 23/45/34
f 13/21/35 14/22/35 24/46/35
f 17/34/36 25/47/36 14/22/36
f 14/22/37 26/48/37 24/46/37
f 14/22/38 27/49/38 26/48/38
f 14/22/39 25/47/39 27/49/39
f 16/27/40 15/28/40 28/50/40
f 15/28/41 23/51/41 28/50/41
f 22/44/42 16/27/42 29/52/42
f 16/27/43 28/50/43 29/52/43
f 17/33/44 18/32/44 25/53/44
f 18/54/45 30/55/45 25/56/45
f 18/54/46 31/57/46 30/55/46
f 18/54/47 19/58/47 31/57/47
f 19/59/48 32/60/48 31/61/48
f 19/62/49 33/63/49 32/64/49
f 19/39/50 20/38/50 33/65/50
f 20/38/51 34/66/51 33/65/51
f 20/38/52 21/41/52 34/66/52
f 21/42/53 35/67/53 34/68/53
f 21/42/54 22/43/54 35/67/54
f 35/67/55 22/43/55 36/69/55
f 22/43/56 37/70/56 36/69/56
f 22/43/57 38/71/57 37/70/57
f 22/43/58 29/72/58 38/71/58
f 23/45/59 40/73/59 39/74/59
f 23/45/60 24/46/60 40/73/60
f 28/75/61 23/76/61 41/77/61
f 23/76/62 39/78/62 41/77/62
f 24/46/63 42/79/63 40/73/63
f 24/46/64 26/48/64 42/79/64
f 25/80/65 43/81/65 27/82/65
f 25/83/66 30/84/66 43/85/66
f 26/86/67 44/87/67 42/88/67
f 26/89/68 45/90/68 44/91/68
f 26/89/69 27/82/69 45/90/69
f 27/82/70 43/81/70 45/90/70
f 29/52/71 28/50/71 46/92/71
f 28/75/72 41/77/72 46/93/72
f 38/94/73 29/52/73 47/95/73
f 29/52/74 46/92/74 47/95/74
f 30/55/75 48/96/75 43/97/75
f 30/55/76 31/57/76 48/96/76
f 31/57/77 49/98/77 48/96/77
f 31/61/78 32/60/78 49/99/78
f 32/100/79 50/101/79 49/102/79
f 32/100/80 33/103/80 50/101/80
f 33/103/81 51/104/81 50/101/81
f 33/103/82 52/105/82 51/104/82
f 33/106/83 53/107/83 52/108/83
f 33/65/84 34/66/84 53/109/84
f 34/66/85 36/110/85 53/109/85
f 34/66/86 35/111/86 36/110/86
f 53/107/87 36/69/87 54/112/87
f 36/69/88 55/113/88 54/112/88
f 36/69/89 37/70/89 55/113/89
f 37/70/90 56/114/90 55/113/90
f 37/70/91 38/71/91 56/114/91
f 38/94/92 47/95/92 56/115/92
f 39/74/93 40/73/93 57/116/93
f 41/117/94 39/118/94 57/119/94
f 40/73/95 58/120/95 57/116/95
f 40/73/96 42/79/96 58/120/96
f 46/92/97 41/117/97 57/119/97
f 42/79/98 59/121/98 58/120/98
f 42/88/99 44/87/99 59/122/99
f 43/123/100 48/124/100 45/125/100
f 44/87/101 45/125/101 59/122/101
f 48/124/102 60/126/102 45/125/102
f 45/125/103 61/127/103 59/122/103
f 45/125/104 60/126/104 61/127/104
f 47/95/105 46/92/105 62/128/105
f 46/92/106 57/119/106 62/128/106
f 56/115/107 47/95/107 63/129/107
f 47/95/108 62/128/108 63/129/108
f 48/124/109 49/102/109 60/126/109
f 49/102/110 64/130/110 60/126/110
f 49/102/111 50/101/111 64/130/111
f 50/101/112 65/131/112 64/130/112
f 50/101/113 51/104/113 65/131/113
f 51/104/114 66/132/114 65/131/114
f 51/133/115 52/108/115 66/134/115
f 52/108/116 67/135/116 66/134/116
f 52/108/117 53/107/117 67/135/117
f 53/107/118 54/112/118 67/135/118
f 67/136/119 54/137/119 68/138/119
f 54/137/120 69/139/120 68/138/120
f 54/137/121 55/140/121 69/139/121
f 55/140/122 70/141/122 69/139/122
f 55/140/123 56/142/123 70/141/123
f 56/142/124 71/143/124 70/141/124
f 56/115/125 63/129/125 71/144/125
f 57/119/126 58/145/126 72/146/126
f 62/128/127 57/119/127 73/147/127
f 57/119/128 74/148/128 73/147/128
f 57/119/129 72/146/129 74/148/129
f 58/120/130 75/149/130 72/150/130
f 58/120/131 59/121/131 75/149/131
f 59/121/132 76/151/132 75/149/132
f 59/122/133 61/127/133 76/152/133
f 60/126/134 77/153/134 61/127/134
f 60/126/135 78/154/135 77/153/135
f 60/126/136 64/130/136 78/154/136
f 61/127/137 79/155/137 76/152/137
f 61/127/138 80/156/138 79/155/138
f 61/127/139 77/153/139 80/156/139
f 63/129/140 62/128/140 81/157/140
f 62/128/141 73/147/141 81/157/141
f 71/144/142 63/129/142 82/158/142
f 63/129/143 81/157/143 82/158/143
f 64/159/144 83/160/144 78/161/144
f 64/159/145 65/162/145 83/160/145
f 65/162/146 84/163/146 83/160/146
f 65/164/147 66/165/147 84/166/147
f 66/165/148 85/167/148 84/166/148
f 66/165/149 67/136/149 85/167/149
f 67/136/150 68/138/150 85/167/150
f 85/167/151 68/138/151 86/168/151
f 68/138/152 87/169/152 86/168/152
f 68/138/153 69/139/153 87/169/153
f 69/139/154 88/170/154 87/169/154
f 69/139/155 70/141/155 88/170/155
f 70/141/156 82/171/156 88/170/156
f 70/141/157 71/143/157 82/171/157
f 72/150/158 75/149/158 89/172/158
f 74/148/159 72/146/159 89/173/159
f 81/157/160 73/147/160 90/174/160
f 73/147/161 74/148/161 90/174/161
f 74/148/162 89/173/162 90/174/162
f 75/175/163 76/176/163 89/177/163
f 76/176/164 91/178/164 89/177/164
f 76/176/165 79/179/165 91/178/165
f 77/153/166 92/180/166 80/156/166
f 77/153/167 93/181/167 92/180/167
f 77/153/168 78/154/168 93/181/168
f 78/154/169 83/182/169 93/181/169
f 79/179/170 80/183/170 91/178/170
f 80/183/171 92/184/171 91/178/171
f 82/158/172 81/157/172 94/185/172
f 81/186/173 90/187/173 94/188/173
f 88/170/174 82/171/174 94/189/174
f 83/182/175 95/190/175 93/181/175
f 83/182/176 96/191/176 95/190/176
f 83/182/177 84/192/177 96/191/177
f 84/166/178 85/167/178 96/193/178
f 85/167/179 86/168/179 96/193/179
f 96/193/180 86/168/180 97/194/180
f 86/168/181 87/169/181 97/194/181
f 87/195/182 94/196/182 97/197/182
f 87/169/183 88/170/183 94/189/183
f 89/177/184 91/178/184 98/198/184
f 90/199/185 89/177/185 99/200/185
f 89/177/186 98/198/186 99/200/186
f 94/188/187 90/187/187 99/201/187
f 92/184/188 93/202/188 91/178/188
f 93/202/189 97/203/189 91/178/189
f 91/178/190 97/203/190 98/198/190
f 93/202/191 95/204/191 97/203/191
f 97/197/192 94/196/192 99/205/192
f 95/204/193 96/206/193 97/203/193
f 97/203/194 99/200/194 98/198/194
