# Blender v3.5.0 OBJ File: ''
# www.blender.org
mtllib little_medial_lvs.mtl
o little_medial_lvs.vtp_little_medial_lvs.vtp.010
v 0.033384 -0.133430 -0.046929
v 0.030906 -0.131724 -0.046719
v 0.031547 -0.132250 -0.045774
v 0.033132 -0.133203 -0.045935
v 0.032556 -0.132318 -0.051070
v 0.033701 -0.133297 -0.045882
v 0.033290 -0.133002 -0.048849
v 0.034730 -0.132038 -0.048507
v 0.035028 -0.132689 -0.046251
v 0.029985 -0.130611 -0.045603
v 0.029923 -0.130544 -0.047012
v 0.030553 -0.130215 -0.044688
v 0.030091 -0.130211 -0.045145
v 0.034343 -0.130799 -0.044425
v 0.033591 -0.132680 -0.051344
v 0.029788 -0.129707 -0.049626
v 0.030514 -0.130069 -0.050694
v 0.033123 -0.131996 -0.051645
v 0.034661 -0.132731 -0.045510
v 0.034600 -0.130472 -0.048188
v 0.035137 -0.130914 -0.049886
v 0.034478 -0.132063 -0.051550
v 0.035219 -0.131331 -0.045492
v 0.034999 -0.130567 -0.046674
v 0.028352 -0.128582 -0.045321
v 0.026151 -0.127343 -0.048065
v 0.029851 -0.129287 -0.044698
v 0.030905 -0.129261 -0.044227
v 0.034822 -0.131879 -0.044982
v 0.032012 -0.129361 -0.044005
v 0.033341 -0.129915 -0.044109
v 0.034683 -0.130225 -0.044910
v 0.034338 -0.130663 -0.051907
v 0.026589 -0.126486 -0.049550
v 0.029500 -0.128792 -0.050212
v 0.030364 -0.128927 -0.050812
v 0.031311 -0.130396 -0.051128
v 0.031157 -0.129392 -0.051284
v 0.034498 -0.129552 -0.049628
v 0.033194 -0.128941 -0.047808
v 0.033488 -0.128983 -0.046086
v 0.034782 -0.130065 -0.046387
v 0.034630 -0.130218 -0.051473
v 0.034831 -0.130902 -0.051545
v 0.026191 -0.126102 -0.043915
v 0.023801 -0.124851 -0.044249
v 0.028618 -0.128265 -0.044723
v 0.022455 -0.124133 -0.047608
v 0.021730 -0.123323 -0.048203
v 0.020694 -0.121411 -0.049291
v 0.029354 -0.127576 -0.044609
v 0.030401 -0.128480 -0.044928
v 0.031404 -0.128384 -0.044599
v 0.033310 -0.129100 -0.044366
v 0.033776 -0.129639 -0.051820
v 0.029290 -0.127964 -0.050020
v 0.028822 -0.127000 -0.049700
v 0.031092 -0.128065 -0.050751
v 0.029792 -0.127710 -0.049828
v 0.031725 -0.128808 -0.051394
v 0.032696 -0.128939 -0.051582
v 0.034277 -0.129547 -0.051377
v 0.032701 -0.128462 -0.051039
v 0.029924 -0.127448 -0.048745
v 0.024440 -0.124325 -0.042895
v 0.027768 -0.126547 -0.044091
v 0.020997 -0.120911 -0.040011
v 0.020002 -0.121340 -0.040567
v 0.017999 -0.120751 -0.042263
v 0.017661 -0.121020 -0.046200
v 0.018003 -0.119767 -0.048821
v 0.019078 -0.119467 -0.049694
v 0.022052 -0.120962 -0.049501
v 0.023217 -0.121677 -0.049451
v 0.030528 -0.128046 -0.046048
v 0.023749 -0.121178 -0.044723
v 0.025445 -0.123350 -0.043461
v 0.022709 -0.121271 -0.041053
v 0.025142 -0.123962 -0.042868
v 0.020213 -0.119994 -0.039516
v 0.021345 -0.119317 -0.039583
v 0.018440 -0.119941 -0.040670
v 0.016517 -0.119801 -0.044385
v 0.017325 -0.119998 -0.042567
v 0.016458 -0.119393 -0.046474
v 0.016657 -0.119386 -0.047116
v 0.017253 -0.119041 -0.048201
v 0.018130 -0.118333 -0.049431
v 0.019740 -0.118771 -0.049771
v 0.022064 -0.120211 -0.049293
v 0.020539 -0.117974 -0.049287
v 0.021276 -0.117629 -0.048342
v 0.021669 -0.117220 -0.041519
v 0.023495 -0.120827 -0.042094
v 0.022097 -0.118948 -0.040147
v 0.019631 -0.118983 -0.039364
v 0.020476 -0.119261 -0.039364
v 0.020730 -0.118559 -0.039505
v 0.019863 -0.118184 -0.039927
v 0.020261 -0.117256 -0.041229
v 0.019951 -0.118038 -0.044262
v 0.020279 -0.117730 -0.043343
v 0.018733 -0.119179 -0.044518
v 0.019406 -0.118800 -0.044248
v 0.018583 -0.119328 -0.045342
v 0.018057 -0.118925 -0.047232
v 0.018517 -0.117422 -0.049057
v 0.019428 -0.118141 -0.046511
v 0.019499 -0.116860 -0.048670
v 0.019665 -0.116296 -0.047604
v 0.020246 -0.116158 -0.043152
v 0.021377 -0.117952 -0.040138
v 0.020539 -0.116478 -0.041844
v 0.020526 -0.116995 -0.040868
v 0.020226 -0.117217 -0.040365
v 0.020110 -0.117601 -0.043979
v 0.019497 -0.118362 -0.044610
v 0.019880 -0.117122 -0.044489
v 0.019861 -0.118019 -0.044910
v 0.019309 -0.118838 -0.044923
vt 0.176111 0.012010
vt 0.186878 0.124498
vt 0.147102 0.098935
vt 0.141228 0.030272
vt 0.335622 0.039311
vt 0.135065 0.012424
vt 0.247921 0.014435
vt 0.832325 0.783036
vt 0.901769 0.846191
vt 0.835970 0.856585
vt 0.899950 0.759239
vt 0.846543 0.743972
vt 0.152564 0.184086
vt 0.205165 0.179521
vt 0.114604 0.183327
vt 0.134911 0.193682
vt 0.076894 0.064983
vt 0.338082 0.000000
vt 0.303029 0.189346
vt 0.337140 0.154137
vt 0.731933 0.165022
vt 0.719011 0.050356
vt 0.743326 0.038853
vt 0.734781 0.010856
vt 0.114345 0.001940
vt 0.888936 0.731390
vt 0.848472 0.951271
vt 0.575758 0.052293
vt 0.573132 0.004326
vt 0.661249 0.000000
vt 0.520156 0.011595
vt 0.888880 0.960605
vt 0.936906 0.901383
vt 0.936906 0.734867
vt 0.634698 0.053530
vt 0.683530 0.038373
vt 0.154511 0.281544
vt 0.272453 0.358037
vt 0.120307 0.225869
vt 0.861328 0.595125
vt 0.832325 0.587247
vt 0.845791 0.554576
vt 0.886865 0.714136
vt 0.093782 0.021652
vt 0.928689 0.372782
vt 0.916749 0.475024
vt 0.917649 0.423381
vt 0.928689 0.508919
vt 0.888865 0.679080
vt 0.916749 0.708318
vt 0.701873 0.038327
vt 0.712959 0.084228
vt 0.694951 0.086622
vt 0.774642 0.000000
vt 0.811777 0.036114
vt 0.324335 0.358814
vt 0.326997 0.216811
vt 0.230152 0.889197
vt 0.204061 0.864314
vt 0.230152 0.834169
vt 0.342819 0.186060
vt 0.743155 0.132018
vt 0.768262 0.160040
vt 0.760991 0.196567
vt 0.913459 0.714136
vt 0.517620 0.066312
vt 0.570823 0.131847
vt 0.636273 0.139022
vt 0.640922 0.074980
vt 0.454628 0.028443
vt 0.457068 0.004491
vt 0.925291 0.963903
vt 0.816397 0.018752
vt 0.118837 0.411240
vt 0.149001 0.506888
vt 0.130487 0.285419
vt 0.283315 0.543189
vt 0.310810 0.580132
vt 0.359036 0.650356
vt 0.885025 0.520535
vt 0.883369 0.557138
vt 0.851691 0.504393
vt 0.877446 0.634085
vt 0.901793 0.592606
vt 0.915515 0.663428
vt 0.698346 0.156003
vt 0.826900 0.077536
vt 0.438762 0.019931
vt 0.432308 0.062140
vt 0.742314 0.227757
vt 0.760325 0.255195
vt 0.734850 0.369863
vt 0.775586 0.293980
vt 0.733460 0.660820
vt 0.803367 0.197851
vt 0.779549 0.248646
vt 0.799121 0.157874
vt 0.819717 0.126382
vt 0.451943 0.056075
vt 0.446428 0.127598
vt 0.503382 0.245107
vt 0.094300 0.509871
vt 0.877089 0.469857
vt 0.856622 0.420027
vt 0.113670 0.355359
vt 0.013539 0.706772
vt 0.041350 0.720601
vt 0.118941 0.781332
vt 0.267046 0.761802
vt 0.361738 0.768687
vt 0.749778 0.751208
vt 0.712959 0.779295
vt 0.780160 0.632666
vt 0.788430 0.582887
vt 0.650751 0.293588
vt 0.609736 0.238539
vt 0.651901 0.240321
vt 0.570034 0.603781
vt 0.395627 0.560784
vt 0.640531 0.514784
vt 0.916749 0.372782
vt 0.913163 0.534527
vt 0.671272 0.220749
vt 0.428984 0.110050
vt 0.457573 0.275988
vt 0.464109 0.231568
vt 0.832325 0.141388
vt 0.442349 0.181126
vt 0.122463 0.886868
vt 0.154274 0.834169
vt 0.154274 0.933967
vt 0.916749 0.611123
vt 0.942892 0.553930
vt 0.942513 0.626141
vt 0.942892 0.714136
vt 0.652023 0.365505
vt 0.662971 0.511429
vt 0.001158 0.754171
vt 0.078104 0.879653
vt 0.082864 0.927564
vt 0.057073 0.924818
vt 0.106483 0.932974
vt 0.056905 0.798232
vt 0.208528 0.834169
vt 0.135283 0.817082
vt 0.286330 0.834169
vt 0.308622 0.825190
vt 0.713882 0.821973
vt 0.758158 0.807209
vt 0.344447 0.811093
vt 0.786078 0.749383
vt 0.801420 0.652117
vt 0.827499 0.749742
vt 0.384887 0.630246
vt 0.400269 0.727569
vt 0.650623 0.790701
vt 0.662341 0.643428
vt 0.696520 0.660734
vt 0.712959 0.746325
vt 0.082864 0.903903
vt 0.000000 0.796359
vt 0.028807 0.911032
vt 0.056921 0.899978
vt 0.051105 0.872905
vt 0.082864 0.846061
vt 0.880440 0.028632
vt 0.965605 0.038693
vt 0.856421 0.085041
vt 0.916687 0.186434
vt 0.893073 0.156086
vt 0.905188 0.000000
vt 0.204061 0.941238
vt 0.154274 0.893402
vt 0.204061 0.834169
vt 0.949438 0.178546
vt 0.973448 0.185303
vt 0.770237 0.821973
vt 0.768428 0.941155
vt 0.755044 0.879852
vt 0.832325 0.887086
vt 1.000000 0.108408
vt 0.988470 0.213654
vt 0.230152 0.861346
vt 0.248578 0.834169
vt 0.248578 0.875384
vt 0.832325 0.824815
vt 0.751910 0.821973
vt 0.755044 0.858469
vt 0.713262 0.861190
vt 0.755044 0.912853
vt 0.792887 0.821176
vt 1.000000 0.372782
vt 0.948707 0.267327
vt 0.999699 0.287128
vt 0.960330 0.368573
vt 0.361738 0.728228
vt 0.370460 0.789635
vt 0.832325 0.810039
vt 0.407831 0.810229
vt 0.574382 0.839851
vt 0.702563 0.791035
vt 0.626116 0.835864
vt 0.664333 0.831265
vt 0.048027 0.834169
vt 0.012512 0.876950
vt 0.000000 0.836612
vt 0.847083 0.054363
vt 0.832325 0.115240
vt 0.840653 0.074415
vt 0.896978 0.180724
vt 0.936843 0.196229
vt 0.888431 0.204744
vt 0.923489 0.210169
vt 0.837803 0.166415
vt 0.958542 0.202644
vt 0.328382 0.834169
vt 0.361738 0.919813
vt 0.318433 0.919813
vt 0.925056 0.359063
vt 0.893264 0.326486
vt 0.681510 0.837429
vn 0.5697 0.8189 0.0694
vn 0.5091 0.8581 -0.0669
vn 0.5700 0.8150 0.1049
vn 0.1764 0.9684 -0.1764
vn 0.2836 0.9388 0.1954
vn -0.5776 0.7903 0.2045
vn -0.4922 0.8169 0.3007
vn -0.4143 0.9101 0.0098
vn 0.7151 0.6919 -0.0999
vn 0.7312 0.6558 0.1878
vn 0.7687 0.6396 -0.0034
vn 0.5725 0.5858 -0.5737
vn 0.1847 0.4544 -0.8715
vn 0.1384 0.5181 -0.8441
vn 0.5326 0.5726 -0.6233
vn 0.1582 0.4668 -0.8701
vn 0.3638 0.9173 0.1623
vn 0.7226 0.6683 0.1767
vn 0.7323 0.6167 0.2888
vn 0.5481 0.3724 0.7490
vn 0.3921 0.5818 0.7125
vn 0.0446 0.4947 -0.8679
vn -0.4496 0.8763 -0.1730
vn -0.5622 0.8261 0.0388
vn -0.9896 -0.1027 0.1011
vn -0.9547 -0.0187 -0.2970
vn -0.9065 0.4161 0.0716
vn -0.5643 0.8246 0.0400
vn -0.8492 0.3436 -0.4011
vn -0.9796 0.0264 0.1994
vn -0.9657 0.0380 0.2569
vn 0.5737 0.5465 -0.6101
vn 0.6457 0.7635 0.0079
vn 0.7229 0.6232 -0.2984
vn 0.5957 0.7733 0.2169
vn 0.6244 0.4656 -0.6272
vn 0.3856 0.2822 -0.8784
vn 0.1239 0.3943 -0.9106
vn 0.5192 0.4777 -0.7087
vn 0.1403 0.5023 -0.8533
vn 0.1187 0.4508 -0.8847
vn 0.2106 0.5728 -0.7922
vn -0.5388 -0.3343 -0.7733
vn -0.7950 -0.0405 -0.6052
vn 0.0496 0.2514 0.9666
vn -0.1432 0.3149 0.9383
vn 0.6108 0.5943 0.5231
vn 0.5790 0.5611 0.5915
vn 0.8408 0.1638 0.5160
vn 0.5270 0.5698 0.6306
vn 0.5324 0.2091 0.8202
vn 0.5719 0.1583 0.8049
vn 0.5593 0.3986 0.7268
vn 0.2463 -0.0341 0.9686
vn -0.8833 0.3560 -0.3051
vn -0.9028 -0.3886 -0.1843
vn -0.7350 -0.5938 -0.3273
vn -0.5910 -0.7719 0.2342
vn -0.7191 -0.6867 0.1060
vn -0.8547 -0.4810 0.1951
vn -0.9402 -0.2943 0.1713
vn -0.8944 -0.4374 0.0939
vn -0.9421 0.2857 0.1758
vn -0.5333 0.1586 0.8310
vn -0.7690 -0.0368 -0.6382
vn -0.9153 -0.3891 -0.1035
vn -0.9287 -0.3653 -0.0633
vn 0.4453 0.7027 -0.5549
vn 0.6089 0.7816 -0.1355
vn 0.5316 0.6274 -0.5690
vn 0.4360 0.7003 -0.5652
vn 0.6458 0.7573 -0.0969
vn 0.6570 0.7291 0.1920
vn 0.5662 0.6306 0.5309
vn 0.5441 0.6178 0.5677
vn -0.3273 -0.0460 -0.9438
vn 0.0830 0.0758 -0.9937
vn 0.3681 -0.4782 -0.7974
vn 0.1361 -0.4515 -0.8818
vn 0.3112 -0.5157 -0.7983
vn -0.1987 -0.3016 -0.9325
vn -0.1131 -0.5666 -0.8162
vn -0.5387 -0.2719 -0.7974
vn -0.6534 -0.7467 -0.1247
vn -0.6570 -0.7445 -0.1186
vn 0.2535 0.0571 0.9656
vn -0.5528 -0.3669 0.7482
vn -0.6510 -0.2661 0.7109
vn 0.0534 -0.2127 0.9757
vn 0.0754 0.0367 0.9965
vn -0.0099 -0.3193 0.9476
vn 0.5647 -0.0478 0.8239
vn 0.3268 -0.3384 0.8824
vn 0.4421 -0.4291 0.7877
vn 0.0168 -0.6239 0.7814
vn 0.0289 0.1578 0.9870
vn 0.2032 0.1100 0.9729
vn 0.2524 0.0610 0.9657
vn 0.4759 -0.3076 0.8239
vn -0.8732 -0.4750 0.1090
vn -0.5558 -0.8285 0.0679
vn -0.4858 -0.8723 -0.0552
vn -0.4268 -0.9029 0.0509
vn -0.3962 -0.9151 -0.0752
vn -0.3310 -0.9385 -0.0981
vn -0.5647 -0.4003 0.7217
vn 0.4553 0.7361 -0.5008
vn -0.0085 0.3415 -0.9398
vn 0.0586 0.5397 -0.8398
vn 0.0482 0.7472 -0.6628
vn 0.3769 0.7894 -0.4845
vn 0.4855 0.8259 -0.2866
vn 0.5648 0.8237 -0.0503
vn -0.1230 0.2885 -0.9496
vn 0.5802 0.7509 0.3153
vn 0.5204 0.8478 -0.1026
vn 0.5936 0.6932 0.4088
vn 0.4848 0.6160 0.6209
vn 0.4456 0.5213 0.7278
vn 0.0652 0.2542 0.9650
vn 0.0834 0.2041 0.9754
vn 0.0656 0.0224 0.9976
vn -0.6723 -0.6614 -0.3325
vn -0.7447 -0.6497 0.1524
vn -0.6413 -0.7591 -0.1119
vn -0.4645 -0.8808 -0.0913
vn -0.7451 -0.6550 -0.1260
vn -0.3511 -0.0711 -0.9336
vn 0.1979 -0.9213 -0.3346
vn -0.3406 -0.9359 -0.0897
vn -0.0296 -0.9772 -0.2101
vn -0.3595 -0.7454 0.5614
vn -0.1570 -0.3790 0.9120
vn -0.6213 -0.6730 0.4013
vn -0.5479 -0.7953 0.2592
vn -0.0324 -0.6697 0.7419
vn -0.2311 -0.9717 0.0482
vn -0.1438 -0.9577 0.2492
vn 0.0264 -0.7511 0.6596
vn -0.3504 -0.7021 0.6199
vn -0.4648 0.2490 -0.8497
vn -0.1870 0.4275 -0.8845
vn -0.1271 0.3158 -0.9403
vn -0.6498 -0.3380 -0.6808
vn 0.1878 0.5860 -0.7882
vn -0.2338 0.2994 -0.9250
vn -0.4421 0.3214 -0.8374
vn 0.5999 0.6338 -0.4883
vn 0.4860 0.4893 -0.7242
vn 0.6406 0.7604 -0.1070
vn 0.7687 0.5753 -0.2793
vn 0.7472 0.4856 -0.4538
vn 0.7927 0.6021 0.0952
vn 0.6714 0.6307 0.3891
vn 0.7602 0.6029 0.2422
vn 0.7353 0.2091 0.6446
vn 0.7731 0.3429 0.5337
vn 0.5557 0.2833 0.7816
vn 0.1878 -0.0702 0.9797
vn -0.0062 0.1158 0.9933
vn -0.1993 -0.2586 0.9452
vn -0.3548 -0.2443 0.9025
vn -0.3255 -0.2305 0.9170
vn -0.7689 -0.6211 0.1521
vn -0.8955 -0.3664 0.2527
vn -0.8542 -0.5137 0.0800
vn -0.7897 -0.6134 0.0056
vn -0.8936 -0.4481 -0.0265
vn -0.7385 -0.2436 -0.6287
vn -0.7325 -0.2165 -0.6454
vn -0.8022 0.0213 -0.5966
vn -0.6349 0.1298 -0.7616
vn 0.5070 0.4062 -0.7603
vn 0.0599 0.1820 -0.9815
vn -0.2185 0.2727 -0.9369
vn -0.2493 -0.1032 -0.9629
vn -0.4741 -0.2994 -0.8280
vn 0.7995 -0.5770 -0.1668
vn 0.7430 -0.6680 -0.0413
vn 0.7929 -0.4877 -0.3654
vn 0.3207 -0.9335 -0.1604
vn 0.8330 -0.5383 0.1278
vn 0.5249 -0.8417 -0.1267
vn 0.8132 -0.5810 0.0343
vn 0.2006 -0.9604 -0.1932
vn 0.1251 -0.9759 -0.1789
vn 0.5528 -0.8318 0.0498
vn 0.3181 -0.9439 0.0883
vn 0.1617 -0.9550 -0.2486
vn 0.2997 -0.9443 -0.1356
vn 0.4003 -0.8881 -0.2258
vn 0.0811 -0.4078 0.9095
vn 0.5628 -0.8027 -0.1974
vn 0.8961 -0.2232 -0.3837
vn -0.0355 -0.4925 0.8696
vn -0.6288 -0.4304 0.6475
vn -0.4116 -0.7045 0.5782
vn -0.0430 -0.5145 0.8564
vn -0.4219 -0.7726 0.4745
vn -0.6055 -0.7891 0.1035
vn -0.6553 -0.7508 0.0828
vn -0.7322 -0.5254 -0.4333
vn -0.5289 -0.8441 -0.0880
vn -0.8812 -0.4080 -0.2390
vn -0.4294 -0.7572 -0.4922
vn -0.4048 -0.8058 -0.4322
vn -0.4771 -0.3376 -0.8114
vn -0.1752 -0.5326 -0.8280
vn 0.0665 -0.4323 -0.8993
vn 0.4824 -0.3370 -0.8085
vn -0.2182 -0.5833 -0.7824
vn 0.9426 -0.3298 0.0531
vn 0.9559 -0.2847 0.0720
vn 0.8311 -0.4959 -0.2516
vn 0.6573 -0.7512 0.0605
vn 0.9454 -0.1603 -0.2837
vn 0.7212 -0.5242 -0.4529
vn 0.8962 -0.0400 -0.4418
vn 0.9897 0.0430 -0.1362
vn 0.6320 -0.7671 -0.1103
vn 0.9771 0.0457 -0.2077
vn 0.9677 0.0503 -0.2469
vn 0.4665 -0.8814 0.0745
vn 0.5734 -0.8185 -0.0363
vn 0.9478 -0.2957 -0.1195
vn 0.5919 -0.7388 -0.3223
vn 0.6404 -0.7198 -0.2679
vn 0.5692 -0.7152 -0.4056
vn 0.9840 -0.1654 -0.0657
vn 0.9372 -0.2589 -0.2337
vn 0.9429 -0.3251 -0.0720
vn 0.6310 -0.7677 -0.1121
vn 0.9720 -0.2018 -0.1206
vn 0.9978 0.0100 -0.0662
vn 0.9389 0.1002 -0.3293
vn -0.3694 -0.7485 -0.5507
usemtl Material_with_Texture.786
s off
f 1/1/1 2/2/1 3/3/1
f 3/3/2 4/4/2 1/1/2
f 5/5/3 2/2/3 1/1/3
f 4/4/4 6/6/4 1/1/4
f 5/5/5 1/1/5 7/7/5
f 1/8/6 8/9/6 7/10/6
f 1/8/7 9/11/7 8/9/7
f 1/8/8 6/12/8 9/11/8
f 2/2/9 10/13/9 3/3/9
f 11/14/10 2/2/10 5/5/10
f 2/2/11 11/14/11 10/13/11
f 12/15/12 3/3/12 13/16/12
f 4/4/13 3/3/13 14/17/13
f 14/17/14 3/3/14 12/15/14
f 13/16/15 3/3/15 10/13/15
f 14/17/16 6/6/16 4/4/16
f 7/7/17 15/18/17 5/5/17
f 5/5/18 16/19/18 11/14/18
f 16/19/19 5/5/19 17/20/19
f 17/21/20 5/22/20 18/23/20
f 5/22/21 15/24/21 18/23/21
f 14/17/22 19/25/22 6/6/22
f 6/12/23 19/26/23 9/11/23
f 15/27/24 7/10/24 8/9/24
f 20/28/25 8/29/25 9/30/25
f 20/28/26 21/31/26 8/29/26
f 22/32/27 8/9/27 21/33/27
f 22/32/28 15/27/28 8/9/28
f 9/11/29 19/26/29 23/34/29
f 24/35/30 9/30/30 23/36/30
f 20/28/31 9/30/31 24/35/31
f 25/37/32 13/16/32 10/13/32
f 10/13/33 11/14/33 26/38/33
f 26/38/34 25/37/34 10/13/34
f 11/14/35 16/19/35 26/38/35
f 13/16/36 27/39/36 12/15/36
f 28/40/37 12/41/37 27/42/37
f 14/43/38 12/41/38 28/40/38
f 27/39/39 13/16/39 25/37/39
f 14/17/40 29/44/40 19/25/40
f 14/45/41 30/46/41 31/47/41
f 14/45/42 28/48/42 30/46/42
f 31/49/43 32/50/43 14/43/43
f 29/51/44 14/52/44 32/53/44
f 22/54/45 33/55/45 15/24/45
f 15/24/46 33/55/46 18/23/46
f 34/56/47 26/38/47 16/19/47
f 16/19/48 35/57/48 34/56/48
f 16/58/49 17/59/49 36/60/49
f 36/61/50 35/57/50 16/19/50
f 17/21/51 37/62/51 38/63/51
f 36/64/52 17/21/52 38/63/52
f 17/21/53 18/23/53 37/62/53
f 18/23/54 33/55/54 37/62/54
f 19/26/55 29/65/55 23/34/55
f 20/28/56 39/66/56 21/31/56
f 40/67/57 39/66/57 20/28/57
f 41/68/58 20/28/58 42/69/58
f 41/68/59 40/67/59 20/28/59
f 20/28/60 24/35/60 42/69/60
f 21/31/61 43/70/61 44/71/61
f 39/66/62 43/70/62 21/31/62
f 22/32/63 21/33/63 44/72/63
f 33/55/64 22/54/64 44/73/64
f 29/51/65 32/53/65 23/36/65
f 42/69/66 23/36/66 32/53/66
f 23/36/67 42/69/67 24/35/67
f 45/74/68 25/37/68 46/75/68
f 25/37/69 26/38/69 46/75/69
f 25/37/70 47/76/70 27/39/70
f 25/37/71 45/74/71 47/76/71
f 48/77/72 46/75/72 26/38/72
f 48/77/73 26/38/73 49/78/73
f 50/79/74 26/38/74 34/56/74
f 50/79/75 49/78/75 26/38/75
f 27/42/76 51/80/76 52/81/76
f 51/80/77 27/42/77 47/82/77
f 27/42/78 52/81/78 28/40/78
f 30/83/79 28/40/79 53/84/79
f 53/84/80 28/40/80 52/81/80
f 54/85/81 31/49/81 30/83/81
f 53/84/82 54/85/82 30/83/82
f 54/85/83 32/50/83 31/49/83
f 32/53/84 41/68/84 42/69/84
f 41/68/85 32/53/85 54/86/85
f 55/87/86 37/62/86 33/55/86
f 33/88/87 43/70/87 55/89/87
f 43/70/88 33/88/88 44/71/88
f 35/90/89 56/91/89 34/92/89
f 34/92/90 57/93/90 50/94/90
f 56/91/91 57/93/91 34/92/91
f 35/90/92 36/64/92 56/91/92
f 36/64/93 38/63/93 58/95/93
f 36/64/94 58/95/94 59/96/94
f 56/91/95 36/64/95 59/96/95
f 60/97/96 38/63/96 37/62/96
f 60/97/97 37/62/97 61/98/97
f 61/98/98 37/62/98 55/87/98
f 60/97/99 58/95/99 38/63/99
f 62/99/100 43/70/100 39/66/100
f 39/66/101 63/100/101 62/99/101
f 39/66/102 40/67/102 63/100/102
f 64/101/103 40/67/103 41/68/103
f 63/100/104 40/67/104 64/101/104
f 64/101/105 41/68/105 54/86/105
f 43/70/106 62/99/106 55/89/106
f 45/74/107 46/75/107 65/102/107
f 66/103/108 47/82/108 45/104/108
f 65/102/109 66/105/109 45/74/109
f 67/106/110 46/75/110 68/107/110
f 65/102/111 46/75/111 67/106/111
f 69/108/112 68/107/112 46/75/112
f 69/108/113 46/75/113 48/77/113
f 47/82/114 66/103/114 51/80/114
f 48/77/115 49/78/115 70/109/115
f 48/77/116 70/109/116 69/108/116
f 70/109/117 49/78/117 71/110/117
f 71/110/118 49/78/118 50/79/118
f 72/111/119 71/112/119 50/94/119
f 73/113/120 72/111/120 50/94/120
f 74/114/121 73/113/121 50/94/121
f 50/94/122 57/93/122 74/114/122
f 51/115/123 75/116/123 52/117/123
f 76/118/124 74/119/124 51/115/124
f 51/115/125 74/119/125 64/101/125
f 64/101/126 75/116/126 51/115/126
f 77/120/127 76/118/127 51/115/127
f 51/80/128 66/103/128 77/121/128
f 75/122/129 53/84/129 52/81/129
f 54/86/130 53/123/130 64/101/130
f 53/123/131 75/116/131 64/101/131
f 62/99/132 61/124/132 55/89/132
f 56/91/133 59/96/133 57/93/133
f 64/101/134 74/119/134 57/125/134
f 64/101/135 57/125/135 59/126/135
f 60/97/136 63/127/136 58/95/136
f 63/100/137 59/126/137 58/128/137
f 59/126/138 63/100/138 64/101/138
f 60/97/139 61/98/139 63/127/139
f 61/124/140 62/99/140 63/100/140
f 78/129/141 65/130/141 67/131/141
f 65/132/142 78/133/142 79/134/142
f 65/132/143 79/134/143 66/135/143
f 66/136/144 79/137/144 77/120/144
f 80/138/145 67/106/145 68/107/145
f 81/139/146 67/140/146 80/141/146
f 81/142/147 78/129/147 67/131/147
f 68/107/148 69/108/148 82/143/148
f 80/138/149 68/107/149 82/143/149
f 83/144/150 69/108/150 70/109/150
f 83/144/151 84/145/151 69/108/151
f 82/143/152 69/108/152 84/145/152
f 85/146/153 83/144/153 70/109/153
f 70/109/154 71/110/154 86/147/154
f 85/146/155 70/109/155 86/147/155
f 87/148/156 71/112/156 88/149/156
f 71/110/157 87/150/157 86/147/157
f 71/112/158 72/111/158 88/149/158
f 89/151/159 88/149/159 72/111/159
f 89/151/160 72/111/160 73/113/160
f 73/113/161 74/114/161 90/152/161
f 90/152/162 91/153/162 73/113/162
f 91/153/163 89/151/163 73/113/163
f 76/118/164 90/154/164 74/119/164
f 92/155/165 90/154/165 76/118/165
f 92/155/166 76/118/166 93/156/166
f 77/120/167 94/157/167 76/118/167
f 76/118/168 94/157/168 93/156/168
f 77/120/169 79/137/169 78/158/169
f 78/158/170 94/157/170 77/120/170
f 94/157/171 78/158/171 95/159/171
f 95/160/172 78/129/172 81/142/172
f 96/161/173 80/138/173 82/143/173
f 80/141/174 96/162/174 97/163/174
f 97/163/175 81/139/175 80/141/175
f 98/164/176 81/139/176 97/163/176
f 95/165/177 81/139/177 98/164/177
f 99/166/178 82/167/178 100/168/178
f 101/169/179 102/170/179 82/167/179
f 96/171/180 82/167/180 99/166/180
f 82/172/181 84/173/181 103/174/181
f 100/168/182 82/167/182 102/170/182
f 104/175/183 82/167/183 103/176/183
f 82/167/184 104/175/184 101/169/184
f 85/177/185 84/178/185 83/179/185
f 85/177/186 105/180/186 84/178/186
f 84/181/187 105/182/187 103/176/187
f 86/183/188 106/184/188 85/185/188
f 85/177/189 106/186/189 105/180/189
f 86/187/190 87/188/190 106/189/190
f 87/188/191 88/190/191 106/189/191
f 107/191/192 88/149/192 89/151/192
f 88/192/193 108/193/193 106/194/193
f 88/192/194 107/195/194 108/193/194
f 89/151/195 91/153/195 107/191/195
f 91/196/196 90/154/196 92/155/196
f 91/196/197 92/155/197 109/197/197
f 107/191/198 91/153/198 109/198/198
f 110/199/199 109/197/199 92/155/199
f 92/155/200 111/200/200 110/199/200
f 93/156/201 111/200/201 92/155/201
f 95/159/202 112/201/202 93/156/202
f 111/200/203 93/156/203 113/202/203
f 93/156/204 94/157/204 95/159/204
f 114/203/205 93/156/205 112/201/205
f 93/156/206 114/203/206 113/202/206
f 112/204/207 95/165/207 98/164/207
f 99/205/208 97/163/208 96/162/208
f 99/205/209 115/206/209 97/163/209
f 115/206/210 98/164/210 97/163/210
f 115/206/211 112/204/211 98/164/211
f 115/207/212 99/166/212 100/168/212
f 100/168/213 102/170/213 113/208/213
f 114/209/214 100/168/214 113/208/214
f 100/168/215 114/209/215 115/207/215
f 101/169/216 116/210/216 102/170/216
f 117/211/217 101/169/217 104/175/217
f 101/169/218 118/212/218 116/210/218
f 118/212/219 101/169/219 119/213/219
f 117/211/220 119/213/220 101/169/220
f 102/170/221 111/214/221 113/208/221
f 111/214/222 102/170/222 116/210/222
f 104/175/223 103/176/223 105/182/223
f 105/182/224 120/215/224 104/175/224
f 117/211/225 104/175/225 120/215/225
f 105/182/226 106/194/226 108/193/226
f 120/215/227 105/182/227 108/193/227
f 108/216/228 107/217/228 109/218/228
f 108/193/229 109/219/229 110/220/229
f 119/213/230 108/193/230 110/220/230
f 117/211/231 120/215/231 108/193/231
f 117/211/232 108/193/232 119/213/232
f 118/212/233 110/220/233 111/214/233
f 119/213/234 110/220/234 118/212/234
f 118/212/235 111/214/235 116/210/235
f 112/201/236 115/221/236 114/203/236
