# Blender v3.5.0 OBJ File: ''
# www.blender.org
mtllib pisiform_lvs.mtl
o pisiform_lvs.vtp_pisiform_lvs.vtp.009
v 0.006563 -0.008432 -0.026074
v 0.004025 -0.010821 -0.025805
v 0.006025 -0.011087 -0.026877
v 0.008373 -0.009841 -0.026966
v 0.002161 -0.009758 -0.025320
v 0.001440 -0.007377 -0.023499
v 0.007672 -0.006837 -0.025205
v 0.002976 -0.012780 -0.025374
v 0.006856 -0.013298 -0.026956
v 0.008917 -0.007862 -0.025656
v 0.009679 -0.013579 -0.026831
v 0.010479 -0.010566 -0.026051
v 0.003715 -0.015198 -0.020397
v 0.006499 -0.005626 -0.022297
v 0.001767 -0.006394 -0.020584
v 0.008430 -0.007049 -0.025186
v 0.004647 -0.017995 -0.024424
v 0.005401 -0.018710 -0.024596
v 0.011129 -0.011699 -0.023587
v 0.007194 -0.019645 -0.023202
v 0.012078 -0.014729 -0.024456
v 0.005385 -0.018720 -0.022524
v 0.003537 -0.009196 -0.018351
v 0.005959 -0.014570 -0.017626
v 0.006032 -0.018178 -0.020312
v 0.009118 -0.008541 -0.021620
v 0.007386 -0.008732 -0.019803
v 0.012292 -0.014974 -0.022050
v 0.011253 -0.012746 -0.021015
v 0.007783 -0.019071 -0.020933
v 0.010719 -0.017318 -0.021035
v 0.010038 -0.012272 -0.020017
v 0.006931 -0.016271 -0.018140
v 0.010497 -0.016841 -0.020255
vt 0.868820 0.466256
vt 0.739055 0.404621
vt 0.822629 0.376869
vt 0.930210 0.395214
vt 0.674542 0.466256
vt 0.796941 0.484676
vt 0.857272 0.719567
vt 0.789898 0.753435
vt 0.893056 0.535510
vt 0.893056 0.803535
vt 0.671669 0.338885
vt 0.830054 0.280933
vt 0.809197 0.809554
vt 0.936864 0.232135
vt 0.997717 0.332164
vt 0.964940 0.454202
vt 0.669312 0.339602
vt 0.648145 0.468045
vt 0.483578 0.209689
vt 0.560462 0.561298
vt 0.674485 0.674296
vt 0.669312 0.466256
vt 0.432693 0.579165
vt 0.784556 0.784066
vt 0.661946 0.108558
vt 0.669312 0.107164
vt 0.691895 0.070987
vt 0.000000 0.260831
vt 0.095021 0.194025
vt 0.032756 0.387883
vt 0.057195 0.424591
vt 0.741052 0.000000
vt 1.000000 0.136937
vt 0.043810 0.069170
vt 0.586120 0.059649
vt 0.353115 0.432892
vt 0.350693 0.185456
vt 0.487965 0.059287
vt 0.196263 0.338155
vt 0.189620 0.498705
vt 0.350693 0.403698
vt 0.275968 0.551969
vt 0.277419 0.354778
vt 0.669312 0.070447
vt 0.607965 0.000000
vt 0.141526 0.043593
vt 0.196887 0.139859
vt 0.507672 0.001459
vt 0.251578 0.826877
vt 0.232707 0.687192
vt 0.350693 0.844178
vt 0.350693 0.551969
vt 0.252794 0.568884
vt 0.350693 0.156379
vt 0.244703 0.175279
vt 0.319149 0.078036
vt 0.378366 0.107834
vt 0.122124 0.801256
vt 0.227197 0.863791
vt 0.198485 0.687464
vt 0.215613 0.000000
vn 0.4090 -0.3391 0.8472
vn 0.2055 -0.3212 0.9244
vn 0.1970 -0.0995 0.9753
vn 0.2598 -0.5950 0.7606
vn 0.2945 -0.5227 0.8000
vn 0.0386 -0.4986 0.8660
vn 0.4660 -0.0552 0.8831
vn 0.2828 0.0592 0.9573
vn 0.3880 0.1132 0.9147
vn 0.0473 -0.0179 0.9987
vn -0.1256 -0.5234 0.8428
vn -0.0421 0.0214 0.9989
vn -0.4295 -0.1177 0.8953
vn -0.4766 -0.3904 0.7877
vn 0.9653 0.2606 -0.0167
vn 0.9591 0.2829 0.0099
vn 0.1972 -0.8743 0.4436
vn 0.2528 -0.9250 0.2836
vn 0.9615 0.2090 -0.1783
vn -0.1797 -0.5708 0.8012
vn -0.2652 -0.9234 0.2776
vn 0.9519 0.3064 0.0075
vn 0.4756 0.3028 0.8259
vn 0.3943 0.2762 0.8765
vn -0.0008 0.3999 0.9166
vn -0.8660 -0.5000 -0.0015
vn -0.8621 -0.5064 -0.0174
vn -0.2927 0.5764 0.7630
vn -0.4106 0.5861 0.6985
vn -0.7029 0.0025 0.7113
vn -0.9410 -0.3233 0.0996
vn 0.8574 0.4939 -0.1446
vn 0.7269 0.2408 -0.6432
vn 0.7426 0.5672 -0.3562
vn 0.6297 0.4720 -0.6169
vn 0.8690 0.1825 -0.4598
vn -0.7189 -0.6797 -0.1457
vn -0.1527 -0.6731 -0.7236
vn -0.1994 -0.6475 -0.7355
vn -0.5368 -0.6161 -0.5764
vn -0.8562 -0.5142 -0.0499
vn 0.6891 0.7246 0.0088
vn 0.4576 0.8891 0.0078
vn -0.9486 -0.3122 0.0526
vn -0.9194 -0.3779 -0.1095
vn -0.8733 -0.4645 -0.1470
vn 0.3356 0.8876 -0.3156
vn 0.3411 0.8864 -0.3128
vn -0.5130 0.8544 -0.0830
vn -0.6434 0.7114 0.2828
vn -0.7960 0.5909 0.1310
vn -0.3124 -0.2639 -0.9125
vn -0.3884 -0.2371 -0.8905
vn -0.4965 -0.0215 -0.8678
vn 0.5382 0.5103 -0.6708
vn 0.1246 0.7195 -0.6833
vn -0.6295 -0.4325 -0.6455
vn -0.6676 -0.4267 -0.6101
vn -0.8194 0.3549 -0.4502
vn -0.7067 -0.0009 -0.7076
vn -0.6402 -0.0243 -0.7678
vn -0.3268 0.6157 -0.7170
vn -0.4402 0.7048 -0.5563
vn -0.5109 -0.0065 -0.8596
usemtl Material_with_Texture.816
s off
f 1/1/1 2/2/1 3/3/1
f 3/3/2 4/4/2 1/1/2
f 5/5/3 2/2/3 1/1/3
f 6/6/4 1/7/4 7/8/4
f 1/7/5 6/6/5 5/9/5
f 7/8/6 1/7/6 4/10/6
f 2/2/7 8/11/7 3/3/7
f 8/11/8 2/2/8 5/5/8
f 8/11/9 9/12/9 3/3/9
f 9/12/10 4/4/10 3/3/10
f 4/10/11 10/13/11 7/8/11
f 4/4/12 9/12/12 11/14/12
f 4/4/13 11/14/13 12/15/13
f 10/16/14 4/4/14 12/15/14
f 8/17/15 5/18/15 13/19/15
f 13/19/16 5/18/16 6/20/16
f 14/21/17 6/6/17 7/8/17
f 6/6/18 14/21/18 15/22/18
f 6/20/19 15/23/19 13/19/19
f 16/24/20 7/8/20 10/13/20
f 7/8/21 16/24/21 14/21/21
f 8/17/22 13/19/22 17/25/22
f 8/11/23 17/26/23 18/27/23
f 9/12/24 8/11/24 18/27/24
f 18/27/25 11/14/25 9/12/25
f 12/28/26 19/29/26 10/30/26
f 10/30/27 19/29/27 16/31/27
f 20/32/28 11/14/28 18/27/28
f 20/32/29 21/33/29 11/14/29
f 11/14/30 21/33/30 12/15/30
f 19/29/31 12/28/31 21/34/31
f 13/19/32 22/35/32 17/25/32
f 23/36/33 24/37/33 13/19/33
f 13/19/34 25/38/34 22/35/34
f 24/37/35 25/38/35 13/19/35
f 13/19/36 15/23/36 23/36/36
f 26/39/37 14/40/37 16/31/37
f 14/40/38 23/41/38 15/42/38
f 23/41/39 14/40/39 27/43/39
f 27/43/40 14/40/40 26/39/40
f 16/31/41 19/29/41 26/39/41
f 22/35/42 18/44/42 17/25/42
f 22/35/43 20/45/43 18/44/43
f 28/46/44 19/29/44 21/34/44
f 19/29/45 28/46/45 29/47/45
f 26/39/46 19/29/46 29/47/46
f 25/38/47 20/45/47 22/35/47
f 25/38/48 30/48/48 20/45/48
f 30/49/49 31/50/49 20/51/49
f 31/50/50 21/52/50 20/51/50
f 21/52/51 31/50/51 28/53/51
f 27/43/52 24/54/52 23/41/52
f 32/55/53 24/54/53 27/43/53
f 32/55/54 33/56/54 24/54/54
f 24/37/55 33/57/55 25/38/55
f 33/58/56 30/49/56 25/59/56
f 26/39/57 32/55/57 27/43/57
f 32/55/58 26/39/58 29/47/58
f 31/50/59 34/60/59 28/53/59
f 34/61/60 29/47/60 28/46/60
f 34/61/61 32/55/61 29/47/61
f 33/58/62 34/60/62 30/49/62
f 31/50/63 30/49/63 34/60/63
f 33/56/64 32/55/64 34/61/64
