# Blender v3.5.0 OBJ File: ''
# www.blender.org
mtllib r_fibula.mtl
o r_fibula.vtp_r_fibula.vtp.009
v -0.016014 -0.400747 -0.020869
v -0.021024 -0.407066 -0.021717
v -0.021445 -0.399877 -0.018225
v -0.019393 -0.392631 -0.014918
v -0.015249 -0.392526 -0.014196
v -0.009856 -0.395169 -0.014426
v -0.004985 -0.397859 -0.018958
v -0.010007 -0.401116 -0.023805
v -0.014948 -0.404321 -0.022692
v -0.016224 -0.404354 -0.022915
v -0.018448 -0.405716 -0.023461
v -0.021767 -0.397634 -0.021885
v -0.024712 -0.391143 -0.016799
v -0.021048 -0.396184 -0.025984
v -0.022529 -0.384512 -0.009429
v -0.014559 -0.384309 -0.008040
v -0.007083 -0.385299 -0.011405
v -0.002937 -0.386399 -0.018647
v -0.006381 -0.390453 -0.025794
v -0.012243 -0.394525 -0.028327
v -0.017344 -0.394655 -0.029216
v -0.025901 -0.386656 -0.022650
v -0.024268 -0.380218 -0.017235
v -0.024630 -0.387497 -0.029535
v -0.020215 -0.373741 -0.014378
v -0.018312 -0.388206 -0.034973
v -0.015591 -0.373623 -0.013572
v -0.012445 -0.370804 -0.016695
v -0.012152 -0.368056 -0.020328
v -0.008093 -0.377941 -0.025205
v -0.009705 -0.387987 -0.033474
v -0.024001 -0.369007 -0.022390
v -0.023001 -0.364387 -0.018172
v -0.024380 -0.375103 -0.029073
v -0.019938 -0.359729 -0.015651
v -0.018595 -0.381049 -0.035811
v -0.016112 -0.359632 -0.014985
v -0.009508 -0.380818 -0.034228
v -0.013294 -0.346871 -0.017175
v -0.012448 -0.334167 -0.020516
v -0.007996 -0.357408 -0.025663
v -0.022430 -0.359191 -0.022156
v -0.022110 -0.342698 -0.019041
v -0.021893 -0.368502 -0.026399
v -0.020130 -0.326175 -0.017084
v -0.017861 -0.377726 -0.030133
v -0.017099 -0.326098 -0.016556
v -0.012281 -0.377584 -0.029161
v -0.015421 -0.280931 -0.018281
v -0.011918 -0.306649 -0.024754
v -0.015063 -0.235804 -0.021370
v -0.026907 -0.301616 -0.023169
v -0.026074 -0.280371 -0.018344
v -0.022541 -0.330059 -0.026434
v -0.022839 -0.259085 -0.015552
v -0.017768 -0.358463 -0.026402
v -0.018376 -0.258971 -0.014774
v -0.014579 -0.358382 -0.025846
v -0.017273 -0.199821 -0.018853
v -0.015992 -0.249537 -0.023898
v -0.019406 -0.140746 -0.022511
v -0.029507 -0.236171 -0.023887
v -0.028865 -0.208081 -0.018419
v -0.023829 -0.264904 -0.026687
v -0.025349 -0.179939 -0.015045
v -0.019062 -0.293623 -0.025120
v -0.020089 -0.179805 -0.014129
v -0.016991 -0.293570 -0.024759
v -0.017154 -0.143912 -0.017809
v -0.016689 -0.200832 -0.024529
v -0.017350 -0.108102 -0.022285
v -0.030671 -0.187638 -0.024286
v -0.029561 -0.159376 -0.019050
v -0.025748 -0.192436 -0.027471
v -0.026030 -0.131076 -0.016373
v -0.021447 -0.197214 -0.026432
v -0.021406 -0.130959 -0.015567
v -0.019055 -0.197153 -0.026015
v -0.016689 -0.106247 -0.016707
v -0.015692 -0.139383 -0.026244
v -0.013081 -0.081593 -0.021648
v -0.030310 -0.138090 -0.024423
v -0.029556 -0.110493 -0.020028
v -0.026575 -0.135090 -0.027378
v -0.026695 -0.082864 -0.017695
v -0.023009 -0.132069 -0.026967
v -0.022710 -0.082763 -0.017000
v -0.020616 -0.132008 -0.026550
v -0.015113 -0.076857 -0.014599
v -0.013188 -0.101532 -0.028227
v -0.005851 -0.070981 -0.020430
v -0.028519 -0.105125 -0.024244
v -0.029656 -0.086707 -0.020454
v -0.027165 -0.102838 -0.027455
v -0.027782 -0.068213 -0.016427
v -0.024061 -0.100497 -0.029301
v -0.022839 -0.068088 -0.015566
v -0.020394 -0.100404 -0.028662
v -0.015073 -0.063328 -0.014333
v -0.013009 -0.079532 -0.028754
v -0.006664 -0.058616 -0.020622
v -0.027306 -0.069569 -0.024176
v -0.031653 -0.067194 -0.019865
v -0.030927 -0.063842 -0.030691
v -0.030440 -0.064653 -0.011596
v -0.026523 -0.057945 -0.039763
v -0.022150 -0.064442 -0.010151
v -0.016640 -0.057694 -0.038041
v -0.016014 -0.058306 -0.015222
v -0.012541 -0.054917 -0.029474
v -0.014558 -0.052297 -0.022023
v -0.028134 -0.056553 -0.024373
v -0.029595 -0.054932 -0.021118
v -0.027706 -0.049884 -0.027138
v -0.028018 -0.053229 -0.016781
v -0.025361 -0.043164 -0.029254
v -0.023236 -0.053107 -0.015947
v -0.022013 -0.043079 -0.028671
v -0.020033 -0.050450 -0.019235
v -0.019942 -0.045453 -0.026037
v -0.019826 -0.047868 -0.022960
v -0.024375 -0.051895 -0.023737
vt 0.285530 0.210017
vt 0.297463 0.194692
vt 0.297463 0.216721
vt 0.293702 0.237979
vt 0.240393 0.965687
vt 0.240229 0.943252
vt 0.251298 0.943262
vt 0.264024 0.950903
vt 0.270028 0.958522
vt 0.285831 0.277988
vt 0.285530 0.262791
vt 0.296742 0.267544
vt 0.296742 0.281191
vt 0.291300 0.297723
vt 0.285530 0.289712
vt 0.288307 0.287734
vt 0.291300 0.281191
vt 0.288787 0.195366
vt 0.035884 0.000000
vt 0.035329 0.025826
vt 0.019150 0.043685
vt 0.026919 0.020021
vt 0.043532 0.003951
vt 0.046185 0.029568
vt 0.230499 0.962995
vt 0.224932 0.938742
vt 0.240076 0.920813
vt 0.261366 0.920828
vt 0.275348 0.923968
vt 0.193914 0.006793
vt 0.197336 0.035100
vt 0.174348 0.031995
vt 0.176517 0.000000
vt 0.319994 0.002809
vt 0.339121 0.028593
vt 0.319743 0.026230
vt 0.300067 0.002960
vt 0.298981 0.024090
vt 0.285791 0.000000
vt 0.286320 0.029944
vt 0.282623 0.001464
vt 0.278870 0.028611
vt 0.275348 0.000883
vt 0.031699 0.055344
vt 0.020829 0.073775
vt 0.050006 0.052623
vt 0.226258 0.908650
vt 0.240264 0.891149
vt 0.058927 0.034053
vt 0.071551 0.051152
vt 0.252616 0.891156
vt 0.215427 0.036318
vt 0.203299 0.064340
vt 0.191518 0.072393
vt 0.182323 0.079375
vt 0.339121 0.084985
vt 0.331801 0.058664
vt 0.308207 0.040080
vt 0.286846 0.049958
vt 0.033661 0.104216
vt 0.024830 0.117445
vt 0.049264 0.086804
vt 0.229320 0.865077
vt 0.240346 0.852514
vt 0.073219 0.070730
vt 0.250564 0.852522
vt 0.316827 0.057923
vt 0.294275 0.068353
vt 0.200367 0.102257
vt 0.191117 0.137599
vt 0.181729 0.172041
vt 0.163735 0.108763
vt 0.165293 0.052600
vt 0.145473 0.042784
vt 0.147668 0.023232
vt 0.035222 0.131482
vt 0.028184 0.177183
vt 0.046148 0.105575
vt 0.231971 0.805336
vt 0.240488 0.759983
vt 0.138074 0.930784
vt 0.130091 0.922132
vt 0.135988 0.896949
vt 0.145473 0.914856
vt 0.248584 0.759989
vt 0.298011 0.262791
vt 0.285530 0.260733
vt 0.285530 0.245497
vt 0.298011 0.237979
vt 0.197368 0.193524
vt 0.190251 0.317350
vt 0.099190 0.866739
vt 0.105580 0.726859
vt 0.114835 0.921944
vt 0.113229 0.930478
vt 0.181611 0.440467
vt 0.170367 0.246800
vt 0.226057 0.850687
vt 0.217973 0.691674
vt 0.227649 0.633308
vt 0.045491 0.211253
vt 0.031882 0.289142
vt 0.240640 0.574934
vt 0.124943 0.869373
vt 0.135660 0.790997
vt 0.252562 0.574942
vt 0.116223 0.869266
vt 0.202310 0.377254
vt 0.190065 0.538800
vt 0.112080 0.569465
vt 0.183162 0.699317
vt 0.106346 0.531860
vt 0.113629 0.269722
vt 0.215427 0.511105
vt 0.225944 0.433878
vt 0.044593 0.390317
vt 0.030357 0.468766
vt 0.240854 0.356643
vt 0.123501 0.690780
vt 0.135791 0.611403
vt 0.254904 0.356653
vt 0.117838 0.690709
vt 0.204904 0.593630
vt 0.191540 0.692078
vt 0.111961 0.435182
vt 0.276077 0.084985
vt 0.285530 0.238728
vt 0.285530 0.337853
vt 0.275348 0.248250
vt 0.180443 0.789296
vt 0.175614 0.535221
vt 0.176974 0.402178
vt 0.029924 0.602099
vt 0.018858 0.680486
vt 0.018107 0.546630
vt 0.044158 0.589362
vt 0.226961 0.299577
vt 0.241039 0.221889
vt 0.125897 0.424947
vt 0.137703 0.411599
vt 0.253390 0.221900
vt 0.119357 0.424866
vt 0.202425 0.726748
vt 0.192980 0.795514
vt 0.107987 0.265724
vt 0.175853 0.863163
vt 0.169174 0.703436
vt 0.030894 0.738477
vt 0.021381 0.814908
vt 0.043014 0.747038
vt 0.229270 0.164823
vt 0.241223 0.088930
vt 0.127022 0.245351
vt 0.136706 0.253564
vt 0.251868 0.088939
vt 0.120479 0.245270
vt 0.273936 0.073238
vt 0.265287 0.154077
vt 0.101687 0.161303
vt 0.195492 0.876775
vt 0.168958 0.894427
vt 0.160447 0.807417
vt 0.032955 0.829468
vt 0.022352 0.880305
vt 0.042517 0.835686
vt 0.230205 0.099248
vt 0.241223 0.048511
vt 0.130489 0.158126
vt 0.136599 0.164669
vt 0.254426 0.048523
vt 0.120463 0.158003
vt 0.275348 0.035960
vt 0.100627 0.100637
vt 0.195866 0.913871
vt 0.169386 0.928022
vt 0.073219 0.077944
vt 0.074844 0.043836
vt 0.034522 0.927492
vt 0.018330 0.933747
vt 0.045435 0.942139
vt 0.227470 0.045349
vt 0.241079 0.038652
vt 0.051117 0.842435
vt 0.073219 0.958241
vt 0.263224 0.038668
vt 0.118452 0.039582
vt 0.145473 0.039914
vt 0.203349 0.898478
vt 0.215427 0.909579
vt 0.194900 0.927208
vt 0.098895 0.032755
vt 0.176460 0.942896
vt 0.096112 0.026134
vt 0.033935 0.963165
vt 0.024137 0.967688
vt 0.285530 0.146288
vt 0.288740 0.105978
vt 0.295343 0.123293
vt 0.305804 0.157697
vt 0.015778 0.972988
vt 0.000000 0.941640
vt 0.049454 1.000000
vt 0.041200 0.981340
vt 0.241280 0.007188
vt 0.254055 0.007197
vt 0.121594 0.000000
vt 0.130747 0.000112
vt 0.257933 0.000000
vt 0.272282 0.022032
vt 0.113682 0.006813
vt 0.190472 0.946915
vt 0.181172 0.953403
vt 0.173870 0.959455
vt 0.155839 0.935004
vt 0.037427 0.976604
vt 0.302139 0.108501
vt 0.306270 0.157782
vt 0.305986 0.175757
vt 0.293847 0.157697
vt 0.287474 0.087260
vt 0.285530 0.167764
vt 0.296123 0.084985
vt 0.289493 0.181574
vt 0.305804 0.089415
vt 0.298459 0.188975
vt 0.306270 0.194692
vn -0.3510 0.3924 -0.8502
vn -0.3253 0.4673 -0.8221
vn 0.1196 0.6190 -0.7763
vn 0.2587 0.5941 -0.7616
vn -0.1073 0.8001 -0.5902
vn -0.1573 0.8874 -0.4333
vn -0.4003 0.3188 -0.8591
vn 0.1387 0.4825 -0.8649
vn -0.0913 0.4953 -0.8639
vn -0.6431 0.5774 -0.5030
vn 0.9762 0.2124 0.0443
vn 0.8007 0.2202 0.5571
vn 0.4085 0.4750 -0.7794
vn 0.1243 0.5882 -0.7991
vn -0.1133 0.4667 -0.8771
vn -0.7232 0.2632 -0.6386
vn -0.8563 0.2537 0.4498
vn -0.3937 0.4255 0.8148
vn -0.1592 0.5249 0.8361
vn 0.1843 0.4391 0.8793
vn 0.9839 0.1616 -0.0760
vn 0.9004 0.3939 0.1850
vn 0.9287 -0.1962 -0.3148
vn 0.5175 0.5557 0.6507
vn 0.1650 -0.4408 -0.8823
vn -0.4094 -0.4460 -0.7959
vn -0.8053 -0.4415 -0.3956
vn -0.8994 -0.3075 0.3105
vn -0.8910 0.1418 0.4312
vn -0.1469 0.6464 0.7487
vn 0.9827 -0.0962 -0.1582
vn 0.9920 -0.0735 0.1028
vn 0.6854 -0.0890 -0.7227
vn 0.7132 0.0147 0.7009
vn 0.1732 -0.0925 -0.9805
vn -0.1733 0.1077 0.9790
vn -0.5696 -0.0615 -0.8197
vn -0.9779 -0.0218 -0.2079
vn -0.7788 -0.0103 -0.6272
vn -0.9886 0.0170 0.1496
vn 0.9961 -0.0770 0.0424
vn 0.8623 -0.2870 0.4172
vn 0.7462 -0.0371 -0.6647
vn -0.1212 -0.6158 0.7785
vn 0.1724 -0.0410 -0.9842
vn -0.0671 -0.8573 0.5104
vn -0.3496 -0.0361 -0.9362
vn -0.1817 -0.1304 0.9747
vn -0.8938 -0.0311 -0.4474
vn -0.9249 -0.0404 -0.3780
vn 0.9019 0.0624 -0.4274
vn 0.9381 0.0538 0.3421
vn 0.4961 0.0405 -0.8673
vn 0.1510 -0.0617 0.9866
vn 0.1709 0.0294 -0.9849
vn -0.1640 -0.1868 0.9686
vn -0.8004 -0.0120 -0.5993
vn 0.2411 -0.0329 0.9699
vn -0.9491 -0.0364 -0.3127
vn -0.8333 -0.0451 0.5510
vn 0.9513 0.0355 -0.3063
vn 0.6139 0.0241 0.7890
vn 0.5790 0.0226 -0.8150
vn -0.2371 -0.0124 0.9714
vn 0.1713 0.0117 -0.9851
vn -0.1711 -0.0229 0.9850
vn -0.8663 -0.0040 -0.4995
vn -0.2963 -0.0120 0.9550
vn -0.8976 0.0157 0.4405
vn -0.5286 0.0046 -0.8488
vn 0.9699 0.0160 -0.2429
vn 0.5435 0.0221 0.8391
vn 0.6754 -0.0053 -0.7374
vn -0.2576 0.0054 0.9662
vn 0.1722 -0.0244 -0.9848
vn -0.1720 0.0092 0.9851
vn -0.4858 -0.0082 -0.8740
vn -0.5177 0.0126 0.8555
vn -0.9930 0.0707 0.0942
vn -0.7753 0.0387 -0.6304
vn 0.9872 -0.0055 -0.1593
vn 0.5789 0.0029 0.8154
vn 0.6831 -0.0127 -0.7302
vn -0.1813 0.0000 0.9834
vn 0.1723 -0.0246 -0.9847
vn -0.1718 0.0040 0.9851
vn 0.0812 0.0084 -0.9967
vn -0.0252 0.0247 0.9994
vn -0.8838 0.2285 -0.4083
vn -0.8586 0.1648 -0.4855
vn 0.9784 -0.0283 0.2047
vn 0.7776 -0.0153 0.6286
vn 0.6553 0.0368 -0.7545
vn 0.1780 0.0417 0.9831
vn 0.1685 0.0974 -0.9809
vn -0.1729 0.0669 0.9827
vn 0.1904 0.0597 -0.9799
vn -0.0525 0.0495 0.9974
vn -0.5597 -0.0143 -0.8286
vn -0.7580 -0.0003 0.6522
vn 0.8344 0.0053 0.5512
vn 0.9779 0.0246 -0.2077
vn 0.6767 0.2950 -0.6745
vn 0.7502 0.1648 0.6403
vn 0.0773 0.8224 -0.5636
vn -0.1728 0.2257 0.9587
vn -0.5137 0.3853 -0.7666
vn -0.7609 0.1427 0.6330
vn -0.4461 -0.4977 -0.7438
vn -0.8523 -0.1707 0.4945
vn 0.7923 -0.0036 0.6101
vn 0.9289 -0.0366 -0.3685
vn 0.9654 -0.2205 -0.1394
vn 0.9283 -0.2678 0.2580
vn 0.1653 -0.4364 -0.8844
vn -0.1272 -0.5681 0.8131
vn -0.2731 -0.4944 -0.8252
vn -0.6997 -0.5874 0.4066
vn -0.5113 -0.6244 -0.5904
vn -0.7442 -0.6568 -0.1216
vn 0.6085 -0.5669 0.5554
vn 0.5586 -0.3480 -0.7529
vn 0.5456 -0.8284 0.1269
vn 0.5147 -0.4157 -0.7499
vn 0.0532 -0.9855 -0.1611
vn 0.1598 -0.5144 -0.8426
vn 0.4927 -0.8460 -0.2037
vn 0.3691 -0.5272 -0.7654
vn 0.6424 -0.6461 -0.4122
vn 0.6208 -0.6051 -0.4984
usemtl Material_with_Texture.828
s off
f 1/1/1 2/2/1 3/3/1
f 1/1/2 3/3/2 4/4/2
f 1/5/3 4/6/3 5/7/3
f 1/5/4 5/7/4 6/8/4
f 1/5/5 6/8/5 7/9/5
f 1/10/6 7/11/6 8/12/6
f 1/10/7 8/12/7 9/13/7
f 1/14/8 9/15/8 10/16/8
f 1/14/9 10/16/9 11/17/9
f 1/1/10 11/18/10 2/2/10
f 2/19/11 12/20/11 13/21/11 3/22/11
f 11/23/12 14/24/12 12/20/12 2/19/12
f 3/25/13 13/26/13 15/27/13 4/6/13
f 4/6/14 15/27/14 16/28/14 5/7/14
f 5/7/15 16/28/15 17/29/15 6/8/15
f 6/30/16 17/31/16 18/32/16 7/33/16
f 7/34/17 18/35/17 19/36/17 8/37/17
f 8/37/18 19/36/18 20/38/18 9/39/18
f 9/39/19 20/38/19 21/40/19 10/41/19
f 10/41/20 21/40/20 14/42/20 11/43/20
f 12/20/21 22/44/21 23/45/21 13/21/21
f 14/24/22 24/46/22 22/44/22 12/20/22
f 13/26/23 23/47/23 25/48/23 15/27/23
f 21/49/24 26/50/24 24/46/24 14/24/24
f 15/27/25 25/48/25 27/51/25 16/28/25
f 16/52/26 27/53/26 28/54/26 17/31/26
f 17/31/27 28/54/27 29/55/27 18/32/27
f 18/35/28 29/56/28 30/57/28 19/36/28
f 19/36/29 30/57/29 31/58/29 20/38/29
f 20/38/30 31/58/30 26/59/30 21/40/30
f 22/44/31 32/60/31 33/61/31 23/45/31
f 24/46/32 34/62/32 32/60/32 22/44/32
f 23/47/33 33/63/33 35/64/33 25/48/33
f 26/50/34 36/65/34 34/62/34 24/46/34
f 25/48/35 35/64/35 37/66/35 27/51/35
f 31/58/36 38/67/36 36/68/36 26/59/36
f 27/53/37 37/69/37 39/70/37 28/54/37
f 28/54/38 39/70/38 40/71/38 29/55/38
f 29/55/39 40/71/39 41/72/39 30/73/39
f 30/73/40 41/72/40 38/74/40 31/75/40
f 32/60/41 42/76/41 43/77/41 33/61/41
f 34/62/42 44/78/42 42/76/42 32/60/42
f 33/63/43 43/79/43 45/80/43 35/64/43
f 36/81/44 46/82/44 44/83/44 34/84/44
f 35/64/45 45/80/45 47/85/45 37/66/45
f 38/86/46 48/87/46 46/88/46 36/89/46
f 37/69/47 47/90/47 49/91/47 39/70/47
f 41/92/48 50/93/48 48/94/48 38/95/48
f 39/70/49 49/91/49 51/96/49 40/71/49
f 40/71/50 51/96/50 50/97/50 41/72/50
f 42/98/51 52/99/51 53/100/51 43/79/51
f 44/78/52 54/101/52 52/102/52 42/76/52
f 43/79/53 53/100/53 55/103/53 45/80/53
f 46/82/54 56/104/54 54/105/54 44/83/54
f 45/80/55 55/103/55 57/106/55 47/85/55
f 48/94/56 58/107/56 56/104/56 46/82/56
f 47/90/57 57/108/57 59/109/57 49/91/57
f 50/93/58 60/110/58 58/107/58 48/94/58
f 49/91/59 59/109/59 61/111/59 51/96/59
f 51/112/60 61/113/60 60/110/60 50/93/60
f 52/99/61 62/114/61 63/115/61 53/100/61
f 54/101/62 64/116/62 62/117/62 52/102/62
f 53/100/63 63/115/63 65/118/63 55/103/63
f 56/104/64 66/119/64 64/120/64 54/105/64
f 55/103/65 65/118/65 67/121/65 57/106/65
f 58/107/66 68/122/66 66/119/66 56/104/66
f 57/108/67 67/123/67 69/124/67 59/109/67
f 60/110/68 70/125/68 68/122/68 58/107/68
f 59/126/69 69/127/69 71/128/69 61/129/69
f 61/111/70 71/130/70 70/131/70 60/132/70
f 62/117/71 72/133/71 73/134/71 63/135/71
f 64/116/72 74/136/72 72/133/72 62/117/72
f 63/115/73 73/137/73 75/138/73 65/118/73
f 66/119/74 76/139/74 74/140/74 64/120/74
f 65/118/75 75/138/75 77/141/75 67/121/75
f 68/122/76 78/142/76 76/139/76 66/119/76
f 67/123/77 77/143/77 79/144/77 69/124/77
f 70/125/78 80/145/78 78/142/78 68/122/78
f 69/124/79 79/144/79 81/146/79 71/130/79
f 71/130/80 81/146/80 80/147/80 70/131/80
f 72/133/81 82/148/81 83/149/81 73/134/81
f 74/136/82 84/150/82 82/148/82 72/133/82
f 73/137/83 83/151/83 85/152/83 75/138/83
f 76/139/84 86/153/84 84/154/84 74/140/84
f 75/138/85 85/152/85 87/155/85 77/141/85
f 78/142/86 88/156/86 86/153/86 76/139/86
f 77/141/87 87/155/87 89/157/87 79/158/87
f 80/145/88 90/159/88 88/156/88 78/142/88
f 79/144/89 89/160/89 91/161/89 81/146/89
f 81/146/90 91/161/90 90/162/90 80/147/90
f 82/148/91 92/163/91 93/164/91 83/149/91
f 84/150/92 94/165/92 92/163/92 82/148/92
f 83/151/93 93/166/93 95/167/93 85/152/93
f 86/153/94 96/168/94 94/169/94 84/154/94
f 85/152/95 95/167/95 97/170/95 87/155/95
f 88/156/96 98/171/96 96/168/96 86/153/96
f 87/155/97 97/170/97 99/172/97 89/157/97
f 90/159/98 100/173/98 98/171/98 88/156/98
f 89/160/99 99/174/99 101/175/99 91/161/99
f 91/176/100 101/177/100 100/173/100 90/159/100
f 92/163/101 102/178/101 103/179/101 93/164/101
f 94/165/102 104/180/102 102/178/102 92/163/102
f 93/166/103 103/181/103 105/182/103 95/167/103
f 96/183/104 106/184/104 104/180/104 94/165/104
f 95/167/105 105/182/105 107/185/105 97/170/105
f 98/171/106 108/186/106 106/187/106 96/168/106
f 97/188/107 107/189/107 109/190/107 99/174/107
f 100/173/108 110/191/108 108/186/108 98/171/108
f 99/174/109 109/190/109 111/192/109 101/175/109
f 101/177/110 111/193/110 110/191/110 100/173/110
f 102/178/111 112/194/111 113/195/111 103/179/111
f 104/196/112 114/197/112 112/198/112 102/199/112
f 103/179/113 113/195/113 115/200/113 105/201/113
f 106/184/114 116/202/114 114/203/114 104/180/114
f 105/182/115 115/204/115 117/205/115 107/185/115
f 108/186/116 118/206/116 116/207/116 106/187/116
f 107/185/117 117/205/117 119/208/117 109/209/117
f 110/191/118 120/210/118 118/206/118 108/186/118
f 109/190/119 119/211/119 121/212/119 111/192/119
f 111/192/120 121/212/120 120/213/120 110/214/120
f 112/194/121 122/215/121 113/195/121
f 114/197/122 122/216/122 112/198/122
f 113/217/123 122/218/123 115/219/123
f 116/220/124 122/216/124 114/197/124
f 115/219/125 122/218/125 117/221/125
f 118/222/126 122/216/126 116/220/126
f 117/221/127 122/218/127 119/223/127
f 120/224/128 122/216/128 118/222/128
f 119/223/129 122/218/129 121/225/129
f 121/225/130 122/218/130 120/226/130
