# Blender v3.5.0 OBJ File: ''
# www.blender.org
mtllib r_pelvis.mtl
o r_pelvis.vtp_r_pelvis.vtp.009
v -0.029819 -0.076501 -0.068863
v -0.045322 -0.072010 -0.052929
v -0.044327 -0.080850 -0.054677
v -0.035282 -0.057528 -0.079741
v -0.042967 -0.062222 -0.062107
v -0.038811 -0.055471 -0.094431
v -0.031418 -0.051766 -0.087808
v -0.025297 -0.071682 -0.060148
v -0.034255 -0.084908 -0.061013
v -0.059127 -0.078011 -0.051587
v -0.051217 -0.063678 -0.053320
v -0.055024 -0.068663 -0.051879
v -0.062600 -0.083971 -0.057797
v -0.053206 -0.085034 -0.059938
v -0.066647 -0.093034 -0.065978
v -0.051734 -0.048677 -0.085567
v -0.048283 -0.054949 -0.066246
v -0.050719 -0.058978 -0.057932
v -0.062716 -0.052389 -0.099876
v -0.022260 -0.035255 -0.096690
v -0.052851 -0.035891 -0.095170
v -0.029869 -0.054046 -0.063728
v -0.034961 -0.044478 -0.077175
v -0.007545 -0.088843 -0.018857
v -0.015992 -0.078453 -0.037371
v -0.025342 -0.066449 -0.041354
v -0.035677 -0.082371 -0.050467
v -0.061014 -0.087158 -0.045616
v -0.070805 -0.077244 -0.060373
v -0.062172 -0.069728 -0.051929
v -0.060491 -0.061737 -0.054657
v -0.078097 -0.091478 -0.074637
v -0.084540 -0.093541 -0.064794
v -0.076817 -0.104660 -0.044220
v -0.060880 -0.050643 -0.073063
v -0.077804 -0.060868 -0.093843
v -0.056570 -0.054964 -0.060940
v -0.079371 -0.043451 -0.085611
v -0.030136 -0.023374 -0.093810
v -0.020766 -0.012688 -0.106588
v -0.058845 -0.015489 -0.094861
v -0.047115 -0.040845 -0.058661
v 0.000010 -0.083726 -0.004923
v -0.027254 -0.106601 0.000583
v 0.000000 -0.079469 -0.026656
v -0.036188 -0.073046 -0.035638
v -0.033729 -0.075291 -0.043025
v -0.037579 -0.099974 -0.017788
v -0.025952 -0.110440 -0.005670
v -0.046114 -0.064378 -0.050000
v -0.108512 -0.088166 -0.051595
v -0.108060 -0.072228 -0.042708
v -0.077588 -0.043167 -0.059939
v -0.069460 -0.066047 -0.054626
v -0.075574 -0.066825 -0.066582
v -0.084704 -0.074215 -0.085320
v -0.079861 -0.062776 -0.083072
v -0.064099 -0.055428 -0.060779
v -0.070113 -0.060373 -0.058863
v -0.089841 -0.078409 -0.067783
v -0.094825 -0.075459 -0.059127
v -0.092707 -0.101931 -0.064757
v -0.114270 -0.103318 -0.043711
v -0.071467 -0.116395 -0.035196
v -0.088941 -0.130816 -0.045117
v -0.097672 -0.117728 -0.061403
v -0.088650 -0.062281 -0.076225
v -0.086209 -0.025934 -0.061845
v -0.076923 -0.000898 -0.053148
v -0.057751 0.022653 -0.093126
v 0.000000 0.000000 -0.120833
v -0.007194 -0.014923 -0.123270
v -0.025767 -0.013557 -0.111765
v -0.050796 0.037341 -0.118911
v -0.075179 0.015460 -0.072247
v -0.094028 -0.020262 -0.063989
v -0.022294 -0.080640 -0.002346
v -0.002515 -0.076525 -0.007104
v -0.029246 -0.091680 -0.001081
v -0.044549 -0.127827 -0.023459
v -0.079997 -0.126794 -0.030146
v -0.039082 -0.105622 -0.017475
v -0.101320 -0.083184 -0.058633
v -0.113492 -0.094068 -0.058714
v -0.113448 -0.115644 -0.050164
v -0.064376 -0.133792 -0.031678
v -0.095802 -0.005519 -0.040828
v -0.091164 0.009621 -0.045500
v -0.110692 -0.024093 -0.051881
v -0.080792 0.031718 -0.057625
v -0.075767 0.081005 -0.076435
v -0.011673 0.020720 -0.123144
v -0.032203 0.042817 -0.117986
v -0.003795 0.011367 -0.129272
v -0.022141 0.017064 -0.132168
v -0.049975 0.045190 -0.127943
v -0.074054 0.072924 -0.095217
v -0.099992 0.057224 -0.060352
v -0.125581 0.031049 -0.054190
v -0.120638 -0.019939 -0.044479
v -0.125632 -0.010078 -0.042406
v -0.112670 0.004130 -0.047053
v -0.106515 0.024731 -0.040493
v -0.126153 0.001275 -0.050133
v -0.084582 0.052767 -0.050023
v -0.051691 0.065471 -0.113834
v -0.072556 0.080010 -0.092479
v -0.092867 0.080280 -0.065454
v -0.085418 0.076531 -0.060986
v -0.022800 0.036117 -0.131464
v -0.109011 0.066410 -0.060971
v -0.136826 0.027100 -0.042425
v -0.122957 0.056362 -0.047167
v -0.129456 0.005228 -0.042604
v -0.124117 0.016544 -0.030060
v -0.118317 0.036791 -0.035422
v -0.137926 0.016807 -0.040577
v -0.101838 0.064646 -0.047068
v -0.105080 0.071715 -0.055333
v -0.134522 0.032374 -0.036368
v -0.136949 0.015755 -0.035222
v -0.133523 0.006379 -0.036939
vt 0.490818 0.696428
vt 0.418428 0.677689
vt 0.436458 0.656511
vt 0.473079 0.767354
vt 0.427926 0.721561
vt 0.267722 0.677502
vt 0.267722 0.790019
vt 0.248965 0.745173
vt 0.933315 0.654701
vt 0.967382 0.720200
vt 0.937965 0.738584
vt 0.965048 0.644014
vt 0.477265 0.658372
vt 0.789346 0.942603
vt 0.758571 0.942603
vt 0.784793 0.906892
vt 0.898719 0.633674
vt 0.870696 0.644014
vt 0.869142 0.604182
vt 0.394188 0.700394
vt 0.389746 0.683344
vt 0.847019 0.624641
vt 0.883002 0.577813
vt 0.899597 0.597044
vt 0.925819 0.644014
vt 0.905611 0.543082
vt 0.434808 0.799288
vt 0.490818 0.798592
vt 0.413776 0.748117
vt 0.397715 0.721712
vt 0.462802 0.492015
vt 0.490818 0.556759
vt 0.436354 0.533376
vt 0.906455 0.811385
vt 0.464533 0.314861
vt 0.408225 0.270027
vt 0.483843 0.252891
vt 0.969733 0.811385
vt 0.948720 0.423677
vt 0.908837 0.377353
vt 0.935568 0.319542
vt 0.897999 0.328388
vt 0.935851 0.255052
vt 0.987408 0.361627
vt 0.961733 0.309336
vt 0.949882 0.247045
vt 0.987408 0.217583
vt 0.911194 0.453169
vt 0.949882 0.484030
vt 0.304899 0.694754
vt 0.364814 0.796544
vt 0.270093 0.685307
vt 0.348308 0.620652
vt 0.290808 0.577188
vt 0.851866 0.559750
vt 0.840232 0.604998
vt 0.373090 0.706487
vt 0.837670 0.637476
vt 0.819139 0.613484
vt 0.886280 0.500336
vt 0.278816 0.538330
vt 0.315746 0.526583
vt 0.364814 0.553324
vt 0.405910 0.574486
vt 0.490818 0.615728
vt 0.381981 0.546428
vt 0.384715 0.737135
vt 0.370889 0.576511
vt 0.371383 0.198642
vt 0.426149 0.192365
vt 0.436648 0.241461
vt 0.890780 0.238752
vt 0.908682 0.179137
vt 0.415949 0.379511
vt 0.343538 0.295516
vt 0.837320 0.368977
vt 0.024570 0.492015
vt 0.065824 0.527943
vt 0.000000 0.600339
vt 0.090640 0.497123
vt 0.111765 0.549028
vt 0.977020 0.571351
vt 0.980149 0.484030
vt 1.000000 0.563626
vt 0.985517 0.858324
vt 0.993920 0.976009
vt 0.962598 0.840615
vt 0.720667 0.571195
vt 0.673073 0.534296
vt 0.707353 0.484030
vt 0.022964 0.604334
vt 0.796191 0.564772
vt 0.972883 0.484030
vt 0.949882 0.438101
vt 0.972883 0.379209
vt 0.240110 0.581615
vt 0.209777 0.558119
vt 0.270093 0.492015
vt 0.189192 0.618516
vt 0.111765 0.602565
vt 0.490818 0.907652
vt 0.547200 0.873443
vt 0.547200 0.946670
vt 0.993920 0.811385
vt 0.488051 0.799288
vt 0.488051 0.947012
vt 0.448352 0.925365
vt 0.202508 0.810951
vt 0.111765 0.677502
vt 0.248965 0.688344
vt 0.162597 0.975148
vt 0.111765 0.917581
vt 0.162597 0.854606
vt 0.257939 0.677502
vt 0.119328 0.677502
vt 0.819482 0.585684
vt 0.815048 0.548315
vt 0.827142 0.484030
vt 0.067260 0.936375
vt 0.082036 0.895192
vt 0.082036 0.975207
vt 0.799435 0.513139
vt 0.796191 0.600601
vt 0.802271 0.582965
vt 0.368015 0.734214
vt 0.441658 0.139536
vt 0.429581 0.081547
vt 0.490818 0.092342
vt 0.476669 0.055634
vt 0.267246 0.854606
vt 0.204724 0.918553
vt 0.205215 0.885351
vt 0.405953 0.058117
vt 0.322445 0.492015
vt 0.925819 0.509442
vt 0.977020 0.582211
vt 0.943423 0.618257
vt 0.977020 0.484030
vt 0.707192 0.786060
vt 0.765213 0.721135
vt 0.757787 0.819684
vt 0.723295 0.706900
vt 0.796191 0.793149
vt 0.461243 0.633664
vt 0.375530 0.599925
vt 0.483424 0.656511
vt 0.396141 0.131366
vt 0.294611 0.158987
vt 0.684438 0.307100
vt 0.737642 0.150442
vt 0.983620 0.217583
vt 0.949882 0.190610
vt 0.983620 0.128358
vt 0.949882 0.104071
vt 0.962027 0.121198
vt 0.968176 0.000000
vt 0.412919 0.384601
vt 0.238927 0.455025
vt 0.214916 0.268820
vt 0.266919 0.163671
vt 0.248965 0.854606
vt 0.139799 0.827664
vt 0.742290 0.833447
vt 0.789346 0.906892
vt 0.705066 0.906892
vt 0.906455 0.904397
vt 0.936623 0.859812
vt 0.958662 0.873826
vt 0.962598 0.960608
vt 0.962598 0.811385
vt 0.921113 0.934650
vt 0.649545 0.566533
vt 0.596940 0.616718
vt 0.490818 0.611295
vt 0.608345 0.553653
vt 0.075229 0.690897
vt 0.068930 0.799261
vt 0.649545 0.773983
vt 0.612384 0.627319
vt 0.995320 0.811385
vt 0.969733 0.691784
vt 0.995320 0.668848
vt 0.575915 0.525134
vt 1.000000 0.613794
vt 0.551148 0.484030
vt 0.706469 0.581549
vt 0.649545 0.633735
vt 0.614977 0.873443
vt 0.615106 0.903814
vt 0.583871 0.915690
vt 0.615106 0.963146
vt 0.360295 0.004787
vt 0.407951 0.000000
vt 0.413702 0.035482
vt 0.412605 0.639565
vt 0.378711 0.624377
vt 0.264182 0.882566
vt 0.267246 0.928697
vt 0.292938 0.925084
vt 0.361364 0.860546
vt 0.361756 0.911327
vt 0.270093 0.874516
vt 0.299536 0.849182
vt 0.587107 0.873443
vt 0.569052 0.845601
vt 0.610589 0.750199
vt 0.661846 0.705093
vt 0.100273 0.895192
vt 0.111765 0.838468
vt 0.361756 0.796544
vt 0.089673 0.761997
vt 0.759721 0.819684
vt 0.634189 0.357722
vt 0.621152 0.308772
vt 0.371993 0.875011
vt 0.368015 0.799288
vt 0.448352 0.903120
vt 0.448352 0.834089
vt 0.617715 0.223174
vt 0.558224 0.062450
vt 0.886389 0.058000
vt 0.789865 0.031114
vt 0.931132 0.061154
vt 0.861606 0.644014
vt 0.906455 0.671448
vt 0.901517 0.710875
vt 0.459832 0.435610
vt 0.355332 0.492015
vt 0.863764 0.760397
vt 0.226891 0.492015
vt 0.084507 0.424307
vt 0.050538 0.276189
vt 0.066689 0.183488
vt 0.236670 0.104948
vt 0.439451 0.941479
vt 0.649545 0.873443
vt 0.649545 0.934211
vt 0.621060 0.896819
vt 0.162597 0.932771
vt 0.204724 0.905622
vt 0.204724 0.966933
vt 0.167649 0.854606
vt 0.550122 0.294537
vt 0.689692 0.956446
vt 0.654404 0.892797
vt 0.705066 0.915504
vt 0.165008 0.084944
vt 0.140318 0.122744
vt 0.201648 0.080219
vt 0.556697 0.193164
vt 0.695986 0.000000
vt 0.590381 0.027040
vt 0.067260 0.955284
vt 0.045751 0.921080
vt 0.067260 0.895192
vt 0.523546 0.113607
vt 0.506109 0.099787
vt 0.843299 0.010715
vt 0.894333 0.813747
vt 0.853014 0.887610
vt 0.906455 0.944140
vt 0.159840 0.488046
vt 0.066661 0.431191
vt 0.010261 0.281329
vt 0.007438 0.336900
vt 0.583871 0.873443
vt 0.583871 0.980929
vt 0.547200 0.894499
vt 0.047074 0.132507
vt 0.000000 0.211483
vt 0.045750 0.944371
vt 0.000000 0.918275
vt 0.045750 0.895192
vt 0.118058 0.106030
vt 0.705066 0.844036
vt 0.649545 0.838746
vt 0.492876 0.285265
vt 0.512474 0.348495
vt 0.070509 0.109205
vt 0.490818 0.183205
vt 0.821789 0.644014
vt 0.847787 0.649987
vt 0.825074 0.693509
vt 0.802078 0.708453
vt 0.853014 0.717900
vt 0.811846 0.767872
vt 0.817200 0.862089
vt 0.814571 0.914514
vt 0.796191 0.874547
vt 0.798390 0.907596
vt 0.851001 0.830211
vt 0.662521 0.819684
vt 0.103137 0.088342
vt 0.815907 0.935964
vt 0.853014 0.901321
vt 0.070950 0.095203
vn 0.7070 -0.0598 0.7047
vn 0.7520 0.4772 0.4547
vn 0.9650 0.1576 -0.2097
vn 0.7143 0.3795 0.5880
vn -0.7148 0.3955 0.5767
vn -0.9104 0.2128 0.3547
vn 0.5962 0.3569 0.7191
vn -0.8253 0.5509 0.1236
vn 0.1694 -0.1728 0.9703
vn 0.1603 0.1592 0.9741
vn 0.6078 0.4604 0.6470
vn 0.1028 -0.0141 0.9946
vn 0.0055 -0.7230 0.6908
vn 0.0400 -0.8139 0.5797
vn 0.0938 -0.7640 0.6384
vn 0.0384 -0.8126 0.5815
vn 0.4709 0.8821 0.0104
vn 0.5890 0.6795 0.4375
vn 0.4018 0.8897 0.2170
vn 0.5627 0.5479 0.6191
vn 0.5476 0.6787 0.4894
vn 0.2046 0.8978 -0.3899
vn -0.2426 -0.7058 0.6656
vn 0.0346 0.4585 0.8880
vn -0.3584 -0.0516 0.9321
vn -0.9692 -0.2433 0.0393
vn -0.8909 -0.4540 0.0143
vn -0.8617 0.2363 -0.4491
vn -0.9291 -0.1680 0.3296
vn -0.7295 0.4610 0.5052
vn -0.9691 -0.2382 0.0640
vn -0.8037 -0.5737 0.1578
vn 0.3931 0.9046 -0.1646
vn -0.2058 0.9539 -0.2183
vn -0.2266 0.9396 -0.2566
vn 0.0473 -0.6513 0.7574
vn -0.5643 -0.4149 0.7138
vn -0.5984 -0.1878 0.7789
vn -0.0125 0.0367 0.9992
vn 0.0428 0.6974 0.7154
vn -0.0681 0.3247 0.9434
vn -0.0562 0.3331 0.9412
vn -0.5587 -0.4042 0.7242
vn 0.0862 -0.6885 0.7201
vn -0.5861 -0.4037 0.7025
vn -0.0148 0.9805 0.1958
vn -0.7417 0.6706 0.0117
vn 0.0064 0.8807 0.4736
vn -0.3836 0.9133 -0.1370
vn 0.1739 0.9454 0.2758
vn -0.4508 0.8850 0.1164
vn 0.3101 0.8167 0.4866
vn 0.1744 0.9455 0.2750
vn 0.0657 0.6579 0.7502
vn 0.5049 -0.3313 0.7971
vn 0.4148 -0.4702 0.7790
vn -0.7154 -0.3243 -0.6189
vn -0.6581 -0.2655 -0.7046
vn 0.0372 0.3993 0.9161
vn 0.2889 0.0704 0.9548
vn 0.3180 0.0791 0.9448
vn -0.6340 -0.7230 -0.2744
vn -0.6340 -0.7236 -0.2728
vn -0.8358 -0.2091 -0.5077
vn -0.6343 0.7707 0.0609
vn -0.3364 0.7474 0.5729
vn 0.5192 0.8504 -0.0856
vn 0.7252 0.3940 -0.5647
vn -0.7141 0.6870 0.1349
vn -0.2079 0.6327 0.7460
vn -0.8003 0.4221 -0.4258
vn -0.1749 0.5503 0.8165
vn -0.5563 -0.1629 0.8148
vn 0.0520 -0.7014 -0.7109
vn 0.1677 -0.7885 -0.5918
vn 0.3383 -0.3123 -0.8877
vn -0.1738 -0.0753 -0.9819
vn 0.6971 0.4194 -0.5815
vn 0.0993 0.4824 -0.8703
vn -0.1718 -0.3629 -0.9159
vn 0.1266 -0.1919 -0.9732
vn 0.2309 -0.3274 -0.9162
vn 0.0620 -0.2878 -0.9557
vn -0.8794 -0.1295 0.4581
vn -0.4770 -0.3553 0.8039
vn -0.8749 -0.0359 0.4831
vn -0.9302 -0.3299 0.1608
vn -0.8312 0.2548 0.4941
vn -0.1648 0.3495 0.9223
vn -0.2485 0.5976 0.7623
vn -0.0269 0.6882 0.7250
vn -0.2650 0.5572 0.7870
vn 0.7804 0.5166 0.3522
vn 0.7398 0.3702 0.5618
vn 0.1982 -0.1887 0.9618
vn 0.8538 0.3712 0.3651
vn -0.6006 0.5871 0.5427
vn -0.0328 -0.6186 -0.7850
vn -0.0283 -0.4529 -0.8911
vn -0.7126 0.3087 0.6301
vn -0.6337 0.2689 0.7253
vn -0.7167 0.3530 0.6014
vn -0.5887 0.7934 0.1548
vn -0.5536 0.8317 0.0416
vn -0.0501 0.9350 0.3511
vn -0.9087 0.4048 -0.1018
vn 0.8503 -0.1110 0.5145
vn 0.8459 -0.1638 0.5076
vn 0.7652 -0.3930 0.5099
vn 0.8798 -0.2248 0.4188
vn -0.6996 -0.4449 -0.5591
vn -0.7023 -0.4128 -0.5800
vn -0.5948 -0.3461 -0.7256
vn -0.6740 0.4237 -0.6051
vn -0.4812 -0.1765 -0.8587
vn -0.0188 0.9888 -0.1478
vn -0.0958 0.9926 -0.0741
vn 0.4155 0.3237 0.8501
vn 0.8636 0.0939 0.4953
vn 0.6624 -0.1815 0.7268
vn 0.3847 0.7393 0.5527
vn 0.0483 -0.0859 -0.9951
vn 0.1777 0.2635 -0.9482
vn -0.1538 -0.3354 -0.9294
vn -0.1263 -0.0874 -0.9881
vn -0.9349 -0.3484 -0.0678
vn -0.0040 -0.1114 -0.9938
vn 0.7268 -0.4052 -0.5546
vn 0.9840 0.1163 -0.1350
vn -0.2337 0.8062 -0.5436
vn 0.1546 0.6828 -0.7140
vn 0.5152 -0.7687 -0.3791
vn 0.8051 -0.2442 -0.5406
vn -0.2024 -0.9719 0.1203
vn 0.7421 -0.5163 -0.4275
vn 0.6632 0.7484 -0.0067
vn 0.1326 -0.9529 -0.2727
vn -0.6117 0.2051 0.7641
vn -0.6748 -0.0325 0.7373
vn 0.6584 -0.7374 0.1508
vn 0.8631 -0.4486 -0.2318
vn 0.7670 -0.3289 0.5509
vn 0.6289 -0.4902 0.6034
vn -0.2882 -0.2465 -0.9253
vn 0.7653 -0.0982 0.6362
vn -0.8738 0.2223 0.4324
vn -0.6563 0.7388 -0.1532
vn -0.7438 0.5782 0.3353
vn 0.9503 0.0863 0.2990
vn 0.8779 0.1695 0.4477
vn 0.2831 -0.1778 0.9425
vn 0.9613 -0.1547 0.2279
vn 0.1933 -0.2233 0.9554
vn 0.3131 0.1021 0.9442
vn 0.9971 0.0298 0.0701
vn 0.5651 0.4119 -0.7148
vn 0.0359 -0.4602 -0.8871
vn 0.5136 -0.6772 -0.5269
vn -0.4816 -0.0191 0.8762
vn -0.3898 0.0273 0.9205
vn -0.4422 -0.1303 0.8874
vn 0.5280 0.6866 -0.4999
vn 0.4107 0.8055 0.4272
vn 0.3348 0.8406 -0.4258
vn 0.5793 0.3013 0.7573
vn 0.3770 0.1760 -0.9093
vn -0.5267 -0.0992 -0.8443
vn -0.5015 0.7025 -0.5050
vn -0.5102 0.7168 -0.4753
vn -0.8459 -0.1697 -0.5056
vn -0.5642 -0.1776 -0.8063
vn -0.8464 -0.1124 -0.5206
vn -0.5286 -0.3063 -0.7917
vn -0.6940 -0.0083 -0.7199
vn -0.5167 -0.3768 -0.7688
vn -0.8173 -0.4936 -0.2973
vn -0.7210 0.2415 0.6495
vn 0.4960 0.4400 0.7485
vn -0.0810 0.2318 0.9694
vn 0.6003 0.3930 0.6965
vn 0.6385 0.5512 0.5371
vn 0.8295 0.1932 0.5240
vn 0.8719 0.3276 0.3639
vn 0.3131 -0.0834 0.9460
vn 0.7220 0.2446 0.6473
vn 0.3464 0.0340 0.9375
vn 0.5501 0.1827 0.8149
vn 0.1696 0.5567 -0.8132
vn -0.2670 0.6418 -0.7189
vn 0.0188 0.2148 -0.9765
vn 0.1524 -0.3337 -0.9303
vn 0.1089 -0.3974 -0.9112
vn -0.4965 -0.2267 -0.8379
vn -0.0094 0.3059 -0.9520
vn 0.7300 0.4071 0.5489
vn 0.6315 0.1604 0.7586
vn 0.3079 0.1226 0.9435
vn -0.9341 -0.0401 -0.3547
vn -0.5789 0.1828 -0.7947
vn -0.7577 -0.6088 -0.2349
vn -0.6212 -0.7799 -0.0760
vn 0.0936 -0.9924 0.0803
vn -0.2144 -0.8942 -0.3929
vn -0.7724 -0.2883 -0.5660
vn -0.7873 -0.6115 -0.0788
vn -0.7407 -0.6421 -0.1976
vn -0.7586 -0.6113 -0.2254
vn -0.1686 -0.0422 0.9848
vn 0.1177 -0.0326 0.9925
vn -0.0861 -0.5739 0.8144
vn 0.4612 -0.4801 0.7462
vn 0.5030 -0.4020 0.7651
vn 0.6305 -0.5603 0.5371
vn 0.5249 0.5587 0.6421
vn 0.7400 -0.3728 0.5599
vn 0.0845 0.1493 0.9852
vn 0.7065 0.0822 0.7029
vn 0.7654 -0.2445 0.5953
vn 0.7405 -0.2499 0.6239
vn -0.2602 -0.0774 -0.9625
vn 0.9294 0.2359 0.2839
vn -0.5978 0.3999 -0.6948
vn -0.1189 0.7619 -0.6367
vn -0.3964 -0.0019 -0.9181
vn -0.4741 -0.0960 -0.8752
vn 0.8102 0.5841 0.0488
vn 0.6754 0.0598 0.7350
vn -0.4117 -0.3936 -0.8219
vn -0.3033 -0.2093 -0.9296
vn 0.0019 -0.7645 -0.6446
vn 0.6699 -0.7137 0.2044
vn -0.0007 -0.7601 -0.6498
vn 0.6872 -0.7032 0.1825
vn 0.9607 -0.1561 -0.2295
vn 0.9049 -0.4248 0.0256
vn 0.9688 -0.1402 -0.2043
vn 0.2689 -0.6773 -0.6848
vn 0.1796 -0.4745 -0.8617
vn 0.1892 -0.4719 -0.8611
vn -0.4574 0.7483 -0.4804
vn 0.7574 0.4758 0.4471
vn 0.3420 0.2887 -0.8943
vn 0.3768 -0.1184 -0.9187
vn 0.1342 -0.2894 -0.9477
vn 0.9286 0.3575 -0.0992
usemtl Material_with_Texture.831
s off
f 1/1/1 2/2/1 3/3/1
f 4/4/2 5/5/2 1/1/2
f 1/6/3 6/7/3 4/8/3
f 1/1/4 5/5/4 2/2/4
f 1/9/5 7/10/5 6/11/5
f 7/10/6 1/9/6 8/12/6
f 3/3/7 9/13/7 1/1/7
f 1/14/8 9/15/8 8/16/8
f 3/17/9 2/18/9 10/19/9
f 11/20/10 12/21/10 2/2/10
f 11/20/11 2/2/11 5/5/11
f 12/22/12 10/19/12 2/18/12
f 13/23/13 3/17/13 10/19/13
f 13/23/14 14/24/14 3/17/14
f 9/25/15 3/17/15 15/26/15
f 3/17/16 14/24/16 9/25/16
f 16/27/17 4/4/17 6/28/17
f 17/29/18 5/5/18 4/4/18
f 17/29/19 4/4/19 16/27/19
f 18/30/20 11/20/20 5/5/20
f 18/30/21 5/5/21 17/29/21
f 6/31/22 19/32/22 16/33/22
f 7/10/23 19/34/23 6/11/23
f 20/35/24 21/36/24 7/37/24
f 21/38/25 19/34/25 7/10/25
f 8/39/26 22/40/26 7/41/26
f 7/41/27 22/40/27 23/42/27
f 7/41/28 23/42/28 20/43/28
f 24/44/29 25/45/29 8/46/29
f 8/46/30 9/47/30 24/44/30
f 26/48/31 22/40/31 8/39/31
f 26/48/32 8/39/32 25/49/32
f 27/50/33 24/51/33 9/52/33
f 28/53/34 9/52/34 15/54/34
f 27/50/35 9/52/35 28/53/35
f 15/26/36 9/25/36 14/24/36
f 10/19/37 29/55/37 13/23/37
f 30/56/38 29/55/38 10/19/38
f 12/22/39 30/56/39 10/19/39
f 18/30/40 31/57/40 11/20/40
f 11/58/41 31/59/41 12/22/41
f 12/22/42 31/59/42 30/56/42
f 13/23/43 29/55/43 15/26/43
f 13/23/44 15/26/44 14/24/44
f 15/26/45 29/55/45 32/60/45
f 32/61/46 33/62/46 15/54/46
f 34/63/47 28/53/47 15/54/47
f 34/63/48 15/54/48 33/62/48
f 35/64/49 16/33/49 36/65/49
f 35/64/50 17/66/50 16/33/50
f 36/65/51 16/33/51 19/32/51
f 37/67/52 18/30/52 17/29/52
f 37/68/53 17/66/53 35/64/53
f 37/67/54 31/57/54 18/30/54
f 38/69/55 36/70/55 19/71/55
f 21/36/56 38/69/56 19/71/56
f 39/72/57 20/43/57 23/42/57
f 20/43/58 39/72/58 40/73/58
f 40/74/59 21/36/59 20/35/59
f 41/75/60 21/36/60 40/74/60
f 38/69/61 21/36/61 41/75/61
f 23/42/62 22/40/62 42/76/62
f 42/76/63 22/40/63 26/48/63
f 39/72/64 23/42/64 42/76/64
f 43/77/65 24/78/65 44/79/65
f 45/80/66 25/81/66 24/78/66
f 46/82/67 24/83/67 47/84/67
f 47/85/68 24/86/68 27/87/68
f 45/80/69 24/78/69 43/77/69
f 48/88/70 49/89/70 24/90/70
f 49/91/71 44/79/71 24/78/71
f 46/92/72 48/88/72 24/90/72
f 26/93/73 25/94/73 45/95/73
f 46/96/74 26/97/74 45/98/74
f 50/99/75 26/97/75 46/96/75
f 50/99/76 42/100/76 26/97/76
f 27/101/77 28/102/77 50/103/77
f 27/87/78 50/104/78 47/85/78
f 28/105/79 51/106/79 52/107/79
f 53/108/80 28/109/80 52/110/80
f 28/111/81 34/112/81 51/113/81
f 50/99/82 28/114/82 42/100/82
f 42/100/83 28/114/83 53/115/83
f 54/116/84 55/117/84 29/55/84
f 30/56/85 54/116/85 29/55/85
f 29/55/86 56/118/86 32/60/86
f 55/119/87 57/120/87 29/121/87
f 29/55/88 57/122/88 56/118/88
f 30/56/89 31/59/89 54/116/89
f 31/59/90 58/123/90 59/124/90
f 58/125/91 31/57/91 37/67/91
f 54/116/92 31/59/92 59/124/92
f 56/126/93 60/127/93 32/128/93
f 60/127/94 33/129/94 32/128/94
f 61/130/95 62/131/95 33/132/95
f 60/127/96 61/133/96 33/129/96
f 62/134/97 34/63/97 33/62/97
f 63/135/98 34/136/98 64/137/98
f 34/136/99 63/135/99 51/138/99
f 65/139/100 34/140/100 66/141/100
f 64/142/101 34/140/101 65/139/101
f 66/141/102 34/140/102 62/143/102
f 57/144/103 58/145/103 35/64/103
f 35/64/104 36/65/104 57/144/104
f 37/68/105 35/64/105 58/145/105
f 57/144/106 36/65/106 56/146/106
f 67/147/107 56/126/107 36/70/107
f 38/69/108 67/147/108 36/70/108
f 38/69/109 41/75/109 68/148/109
f 67/147/110 38/69/110 68/148/110
f 42/76/111 69/149/111 39/72/111
f 69/149/112 70/150/112 39/72/112
f 39/72/113 70/150/113 40/73/113
f 71/151/114 72/152/114 40/153/114
f 40/73/115 70/150/115 71/154/115
f 40/153/116 72/152/116 73/155/116
f 41/156/117 40/153/117 73/155/117
f 41/75/118 73/157/118 74/158/118
f 41/75/119 74/158/119 75/159/119
f 76/160/120 41/75/120 75/159/120
f 41/75/121 76/160/121 68/148/121
f 68/161/122 42/162/122 53/108/122
f 68/163/123 69/164/123 42/165/123
f 77/166/124 78/167/124 43/168/124
f 44/169/125 77/166/125 43/168/125
f 45/170/126 43/168/126 78/167/126
f 77/166/127 44/169/127 79/171/127
f 44/172/128 48/173/128 46/174/128
f 79/175/129 44/172/129 46/174/129
f 49/91/130 80/176/130 44/79/130
f 81/177/131 44/79/131 80/176/131
f 44/172/132 81/178/132 82/179/132
f 48/173/133 44/172/133 82/179/133
f 46/180/134 45/181/134 78/182/134
f 46/174/135 77/183/135 79/175/135
f 47/84/136 50/184/136 46/82/136
f 46/174/137 78/185/137 77/183/137
f 48/88/138 82/186/138 49/89/138
f 82/186/139 80/187/139 49/89/139
f 83/188/140 51/189/140 84/190/140
f 84/190/141 51/189/141 63/191/141
f 52/192/142 51/193/142 83/194/142
f 83/194/143 61/133/143 52/192/143
f 53/108/144 52/110/144 68/161/144
f 61/133/145 68/148/145 52/192/145
f 59/124/146 55/117/146 54/116/146
f 58/145/147 55/195/147 59/196/147
f 55/195/148 58/145/148 57/144/148
f 67/147/149 60/127/149 56/126/149
f 60/127/150 67/147/150 61/133/150
f 83/197/151 62/131/151 61/130/151
f 67/147/152 68/148/152 61/133/152
f 83/197/153 84/198/153 62/131/153
f 84/199/154 66/200/154 62/201/154
f 63/202/155 85/203/155 84/199/155
f 81/178/156 85/204/156 63/205/156
f 81/178/157 63/205/157 64/206/157
f 82/179/158 81/178/158 64/206/158
f 64/142/159 65/139/159 86/207/159
f 86/207/160 80/187/160 64/142/160
f 82/186/161 64/142/161 80/187/161
f 85/208/162 81/177/162 65/209/162
f 85/203/163 65/210/163 66/200/163
f 65/209/164 81/177/164 86/211/164
f 84/199/165 85/203/165 66/200/165
f 76/212/166 69/164/166 68/163/166
f 87/213/167 88/214/167 69/149/167
f 87/215/168 69/216/168 89/217/168
f 89/217/169 69/216/169 76/218/169
f 70/150/170 69/149/170 90/219/170
f 88/214/171 90/219/171 69/149/171
f 91/220/172 70/150/172 90/219/172
f 92/221/173 70/150/173 93/222/173
f 93/222/174 70/150/174 91/220/174
f 92/221/175 71/154/175 70/150/175
f 94/223/176 71/154/176 92/221/176
f 72/224/177 71/225/177 94/226/177
f 72/227/178 95/228/178 73/157/178
f 94/226/179 95/229/179 72/224/179
f 74/158/180 73/157/180 95/228/180
f 96/230/181 74/158/181 95/228/181
f 97/231/182 75/159/182 74/158/182
f 96/230/183 97/231/183 74/158/183
f 98/232/184 99/233/184 75/159/184
f 97/231/185 98/232/185 75/159/185
f 76/160/186 75/159/186 99/233/186
f 89/234/187 76/160/187 99/233/187
f 81/177/188 80/176/188 86/211/188
f 87/215/189 89/217/189 100/235/189
f 101/236/190 87/237/190 100/238/190
f 87/239/191 102/240/191 88/241/191
f 101/242/192 102/240/192 87/239/192
f 88/214/193 103/243/193 90/219/193
f 88/244/194 102/245/194 103/246/194
f 101/247/195 89/234/195 104/248/195
f 100/249/196 89/234/196 101/247/196
f 99/233/197 104/248/197 89/234/197
f 90/219/198 105/250/198 91/220/198
f 103/243/199 105/250/199 90/219/199
f 106/251/200 93/222/200 91/220/200
f 106/251/201 91/220/201 107/252/201
f 107/253/202 91/254/202 108/255/202
f 109/256/203 108/257/203 91/220/203
f 91/220/204 105/250/204 109/256/204
f 94/223/205 92/221/205 110/258/205
f 110/258/206 92/221/206 93/222/206
f 106/251/207 110/258/207 93/222/207
f 95/229/208 94/226/208 110/259/208
f 96/260/209 95/229/209 110/259/209
f 96/260/210 110/259/210 106/261/210
f 97/231/211 96/230/211 106/262/211
f 97/231/212 106/262/212 107/263/212
f 111/264/213 97/231/213 108/265/213
f 111/264/214 98/232/214 97/231/214
f 108/265/215 97/231/215 107/263/215
f 111/266/216 99/267/216 98/268/216
f 112/269/217 104/248/217 99/233/217
f 113/270/218 99/233/218 111/264/218
f 113/270/219 112/269/219 99/233/219
f 102/271/220 101/272/220 114/273/220
f 101/247/221 104/248/221 114/274/221
f 103/246/222 102/245/222 115/275/222
f 115/275/223 102/245/223 114/276/223
f 103/243/224 116/277/224 105/250/224
f 115/278/225 116/277/225 103/243/225
f 114/274/226 104/248/226 117/279/226
f 117/279/227 104/248/227 112/269/227
f 109/256/228 105/250/228 118/280/228
f 118/280/229 105/250/229 116/277/229
f 108/281/230 109/282/230 119/283/230
f 108/281/231 119/283/231 111/284/231
f 119/283/232 109/282/232 118/285/232
f 119/283/233 113/286/233 111/284/233
f 120/287/234 121/288/234 112/289/234
f 120/287/235 112/289/235 113/286/235
f 112/289/236 121/288/236 117/290/236
f 119/283/237 118/285/237 113/286/237
f 116/291/238 120/287/238 113/286/238
f 113/286/239 118/285/239 116/291/239
f 114/276/240 122/292/240 115/275/240
f 122/293/241 114/274/241 117/279/241
f 122/294/242 121/288/242 115/295/242
f 121/288/243 120/287/243 115/295/243
f 115/295/244 120/287/244 116/291/244
f 117/279/245 121/296/245 122/293/245
