# Blender v3.5.0 OBJ File: ''
# www.blender.org
mtllib trapezium_rvs.mtl
o trapezium_rvs.vtp_trapezium_rvs.vtp.009
v -0.013478 -0.028482 -0.023544
v -0.014759 -0.029577 -0.021955
v -0.013378 -0.030132 -0.023299
v -0.012625 -0.026658 -0.023891
v -0.014960 -0.027568 -0.021816
v -0.010990 -0.026772 -0.025112
v -0.014058 -0.031391 -0.020388
v -0.015345 -0.029030 -0.019783
v -0.010899 -0.033452 -0.022304
v -0.009159 -0.029500 -0.023953
v -0.010059 -0.032760 -0.023660
v -0.011736 -0.024530 -0.024965
v -0.013815 -0.025067 -0.022343
v -0.010508 -0.025801 -0.025726
v -0.014902 -0.026972 -0.019831
v -0.008968 -0.026663 -0.025670
v -0.014891 -0.029595 -0.016850
v -0.010521 -0.029222 -0.018194
v -0.009873 -0.033762 -0.022566
v -0.008902 -0.033417 -0.022277
v -0.006700 -0.026355 -0.025429
v -0.003558 -0.028474 -0.021903
v -0.002167 -0.026926 -0.022370
v -0.002533 -0.029459 -0.020678
v -0.005456 -0.031668 -0.020837
v -0.012207 -0.022703 -0.023746
v -0.010911 -0.022734 -0.027461
v -0.010025 -0.024350 -0.027542
v -0.011342 -0.020065 -0.022917
v -0.008699 -0.024955 -0.027509
v -0.010156 -0.020327 -0.017999
v -0.012039 -0.022690 -0.017168
v -0.009591 -0.020332 -0.016713
v -0.005885 -0.025107 -0.017849
v -0.006876 -0.028655 -0.018262
v -0.004056 -0.030579 -0.019846
v -0.004471 -0.023036 -0.030596
v -0.001450 -0.027266 -0.020885
v -0.000266 -0.025426 -0.022554
v -0.000578 -0.025557 -0.024296
v -0.003290 -0.024116 -0.028294
v -0.002142 -0.026613 -0.018900
v -0.011490 -0.020078 -0.025490
v -0.010737 -0.017821 -0.023901
v -0.012453 -0.020541 -0.028862
v -0.012479 -0.019077 -0.027941
v -0.009687 -0.023024 -0.030425
v -0.008006 -0.024000 -0.030073
v -0.010539 -0.018491 -0.020962
v -0.009885 -0.016895 -0.022929
v -0.009832 -0.019345 -0.017597
v -0.008492 -0.019202 -0.016823
v -0.004335 -0.021510 -0.016502
v 0.000023 -0.021811 -0.017076
v -0.001261 -0.024995 -0.019414
v -0.007879 -0.021915 -0.032817
v -0.002836 -0.021991 -0.031109
v -0.004730 -0.020990 -0.031989
v -0.000387 -0.023757 -0.021157
v 0.001772 -0.022635 -0.022373
v 0.001183 -0.024175 -0.023534
v -0.001471 -0.022517 -0.029116
v -0.011664 -0.018398 -0.026580
v -0.011836 -0.017780 -0.027920
v -0.012217 -0.018415 -0.027951
v -0.009851 -0.021245 -0.031520
v -0.010476 -0.016731 -0.020158
v -0.010229 -0.016254 -0.020862
v -0.008539 -0.015414 -0.023029
v -0.007883 -0.016026 -0.024376
v -0.007846 -0.017488 -0.018681
v -0.004993 -0.016321 -0.020618
v -0.003628 -0.020184 -0.016119
v 0.000639 -0.019188 -0.016258
v 0.000130 -0.021502 -0.018520
v 0.000467 -0.022136 -0.019816
v -0.007133 -0.019841 -0.031365
v -0.002452 -0.020227 -0.030090
v -0.005468 -0.019390 -0.030757
v 0.001275 -0.018865 -0.022414
v 0.002789 -0.021309 -0.023832
v -0.010175 -0.017343 -0.029140
v -0.009030 -0.016713 -0.028751
v -0.008338 -0.017966 -0.030325
v -0.003856 -0.014558 -0.022886
v -0.004832 -0.014509 -0.024840
v -0.004517 -0.015017 -0.026721
v -0.001233 -0.012933 -0.024164
v 0.000448 -0.014450 -0.021926
v 0.000777 -0.015797 -0.020333
v 0.000785 -0.015900 -0.021483
v -0.002013 -0.016116 -0.028774
v -0.004435 -0.018333 -0.030175
v -0.006851 -0.016590 -0.028912
v -0.005751 -0.016931 -0.029528
v 0.001087 -0.014687 -0.023347
v 0.002969 -0.015425 -0.024783
v 0.002597 -0.015487 -0.026211
v -0.002484 -0.012955 -0.024647
v -0.000706 -0.012608 -0.025673
v -0.000456 -0.013656 -0.027272
v -0.004785 -0.016457 -0.028346
v -0.003131 -0.014810 -0.027747
v -0.000075 -0.013117 -0.023707
v 0.001373 -0.013173 -0.025719
vt 0.144991 0.075223
vt 0.135938 0.026720
vt 0.175207 0.046722
vt 0.128459 0.123784
vt 0.095959 0.058145
vt 0.163687 0.155455
vt 0.173890 0.000000
vt 0.864244 0.077907
vt 0.838149 0.113740
vt 0.820303 0.052673
vt 0.849686 0.022876
vt 0.273038 0.026722
vt 0.239109 0.133963
vt 0.280752 0.059433
vt 0.110144 0.181506
vt 0.073083 0.124526
vt 0.157159 0.183658
vt 0.806187 0.176409
vt 0.791163 0.095745
vt 0.198804 0.194902
vt 0.765575 0.000000
vt 0.596191 0.068680
vt 0.493668 0.117152
vt 0.540988 0.021366
vt 0.439415 0.000000
vt 0.297305 0.040188
vt 0.394734 0.022005
vt 0.411822 0.002724
vt 0.231248 0.238662
vt 0.956961 0.641583
vt 0.941739 0.692947
vt 0.916580 0.521171
vt 0.987355 0.644343
vt 1.000000 0.555585
vt 0.116384 0.796814
vt 0.116384 0.895391
vt 0.085217 0.816735
vt 1.000000 0.468329
vt 0.297305 0.868790
vt 0.177107 0.800341
vt 0.262140 0.771451
vt 0.100788 0.784901
vt 0.064271 0.200330
vt 0.788750 0.252101
vt 0.831186 0.237515
vt 0.849748 0.314409
vt 0.147082 0.225593
vt 0.102610 0.238433
vt 0.731115 0.295509
vt 0.180548 0.237766
vt 0.626705 0.222786
vt 0.657954 0.154241
vt 0.596191 0.251906
vt 0.565903 0.332588
vt 0.430152 0.259777
vt 0.416304 0.168049
vt 0.341365 0.104037
vt 0.325508 0.147660
vt 0.297305 0.613084
vt 0.231743 0.358499
vt 0.618090 0.765126
vt 0.613906 0.800013
vt 0.561727 0.767170
vt 0.578975 0.732699
vt 0.532655 0.705403
vt 0.558496 0.669139
vt 0.601831 0.573057
vt 0.072138 0.813234
vt 0.085217 0.784901
vt 0.085217 0.883724
vt 0.325374 0.260894
vt 0.297305 0.185072
vt 0.532170 0.806351
vt 0.151379 0.799882
vt 0.174181 0.760547
vt 0.174181 0.841149
vt 0.783154 0.333190
vt 0.716463 0.357155
vt 0.864244 0.369766
vt 0.828007 0.384188
vt 0.863276 0.289028
vt 0.141208 0.267442
vt 0.186078 0.277830
vt 0.042736 0.256536
vt 0.665361 0.300972
vt 0.677681 0.365098
vt 0.894710 0.113076
vt 0.864244 0.063269
vt 0.894710 0.000000
vt 0.596191 0.206377
vt 0.603399 0.237549
vt 0.666482 0.824010
vt 0.653609 0.796491
vt 0.690563 0.804510
vt 0.436881 0.362712
vt 0.551291 0.368993
vt 0.332331 0.399440
vt 0.318186 0.304098
vt 0.162419 0.328831
vt 0.587308 0.485026
vt 0.618090 0.513650
vt 0.196506 0.396236
vt 0.243277 0.407582
vt 0.497077 0.773802
vt 0.483969 0.718181
vt 0.940828 0.199688
vt 0.888715 0.232542
vt 0.923359 0.152989
vt 0.504922 0.664695
vt 0.454768 0.671287
vt 0.561703 0.530721
vt 0.785051 0.381280
vt 0.805193 0.412523
vt 0.004946 0.294256
vt 0.111136 0.300810
vt 0.817396 0.398606
vt 0.626854 0.323384
vt 0.632326 0.344575
vt 0.648270 0.402618
vt 0.151379 0.657615
vt 0.174262 0.613084
vt 0.174262 0.674735
vt 0.000000 0.757482
vt 0.114592 0.719331
vt 0.116384 0.784901
vt 0.692285 0.742899
vt 0.618090 0.718670
vt 0.748390 0.670972
vt 0.815144 0.799618
vt 0.435681 0.401580
vt 0.347980 0.468329
vt 0.393472 0.785821
vt 0.402971 0.749850
vt 0.325211 0.772535
vt 0.427555 0.726983
vt 0.132060 0.372130
vt 0.214055 0.441001
vt 0.536252 0.486631
vt 0.150054 0.406356
vt 0.919468 0.319200
vt 0.384024 0.629739
vt 0.864244 0.262166
vt 0.435221 0.620522
vt 0.025812 0.353820
vt 0.000000 0.311960
vt 0.000151 0.704524
vt 0.020693 0.683616
vt 0.073467 0.379842
vt 0.619115 0.696881
vt 0.646107 0.629840
vt 0.759599 0.596629
vt 0.724264 0.557924
vt 0.166135 0.760547
vt 0.116384 0.613084
vt 0.071501 0.799891
vt 0.042818 0.834647
vt 0.000000 0.784901
vt 0.813106 0.536859
vt 0.870008 0.591039
vt 0.889841 0.637345
vt 0.916580 0.761295
vt 0.318160 0.618838
vt 0.302819 0.643310
vt 0.433919 0.468329
vt 0.142545 0.515576
vt 0.146457 0.440439
vt 0.068490 0.423830
vt 0.096061 0.439572
vt 0.312442 0.562720
vt 0.885144 0.398217
vt 0.940828 0.412523
vt 0.297305 0.485612
vt 0.199778 0.595557
vt 0.151379 0.646134
vt 0.151379 0.792988
vt 0.116384 0.657245
vt 0.032585 0.383138
vt 0.050683 0.637459
vt 0.779804 0.533781
vt 0.071501 0.888011
vt 0.007816 0.874770
vt 0.120785 0.898461
vt 0.127939 0.792988
vt 0.151379 0.898461
vt 0.071288 0.482618
vt 0.099238 0.459576
vt 0.095681 0.514795
vt 0.894710 0.065746
vt 0.911465 0.000000
vt 0.911465 0.105740
vt 0.816530 0.496517
vt 0.721875 0.518040
vt 0.844368 0.541792
vt 0.297305 0.593836
vt 0.877715 0.557119
vt 0.119003 0.579557
vt 0.596191 0.441804
vt 0.613295 0.412523
vt 0.613295 0.465998
vt 0.868017 0.487896
vt 0.916580 0.519812
vt 0.125374 0.613084
vt 0.135293 0.613084
vt 0.815202 0.468329
vn 0.7193 0.1445 0.6795
vn 0.6926 -0.1916 0.6954
vn 0.7671 0.0324 0.6407
vn 0.4466 0.1578 0.8807
vn 0.5883 -0.1231 0.7992
vn 0.6607 0.6204 0.4226
vn 0.9673 0.0801 0.2408
vn 0.8842 0.4499 0.1253
vn 0.6609 0.6202 0.4226
vn 0.0746 0.4319 0.8988
vn 0.1459 0.0485 0.9881
vn 0.5266 0.5796 0.6220
vn 0.7850 -0.0154 0.6193
vn 0.6906 -0.1679 0.7035
vn 0.5954 0.1970 0.7789
vn 0.6179 0.1330 0.7749
vn 0.9126 -0.3982 0.0929
vn 0.9772 -0.2095 0.0344
vn 0.2059 0.4965 0.8433
vn 0.2162 0.4429 0.8701
vn 0.8728 0.4864 -0.0414
vn -0.2207 0.8477 -0.4823
vn 0.0186 0.6959 -0.7179
vn 0.9591 -0.2109 -0.1891
vn 0.3678 0.7160 0.5933
vn -0.0009 0.6437 -0.7653
vn -0.0025 0.6970 -0.7171
vn -0.1597 0.5190 0.8397
vn -0.3734 0.5589 0.7404
vn -0.3745 0.5441 0.7508
vn -0.3946 0.4651 0.7925
vn -0.6810 0.2499 0.6884
vn -0.4972 0.3135 0.8090
vn -0.3833 0.6207 0.6839
vn -0.4187 0.6331 0.6510
vn 0.7880 -0.1880 0.5863
vn 0.9440 0.0238 0.3291
vn 0.7473 0.4079 0.5246
vn 0.7553 0.3876 0.5285
vn 0.8976 -0.4372 0.0568
vn 0.8597 -0.3868 0.3337
vn 0.3047 0.7029 0.6427
vn 0.3462 0.6616 0.6651
vn 0.7954 -0.5970 0.1048
vn 0.8665 -0.3732 -0.3315
vn 0.8211 -0.5242 -0.2259
vn -0.1696 0.7344 0.6572
vn -0.2992 0.0798 -0.9508
vn 0.0279 0.1614 -0.9865
vn -0.0795 0.1719 -0.9819
vn -0.0381 0.1260 -0.9913
vn -0.0363 0.6978 -0.7154
vn -0.0998 0.5412 -0.8350
vn -0.0461 0.6875 -0.7247
vn -0.2051 0.8613 0.4648
vn 0.0185 0.8376 0.5460
vn -0.5619 0.3483 0.7503
vn -0.5970 0.6697 0.4416
vn -0.6156 0.7864 0.0511
vn -0.2026 0.8693 0.4508
vn -0.0145 0.9023 0.4308
vn -0.5349 0.7300 0.4254
vn -0.6618 0.4605 -0.5916
vn -0.8317 0.3718 -0.4123
vn -0.6018 0.7982 -0.0270
vn 0.9434 -0.0388 0.3294
vn 0.9563 -0.2893 -0.0423
vn 0.9543 -0.2897 -0.0739
vn 0.8391 0.3002 -0.4536
vn 0.9069 0.3601 -0.2189
vn 0.8564 0.4792 -0.1925
vn 0.3874 0.8195 0.4223
vn 0.3700 0.8334 0.4104
vn 0.7276 0.5869 0.3552
vn 0.9524 -0.1882 -0.2397
vn 0.9080 -0.4175 -0.0368
vn 0.8440 -0.3893 -0.3689
vn -0.2115 0.9332 0.2904
vn 0.6894 -0.6568 -0.3055
vn 0.9068 -0.1359 -0.3989
vn 0.9450 -0.2088 -0.2516
vn 0.4673 -0.5238 -0.7122
vn 0.1070 0.3079 -0.9454
vn 0.0150 -0.1113 -0.9937
vn -0.2029 0.1689 -0.9645
vn -0.0944 0.3845 -0.9183
vn -0.2608 0.6375 -0.7250
vn -0.3152 -0.1271 -0.9405
vn -0.2699 0.3447 -0.8991
vn -0.1279 0.7925 0.5963
vn -0.3298 0.7783 0.5343
vn -0.3541 0.4953 0.7933
vn -0.0930 0.5523 0.8285
vn -0.8505 0.3340 -0.4064
vn -0.9246 0.2584 -0.2801
vn -0.8973 0.2433 -0.3684
vn -0.6067 0.4839 -0.6307
vn -0.6310 0.7738 0.0548
vn -0.7379 0.5629 -0.3724
vn -0.6370 0.4784 0.6045
vn -0.4672 0.7620 0.4485
vn -0.4356 0.7508 0.4965
vn 0.8812 -0.1897 -0.4330
vn 0.9467 -0.1005 -0.3060
vn 0.9205 -0.2962 -0.2547
vn 0.8246 -0.5165 -0.2308
vn 0.6141 -0.3675 0.6985
vn 0.8004 -0.3090 0.5138
vn 0.7018 0.4192 0.5760
vn 0.8703 -0.3497 -0.3467
vn 0.3128 0.7492 0.5838
vn 0.5916 0.4615 0.6611
vn 0.9799 0.0528 -0.1925
vn 0.9602 -0.1438 0.2395
vn 0.9681 -0.1433 0.2056
vn 0.7132 -0.6271 0.3132
vn 0.6344 -0.5392 0.5539
vn 0.4015 -0.9159 0.0055
vn 0.3940 -0.7398 -0.5454
vn 0.2177 -0.6551 -0.7235
vn -0.0622 -0.7665 -0.6392
vn -0.1951 -0.6861 -0.7008
vn 0.1772 0.1847 -0.9667
vn -0.1072 0.3282 -0.9385
vn -0.1022 0.3180 -0.9426
vn -0.9299 0.3678 0.0098
vn -0.9718 0.2350 -0.0217
vn -0.8025 0.4264 -0.4173
vn -0.8580 0.5089 -0.0688
vn 0.2761 -0.6159 0.7379
vn -0.0530 -0.5599 0.8269
vn -0.5360 -0.3318 0.7763
vn -0.8337 -0.1287 0.5370
vn -0.1063 -0.6370 0.7635
vn -0.3325 -0.6669 0.6669
vn -0.4615 -0.0705 -0.8844
vn -0.9216 0.3540 0.1590
vn -0.7669 -0.1080 -0.6327
vn -0.8660 0.4666 -0.1796
vn -0.7383 0.4646 0.4890
vn -0.7704 -0.0600 0.6348
vn 0.8181 -0.4750 -0.3241
vn 0.6087 -0.3987 0.6859
vn 0.4057 -0.8830 0.2360
vn 0.3677 -0.9286 0.0494
vn 0.6058 -0.3770 0.7006
vn 0.3644 -0.4627 0.8082
vn 0.1556 -0.4008 0.9029
vn 0.0648 -0.8365 -0.5441
vn 0.0124 -0.8644 -0.5026
vn 0.1818 -0.9563 -0.2289
vn 0.0182 -0.7938 -0.6079
vn 0.1820 -0.9765 -0.1154
vn 0.4391 -0.7180 0.5401
vn 0.3263 -0.9432 0.0626
vn 0.4608 -0.8343 0.3025
vn 0.2616 -0.8212 -0.5072
vn 0.1192 -0.7780 -0.6169
vn 0.1009 -0.7664 -0.6344
vn 0.1004 -0.7494 -0.6544
vn 0.1480 -0.7277 -0.6697
vn -0.9995 0.0292 -0.0096
vn -0.9862 0.1510 0.0675
vn -0.9467 -0.0569 -0.3169
vn -0.9640 0.0281 -0.2644
vn -0.1502 -0.5516 0.8205
vn -0.7712 -0.1179 0.6255
vn -0.2910 -0.2634 0.9198
vn -0.2736 -0.2447 0.9302
vn -0.1817 -0.6021 0.7775
vn -0.0415 -0.4505 0.8918
vn 0.3575 -0.3843 0.8512
vn -0.9717 -0.0923 -0.2175
vn -0.7495 -0.0832 -0.6568
vn -0.6421 -0.1945 -0.7416
vn -0.4937 0.3150 0.8106
vn -0.9661 0.0697 0.2486
vn 0.1778 -0.7303 0.6596
vn 0.0905 -0.7594 0.6443
vn 0.0863 -0.8506 0.5187
vn 0.2275 -0.8018 -0.5526
vn 0.5445 -0.7864 -0.2917
vn 0.5086 -0.8060 0.3028
vn 0.3313 -0.7646 0.5529
vn 0.4947 -0.6893 0.5292
vn -0.1364 -0.7302 0.6695
vn 0.3389 -0.8993 0.2764
vn 0.4004 -0.8154 0.4181
vn 0.0870 -0.9797 -0.1806
vn -0.0631 -0.9709 -0.2311
vn 0.1200 -0.7776 -0.6172
vn -0.9748 -0.2225 0.0132
vn -0.8850 -0.3114 -0.3460
vn -0.7541 -0.6125 -0.2370
vn 0.1932 -0.6662 0.7203
vn 0.0969 -0.5626 0.8210
vn -0.4456 -0.2439 0.8614
vn 0.1919 -0.4999 0.8446
vn -0.4169 -0.6732 0.6107
vn -0.0534 -0.9110 0.4090
vn -0.6114 -0.6315 -0.4768
vn -0.6606 -0.5942 -0.4589
vn -0.8363 -0.4933 0.2393
vn -0.5156 -0.4303 0.7410
vn -0.2148 -0.8319 0.5117
vn -0.2621 -0.9513 -0.1622
usemtl Material_with_Texture.842
s off
f 1/1/1 2/2/1 3/3/1
f 1/1/2 4/4/2 5/5/2
f 1/1/3 5/5/3 2/2/3
f 6/6/4 1/1/4 3/3/4
f 4/4/5 1/1/5 6/6/5
f 2/2/6 7/7/6 3/3/6
f 2/8/7 5/9/7 8/10/7
f 2/8/8 8/10/8 7/11/8
f 3/3/9 7/7/9 9/12/9
f 6/6/10 3/3/10 10/13/10
f 11/14/11 10/13/11 3/3/11
f 11/14/12 3/3/12 9/12/12
f 4/4/13 12/15/13 13/16/13
f 13/16/14 5/5/14 4/4/14
f 14/17/15 4/4/15 6/6/15
f 14/17/16 12/15/16 4/4/16
f 5/9/17 13/18/17 15/19/17
f 15/19/18 8/10/18 5/9/18
f 10/13/19 16/20/19 6/6/19
f 14/17/20 6/6/20 16/20/20
f 8/10/21 17/21/21 7/11/21
f 17/22/22 18/23/22 7/24/22
f 7/24/23 18/23/23 9/25/23
f 8/10/24 15/19/24 17/21/24
f 19/26/25 11/14/25 9/12/25
f 20/27/26 19/28/26 9/25/26
f 20/27/27 9/25/27 18/23/27
f 16/20/28 10/13/28 21/29/28
f 22/30/29 23/31/29 10/32/29
f 24/33/30 22/30/30 10/32/30
f 25/34/31 24/33/31 10/32/31
f 20/35/32 10/36/32 11/37/32
f 25/34/33 10/32/33 20/38/33
f 10/39/34 23/40/34 21/41/34
f 11/37/35 19/42/35 20/35/35
f 13/16/36 12/15/36 26/43/36
f 26/44/37 12/45/37 27/46/37
f 28/47/38 12/15/38 14/17/38
f 27/48/39 12/15/39 28/47/39
f 13/18/40 29/49/40 15/19/40
f 26/44/41 29/49/41 13/18/41
f 28/47/42 14/17/42 30/50/42
f 14/17/43 16/20/43 30/50/43
f 31/51/44 32/52/44 15/19/44
f 32/52/45 17/21/45 15/19/45
f 29/49/46 31/51/46 15/19/46
f 16/20/47 21/29/47 30/50/47
f 17/22/48 32/53/48 18/23/48
f 32/53/49 33/54/49 18/23/49
f 33/54/50 34/55/50 18/23/50
f 18/23/51 34/55/51 35/56/51
f 25/57/52 18/23/52 36/58/52
f 18/23/53 35/56/53 36/58/53
f 25/57/54 20/27/54 18/23/54
f 21/41/55 23/40/55 37/59/55
f 21/29/56 37/60/56 30/50/56
f 22/61/57 24/62/57 38/63/57
f 38/63/58 23/64/58 22/61/58
f 23/64/59 39/65/59 40/66/59
f 41/67/60 23/64/60 40/66/60
f 41/68/61 37/69/61 23/70/61
f 38/63/62 39/65/62 23/64/62
f 42/71/63 24/72/63 36/58/63
f 42/73/64 38/63/64 24/62/64
f 36/74/65 24/75/65 25/76/65
f 26/44/66 27/46/66 43/77/66
f 26/44/67 43/77/67 44/78/67
f 29/49/68 26/44/68 44/78/68
f 27/46/69 45/79/69 46/80/69
f 43/77/70 27/46/70 46/80/70
f 45/79/71 27/46/71 28/81/71
f 47/82/72 28/47/72 48/83/72
f 28/47/73 30/50/73 48/83/73
f 47/82/74 45/84/74 28/47/74
f 31/51/75 29/49/75 49/85/75
f 50/86/76 49/85/76 29/49/76
f 44/78/77 50/86/77 29/49/77
f 37/87/78 48/88/78 30/89/78
f 31/51/79 33/90/79 32/52/79
f 51/91/80 33/90/80 31/51/80
f 49/85/81 51/91/81 31/51/81
f 33/92/82 51/93/82 52/94/82
f 33/54/83 53/95/83 34/55/83
f 53/95/84 33/54/84 52/96/84
f 34/55/85 42/71/85 35/56/85
f 53/95/86 54/97/86 34/55/86
f 55/98/87 34/55/87 54/97/87
f 34/55/88 55/98/88 42/71/88
f 42/71/89 36/58/89 35/56/89
f 56/99/90 48/83/90 37/60/90
f 41/67/91 57/100/91 37/101/91
f 37/60/92 58/102/92 56/99/92
f 58/102/93 37/60/93 57/103/93
f 55/104/94 38/63/94 42/73/94
f 55/104/95 59/105/95 38/63/95
f 39/65/96 38/63/96 59/105/96
f 59/106/97 60/107/97 39/108/97
f 39/65/98 61/109/98 40/66/98
f 61/109/99 39/65/99 60/110/99
f 40/66/100 61/109/100 41/67/100
f 62/111/101 41/67/101 61/109/101
f 41/67/102 62/111/102 57/100/102
f 46/80/103 63/112/103 43/77/103
f 63/112/104 44/78/104 43/77/104
f 64/113/105 44/78/105 63/112/105
f 44/78/106 64/113/106 50/86/106
f 65/114/107 45/84/107 66/115/107
f 46/80/108 45/79/108 65/116/108
f 45/84/109 47/82/109 66/115/109
f 65/116/110 63/112/110 46/80/110
f 47/82/111 48/83/111 56/99/111
f 66/115/112 47/82/112 56/99/112
f 49/85/113 67/117/113 51/91/113
f 68/118/114 67/117/114 49/85/114
f 68/118/115 49/85/115 50/86/115
f 69/119/116 68/118/116 50/86/116
f 69/120/117 50/121/117 70/122/117
f 64/123/118 70/124/118 50/125/118
f 71/126/119 52/94/119 51/93/119
f 71/126/120 51/93/120 67/127/120
f 52/94/121 72/128/121 73/129/121
f 71/126/122 72/128/122 52/94/122
f 52/96/123 73/130/123 53/95/123
f 73/130/124 74/131/124 53/95/124
f 54/97/125 53/95/125 74/131/125
f 54/132/126 75/133/126 55/104/126
f 75/133/127 54/132/127 74/134/127
f 55/104/128 75/133/128 76/135/128
f 76/135/129 59/105/129 55/104/129
f 66/115/130 56/99/130 77/136/130
f 58/102/131 77/136/131 56/99/131
f 57/103/132 78/137/132 58/102/132
f 57/100/133 62/111/133 78/138/133
f 79/139/134 77/136/134 58/102/134
f 78/137/135 79/139/135 58/102/135
f 59/106/136 80/140/136 60/107/136
f 76/135/137 80/141/137 59/105/137
f 80/140/138 81/142/138 60/107/138
f 81/143/139 61/109/139 60/110/139
f 62/111/140 61/109/140 81/143/140
f 81/143/141 78/138/141 62/111/141
f 65/116/142 64/113/142 63/112/142
f 82/144/143 64/145/143 65/114/143
f 82/146/144 83/147/144 64/123/144
f 70/124/145 64/123/145 83/147/145
f 82/144/146 65/114/146 66/115/146
f 84/148/147 82/144/147 66/115/147
f 77/136/148 84/148/148 66/115/148
f 67/127/149 68/149/149 71/126/149
f 68/149/150 72/128/150 71/126/150
f 69/150/151 85/151/151 68/149/151
f 85/151/152 72/128/152 68/149/152
f 69/150/153 86/152/153 85/151/153
f 86/153/154 69/120/154 70/122/154
f 83/147/155 87/154/155 70/124/155
f 87/155/156 86/156/156 70/157/156
f 85/151/157 88/158/157 72/128/157
f 72/128/158 88/158/158 89/159/158
f 90/160/159 74/161/159 72/128/159
f 90/160/160 72/128/160 89/159/160
f 72/128/161 74/161/161 73/129/161
f 91/162/162 74/134/162 90/163/162
f 75/133/163 74/134/163 91/162/163
f 80/141/164 75/133/164 91/162/164
f 75/133/165 80/141/165 76/135/165
f 77/136/166 79/139/166 84/148/166
f 92/164/167 78/138/167 81/143/167
f 92/165/168 93/166/168 78/137/168
f 79/139/169 78/137/169 93/166/169
f 94/167/170 84/148/170 79/139/170
f 93/166/171 95/168/171 79/139/171
f 95/168/172 94/167/172 79/139/172
f 80/141/173 91/162/173 96/169/173
f 80/140/174 97/170/174 81/142/174
f 97/170/175 80/140/175 96/171/175
f 81/172/176 98/173/176 92/165/176
f 98/174/177 81/175/177 97/176/177
f 83/177/178 82/144/178 84/148/178
f 83/177/179 84/148/179 94/167/179
f 83/147/180 94/178/180 87/154/180
f 85/151/181 99/179/181 88/158/181
f 86/156/182 99/180/182 85/181/182
f 99/180/183 86/156/183 87/155/183
f 100/182/184 87/183/184 101/184/184
f 87/185/185 102/186/185 103/187/185
f 87/185/186 94/167/186 102/186/186
f 103/188/187 101/189/187 87/190/187
f 100/191/188 99/179/188 87/192/188
f 88/158/189 99/179/189 100/191/189
f 88/158/190 100/191/190 104/193/190
f 88/158/191 104/193/191 89/159/191
f 89/194/192 91/162/192 90/163/192
f 89/194/193 96/169/193 91/162/193
f 89/159/194 104/193/194 96/195/194
f 93/166/195 92/165/195 102/186/195
f 92/165/196 101/196/196 103/187/196
f 98/173/197 101/196/197 92/165/197
f 103/187/198 102/186/198 92/165/198
f 95/168/199 93/166/199 102/186/199
f 95/197/200 102/198/200 94/199/200
f 96/195/201 105/200/201 97/201/201
f 104/193/202 105/200/202 96/195/202
f 98/174/203 97/176/203 105/202/203
f 105/203/204 101/196/204 98/173/204
f 105/200/205 100/191/205 101/204/205
f 105/200/206 104/193/206 100/191/206
