# Blender v3.5.0 OBJ File: ''
# www.blender.org
mtllib trapezoid_lvs.mtl
o trapezoid_lvs.vtp_trapezoid_lvs.vtp.009
v -0.008342 -0.018183 0.014597
v -0.009152 -0.018579 0.011381
v -0.005640 -0.017322 0.013969
v -0.007001 -0.018645 0.014963
v -0.012866 -0.021554 0.012787
v -0.012424 -0.022626 0.016288
v -0.005005 -0.017888 0.012336
v -0.007020 -0.018929 0.009347
v -0.007563 -0.020459 0.007417
v -0.010093 -0.022503 0.006132
v -0.011256 -0.023327 0.006809
v -0.001362 -0.019175 0.013396
v -0.004191 -0.018032 0.013093
v -0.003985 -0.022220 0.015605
v -0.015117 -0.028125 0.009671
v -0.013952 -0.025192 0.016289
v -0.008494 -0.023872 0.016299
v -0.005123 -0.023686 0.016152
v -0.002906 -0.018125 0.011902
v -0.002581 -0.018806 0.010179
v -0.011297 -0.026951 0.003743
v -0.003941 -0.023957 0.005821
v -0.004254 -0.020008 0.008510
v -0.012474 -0.028571 0.004128
v -0.014417 -0.028937 0.007008
v -0.001115 -0.018735 0.011972
v -0.000022 -0.020573 0.014252
v -0.001224 -0.025076 0.015969
v -0.000670 -0.022598 0.016138
v -0.015018 -0.029889 0.011884
v -0.014657 -0.031399 0.008937
v -0.009016 -0.025610 0.015160
v -0.005093 -0.026480 0.015521
v -0.002014 -0.026752 0.016319
v -0.000975 -0.018851 0.010678
v 0.000393 -0.020715 0.009054
v 0.000162 -0.019606 0.010179
v -0.008555 -0.028758 0.003451
v -0.010598 -0.029688 0.003593
v -0.000543 -0.023223 0.007838
v 0.000435 -0.025272 0.008175
v -0.005145 -0.026982 0.004535
v -0.002120 -0.025547 0.006657
v -0.012061 -0.030866 0.004507
v -0.013586 -0.031691 0.006527
v 0.000064 -0.019271 0.011494
v 0.003124 -0.020047 0.012583
v 0.001188 -0.023096 0.015732
v 0.000251 -0.026604 0.014827
v -0.005381 -0.027753 0.013416
v -0.004604 -0.028868 0.008963
v 0.000311 -0.028088 0.014934
v 0.003134 -0.020914 0.009476
v 0.003037 -0.020042 0.009983
v -0.009495 -0.029858 0.004318
v -0.010578 -0.030830 0.005160
v -0.002701 -0.027032 0.006592
v 0.002668 -0.026728 0.009571
v -0.003522 -0.028118 0.007517
v 0.001687 -0.025174 0.014231
v 0.001560 -0.028112 0.012979
v -0.001446 -0.028733 0.010162
v 0.002534 -0.026384 0.012282
v -0.000805 -0.028194 0.008836
v 0.002377 -0.027334 0.009885
vt 0.402962 0.228294
vt 0.481235 0.166788
vt 0.441660 0.298203
vt 0.159545 0.869831
vt 0.115808 0.792922
vt 0.169651 0.827911
vt 0.433271 0.073619
vt 0.322301 0.969320
vt 0.656501 0.972680
vt 0.504368 0.957799
vt 0.593276 0.901204
vt 0.497607 0.295556
vt 0.562815 0.201735
vt 0.623058 0.160706
vt 0.648803 0.070667
vt 0.667315 0.719582
vt 0.703706 0.711067
vt 0.703706 0.897729
vt 0.526674 0.407591
vt 0.489048 0.327024
vt 0.142298 0.653357
vt 0.262982 0.718525
vt 0.485790 0.723161
vt 0.437528 0.920843
vt 0.338737 0.844879
vt 0.402962 1.000000
vt 0.315560 0.745098
vt 0.536039 0.348731
vt 0.591928 0.336114
vt 0.744683 0.000000
vt 0.744683 0.236408
vt 0.628610 0.267173
vt 0.637266 0.581815
vt 0.587194 0.568819
vt 0.518180 0.641964
vt 0.561797 0.398517
vt 0.535235 0.452510
vt 0.183767 0.607053
vt 0.334408 0.620340
vt 0.262635 0.618558
vt 0.402962 0.739860
vt 0.422708 0.641556
vt 0.124436 0.473061
vt 0.000000 0.360763
vt 0.099085 0.243920
vt 0.067996 0.205137
vt 0.146248 0.138273
vt 0.389095 0.726661
vt 0.389400 0.634903
vt 0.598286 0.386900
vt 0.676591 0.402349
vt 0.632714 0.411358
vt 0.930952 0.093473
vt 0.870009 0.041628
vt 0.950220 0.034931
vt 0.915038 0.003108
vt 0.834662 0.285285
vt 0.724236 0.356854
vt 0.846709 0.407081
vt 0.912842 0.420033
vt 0.904533 0.211311
vt 0.895819 0.330729
vt 0.789892 0.468876
vt 0.744683 0.347120
vt 0.526749 0.531359
vt 0.464172 0.573182
vt 0.577065 0.521879
vt 0.593810 0.424827
vt 0.031838 0.591611
vt 0.000000 0.568076
vt 0.031838 0.512783
vt 0.137509 0.512783
vt 0.609779 0.521879
vt 0.263895 0.559396
vt 0.359912 0.565086
vt 0.204533 0.180231
vt 0.339824 0.222187
vt 0.215216 0.509515
vt 0.295910 0.512783
vt 0.167632 0.046417
vt 0.402962 0.554902
vt 0.242190 0.008892
vt 0.811229 0.543899
vt 0.676211 0.488689
vt 0.699915 0.483703
vt 0.966502 0.072054
vt 0.986204 0.000000
vt 0.997534 0.047655
vt 0.935378 0.302507
vt 0.977073 0.484980
vt 0.971570 0.285082
vt 0.369786 0.443623
vt 0.367442 0.492252
vt 0.857018 0.543899
vt 0.932042 0.550928
vt 0.790377 0.700053
vt 0.744683 0.636145
vt 0.758734 0.748070
vt 0.754405 0.792017
vt 0.822315 0.792017
vt 0.349724 0.120717
vt 0.390213 0.206813
vt 0.311884 0.000000
vt 0.946650 0.577949
vt 0.932987 0.754232
vt 0.853198 0.737477
vt 0.402962 0.419263
vt 0.997534 0.372910
vt 0.920573 0.772943
vt 0.996122 0.476779
vt 0.391813 0.117001
vt 0.402962 0.012520
vn 0.3115 -0.9495 0.0385
vn 0.0083 -0.6061 -0.7954
vn 0.6110 -0.7896 -0.0567
vn 0.0967 -0.4304 -0.8975
vn 0.6441 -0.7049 -0.2971
vn 0.0743 -0.9329 0.3523
vn 0.3628 -0.7772 0.5141
vn 0.3655 -0.7758 0.5144
vn 0.6701 -0.6471 0.3636
vn 0.6620 -0.6510 0.3714
vn 0.0981 -0.9585 0.2677
vn -0.3825 -0.9173 0.1108
vn -0.2808 -0.3750 -0.8835
vn -0.3381 -0.9221 0.1881
vn -0.2803 -0.3937 -0.8755
vn -0.0674 -0.2312 -0.9706
vn 0.9498 -0.3116 -0.0291
vn 0.8305 -0.4946 -0.2563
vn 0.8204 -0.4490 0.3541
vn 0.0022 -0.0017 -1.0000
vn -0.0364 -0.1236 -0.9917
vn -0.0622 -0.3062 -0.9499
vn -0.1234 -0.9908 -0.0558
vn -0.0336 -0.9366 0.3489
vn -0.0978 -0.7663 0.6350
vn -0.0417 -0.9319 0.3604
vn -0.0840 -0.4538 0.8872
vn -0.1891 -0.5629 0.8046
vn -0.0601 -0.4652 0.8832
vn -0.1137 -0.7486 0.6531
vn 0.6703 -0.4837 0.5628
vn 0.7537 -0.4294 0.4975
vn 0.8205 -0.4498 0.3528
vn 0.7760 -0.4206 0.4701
vn -0.3320 -0.8982 -0.2881
vn -0.2930 -0.8980 -0.3283
vn -0.5717 -0.7507 -0.3311
vn -0.0515 -0.5570 -0.8289
vn -0.1350 -0.2527 -0.9581
vn 0.1621 0.0310 -0.9863
vn 0.0382 -0.6876 -0.7251
vn 0.9863 -0.1044 -0.1274
vn 0.9904 0.1265 0.0565
vn 0.9697 0.0849 0.2290
vn -0.1045 0.6928 -0.7135
vn -0.1367 0.5714 -0.8092
vn 0.1884 0.4981 -0.8464
vn -0.0546 0.2194 -0.9741
vn 0.2628 0.2152 -0.9405
vn -0.1021 -0.1570 -0.9823
vn -0.3183 -0.9006 0.2959
vn -0.0538 -0.9951 0.0834
vn -0.1871 -0.6985 0.6907
vn -0.2171 -0.7443 0.6315
vn -0.2093 -0.7175 0.6644
vn 0.0843 -0.0331 0.9959
vn 0.2854 0.0204 0.9582
vn -0.1249 -0.3401 0.9321
vn -0.3362 -0.5481 0.7658
vn -0.4933 -0.0932 0.8649
vn -0.1132 -0.3502 0.9298
vn -0.5185 -0.1514 0.8416
vn -0.4977 -0.1183 0.8592
vn -0.1644 -0.3800 0.9103
vn 0.7263 0.2372 0.6452
vn 0.8114 0.1460 0.5660
vn 0.3852 0.2174 0.8968
vn 0.9031 0.2068 0.3763
vn -0.4005 -0.9155 0.0387
vn -0.5062 -0.7737 -0.3810
vn -0.2948 -0.5990 -0.7445
vn -0.0762 -0.9007 -0.4276
vn -0.3496 0.3205 -0.8804
vn -0.5520 0.0870 -0.8293
vn -0.1845 0.1079 -0.9769
vn -0.3188 -0.5754 -0.7532
vn -0.0122 0.6186 -0.7856
vn -0.2149 0.8583 -0.4661
vn -0.1679 0.9490 -0.2669
vn -0.2376 0.9461 -0.2202
vn 0.2300 0.8185 -0.5265
vn 0.2093 0.8238 -0.5268
vn -0.5445 -0.0822 -0.8347
vn 0.1842 0.8435 -0.5045
vn -0.4876 -0.8541 0.1812
vn -0.1676 -0.3787 0.9102
vn -0.0614 -0.7171 0.6943
vn -0.1670 -0.5094 0.8442
vn -0.1300 -0.9631 0.2357
vn -0.2910 0.7331 0.6147
vn -0.5200 0.7567 0.3962
vn -0.2696 0.7766 0.5694
vn -0.2555 0.7798 0.5715
vn -0.3887 -0.0341 0.9207
vn -0.5168 0.1654 0.8399
vn -0.5035 0.0544 0.8622
vn -0.4871 0.0862 0.8691
vn -0.4861 0.6953 0.5294
vn -0.6267 0.2124 0.7498
vn -0.4160 0.7511 0.5126
vn -0.1455 0.9495 0.2780
vn -0.2905 0.9562 -0.0370
vn -0.2480 -0.9687 0.0064
vn -0.9596 0.2795 0.0326
vn -0.8898 0.1068 -0.4437
vn -0.6331 0.3475 -0.6916
vn -0.8409 -0.0727 -0.5363
vn -0.6226 0.3294 -0.7098
vn 0.0476 0.9709 -0.2348
vn 0.1031 0.9800 -0.1704
vn -0.4017 0.9005 0.1665
vn -0.1719 0.9212 0.3491
vn -0.1206 0.9887 -0.0892
vn -0.9500 0.0712 -0.3042
vn -0.9967 0.0585 -0.0567
vn -0.9285 -0.0593 -0.3667
vn -0.4393 0.8156 0.3766
vn -0.2788 0.7361 0.6168
vn -0.4052 0.6258 0.6664
vn -0.9157 0.3906 -0.0948
vn -0.3920 0.5646 0.7263
vn -0.1288 0.9388 0.3194
vn -0.8192 0.2544 -0.5140
vn -0.8848 0.4501 -0.1205
vn -0.3305 0.9323 0.1472
vn -0.3213 0.9213 0.2192
usemtl Material_with_Texture.843
s off
f 1/1/1 2/2/1 3/3/1
f 1/4/2 3/5/2 4/6/2
f 2/2/3 1/1/3 5/7/3
f 4/6/4 6/8/4 1/4/4
f 1/9/5 6/10/5 5/11/5
f 2/2/6 7/12/6 3/3/6
f 8/13/7 2/2/7 9/14/7
f 10/15/8 9/14/8 2/2/8
f 11/16/9 10/17/9 2/18/9
f 11/16/10 2/18/10 5/11/10
f 7/12/11 2/2/11 8/13/11
f 12/19/12 3/3/12 13/20/12
f 3/5/13 12/21/13 4/6/13
f 13/20/14 3/3/14 7/12/14
f 14/22/15 4/6/15 12/21/15
f 6/8/16 4/6/16 14/22/16
f 15/23/17 5/11/17 16/24/17
f 16/24/18 5/11/18 6/10/18
f 15/23/19 11/16/19 5/11/19
f 17/25/20 16/26/20 6/8/20
f 18/27/21 17/25/21 6/8/21
f 18/27/22 6/8/22 14/22/22
f 13/20/23 7/12/23 19/28/23
f 7/12/24 8/13/24 19/28/24
f 9/14/25 20/29/25 8/13/25
f 8/13/26 20/29/26 19/28/26
f 9/14/27 10/15/27 21/30/27
f 22/31/28 23/32/28 9/14/28
f 22/31/29 9/14/29 21/30/29
f 9/14/30 23/32/30 20/29/30
f 10/17/31 11/16/31 21/33/31
f 21/33/32 11/16/32 24/34/32
f 15/23/33 25/35/33 11/16/33
f 24/34/34 11/16/34 25/35/34
f 13/20/35 19/28/35 12/19/35
f 19/28/36 26/36/36 12/19/36
f 12/19/37 26/36/37 27/37/37
f 12/21/38 27/38/38 14/22/38
f 14/22/39 28/39/39 18/27/39
f 14/22/40 29/40/40 28/39/40
f 27/38/41 29/40/41 14/22/41
f 30/41/42 15/23/42 16/24/42
f 30/41/43 31/42/43 15/23/43
f 15/23/44 31/42/44 25/35/44
f 30/43/45 16/44/45 32/45/45
f 16/44/46 17/46/46 32/45/46
f 33/47/47 32/45/47 17/46/47
f 17/25/48 18/27/48 33/48/48
f 18/27/49 34/49/49 33/48/49
f 18/27/50 28/39/50 34/49/50
f 26/36/51 19/28/51 20/29/51
f 20/29/52 35/50/52 26/36/52
f 20/29/53 23/32/53 36/51/53
f 35/50/54 20/29/54 37/52/54
f 20/29/55 36/51/55 37/52/55
f 38/53/56 21/54/56 39/55/56
f 39/55/57 21/54/57 24/56/57
f 38/53/58 22/57/58 21/54/58
f 23/32/59 22/31/59 40/58/59
f 40/59/60 22/57/60 41/60/60
f 38/53/61 42/61/61 22/57/61
f 22/57/62 42/61/62 43/62/62
f 41/60/63 22/57/63 43/62/63
f 40/59/64 36/63/64 23/64/64
f 44/65/65 24/34/65 45/66/65
f 25/35/66 45/66/66 24/34/66
f 39/67/67 24/34/67 44/65/67
f 31/42/68 45/66/68 25/35/68
f 46/68/69 26/36/69 35/50/69
f 26/69/70 46/70/70 27/71/70
f 47/72/71 29/40/71 27/38/71
f 27/37/72 46/68/72 47/73/72
f 48/74/73 49/75/73 28/39/73
f 49/75/74 34/49/74 28/39/74
f 48/74/75 28/39/75 29/40/75
f 29/40/76 47/72/76 48/74/76
f 50/76/77 30/43/77 32/45/77
f 51/77/78 31/78/78 30/43/78
f 30/43/79 50/76/79 51/77/79
f 31/78/80 51/77/80 45/79/80
f 32/45/81 33/47/81 50/76/81
f 33/47/82 34/80/82 50/76/82
f 34/49/83 49/75/83 52/81/83
f 34/80/84 52/82/84 50/76/84
f 37/52/85 46/68/85 35/50/85
f 36/63/86 40/59/86 53/83/86
f 36/51/87 54/84/87 37/52/87
f 36/51/88 53/85/88 54/84/88
f 46/68/89 37/52/89 54/84/89
f 55/86/90 38/53/90 39/55/90
f 55/86/91 42/61/91 38/53/91
f 39/55/92 44/87/92 56/88/92
f 55/86/93 39/55/93 56/88/93
f 40/59/94 41/60/94 53/83/94
f 41/60/95 43/62/95 57/89/95
f 41/60/96 58/90/96 53/83/96
f 41/60/97 57/89/97 58/90/97
f 42/61/98 55/86/98 59/91/98
f 57/89/99 43/62/99 42/61/99
f 59/91/100 57/89/100 42/61/100
f 45/79/101 56/92/101 44/93/101
f 45/79/102 51/77/102 56/92/102
f 46/68/103 54/84/103 47/73/103
f 47/94/104 54/95/104 60/96/104
f 60/96/105 48/97/105 47/94/105
f 49/98/106 48/97/106 60/96/106
f 52/99/107 49/98/107 61/100/107
f 60/96/108 61/100/108 49/98/108
f 62/101/109 51/77/109 50/76/109
f 50/76/110 52/82/110 62/101/110
f 56/92/111 51/77/111 59/102/111
f 59/102/112 51/77/112 62/101/112
f 52/82/113 61/103/113 62/101/113
f 53/104/114 58/105/114 54/95/114
f 58/105/115 63/106/115 54/95/115
f 60/96/116 54/95/116 63/106/116
f 55/107/117 56/92/117 59/102/117
f 64/108/118 57/89/118 59/91/118
f 64/108/119 58/90/119 57/89/119
f 63/106/120 58/105/120 65/109/120
f 64/108/121 65/110/121 58/90/121
f 64/111/122 59/102/122 62/101/122
f 61/100/123 60/96/123 63/106/123
f 61/100/124 63/106/124 65/109/124
f 65/112/125 62/101/125 61/103/125
f 62/101/126 65/112/126 64/111/126
