# Blender 4.3.0
# www.blender.org
mtllib anchor1.mtl
o anchor1
v -0.250000 0.000000 0.300000
v -0.250000 0.000000 0.400000
v -0.250000 0.100000 0.400000
v -0.250000 0.100000 0.300000
v 0.250000 0.000000 0.300000
v 0.250000 0.100000 0.300000
v 0.250000 0.100000 0.400000
v 0.250000 0.000000 0.400000
v -0.250000 0.000000 0.300000
v 0.250000 0.000000 0.300000
v 0.250000 0.000000 0.400000
v -0.250000 0.000000 0.400000
v -0.250000 0.100000 0.300000
v -0.250000 0.100000 0.400000
v 0.250000 0.100000 0.400000
v 0.250000 0.100000 0.300000
v -0.250000 0.000000 0.300000
v -0.250000 0.100000 0.300000
v 0.250000 0.100000 0.300000
v 0.250000 0.000000 0.300000
v -0.250000 0.000000 0.400000
v 0.250000 0.000000 0.400000
v 0.250000 0.100000 0.400000
v -0.250000 0.100000 0.400000
vn -1.0000 -0.0000 -0.0000
vn 1.0000 -0.0000 -0.0000
vn -0.0000 -1.0000 -0.0000
vn -0.0000 1.0000 -0.0000
vn -0.0000 -0.0000 -1.0000
vn -0.0000 -0.0000 1.0000
vt 1.000000 0.400000
vt 0.800000 0.400000
vt 0.800000 0.200000
vt 1.000000 0.200000
vt 1.000000 0.000000
vt 0.800000 0.000000
vt 0.800000 1.000000
vt 0.600000 1.000000
vt 0.600000 0.000000
vt 0.400000 1.000000
vt 0.400000 0.000000
vt 0.000000 0.000000
vt 0.200000 0.000000
vt 0.200000 1.000000
vt 0.000000 1.000000
s 1
usemtl Material_with_Texture
f 1/1/1 2/2/1 3/3/1 4/4/1
f 5/5/2 6/4/2 7/3/2 8/6/2
f 9/6/3 10/7/3 11/8/3 12/9/3
f 13/8/4 14/10/4 15/11/4 16/9/4
f 17/12/5 18/13/5 19/14/5 20/15/5
f 21/14/6 22/13/6 23/11/6 24/10/6
