# Blender 4.3.0
# www.blender.org
mtllib arrow.mtl
o arrow
v 0.650000 -0.030000 0.000000
v 0.000000 -0.030000 0.000000
v 0.000000 -0.028532 -0.009271
v 0.650000 -0.028532 -0.009271
v 0.000000 -0.024271 -0.017634
v 0.650000 -0.024271 -0.017634
v 0.000000 -0.017634 -0.024271
v 0.650000 -0.017634 -0.024271
v 0.000000 -0.009271 -0.028532
v 0.650000 -0.009271 -0.028532
v 0.000000 -0.000000 -0.030000
v 0.650000 -0.000000 -0.030000
v 0.000000 0.009271 -0.028532
v 0.650000 0.009271 -0.028532
v 0.000000 0.017634 -0.024271
v 0.650000 0.017634 -0.024271
v 0.000000 0.024271 -0.017634
v 0.650000 0.024271 -0.017634
v 0.000000 0.028532 -0.009271
v 0.650000 0.028532 -0.009271
v 0.000000 0.030000 -0.000000
v 0.650000 0.030000 -0.000000
v 0.000000 0.028532 0.009271
v 0.650000 0.028532 0.009271
v 0.000000 0.024271 0.017634
v 0.650000 0.024271 0.017634
v 0.000000 0.017634 0.024271
v 0.650000 0.017634 0.024271
v 0.000000 0.009271 0.028532
v 0.650000 0.009271 0.028532
v 0.000000 0.000000 0.030000
v 0.650000 0.000000 0.030000
v 0.000000 -0.009271 0.028532
v 0.650000 -0.009271 0.028532
v 0.000000 -0.017634 0.024271
v 0.650000 -0.017634 0.024271
v 0.000000 -0.024271 0.017634
v 0.650000 -0.024271 0.017634
v 0.000000 -0.028532 0.009271
v 0.650000 -0.028532 0.009271
v 0.650000 -0.030000 0.000000
v 0.650000 -0.028532 -0.009271
v 0.650000 -0.024271 -0.017634
v 0.650000 -0.017634 -0.024271
v 0.650000 -0.009271 -0.028532
v 0.650000 -0.000000 -0.030000
v 0.650000 0.009271 -0.028532
v 0.650000 0.017634 -0.024271
v 0.650000 0.024271 -0.017634
v 0.650000 0.028532 -0.009271
v 0.650000 0.030000 -0.000000
v 0.650000 0.028532 0.009271
v 0.650000 0.024271 0.017634
v 0.650000 0.017634 0.024271
v 0.650000 0.009271 0.028532
v 0.650000 0.000000 0.030000
v 0.650000 -0.009271 0.028532
v 0.650000 -0.017634 0.024271
v 0.650000 -0.024271 0.017634
v 0.650000 -0.028532 0.009271
v 0.000000 -0.028532 0.009271
v 0.000000 -0.024271 0.017634
v 0.000000 -0.017634 0.024271
v 0.000000 -0.009271 0.028532
v 0.000000 0.000000 0.030000
v 0.000000 0.009271 0.028532
v 0.000000 0.017634 0.024271
v 0.000000 0.024271 0.017634
v 0.000000 0.028532 0.009271
v 0.000000 0.030000 -0.000000
v 0.000000 0.028532 -0.009271
v 0.000000 0.024271 -0.017634
v 0.000000 0.017634 -0.024271
v 0.000000 0.009271 -0.028532
v 0.000000 -0.000000 -0.030000
v 0.000000 -0.009271 -0.028532
v 0.000000 -0.017634 -0.024271
v 0.000000 -0.024271 -0.017634
v 0.000000 -0.028532 -0.009271
v 0.000000 -0.030000 0.000000
v 0.650000 0.095106 -0.030902
v 0.650000 0.080902 -0.058779
v 0.650000 0.058779 -0.080902
v 0.650000 0.030902 -0.095106
v 0.650000 -0.000000 -0.100000
v 0.650000 -0.030902 -0.095106
v 0.650000 -0.058779 -0.080902
v 0.650000 -0.080902 -0.058779
v 0.650000 -0.095106 -0.030902
v 0.650000 -0.100000 0.000000
v 0.650000 -0.095106 0.030902
v 0.650000 -0.080902 0.058779
v 0.650000 -0.058779 0.080902
v 0.650000 -0.030902 0.095106
v 0.650000 0.000000 0.100000
v 0.650000 0.030902 0.095106
v 0.650000 0.058779 0.080902
v 0.650000 0.080902 0.058779
v 0.650000 0.095106 0.030902
v 0.650000 0.100000 -0.000000
v 1.000000 0.000000 0.000000
vn -0.0000 -1.0000 -0.0000
vn -0.0000 -0.9511 -0.3090
vn -0.0000 -0.8090 -0.5878
vn -0.0000 -0.5878 -0.8090
vn -0.0000 -0.3090 -0.9511
vn -0.0000 -0.0000 -1.0000
vn -0.0000 0.3090 -0.9511
vn -0.0000 0.5878 -0.8090
vn -0.0000 0.8090 -0.5878
vn -0.0000 0.9511 -0.3090
vn -0.0000 1.0000 -0.0000
vn -0.0000 0.9511 0.3090
vn -0.0000 0.8090 0.5878
vn -0.0000 0.5878 0.8090
vn -0.0000 0.3090 0.9511
vn -0.0000 -0.0000 1.0000
vn -0.0000 -0.3090 0.9511
vn -0.0000 -0.5878 0.8090
vn -0.0000 -0.8090 0.5878
vn -0.0000 -0.9511 0.3090
vn 1.0000 -0.0000 -0.0000
vn -1.0000 -0.0000 -0.0000
vn -0.5667 0.7836 -0.2546
vn -0.5667 0.6666 -0.4843
vn -0.5667 0.4843 -0.6666
vn -0.5667 0.2546 -0.7836
vn -0.5667 -0.0000 -0.8240
vn -0.5667 -0.2546 -0.7836
vn -0.5667 -0.4843 -0.6666
vn -0.5667 -0.6666 -0.4843
vn -0.5667 -0.7836 -0.2546
vn -0.5667 -0.8240 -0.0000
vn -0.5667 -0.7836 0.2546
vn -0.5667 -0.6666 0.4843
vn -0.5667 -0.4843 0.6666
vn -0.5667 -0.2546 0.7836
vn -0.5667 -0.0000 0.8240
vn -0.5667 0.2546 0.7836
vn -0.5667 0.4843 0.6666
vn -0.5667 0.6666 0.4843
vn -0.5667 0.7836 0.2546
vn -0.5667 0.8240 -0.0000
vt 0.801541 0.001645
vt 0.801541 0.889674
vt 0.788587 0.889674
vt 0.788587 0.001645
vt 0.776268 0.889107
vt 0.776268 0.001078
vt 0.765788 0.888029
vt 0.765788 0.000000
vt 0.882894 0.000000
vt 0.882894 0.888029
vt 0.872414 0.889107
vt 0.872414 0.001078
vt 0.860094 0.889674
vt 0.860094 0.001645
vt 0.847140 0.889674
vt 0.847140 0.001645
vt 0.834821 0.889107
vt 0.834821 0.001078
vt 0.824341 0.888029
vt 0.824341 0.000000
vt 0.941447 0.889674
vt 0.941447 0.001645
vt 0.951927 0.000567
vt 0.951927 0.888596
vt 0.964247 0.000000
vt 0.964247 0.888029
vt 0.977200 0.000000
vt 0.977200 0.888029
vt 0.989520 0.000567
vt 0.989520 0.888596
vt 1.000000 0.001645
vt 1.000000 0.889674
vt 0.941447 0.000000
vt 0.941447 0.888029
vt 0.930967 0.889107
vt 0.930967 0.001078
vt 0.918647 0.889674
vt 0.918647 0.001645
vt 0.905694 0.889674
vt 0.905694 0.001645
vt 0.893374 0.889107
vt 0.893374 0.001078
vt 0.813861 0.889107
vt 0.813861 0.001078
vt 0.335524 0.583362
vt 0.323204 0.579359
vt 0.312724 0.571745
vt 0.305110 0.561265
vt 0.301107 0.548946
vt 0.301107 0.535992
vt 0.305110 0.523672
vt 0.312724 0.513192
vt 0.323204 0.505578
vt 0.335524 0.501575
vt 0.348477 0.501575
vt 0.360797 0.505578
vt 0.371277 0.513192
vt 0.378891 0.523672
vt 0.382894 0.535992
vt 0.382894 0.548945
vt 0.378891 0.561265
vt 0.371277 0.571745
vt 0.360797 0.579359
vt 0.348477 0.583362
vt 0.442584 0.505578
vt 0.453064 0.513192
vt 0.460678 0.523672
vt 0.464681 0.535992
vt 0.464681 0.548946
vt 0.460678 0.561265
vt 0.453064 0.571745
vt 0.442584 0.579359
vt 0.430264 0.583362
vt 0.417311 0.583362
vt 0.404991 0.579359
vt 0.394511 0.571745
vt 0.386897 0.561265
vt 0.382894 0.548946
vt 0.386897 0.523672
vt 0.394511 0.513192
vt 0.404991 0.505578
vt 0.417311 0.501575
vt 0.430264 0.501575
vt 0.233900 0.735475
vt 0.198967 0.760855
vt 0.157901 0.774199
vt 0.114722 0.774199
vt 0.073656 0.760855
vt 0.038723 0.735475
vt 0.013343 0.700543
vt 0.000000 0.659477
vt 0.000000 0.616297
vt 0.013343 0.575231
vt 0.038723 0.540298
vt 0.073656 0.514918
vt 0.114722 0.501575
vt 0.157901 0.501575
vt 0.198967 0.514918
vt 0.233900 0.540298
vt 0.259280 0.575231
vt 0.272623 0.616297
vt 0.272623 0.659477
vt 0.259280 0.700543
vt 0.574341 0.501575
vt 0.456373 0.017808
vt 0.498727 0.009407
vt 0.539376 0.003271
vt 0.574341 0.000000
vt 0.382894 0.000000
vt 0.382894 0.501575
vt 0.347929 0.498304
vt 0.307281 0.492168
vt 0.264926 0.483767
vt 0.225013 0.473923
vt 0.191447 0.463601
vt 0.765788 0.501575
vt 0.574341 0.037974
vt 0.607907 0.027652
vt 0.647820 0.017808
vt 0.690174 0.009407
vt 0.730823 0.003271
vt 0.191447 0.000000
vt 0.191447 0.501575
vt 0.156482 0.498304
vt 0.115834 0.492168
vt 0.073479 0.483767
vt 0.033566 0.473923
vt 0.000000 0.463601
vt 0.382894 0.037974
vt 0.416460 0.027652
s 1
usemtl Material_with_Texture.032
f 1/1/1 2/2/1 3/3/2 4/4/2
f 4/4/2 3/3/2 5/5/3 6/6/3
f 6/6/3 5/5/3 7/7/4 8/8/4
f 8/9/4 7/10/4 9/11/5 10/12/5
f 10/12/5 9/11/5 11/13/6 12/14/6
f 12/14/6 11/13/6 13/15/7 14/16/7
f 14/16/7 13/15/7 15/17/8 16/18/8
f 16/18/8 15/17/8 17/19/9 18/20/9
f 18/21/9 17/22/9 19/23/10 20/24/10
f 20/24/10 19/23/10 21/25/11 22/26/11
f 22/26/11 21/25/11 23/27/12 24/28/12
f 24/28/12 23/27/12 25/29/13 26/30/13
f 26/30/13 25/29/13 27/31/14 28/32/14
f 28/33/14 27/34/14 29/35/15 30/36/15
f 30/36/15 29/35/15 31/37/16 32/38/16
f 32/38/16 31/37/16 33/39/17 34/40/17
f 34/40/17 33/39/17 35/41/18 36/42/18
f 36/42/18 35/41/18 37/10/19 38/9/19
f 38/20/19 37/19/19 39/43/20 40/44/20
f 40/44/20 39/43/20 2/2/1 1/1/1
f 41/45/21 42/46/21 43/47/21 44/48/21 45/49/21 46/50/21 47/51/21 48/52/21 49/53/21 50/54/21 51/55/21 52/56/21 53/57/21 54/58/21 55/59/21 56/60/21 57/61/21 58/62/21 59/63/21 60/64/21
f 61/65/22 62/66/22 63/67/22 64/68/22 65/69/22 66/70/22 67/71/22 68/72/22 69/73/22 70/74/22 71/75/22 72/76/22 73/77/22 74/78/22 75/59/22 76/79/22 77/80/22 78/81/22 79/82/22 80/83/22
f 81/84/23 82/85/24 83/86/25 84/87/26 85/88/27 86/89/28 87/90/29 88/91/30 89/92/31 90/93/32 91/94/33 92/95/34 93/96/35 94/97/36 95/98/37 96/99/38 97/100/39 98/101/40 99/102/41 100/103/42
f 101/104/21 100/105/42 99/106/41
f 101/104/21 99/106/41 98/107/40
f 101/104/21 98/107/40 97/108/39
f 101/109/21 97/110/39 96/111/38
f 101/109/21 96/111/38 95/112/37
f 101/109/21 95/112/37 94/113/36
f 101/109/21 94/113/36 93/114/35
f 101/109/21 93/114/35 92/115/34
f 101/116/21 92/117/34 91/118/33
f 101/116/21 91/118/33 90/119/32
f 101/116/21 90/119/32 89/120/31
f 101/116/21 89/120/31 88/121/30
f 101/116/21 88/121/30 87/8/29
f 101/122/21 87/123/29 86/124/28
f 101/122/21 86/124/28 85/125/27
f 101/122/21 85/125/27 84/126/26
f 101/122/21 84/126/26 83/127/25
f 101/122/21 83/127/25 82/128/24
f 101/104/21 82/129/24 81/130/23
f 101/104/21 81/130/23 100/105/42
