# Blender 4.3.0
# www.blender.org
mtllib block.mtl
o block
v -0.050000 -0.050000 -0.050000
v -0.050000 -0.050000 0.050000
v -0.050000 0.050000 0.050000
v -0.050000 0.050000 -0.050000
v 0.050000 -0.050000 -0.050000
v 0.050000 0.050000 -0.050000
v 0.050000 0.050000 0.050000
v 0.050000 -0.050000 0.050000
v -0.050000 -0.050000 -0.050000
v 0.050000 -0.050000 -0.050000
v 0.050000 -0.050000 0.050000
v -0.050000 -0.050000 0.050000
v -0.050000 0.050000 -0.050000
v -0.050000 0.050000 0.050000
v 0.050000 0.050000 0.050000
v 0.050000 0.050000 -0.050000
v -0.050000 -0.050000 -0.050000
v -0.050000 0.050000 -0.050000
v 0.050000 0.050000 -0.050000
v 0.050000 -0.050000 -0.050000
v -0.050000 -0.050000 0.050000
v 0.050000 -0.050000 0.050000
v 0.050000 0.050000 0.050000
v -0.050000 0.050000 0.050000
vn -1.0000 -0.0000 -0.0000
vn 1.0000 -0.0000 -0.0000
vn -0.0000 -1.0000 -0.0000
vn -0.0000 1.0000 -0.0000
vn -0.0000 -0.0000 -1.0000
vn -0.0000 -0.0000 1.0000
vt 1.000000 0.000000
vt 1.000000 0.333333
vt 0.666667 0.333333
vt 0.666667 0.000000
vt 0.000000 0.000000
vt 0.333333 0.000000
vt 0.333333 0.333333
vt 0.000000 0.333333
vt 0.333333 0.666667
vt 0.000000 0.666667
vt 0.666667 0.666667
vt 0.333333 1.000000
vt 0.000000 1.000000
s 1
usemtl Material_with_Texture.034
f 1/1/1 2/2/1 3/3/1 4/4/1
f 5/5/2 6/6/2 7/7/2 8/8/2
f 9/8/3 10/7/3 11/9/3 12/10/3
f 13/4/4 14/3/4 15/7/4 16/6/4
f 17/9/5 18/7/5 19/3/5 20/11/5
f 21/12/6 22/13/6 23/10/6 24/9/6
