# Blender 4.3.0
# www.blender.org
mtllib cerv3sm.mtl
o cerv3sm
v -0.008257 0.082988 0.000132
v -0.001465 0.090917 0.000132
v -0.000844 0.091108 -0.003659
v -0.009209 0.082845 0.000132
v -0.000844 0.091108 0.003922
v -0.004559 0.075287 -0.001858
v -0.001619 0.090236 -0.001300
v -0.004560 0.075285 0.000132
v -0.001619 0.090236 0.001564
v -0.004559 0.075287 0.002121
v 0.004154 0.094426 -0.010672
v -0.001802 0.091013 -0.004342
v -0.003730 0.085314 -0.010342
v -0.010671 0.078273 -0.004614
v -0.016349 0.077171 -0.003285
v -0.021970 0.077213 -0.003088
v -0.022050 0.079256 0.000132
v -0.021970 0.077213 0.003351
v -0.016349 0.077171 0.003548
v -0.010671 0.078273 0.004877
v -0.003730 0.085314 0.010605
v 0.004154 0.094426 0.010936
v -0.001802 0.091013 0.004605
v 0.001003 0.080574 -0.008613
v -0.010632 0.073687 -0.005847
v -0.005296 0.077762 -0.010739
v -0.010636 0.073681 0.000132
v -0.010632 0.073687 0.006110
v 0.001003 0.080574 0.008877
v -0.005296 0.077762 0.011002
v 0.008762 0.089156 -0.010742
v 0.007459 0.090621 -0.012022
v 0.002454 0.090147 -0.020035
v -0.013215 0.073592 -0.005035
v -0.019454 0.070647 -0.004896
v -0.023291 0.068767 -0.004768
v -0.027810 0.073922 -0.003779
v -0.027178 0.078226 0.000132
v -0.027810 0.073922 0.004042
v -0.023291 0.068767 0.005031
v -0.019454 0.070647 0.005160
v -0.013215 0.073592 0.005298
v 0.002454 0.090147 0.020298
v 0.007459 0.090621 0.012285
v 0.008762 0.089156 0.011005
v 0.012562 0.083481 -0.009569
v 0.009407 0.078043 -0.008602
v 0.010982 0.089269 -0.018755
v -0.002897 0.078767 -0.020208
v -0.013218 0.073587 0.000132
v -0.000302 0.084821 -0.021535
v -0.003970 0.078480 -0.015233
v 0.012562 0.083481 0.009833
v 0.009407 0.078043 0.008865
v 0.010982 0.089269 0.019019
v -0.002897 0.078767 0.020471
v -0.000302 0.084821 0.021798
v -0.003970 0.078480 0.015496
v 0.013865 0.093599 -0.008660
v 0.013850 0.095015 -0.009619
v 0.011849 0.090184 -0.011509
v 0.013230 0.090595 -0.014574
v 0.009315 0.093333 -0.016521
v 0.005220 0.086116 -0.020203
v 0.011412 0.095558 -0.021231
v -0.019457 0.070642 0.000132
v -0.023294 0.068763 0.000132
v -0.027808 0.070721 -0.003686
v -0.027808 0.070721 0.003949
v 0.004969 0.091251 0.022614
v 0.011412 0.095558 0.021469
v 0.009315 0.093333 0.016784
v 0.011849 0.090184 0.011772
v 0.013230 0.090595 0.014837
v 0.013850 0.095015 0.009882
v 0.013865 0.093599 0.008923
v 0.010734 0.076922 -0.003590
v 0.029571 0.075442 -0.007480
v 0.026506 0.076856 -0.013135
v 0.022832 0.077266 -0.014671
v 0.019439 0.082595 -0.016108
v 0.013501 0.087789 -0.016000
v 0.009546 0.093474 -0.023071
v 0.011345 0.083859 -0.019853
v 0.011366 0.091295 -0.025096
v 0.009826 0.082953 -0.026960
v 0.013321 0.081237 -0.024095
v 0.016619 0.087654 -0.017115
v 0.017061 0.086663 -0.020569
v 0.016415 0.080462 -0.021946
v 0.018641 0.084924 -0.019867
v 0.007056 0.086444 -0.023477
v 0.010734 0.076922 0.003853
v 0.026506 0.076856 0.013398
v 0.029571 0.075442 0.007743
v 0.022832 0.077266 0.014934
v 0.019439 0.082595 0.016371
v 0.013501 0.087789 0.016263
v 0.009546 0.093474 0.023309
v 0.011366 0.091295 0.025333
v 0.011095 0.088952 0.022227
v 0.009826 0.082953 0.027198
v 0.013321 0.081237 0.024333
v 0.017061 0.086663 0.020833
v 0.016619 0.087654 0.017378
v 0.018641 0.084924 0.020130
v 0.016415 0.080462 0.022183
v 0.007056 0.086444 0.023714
v 0.016113 0.097634 -0.010213
v 0.016363 0.092674 -0.004517
v 0.017518 0.096664 -0.012545
v 0.015375 0.092399 -0.002093
v 0.010710 0.076224 0.000132
v 0.016582 0.095843 -0.013756
v 0.016582 0.095843 0.014019
v 0.017518 0.096664 0.012808
v 0.016113 0.097634 0.010476
v 0.016363 0.092674 0.004780
v 0.015375 0.092399 0.002356
v 0.030866 0.075457 -0.001894
v 0.030848 0.075605 0.000132
v 0.029815 0.089461 -0.006591
v 0.026534 0.090693 -0.010265
v 0.024199 0.092136 -0.011679
v 0.020428 0.089416 -0.015118
v 0.018623 0.086259 -0.020387
v 0.014331 0.083199 -0.020451
v 0.012126 0.084106 -0.026428
v 0.016179 0.081723 -0.021215
v 0.030866 0.075457 0.002157
v 0.029815 0.089461 0.006854
v 0.026534 0.090693 0.010528
v 0.024199 0.092136 0.011943
v 0.020428 0.089416 0.015381
v 0.018623 0.086259 0.020650
v 0.014331 0.083199 0.020689
v 0.012126 0.084106 0.026666
v 0.016179 0.081723 0.021453
v 0.019669 0.095545 -0.011763
v 0.018087 0.091327 0.000132
v 0.030717 0.089337 0.000132
v 0.019669 0.095545 0.012026
vn -0.2984 0.9544 -0.0001
vn 0.4128 0.9108 -0.0000
vn -0.4896 0.8408 0.2311
vn -0.6068 0.7949 -0.0000
vn -0.4894 0.8408 -0.2312
vn 0.6653 -0.7466 0.0029
vn 0.9432 -0.2517 0.2170
vn 0.7287 -0.6849 -0.0000
vn 0.9431 -0.2517 -0.2170
vn 0.6653 -0.7466 -0.0029
vn 0.1192 0.9630 0.2415
vn -0.8031 0.3047 0.5121
vn -0.8192 0.4386 -0.3696
vn -0.5559 0.4710 -0.6850
vn -0.1760 0.5050 -0.8450
vn -0.1310 0.5303 -0.8376
vn -0.2580 0.9661 0.0001
vn -0.1309 0.5302 0.8377
vn -0.1760 0.5050 0.8450
vn -0.5559 0.4710 0.6850
vn -0.8192 0.4386 0.3696
vn 0.1191 0.9631 -0.2415
vn -0.8031 0.3047 -0.5121
vn 0.6840 -0.6664 0.2968
vn -0.2451 -0.7546 -0.6088
vn -0.2994 -0.6404 -0.7073
vn 0.1467 -0.9892 -0.0000
vn -0.2451 -0.7546 0.6088
vn 0.6840 -0.6664 -0.2968
vn -0.2994 -0.6404 0.7073
vn -0.1022 0.3651 0.9253
vn 0.2150 0.7720 0.5982
vn -0.5018 0.6626 -0.5561
vn -0.1262 -0.5970 -0.7923
vn 0.2116 -0.5208 -0.8270
vn -0.2170 -0.7426 -0.6336
vn -0.7343 0.2671 -0.6240
vn -0.7555 0.6552 0.0001
vn -0.7343 0.2671 0.6240
vn -0.2170 -0.7426 0.6336
vn 0.2114 -0.5207 0.8272
vn -0.1262 -0.5970 0.7923
vn -0.6690 0.6954 0.2625
vn 0.2150 0.7719 -0.5982
vn -0.1022 0.3651 -0.9254
vn -0.8693 0.4398 0.2255
vn -0.6951 -0.7150 -0.0745
vn -0.0675 -0.9974 0.0265
vn -0.4931 -0.6733 -0.5509
vn 0.2366 -0.9716 -0.0000
vn -0.6180 0.3380 -0.7098
vn -0.8667 0.4663 -0.1770
vn -0.8693 0.4397 -0.2258
vn -0.6952 -0.7150 0.0745
vn -0.0678 -0.9973 -0.0273
vn -0.4927 -0.6731 0.5515
vn -0.6901 0.2491 0.6794
vn -0.8667 0.4663 0.1770
vn -0.7188 0.3872 0.5774
vn -0.7983 0.5867 -0.1361
vn -0.3790 0.8965 -0.2295
vn -0.1290 0.8300 -0.5426
vn 0.1750 0.9844 -0.0186
vn -0.3940 0.7335 -0.5538
vn 0.5495 0.5901 -0.5915
vn 0.4334 -0.9012 -0.0000
vn -0.3551 -0.9348 -0.0000
vn -0.7071 -0.7044 -0.0619
vn -0.7071 -0.7044 0.0618
vn -0.5091 0.6009 0.6162
vn 0.5580 0.7912 0.2505
vn 0.1306 0.9576 -0.2569
vn -0.3790 0.8965 0.2295
vn -0.1290 0.8301 0.5425
vn -0.7983 0.5867 0.1361
vn -0.7188 0.3872 -0.5775
vn -0.7893 -0.6082 0.0843
vn 0.6148 -0.7008 -0.3617
vn 0.4512 -0.5428 -0.7084
vn 0.1078 -0.6279 -0.7708
vn 0.2058 -0.3962 -0.8948
vn 0.2070 0.8617 -0.4633
vn 0.8495 0.4641 -0.2508
vn -0.1026 0.7878 -0.6073
vn 0.5174 0.8475 -0.1186
vn 0.4701 0.4867 -0.7363
vn -0.2944 -0.4634 -0.8358
vn 0.0286 -0.9783 -0.2054
vn -0.0199 0.7225 -0.6911
vn -0.0672 0.5287 -0.8461
vn 0.5060 -0.8611 -0.0502
vn 0.5961 -0.5935 -0.5408
vn -0.5840 0.4009 -0.7058
vn -0.7893 -0.6082 -0.0843
vn 0.4512 -0.5428 0.7084
vn 0.6148 -0.7008 0.3617
vn 0.1078 -0.6279 0.7708
vn 0.2058 -0.3963 0.8948
vn 0.7694 0.6241 0.1360
vn 0.2070 0.8617 0.4633
vn 0.1666 0.5809 0.7968
vn 0.4324 0.5630 0.7043
vn 0.8025 0.5873 -0.1055
vn -0.2950 -0.4636 0.8355
vn 0.0284 -0.9784 0.2046
vn 0.0942 0.5850 0.8055
vn 0.0723 0.8404 0.5371
vn 0.5940 -0.5930 0.5436
vn 0.5070 -0.8604 0.0507
vn -0.3920 0.2156 0.8943
vn -0.2264 0.9510 0.2107
vn 0.1617 0.9507 0.2645
vn 0.0741 0.8554 -0.5126
vn -0.4681 0.7610 0.4491
vn -0.7676 -0.6409 -0.0000
vn -0.2235 0.6281 -0.7453
vn -0.2235 0.6281 0.7453
vn 0.0741 0.8554 0.5126
vn -0.2264 0.9510 -0.2107
vn 0.1617 0.9507 -0.2645
vn -0.4681 0.7610 -0.4492
vn 0.7000 -0.6998 -0.1421
vn 0.7078 -0.7064 -0.0000
vn 0.7947 0.5699 -0.2092
vn 0.6523 0.6386 -0.4083
vn 0.6336 0.6736 -0.3805
vn 0.5598 0.2976 -0.7733
vn 0.4230 0.4336 -0.7957
vn 0.3774 0.5930 -0.7113
vn 0.4690 0.1313 -0.8734
vn 0.4592 0.2398 -0.8554
vn 0.7000 -0.6998 0.1421
vn 0.7947 0.5699 0.2092
vn 0.6523 0.6387 0.4083
vn 0.6336 0.6736 0.3806
vn 0.5597 0.2976 0.7734
vn 0.4214 0.4327 0.7970
vn 0.5131 0.4069 0.7557
vn 0.4690 0.1314 0.8734
vn 0.4560 0.2385 0.8574
vn 0.6360 0.7566 -0.1520
vn -0.1142 0.9935 -0.0000
vn 0.7919 0.6107 -0.0000
vn 0.6360 0.7566 0.1520
vt 0.971747 0.629102
vt 0.938007 0.726628
vt 0.900452 0.719803
vt 0.396981 0.538935
vt 0.396981 0.661521
vt 0.391114 0.654042
vt 0.971747 0.744463
vt 0.391898 0.664626
vt 0.396981 0.751963
vt 0.195060 0.249794
vt 0.290850 0.255337
vt 0.295390 0.269587
vt 0.195042 0.269597
vt 0.301737 0.231862
vt 0.290850 0.283837
vt 0.195060 0.289390
vt 0.301737 0.307302
vt 0.000000 0.595384
vt 0.012301 0.685888
vt 0.009459 0.711898
vt 0.022395 0.684247
vt 0.836848 0.000000
vt 0.915609 0.042971
vt 0.883240 0.151880
vt 0.827592 0.122529
vt 1.000000 0.847505
vt 1.000000 0.939968
vt 0.991819 0.931548
vt 0.881869 0.202531
vt 0.889543 0.242619
vt 0.855302 0.237274
vt 0.686790 0.872958
vt 0.660580 0.881187
vt 0.646159 0.827540
vt 0.689505 0.741835
vt 0.639995 0.772504
vt 0.783602 0.859779
vt 0.845319 0.847505
vt 0.845319 0.961120
vt 0.757558 0.979861
vt 0.406441 0.461338
vt 0.409276 0.487338
vt 0.396981 0.577859
vt 0.419366 0.488974
vt 0.983848 0.752884
vt 0.992029 0.744463
vt 0.992029 0.836929
vt 0.710365 0.767511
vt 0.757558 0.698846
vt 0.757558 0.844162
vt 0.268651 0.182572
vt 0.134241 0.210098
vt 0.200173 0.161416
vt 0.134177 0.269596
vt 0.976300 0.625872
vt 0.900455 0.537052
vt 0.976300 0.531120
vt 0.134241 0.329084
vt 0.776542 0.109996
vt 0.712788 0.193216
vt 0.661918 0.089104
vt 0.827592 0.191124
vt 0.200173 0.377764
vt 0.268651 0.356618
vt 0.049197 0.831940
vt 0.064677 0.817683
vt 0.105738 0.792265
vt 0.105738 0.934209
vt 0.084861 0.538935
vt 0.098807 0.662087
vt 0.575175 0.897685
vt 0.524378 0.897685
vt 0.532058 0.803866
vt 0.366103 0.646088
vt 0.389748 0.751192
vt 0.335643 0.641847
vt 0.348815 0.619290
vt 0.153644 0.692290
vt 0.183667 0.769051
vt 0.389748 0.597150
vt 0.365651 0.569843
vt 0.375389 0.538935
vt 0.850102 0.389430
vt 0.827592 0.358372
vt 0.888364 0.325330
vt 0.911452 0.304092
vt 0.865730 0.280447
vt 0.888364 0.393396
vt 0.689505 0.924454
vt 0.642266 0.945377
vt 0.580683 0.914451
vt 0.588830 0.873718
vt 0.601174 0.807623
vt 0.594106 0.783757
vt 0.677464 0.698846
vt 0.495794 0.511166
vt 0.481845 0.634323
vt 0.580683 0.404242
vt 0.550659 0.481007
vt 0.700784 0.054745
vt 0.722661 0.055498
vt 0.575175 0.965793
vt 0.530728 0.923619
vt 0.000000 0.880248
vt 0.018633 0.940394
vt 0.757558 0.722706
vt 0.900452 0.771928
vt 0.862376 0.847505
vt 0.396981 0.081645
vt 0.225944 0.067188
vt 0.111063 0.269595
vt 0.111113 0.218177
vt 0.140230 0.556455
vt 0.165363 0.646752
vt 0.183667 0.599728
vt 0.111113 0.321002
vt 0.788713 0.036093
vt 0.827592 0.057061
vt 0.862368 0.404242
vt 0.900455 0.479816
vt 0.757558 0.529036
vt 0.225944 0.471992
vt 0.396981 0.457540
vt 0.537228 0.616825
vt 0.562378 0.526550
vt 0.580683 0.573579
vt 0.010510 0.784741
vt 0.013516 0.769051
vt 0.763756 0.230202
vt 0.781032 0.278045
vt 0.772469 0.307281
vt 0.021348 0.813875
vt 0.007833 0.799394
vt 0.051252 0.776973
vt 0.238347 0.924642
vt 0.263791 0.849083
vt 0.292611 0.933410
vt 0.981508 0.000000
vt 0.981508 0.048677
vt 0.944043 0.028782
vt 0.183667 0.913311
vt 0.267569 0.842915
vt 0.042490 0.269594
vt 0.042540 0.219560
vt 0.000000 0.269594
vt 0.000045 0.220834
vt 0.146715 0.971954
vt 0.181874 0.885558
vt 0.183667 0.971954
vt 0.944043 0.092720
vt 0.973682 0.055141
vt 0.973682 0.167633
vt 0.977174 0.272910
vt 0.994018 0.253613
vt 0.994018 0.320132
vt 0.915609 0.325330
vt 0.112488 0.964882
vt 0.146715 0.885558
vt 0.146715 0.978817
vt 0.994544 0.428579
vt 0.994544 0.495706
vt 0.981548 0.478402
vt 0.977174 0.186753
vt 0.977174 0.299243
vt 0.947536 0.261669
vt 0.612303 0.952110
vt 0.042540 0.319629
vt 0.000045 0.318345
vt 0.472409 0.667633
vt 0.402018 0.698877
vt 0.402630 0.643249
vt 0.405529 0.588365
vt 0.721835 0.031992
vt 0.667192 0.010978
vt 0.711585 0.000000
vt 0.948155 0.325330
vt 0.948155 0.389366
vt 0.889048 0.388504
vt 0.888364 0.380174
vt 0.995763 0.402972
vt 0.978314 0.377608
vt 0.995763 0.325330
vt 0.707153 0.812214
vt 0.689505 0.743858
vt 0.707153 0.698846
vt 0.753910 0.239353
vt 0.748888 0.376965
vt 0.699096 0.373257
vt 0.592660 0.627283
vt 0.751152 0.588581
vt 0.757558 0.638458
vt 0.612957 0.683559
vt 0.643302 0.698846
vt 0.900452 0.625872
vt 0.843282 0.654498
vt 0.230741 0.984295
vt 0.190945 0.981866
vt 0.183667 0.933410
vt 0.230741 0.953333
vt 0.999035 0.186752
vt 0.999035 0.253613
vt 0.977174 0.219110
vt 0.564856 0.750153
vt 0.549653 0.699466
vt 0.579084 0.703653
vt 0.527367 0.785426
vt 0.524378 0.720219
vt 0.357266 0.000000
vt 0.928728 0.847505
vt 0.928728 0.950739
vt 0.885049 0.935986
vt 0.579084 0.803866
vt 0.546162 0.803113
vt 0.985671 0.182365
vt 0.973682 0.153805
vt 0.985671 0.124209
vt 0.850284 0.920809
vt 0.845319 0.872755
vt 0.801553 0.646121
vt 0.961374 0.912209
vt 0.991819 0.847505
vt 0.991819 0.956463
vt 0.915609 0.200595
vt 0.947536 0.186752
vt 0.947536 0.325330
vt 0.233410 0.831148
vt 0.292611 0.798664
vt 0.394556 0.954236
vt 0.379491 0.898107
vt 0.394556 0.798664
vt 0.329617 0.803700
vt 0.379491 0.801777
vt 0.379491 0.939480
vt 0.612957 0.419525
vt 0.757558 0.464641
vt 0.751152 0.514515
vt 0.592660 0.475797
vt 0.643302 0.404242
vt 0.843291 0.597244
vt 0.900455 0.625872
vt 0.301638 0.584306
vt 0.311882 0.538935
vt 0.335643 0.579716
vt 0.323448 0.605744
vt 0.485770 0.955266
vt 0.524378 0.915341
vt 0.524378 0.978530
vt 0.263829 0.947202
vt 0.292611 0.976679
vt 0.114477 0.769051
vt 0.147005 0.778347
vt 0.131938 0.814098
vt 0.108848 0.829524
vt 0.357266 0.538935
vt 0.940158 0.759190
vt 0.983848 0.744463
vt 0.983848 0.847505
vt 0.169845 0.851347
vt 0.140780 0.862188
vt 0.112063 0.861615
vt 0.900452 0.822228
vt 0.905384 0.774355
vt 0.801555 0.605619
vt 0.524378 0.699466
vt 0.464194 0.797716
vt 0.470686 0.726248
vt 0.507781 0.820110
vt 0.413890 0.780172
vt 0.770760 0.196179
vt 0.713073 0.226050
vt 0.794063 0.193216
vt 0.688677 0.234349
vt 0.661918 0.376965
vt 0.805712 0.205980
vt 0.811925 0.266162
vt 0.825553 0.283592
vt 0.190110 0.880726
vt 0.435230 0.699466
vt 0.396981 0.825635
vt 0.954561 0.452650
vt 0.904122 0.459303
vt 0.956755 0.404242
vt 0.973448 0.408712
vt 0.900455 0.426401
vt 0.240327 0.574874
vt 0.981548 0.430781
vt 0.950960 0.465592
vt 0.981548 0.495706
vt 0.435213 0.117326
vt 0.416779 0.062535
vt 0.438672 0.091554
vt 0.314141 0.942146
vt 0.581217 0.571695
vt 0.580683 0.551534
vt 0.754630 0.551543
vt 0.654581 0.194819
vt 0.542220 0.147404
vt 0.661918 0.140955
vt 0.625454 0.252226
vt 0.513326 0.188853
vt 0.600967 0.278800
vt 0.538180 0.289837
vt 0.488168 0.206301
vt 0.488523 0.258513
vt 0.514684 0.319341
vt 0.503747 0.320266
vt 0.389748 0.794183
vt 0.357257 0.794183
vt 0.362124 0.751192
vt 0.396981 0.975003
vt 0.400470 0.945833
vt 0.445122 0.977186
vt 0.999267 0.629102
vt 0.999267 0.722423
vt 0.971747 0.642615
vt 0.975530 0.351525
vt 0.978314 0.381962
vt 0.948155 0.340285
vt 0.445122 0.915341
vt 0.503860 0.345969
vt 0.483800 0.404242
vt 0.421083 0.375719
vt 0.263829 0.986499
vt 0.247690 0.939419
vt 0.263829 0.933410
vt 0.350395 0.751191
vt 0.350395 0.793153
vt 0.335643 0.786822
vt 0.538074 0.358474
vt 0.513965 0.387138
vt 0.526481 0.349527
vt 0.998548 0.619581
vt 0.992301 0.625872
vt 0.976300 0.595262
vt 0.998548 0.556810
vt 0.480884 0.295635
vt 0.414216 0.243836
vt 0.978314 0.327657
vt 0.950633 0.325330
vt 0.581217 0.531383
vt 0.288107 0.798664
vt 0.183667 0.709154
vt 0.204751 0.679822
vt 0.311204 0.771554
vt 0.335643 0.742663
vt 0.661918 0.105576
vt 0.542220 0.029983
vt 0.654581 0.061870
vt 0.212831 0.654216
vt 0.322682 0.684024
vt 0.264918 0.646516
vt 0.485770 0.915341
vt 0.485770 0.976065
vt 0.477902 0.974670
vt 0.455674 0.944336
vt 0.306936 0.631052
vt 0.423895 0.840667
vt 0.161551 0.874678
vt 0.496886 0.843874
vt 0.183667 0.829502
vt 0.461786 0.899707
vt 0.439109 0.840212
vt 0.493142 0.871437
vt 0.519918 0.856909
vt 0.510353 0.888326
vt 0.524378 0.889395
vt 0.995942 0.124209
vt 0.973682 0.085771
vt 0.989691 0.055141
vt 0.995942 0.061427
vt 0.466261 0.915177
vt 0.477950 0.915341
vt 0.741391 0.929177
vt 0.710616 0.881996
vt 0.696042 0.844162
vt 0.757558 0.845867
vt 0.434414 0.215245
vt 0.412944 0.227353
vt 0.396981 0.209774
vt 0.757558 0.952247
vt 0.438672 0.172748
vt 0.459532 0.129159
vt 0.548421 0.085523
vt 0.666933 0.221086
vt 0.915609 0.008397
vt 0.944043 0.000000
vt 0.944043 0.167633
vt 0.961373 0.958841
vt 0.928728 0.861067
vt 0.961373 0.847505
vt 0.217787 0.598220
vt 0.225499 0.575523
vt 0.396981 0.029088
vt 0.412944 0.005934
vt 0.434414 0.007485
vt 0.488168 0.000000
vt 0.513326 0.007258
vt 0.660613 0.122923
vt 0.183667 0.885558
s 1
usemtl Material_with_Texture.047
f 1/1/1 2/2/2 3/3/3
f 3/4/3 4/5/4 1/6/1
f 5/7/5 2/2/2 1/1/1
f 1/8/1 4/5/4 5/9/5
f 6/10/6 7/11/7 2/12/2
f 8/13/8 6/10/6 2/12/2
f 2/12/2 7/11/7 3/14/3
f 2/12/2 9/15/9 10/16/10
f 2/12/2 10/16/10 8/13/8
f 5/17/5 9/15/9 2/12/2
f 11/18/11 3/19/3 7/20/7
f 11/18/11 12/21/12 3/19/3
f 3/22/3 13/23/13 14/24/14 4/25/4
f 13/26/13 3/27/3 12/28/12
f 4/25/4 15/29/15 16/30/16 17/31/17
f 14/24/14 15/29/15 4/25/4
f 17/32/17 18/33/18 19/34/19 4/35/4
f 4/35/4 19/34/19 20/36/20
f 4/37/4 20/38/20 21/39/21 5/40/5
f 9/41/9 5/42/5 22/43/22
f 5/42/5 23/44/23 22/43/22
f 23/45/23 5/46/5 21/47/21
f 24/48/24 7/49/7 6/50/6
f 24/51/24 6/10/6 25/52/25 26/53/26
f 25/52/25 6/10/6 8/13/8 27/54/27
f 11/55/11 7/56/7 24/57/24
f 27/54/27 8/13/8 10/16/10 28/58/28
f 29/59/29 9/60/9 22/61/22
f 10/62/10 9/60/9 29/59/29
f 30/63/30 28/58/28 10/16/10 29/64/29
f 31/65/31 32/66/32 11/67/11 24/68/24
f 11/18/11 33/69/33 13/70/13 12/21/12
f 11/71/11 32/72/32 33/73/33
f 14/74/14 13/75/13 25/76/25 34/77/34
f 13/70/13 26/78/26 25/79/25
f 13/70/13 33/69/33 26/78/26
f 15/80/15 14/74/14 34/77/34 35/81/35
f 15/80/15 35/81/35 36/82/36
f 16/83/16 15/84/15 36/85/36
f 17/31/17 16/30/16 37/86/37 38/87/38
f 36/85/36 37/88/37 16/83/16
f 38/89/38 39/90/39 18/33/18 17/32/17
f 40/91/40 19/34/19 18/33/18
f 18/33/18 39/90/39 40/91/40
f 40/91/40 41/92/41 19/34/19
f 41/92/41 42/93/42 20/36/20 19/34/19
f 42/93/42 28/94/28 21/95/21 20/36/20
f 23/44/23 21/96/21 43/97/43 22/43/22
f 28/98/28 30/99/30 21/96/21
f 30/99/30 43/97/43 21/96/21
f 29/59/29 22/61/22 44/100/44 45/101/45
f 43/102/43 44/103/44 22/71/22
f 31/65/31 24/68/24 46/104/46
f 46/104/46 24/68/24 47/105/47
f 48/106/48 47/107/47 24/108/24
f 48/109/48 24/51/24 26/53/26 49/110/49
f 50/111/50 34/112/34 25/52/25 27/54/27
f 26/78/26 33/69/33 51/113/51
f 26/78/26 51/113/51 52/114/52
f 26/78/26 52/114/52 49/115/49
f 27/54/27 28/58/28 42/116/42 50/111/50
f 53/117/53 29/59/29 45/101/45
f 54/118/54 29/59/29 53/117/53
f 29/119/29 54/120/54 55/121/55
f 56/122/56 30/63/30 29/64/29 55/123/55
f 57/124/57 43/97/43 30/99/30
f 58/125/58 57/124/57 30/99/30
f 56/126/56 58/125/58 30/99/30
f 59/127/59 60/128/60 31/65/31 46/104/46
f 60/129/60 61/130/61 31/131/31
f 61/132/61 32/66/32 31/65/31
f 62/133/62 63/134/63 32/66/32 61/132/61
f 63/135/63 33/136/33 32/137/32
f 33/138/33 64/139/64 51/140/51
f 33/136/33 63/135/63 65/141/65 64/142/64
f 66/143/66 35/144/35 34/112/34 50/111/50
f 67/145/67 36/146/36 35/144/35 66/143/66
f 67/147/67 38/148/38 36/149/36
f 68/150/68 36/151/36 38/152/38
f 68/153/68 37/154/37 36/155/36
f 37/86/37 68/156/68 38/87/38
f 40/157/40 38/158/38 67/159/67
f 38/160/38 69/161/69 39/162/39
f 38/163/38 40/164/40 69/165/69
f 40/91/40 39/90/39 69/166/69
f 66/143/66 41/167/41 40/168/40 67/145/67
f 50/111/50 42/116/42 41/167/41 66/143/66
f 57/124/57 70/169/70 43/97/43
f 70/169/70 71/170/71 72/171/72 43/97/43
f 44/172/44 43/97/43 72/171/72
f 73/173/73 44/100/44 72/174/72 74/175/74
f 45/101/45 44/100/44 73/173/73
f 53/176/53 45/177/45 75/178/75 76/179/76
f 45/180/45 73/181/73 75/182/75
f 59/183/59 46/184/46 47/185/47
f 59/186/59 47/187/47 77/188/77
f 78/189/78 77/190/77 47/191/47 79/192/79
f 79/192/79 47/191/47 80/193/80
f 80/194/80 47/107/47 81/195/81
f 47/107/47 48/106/48 81/195/81
f 82/196/82 48/197/83 63/198/63 62/199/62
f 48/200/83 65/201/65 63/202/63
f 48/203/83 83/204/84 65/205/65
f 48/203/83 84/206/85 85/207/86 83/204/84
f 48/109/48 49/110/49 86/208/87
f 48/209/48 86/210/87 87/211/88
f 84/206/85 48/203/83 88/212/89 89/213/90
f 48/214/83 82/215/82 88/216/89
f 90/217/91 91/218/92 48/209/48
f 91/219/92 81/195/81 48/106/48
f 48/209/48 87/211/88 90/217/91
f 52/114/52 51/113/51 49/115/49
f 51/220/51 92/221/93 49/222/49
f 92/223/93 86/224/87 49/225/49
f 64/142/64 92/226/93 51/227/51
f 54/228/54 53/229/53 76/230/76
f 93/231/94 54/232/54 76/233/76
f 94/234/95 54/235/54 93/236/94 95/237/96
f 96/238/97 54/235/54 94/234/95
f 97/239/98 54/120/54 96/240/97
f 97/239/98 55/121/55 54/120/54
f 74/241/74 72/242/72 55/243/99 98/244/100
f 72/245/72 71/246/71 55/247/99
f 71/248/71 99/137/101 55/249/99
f 99/250/101 100/251/102 101/252/103 55/253/99
f 102/254/104 56/122/56 55/123/55
f 103/255/105 102/256/104 55/257/55
f 104/258/106 105/259/107 55/253/99 101/252/103
f 105/259/107 98/260/100 55/253/99
f 55/257/55 106/261/108 107/262/109
f 55/121/55 97/239/98 106/263/108
f 107/262/109 103/255/105 55/257/55
f 56/126/56 57/124/57 58/125/58
f 56/264/56 108/265/110 57/266/57
f 56/264/56 102/267/104 108/265/110
f 57/266/57 108/265/110 70/268/70
f 109/269/111 59/186/59 110/270/112
f 111/271/113 60/129/60 59/186/59 109/269/111
f 110/270/112 59/186/59 112/272/114
f 112/272/114 59/186/59 77/188/77 113/273/115
f 111/271/113 114/274/116 61/130/61 60/129/60
f 114/274/116 62/275/62 61/130/61
f 82/276/82 62/275/62 114/274/116
f 83/277/84 64/142/64 65/141/65
f 92/226/93 64/142/64 83/277/84
f 71/170/71 70/169/70 99/278/101
f 99/279/101 70/268/70 108/265/110
f 75/280/75 73/281/73 115/282/117 116/283/118
f 73/281/73 74/284/74 115/282/117
f 115/285/117 74/241/74 98/244/100
f 117/286/119 76/287/76 75/280/75 116/283/118
f 118/288/120 76/287/76 117/286/119
f 119/289/121 76/290/76 118/291/120
f 113/227/115 93/231/94 76/233/76 119/292/121
f 77/190/77 78/189/78 120/293/122 121/294/123 113/295/115
f 78/296/78 122/297/124 120/298/122
f 79/299/79 123/300/125 122/297/124 78/296/78
f 80/301/80 123/300/125 79/299/79
f 81/302/81 124/303/126 123/300/125 80/301/80
f 81/302/81 125/304/127 124/303/126
f 81/302/81 91/305/92 126/306/128 125/304/127
f 88/307/89 82/308/82 114/309/116
f 83/310/84 85/311/86 92/312/93
f 127/313/129 85/314/86 84/315/85
f 127/316/129 84/317/85 89/318/90
f 85/311/86 128/319/130 92/312/93
f 127/320/129 128/321/130 85/322/86
f 92/323/93 128/324/130 86/325/87
f 87/326/88 86/327/87 128/328/130
f 90/329/91 87/330/88 128/321/130 129/331/131
f 126/332/128 89/333/90 88/334/89 125/335/127
f 125/304/127 88/336/89 114/337/116
f 129/338/131 127/316/129 89/318/90 126/339/128
f 91/305/92 90/329/91 129/331/131 126/306/128
f 113/295/115 121/294/123 130/340/132 95/237/96 93/236/94
f 95/341/96 131/342/133 132/343/134 94/344/95
f 94/344/95 132/343/134 96/345/97
f 130/346/132 131/347/133 95/348/96
f 96/345/97 132/343/134 133/349/135 97/350/98
f 133/349/135 134/351/136 97/350/98
f 134/352/136 135/353/137 106/354/108 97/355/98
f 115/285/117 98/244/100 105/356/107
f 108/265/110 100/357/102 99/279/101
f 101/252/103 100/251/102 136/358/138
f 108/265/110 137/359/139 100/357/102
f 100/251/102 137/360/139 136/358/138
f 104/361/106 101/362/103 136/363/138
f 102/267/104 137/359/139 108/265/110
f 137/359/139 102/267/104 103/364/105
f 138/365/140 137/359/139 103/364/105 107/366/109
f 134/367/136 105/368/107 104/369/106 135/370/137
f 135/371/137 104/361/106 136/363/138 138/365/140
f 115/285/117 105/356/107 134/351/136
f 135/371/137 138/365/140 107/366/109 106/372/108
f 124/373/126 139/374/141 109/375/111 110/376/112
f 139/377/141 111/378/113 109/379/111
f 124/373/126 110/376/112 123/380/125
f 123/300/125 110/381/112 122/297/124
f 110/381/112 140/382/142 141/383/143 122/297/124
f 110/270/112 112/272/114 140/384/142
f 125/304/127 114/337/116 111/378/113 139/377/141
f 140/385/142 112/386/114 113/387/115
f 113/388/115 119/389/121 140/390/142
f 142/391/144 116/392/118 115/285/117 134/351/136
f 117/393/119 116/394/118 142/395/144
f 118/291/120 117/393/119 142/395/144 133/396/135
f 132/397/134 118/291/120 133/396/135
f 131/347/133 118/291/120 132/397/134
f 131/347/133 141/383/143 140/382/142 118/291/120
f 140/382/142 119/289/121 118/291/120
f 122/297/124 141/383/143 121/398/123 120/298/122
f 130/346/132 121/398/123 141/383/143 131/347/133
f 124/303/126 125/304/127 139/377/141
f 128/321/130 127/320/129 129/331/131
f 142/391/144 134/351/136 133/349/135
f 138/399/140 136/358/138 137/360/139
