# Blender 4.3.0
# www.blender.org
mtllib cerv2.mtl
o cerv2
v -0.024988 0.015750 0.000128
v -0.019078 0.024424 0.000128
v -0.018481 0.024686 -0.003561
v -0.025919 0.015497 0.000128
v -0.018481 0.024686 0.003817
v -0.020502 0.008521 -0.001808
v -0.019159 0.023728 -0.001265
v -0.020503 0.008519 0.000128
v -0.019159 0.023728 0.001522
v -0.020502 0.008521 0.002064
v -0.013867 0.028566 -0.010386
v -0.019423 0.024480 -0.004225
v -0.020737 0.018588 -0.010064
v -0.026889 0.010781 -0.004490
v -0.032413 0.009024 -0.003197
v -0.038000 0.008413 -0.003005
v -0.038295 0.010436 0.000128
v -0.038000 0.008413 0.003261
v -0.032413 0.009024 0.003453
v -0.026889 0.010781 0.004746
v -0.020737 0.018588 0.010320
v -0.013867 0.028566 0.010642
v -0.019423 0.024480 0.004482
v -0.015535 0.014425 -0.008382
v -0.026366 0.006225 -0.005690
v -0.021495 0.010897 -0.010451
v -0.026370 0.006219 0.000128
v -0.026366 0.006225 0.005946
v -0.015535 0.014425 0.008638
v -0.021495 0.010897 0.010707
v -0.008733 0.023861 -0.010453
v -0.010182 0.025166 -0.011699
v -0.015104 0.024113 -0.019497
v -0.028922 0.005830 -0.004900
v -0.034809 0.002176 -0.004765
v -0.038422 -0.000139 -0.004639
v -0.043455 0.004462 -0.003677
v -0.043280 0.008814 0.000128
v -0.043455 0.004462 0.003933
v -0.038422 -0.000139 0.004896
v -0.034809 0.002176 0.005021
v -0.028922 0.005830 0.005156
v -0.015104 0.024113 0.019753
v -0.010182 0.025166 0.011955
v -0.008733 0.023861 0.010709
v -0.004360 0.018659 -0.009312
v -0.006921 0.012886 -0.008371
v -0.006540 0.024231 -0.018251
v -0.019219 0.012175 -0.019665
v -0.028925 0.005824 0.000128
v -0.017280 0.018497 -0.020956
v -0.020254 0.011766 -0.014824
v -0.004360 0.018659 0.009569
v -0.006921 0.012886 0.008627
v -0.006540 0.024231 0.018508
v -0.019219 0.012175 0.019921
v -0.017280 0.018497 0.021212
v -0.020254 0.011766 0.015080
v -0.004133 0.028872 -0.008428
v -0.004298 0.030279 -0.009360
v -0.005776 0.025242 -0.011199
v -0.004447 0.025812 -0.014183
v -0.008624 0.028078 -0.016077
v -0.012442 0.019770 -0.020771
v -0.007301 0.029855 -0.021827
v -0.034811 0.002171 0.000128
v -0.038425 -0.000144 0.000128
v -0.043114 0.001279 -0.003587
v -0.043114 0.001279 0.003843
v -0.012442 0.019770 0.021015
v -0.007301 0.029855 0.022072
v -0.008624 0.028078 0.016333
v -0.005776 0.025242 0.011455
v -0.004447 0.025812 0.014439
v -0.004298 0.030279 0.009617
v -0.004133 0.028872 0.008684
v -0.005484 0.011925 -0.003494
v 0.013384 0.012643 -0.007279
v 0.010190 0.013693 -0.012782
v 0.006497 0.013673 -0.014277
v 0.002564 0.018578 -0.015675
v -0.003882 0.023052 -0.015570
v -0.008932 0.027572 -0.023719
v -0.006115 0.018228 -0.020411
v -0.006890 0.025616 -0.025800
v -0.007527 0.017155 -0.027718
v -0.003870 0.015850 -0.024772
v -0.000771 0.023281 -0.016655
v -0.000227 0.022346 -0.020017
v -0.000714 0.015434 -0.022562
v 0.001526 0.020801 -0.019334
v -0.010653 0.020306 -0.024136
v -0.005484 0.011925 0.003750
v 0.010190 0.013693 0.013038
v 0.013384 0.012643 0.007535
v 0.006497 0.013673 0.014533
v 0.002564 0.018578 0.015931
v -0.003882 0.023052 0.015826
v -0.008932 0.027572 0.023964
v -0.006890 0.025616 0.026045
v -0.006115 0.018228 0.020656
v -0.007527 0.017155 0.027962
v -0.003870 0.015850 0.025016
v 0.000051 0.016677 0.019360
v -0.000771 0.023281 0.016911
v 0.001802 0.015160 0.018707
v -0.000714 0.015434 0.022806
v -0.010653 0.020306 0.024380
v -0.002326 0.033146 -0.009939
v -0.001554 0.028243 -0.004396
v -0.000828 0.032344 -0.012208
v -0.002507 0.027855 -0.002037
v -0.005435 0.011228 0.000128
v -0.001671 0.031420 -0.013387
v -0.001671 0.031420 0.013643
v -0.000828 0.032344 0.012464
v -0.002326 0.033146 0.010195
v -0.001554 0.028243 0.004652
v -0.002507 0.027855 0.002293
v 0.014668 0.012808 -0.001843
v 0.014634 0.012953 0.000128
v 0.012147 0.026612 -0.006414
v 0.008758 0.027456 -0.009989
v 0.006286 0.028619 -0.011366
v 0.002827 0.025476 -0.014712
v 0.001368 0.022126 -0.019839
v -0.003078 0.017914 -0.021025
v -0.005365 0.018562 -0.027170
v -0.001083 0.016660 -0.021810
v 0.014668 0.012808 0.002099
v 0.012147 0.026612 0.006670
v 0.008758 0.027456 0.010245
v 0.006286 0.028619 0.011622
v 0.002827 0.025476 0.014968
v 0.001645 0.016462 0.019190
v -0.003078 0.017914 0.021270
v -0.005365 0.018562 0.027415
v -0.001083 0.016660 0.022055
v 0.001427 0.031482 -0.011447
v 0.000300 0.027104 0.000128
v 0.005871 0.039244 0.000128
v 0.001427 0.031482 0.011703
vn -0.4044 0.9146 -0.0000
vn 0.3113 0.9503 -0.0000
vn -0.5778 0.7805 0.2385
vn -0.6959 0.7182 -0.0000
vn -0.5778 0.7806 -0.2385
vn 0.7432 -0.6690 -0.0003
vn 0.9637 -0.1481 0.2224
vn 0.7999 -0.6001 -0.0000
vn 0.9636 -0.1481 -0.2224
vn 0.7432 -0.6690 0.0003
vn 0.0128 0.9704 0.2411
vn -0.8297 0.2163 0.5146
vn -0.8594 0.3465 -0.3761
vn -0.5976 0.4033 -0.6930
vn -0.2291 0.4742 -0.8501
vn -0.1889 0.5041 -0.8427
vn -0.3676 0.9300 -0.0000
vn -0.1889 0.5042 0.8427
vn -0.2291 0.4742 0.8501
vn -0.5976 0.4033 0.6930
vn -0.8594 0.3464 0.3761
vn 0.0128 0.9704 -0.2411
vn -0.8299 0.2165 -0.5142
vn 0.7535 -0.5855 0.2991
vn -0.1521 -0.7738 -0.6149
vn -0.2179 -0.6613 -0.7177
vn 0.2603 -0.9655 -0.0000
vn -0.1521 -0.7738 0.6149
vn 0.7535 -0.5855 -0.2991
vn -0.2179 -0.6613 0.7177
vn -0.1406 0.3436 0.9285
vn 0.1191 0.7860 0.6066
vn -0.6301 0.6117 -0.4784
vn -0.0490 -0.6059 -0.7940
vn 0.2721 -0.4952 -0.8251
vn -0.1337 -0.7640 -0.6312
vn -0.7609 0.1815 -0.6229
vn -0.8209 0.5710 -0.0000
vn -0.7610 0.1815 0.6229
vn -0.1337 -0.7639 0.6313
vn 0.2723 -0.4952 0.8250
vn -0.0490 -0.6059 0.7940
vn -0.6296 0.6116 0.4791
vn 0.1191 0.7860 -0.6066
vn -0.1405 0.3436 -0.9285
vn -0.9131 0.3429 0.2205
vn -0.6114 -0.7873 -0.0802
vn 0.0467 -0.9988 0.0110
vn -0.4335 -0.7346 -0.5220
vn 0.3471 -0.9378 -0.0000
vn -0.7116 0.3024 -0.6341
vn -0.9117 0.3689 -0.1810
vn -0.9131 0.3428 -0.2208
vn -0.6114 -0.7872 0.0802
vn -0.0281 -0.9994 -0.0209
vn -0.4333 -0.7345 0.5223
vn -0.7110 0.3024 0.6348
vn -0.9117 0.3689 0.1810
vn -0.7510 0.3064 0.5849
vn -0.8559 0.4964 -0.1448
vn -0.4752 0.8488 -0.2317
vn -0.2217 0.8040 -0.5518
vn 0.0441 0.9990 0.0004
vn -0.4955 0.7248 -0.4788
vn 0.3997 0.6612 -0.6349
vn 0.5334 -0.8459 -0.0000
vn -0.2497 -0.9683 -0.0000
vn -0.6248 -0.7785 -0.0604
vn -0.6248 -0.7785 0.0603
vn -0.4949 0.7246 0.4797
vn 0.4000 0.6610 0.6348
vn 0.0444 0.9990 -0.0000
vn -0.4752 0.8488 0.2318
vn -0.2217 0.8040 0.5518
vn -0.8559 0.4965 0.1448
vn -0.7510 0.3065 -0.5849
vn -0.7157 -0.6931 0.0861
vn 0.6861 -0.6280 -0.3673
vn 0.5022 -0.4887 -0.7134
vn 0.1746 -0.6134 -0.7703
vn 0.2439 -0.3649 -0.8985
vn 0.1089 0.8800 -0.4623
vn 0.7594 0.5622 -0.3274
vn -0.1846 0.7623 -0.6203
vn 0.4670 0.8778 -0.1068
vn 0.3979 0.4871 -0.7774
vn -0.2408 -0.4850 -0.8407
vn 0.1353 -0.9704 -0.1999
vn -0.0961 0.7179 -0.6895
vn -0.0851 0.5982 -0.7968
vn 0.5620 -0.8262 -0.0398
vn 0.6944 -0.5296 -0.4871
vn -0.6503 0.3049 -0.6958
vn -0.7157 -0.6931 -0.0861
vn 0.5022 -0.4887 0.7134
vn 0.6861 -0.6280 0.3673
vn 0.1746 -0.6134 0.7703
vn 0.4590 -0.4314 0.7766
vn 0.8117 0.4740 0.3412
vn 0.1089 0.8800 0.4623
vn -0.1849 0.7620 0.6206
vn 0.3978 0.4871 0.7775
vn 0.6355 0.7695 0.0634
vn -0.2411 -0.4852 0.8405
vn 0.1351 -0.9705 0.1995
vn 0.3351 0.7429 0.5795
vn 0.1278 0.4658 0.8756
vn 0.4920 -0.8395 -0.2307
vn 0.2940 -0.9028 0.3138
vn -0.6501 0.3052 0.6958
vn -0.3329 0.9181 0.2152
vn -0.0568 0.9919 0.1137
vn -0.0201 0.8545 -0.5191
vn -0.5476 0.7018 0.4556
vn -0.6895 -0.7243 -0.0000
vn -0.2931 0.5911 -0.7515
vn -0.2930 0.5911 0.7515
vn -0.0200 0.8545 0.5191
vn -0.3328 0.9181 -0.2153
vn -0.0568 0.9919 -0.1137
vn -0.5476 0.7018 -0.4556
vn 0.8062 -0.5915 0.0128
vn 0.8248 -0.5655 -0.0000
vn 0.8087 0.5369 -0.2401
vn 0.5716 0.7081 -0.4146
vn 0.5503 0.7419 -0.3830
vn 0.5145 0.3497 -0.7829
vn 0.4189 0.5097 -0.7514
vn 0.3124 0.7267 -0.6118
vn 0.4539 0.1830 -0.8721
vn 0.5067 0.3418 -0.7914
vn 0.8062 -0.5915 -0.0128
vn 0.8087 0.5369 0.2401
vn 0.5716 0.7081 0.4146
vn 0.5503 0.7419 0.3830
vn 0.4736 0.2986 0.8286
vn 0.7604 0.2974 0.5774
vn 0.4219 0.8851 -0.1964
vn 0.4538 0.1828 0.8722
vn 0.6748 0.5872 0.4470
vn 0.5474 0.8228 -0.1531
vn -0.6385 0.7696 -0.0000
vn 0.0762 0.9971 -0.0000
vn 0.5474 0.8228 0.1531
vt 0.889543 0.882530
vt 0.857155 0.978141
vt 0.822818 0.974785
vt 0.004781 0.707284
vt 0.004781 0.812920
vt 0.000000 0.808307
vt 0.889543 0.993327
vt 0.621127 0.656880
vt 0.626457 0.650926
vt 0.626457 0.764898
vt 0.327189 0.196807
vt 0.270256 0.273540
vt 0.256384 0.269815
vt 0.311379 0.186365
vt 0.283081 0.294914
vt 0.247482 0.258531
vt 0.295549 0.175954
vt 0.222792 0.255178
vt 0.015415 0.801723
vt 0.018473 0.887664
vt 0.012447 0.911766
vt 0.029521 0.887140
vt 0.566994 0.817160
vt 0.642064 0.840354
vt 0.642064 0.951815
vt 0.591354 0.935868
vt 0.008008 0.585608
vt 0.008008 0.673423
vt 0.000000 0.665405
vt 0.916320 0.737485
vt 0.872210 0.657873
vt 0.886219 0.612558
vt 0.913722 0.629520
vt 0.865341 0.698553
vt 0.079138 0.703268
vt 0.043255 0.705872
vt 0.043404 0.661251
vt 0.097010 0.582761
vt 0.037809 0.607379
vt 0.015707 0.501463
vt 0.097010 0.463684
vt 0.106427 0.508291
vt 0.108871 0.531992
vt 0.097010 0.619135
vt 0.118177 0.531488
vt 0.008008 0.592924
vt 0.015696 0.585608
vt 0.015696 0.672408
vt 0.205053 0.768522
vt 0.111317 0.727015
vt 0.229142 0.673065
vt 0.340827 0.293028
vt 0.391923 0.167625
vt 0.394943 0.247714
vt 0.344418 0.136237
vt 0.097010 0.839454
vt 0.296840 0.104958
vt 0.783067 0.470562
vt 0.705846 0.518521
vt 0.662866 0.417277
vt 0.830337 0.557612
vt 0.222050 0.133765
vt 0.201748 0.201365
vt 0.162879 0.852785
vt 0.144126 0.858243
vt 0.097010 0.767882
vt 0.097010 0.885319
vt 0.097010 1.000000
vt 0.051154 0.981852
vt 0.097010 0.911766
vt 0.961496 0.577755
vt 0.961496 0.669943
vt 0.926581 0.571442
vt 0.943343 0.557612
vt 0.916320 0.641543
vt 0.945743 0.785709
vt 0.827723 0.672719
vt 0.815962 0.620272
vt 0.808232 0.588206
vt 0.868135 0.558960
vt 0.916320 0.586634
vt 0.073477 0.749258
vt 0.022936 0.767882
vt 0.816729 0.293287
vt 0.852338 0.219209
vt 0.877717 0.264603
vt 0.878142 0.317866
vt 0.815327 0.256412
vt 0.811971 0.197125
vt 0.838657 0.164436
vt 0.802790 0.172483
vt 0.878142 0.060383
vt 0.195145 0.556371
vt 0.181122 0.673064
vt 0.282298 0.463684
vt 0.252963 0.537997
vt 0.703525 0.388173
vt 0.723516 0.386245
vt 0.822818 0.976947
vt 0.778094 0.899534
vt 0.822818 0.882530
vt 0.229142 0.851368
vt 0.452691 0.875409
vt 0.452691 0.976182
vt 0.413817 0.902328
vt 0.802790 0.179827
vt 0.663668 0.217903
vt 0.663089 0.144879
vt 0.351598 0.452198
vt 0.456238 0.318575
vt 0.356949 0.117225
vt 0.398003 0.144351
vt 0.970200 0.785710
vt 0.970200 0.953138
vt 0.933018 0.913709
vt 0.946184 0.821274
vt 0.916320 0.855409
vt 0.315831 0.090194
vt 0.788380 0.368792
vt 0.830337 0.406015
vt 0.456238 0.817160
vt 0.494381 0.742974
vt 0.618030 0.817160
vt 0.132761 0.105380
vt 0.051222 0.254228
vt 0.237123 0.659812
vt 0.264353 0.580739
vt 0.282298 0.624947
vt 0.983640 0.420926
vt 0.978500 0.429362
vt 0.937092 0.373139
vt 0.983640 0.328197
vt 0.014478 0.531281
vt 0.000000 0.480419
vt 0.014478 0.463684
vt 0.015318 0.673423
vt 0.015318 0.707284
vt 0.000000 0.699629
vt 0.566994 0.983912
vt 0.525674 0.983912
vt 0.540488 0.932771
vt 0.564183 0.952810
vt 0.836401 0.875623
vt 0.858219 0.797354
vt 0.889544 0.882530
vt 0.525674 0.932771
vt 0.525674 0.984053
vt 0.484913 0.972336
vt 0.781472 0.854259
vt 0.867179 0.790235
vt 0.394212 0.060685
vt 0.434171 0.087074
vt 0.417313 0.025635
vt 0.456238 0.051352
vt 0.702866 0.966521
vt 0.742911 0.878570
vt 0.742911 0.979017
vt 0.742911 0.911932
vt 0.774835 0.878570
vt 0.774835 0.987686
vt 0.839396 0.557612
vt 0.000000 0.546635
vt 0.014323 0.531281
vt 0.014323 0.585608
vt 0.662866 0.954010
vt 0.674563 0.913627
vt 0.689265 0.892449
vt 0.851199 0.328197
vt 0.354205 0.034370
vt 0.378323 0.000000
vt 0.281317 0.983964
vt 0.245488 0.983964
vt 0.258514 0.934696
vt 0.750473 0.116789
vt 0.679900 0.038863
vt 0.733533 0.019231
vt 0.761858 0.091239
vt 0.782706 0.016363
vt 0.721462 0.356059
vt 0.673936 0.346083
vt 0.714545 0.328197
vt 0.051154 0.999246
vt 0.011919 0.945208
vt 0.041878 0.911766
vt 0.051154 0.919145
vt 0.342701 0.858114
vt 0.331173 0.828562
vt 0.353198 0.782482
vt 0.906074 0.862010
vt 0.889543 0.790127
vt 0.906074 0.753128
vt 0.714136 0.701854
vt 0.723210 0.570154
vt 0.773679 0.566771
vt 0.294088 0.677148
vt 0.450012 0.640109
vt 0.456238 0.687839
vt 0.313966 0.731005
vt 0.343815 0.745637
vt 0.730034 0.328197
vt 0.762086 0.273926
vt 0.563549 0.552971
vt 0.557954 0.588485
vt 0.511887 0.596660
vt 0.532896 0.551647
vt 0.802790 0.060383
vt 0.837701 0.004967
vt 0.847379 0.060383
vt 0.598971 0.996789
vt 0.566994 0.960258
vt 0.598971 0.951815
vt 0.114915 0.913406
vt 0.134922 0.866432
vt 0.161139 0.951867
vt 0.131784 0.967232
vt 0.454989 0.463684
vt 0.913250 0.435730
vt 0.913250 0.543325
vt 0.871162 0.531132
vt 0.619944 0.594270
vt 0.571406 0.531322
vt 0.593124 0.542260
vt 0.865790 0.060383
vt 0.847378 0.031467
vt 0.865790 0.016550
vt 0.837727 0.516570
vt 0.830337 0.452013
vt 0.802790 0.262577
vt 0.413817 0.852175
vt 0.425764 0.790418
vt 0.455466 0.875409
vt 0.455466 0.745637
vt 0.834779 0.782395
vt 0.889544 0.753128
vt 0.799522 0.144879
vt 0.782706 0.090319
vt 0.799522 0.006699
vt 0.381106 0.915663
vt 0.340240 0.921126
vt 0.359282 0.790708
vt 0.313966 0.478314
vt 0.456238 0.521486
vt 0.450012 0.569215
vt 0.294088 0.532169
vt 0.343815 0.463684
vt 0.620199 0.711976
vt 0.604617 0.650926
vt 0.945230 0.049273
vt 0.930905 0.001453
vt 0.975823 0.013779
vt 0.975823 0.052022
vt 0.370217 0.972386
vt 0.371426 0.921126
vt 0.411621 0.972386
vt 0.520256 0.021638
vt 0.544289 0.000000
vt 0.557840 0.055636
vt 0.573418 0.004033
vt 0.619675 0.051492
vt 0.000000 0.163812
vt 0.522976 0.835391
vt 0.566994 0.932771
vt 0.640635 0.106961
vt 0.571583 0.109436
vt 0.662866 0.863121
vt 0.646438 0.835900
vt 0.662866 0.813924
vt 0.456238 0.885055
vt 0.489897 0.852226
vt 0.459923 0.926358
vt 0.992158 0.664735
vt 0.992158 0.785709
vt 0.961496 0.718353
vt 0.662866 0.650926
vt 0.662866 0.796520
vt 0.626457 0.768546
vt 0.782706 0.144879
vt 0.714422 0.127636
vt 0.700833 0.745998
vt 0.759669 0.709469
vt 0.684840 0.753128
vt 0.703540 0.711884
vt 0.779287 0.697427
vt 0.808232 0.557612
vt 0.672417 0.742472
vt 0.687411 0.668738
vt 0.662866 0.685351
vt 0.485495 0.524675
vt 0.787677 0.823220
vt 0.683901 0.071731
vt 0.311288 0.758409
vt 0.321909 0.745637
vt 0.301079 0.816880
vt 0.282298 0.832876
vt 0.347917 0.749261
vt 0.390148 0.775497
vt 0.413817 0.783626
vt 0.413817 0.918475
vt 0.282831 0.623948
vt 0.282298 0.604658
vt 0.453494 0.604662
vt 0.657924 0.364630
vt 0.528551 0.372754
vt 0.638844 0.328197
vt 0.662866 0.417931
vt 0.527840 0.418695
vt 0.661569 0.456667
vt 0.615797 0.497553
vt 0.517930 0.446512
vt 0.551589 0.491547
vt 0.607619 0.523826
vt 0.597436 0.527691
vt 0.327746 0.998875
vt 0.329984 0.965565
vt 0.370217 0.982454
vt 0.161139 0.858243
vt 0.630738 0.570996
vt 0.370217 0.921126
vt 0.643328 0.619456
vt 0.572853 0.626936
vt 0.606672 0.650926
vt 0.653732 0.640451
vt 0.661357 0.595096
vt 0.662866 0.557586
vt 0.648526 0.557377
vt 0.282831 0.585369
vt 0.657866 0.284553
vt 0.529100 0.266272
vt 0.528468 0.217728
vt 0.663089 0.225071
vt 0.661609 0.188303
vt 0.638418 0.328197
vt 0.518536 0.189515
vt 0.615905 0.145231
vt 0.552023 0.146058
vt 0.645038 0.120065
vt 0.654994 0.125634
vt 0.484913 0.994891
vt 0.453730 0.941142
vt 0.484913 0.932771
vt 0.663089 0.089511
vt 0.938370 0.142599
vt 0.976714 0.062695
vt 0.964983 0.155746
vt 0.878142 0.029617
vt 0.930905 0.062695
vt 0.643747 0.014044
vt 0.630765 0.070440
vt 0.976714 0.183368
vt 0.644907 0.813924
vt 0.662866 0.898688
vt 0.643640 0.898688
vt 0.655510 0.863121
vt 0.648722 0.081571
vt 0.661532 0.043087
vt 0.663089 0.080844
vt 0.485762 0.114901
vt 0.960426 0.536463
vt 0.927461 0.496122
vt 0.913250 0.456229
vt 0.980134 0.435730
vt 0.483653 0.488979
vt 0.474550 0.512017
vt 0.456238 0.514377
vt 0.980134 0.548398
vt 0.282298 0.994351
vt 0.284684 0.921126
vt 0.327746 0.994351
vt 0.662866 0.878570
vt 0.695679 0.860747
vt 0.699139 0.753128
vt 0.781472 0.878570
vt 0.808232 0.708041
vt 0.969768 0.328197
vt 0.938370 0.317536
vt 0.969768 0.187871
vt 0.994323 0.560544
vt 0.994323 0.664735
vt 0.961496 0.651847
vt 0.484014 0.150026
vt 0.474836 0.127621
vt 0.456238 0.130008
vt 0.229142 0.989792
vt 0.161139 0.989792
vt 0.165917 0.947334
vt 0.187949 0.897630
vt 0.203122 0.877736
vt 0.225704 0.858243
vt 0.937092 0.328197
vt 0.937092 0.435730
vt 0.830337 0.374731
vt 0.840350 0.339148
vt 0.911172 0.862010
vt 0.911172 0.886439
vt 0.889543 0.883817
vt 0.878142 0.190601
vt 0.938370 0.062695
vt 0.938370 0.328197
vt 0.924208 0.326943
vt 0.270461 0.675866
vt 0.281317 0.673065
vt 0.281317 0.934696
vt 0.229142 0.813830
s 1
usemtl Material_with_Texture.044
f 1/1/1 2/2/2 3/3/3
f 3/4/3 4/5/4 1/6/1
f 5/7/5 2/2/2 1/1/1
f 1/8/1 4/9/4 5/10/5
f 6/11/6 7/12/7 2/13/2
f 8/14/8 6/11/6 2/13/2
f 2/13/2 7/12/7 3/15/3
f 2/13/2 9/16/9 10/17/10
f 2/13/2 10/17/10 8/14/8
f 5/18/5 9/16/9 2/13/2
f 11/19/11 3/20/3 7/21/7
f 11/19/11 12/22/12 3/20/3
f 3/23/3 13/24/13 14/25/14 4/26/4
f 13/27/13 3/28/3 12/29/12
f 4/30/4 15/31/15 16/32/16 17/33/17
f 14/34/14 15/31/15 4/30/4
f 17/35/17 18/36/18 19/37/19 4/38/4
f 4/38/4 19/37/19 20/39/20
f 4/38/4 20/39/20 21/40/21 5/41/5
f 9/42/9 5/43/5 22/44/22
f 5/43/5 23/45/23 22/44/22
f 23/46/23 5/47/5 21/48/21
f 24/49/24 7/50/7 6/51/6
f 24/52/24 6/11/6 25/53/25 26/54/26
f 25/53/25 6/11/6 8/14/8 27/55/27
f 11/56/11 7/50/7 24/49/24
f 27/55/27 8/14/8 10/17/10 28/57/28
f 29/58/29 9/59/9 22/60/22
f 10/61/10 9/59/9 29/58/29
f 30/62/30 28/57/28 10/17/10 29/63/29
f 31/64/31 32/65/32 11/56/11 24/49/24
f 11/19/11 33/66/33 13/67/13 12/22/12
f 11/68/11 32/69/32 33/70/33
f 14/71/14 13/72/13 25/73/25 34/74/34
f 13/72/13 26/75/26 25/73/25
f 13/72/13 33/76/33 26/75/26
f 15/31/15 14/34/14 34/77/34 35/78/35
f 15/31/15 35/78/35 36/79/36
f 16/32/16 15/31/15 36/79/36
f 17/33/17 16/32/16 37/80/37 38/81/38
f 36/79/36 37/80/37 16/32/16
f 38/82/38 39/83/39 18/36/18 17/35/17
f 40/84/40 19/85/19 18/86/18
f 18/86/18 39/87/39 40/84/40
f 40/84/40 41/88/41 19/85/19
f 41/88/41 42/89/42 20/90/20 19/85/19
f 42/89/42 28/91/28 21/92/21 20/90/20
f 23/45/23 21/93/21 43/94/43 22/44/22
f 28/95/28 30/96/30 21/93/21
f 30/96/30 43/94/43 21/93/21
f 29/58/29 22/60/22 44/97/44 45/98/45
f 43/99/43 44/100/44 22/101/22
f 31/64/31 24/49/24 46/102/46
f 46/103/46 24/104/24 47/105/47
f 48/106/48 47/107/47 24/108/24
f 48/109/48 24/52/24 26/54/26 49/110/49
f 50/111/50 34/112/34 25/53/25 27/55/27
f 26/113/26 33/114/33 51/115/51
f 26/113/26 51/115/51 52/116/52
f 26/113/26 52/116/52 49/117/49
f 27/55/27 28/57/28 42/118/42 50/111/50
f 53/119/53 29/58/29 45/98/45
f 54/120/54 29/58/29 53/119/53
f 29/121/29 54/122/54 55/123/55
f 56/124/56 30/62/30 29/63/29 55/125/55
f 57/126/57 43/94/43 30/96/30
f 58/127/58 57/126/57 30/96/30
f 56/128/56 58/127/58 30/96/30
f 59/129/59 60/130/60 31/131/31 46/132/46
f 60/133/60 61/134/61 31/135/31
f 61/136/61 32/137/32 31/138/31
f 62/139/62 63/140/63 32/141/32 61/142/61
f 63/143/63 33/144/33 32/145/32
f 33/146/33 64/147/64 51/148/51
f 33/144/33 63/143/63 65/149/65 64/150/64
f 66/151/66 35/152/35 34/112/34 50/111/50
f 67/153/67 36/154/36 35/152/35 66/151/66
f 67/155/67 38/156/38 36/157/36
f 68/158/68 36/159/36 38/160/38
f 68/161/68 37/80/37 36/79/36
f 37/162/37 68/163/68 38/164/38
f 40/165/40 38/156/38 67/155/67
f 38/156/38 69/166/69 39/167/39
f 38/156/38 40/165/40 69/166/69
f 40/84/40 39/87/39 69/168/69
f 66/151/66 41/169/41 40/170/40 67/153/67
f 50/111/50 42/118/42 41/169/41 66/151/66
f 57/171/57 70/172/70 43/173/43
f 70/174/70 71/175/71 72/176/72 43/177/43
f 44/178/44 43/177/43 72/176/72
f 73/179/73 44/97/44 72/180/72 74/181/74
f 45/98/45 44/97/44 73/179/73
f 53/182/53 45/183/45 75/184/75 76/185/76
f 45/186/45 73/187/73 75/188/75
f 59/189/59 46/190/46 47/191/47
f 59/192/59 47/193/47 77/194/77
f 78/195/78 77/196/77 47/197/47 79/198/79
f 79/198/79 47/197/47 80/199/80
f 80/200/80 47/107/47 81/201/81
f 47/107/47 48/106/48 81/201/81
f 82/202/82 48/203/83 63/204/63 62/205/62
f 48/206/83 65/207/65 63/208/63
f 48/209/83 83/210/84 65/211/65
f 48/212/83 84/213/85 85/214/86 83/215/84
f 48/109/48 49/110/49 86/216/87
f 48/217/48 86/218/87 87/219/88
f 84/220/85 48/203/83 88/221/89 89/222/90
f 48/223/83 82/224/82 88/225/89
f 90/226/91 91/227/92 48/217/48
f 91/228/92 81/201/81 48/106/48
f 48/217/48 87/219/88 90/226/91
f 52/116/52 51/115/51 49/117/49
f 51/229/51 92/230/93 49/231/49
f 92/230/93 86/232/87 49/231/49
f 64/150/64 92/233/93 51/234/51
f 54/235/54 53/236/53 76/237/76
f 93/238/94 54/239/54 76/240/76
f 94/241/95 54/242/54 93/243/94 95/244/96
f 96/245/97 54/242/54 94/241/95
f 97/246/98 54/122/54 96/247/97
f 97/246/98 55/123/55 54/122/54
f 74/248/74 72/249/72 55/250/99 98/251/100
f 72/252/72 71/253/71 55/254/99
f 71/255/71 99/256/101 55/257/99
f 99/256/101 100/258/102 101/259/103 55/257/99
f 102/260/104 56/124/56 55/125/55
f 103/261/105 102/23/104 55/262/55
f 104/263/106 105/264/107 55/257/99 101/259/103
f 105/265/107 98/266/100 55/267/99
f 55/262/55 106/268/108 107/269/109
f 55/262/55 97/270/98 106/268/108
f 107/269/109 103/261/105 55/262/55
f 56/128/56 57/126/57 58/127/58
f 56/271/56 108/272/110 57/273/57
f 56/274/56 102/275/104 108/276/110
f 57/277/57 108/278/110 70/174/70
f 109/279/111 59/192/59 110/280/112
f 111/281/113 60/282/60 59/192/59 109/279/111
f 110/280/112 59/192/59 112/283/114
f 112/283/114 59/192/59 77/194/77 113/284/115
f 111/281/113 114/285/116 61/286/61 60/282/60
f 114/285/116 62/287/62 61/286/61
f 82/202/82 62/205/62 114/288/116
f 83/289/84 64/150/64 65/149/65
f 92/233/93 64/150/64 83/289/84
f 71/175/71 70/174/70 99/290/101
f 99/290/101 70/174/70 108/278/110
f 75/188/75 73/187/73 115/291/117 116/292/118
f 73/187/73 74/293/74 115/291/117
f 115/291/117 74/293/74 98/294/100
f 117/295/119 76/240/76 75/188/75 116/292/118
f 118/296/120 76/240/76 117/295/119
f 119/297/121 76/240/76 118/296/120
f 113/298/115 93/238/94 76/240/76 119/297/121
f 77/196/77 78/195/78 120/299/122 121/300/123 113/301/115
f 78/302/78 122/303/124 120/304/122
f 79/305/79 123/306/125 122/303/124 78/302/78
f 80/307/80 123/306/125 79/305/79
f 81/308/81 124/309/126 123/306/125 80/307/80
f 81/308/81 125/310/127 124/309/126
f 81/308/81 91/311/92 126/312/128 125/310/127
f 88/221/89 82/202/82 114/288/116
f 83/313/84 85/314/86 92/315/93
f 127/316/129 85/214/86 84/213/85
f 127/317/129 84/220/85 89/222/90
f 85/314/86 128/318/130 92/315/93
f 127/317/129 128/319/130 85/320/86
f 92/321/93 128/319/130 86/322/87
f 87/323/88 86/322/87 128/319/130
f 90/324/91 87/323/88 128/319/130 129/325/131
f 126/312/128 89/222/90 88/221/89 125/310/127
f 125/310/127 88/221/89 114/288/116
f 129/325/131 127/317/129 89/222/90 126/312/128
f 91/311/92 90/324/91 129/325/131 126/312/128
f 113/301/115 121/300/123 130/326/132 95/244/96 93/243/94
f 95/327/96 131/328/133 132/329/134 94/330/95
f 94/330/95 132/329/134 96/331/97
f 130/332/132 131/328/133 95/327/96
f 96/331/97 132/329/134 133/333/135 97/334/98
f 133/333/135 134/335/136 97/334/98
f 134/335/136 135/336/137 106/337/108 97/334/98
f 115/338/117 98/339/100 105/340/107
f 108/278/110 100/341/102 99/290/101
f 101/342/103 100/343/102 136/344/138
f 108/345/110 137/249/139 100/346/102
f 100/258/102 137/347/139 136/348/138
f 104/349/106 101/342/103 136/344/138
f 102/275/104 137/350/139 108/276/110
f 137/351/139 102/352/104 103/353/105
f 138/354/140 137/347/139 103/355/105 107/356/109
f 134/335/136 105/264/107 104/263/106 135/336/137
f 135/336/137 104/263/106 136/348/138 138/354/140
f 115/357/117 105/264/107 134/335/136
f 135/336/137 138/354/140 107/356/109 106/337/108
f 124/358/126 139/359/141 109/360/111 110/361/112
f 139/362/141 111/363/113 109/364/111
f 124/358/126 110/361/112 123/365/125
f 123/366/125 110/367/112 122/368/124
f 110/369/112 140/370/142 141/371/143 122/372/124
f 110/280/112 112/283/114 140/373/142
f 125/310/127 114/288/116 111/363/113 139/362/141
f 140/374/142 112/375/114 113/376/115
f 113/377/115 119/378/121 140/379/142
f 142/380/144 116/381/118 115/357/117 134/335/136
f 117/382/119 116/381/118 142/380/144
f 118/383/120 117/384/119 142/385/144 133/386/135
f 132/387/134 118/383/120 133/386/135
f 131/388/133 118/383/120 132/387/134
f 131/389/133 141/390/143 140/391/142 118/392/120
f 140/393/142 119/394/121 118/395/120
f 122/396/124 141/397/143 121/398/123 120/399/122
f 130/400/132 121/401/123 141/402/143 131/403/133
f 124/309/126 125/310/127 139/362/141
f 128/319/130 127/317/129 129/325/131
f 142/380/144 134/335/136 133/333/135
f 138/354/140 136/348/138 137/347/139
