# Blender 4.3.0
# www.blender.org
mtllib cerv2sm.mtl
o cerv2sm
v -0.009008 0.097740 0.000128
v -0.003098 0.106414 0.000128
v -0.002501 0.106676 -0.003561
v -0.009939 0.097487 0.000128
v -0.002501 0.106676 0.003817
v -0.004522 0.090511 -0.001808
v -0.003179 0.105718 -0.001265
v -0.004523 0.090509 0.000128
v -0.003179 0.105718 0.001522
v -0.004522 0.090511 0.002064
v 0.002113 0.110556 -0.010386
v -0.003443 0.106470 -0.004225
v -0.004757 0.100578 -0.010064
v -0.010909 0.092771 -0.004490
v -0.016433 0.091014 -0.003197
v -0.022020 0.090403 -0.003005
v -0.022315 0.092426 0.000128
v -0.022020 0.090403 0.003261
v -0.016433 0.091014 0.003453
v -0.010909 0.092771 0.004746
v -0.004757 0.100578 0.010320
v 0.002113 0.110556 0.010642
v -0.003443 0.106470 0.004482
v 0.000445 0.096415 -0.008382
v -0.010386 0.088215 -0.005690
v -0.005515 0.092887 -0.010451
v -0.010390 0.088208 0.000128
v -0.010386 0.088215 0.005946
v 0.000445 0.096415 0.008638
v -0.005515 0.092887 0.010707
v 0.007247 0.105851 -0.010453
v 0.005798 0.107156 -0.011699
v 0.000876 0.106103 -0.019497
v -0.012942 0.087820 -0.004900
v -0.018829 0.084166 -0.004765
v -0.022442 0.081851 -0.004639
v -0.027475 0.086452 -0.003677
v -0.027300 0.090804 0.000128
v -0.027475 0.086452 0.003933
v -0.022442 0.081851 0.004896
v -0.018829 0.084166 0.005021
v -0.012942 0.087820 0.005156
v 0.000876 0.106103 0.019753
v 0.005798 0.107156 0.011955
v 0.007247 0.105851 0.010709
v 0.011620 0.100649 -0.009312
v 0.009059 0.094876 -0.008371
v 0.009440 0.106221 -0.018251
v -0.003239 0.094165 -0.019665
v -0.012945 0.087814 0.000128
v -0.001300 0.100487 -0.020956
v -0.004274 0.093756 -0.014824
v 0.011620 0.100649 0.009569
v 0.009059 0.094876 0.008627
v 0.009440 0.106221 0.018508
v -0.003239 0.094165 0.019921
v -0.001300 0.100487 0.021212
v -0.004274 0.093756 0.015080
v 0.011847 0.110862 -0.008428
v 0.011683 0.112269 -0.009360
v 0.010204 0.107232 -0.011199
v 0.011533 0.107802 -0.014183
v 0.007356 0.110068 -0.016077
v 0.003538 0.101760 -0.020771
v 0.008679 0.111845 -0.021827
v -0.018831 0.084161 0.000128
v -0.022445 0.081846 0.000128
v -0.027134 0.083269 -0.003587
v -0.027134 0.083269 0.003843
v 0.003538 0.101760 0.021015
v 0.008679 0.111845 0.022072
v 0.007356 0.110068 0.016333
v 0.010204 0.107232 0.011455
v 0.011533 0.107802 0.014439
v 0.011683 0.112269 0.009617
v 0.011847 0.110862 0.008684
v 0.010496 0.093915 -0.003494
v 0.029364 0.094633 -0.007279
v 0.026170 0.095683 -0.012782
v 0.022477 0.095663 -0.014277
v 0.018544 0.100568 -0.015675
v 0.012099 0.105042 -0.015570
v 0.007048 0.109562 -0.023719
v 0.009865 0.100218 -0.020411
v 0.009090 0.107606 -0.025800
v 0.008453 0.099145 -0.027718
v 0.012110 0.097840 -0.024772
v 0.015210 0.105271 -0.016655
v 0.015753 0.104336 -0.020017
v 0.015266 0.097424 -0.022562
v 0.017506 0.102791 -0.019334
v 0.005327 0.102296 -0.024136
v 0.010496 0.093915 0.003750
v 0.026170 0.095683 0.013038
v 0.029364 0.094633 0.007535
v 0.022477 0.095663 0.014533
v 0.018544 0.100568 0.015931
v 0.012099 0.105042 0.015826
v 0.007048 0.109562 0.023964
v 0.009090 0.107606 0.026045
v 0.009865 0.100218 0.020656
v 0.008453 0.099145 0.027962
v 0.012110 0.097840 0.025016
v 0.016031 0.098667 0.019360
v 0.015210 0.105271 0.016911
v 0.017782 0.097150 0.018707
v 0.015266 0.097424 0.022806
v 0.005327 0.102296 0.024380
v 0.013654 0.115136 -0.009939
v 0.014426 0.110233 -0.004396
v 0.015152 0.114334 -0.012208
v 0.013473 0.109845 -0.002037
v 0.010545 0.093217 0.000128
v 0.014309 0.113410 -0.013387
v 0.014309 0.113410 0.013643
v 0.015152 0.114334 0.012464
v 0.013654 0.115136 0.010195
v 0.014426 0.110233 0.004652
v 0.013473 0.109845 0.002293
v 0.030648 0.094798 -0.001843
v 0.030614 0.094943 0.000128
v 0.028127 0.108602 -0.006414
v 0.024738 0.109446 -0.009989
v 0.022266 0.110609 -0.011366
v 0.018807 0.107466 -0.014712
v 0.017348 0.104116 -0.019839
v 0.012902 0.099904 -0.021025
v 0.010615 0.100553 -0.027170
v 0.014897 0.098650 -0.021810
v 0.030648 0.094798 0.002099
v 0.028127 0.108602 0.006670
v 0.024738 0.109446 0.010245
v 0.022266 0.110609 0.011622
v 0.018807 0.107466 0.014968
v 0.017625 0.098452 0.019190
v 0.012902 0.099904 0.021270
v 0.010615 0.100553 0.027415
v 0.014897 0.098650 0.022055
v 0.017407 0.113472 -0.011447
v 0.016281 0.109094 0.000128
v 0.021851 0.121234 0.000128
v 0.017407 0.113472 0.011703
vn -0.4044 0.9146 -0.0000
vn 0.3113 0.9503 -0.0000
vn -0.5778 0.7805 0.2385
vn -0.6959 0.7182 -0.0000
vn -0.5778 0.7806 -0.2385
vn 0.7433 -0.6690 -0.0003
vn 0.9637 -0.1481 0.2224
vn 0.7999 -0.6001 -0.0000
vn 0.9636 -0.1481 -0.2224
vn 0.7433 -0.6690 0.0003
vn 0.0128 0.9704 0.2411
vn -0.8297 0.2163 0.5146
vn -0.8594 0.3465 -0.3761
vn -0.5976 0.4033 -0.6930
vn -0.2291 0.4742 -0.8501
vn -0.1889 0.5041 -0.8427
vn -0.3676 0.9300 -0.0000
vn -0.1889 0.5042 0.8427
vn -0.2291 0.4742 0.8501
vn -0.5976 0.4033 0.6930
vn -0.8594 0.3464 0.3761
vn 0.0128 0.9704 -0.2411
vn -0.8299 0.2165 -0.5142
vn 0.7535 -0.5855 0.2991
vn -0.1521 -0.7738 -0.6149
vn -0.2179 -0.6613 -0.7177
vn 0.2603 -0.9655 -0.0000
vn -0.1521 -0.7738 0.6149
vn 0.7535 -0.5855 -0.2991
vn -0.2179 -0.6613 0.7177
vn -0.1406 0.3436 0.9285
vn 0.1191 0.7860 0.6066
vn -0.6301 0.6117 -0.4784
vn -0.0491 -0.6059 -0.7941
vn 0.2721 -0.4952 -0.8251
vn -0.1337 -0.7640 -0.6312
vn -0.7609 0.1815 -0.6229
vn -0.8209 0.5710 -0.0000
vn -0.7610 0.1815 0.6229
vn -0.1337 -0.7639 0.6313
vn 0.2723 -0.4952 0.8250
vn -0.0491 -0.6059 0.7941
vn -0.6296 0.6116 0.4791
vn 0.1191 0.7860 -0.6066
vn -0.1405 0.3436 -0.9285
vn -0.9131 0.3429 0.2205
vn -0.6114 -0.7873 -0.0802
vn 0.0467 -0.9988 0.0110
vn -0.4335 -0.7346 -0.5220
vn 0.3470 -0.9379 -0.0000
vn -0.7116 0.3024 -0.6341
vn -0.9117 0.3689 -0.1810
vn -0.9131 0.3428 -0.2208
vn -0.6114 -0.7872 0.0802
vn -0.0281 -0.9994 -0.0209
vn -0.4333 -0.7345 0.5223
vn -0.7110 0.3024 0.6348
vn -0.9117 0.3689 0.1810
vn -0.7510 0.3064 0.5850
vn -0.8559 0.4963 -0.1450
vn -0.4752 0.8488 -0.2317
vn -0.2216 0.8040 -0.5518
vn 0.0441 0.9990 0.0004
vn -0.4955 0.7248 -0.4788
vn 0.3997 0.6612 -0.6349
vn 0.5334 -0.8459 -0.0000
vn -0.2497 -0.9683 -0.0000
vn -0.6248 -0.7785 -0.0604
vn -0.6248 -0.7785 0.0603
vn -0.4949 0.7246 0.4797
vn 0.4000 0.6610 0.6348
vn 0.0444 0.9990 -0.0000
vn -0.4752 0.8488 0.2317
vn -0.2215 0.8040 0.5518
vn -0.8559 0.4964 0.1449
vn -0.7510 0.3064 -0.5849
vn -0.7157 -0.6931 0.0861
vn 0.6861 -0.6280 -0.3673
vn 0.5022 -0.4887 -0.7134
vn 0.1746 -0.6134 -0.7703
vn 0.2439 -0.3649 -0.8985
vn 0.1088 0.8800 -0.4623
vn 0.7594 0.5622 -0.3274
vn -0.1846 0.7623 -0.6203
vn 0.4670 0.8778 -0.1068
vn 0.3979 0.4871 -0.7774
vn -0.2408 -0.4851 -0.8407
vn 0.1353 -0.9704 -0.1999
vn -0.0961 0.7180 -0.6894
vn -0.0851 0.5982 -0.7968
vn 0.5620 -0.8262 -0.0398
vn 0.6944 -0.5296 -0.4871
vn -0.6503 0.3049 -0.6958
vn -0.7157 -0.6931 -0.0861
vn 0.5022 -0.4887 0.7134
vn 0.6861 -0.6280 0.3673
vn 0.1746 -0.6134 0.7703
vn 0.4590 -0.4314 0.7766
vn 0.8117 0.4740 0.3412
vn 0.1088 0.8800 0.4623
vn -0.1849 0.7620 0.6206
vn 0.3978 0.4871 0.7775
vn 0.6355 0.7695 0.0634
vn -0.2411 -0.4853 0.8404
vn 0.1351 -0.9705 0.1995
vn 0.3351 0.7429 0.5796
vn 0.1278 0.4657 0.8756
vn 0.4920 -0.8395 -0.2307
vn 0.2940 -0.9028 0.3138
vn -0.6501 0.3052 0.6958
vn -0.3330 0.9181 0.2151
vn -0.0568 0.9919 0.1138
vn -0.0201 0.8545 -0.5191
vn -0.5476 0.7018 0.4557
vn -0.6894 -0.7244 -0.0000
vn -0.2931 0.5912 -0.7514
vn -0.2931 0.5911 0.7514
vn -0.0201 0.8545 0.5191
vn -0.3329 0.9181 -0.2151
vn -0.0568 0.9919 -0.1138
vn -0.5476 0.7018 -0.4557
vn 0.8062 -0.5915 0.0127
vn 0.8248 -0.5654 -0.0000
vn 0.8087 0.5369 -0.2401
vn 0.5716 0.7081 -0.4146
vn 0.5503 0.7419 -0.3830
vn 0.5145 0.3497 -0.7829
vn 0.4189 0.5097 -0.7514
vn 0.3124 0.7267 -0.6118
vn 0.4538 0.1831 -0.8721
vn 0.5068 0.3418 -0.7914
vn 0.8062 -0.5915 -0.0127
vn 0.8087 0.5369 0.2401
vn 0.5716 0.7081 0.4146
vn 0.5503 0.7419 0.3830
vn 0.4737 0.2986 0.8286
vn 0.7604 0.2974 0.5773
vn 0.4219 0.8851 -0.1964
vn 0.4537 0.1829 0.8722
vn 0.6748 0.5872 0.4470
vn 0.5474 0.8228 -0.1531
vn -0.6385 0.7696 -0.0000
vn 0.0762 0.9971 -0.0000
vn 0.5474 0.8228 0.1531
vt 0.880158 0.881038
vt 0.874562 0.981659
vt 0.840637 0.987609
vt 0.623919 0.649821
vt 0.623919 0.755277
vt 0.619146 0.750673
vt 0.909774 0.987609
vt 0.000153 0.590562
vt 0.005474 0.584619
vt 0.005474 0.698397
vt 0.326633 0.196473
vt 0.269798 0.273075
vt 0.255949 0.269356
vt 0.310850 0.186049
vt 0.282601 0.294412
vt 0.247062 0.258091
vt 0.295047 0.175656
vt 0.222414 0.254744
vt 0.015387 0.800361
vt 0.018440 0.886155
vt 0.012424 0.910217
vt 0.029469 0.885632
vt 0.566031 0.815773
vt 0.640974 0.838927
vt 0.640974 0.950200
vt 0.590350 0.934279
vt 0.014452 0.584619
vt 0.014452 0.672284
vt 0.006457 0.664280
vt 0.914767 0.736232
vt 0.870732 0.656756
vt 0.884717 0.611517
vt 0.912174 0.628451
vt 0.863874 0.697366
vt 0.079003 0.702074
vt 0.043180 0.704674
vt 0.043329 0.660129
vt 0.096843 0.581772
vt 0.037743 0.606349
vt 0.015678 0.500612
vt 0.096843 0.462896
vt 0.106245 0.507429
vt 0.108684 0.531090
vt 0.096843 0.618085
vt 0.117974 0.530586
vt 0.006777 0.679587
vt 0.014452 0.758936
vt 0.204703 0.767218
vt 0.111126 0.725780
vt 0.228751 0.671922
vt 0.340248 0.292530
vt 0.391258 0.167341
vt 0.394273 0.247294
vt 0.343836 0.136001
vt 0.096843 0.838029
vt 0.296336 0.104780
vt 0.781737 0.469763
vt 0.704647 0.517641
vt 0.661741 0.416569
vt 0.828927 0.556665
vt 0.221673 0.133538
vt 0.201406 0.201023
vt 0.162601 0.851337
vt 0.143879 0.856786
vt 0.096843 0.766578
vt 0.096843 0.883816
vt 0.710973 0.983553
vt 0.661741 0.983553
vt 0.678559 0.901649
vt 0.959867 0.576774
vt 0.959867 0.668806
vt 0.925010 0.570472
vt 0.941744 0.556665
vt 0.914767 0.640453
vt 0.944140 0.784375
vt 0.826320 0.671577
vt 0.814579 0.619219
vt 0.806862 0.587208
vt 0.866664 0.558011
vt 0.914767 0.585638
vt 0.073352 0.747985
vt 0.022897 0.766578
vt 0.815342 0.292789
vt 0.850891 0.218838
vt 0.876227 0.264154
vt 0.876651 0.317326
vt 0.813943 0.255977
vt 0.810592 0.196791
vt 0.837234 0.164158
vt 0.801427 0.172191
vt 0.876651 0.060281
vt 0.194812 0.555427
vt 0.180813 0.671922
vt 0.281818 0.462896
vt 0.252533 0.537084
vt 0.702331 0.387514
vt 0.722288 0.385589
vt 0.968992 0.327640
vt 0.983260 0.415745
vt 0.935493 0.415745
vt 0.228751 0.849922
vt 0.452693 0.873923
vt 0.452693 0.974524
vt 0.413885 0.900796
vt 0.801427 0.179522
vt 0.662541 0.217534
vt 0.661963 0.144633
vt 0.351001 0.451430
vt 0.455463 0.318034
vt 0.356343 0.117026
vt 0.397328 0.144106
vt 0.968555 0.784375
vt 0.968555 0.951519
vt 0.931437 0.912157
vt 0.944580 0.819879
vt 0.914767 0.853956
vt 0.315295 0.090041
vt 0.787042 0.368166
vt 0.828927 0.405326
vt 0.455463 0.815773
vt 0.493541 0.741713
vt 0.616981 0.815773
vt 0.132536 0.105201
vt 0.051135 0.253796
vt 0.236719 0.658692
vt 0.263903 0.579753
vt 0.281818 0.623886
vt 0.211200 0.949357
vt 0.206078 0.957778
vt 0.164731 0.901651
vt 0.211200 0.856786
vt 0.014452 0.530382
vt 0.000000 0.479605
vt 0.014452 0.462896
vt 0.661741 0.921243
vt 0.661741 0.955046
vt 0.646449 0.947404
vt 0.326659 0.931040
vt 0.366279 0.919563
vt 0.366279 0.972716
vt 0.337993 0.960083
vt 0.815564 0.874144
vt 0.837345 0.796007
vt 0.868616 0.881038
vt 0.403015 0.976272
vt 0.366279 0.940614
vt 0.403015 0.919563
vt 0.760728 0.852816
vt 0.846290 0.788900
vt 0.393543 0.060582
vt 0.433434 0.086926
vt 0.416604 0.025592
vt 0.455463 0.051265
vt 0.800660 0.968840
vt 0.840637 0.881038
vt 0.840637 0.981314
vt 0.968130 0.220848
vt 1.000000 0.187542
vt 1.000000 0.296473
vt 0.837973 0.556665
vt 0.000153 0.545711
vt 0.760728 0.956351
vt 0.772405 0.916036
vt 0.787082 0.894893
vt 0.849753 0.327640
vt 0.353604 0.034312
vt 0.377680 0.000000
vt 0.486585 0.940330
vt 0.521165 0.931187
vt 0.521165 0.982061
vt 0.749199 0.116592
vt 0.678746 0.038798
vt 0.732287 0.019199
vt 0.760565 0.091085
vt 0.781377 0.016337
vt 0.720237 0.355455
vt 0.672792 0.345496
vt 0.713332 0.327640
vt 0.760728 0.988976
vt 0.721560 0.935030
vt 0.751473 0.901649
vt 0.760728 0.909012
vt 0.342121 0.856657
vt 0.330612 0.827155
vt 0.352597 0.781146
vt 0.645239 0.849483
vt 0.661741 0.812546
vt 0.712923 0.700669
vt 0.721983 0.569192
vt 0.772367 0.565815
vt 0.293587 0.675999
vt 0.449248 0.639022
vt 0.455463 0.686671
vt 0.313432 0.729764
vt 0.343230 0.744371
vt 0.728794 0.327640
vt 0.760792 0.273461
vt 0.562594 0.552023
vt 0.557006 0.587486
vt 0.511018 0.595647
vt 0.531991 0.550710
vt 0.801427 0.060281
vt 0.836278 0.004959
vt 0.845940 0.060281
vt 0.532625 0.931187
vt 0.554182 0.974596
vt 0.521165 0.974596
vt 0.868616 0.806925
vt 0.888589 0.760031
vt 0.914762 0.845321
vt 0.885457 0.860660
vt 0.454217 0.462896
vt 0.911699 0.449253
vt 0.911699 0.556665
vt 0.869682 0.544493
vt 0.618891 0.593261
vt 0.570438 0.530411
vt 0.592117 0.541339
vt 0.229579 0.900551
vt 0.211200 0.871678
vt 0.229579 0.856786
vt 0.836305 0.529956
vt 0.828927 0.465509
vt 0.801427 0.262132
vt 0.413885 0.850728
vt 0.425811 0.789076
vt 0.455463 0.873923
vt 0.455463 0.744371
vt 0.813945 0.781073
vt 0.868616 0.751856
vt 0.798165 0.144633
vt 0.781377 0.090166
vt 0.798165 0.006689
vt 0.380461 0.914109
vt 0.339664 0.919563
vt 0.358672 0.789365
vt 0.313432 0.477502
vt 0.455463 0.520600
vt 0.449248 0.568248
vt 0.293587 0.531265
vt 0.343230 0.462896
vt 0.619146 0.710767
vt 0.603591 0.649821
vt 0.296118 0.967301
vt 0.281818 0.919563
vt 0.326659 0.931868
vt 0.326659 0.970054
vt 0.969768 0.000421
vt 0.969768 0.051609
vt 0.928446 0.001396
vt 0.519373 0.021602
vt 0.543365 0.000000
vt 0.556892 0.055542
vt 0.572445 0.004026
vt 0.618622 0.051405
vt 0.000000 0.163534
vt 0.522088 0.833973
vt 0.566031 0.931187
vt 0.639547 0.106779
vt 0.570615 0.109258
vt 0.862338 0.060281
vt 0.845940 0.033106
vt 0.862338 0.011159
vt 0.455463 0.883553
vt 0.489066 0.850779
vt 0.459142 0.924785
vt 0.990476 0.663607
vt 0.990476 0.784375
vt 0.959867 0.717134
vt 0.661741 0.649821
vt 0.661741 0.795168
vt 0.625393 0.767241
vt 0.781377 0.144633
vt 0.713209 0.127421
vt 0.699642 0.744739
vt 0.758379 0.708272
vt 0.683677 0.751856
vt 0.702348 0.710689
vt 0.777964 0.696251
vt 0.806862 0.556665
vt 0.671274 0.741218
vt 0.686244 0.667609
vt 0.661741 0.684194
vt 0.484671 0.523784
vt 0.766923 0.821829
vt 0.682740 0.071610
vt 0.310759 0.757122
vt 0.321363 0.744371
vt 0.300569 0.815494
vt 0.281818 0.831456
vt 0.347326 0.747988
vt 0.389486 0.774179
vt 0.413115 0.782294
vt 0.413115 0.916923
vt 0.282349 0.622889
vt 0.281818 0.603632
vt 0.452730 0.603635
vt 0.656807 0.364011
vt 0.527654 0.372121
vt 0.637759 0.327640
vt 0.661741 0.417221
vt 0.526944 0.417984
vt 0.660446 0.455892
vt 0.614752 0.496709
vt 0.517051 0.445754
vt 0.550653 0.490712
vt 0.606588 0.522937
vt 0.596422 0.526795
vt 0.054443 0.987825
vt 0.056681 0.954573
vt 0.096843 0.971437
vt 0.914762 0.751856
vt 0.629667 0.570027
vt 0.096843 0.910217
vt 0.642227 0.618405
vt 0.571880 0.625872
vt 0.605641 0.649821
vt 0.652622 0.639364
vt 0.660234 0.594085
vt 0.661741 0.556639
vt 0.647425 0.556431
vt 0.282349 0.584375
vt 0.656749 0.284070
vt 0.528202 0.265820
vt 0.527571 0.217358
vt 0.661963 0.224689
vt 0.660486 0.187983
vt 0.637333 0.327640
vt 0.517656 0.189193
vt 0.614859 0.144984
vt 0.551086 0.145810
vt 0.643943 0.119861
vt 0.653881 0.125421
vt 0.486585 0.931187
vt 0.486585 0.993221
vt 0.455463 0.984832
vt 0.661963 0.089360
vt 0.936777 0.142358
vt 0.975056 0.062589
vt 0.963345 0.155482
vt 0.928446 0.062589
vt 0.876651 0.032889
vt 0.928446 0.000421
vt 0.642646 0.014019
vt 0.629694 0.070321
vt 0.975056 0.183058
vt 0.643806 0.812546
vt 0.211200 0.906620
vt 0.229412 0.900551
vt 0.229412 0.937983
vt 0.647621 0.081433
vt 0.660408 0.043014
vt 0.661963 0.080707
vt 0.484938 0.114705
vt 0.958795 0.544750
vt 0.925886 0.504478
vt 0.911699 0.464652
vt 0.978470 0.444188
vt 0.482832 0.488148
vt 0.473745 0.511148
vt 0.455463 0.513503
vt 0.978470 0.556665
vt 0.012424 0.972020
vt 0.051534 0.910217
vt 0.051534 0.995020
vt 0.661741 0.836679
vt 0.698897 0.839781
vt 0.760728 0.751856
vt 0.760728 0.901649
vt 0.806862 0.706853
vt 0.968130 0.327640
vt 0.936777 0.316994
vt 0.968130 0.187542
vt 0.992643 0.556665
vt 0.992643 0.660687
vt 0.959867 0.647816
vt 0.483192 0.149771
vt 0.474030 0.127404
vt 0.455463 0.129787
vt 0.164731 0.988111
vt 0.096843 0.988111
vt 0.101614 0.945725
vt 0.123608 0.896105
vt 0.138755 0.876246
vt 0.161299 0.856786
vt 0.935493 0.327640
vt 0.935493 0.434991
vt 0.828927 0.374096
vt 0.838916 0.338573
vt 0.957084 0.415745
vt 0.957084 0.440139
vt 0.935493 0.437516
vt 0.876651 0.190278
vt 0.936777 0.062589
vt 0.936777 0.327640
vt 0.922639 0.326389
vt 0.270980 0.674719
vt 0.281818 0.671922
vt 0.281818 0.933109
vt 0.229731 0.812449
s 1
usemtl Material_with_Texture.045
f 1/1/1 2/2/2 3/3/3
f 3/4/3 4/5/4 1/6/1
f 5/7/5 2/2/2 1/1/1
f 1/8/1 4/9/4 5/10/5
f 6/11/6 7/12/7 2/13/2
f 8/14/8 6/11/6 2/13/2
f 2/13/2 7/12/7 3/15/3
f 2/13/2 9/16/9 10/17/10
f 2/13/2 10/17/10 8/14/8
f 5/18/5 9/16/9 2/13/2
f 11/19/11 3/20/3 7/21/7
f 11/19/11 12/22/12 3/20/3
f 3/23/3 13/24/13 14/25/14 4/26/4
f 13/27/13 3/28/3 12/29/12
f 4/30/4 15/31/15 16/32/16 17/33/17
f 14/34/14 15/31/15 4/30/4
f 17/35/17 18/36/18 19/37/19 4/38/4
f 4/38/4 19/37/19 20/39/20
f 4/38/4 20/39/20 21/40/21 5/41/5
f 9/42/9 5/43/5 22/44/22
f 5/43/5 23/45/23 22/44/22
f 23/46/23 5/28/5 21/47/21
f 24/48/24 7/49/7 6/50/6
f 24/51/24 6/11/6 25/52/25 26/53/26
f 25/52/25 6/11/6 8/14/8 27/54/27
f 11/55/11 7/49/7 24/48/24
f 27/54/27 8/14/8 10/17/10 28/56/28
f 29/57/29 9/58/9 22/59/22
f 10/60/10 9/58/9 29/57/29
f 30/61/30 28/56/28 10/17/10 29/62/29
f 31/63/31 32/64/32 11/55/11 24/48/24
f 11/19/11 33/65/33 13/66/13 12/22/12
f 11/67/11 32/68/32 33/69/33
f 14/70/14 13/71/13 25/72/25 34/73/34
f 13/71/13 26/74/26 25/72/25
f 13/71/13 33/75/33 26/74/26
f 15/31/15 14/34/14 34/76/34 35/77/35
f 15/31/15 35/77/35 36/78/36
f 16/32/16 15/31/15 36/78/36
f 17/33/17 16/32/16 37/79/37 38/80/38
f 36/78/36 37/79/37 16/32/16
f 38/81/38 39/82/39 18/36/18 17/35/17
f 40/83/40 19/84/19 18/85/18
f 18/85/18 39/86/39 40/83/40
f 40/83/40 41/87/41 19/84/19
f 41/87/41 42/88/42 20/89/20 19/84/19
f 42/88/42 28/90/28 21/91/21 20/89/20
f 23/45/23 21/92/21 43/93/43 22/44/22
f 28/94/28 30/95/30 21/92/21
f 30/95/30 43/93/43 21/92/21
f 29/57/29 22/59/22 44/96/44 45/97/45
f 43/98/43 44/99/44 22/100/22
f 31/63/31 24/48/24 46/101/46
f 46/102/46 24/103/24 47/104/47
f 48/105/48 47/106/47 24/107/24
f 48/108/48 24/51/24 26/53/26 49/109/49
f 50/110/50 34/111/34 25/52/25 27/54/27
f 26/112/26 33/113/33 51/114/51
f 26/112/26 51/114/51 52/115/52
f 26/112/26 52/115/52 49/116/49
f 27/54/27 28/56/28 42/117/42 50/110/50
f 53/118/53 29/57/29 45/97/45
f 54/119/54 29/57/29 53/118/53
f 29/120/29 54/121/54 55/122/55
f 56/123/56 30/61/30 29/62/29 55/124/55
f 57/125/57 43/93/43 30/95/30
f 58/126/58 57/125/57 30/95/30
f 56/127/56 58/126/58 30/95/30
f 59/128/59 60/129/60 31/130/31 46/131/46
f 60/132/60 61/133/61 31/134/31
f 61/135/61 32/136/32 31/137/31
f 62/138/62 63/139/63 32/140/32 61/141/61
f 63/142/63 33/143/33 32/144/32
f 33/145/33 64/146/64 51/147/51
f 33/143/33 63/142/63 65/148/65 64/149/64
f 66/150/66 35/151/35 34/111/34 50/110/50
f 67/152/67 36/153/36 35/151/35 66/150/66
f 67/154/67 38/155/38 36/156/36
f 68/157/68 36/158/36 38/159/38
f 68/160/68 37/79/37 36/78/36
f 37/161/37 68/132/68 38/27/38
f 40/162/40 38/155/38 67/154/67
f 38/155/38 69/163/69 39/164/39
f 38/155/38 40/162/40 69/163/69
f 40/83/40 39/86/39 69/165/69
f 66/150/66 41/166/41 40/167/40 67/152/67
f 50/110/50 42/117/42 41/166/41 66/150/66
f 57/168/57 70/169/70 43/170/43
f 70/171/70 71/172/71 72/173/72 43/174/43
f 44/175/44 43/174/43 72/173/72
f 73/176/73 44/96/44 72/177/72 74/178/74
f 45/97/45 44/96/44 73/176/73
f 53/179/53 45/180/45 75/181/75 76/182/76
f 45/183/45 73/184/73 75/185/75
f 59/135/59 46/186/46 47/187/47
f 59/188/59 47/189/47 77/190/77
f 78/191/78 77/192/77 47/193/47 79/194/79
f 79/194/79 47/193/47 80/195/80
f 80/196/80 47/106/47 81/197/81
f 47/106/47 48/105/48 81/197/81
f 82/198/82 48/199/83 63/200/63 62/201/62
f 48/202/83 65/203/65 63/204/63
f 48/205/83 83/206/84 65/207/65
f 48/208/83 84/209/85 85/210/86 83/211/84
f 48/108/48 49/109/49 86/212/87
f 48/213/48 86/214/87 87/215/88
f 84/216/85 48/199/83 88/217/89 89/218/90
f 48/219/83 82/220/82 88/221/89
f 90/222/91 91/223/92 48/213/48
f 91/224/92 81/197/81 48/105/48
f 48/213/48 87/215/88 90/222/91
f 52/115/52 51/114/51 49/116/49
f 51/225/51 92/226/93 49/227/49
f 92/226/93 86/228/87 49/227/49
f 64/149/64 92/229/93 51/230/51
f 54/231/54 53/232/53 76/233/76
f 93/234/94 54/235/54 76/236/76
f 94/237/95 54/238/54 93/239/94 95/240/96
f 96/241/97 54/238/54 94/237/95
f 97/242/98 54/121/54 96/243/97
f 97/242/98 55/122/55 54/121/54
f 74/244/74 72/245/72 55/246/99 98/247/100
f 72/248/72 71/249/71 55/250/99
f 71/251/71 99/252/101 55/253/99
f 99/252/101 100/254/102 101/255/103 55/253/99
f 102/256/104 56/123/56 55/124/55
f 103/257/105 102/23/104 55/258/55
f 104/259/106 105/260/107 55/253/99 101/255/103
f 105/261/107 98/262/100 55/263/99
f 55/258/55 106/264/108 107/265/109
f 55/258/55 97/266/98 106/264/108
f 107/265/109 103/257/105 55/258/55
f 56/127/56 57/125/57 58/126/58
f 56/267/56 108/268/110 57/269/57
f 56/270/56 102/271/104 108/272/110
f 57/273/57 108/274/110 70/171/70
f 109/275/111 59/188/59 110/276/112
f 111/277/113 60/278/60 59/188/59 109/275/111
f 110/276/112 59/188/59 112/279/114
f 112/279/114 59/188/59 77/190/77 113/280/115
f 111/277/113 114/281/116 61/282/61 60/278/60
f 114/281/116 62/283/62 61/282/61
f 82/198/82 62/201/62 114/284/116
f 83/285/84 64/149/64 65/148/65
f 92/229/93 64/149/64 83/285/84
f 71/172/71 70/171/70 99/286/101
f 99/286/101 70/171/70 108/274/110
f 75/185/75 73/184/73 115/287/117 116/288/118
f 73/184/73 74/289/74 115/287/117
f 115/287/117 74/289/74 98/290/100
f 117/291/119 76/236/76 75/185/75 116/288/118
f 118/292/120 76/236/76 117/291/119
f 119/293/121 76/236/76 118/292/120
f 113/294/115 93/234/94 76/236/76 119/293/121
f 77/192/77 78/191/78 120/295/122 121/296/123 113/297/115
f 78/298/78 122/299/124 120/300/122
f 79/301/79 123/302/125 122/299/124 78/298/78
f 80/303/80 123/302/125 79/301/79
f 81/304/81 124/305/126 123/302/125 80/303/80
f 81/304/81 125/306/127 124/305/126
f 81/304/81 91/307/92 126/308/128 125/306/127
f 88/217/89 82/198/82 114/284/116
f 83/309/84 85/310/86 92/311/93
f 127/312/129 85/210/86 84/209/85
f 127/313/129 84/216/85 89/218/90
f 85/310/86 128/314/130 92/311/93
f 127/313/129 128/315/130 85/316/86
f 92/317/93 128/315/130 86/318/87
f 87/319/88 86/318/87 128/315/130
f 90/320/91 87/319/88 128/315/130 129/321/131
f 126/308/128 89/218/90 88/217/89 125/306/127
f 125/306/127 88/217/89 114/284/116
f 129/321/131 127/313/129 89/218/90 126/308/128
f 91/307/92 90/320/91 129/321/131 126/308/128
f 113/297/115 121/296/123 130/322/132 95/240/96 93/239/94
f 95/323/96 131/324/133 132/325/134 94/326/95
f 94/326/95 132/325/134 96/327/97
f 130/328/132 131/324/133 95/323/96
f 96/327/97 132/325/134 133/329/135 97/330/98
f 133/329/135 134/331/136 97/330/98
f 134/331/136 135/332/137 106/333/108 97/330/98
f 115/334/117 98/335/100 105/336/107
f 108/274/110 100/337/102 99/286/101
f 101/338/103 100/339/102 136/340/138
f 108/341/110 137/342/139 100/343/102
f 100/254/102 137/344/139 136/345/138
f 104/346/106 101/338/103 136/340/138
f 102/271/104 137/347/139 108/272/110
f 137/348/139 102/349/104 103/350/105
f 138/351/140 137/344/139 103/352/105 107/353/109
f 134/331/136 105/260/107 104/259/106 135/332/137
f 135/332/137 104/259/106 136/345/138 138/351/140
f 115/354/117 105/260/107 134/331/136
f 135/332/137 138/351/140 107/353/109 106/333/108
f 124/355/126 139/356/141 109/357/111 110/358/112
f 139/359/141 111/360/113 109/361/111
f 124/355/126 110/358/112 123/362/125
f 123/363/125 110/364/112 122/365/124
f 110/366/112 140/367/142 141/368/143 122/369/124
f 110/276/112 112/279/114 140/370/142
f 125/306/127 114/284/116 111/360/113 139/359/141
f 140/371/142 112/372/114 113/373/115
f 113/374/115 119/375/121 140/376/142
f 142/377/144 116/378/118 115/354/117 134/331/136
f 117/379/119 116/378/118 142/377/144
f 118/380/120 117/381/119 142/382/144 133/383/135
f 132/384/134 118/380/120 133/383/135
f 131/385/133 118/380/120 132/384/134
f 131/386/133 141/387/143 140/388/142 118/389/120
f 140/390/142 119/391/121 118/392/120
f 122/393/124 141/394/143 121/395/123 120/396/122
f 130/397/132 121/398/123 141/399/143 131/400/133
f 124/305/126 125/306/127 139/359/141
f 128/315/130 127/313/129 129/321/131
f 142/377/144 134/331/136 133/329/135
f 138/351/140 136/345/138 137/344/139
