# Blender v3.5.0 OBJ File: ''
# www.blender.org
mtllib checkered_floor.mtl
o checkered_floor
v -0.200000 0.000000 0.400000
v -0.300000 0.000000 0.500000
v -0.300000 0.000000 0.400000
v -0.200000 0.000000 0.500000
v 0.000000 0.000000 0.400000
v -0.100000 0.000000 0.500000
v -0.100000 0.000000 0.400000
v 0.000000 0.000000 0.500000
v 0.200000 0.000000 0.400000
v 0.100000 0.000000 0.500000
v 0.100000 0.000000 0.400000
v 0.200000 0.000000 0.500000
v -0.100000 0.000000 0.300000
v -0.200000 0.000000 0.400000
v -0.200000 0.000000 0.300000
v -0.100000 0.000000 0.400000
v 0.100000 0.000000 0.300000
v 0.000000 0.000000 0.400000
v 0.000000 0.000000 0.300000
v 0.100000 0.000000 0.400000
v 0.300000 0.000000 0.300000
v 0.200000 0.000000 0.400000
v 0.200000 0.000000 0.300000
v 0.300000 0.000000 0.400000
v -0.200000 0.000000 0.200000
v -0.300000 0.000000 0.300000
v -0.300000 0.000000 0.200000
v -0.200000 0.000000 0.300000
v 0.000000 0.000000 0.200000
v -0.100000 0.000000 0.300000
v -0.100000 0.000000 0.200000
v 0.000000 0.000000 0.300000
v 0.200000 0.000000 0.200000
v 0.100000 0.000000 0.300000
v 0.100000 0.000000 0.200000
v 0.200000 0.000000 0.300000
v -0.100000 0.000000 0.100000
v -0.200000 0.000000 0.200000
v -0.200000 0.000000 0.100000
v -0.100000 0.000000 0.200000
v 0.100000 0.000000 0.100000
v 0.000000 0.000000 0.200000
v 0.000000 0.000000 0.100000
v 0.100000 0.000000 0.200000
v 0.300000 0.000000 0.100000
v 0.200000 0.000000 0.200000
v 0.200000 0.000000 0.100000
v 0.300000 0.000000 0.200000
v -0.200000 0.000000 0.000000
v -0.300000 0.000000 0.100000
v -0.300000 0.000000 0.000000
v -0.200000 0.000000 0.100000
v 0.000000 0.000000 0.000000
v -0.100000 0.000000 0.100000
v -0.100000 0.000000 0.000000
v 0.000000 0.000000 0.100000
v 0.200000 0.000000 0.000000
v 0.100000 0.000000 0.100000
v 0.100000 0.000000 0.000000
v 0.200000 0.000000 0.100000
v -0.100000 -0.000000 -0.100000
v -0.200000 0.000000 0.000000
v -0.200000 -0.000000 -0.100000
v -0.100000 0.000000 0.000000
v 0.100000 -0.000000 -0.100000
v 0.000000 0.000000 0.000000
v 0.000000 -0.000000 -0.100000
v 0.100000 0.000000 0.000000
v 0.300000 -0.000000 -0.100000
v 0.200000 0.000000 0.000000
v 0.200000 -0.000000 -0.100000
v 0.300000 0.000000 0.000000
v -0.200000 -0.000000 -0.200000
v -0.300000 -0.000000 -0.100000
v -0.300000 -0.000000 -0.200000
v -0.200000 -0.000000 -0.100000
v 0.000000 -0.000000 -0.200000
v -0.100000 -0.000000 -0.100000
v -0.100000 -0.000000 -0.200000
v 0.000000 -0.000000 -0.100000
v 0.200000 -0.000000 -0.200000
v 0.100000 -0.000000 -0.100000
v 0.100000 -0.000000 -0.200000
v 0.200000 -0.000000 -0.100000
v -0.100000 -0.000000 -0.300000
v -0.200000 -0.000000 -0.200000
v -0.200000 -0.000000 -0.300000
v -0.100000 -0.000000 -0.200000
v 0.100000 -0.000000 -0.300000
v 0.000000 -0.000000 -0.200000
v 0.000000 -0.000000 -0.300000
v 0.100000 -0.000000 -0.200000
v 0.300000 -0.000000 -0.300000
v 0.200000 -0.000000 -0.200000
v 0.200000 -0.000000 -0.300000
v 0.300000 -0.000000 -0.200000
v -0.200000 -0.000000 -0.400000
v -0.300000 -0.000000 -0.300000
v -0.300000 -0.000000 -0.400000
v -0.200000 -0.000000 -0.300000
v 0.000000 -0.000000 -0.400000
v -0.100000 -0.000000 -0.300000
v -0.100000 -0.000000 -0.400000
v 0.000000 -0.000000 -0.300000
v 0.200000 -0.000000 -0.400000
v 0.100000 -0.000000 -0.300000
v 0.100000 -0.000000 -0.400000
v 0.200000 -0.000000 -0.300000
v -0.100000 -0.000000 -0.500000
v -0.200000 -0.000000 -0.400000
v -0.200000 -0.000000 -0.500000
v -0.100000 -0.000000 -0.400000
v 0.100000 -0.000000 -0.500000
v 0.000000 -0.000000 -0.400000
v 0.000000 -0.000000 -0.500000
v 0.100000 -0.000000 -0.400000
v 0.300000 -0.000000 -0.500000
v 0.200000 -0.000000 -0.400000
v 0.200000 -0.000000 -0.500000
v 0.300000 -0.000000 -0.400000
vt 1.000000 0.333333
vt 0.833333 0.166667
vt 1.000000 0.166667
vt 0.833333 0.333333
vt 0.333333 1.000000
vt 0.166667 0.833333
vt 0.333333 0.833333
vt 0.166667 1.000000
vt 0.333333 0.833333
vt 0.166667 0.666667
vt 0.333333 0.666667
vt 0.166667 0.833333
vt 0.333333 0.333333
vt 0.166667 0.500000
vt 0.166667 0.333333
vt 0.333333 0.500000
vt 0.500000 0.833333
vt 0.333333 0.666667
vt 0.500000 0.666667
vt 0.333333 0.833333
vt 0.166667 0.833333
vt 0.000000 0.666667
vt 0.166667 0.666667
vt 0.000000 0.833333
vt 0.166667 0.666667
vt 0.000000 0.500000
vt 0.166667 0.500000
vt 0.000000 0.666667
vt 0.333333 0.000000
vt 0.166667 0.166667
vt 0.166667 0.000000
vt 0.333333 0.166667
vt 0.333333 0.166667
vt 0.166667 0.333333
vt 0.166667 0.166667
vt 0.333333 0.333333
vt 0.833333 0.333333
vt 0.666667 0.166667
vt 0.833333 0.166667
vt 0.666667 0.333333
vt 0.166667 0.333333
vt 0.000000 0.500000
vt 0.000000 0.333333
vt 0.166667 0.500000
vt 0.833333 0.166667
vt 0.666667 0.000000
vt 0.833333 0.000000
vt 0.666667 0.166667
vt 0.500000 0.166667
vt 0.333333 0.333333
vt 0.333333 0.166667
vt 0.500000 0.333333
vt 0.333333 0.500000
vt 0.166667 0.666667
vt 0.166667 0.500000
vt 0.333333 0.666667
vt 0.500000 0.500000
vt 0.333333 0.666667
vt 0.333333 0.500000
vt 0.500000 0.666667
vt 0.666667 0.500000
vt 0.500000 0.666667
vt 0.500000 0.500000
vt 0.666667 0.666667
vt 0.666667 0.166667
vt 0.500000 0.333333
vt 0.500000 0.166667
vt 0.666667 0.333333
vt 0.666667 0.000000
vt 0.500000 0.166667
vt 0.500000 0.000000
vt 0.666667 0.166667
vt 0.833333 0.500000
vt 0.666667 0.333333
vt 0.833333 0.333333
vt 0.666667 0.500000
vt 0.500000 0.000000
vt 0.333333 0.166667
vt 0.333333 0.000000
vt 0.500000 0.166667
vt 0.833333 0.666667
vt 0.666667 0.500000
vt 0.833333 0.500000
vt 0.666667 0.666667
vt 0.166667 0.000000
vt 0.000000 0.166667
vt 0.000000 0.000000
vt 0.166667 0.166667
vt 0.166667 0.166667
vt 0.000000 0.333333
vt 0.000000 0.166667
vt 0.166667 0.333333
vt 0.666667 0.500000
vt 0.500000 0.333333
vt 0.666667 0.333333
vt 0.500000 0.500000
vt 0.833333 0.833333
vt 0.666667 0.666667
vt 0.833333 0.666667
vt 0.666667 0.833333
vt 1.000000 0.166667
vt 0.833333 0.000000
vt 1.000000 0.000000
vt 0.833333 0.166667
vt 0.500000 0.333333
vt 0.333333 0.500000
vt 0.333333 0.333333
vt 0.500000 0.500000
vt 0.666667 0.833333
vt 0.500000 0.666667
vt 0.666667 0.666667
vt 0.500000 0.833333
vt 1.000000 0.500000
vt 0.833333 0.333333
vt 1.000000 0.333333
vt 0.833333 0.500000
vt 0.166667 1.000000
vt 0.000000 0.833333
vt 0.166667 0.833333
vt 0.000000 1.000000
vn 0.0000 -1.0000 0.0000
usemtl Material_with_Texture.055
s off
f 1/1/1 2/2/1 3/3/1
f 1/1/1 4/4/1 2/2/1
f 5/5/1 6/6/1 7/7/1
f 5/5/1 8/8/1 6/6/1
f 9/9/1 10/10/1 11/11/1
f 9/9/1 12/12/1 10/10/1
f 13/13/1 14/14/1 15/15/1
f 13/13/1 16/16/1 14/14/1
f 17/17/1 18/18/1 19/19/1
f 17/17/1 20/20/1 18/18/1
f 21/21/1 22/22/1 23/23/1
f 21/21/1 24/24/1 22/22/1
f 25/25/1 26/26/1 27/27/1
f 25/25/1 28/28/1 26/26/1
f 29/29/1 30/30/1 31/31/1
f 29/29/1 32/32/1 30/30/1
f 33/33/1 34/34/1 35/35/1
f 33/33/1 36/36/1 34/34/1
f 37/37/1 38/38/1 39/39/1
f 37/37/1 40/40/1 38/38/1
f 41/41/1 42/42/1 43/43/1
f 41/41/1 44/44/1 42/42/1
f 45/45/1 46/46/1 47/47/1
f 45/45/1 48/48/1 46/46/1
f 49/49/1 50/50/1 51/51/1
f 49/49/1 52/52/1 50/50/1
f 53/53/1 54/54/1 55/55/1
f 53/53/1 56/56/1 54/54/1
f 57/57/1 58/58/1 59/59/1
f 57/57/1 60/60/1 58/58/1
f 61/61/1 62/62/1 63/63/1
f 61/61/1 64/64/1 62/62/1
f 65/65/1 66/66/1 67/67/1
f 65/65/1 68/68/1 66/66/1
f 69/69/1 70/70/1 71/71/1
f 69/69/1 72/72/1 70/70/1
f 73/73/1 74/74/1 75/75/1
f 73/73/1 76/76/1 74/74/1
f 77/77/1 78/78/1 79/79/1
f 77/77/1 80/80/1 78/78/1
f 81/81/1 82/82/1 83/83/1
f 81/81/1 84/84/1 82/82/1
f 85/85/1 86/86/1 87/87/1
f 85/85/1 88/88/1 86/86/1
f 89/89/1 90/90/1 91/91/1
f 89/89/1 92/92/1 90/90/1
f 93/93/1 94/94/1 95/95/1
f 93/93/1 96/96/1 94/94/1
f 97/97/1 98/98/1 99/99/1
f 97/97/1 100/100/1 98/98/1
f 101/101/1 102/102/1 103/103/1
f 101/101/1 104/104/1 102/102/1
f 105/105/1 106/106/1 107/107/1
f 105/105/1 108/108/1 106/106/1
f 109/109/1 110/110/1 111/111/1
f 109/109/1 112/112/1 110/110/1
f 113/113/1 114/114/1 115/115/1
f 113/113/1 116/116/1 114/114/1
f 117/117/1 118/118/1 119/119/1
f 117/117/1 120/120/1 118/118/1
