# Blender 4.3.0
# www.blender.org
mtllib ConePendulum.mtl
o ConePendulum
v 0.020000 0.500000 -0.000000
v 0.020000 0.000000 0.000000
v -0.010000 -0.000000 -0.017321
v -0.010000 0.500000 -0.017321
v -0.010000 0.000000 0.017321
v -0.010000 0.500000 0.017320
v 0.020000 0.500000 -0.000000
v -0.010000 0.500000 -0.017321
v -0.010000 0.500000 0.017320
v -0.010000 0.000000 0.017321
v -0.010000 -0.000000 -0.017321
v 0.020000 0.000000 0.000000
v -0.066700 -0.099211 0.012533
v -0.066700 -0.096858 0.024869
v -0.066700 -0.092978 0.036812
v -0.066700 -0.087631 0.048175
v -0.066700 -0.080902 0.058779
v -0.066700 -0.072897 0.068455
v -0.066700 -0.063742 0.077051
v -0.066700 -0.053583 0.084433
v -0.066700 -0.042578 0.090483
v -0.066700 -0.030902 0.095106
v -0.066700 -0.018738 0.098229
v -0.066700 -0.006279 0.099803
v -0.066700 0.006279 0.099803
v -0.066700 0.018738 0.098229
v -0.066700 0.030902 0.095106
v -0.066700 0.042578 0.090483
v -0.066700 0.053583 0.084433
v -0.066700 0.063742 0.077051
v -0.066700 0.072897 0.068455
v -0.066700 0.080902 0.058779
v -0.066700 0.087631 0.048175
v -0.066700 0.092978 0.036812
v -0.066700 0.096858 0.024869
v -0.066700 0.099211 0.012533
v -0.066700 0.100000 -0.000000
v -0.066700 0.099211 -0.012533
v -0.066700 0.096858 -0.024869
v -0.066700 0.092978 -0.036812
v -0.066700 0.087631 -0.048175
v -0.066700 0.080902 -0.058779
v -0.066700 0.072897 -0.068455
v -0.066700 0.063742 -0.077051
v -0.066700 0.053583 -0.084433
v -0.066700 0.042578 -0.090483
v -0.066700 0.030902 -0.095106
v -0.066700 0.018738 -0.098229
v -0.066700 0.006279 -0.099803
v -0.066700 -0.006279 -0.099803
v -0.066700 -0.018738 -0.098229
v -0.066700 -0.030902 -0.095106
v -0.066700 -0.042578 -0.090483
v -0.066700 -0.053583 -0.084433
v -0.066700 -0.063742 -0.077051
v -0.066700 -0.072897 -0.068455
v -0.066700 -0.080902 -0.058779
v -0.066700 -0.087631 -0.048175
v -0.066700 -0.092978 -0.036812
v -0.066700 -0.096858 -0.024869
v -0.066700 -0.099211 -0.012533
v -0.066700 -0.100000 0.000000
v 0.133300 0.000000 0.000000
vn 1.0000 -0.0000 -0.0000
vn -0.5000 -0.0000 -0.8660
vn -0.5000 -0.0000 0.8660
vn -0.0000 1.0000 -0.0000
vn -0.0000 -1.0000 -0.0000
vn -0.5111 -0.8528 0.1077
vn -0.5111 -0.8325 0.2137
vn -0.5111 -0.7992 0.3164
vn -0.5111 -0.7532 0.4141
vn -0.5111 -0.6954 0.5052
vn -0.5111 -0.6266 0.5884
vn -0.5111 -0.5479 0.6623
vn -0.5111 -0.4606 0.7257
vn -0.5111 -0.3660 0.7777
vn -0.5111 -0.2656 0.8175
vn -0.5111 -0.1611 0.8443
vn -0.5111 -0.0540 0.8578
vn -0.5111 0.0540 0.8578
vn -0.5111 0.1611 0.8443
vn -0.5111 0.2656 0.8175
vn -0.5111 0.3660 0.7777
vn -0.5111 0.4606 0.7257
vn -0.5111 0.5479 0.6623
vn -0.5111 0.6266 0.5884
vn -0.5111 0.6954 0.5052
vn -0.5111 0.7532 0.4141
vn -0.5111 0.7992 0.3164
vn -0.5111 0.8325 0.2137
vn -0.5111 0.8528 0.1077
vn -0.5111 0.8595 -0.0000
vn -0.5111 0.8528 -0.1077
vn -0.5111 0.8325 -0.2137
vn -0.5111 0.7992 -0.3164
vn -0.5111 0.7532 -0.4141
vn -0.5111 0.6954 -0.5052
vn -0.5111 0.6266 -0.5884
vn -0.5111 0.5479 -0.6623
vn -0.5111 0.4606 -0.7257
vn -0.5111 0.3660 -0.7777
vn -0.5111 0.2656 -0.8175
vn -0.5111 0.1611 -0.8443
vn -0.5111 0.0540 -0.8578
vn -0.5111 -0.0540 -0.8578
vn -0.5111 -0.1611 -0.8443
vn -0.5111 -0.2656 -0.8175
vn -0.5111 -0.3660 -0.7777
vn -0.5111 -0.4606 -0.7257
vn -0.5111 -0.5479 -0.6623
vn -0.5111 -0.6266 -0.5884
vn -0.5111 -0.6954 -0.5052
vn -0.5111 -0.7532 -0.4141
vn -0.5111 -0.7992 -0.3164
vn -0.5111 -0.8325 -0.2137
vn -0.5111 -0.8528 -0.1077
vn -0.5111 -0.8595 -0.0000
vt 0.685759 1.000000
vt 0.685759 0.307131
vt 0.733747 0.307131
vt 0.733747 1.000000
vt 0.238705 0.277148
vt 0.238705 0.970016
vt 0.190702 0.970016
vt 0.190702 0.277148
vt 0.637771 1.000000
vt 0.637771 0.307131
vt 0.467302 0.069121
vt 0.505508 0.045119
vt 0.505508 0.093123
vt 0.507950 0.045119
vt 0.467302 0.019584
vt 0.507950 0.000000
vt 0.172762 0.004354
vt 0.189313 0.009731
vt 0.205059 0.017141
vt 0.219752 0.026465
vt 0.233161 0.037558
vt 0.245073 0.050244
vt 0.255302 0.064322
vt 0.263686 0.079572
vt 0.270092 0.095752
vt 0.274420 0.112608
vt 0.276601 0.129873
vt 0.276601 0.147275
vt 0.274420 0.164540
vt 0.270092 0.181395
vt 0.263686 0.197576
vt 0.255302 0.212825
vt 0.245073 0.226904
vt 0.233161 0.239590
vt 0.219752 0.250682
vt 0.205059 0.260007
vt 0.189313 0.267416
vt 0.172762 0.272794
vt 0.155668 0.276055
vt 0.138300 0.277148
vt 0.120932 0.276055
vt 0.103838 0.272794
vt 0.087288 0.267416
vt 0.071542 0.260007
vt 0.056849 0.250682
vt 0.043440 0.239590
vt 0.031527 0.226904
vt 0.021299 0.212825
vt 0.012915 0.197576
vt 0.006509 0.181395
vt 0.002181 0.164540
vt 0.000000 0.147275
vt 0.000000 0.129873
vt 0.002181 0.112608
vt 0.006509 0.095752
vt 0.012915 0.079572
vt 0.021299 0.064322
vt 0.031527 0.050244
vt 0.043440 0.037558
vt 0.056849 0.026465
vt 0.071542 0.017141
vt 0.087288 0.009731
vt 0.103838 0.004354
vt 0.120932 0.001093
vt 0.138300 0.000000
vt 0.155668 0.001093
vt 0.542940 0.601568
vt 0.526540 0.595833
vt 0.510663 0.589369
vt 0.495560 0.582277
vt 0.481467 0.574670
vt 0.468608 0.566667
vt 0.457186 0.558394
vt 0.190702 0.584279
vt 0.000000 0.345037
vt 0.010095 0.335476
vt 0.021770 0.326215
vt 0.034842 0.317398
vt 0.049105 0.309167
vt 0.064332 0.301650
vt 0.080285 0.294966
vt 0.096711 0.289220
vt 0.113352 0.284503
vt 0.129945 0.280890
vt 0.146228 0.278437
vt 0.161945 0.277183
vt 0.176848 0.277148
vt 0.190702 0.278332
vt 0.457186 0.616608
vt 0.276601 0.365345
vt 0.288023 0.357072
vt 0.300882 0.349069
vt 0.314974 0.341462
vt 0.330078 0.334370
vt 0.345955 0.327906
vt 0.362354 0.322172
vt 0.379018 0.317257
vt 0.395683 0.313240
vt 0.412086 0.310184
vt 0.427970 0.308137
vt 0.443082 0.307131
vt 0.457186 0.307183
vt 0.467302 0.307131
vt 0.276601 0.067890
vt 0.286696 0.058329
vt 0.298371 0.049067
vt 0.311443 0.040251
vt 0.325705 0.032019
vt 0.340933 0.024502
vt 0.356885 0.017818
vt 0.373312 0.012072
vt 0.389953 0.007356
vt 0.406546 0.003742
vt 0.422829 0.001289
vt 0.438546 0.000035
vt 0.453449 0.000000
vt 0.467302 0.001184
vt 0.637771 0.616556
vt 0.623667 0.616608
vt 0.608555 0.615602
vt 0.592672 0.613555
vt 0.576268 0.610499
vt 0.559603 0.606482
s 1
usemtl Material_with_Texture.062
f 1/1/1 2/2/1 3/3/2 4/4/2
f 4/5/2 3/6/2 5/7/3 6/8/3
f 6/2/3 5/1/3 2/9/1 1/10/1
f 7/11/4 8/12/4 9/13/4
f 10/14/5 11/15/5 12/16/5
f 13/17/6 14/18/7 15/19/8 16/20/9 17/21/10 18/22/11 19/23/12 20/24/13 21/25/14 22/26/15 23/27/16 24/28/17 25/29/18 26/30/19 27/31/20 28/32/21 29/33/22 30/34/23 31/35/24 32/36/25 33/37/26 34/38/27 35/39/28 36/40/29 37/41/30 38/42/31 39/43/32 40/44/33 41/45/34 42/46/35 43/47/36 44/48/37 45/49/38 46/50/39 47/51/40 48/52/41 49/53/42 50/54/43 51/55/44 52/56/45 53/57/46 54/58/47 55/59/48 56/60/49 57/61/50 58/62/51 59/63/52 60/64/53 61/65/54 62/66/55
f 63/10/1 62/67/55 61/68/54
f 63/10/1 61/68/54 60/69/53
f 63/10/1 60/69/53 59/70/52
f 63/10/1 59/70/52 58/71/51
f 63/10/1 58/71/51 57/72/50
f 63/10/1 57/72/50 56/73/49
f 63/74/1 56/75/49 55/76/48
f 63/74/1 55/76/48 54/77/47
f 63/74/1 54/77/47 53/78/46
f 63/74/1 53/78/46 52/79/45
f 63/74/1 52/79/45 51/80/44
f 63/74/1 51/80/44 50/81/43
f 63/74/1 50/81/43 49/82/42
f 63/74/1 49/82/42 48/83/41
f 63/74/1 48/83/41 47/84/40
f 63/74/1 47/84/40 46/85/39
f 63/74/1 46/85/39 45/86/38
f 63/74/1 45/86/38 44/87/37
f 63/74/1 44/87/37 43/88/36
f 63/89/1 43/90/36 42/91/35
f 63/89/1 42/91/35 41/92/34
f 63/89/1 41/92/34 40/93/33
f 63/89/1 40/93/33 39/94/32
f 63/89/1 39/94/32 38/95/31
f 63/89/1 38/95/31 37/96/30
f 63/89/1 37/96/30 36/97/29
f 63/89/1 36/97/29 35/98/28
f 63/89/1 35/98/28 34/99/27
f 63/89/1 34/99/27 33/100/26
f 63/89/1 33/100/26 32/101/25
f 63/89/1 32/101/25 31/102/24
f 63/103/1 31/104/24 30/105/23
f 63/103/1 30/105/23 29/106/22
f 63/103/1 29/106/22 28/107/21
f 63/103/1 28/107/21 27/108/20
f 63/103/1 27/108/20 26/109/19
f 63/103/1 26/109/19 25/110/18
f 63/103/1 25/110/18 24/111/17
f 63/103/1 24/111/17 23/112/16
f 63/103/1 23/112/16 22/113/15
f 63/103/1 22/113/15 21/114/14
f 63/103/1 21/114/14 20/115/13
f 63/103/1 20/115/13 19/116/12
f 63/103/1 19/116/12 18/117/11
f 63/10/1 18/118/11 17/119/10
f 63/10/1 17/119/10 16/120/9
f 63/10/1 16/120/9 15/121/8
f 63/10/1 15/121/8 14/122/7
f 63/10/1 14/122/7 13/123/6
f 63/10/1 13/123/6 62/67/55
