# Blender v3.5.0 OBJ File: ''
# www.blender.org
mtllib Cube.mtl
o Cube.001
v -0.500000 -0.050000 -1.100000
v -0.500000 -0.050000 0.200000
v -0.500000 0.000000 0.200000
v -0.500000 -0.000000 -1.100000
v 2.200000 -0.050000 -1.100000
v 2.200000 -0.000000 -1.100000
v 2.200000 0.000000 0.200000
v 2.200000 -0.050000 0.200000
v -0.500000 -0.050000 -1.100000
v 2.200000 -0.050000 -1.100000
v 2.200000 -0.050000 0.200000
v -0.500000 -0.050000 0.200000
v -0.500000 -0.000000 -1.100000
v -0.500000 0.000000 0.200000
v 2.200000 0.000000 0.200000
v 2.200000 -0.000000 -1.100000
v -0.500000 -0.050000 -1.100000
v -0.500000 -0.000000 -1.100000
v 2.200000 -0.000000 -1.100000
v 2.200000 -0.050000 -1.100000
v -0.500000 -0.050000 0.200000
v 2.200000 -0.050000 0.200000
v 2.200000 0.000000 0.200000
v -0.500000 0.000000 0.200000
vt 1.000000 0.472727
vt 1.000000 0.945455
vt 0.981818 0.945455
vt 0.981818 0.472727
vt 0.981818 0.000000
vt 1.000000 0.000000
vt 1.000000 0.472727
vt 0.981818 0.472727
vt 0.472727 0.000000
vt 0.472727 0.981818
vt 0.000000 0.981818
vt 0.000000 0.000000
vt 0.945455 0.981818
vt 0.472727 0.981818
vt 0.472727 0.000000
vt 0.945455 0.000000
vt 0.945455 0.000000
vt 0.963636 0.000000
vt 0.963636 0.981818
vt 0.945455 0.981818
vt 0.963636 0.981818
vt 0.963636 0.000000
vt 0.981818 0.000000
vt 0.981818 0.981818
vn -1.0000 0.0000 0.0000
vn 1.0000 0.0000 0.0000
vn 0.0000 -1.0000 0.0000
vn 0.0000 1.0000 -0.0000
vn 0.0000 0.0000 -1.0000
vn 0.0000 0.0000 1.0000
usemtl Material_with_Texture.063
s off
f 1/1/1 2/2/1 3/3/1 4/4/1
f 5/5/2 6/6/2 7/7/2 8/8/2
f 9/9/3 10/10/3 11/11/3 12/12/3
f 13/13/4 14/14/4 15/15/4 16/16/4
f 17/17/5 18/18/5 19/19/5 20/20/5
f 21/21/6 22/22/6 23/23/6 24/24/6
