# Blender 4.3.0
# www.blender.org
mtllib Cube.mtl
o Cube.001
v -0.500000 -0.050000 -1.100000
v -0.500000 -0.050000 0.200000
v -0.500000 0.000000 0.200000
v -0.500000 -0.000000 -1.100000
v 2.200000 -0.050000 -1.100000
v 2.200000 -0.000000 -1.100000
v 2.200000 0.000000 0.200000
v 2.200000 -0.050000 0.200000
v -0.500000 -0.050000 -1.100000
v 2.200000 -0.050000 -1.100000
v 2.200000 -0.050000 0.200000
v -0.500000 -0.050000 0.200000
v -0.500000 -0.000000 -1.100000
v -0.500000 0.000000 0.200000
v 2.200000 0.000000 0.200000
v 2.200000 -0.000000 -1.100000
v -0.500000 -0.050000 -1.100000
v -0.500000 -0.000000 -1.100000
v 2.200000 -0.000000 -1.100000
v 2.200000 -0.050000 -1.100000
v -0.500000 -0.050000 0.200000
v 2.200000 -0.050000 0.200000
v 2.200000 0.000000 0.200000
v -0.500000 0.000000 0.200000
vn -1.0000 -0.0000 -0.0000
vn 1.0000 -0.0000 -0.0000
vn -0.0000 -1.0000 -0.0000
vn -0.0000 1.0000 -0.0000
vn -0.0000 -0.0000 -1.0000
vn -0.0000 -0.0000 1.0000
vt 1.000000 0.472727
vt 1.000000 0.945455
vt 0.981818 0.945455
vt 0.981818 0.472727
vt 0.981818 0.000000
vt 1.000000 0.000000
vt 0.472727 0.000000
vt 0.472727 0.981818
vt 0.000000 0.981818
vt 0.000000 0.000000
vt 0.945455 0.981818
vt 0.945455 0.000000
vt 0.963636 0.000000
vt 0.963636 0.981818
vt 0.981818 0.981818
s 1
usemtl Material_with_Texture.063
f 1/1/1 2/2/1 3/3/1 4/4/1
f 5/5/2 6/6/2 7/1/2 8/4/2
f 9/7/3 10/8/3 11/9/3 12/10/3
f 13/11/4 14/8/4 15/7/4 16/12/4
f 17/12/5 18/13/5 19/14/5 20/11/5
f 21/14/6 22/13/6 23/5/6 24/15/6
