# Blender v3.5.0 OBJ File: ''
# www.blender.org
mtllib cylinder.mtl
o cylinder
v 0.500000 0.500000 -0.000000
v 0.500000 -0.500000 0.000000
v 0.475528 -0.500000 -0.154508
v 0.475528 0.500000 -0.154509
v 0.404509 -0.500000 -0.293893
v 0.404509 0.500000 -0.293893
v 0.293893 -0.500000 -0.404508
v 0.293893 0.500000 -0.404509
v 0.154509 -0.500000 -0.475528
v 0.154509 0.500000 -0.475528
v -0.000000 -0.500000 -0.500000
v -0.000000 0.500000 -0.500000
v -0.154509 -0.500000 -0.475528
v -0.154509 0.500000 -0.475528
v -0.293893 -0.500000 -0.404508
v -0.293893 0.500000 -0.404509
v -0.404509 -0.500000 -0.293893
v -0.404509 0.500000 -0.293893
v -0.475528 -0.500000 -0.154508
v -0.475528 0.500000 -0.154509
v -0.500000 -0.500000 0.000000
v -0.500000 0.500000 -0.000000
v -0.475528 -0.500000 0.154509
v -0.475528 0.500000 0.154508
v -0.404509 -0.500000 0.293893
v -0.404509 0.500000 0.293893
v -0.293893 -0.500000 0.404509
v -0.293893 0.500000 0.404508
v -0.154509 -0.500000 0.475528
v -0.154509 0.500000 0.475528
v 0.000000 -0.500000 0.500000
v 0.000000 0.500000 0.500000
v 0.154509 -0.500000 0.475528
v 0.154509 0.500000 0.475528
v 0.293893 -0.500000 0.404509
v 0.293893 0.500000 0.404508
v 0.404509 -0.500000 0.293893
v 0.404509 0.500000 0.293893
v 0.475528 -0.500000 0.154509
v 0.475528 0.500000 0.154508
v 0.500000 0.500000 -0.000000
v 0.475528 0.500000 -0.154509
v 0.404509 0.500000 -0.293893
v 0.293893 0.500000 -0.404509
v 0.154509 0.500000 -0.475528
v -0.000000 0.500000 -0.500000
v -0.154509 0.500000 -0.475528
v -0.293893 0.500000 -0.404509
v -0.404509 0.500000 -0.293893
v -0.475528 0.500000 -0.154509
v -0.500000 0.500000 -0.000000
v -0.475528 0.500000 0.154508
v -0.404509 0.500000 0.293893
v -0.293893 0.500000 0.404508
v -0.154509 0.500000 0.475528
v 0.000000 0.500000 0.500000
v 0.154509 0.500000 0.475528
v 0.293893 0.500000 0.404508
v 0.404509 0.500000 0.293893
v 0.475528 0.500000 0.154508
v 0.475528 -0.500000 0.154509
v 0.404509 -0.500000 0.293893
v 0.293893 -0.500000 0.404509
v 0.154509 -0.500000 0.475528
v 0.000000 -0.500000 0.500000
v -0.154509 -0.500000 0.475528
v -0.293893 -0.500000 0.404509
v -0.404509 -0.500000 0.293893
v -0.475528 -0.500000 0.154509
v -0.500000 -0.500000 0.000000
v -0.475528 -0.500000 -0.154508
v -0.404509 -0.500000 -0.293893
v -0.293893 -0.500000 -0.404508
v -0.154509 -0.500000 -0.475528
v -0.000000 -0.500000 -0.500000
v 0.154509 -0.500000 -0.475528
v 0.293893 -0.500000 -0.404508
v 0.404509 -0.500000 -0.293893
v 0.475528 -0.500000 -0.154508
v 0.500000 -0.500000 0.000000
vt 0.885367 0.832673
vt 0.885367 0.416337
vt 0.947309 0.416337
vt 0.947309 0.832673
vt 1.000000 0.416337
vt 1.000000 0.832673
vt 0.411211 0.832673
vt 0.411211 0.416337
vt 0.463902 0.416337
vt 0.463902 0.832673
vt 0.525844 0.416337
vt 0.525843 0.832673
vt 0.590973 0.416337
vt 0.590973 0.832673
vt 0.652915 0.416337
vt 0.652915 0.832673
vt 0.705605 0.416337
vt 0.705605 0.832673
vt 0.743888 0.000000
vt 0.743888 0.416337
vt 0.705605 0.416337
vt 0.705605 0.000000
vt 0.652915 0.416337
vt 0.652915 0.000000
vt 0.590973 0.416337
vt 0.590973 0.000000
vt 0.525843 0.416337
vt 0.525844 0.000000
vt 0.463902 0.416337
vt 0.463902 0.000000
vt 0.411211 0.416337
vt 0.411211 0.000000
vt 0.743888 0.416337
vt 0.743888 0.000000
vt 0.796578 0.000000
vt 0.796578 0.416337
vt 0.858520 0.000000
vt 0.858520 0.416337
vt 0.923649 0.000000
vt 0.923649 0.416337
vt 0.985591 0.000000
vt 0.985591 0.416337
vt 0.705605 0.832673
vt 0.705605 0.416337
vt 0.758296 0.416337
vt 0.758296 0.832673
vt 0.820238 0.416337
vt 0.820238 0.832673
vt 0.111099 0.802296
vt 0.058408 0.764014
vt 0.020126 0.711323
vt 0.000000 0.649381
vt 0.000000 0.584252
vt 0.020126 0.522310
vt 0.058408 0.469619
vt 0.111099 0.431337
vt 0.173041 0.411211
vt 0.238170 0.411211
vt 0.300112 0.431337
vt 0.352803 0.469619
vt 0.391085 0.522310
vt 0.411211 0.584252
vt 0.411211 0.649381
vt 0.391085 0.711323
vt 0.352803 0.764014
vt 0.300112 0.802296
vt 0.238170 0.822422
vt 0.173041 0.822422
vt 0.173041 0.000000
vt 0.238170 0.000000
vt 0.300112 0.020126
vt 0.352803 0.058408
vt 0.391085 0.111099
vt 0.411211 0.173041
vt 0.411211 0.238170
vt 0.391085 0.300112
vt 0.352803 0.352803
vt 0.300112 0.391085
vt 0.238170 0.411211
vt 0.173041 0.411211
vt 0.111099 0.391085
vt 0.058408 0.352803
vt 0.020126 0.300112
vt 0.000000 0.238170
vt 0.000000 0.173041
vt 0.020126 0.111099
vt 0.058408 0.058408
vt 0.111099 0.020126
vn 0.9877 0.0000 -0.1564
vn 0.8910 -0.0000 -0.4540
vn 0.7071 -0.0000 -0.7071
vn 0.4540 -0.0000 -0.8910
vn 0.1564 -0.0000 -0.9877
vn -0.1564 -0.0000 -0.9877
vn -0.4540 -0.0000 -0.8910
vn -0.7071 -0.0000 -0.7071
vn -0.8910 -0.0000 -0.4540
vn -0.9877 0.0000 -0.1564
vn -0.9877 -0.0000 0.1564
vn -0.8910 0.0000 0.4540
vn -0.7071 0.0000 0.7071
vn -0.4540 0.0000 0.8910
vn -0.1564 0.0000 0.9877
vn 0.1564 0.0000 0.9877
vn 0.4540 0.0000 0.8910
vn 0.7071 0.0000 0.7071
vn 0.8910 0.0000 0.4540
vn 0.9877 -0.0000 0.1564
vn 0.0000 1.0000 -0.0000
vn 0.0000 -1.0000 0.0000
usemtl Material_with_Texture.066
s off
f 1/1/1 2/2/1 3/3/1 4/4/1
f 4/4/2 3/3/2 5/5/2 6/6/2
f 6/7/3 5/8/3 7/9/3 8/10/3
f 8/10/4 7/9/4 9/11/4 10/12/4
f 10/12/5 9/11/5 11/13/5 12/14/5
f 12/14/6 11/13/6 13/15/6 14/16/6
f 14/16/7 13/15/7 15/17/7 16/18/7
f 16/19/8 15/20/8 17/21/8 18/22/8
f 18/22/9 17/21/9 19/23/9 20/24/9
f 20/24/10 19/23/10 21/25/10 22/26/10
f 22/26/11 21/25/11 23/27/11 24/28/11
f 24/28/12 23/27/12 25/29/12 26/30/12
f 26/30/13 25/29/13 27/31/13 28/32/13
f 28/33/14 27/34/14 29/35/14 30/36/14
f 30/36/15 29/35/15 31/37/15 32/38/15
f 32/38/16 31/37/16 33/39/16 34/40/16
f 34/40/17 33/39/17 35/41/17 36/42/17
f 36/43/18 35/44/18 37/45/18 38/46/18
f 38/46/19 37/45/19 39/47/19 40/48/19
f 40/48/20 39/47/20 2/2/20 1/1/20
f 41/49/21 42/50/21 43/51/21 44/52/21 45/53/21 46/54/21 47/55/21 48/56/21 49/57/21 50/58/21 51/59/21 52/60/21 53/61/21 54/62/21 55/63/21 56/64/21 57/65/21 58/66/21 59/67/21 60/68/21
f 61/69/22 62/70/22 63/71/22 64/72/22 65/73/22 66/74/22 67/75/22 68/76/22 69/77/22 70/78/22 71/79/22 72/80/22 73/81/22 74/82/22 75/83/22 76/84/22 77/85/22 78/86/22 79/87/22 80/88/22
