# Blender 4.3.0
# www.blender.org
mtllib cylinder.mtl
o cylinder
v 0.500000 0.500000 -0.000000
v 0.500000 -0.500000 0.000000
v 0.475528 -0.500000 -0.154508
v 0.475528 0.500000 -0.154509
v 0.404509 -0.500000 -0.293893
v 0.404509 0.500000 -0.293893
v 0.293893 -0.500000 -0.404508
v 0.293893 0.500000 -0.404509
v 0.154509 -0.500000 -0.475528
v 0.154509 0.500000 -0.475528
v 0.000000 -0.500000 -0.500000
v 0.000000 0.500000 -0.500000
v -0.154509 -0.500000 -0.475528
v -0.154509 0.500000 -0.475528
v -0.293893 -0.500000 -0.404508
v -0.293893 0.500000 -0.404509
v -0.404509 -0.500000 -0.293893
v -0.404509 0.500000 -0.293893
v -0.475528 -0.500000 -0.154508
v -0.475528 0.500000 -0.154509
v -0.500000 -0.500000 0.000000
v -0.500000 0.500000 -0.000000
v -0.475528 -0.500000 0.154509
v -0.475528 0.500000 0.154508
v -0.404509 -0.500000 0.293893
v -0.404509 0.500000 0.293893
v -0.293893 -0.500000 0.404509
v -0.293893 0.500000 0.404508
v -0.154509 -0.500000 0.475528
v -0.154509 0.500000 0.475528
v 0.000000 -0.500000 0.500000
v 0.000000 0.500000 0.500000
v 0.154509 -0.500000 0.475528
v 0.154509 0.500000 0.475528
v 0.293893 -0.500000 0.404509
v 0.293893 0.500000 0.404508
v 0.404509 -0.500000 0.293893
v 0.404509 0.500000 0.293893
v 0.475528 -0.500000 0.154509
v 0.475528 0.500000 0.154508
v 0.500000 0.500000 -0.000000
v 0.475528 0.500000 -0.154509
v 0.404509 0.500000 -0.293893
v 0.293893 0.500000 -0.404509
v 0.154509 0.500000 -0.475528
v 0.000000 0.500000 -0.500000
v -0.154509 0.500000 -0.475528
v -0.293893 0.500000 -0.404509
v -0.404509 0.500000 -0.293893
v -0.475528 0.500000 -0.154509
v -0.500000 0.500000 -0.000000
v -0.475528 0.500000 0.154508
v -0.404509 0.500000 0.293893
v -0.293893 0.500000 0.404508
v -0.154509 0.500000 0.475528
v 0.000000 0.500000 0.500000
v 0.154509 0.500000 0.475528
v 0.293893 0.500000 0.404508
v 0.404509 0.500000 0.293893
v 0.475528 0.500000 0.154508
v 0.475528 -0.500000 0.154509
v 0.404509 -0.500000 0.293893
v 0.293893 -0.500000 0.404509
v 0.154509 -0.500000 0.475528
v 0.000000 -0.500000 0.500000
v -0.154509 -0.500000 0.475528
v -0.293893 -0.500000 0.404509
v -0.404509 -0.500000 0.293893
v -0.475528 -0.500000 0.154509
v -0.500000 -0.500000 0.000000
v -0.475528 -0.500000 -0.154508
v -0.404509 -0.500000 -0.293893
v -0.293893 -0.500000 -0.404508
v -0.154509 -0.500000 -0.475528
v 0.000000 -0.500000 -0.500000
v 0.154509 -0.500000 -0.475528
v 0.293893 -0.500000 -0.404508
v 0.404509 -0.500000 -0.293893
v 0.475528 -0.500000 -0.154508
v 0.500000 -0.500000 0.000000
vn 1.0000 -0.0000 -0.0000
vn 0.9511 -0.0000 -0.3090
vn 0.8090 -0.0000 -0.5878
vn 0.5878 -0.0000 -0.8090
vn 0.3090 -0.0000 -0.9511
vn -0.0000 -0.0000 -1.0000
vn -0.3090 -0.0000 -0.9511
vn -0.5878 -0.0000 -0.8090
vn -0.8090 -0.0000 -0.5878
vn -0.9511 -0.0000 -0.3090
vn -1.0000 -0.0000 -0.0000
vn -0.9511 -0.0000 0.3090
vn -0.8090 -0.0000 0.5878
vn -0.5878 -0.0000 0.8090
vn -0.3090 -0.0000 0.9511
vn -0.0000 -0.0000 1.0000
vn 0.3090 -0.0000 0.9511
vn 0.5878 -0.0000 0.8090
vn 0.8090 -0.0000 0.5878
vn 0.9511 -0.0000 0.3090
vn -0.0000 1.0000 -0.0000
vn -0.0000 -1.0000 -0.0000
vt 0.885367 0.832673
vt 0.885367 0.416337
vt 0.947309 0.416337
vt 0.947309 0.832673
vt 1.000000 0.416337
vt 1.000000 0.832673
vt 0.411211 0.832673
vt 0.411211 0.416337
vt 0.463902 0.416337
vt 0.463902 0.832673
vt 0.525844 0.416337
vt 0.525843 0.832673
vt 0.590973 0.416337
vt 0.590973 0.832673
vt 0.652915 0.416337
vt 0.652915 0.832673
vt 0.705605 0.416337
vt 0.705605 0.832673
vt 0.743888 0.000000
vt 0.743888 0.416337
vt 0.705605 0.000000
vt 0.652915 0.000000
vt 0.590973 0.000000
vt 0.525843 0.416337
vt 0.525844 0.000000
vt 0.463902 0.000000
vt 0.411211 0.000000
vt 0.796578 0.000000
vt 0.796578 0.416337
vt 0.858520 0.000000
vt 0.858520 0.416337
vt 0.923649 0.000000
vt 0.923649 0.416337
vt 0.985591 0.000000
vt 0.985591 0.416337
vt 0.758296 0.416337
vt 0.758296 0.832673
vt 0.820238 0.416337
vt 0.820238 0.832673
vt 0.111099 0.802296
vt 0.058408 0.764014
vt 0.020126 0.711323
vt 0.000000 0.649381
vt 0.000000 0.584252
vt 0.020126 0.522310
vt 0.058408 0.469619
vt 0.111099 0.431337
vt 0.173041 0.411211
vt 0.238170 0.411211
vt 0.300112 0.431337
vt 0.352803 0.469619
vt 0.391085 0.522310
vt 0.411211 0.584252
vt 0.411211 0.649381
vt 0.391085 0.711323
vt 0.352803 0.764014
vt 0.300112 0.802296
vt 0.238170 0.822422
vt 0.173041 0.822422
vt 0.173041 0.000000
vt 0.238170 0.000000
vt 0.300112 0.020126
vt 0.352803 0.058408
vt 0.391085 0.111099
vt 0.411211 0.173041
vt 0.411211 0.238170
vt 0.391085 0.300112
vt 0.352803 0.352803
vt 0.300112 0.391085
vt 0.111099 0.391085
vt 0.058408 0.352803
vt 0.020126 0.300112
vt 0.000000 0.238170
vt 0.000000 0.173041
vt 0.020126 0.111099
vt 0.058408 0.058408
vt 0.111099 0.020126
s 1
usemtl Material_with_Texture.066
f 1/1/1 2/2/1 3/3/2 4/4/2
f 4/4/2 3/3/2 5/5/3 6/6/3
f 6/7/3 5/8/3 7/9/4 8/10/4
f 8/10/4 7/9/4 9/11/5 10/12/5
f 10/12/5 9/11/5 11/13/6 12/14/6
f 12/14/6 11/13/6 13/15/7 14/16/7
f 14/16/7 13/15/7 15/17/8 16/18/8
f 16/19/8 15/20/8 17/17/9 18/21/9
f 18/21/9 17/17/9 19/15/10 20/22/10
f 20/22/10 19/15/10 21/13/11 22/23/11
f 22/23/11 21/13/11 23/24/12 24/25/12
f 24/25/12 23/24/12 25/9/13 26/26/13
f 26/26/13 25/9/13 27/8/14 28/27/14
f 28/20/14 27/19/14 29/28/15 30/29/15
f 30/29/15 29/28/15 31/30/16 32/31/16
f 32/31/16 31/30/16 33/32/17 34/33/17
f 34/33/17 33/32/17 35/34/18 36/35/18
f 36/18/18 35/17/18 37/36/19 38/37/19
f 38/37/19 37/36/19 39/38/20 40/39/20
f 40/39/20 39/38/20 2/2/1 1/1/1
f 41/40/21 42/41/21 43/42/21 44/43/21 45/44/21 46/45/21 47/46/21 48/47/21 49/48/21 50/49/21 51/50/21 52/51/21 53/52/21 54/53/21 55/54/21 56/55/21 57/56/21 58/57/21 59/58/21 60/59/21
f 61/60/22 62/61/22 63/62/22 64/63/22 65/64/22 66/65/22 67/66/22 68/67/22 69/68/22 70/69/22 71/49/22 72/48/22 73/70/22 74/71/22 75/72/22 76/73/22 77/74/22 78/75/22 79/76/22 80/77/22
