# Blender v3.5.0 OBJ File: ''
# www.blender.org
mtllib distal_phalanx5_rvs.mtl
o distal_phalanx5_rvs
v 0.018243 -0.002511 0.051748
v 0.019068 -0.002611 0.051449
v 0.018867 -0.002442 0.050454
v 0.016987 -0.002580 0.051679
v 0.018650 -0.002895 0.052112
v 0.017722 -0.003271 0.049035
v 0.016685 -0.003723 0.048850
v 0.018874 -0.002882 0.049778
v 0.018637 -0.004012 0.052159
v 0.018924 -0.003508 0.052344
v 0.014975 -0.001800 0.051455
v 0.016771 -0.003008 0.051882
v 0.018350 -0.003623 0.052699
v 0.017791 -0.003973 0.052739
v 0.016975 -0.004462 0.052093
v 0.017306 -0.003785 0.048756
v 0.014932 -0.002376 0.049452
v 0.014810 -0.003382 0.048386
v 0.014684 -0.004072 0.048473
v 0.017225 -0.004044 0.049274
v 0.015073 -0.005202 0.050479
v 0.016961 -0.004306 0.050367
v 0.016998 -0.005214 0.051799
v 0.017805 -0.004081 0.050771
v 0.018281 -0.004297 0.052546
v 0.017567 -0.004768 0.052448
v 0.012929 -0.000549 0.049428
v 0.014395 -0.001848 0.051701
v 0.012954 -0.001236 0.050986
v 0.014740 -0.004608 0.051801
v 0.014188 -0.003443 0.052125
v 0.016189 -0.004763 0.051901
v 0.016809 -0.004972 0.052207
v 0.012351 -0.000934 0.047227
v 0.013737 -0.003200 0.047618
v 0.013116 -0.004562 0.048312
v 0.012678 -0.006094 0.051304
v 0.015473 -0.005157 0.051309
v 0.016370 -0.004913 0.051125
v 0.012139 -0.000588 0.049099
v 0.012421 -0.000482 0.048457
v 0.012260 -0.002392 0.052823
v 0.011360 -0.001948 0.052010
v 0.012562 -0.004825 0.052835
v 0.011689 -0.003213 0.053384
v 0.012511 -0.001982 0.046603
v 0.012223 -0.003725 0.047788
v 0.012299 -0.003495 0.048298
v 0.012536 -0.003815 0.047323
v 0.012270 -0.005877 0.052212
v 0.011689 -0.005708 0.051230
v 0.011820 -0.004662 0.049588
v 0.011494 -0.005376 0.052475
vt 0.238739 0.067238
vt 0.268460 0.012026
vt 0.332812 0.041729
vt 0.219081 0.156044
vt 0.210432 0.029285
vt 0.478853 0.525660
vt 0.647397 0.599805
vt 0.668606 0.677709
vt 0.546475 0.497308
vt 0.471989 0.616595
vt 0.683358 0.630017
vt 0.701635 0.578320
vt 0.758854 0.532027
vt 0.866945 0.574553
vt 0.180602 0.000000
vt 0.849252 0.534050
vt 0.602998 0.506753
vt 0.420388 0.761020
vt 0.188642 0.163773
vt 0.223811 0.309694
vt 0.144687 0.034359
vt 0.121072 0.069387
vt 0.131424 0.130428
vt 0.845612 0.000000
vt 0.845426 0.137433
vt 0.747714 0.130785
vt 0.683359 0.634672
vt 0.549372 0.791366
vt 0.653244 0.816719
vt 0.683359 0.826708
vt 0.870375 0.936665
vt 0.880720 0.897404
vt 0.914862 0.940624
vt 0.233069 0.875443
vt 0.106137 0.864066
vt 0.174679 0.720944
vt 0.914862 0.821362
vt 0.716285 0.781578
vt 0.818098 0.726521
vt 0.903649 0.821361
vt 0.700275 0.769065
vt 0.934368 0.697664
vt 0.812171 0.670322
vt 0.908032 0.580178
vt 0.938367 0.628649
vt 0.038431 0.880008
vt 0.073442 0.843785
vt 0.064795 0.911824
vt 0.433561 0.929436
vt 0.196807 0.346711
vt 0.236664 0.464955
vt 0.356247 0.495685
vt 0.746303 0.294381
vt 0.837516 0.326360
vt 0.937805 0.303038
vt 0.728040 0.190090
vt 0.030151 0.833928
vt 0.021886 0.555510
vt 0.021886 0.632085
vt 0.000000 0.587150
vt 0.066443 0.781692
vt 0.045362 0.727037
vt 0.715857 0.145535
vt 0.741420 0.758525
vt 0.556556 1.000000
vt 0.670107 0.902715
vt 0.791878 0.903636
vt 0.821081 0.965015
vt 0.773522 0.972187
vt 0.326688 0.872208
vt 0.683358 0.953835
vt 0.312664 0.637705
vt 0.147782 0.664389
vt 0.093591 0.685569
vt 0.898344 0.736337
vt 0.870375 0.954734
vt 0.825913 0.871373
vt 0.870375 0.821362
vt 0.073442 0.720757
vt 0.821081 0.838513
vt 0.938275 0.698380
vt 0.361910 0.555510
vt 0.410452 0.545593
vt 0.472727 0.977950
vt 0.071844 0.475949
vt 0.937805 0.457539
vt 0.121701 0.555510
vt 0.767409 0.450290
vt 0.693063 0.246090
vt 0.896455 0.502144
vt 0.938367 0.767031
vt 0.495848 0.009615
vt 0.414641 0.122372
vt 0.428962 0.074221
vt 0.643757 0.999673
vt 0.661382 0.134279
vt 0.584744 0.000000
vt 0.631127 0.159183
vt 0.410452 0.362136
vt 0.708126 0.877644
vt 0.821081 0.821361
vt 0.386786 0.948366
vt 0.093591 0.720757
vt 0.030151 0.720757
vt 0.034769 0.555510
vt 0.389947 0.641824
vt 0.344979 0.572932
vt 0.683358 0.479645
vt 0.000000 0.499473
vt 0.683358 0.424847
vt 0.453544 0.486418
vt 0.665570 0.284590
vt 0.728753 0.532027
vt 0.622334 0.497308
vt 0.683358 0.103302
vt 0.410452 0.772289
vt 0.410452 0.555510
vn 0.1664 0.9771 0.1323
vn -0.0772 0.6416 0.7631
vn -0.3646 0.9125 -0.1856
vn -0.4373 0.8843 -0.1637
vn -0.0306 0.9279 -0.3716
vn 0.2872 0.8015 0.5244
vn 0.9570 0.2476 -0.1513
vn 0.9456 -0.3202 -0.0578
vn 0.6164 0.5044 0.6047
vn 0.8768 -0.4028 -0.2627
vn 0.0682 0.8365 -0.5437
vn 0.3707 0.8467 -0.3817
vn 0.0554 0.4049 0.9127
vn -0.1350 0.4794 0.8672
vn -0.3741 0.6706 0.6406
vn -0.6536 0.6950 0.2995
vn -0.1279 0.1248 0.9839
vn 0.3926 0.4738 0.7883
vn -0.0763 0.5227 -0.8491
vn 0.5361 0.0242 -0.8438
vn 0.2903 0.6791 -0.6741
vn 0.5369 0.8077 -0.2438
vn 0.2096 -0.1599 -0.9646
vn -0.1570 -0.8733 -0.4612
vn 0.2403 -0.8251 -0.5114
vn -0.3091 -0.9052 -0.2916
vn 0.3755 -0.8402 -0.3912
vn 0.6121 -0.7363 -0.2885
vn 0.6046 -0.7267 -0.3263
vn 0.4734 -0.8470 -0.2417
vn 0.5572 -0.8249 -0.0949
vn 0.7749 -0.5534 0.3053
vn 0.5844 -0.8102 0.0444
vn 0.5449 -0.2383 0.8039
vn 0.6587 0.7192 -0.2210
vn 0.2557 0.6371 0.7271
vn 0.1312 0.8681 0.4787
vn 0.1604 0.9041 0.3961
vn 0.1265 -0.2097 0.9695
vn 0.0487 0.2507 0.9668
vn -0.0654 0.0325 0.9973
vn -0.2723 0.1007 0.9569
vn 0.2162 -0.2371 0.9471
vn -0.7025 0.3652 0.6109
vn 0.1179 -0.3705 0.9213
vn -0.2218 -0.2795 0.9342
vn -0.3355 0.3082 0.8902
vn 0.6347 -0.7263 -0.2639
vn 0.5378 0.5816 -0.6104
vn 0.7403 0.6018 -0.2997
vn 0.5920 0.2287 -0.7728
vn 0.5471 -0.2023 -0.8123
vn 0.3037 -0.8037 -0.5116
vn 0.2482 -0.5273 -0.8126
vn 0.3199 -0.9360 -0.1471
vn 0.3882 -0.8596 -0.3323
vn 0.3164 -0.9432 -0.1013
vn 0.1829 -0.8857 -0.4267
vn 0.2489 -0.9662 -0.0676
vn 0.3843 -0.8325 -0.3990
vn -0.3636 -0.4705 -0.8040
vn 0.0594 -0.8463 0.5295
vn -0.4349 -0.8484 0.3017
vn 0.5322 -0.7994 0.2787
vn -0.0987 0.9879 0.1198
vn -0.2096 0.8934 0.3973
vn 0.6533 0.6979 -0.2936
vn 0.0786 0.8301 0.5521
vn 0.4208 0.1817 0.8888
vn -0.1610 0.9100 0.3821
vn -0.0478 0.8534 0.5190
vn 0.4364 -0.2029 0.8766
vn 0.4321 -0.0457 0.9006
vn -0.1250 -0.7495 0.6501
vn 0.4531 0.2662 0.8508
vn 0.4443 -0.0637 0.8936
vn 0.3013 -0.9206 0.2482
vn -0.7162 0.6672 -0.2044
vn 0.7867 0.4001 -0.4702
vn -0.9703 -0.0041 -0.2419
vn -0.9908 0.0689 0.1166
vn -0.9619 0.2277 -0.1510
vn -0.9736 -0.0709 -0.2168
vn 0.4567 -0.5603 -0.6910
vn 0.3824 -0.3333 -0.8618
vn -0.2781 -0.8379 -0.4697
vn 0.2976 -0.8896 0.3463
vn -0.2908 -0.8348 -0.4675
vn -0.3667 -0.9286 0.0571
vn 0.3388 -0.5473 0.7653
vn -0.2888 0.6689 0.6850
vn -0.9848 -0.1134 0.1314
vn -0.9910 -0.0621 -0.1186
vn -0.9568 0.0857 -0.2778
vn -0.1160 -0.3759 0.9194
vn -0.0318 -0.5027 0.8638
vn -0.9657 0.1696 -0.1965
vn -0.8290 -0.2142 -0.5166
vn -0.7670 -0.4825 -0.4229
vn -0.9334 0.3583 -0.0225
vn -0.6693 -0.6013 -0.4364
vn -0.5002 -0.8530 0.1491
usemtl Material_with_Texture.076
s off
f 1/1/1 2/2/1 3/3/1
f 4/4/2 5/5/2 1/1/2
f 1/6/3 6/7/3 7/8/3
f 6/7/4 1/6/4 3/9/4
f 1/6/5 7/8/5 4/10/5
f 2/2/6 1/1/6 5/5/6
f 8/11/7 3/12/7 2/13/7
f 2/13/8 9/14/8 8/11/8
f 2/2/9 5/5/9 10/15/9
f 10/16/10 9/14/10 2/13/10
f 6/7/11 3/9/11 8/17/11
f 11/18/12 4/10/12 7/8/12
f 12/19/13 4/4/13 11/20/13
f 12/19/14 5/5/14 4/4/14
f 13/21/15 5/5/15 14/22/15
f 5/5/16 15/23/16 14/22/16
f 5/24/17 12/25/17 15/26/17
f 13/21/18 10/15/18 5/5/18
f 16/27/19 7/8/19 6/7/19
f 16/27/20 6/7/20 8/17/20
f 17/28/21 7/8/21 18/29/21
f 7/8/22 17/28/22 11/18/22
f 18/29/23 7/8/23 19/30/23
f 16/31/24 20/32/24 7/33/24
f 19/34/25 7/35/25 21/36/25
f 22/37/26 7/33/26 20/32/26
f 7/38/27 22/39/27 21/40/27
f 16/41/28 8/11/28 9/14/28
f 9/14/29 23/42/29 24/43/29
f 9/14/30 24/43/30 16/41/30
f 25/44/31 26/45/31 9/14/31
f 10/16/32 25/44/32 9/14/32
f 26/45/33 23/42/33 9/14/33
f 13/46/34 25/47/34 10/48/34
f 17/28/35 27/49/35 11/18/35
f 28/50/36 12/19/36 11/20/36
f 11/20/37 29/51/37 28/50/37
f 27/52/38 29/51/38 11/20/38
f 30/53/39 12/25/39 31/54/39
f 31/54/40 12/25/40 28/55/40
f 12/25/41 30/53/41 32/56/41
f 15/26/42 12/25/42 32/56/42
f 13/46/43 14/57/43 25/47/43
f 33/58/44 14/59/44 15/60/44
f 14/57/45 26/61/45 25/47/45
f 33/62/46 26/61/46 14/57/46
f 15/26/47 32/56/47 33/63/47
f 16/41/48 24/43/48 20/64/48
f 18/29/49 27/49/49 17/28/49
f 27/49/50 18/29/50 34/65/50
f 35/66/51 34/65/51 18/29/51
f 35/67/52 18/68/52 19/69/52
f 19/34/53 21/36/53 36/70/53
f 35/67/54 19/69/54 36/71/54
f 24/43/55 22/39/55 20/64/55
f 21/40/56 22/39/56 24/43/56
f 37/72/57 21/36/57 38/73/57
f 37/72/58 36/70/58 21/36/58
f 38/73/59 21/36/59 39/74/59
f 21/40/60 24/43/60 39/75/60
f 24/76/61 23/77/61 32/78/61
f 26/61/62 33/62/62 23/79/62
f 32/78/63 23/77/63 33/80/63
f 39/75/64 24/43/64 32/81/64
f 40/82/65 27/52/65 41/83/65
f 40/82/66 29/51/66 27/52/66
f 27/49/67 34/65/67 41/84/67
f 42/85/68 28/50/68 29/51/68
f 42/86/69 31/54/69 28/55/69
f 43/87/70 29/51/70 40/82/70
f 42/85/71 29/51/71 43/87/71
f 30/53/72 44/88/72 38/89/72
f 31/54/73 44/88/73 30/53/73
f 30/53/74 38/89/74 32/56/74
f 42/86/75 45/90/75 31/54/75
f 44/88/76 31/54/76 45/90/76
f 39/75/77 32/81/77 38/91/77
f 34/92/78 40/93/78 41/94/78
f 46/95/79 34/65/79 35/66/79
f 47/96/80 34/92/80 46/97/80
f 34/92/81 47/96/81 48/98/81
f 43/99/82 40/93/82 34/92/82
f 34/92/83 48/98/83 43/99/83
f 36/71/84 49/100/84 35/67/84
f 49/100/85 46/101/85 35/67/85
f 49/102/86 36/70/86 37/72/86
f 50/103/87 37/104/87 38/105/87
f 49/102/88 37/72/88 51/106/88
f 51/106/89 37/72/89 50/107/89
f 50/108/90 38/89/90 44/88/90
f 42/85/91 43/87/91 45/109/91
f 51/110/92 45/111/92 43/99/92
f 51/110/93 43/99/93 52/112/93
f 52/112/94 43/99/94 48/98/94
f 45/90/95 53/113/95 44/88/95
f 53/113/96 50/108/96 44/88/96
f 53/114/97 45/111/97 51/110/97
f 46/97/98 49/115/98 47/96/98
f 47/96/99 49/115/99 52/112/99
f 48/98/100 47/96/100 52/112/100
f 52/116/101 49/102/101 51/106/101
f 53/117/102 51/106/102 50/107/102
