# Blender 4.3.0
# www.blender.org
mtllib distal_phalanx2_rvs.mtl
o distal_phalanx2_rvs
v 0.065738 -0.003046 0.010778
v 0.067072 -0.004452 0.010368
v 0.065862 -0.004236 0.010052
v 0.068125 -0.003410 0.011565
v 0.065098 -0.002702 0.010485
v 0.067384 -0.003035 0.012429
v 0.064220 -0.002198 0.010901
v 0.065436 -0.004479 0.009917
v 0.068819 -0.003714 0.010407
v 0.066417 -0.004817 0.010361
v 0.064926 -0.004929 0.010084
v 0.068426 -0.003988 0.010253
v 0.068181 -0.004331 0.009973
v 0.067363 -0.004774 0.010056
v 0.064701 -0.005371 0.013315
v 0.067438 -0.004954 0.010816
v 0.067265 -0.004782 0.012679
v 0.064822 -0.002936 0.009665
v 0.065250 -0.003989 0.009812
v 0.069479 -0.003392 0.012356
v 0.069403 -0.003443 0.010860
v 0.064311 -0.002233 0.009425
v 0.066501 -0.004927 0.014388
v 0.065574 -0.003244 0.013385
v 0.063474 -0.002854 0.013946
v 0.068070 -0.003899 0.015008
v 0.068783 -0.003622 0.014533
v 0.069061 -0.003474 0.013961
v 0.062471 -0.002377 0.012743
v 0.062602 -0.002334 0.011531
v 0.063540 -0.004199 0.008650
v 0.062947 -0.005213 0.009757
v 0.069225 -0.004070 0.010667
v 0.062879 -0.005211 0.014305
v 0.062518 -0.005634 0.013456
v 0.065594 -0.005159 0.013682
v 0.066246 -0.005224 0.013927
v 0.064856 -0.004315 0.013885
v 0.063761 -0.004909 0.014090
v 0.067906 -0.004311 0.015304
v 0.069381 -0.003690 0.013107
v 0.063656 -0.002846 0.008526
v 0.063747 -0.002244 0.009166
v 0.066928 -0.005149 0.014687
v 0.062686 -0.002925 0.014289
v 0.062842 -0.003578 0.014758
v 0.068776 -0.004151 0.014342
v 0.063283 -0.003490 0.008703
v 0.062880 -0.004651 0.009324
v 0.062364 -0.005478 0.011402
v 0.062243 -0.004277 0.014559
v 0.062122 -0.005073 0.013788
v 0.062180 -0.005454 0.012858
v 0.062193 -0.005229 0.011823
vn 0.4462 0.6955 -0.5631
vn -0.2802 -0.1314 -0.9509
vn 0.3729 0.2383 -0.8967
vn 0.0515 0.9353 -0.3501
vn 0.6255 0.7434 -0.2370
vn 0.1239 0.9840 0.1281
vn 0.1660 0.9857 0.0277
vn 0.3519 -0.3387 -0.8726
vn 0.2396 0.5415 -0.8058
vn 0.2569 -0.8710 -0.4188
vn -0.2763 0.7357 -0.6185
vn 0.1800 -0.1027 -0.9783
vn -0.3275 -0.5255 -0.7852
vn -0.1964 0.3347 0.9216
vn 0.1607 -0.9284 0.3350
vn -0.1820 -0.9818 -0.0549
vn 0.2894 -0.9572 -0.0088
vn 0.6894 0.2958 -0.6612
vn 0.4627 0.0317 -0.8859
vn 0.8545 0.5189 -0.0220
vn 0.7081 0.5856 -0.3946
vn 0.4768 0.7615 -0.4391
vn 0.0305 -0.4164 0.9087
vn 0.2505 0.5424 0.8019
vn 0.2896 0.7207 0.6299
vn 0.0460 0.6608 0.7491
vn 0.5478 0.5004 0.6705
vn 0.6947 0.5924 0.4081
vn -0.8579 0.4940 0.1415
vn -0.7724 0.6320 -0.0628
vn 0.0163 -0.3519 -0.9359
vn -0.3392 -0.8242 -0.4534
vn 0.7542 -0.4876 -0.4398
vn -0.0429 -0.6369 0.7698
vn -0.2855 -0.9286 0.2373
vn -0.3659 -0.3431 0.8651
vn 0.1151 -0.9469 0.3002
vn 0.0654 -0.0235 0.9976
vn 0.3741 -0.2995 0.8777
vn 0.0295 -0.2544 0.9666
vn 0.9545 -0.2283 0.1919
vn 0.0025 0.3377 -0.9412
vn -0.2509 0.8586 -0.4471
vn -0.5584 0.0418 0.8285
vn -0.5024 0.7044 0.5014
vn 0.0511 0.2375 0.9700
vn 0.6454 -0.6761 0.3555
vn -0.7276 0.1056 -0.6778
vn -0.7898 -0.2663 -0.5526
vn -0.5439 -0.8037 -0.2412
vn -0.7659 -0.0391 0.6417
vn -0.9241 -0.2665 0.2740
vn -0.8185 -0.5745 -0.0014
vn -0.9868 0.0991 -0.1282
vt 0.823268 0.745022
vt 0.731495 0.846209
vt 0.726501 0.752899
vt 0.840445 0.933052
vt 0.834964 0.687378
vt 0.574108 0.419366
vt 0.534594 0.232832
vt 0.643213 0.367956
vt 0.553189 0.113483
vt 0.516817 0.179858
vt 0.701369 0.725337
vt 0.483210 0.464261
vt 0.498664 0.341444
vt 0.665567 0.705649
vt 0.476346 0.436468
vt 0.116740 0.556309
vt 0.116740 0.615180
vt 0.088021 0.609086
vt 0.459121 0.419265
vt 0.050422 0.556309
vt 0.050422 0.722331
vt 0.037452 0.610557
vt 0.346297 0.157766
vt 0.375871 0.321548
vt 0.106307 0.208830
vt 0.217811 0.727723
vt 0.187410 0.749455
vt 0.182037 0.692279
vt 0.217811 0.556309
vt 0.211362 0.382724
vt 0.800388 0.648007
vt 0.732489 0.700586
vt 0.621195 0.525860
vt 0.510694 0.508639
vt 0.840445 0.593691
vt 0.442660 0.108642
vt 0.804991 0.336016
vt 0.730981 0.243564
vt 0.789231 0.088918
vt 0.833067 0.447630
vt 0.790315 0.494021
vt 0.744672 0.508615
vt 0.706263 0.000477
vt 0.614703 0.000000
vt 0.675867 0.556036
vt 0.428310 0.038303
vt 0.373926 0.196121
vt 0.037452 0.626996
vt 0.037452 0.685681
vt 0.014960 0.556309
vt 0.325465 0.007449
vt 0.428310 0.392170
vt 0.403424 0.484827
vt 0.400389 0.330392
vt 0.000000 0.651010
vt 0.345700 0.350314
vt 0.000000 0.105567
vt 0.048157 0.055073
vt 0.410094 0.815179
vt 0.428310 0.746700
vt 0.412822 0.863622
vt 0.096288 0.333200
vt 0.340579 0.766058
vt 0.369599 0.680174
vt 0.379300 0.612266
vt 0.042984 0.493719
vt 0.072135 0.365705
vt 0.400592 0.510506
vt 0.296148 0.550395
vt 0.237165 0.556309
vt 0.679262 0.527441
vt 0.772510 0.534166
vt 0.828131 0.548808
vt 0.428310 0.064884
vt 0.858328 0.441717
vt 0.140458 0.680228
vt 0.116740 0.658119
vt 0.140458 0.556309
vt 0.381883 0.885065
vt 0.283044 0.826910
vt 0.226976 0.673027
vt 0.821904 0.033985
vt 0.858328 0.055416
vt 0.252728 0.621238
vt 0.140973 0.671366
vt 0.140458 0.603046
vt 0.164552 0.662572
vt 0.182037 0.610442
vt 0.150350 0.556309
vt 0.182037 0.588130
vt 0.461235 0.964348
vt 0.428310 0.848311
vt 0.434229 0.757038
vt 0.544999 0.549819
vt 0.502255 0.527441
vt 0.454490 0.568874
vt 0.622902 0.609411
vt 0.724623 0.527441
vt 0.361433 0.000857
vt 0.600521 0.548643
vt 0.662463 0.645077
vt 0.665567 0.775161
vt 0.193147 0.000000
vt 0.131343 0.535286
vt 0.302851 0.571434
vt 0.377699 0.556309
vt 0.428310 0.581764
vt 0.085873 0.020352
vt 0.665567 0.926268
vt 0.617794 0.950777
vt 0.652575 0.884507
vt 0.555125 1.000000
vt 0.217811 0.613848
vt 0.642661 0.806183
s 1
usemtl Material_with_Texture.070
f 1/1/1 2/2/2 3/3/3
f 1/1/1 4/4/4 2/2/2
f 3/3/3 5/5/5 1/1/1
f 4/6/4 1/7/1 6/8/6
f 7/9/7 6/8/6 1/7/1
f 1/7/1 5/10/5 7/9/7
f 2/2/2 8/11/8 3/3/3
f 4/6/4 9/12/9 2/13/2
f 8/11/8 2/2/2 11/14/10
f 2/13/2 9/12/9 12/15/11
f 13/16/12 14/17/13 2/18/2
f 12/15/11 13/19/12 2/13/2
f 2/20/14 11/21/14 10/22/14
f 11/23/10 2/24/2 15/25/15
f 2/26/2 14/27/13 16/28/16
f 17/29/17 2/26/2 16/28/16
f 17/30/17 15/25/15 2/24/2
f 3/3/3 18/31/18 5/5/5
f 19/32/19 18/31/18 3/3/3
f 8/11/8 19/32/19 3/3/3
f 20/33/20 21/34/21 4/6/4
f 21/34/21 9/12/9 4/6/4
f 6/8/6 20/33/20 4/6/4
f 5/5/5 18/31/18 22/35/22
f 5/10/5 22/36/22 7/9/7
f 23/37/23 6/8/6 24/38/24
f 6/8/6 7/9/7 25/39/25
f 25/39/25 24/38/24 6/8/6
f 26/40/26 27/41/27 6/8/6
f 27/41/27 28/42/28 6/8/6
f 20/33/20 6/8/6 28/42/28
f 26/40/26 6/8/6 23/37/23
f 7/9/7 29/43/29 25/39/25
f 30/44/30 29/43/29 7/9/7
f 30/44/30 7/9/7 22/36/22
f 19/32/19 8/11/8 31/45/31
f 31/46/31 8/47/8 11/23/10
f 13/19/12 12/15/11 9/12/9
f 9/48/9 21/49/21 13/50/12
f 15/25/15 32/51/32 11/23/10
f 11/23/10 32/51/32 31/46/31
f 13/52/12 33/53/33 14/54/13
f 21/49/21 33/55/33 13/50/12
f 14/54/13 33/53/33 16/56/16
f 15/25/15 34/57/34 35/58/35
f 32/51/32 15/25/15 35/58/35
f 36/59/36 15/60/15 37/61/37
f 15/25/15 17/30/17 37/62/37
f 38/63/38 39/64/39 15/60/15
f 34/65/34 15/60/15 39/64/39
f 15/60/15 36/59/36 38/63/38
f 17/30/17 16/56/16 33/53/33
f 40/66/40 17/30/17 33/53/33
f 23/67/23 17/30/17 40/66/40
f 37/62/37 17/30/17 23/67/23
f 18/31/18 19/32/19 22/35/22
f 31/45/31 22/35/22 19/32/19
f 21/68/21 20/69/20 41/70/41
f 41/71/41 20/33/20 28/42/28
f 21/68/21 41/70/41 33/53/33
f 42/72/42 43/73/43 22/35/22
f 42/72/42 22/35/22 31/45/31
f 22/36/22 43/74/43 30/44/30
f 26/40/26 23/37/23 40/75/40
f 23/76/44 44/77/44 40/78/44
f 38/63/38 23/79/23 24/80/24
f 23/79/23 38/63/38 36/59/36
f 23/79/23 36/59/36 37/61/37
f 25/81/25 38/63/38 24/80/24
f 45/82/45 25/39/25 29/43/29
f 45/82/45 46/83/46 25/39/25
f 25/81/25 46/84/46 39/64/39
f 38/63/38 25/81/25 39/64/39
f 40/85/40 47/86/47 26/87/26
f 27/88/27 26/87/26 47/86/47
f 41/89/41 28/90/28 27/88/27
f 41/89/41 27/88/27 47/86/47
f 45/91/45 29/92/29 30/93/30
f 48/94/48 30/93/30 42/95/42
f 30/93/30 43/96/43 42/95/42
f 45/91/45 30/93/30 49/97/49
f 30/93/30 48/94/48 49/97/49
f 42/72/42 31/45/31 48/98/48
f 32/51/32 49/99/49 31/46/31
f 49/97/49 48/94/48 31/100/31
f 32/101/32 50/102/50 49/97/49
f 32/51/32 35/58/35 50/103/50
f 33/53/33 41/70/41 47/104/47
f 40/66/40 33/53/33 47/104/47
f 34/65/34 39/64/39 46/84/46
f 51/105/51 34/65/34 46/84/46
f 34/65/34 51/105/51 52/106/52
f 35/107/35 34/65/34 52/106/52
f 35/58/35 53/108/53 50/103/50
f 35/109/35 52/110/52 53/111/53
f 45/91/45 52/110/52 51/112/51
f 46/84/46 45/113/45 51/105/51
f 45/91/45 49/97/49 52/110/52
f 54/114/54 49/97/49 50/102/50
f 54/114/54 52/110/52 49/97/49
f 50/102/50 53/111/53 54/114/54
f 52/110/52 54/114/54 53/111/53
