# Blender 4.3.0
# www.blender.org
mtllib distal_phalanx4_rvs.mtl
o distal_phalanx4_rvs
v 0.027774 -0.001602 0.038334
v 0.033001 -0.002728 0.039698
v 0.029128 -0.002314 0.038101
v 0.030404 -0.002455 0.040059
v 0.028115 -0.001485 0.037322
v 0.027815 -0.002649 0.040660
v 0.026399 -0.001847 0.038700
v 0.027011 -0.001385 0.037068
v 0.031568 -0.003687 0.037511
v 0.031125 -0.004003 0.037365
v 0.033252 -0.002621 0.038600
v 0.032762 -0.002821 0.038018
v 0.032408 -0.003094 0.037771
v 0.033299 -0.002643 0.039248
v 0.032369 -0.002995 0.041086
v 0.032897 -0.003258 0.041541
v 0.029302 -0.003846 0.036951
v 0.029317 -0.003482 0.040717
v 0.027290 -0.001945 0.035575
v 0.027416 -0.001569 0.036061
v 0.027508 -0.001310 0.036592
v 0.027412 -0.002974 0.035218
v 0.029051 -0.004501 0.040640
v 0.026424 -0.003002 0.041328
v 0.028694 -0.005289 0.040344
v 0.026109 -0.002156 0.039771
v 0.026409 -0.003258 0.039435
v 0.031452 -0.004259 0.037932
v 0.033045 -0.003280 0.038104
v 0.029109 -0.004483 0.037158
v 0.029662 -0.005070 0.040323
v 0.032863 -0.003660 0.041909
v 0.032486 -0.004188 0.042289
v 0.030934 -0.004395 0.041487
v 0.027484 -0.004542 0.035990
v 0.027509 -0.004156 0.035640
v 0.030349 -0.004684 0.041226
v 0.030457 -0.005079 0.040773
v 0.025959 -0.004847 0.040498
v 0.027127 -0.005864 0.039717
v 0.026200 -0.005578 0.039462
v 0.031821 -0.004226 0.039776
v 0.032093 -0.004249 0.042605
v 0.031028 -0.004940 0.041990
v 0.030798 -0.005200 0.041263
v 0.031479 -0.004855 0.042211
vn 0.1051 0.9648 0.2413
vn 0.0608 0.9917 0.1133
vn 0.4720 0.7110 -0.5213
vn 0.0348 0.8600 0.5092
vn 0.5294 0.8371 -0.1379
vn 0.1425 0.6069 0.7819
vn -0.7634 0.6447 0.0397
vn -0.6180 0.7785 -0.1100
vn -0.1037 0.4016 -0.9099
vn 0.3837 -0.2132 -0.8985
vn 0.6170 0.7294 -0.2955
vn 0.1957 0.3825 -0.9030
vn -0.2949 -0.1337 0.9461
vn 0.7783 0.6208 0.0936
vn -0.0353 0.8508 0.5243
vn 0.5097 0.6445 0.5699
vn 0.4987 0.0643 -0.8644
vn -0.1032 0.2439 0.9643
vn -0.2259 0.4453 -0.8664
vn 0.1526 0.7898 -0.5941
vn 0.1522 0.9482 -0.2788
vn -0.2045 0.0919 -0.9745
vn -0.2450 -0.2624 0.9333
vn -0.4365 0.2961 0.8496
vn 0.1901 -0.8123 0.5514
vn -0.7814 0.5966 0.1830
vn -0.9824 -0.0342 -0.1838
vn 0.3167 -0.8699 -0.3782
vn 0.7201 -0.1886 -0.6678
vn 0.3552 -0.7662 -0.5355
vn 0.0506 -0.9732 0.2244
vn 0.7092 0.1153 0.6955
vn -0.0603 -0.4423 0.8949
vn -0.4015 0.4652 0.7889
vn -0.3253 -0.7053 -0.6299
vn -0.2589 -0.4824 -0.8368
vn -0.5724 -0.3055 0.7610
vn -0.1152 -0.9933 -0.0108
vn -0.7961 -0.3389 0.5013
vn -0.0136 -0.9797 0.2001
vn -0.7585 -0.6433 -0.1041
vn 0.4558 -0.8810 -0.1270
vn 0.1677 -0.1072 -0.9800
vn -0.4965 -0.3444 0.7968
vn -0.1143 -0.9882 0.1024
vn 0.1983 -0.7668 0.6104
vt 0.742952 0.409030
vt 0.803453 0.000000
vt 0.811001 0.316894
vt 0.651116 0.478632
vt 0.597248 0.236870
vt 0.673209 0.066171
vt 0.663513 0.385985
vt 0.715604 0.487009
vt 0.485829 0.395578
vt 0.582359 0.560241
vt 0.702183 0.571871
vt 0.689440 0.223429
vt 0.667824 0.255690
vt 0.738823 0.083300
vt 0.742952 0.133137
vt 0.730923 0.162715
vt 0.707676 0.060081
vt 0.967149 0.184763
vt 0.574677 0.065088
vt 0.553877 0.012426
vt 0.956770 0.321669
vt 0.788437 0.423327
vt 0.482104 0.282793
vt 0.889021 0.531050
vt 0.845462 0.511712
vt 0.806145 0.491265
vt 0.967149 0.519559
vt 0.742952 0.552745
vt 0.389554 0.937360
vt 0.287203 0.821772
vt 0.340398 0.816718
vt 0.396456 0.468122
vt 0.389554 0.321282
vt 0.506544 0.544850
vt 0.233698 0.841723
vt 0.742957 0.860488
vt 0.742952 0.773093
vt 0.832243 0.854225
vt 0.744842 0.637571
vt 0.899471 0.531050
vt 0.782023 0.506426
vt 0.816432 0.537651
vt 0.780541 0.563035
vt 0.058458 0.236653
vt 0.108699 0.240271
vt 0.073103 0.276586
vt 0.514349 0.743071
vt 0.493927 0.665571
vt 0.493367 0.627596
vt 0.514349 0.571871
vt 0.493367 0.734394
vt 0.456928 0.682997
vt 0.493367 0.571871
vt 0.040669 0.114817
vt 0.130952 0.416584
vt 0.089193 0.398118
vt 0.330478 0.269265
vt 0.398941 0.874870
vt 0.389554 0.826823
vt 0.456928 0.899637
vt 0.000000 0.602771
vt 0.018386 0.565589
vt 0.018386 0.784124
vt 0.061301 0.565589
vt 0.061301 0.832082
vt 0.034245 0.615080
vt 0.456928 0.571871
vt 0.514409 0.000000
vt 0.458277 0.009781
vt 0.442998 0.139600
vt 0.104532 0.562182
vt 0.068019 0.565589
vt 0.000000 0.559952
vt 0.425852 0.294536
vt 0.978625 0.583802
vt 1.000000 0.617093
vt 0.424365 0.185414
vt 0.236370 0.776807
vt 0.255772 0.710137
vt 0.302029 0.713683
vt 0.233698 0.820636
vt 0.123909 0.737389
vt 0.233698 0.565589
vt 0.924913 0.969326
vt 0.777411 0.984625
vt 0.365101 0.331318
vt 0.112378 0.606402
vt 0.389554 0.463950
vt 1.000000 0.906216
vt 0.209463 0.142595
vt 0.342858 0.000000
vt 0.337499 0.203882
vt 0.374454 0.012027
vt 0.534696 0.571871
vt 0.534696 0.675288
vt 0.514349 0.578378
vt 0.393208 0.112955
vt 0.387196 0.522576
vt 0.275176 0.673095
vt 0.327859 0.644440
vt 0.362936 0.166601
vt 0.061301 0.662916
vt 0.389554 0.079219
vt 0.341400 0.608762
vt 0.389554 0.565589
s 1
usemtl Material_with_Texture.074
f 1/1/1 2/2/2 3/3/3
f 1/4/1 4/5/4 2/6/2
f 3/7/3 5/8/5 1/4/1
f 6/9/6 4/5/4 1/4/1
f 1/4/1 7/10/7 6/9/6
f 7/10/7 1/4/1 8/11/8
f 1/4/1 5/8/5 8/11/8
f 9/12/9 10/13/10 2/6/2
f 2/6/2 11/14/11 12/15/12
f 2/6/2 12/15/12 13/16/13
f 14/17/14 11/14/11 2/6/2
f 3/3/3 2/2/2 10/18/10
f 13/16/13 9/12/9 2/6/2
f 4/5/4 15/19/15 2/6/2
f 16/20/16 14/17/14 2/6/2
f 2/6/2 15/19/15 16/20/16
f 17/21/17 5/22/5 3/3/3
f 3/3/3 10/18/10 17/21/17
f 15/19/15 4/5/4 18/23/18
f 6/9/6 18/23/18 4/5/4
f 19/24/19 20/25/20 5/22/5
f 20/25/20 21/26/21 5/22/5
f 19/24/19 5/22/5 22/27/22
f 17/21/17 22/27/22 5/22/5
f 8/11/8 5/8/5 21/28/21
f 6/29/6 23/30/23 18/31/18
f 24/32/24 25/33/25 6/9/6
f 7/10/7 26/34/26 6/9/6
f 24/32/24 6/9/6 26/34/26
f 23/30/23 6/29/6 25/35/25
f 26/36/26 7/37/7 27/38/27
f 8/39/8 22/40/22 7/37/7
f 27/38/27 7/37/7 22/40/22
f 8/41/8 21/26/21 20/25/20
f 22/40/22 8/39/8 19/42/19
f 19/42/19 8/39/8 20/43/20
f 9/44/9 28/45/28 10/46/10
f 9/47/9 13/48/13 12/49/12
f 11/50/11 9/47/9 12/49/12
f 11/51/11 29/52/29 9/53/9
f 28/45/28 9/44/9 29/54/29
f 30/55/30 17/56/17 10/46/10
f 31/57/31 30/55/30 10/46/10
f 31/57/31 10/46/10 28/45/28
f 11/58/11 14/59/14 29/60/29
f 16/61/16 32/62/32 14/63/14
f 33/64/33 14/65/14 32/66/32
f 14/59/14 33/67/33 29/60/29
f 32/68/32 16/20/16 15/19/15
f 33/69/33 32/68/32 15/19/15
f 33/69/33 15/19/15 34/70/34
f 15/19/15 18/23/18 34/70/34
f 30/55/30 35/71/35 17/56/17
f 35/71/35 36/72/36 17/56/17
f 22/73/22 17/56/17 36/72/36
f 34/70/34 18/23/18 23/74/23
f 22/40/22 36/75/36 35/76/35
f 27/38/27 22/40/22 35/76/35
f 34/70/34 23/74/23 37/77/37
f 25/35/25 31/78/31 23/30/23
f 23/30/23 31/78/31 38/79/38
f 37/80/37 23/30/23 38/79/38
f 24/81/24 39/82/39 25/83/25
f 39/84/39 24/85/24 27/38/27
f 24/85/24 26/36/26 27/38/27
f 25/86/25 30/55/30 31/57/31
f 39/82/39 40/87/40 25/83/25
f 25/86/25 40/88/40 30/55/30
f 27/38/27 41/89/41 39/84/39
f 27/38/27 35/76/35 41/89/41
f 28/45/28 42/90/42 31/57/31
f 29/54/29 42/90/42 28/45/28
f 42/90/42 29/54/29 33/91/33
f 30/55/30 40/88/40 35/71/35
f 42/90/42 38/92/38 31/57/31
f 43/93/43 42/90/42 33/91/33
f 33/94/33 44/95/44 43/96/43
f 34/70/34 44/97/44 33/69/33
f 37/77/37 44/97/44 34/70/34
f 40/88/40 41/98/41 35/71/35
f 37/80/37 38/79/38 45/99/45
f 44/100/44 37/80/37 45/99/45
f 42/90/42 45/101/45 38/92/38
f 39/82/39 41/102/41 40/87/40
f 46/103/46 45/101/45 42/90/42
f 46/103/46 42/90/42 43/93/43
f 44/100/44 46/104/46 43/105/43
f 46/104/46 44/100/44 45/99/45
