# Blender v3.5.0 OBJ File: ''
# www.blender.org
mtllib distal_phalanx2_lvs.mtl
o distal_phalanx2_lvs
v 0.065862 -0.004236 -0.010052
v 0.067072 -0.004452 -0.010368
v 0.065738 -0.003046 -0.010778
v 0.065098 -0.002702 -0.010485
v 0.065436 -0.004479 -0.009917
v 0.064822 -0.002936 -0.009665
v 0.065250 -0.003989 -0.009812
v 0.068125 -0.003410 -0.011565
v 0.068819 -0.003714 -0.010407
v 0.064926 -0.004929 -0.010084
v 0.066417 -0.004817 -0.010361
v 0.068426 -0.003988 -0.010253
v 0.067363 -0.004774 -0.010056
v 0.068181 -0.004331 -0.009973
v 0.064701 -0.005371 -0.013315
v 0.067438 -0.004954 -0.010816
v 0.067265 -0.004782 -0.012679
v 0.067384 -0.003035 -0.012429
v 0.064220 -0.002198 -0.010901
v 0.064311 -0.002233 -0.009425
v 0.063540 -0.004199 -0.008650
v 0.069403 -0.003443 -0.010860
v 0.069479 -0.003392 -0.012356
v 0.062947 -0.005213 -0.009757
v 0.069225 -0.004070 -0.010667
v 0.062518 -0.005634 -0.013456
v 0.062879 -0.005211 -0.014305
v 0.066246 -0.005224 -0.013927
v 0.065594 -0.005159 -0.013682
v 0.063761 -0.004909 -0.014090
v 0.064856 -0.004315 -0.013885
v 0.067906 -0.004311 -0.015304
v 0.066501 -0.004927 -0.014388
v 0.065574 -0.003244 -0.013385
v 0.063474 -0.002854 -0.013946
v 0.068783 -0.003622 -0.014533
v 0.068070 -0.003899 -0.015008
v 0.069061 -0.003474 -0.013961
v 0.062471 -0.002377 -0.012743
v 0.062602 -0.002334 -0.011531
v 0.063747 -0.002244 -0.009166
v 0.063656 -0.002846 -0.008526
v 0.063283 -0.003490 -0.008703
v 0.062880 -0.004651 -0.009324
v 0.069381 -0.003690 -0.013107
v 0.062364 -0.005478 -0.011402
v 0.068776 -0.004151 -0.014342
v 0.062122 -0.005073 -0.013788
v 0.062180 -0.005454 -0.012858
v 0.062842 -0.003578 -0.014758
v 0.062243 -0.004277 -0.014559
v 0.066928 -0.005149 -0.014687
v 0.062686 -0.002925 -0.014289
v 0.062193 -0.005229 -0.011823
vt 0.726501 0.707595
vt 0.731495 0.614285
vt 0.823268 0.715472
vt 0.834964 0.773115
vt 0.701369 0.735157
vt 0.800388 0.812487
vt 0.732489 0.759908
vt 0.840445 0.527441
vt 0.498664 0.185997
vt 0.483210 0.063181
vt 0.574108 0.108075
vt 0.665567 0.754844
vt 0.476346 0.090974
vt 0.088021 0.562402
vt 0.116740 0.556309
vt 0.116740 0.615180
vt 0.459121 0.108177
vt 0.037452 0.668083
vt 0.050422 0.556309
vt 0.050422 0.722331
vt 0.106307 0.347478
vt 0.375871 0.234760
vt 0.346297 0.398543
vt 0.182037 0.613485
vt 0.187410 0.556309
vt 0.217811 0.578041
vt 0.217811 0.749455
vt 0.211362 0.173585
vt 0.643213 0.159486
vt 0.534594 0.294610
vt 0.553189 0.413959
vt 0.516817 0.347584
vt 0.840445 0.866803
vt 0.442660 0.418799
vt 0.675867 0.904457
vt 0.373926 0.360188
vt 0.428310 0.518006
vt 0.510694 0.018802
vt 0.621195 0.001581
vt 0.014960 0.685682
vt 0.037452 0.556309
vt 0.037452 0.614995
vt 0.325465 0.548860
vt 0.400389 0.225917
vt 0.403424 0.071482
vt 0.428310 0.164139
vt 0.345700 0.205995
vt 0.000000 0.590981
vt 0.048157 0.501236
vt 0.000000 0.450742
vt 0.412822 0.577751
vt 0.428310 0.694673
vt 0.410094 0.626195
vt 0.096288 0.223108
vt 0.369599 0.761199
vt 0.340579 0.675316
vt 0.379300 0.829107
vt 0.042984 0.062589
vt 0.072135 0.190604
vt 0.730981 0.283877
vt 0.804991 0.191425
vt 0.789231 0.438524
vt 0.790315 0.033421
vt 0.833067 0.079811
vt 0.744672 0.018827
vt 0.706263 0.526965
vt 0.614703 0.527441
vt 0.828131 0.911685
vt 0.772510 0.926327
vt 0.428310 0.462558
vt 0.724623 0.933052
vt 0.361433 0.555452
vt 0.600521 0.978798
vt 0.544999 0.977622
vt 0.622902 0.918031
vt 0.237165 0.000000
vt 0.296148 0.005914
vt 0.400592 0.045803
vt 0.679262 0.000000
vt 0.665567 0.752280
vt 0.662463 0.882364
vt 0.193147 0.556309
vt 0.131343 0.021023
vt 0.377699 0.885065
vt 0.428310 0.859610
vt 0.085873 0.535957
vt 0.652575 0.642934
vt 0.617794 0.576665
vt 0.665567 0.601174
vt 0.252728 0.820135
vt 0.302851 0.869940
vt 0.381883 0.556309
vt 0.226976 0.768347
vt 0.283044 0.614463
vt 0.858328 0.085725
vt 0.140458 0.556309
vt 0.140458 0.680228
vt 0.116740 0.578418
vt 0.164552 0.565103
vt 0.140458 0.624628
vt 0.140973 0.556309
vt 0.821904 0.493456
vt 0.858328 0.472025
vt 0.182037 0.617233
vt 0.182037 0.639545
vt 0.150350 0.671366
vt 0.434229 0.770403
vt 0.428310 0.679131
vt 0.461235 0.563093
vt 0.502255 1.000000
vt 0.454490 0.958567
vt 0.642661 0.721259
vt 0.555125 0.527441
vt 0.217811 0.827526
vn 0.3015 0.5193 0.7996
vn 0.5640 0.4721 0.6775
vn 0.2640 0.0716 0.9619
vn 0.7699 0.4966 0.4008
vn 0.3727 0.0220 0.9277
vn 0.3386 -0.0725 0.9381
vn 0.3364 0.5435 0.7691
vn -0.3440 0.8368 0.4259
vn 0.2294 -0.5563 0.7987
vn -0.3097 0.7630 0.5673
vn -0.3406 0.4771 0.8101
vn -0.3005 0.7227 0.6224
vn -0.1964 0.3347 -0.9216
vn 0.2301 -0.9662 0.1161
vn -0.7739 -0.6291 0.0726
vn -0.7998 -0.6000 0.0189
vn 0.1848 -0.9706 0.1540
vn 0.2188 0.9496 0.2245
vn 0.4163 0.8062 0.4204
vn 0.4853 0.8737 0.0343
vn 0.8015 0.4469 0.3973
vn 0.5015 0.8651 -0.0104
vn 0.5588 0.0346 0.8286
vn 0.3534 -0.6502 0.6726
vn 0.5303 0.0980 0.8421
vn 0.5492 0.1111 0.8283
vn 0.0068 0.9994 0.0344
vn -0.1645 0.9254 0.3415
vn 0.1517 0.9476 0.2812
vn -0.2346 0.7098 0.6642
vn 0.6470 -0.1421 0.7491
vn 0.1608 -0.9793 0.1228
vn 0.2098 -0.7744 0.5969
vn 0.4254 -0.8458 0.3219
vn 0.4128 -0.8763 0.2483
vn 0.5316 0.1077 0.8401
vn 0.1350 -0.9086 -0.3953
vn 0.1127 -0.9886 0.0995
vn -0.3586 -0.0969 -0.9285
vn 0.1716 -0.9644 0.2015
vn 0.4058 -0.4795 -0.7781
vn 0.3680 -0.5314 -0.7631
vn -0.2538 -0.4303 -0.8662
vn 0.4483 -0.8854 -0.1234
vn 0.4001 -0.9141 -0.0663
vn 0.3560 -0.9311 -0.0801
vn 0.5782 -0.7932 -0.1912
vn 0.3148 0.6078 -0.7290
vn 0.1379 0.9607 -0.2408
vn 0.3078 0.6231 -0.7190
vn -0.1305 0.9291 -0.3460
vn 0.0170 0.9659 -0.2582
vn 0.1704 0.9808 -0.0945
vn -0.6075 0.6903 -0.3929
vn 0.1605 0.9561 -0.2453
vn -0.0731 0.9969 -0.0275
vn -0.0951 0.9950 0.0295
vn 0.2974 0.6740 0.6763
vn 0.8397 -0.1205 0.5296
vn -0.0302 0.9993 -0.0234
vn -0.3475 -0.0560 0.9360
vn -0.3320 -0.6002 0.7277
vn -0.6414 -0.1767 0.7466
vn 0.9212 -0.3877 0.0336
vn 0.9634 -0.2673 0.0200
vn 0.9055 0.3404 -0.2532
vn -0.8505 -0.3809 0.3628
vn 0.1937 -0.9770 0.0887
vn 0.6891 -0.7214 -0.0683
vn 0.1814 -0.9834 -0.0005
vn -0.4964 -0.6741 -0.5469
vn -0.4169 -0.9082 0.0377
vn -0.7314 -0.6459 -0.2190
vn 0.3087 -0.2478 -0.9183
vn -0.0080 -0.2675 -0.9635
vn -0.5390 -0.5423 -0.6445
vn -0.3078 -0.7132 -0.6298
vn -0.4239 -0.5447 -0.7236
vn 0.7124 0.1476 -0.6861
vn 0.1368 0.0883 -0.9867
vn -0.0927 0.4716 -0.8769
vn 0.2916 0.2371 -0.9267
vn -0.6028 0.6097 -0.5146
vn -0.5584 0.0417 -0.8285
vn 0.7093 0.2027 -0.6752
vn 0.0571 0.9435 -0.3265
vn 0.2719 0.6034 -0.7497
vn 0.6050 -0.2775 -0.7463
vn 0.9009 -0.1960 -0.3872
vn 0.9088 -0.1523 -0.3884
vn -0.7860 -0.6090 0.1066
vn -0.8460 0.3902 0.3632
vn -0.7854 0.5027 0.3611
vn -0.9924 -0.1228 -0.0039
vn -0.9404 0.1685 0.2953
vn -0.9502 0.2809 0.1348
vn -0.9438 -0.1506 0.2943
vn -0.7905 0.6076 0.0768
vn -0.8941 -0.4351 0.1058
vn -0.9487 0.2823 0.1426
vn -0.9964 -0.0791 0.0297
vn -0.6335 0.3458 -0.6922
usemtl Material_with_Texture.069
s off
f 1/1/1 2/2/1 3/3/1
f 3/3/2 4/4/2 1/1/2
f 1/1/3 5/5/3 2/2/3
f 4/4/4 6/6/4 1/1/4
f 1/1/5 6/6/5 7/7/5
f 1/1/6 7/7/6 5/5/6
f 2/2/7 8/8/7 3/3/7
f 2/9/8 9/10/8 8/11/8
f 10/12/9 2/2/9 5/5/9
f 12/13/10 9/10/10 2/9/10
f 2/14/11 13/15/11 14/16/11
f 2/9/12 14/17/12 12/13/12
f 11/18/13 10/19/13 2/20/13
f 15/21/14 2/22/14 10/23/14
f 16/24/15 13/25/15 2/26/15
f 16/24/16 2/26/16 17/27/16
f 2/22/17 15/21/17 17/28/17
f 18/29/18 3/30/18 8/11/18
f 3/30/19 18/29/19 19/31/19
f 19/31/20 4/32/20 3/30/20
f 20/33/21 6/6/21 4/4/21
f 19/31/22 20/34/22 4/32/22
f 21/35/23 5/5/23 7/7/23
f 10/23/24 5/36/24 21/37/24
f 20/33/25 7/7/25 6/6/25
f 7/7/26 20/33/26 21/35/26
f 8/11/27 22/38/27 23/39/27
f 8/11/28 9/10/28 22/38/28
f 8/11/29 23/39/29 18/29/29
f 9/10/30 12/13/30 14/17/30
f 14/40/31 22/41/31 9/42/31
f 10/23/32 24/43/32 15/21/32
f 21/37/33 24/43/33 10/23/33
f 13/44/34 25/45/34 14/46/34
f 16/47/35 25/45/35 13/44/35
f 14/40/36 25/48/36 22/41/36
f 26/49/37 27/50/37 15/21/37
f 26/49/38 15/21/38 24/43/38
f 28/51/39 15/52/39 29/53/39
f 28/54/40 17/28/40 15/21/40
f 15/52/41 30/55/41 31/56/41
f 30/55/42 15/52/42 27/57/42
f 31/56/43 29/53/43 15/52/43
f 25/45/44 16/47/44 17/28/44
f 25/45/45 17/28/45 32/58/45
f 32/58/46 17/28/46 33/59/46
f 33/59/47 17/28/47 28/54/47
f 34/60/48 18/29/48 33/61/48
f 35/62/49 19/31/49 18/29/49
f 18/29/50 34/60/50 35/62/50
f 18/29/51 36/63/51 37/64/51
f 18/29/52 38/65/52 36/63/52
f 38/65/53 18/29/53 23/39/53
f 33/61/54 18/29/54 37/64/54
f 35/62/55 39/66/55 19/31/55
f 19/31/56 39/66/56 40/67/56
f 20/34/57 19/31/57 40/67/57
f 20/33/58 41/68/58 42/69/58
f 21/35/59 20/33/59 42/69/59
f 40/67/60 41/70/60 20/34/60
f 43/71/61 21/35/61 42/69/61
f 21/37/62 44/72/62 24/43/62
f 21/73/63 43/74/63 44/75/63
f 45/76/64 23/77/64 22/78/64
f 25/45/65 45/76/65 22/78/65
f 38/65/66 23/39/66 45/79/66
f 44/75/67 46/80/67 24/81/67
f 46/82/68 26/49/68 24/43/68
f 47/83/69 45/76/69 25/45/69
f 47/83/70 25/45/70 32/58/70
f 48/84/71 27/57/71 26/85/71
f 46/82/72 49/86/72 26/49/72
f 49/87/73 48/88/73 26/89/73
f 50/90/74 30/55/74 27/57/74
f 50/90/75 27/57/75 51/91/75
f 48/84/76 51/91/76 27/57/76
f 28/51/77 29/53/77 33/92/77
f 29/53/78 31/56/78 33/92/78
f 30/55/79 50/90/79 35/93/79
f 30/55/80 35/93/80 31/56/80
f 34/94/81 33/92/81 31/56/81
f 34/94/82 31/56/82 35/93/82
f 32/95/83 33/61/83 37/64/83
f 33/96/84 32/97/84 52/98/84
f 37/99/85 47/100/85 32/101/85
f 39/66/86 35/62/86 53/102/86
f 35/62/87 50/103/87 53/102/87
f 47/100/88 37/99/88 36/104/88
f 36/104/89 38/105/89 45/106/89
f 47/100/90 36/104/90 45/106/90
f 40/107/91 39/108/91 53/109/91
f 42/110/92 40/107/92 43/74/92
f 42/110/93 41/111/93 40/107/93
f 44/75/94 40/107/94 53/109/94
f 44/75/95 43/74/95 40/107/95
f 48/88/96 44/75/96 53/109/96
f 46/80/97 44/75/97 54/112/97
f 44/75/98 48/88/98 54/112/98
f 54/112/99 49/87/99 46/80/99
f 51/113/100 48/88/100 53/109/100
f 49/87/101 54/112/101 48/88/101
f 51/91/102 53/114/102 50/90/102
