# Blender 4.3.0
# www.blender.org
mtllib distal_phalanx2_lvs.mtl
o distal_phalanx2_lvs
v 0.065862 -0.004236 -0.010052
v 0.067072 -0.004452 -0.010368
v 0.065738 -0.003046 -0.010778
v 0.065098 -0.002702 -0.010485
v 0.065436 -0.004479 -0.009917
v 0.064822 -0.002936 -0.009665
v 0.065250 -0.003989 -0.009812
v 0.068125 -0.003410 -0.011565
v 0.068819 -0.003714 -0.010407
v 0.064926 -0.004929 -0.010084
v 0.066417 -0.004817 -0.010361
v 0.068426 -0.003988 -0.010253
v 0.067363 -0.004774 -0.010056
v 0.068181 -0.004331 -0.009973
v 0.064701 -0.005371 -0.013315
v 0.067438 -0.004954 -0.010816
v 0.067265 -0.004782 -0.012679
v 0.067384 -0.003035 -0.012429
v 0.064220 -0.002198 -0.010901
v 0.064311 -0.002233 -0.009425
v 0.063540 -0.004199 -0.008650
v 0.069403 -0.003443 -0.010860
v 0.069479 -0.003392 -0.012356
v 0.062947 -0.005213 -0.009757
v 0.069225 -0.004070 -0.010667
v 0.062518 -0.005634 -0.013456
v 0.062879 -0.005211 -0.014305
v 0.066246 -0.005224 -0.013927
v 0.065594 -0.005159 -0.013682
v 0.063761 -0.004909 -0.014090
v 0.064856 -0.004315 -0.013885
v 0.067906 -0.004311 -0.015304
v 0.066501 -0.004927 -0.014388
v 0.065574 -0.003244 -0.013385
v 0.063474 -0.002854 -0.013946
v 0.068783 -0.003622 -0.014533
v 0.068070 -0.003899 -0.015008
v 0.069061 -0.003474 -0.013961
v 0.062471 -0.002377 -0.012743
v 0.062602 -0.002334 -0.011531
v 0.063747 -0.002244 -0.009166
v 0.063656 -0.002846 -0.008526
v 0.063283 -0.003490 -0.008703
v 0.062880 -0.004651 -0.009324
v 0.069381 -0.003690 -0.013107
v 0.062364 -0.005478 -0.011402
v 0.068776 -0.004151 -0.014342
v 0.062122 -0.005073 -0.013788
v 0.062180 -0.005454 -0.012858
v 0.062842 -0.003578 -0.014758
v 0.062243 -0.004277 -0.014559
v 0.066928 -0.005149 -0.014687
v 0.062686 -0.002925 -0.014289
v 0.062193 -0.005229 -0.011823
vn 0.3729 0.2383 0.8967
vn -0.2802 -0.1314 0.9509
vn 0.4462 0.6955 0.5631
vn 0.6255 0.7434 0.2370
vn 0.3519 -0.3387 0.8726
vn 0.6894 0.2958 0.6612
vn 0.4627 0.0318 0.8859
vn 0.0515 0.9353 0.3501
vn 0.2396 0.5415 0.8058
vn 0.2569 -0.8710 0.4188
vn -0.2763 0.7357 0.6184
vn -0.3275 -0.5255 0.7852
vn 0.1800 -0.1027 0.9783
vn -0.1964 0.3347 -0.9216
vn 0.1607 -0.9284 -0.3350
vn -0.1820 -0.9818 0.0549
vn 0.2894 -0.9572 0.0088
vn 0.1239 0.9840 -0.1281
vn 0.1660 0.9857 -0.0277
vn 0.4768 0.7615 0.4391
vn 0.0163 -0.3519 0.9359
vn 0.7081 0.5856 0.3946
vn 0.8546 0.5189 0.0220
vn -0.3392 -0.8242 0.4534
vn 0.7542 -0.4876 0.4398
vn -0.2855 -0.9286 -0.2373
vn -0.0429 -0.6369 -0.7698
vn 0.1151 -0.9469 -0.3002
vn -0.3659 -0.3431 -0.8651
vn 0.3741 -0.2995 -0.8777
vn 0.0654 -0.0235 -0.9976
vn 0.0295 -0.2544 -0.9666
vn 0.0305 -0.4164 -0.9087
vn 0.2504 0.5424 -0.8019
vn 0.2896 0.7207 -0.6299
vn 0.5478 0.5004 -0.6705
vn 0.0460 0.6608 -0.7491
vn 0.6947 0.5924 -0.4081
vn -0.8579 0.4940 -0.1415
vn -0.7724 0.6320 0.0628
vn -0.2509 0.8586 0.4471
vn 0.0025 0.3377 0.9412
vn -0.7276 0.1056 0.6778
vn -0.7898 -0.2663 0.5526
vn 0.9545 -0.2283 -0.1919
vn -0.5439 -0.8037 0.2412
vn 0.6454 -0.6761 -0.3555
vn -0.9232 -0.2686 -0.2749
vn -0.8185 -0.5745 0.0014
vn 0.0511 0.2375 -0.9700
vn -0.7659 -0.0391 -0.6417
vn -0.5584 0.0417 -0.8285
vn -0.5040 0.7041 -0.5002
vn -0.9868 0.0991 0.1282
vt 0.726501 0.707595
vt 0.731495 0.614285
vt 0.823268 0.715472
vt 0.834964 0.773115
vt 0.701369 0.735157
vt 0.800388 0.812487
vt 0.732489 0.759908
vt 0.840445 0.527441
vt 0.498664 0.185997
vt 0.483210 0.063181
vt 0.574108 0.108075
vt 0.665567 0.754844
vt 0.476346 0.090974
vt 0.088021 0.562402
vt 0.116740 0.556309
vt 0.116740 0.615180
vt 0.459121 0.108177
vt 0.037452 0.668083
vt 0.050422 0.556309
vt 0.050422 0.722331
vt 0.106307 0.347478
vt 0.375871 0.234760
vt 0.346297 0.398543
vt 0.182037 0.613485
vt 0.187410 0.556309
vt 0.217811 0.578041
vt 0.217811 0.749455
vt 0.211362 0.173585
vt 0.643213 0.159486
vt 0.534594 0.294610
vt 0.553189 0.413959
vt 0.516817 0.347584
vt 0.840445 0.866803
vt 0.442660 0.418799
vt 0.675867 0.904457
vt 0.373926 0.360188
vt 0.428310 0.518006
vt 0.510694 0.018802
vt 0.621195 0.001581
vt 0.014960 0.685682
vt 0.037452 0.556309
vt 0.037452 0.614995
vt 0.325465 0.548860
vt 0.400389 0.225917
vt 0.403424 0.071482
vt 0.428310 0.164139
vt 0.345700 0.205995
vt 0.000000 0.590981
vt 0.048157 0.501236
vt 0.000000 0.450742
vt 0.412822 0.577751
vt 0.428310 0.694673
vt 0.410094 0.626195
vt 0.096288 0.223108
vt 0.369599 0.761199
vt 0.340579 0.675316
vt 0.379300 0.829107
vt 0.042984 0.062589
vt 0.072135 0.190604
vt 0.730981 0.283877
vt 0.804991 0.191425
vt 0.789231 0.438524
vt 0.790315 0.033421
vt 0.833067 0.079811
vt 0.744672 0.018827
vt 0.706263 0.526965
vt 0.614703 0.527441
vt 0.828131 0.911685
vt 0.772510 0.926327
vt 0.428310 0.462558
vt 0.724623 0.933052
vt 0.361433 0.555452
vt 0.600521 0.978798
vt 0.544999 0.977622
vt 0.622902 0.918031
vt 0.237165 0.000000
vt 0.296148 0.005914
vt 0.400592 0.045803
vt 0.679262 0.000000
vt 0.665567 0.752280
vt 0.662463 0.882364
vt 0.193147 0.556309
vt 0.131343 0.021023
vt 0.377699 0.885065
vt 0.428310 0.859610
vt 0.085873 0.535957
vt 0.652575 0.642934
vt 0.617794 0.576665
vt 0.665567 0.601174
vt 0.252728 0.820135
vt 0.302851 0.869940
vt 0.381883 0.556309
vt 0.226976 0.768347
vt 0.283044 0.614463
vt 0.858328 0.085725
vt 0.140458 0.556309
vt 0.140458 0.680228
vt 0.116740 0.578418
vt 0.164552 0.565103
vt 0.140458 0.624628
vt 0.140973 0.556309
vt 0.821904 0.493456
vt 0.858328 0.472025
vt 0.182037 0.617233
vt 0.182037 0.639545
vt 0.150350 0.671366
vt 0.434229 0.770403
vt 0.428310 0.679131
vt 0.461235 0.563093
vt 0.502255 1.000000
vt 0.454490 0.958567
vt 0.642661 0.721259
vt 0.555125 0.527441
vt 0.217811 0.827526
s 1
usemtl Material_with_Texture.069
f 1/1/1 2/2/2 3/3/3
f 3/3/3 4/4/4 1/1/1
f 1/1/1 5/5/5 2/2/2
f 4/4/4 6/6/6 1/1/1
f 1/1/1 6/6/6 7/7/7
f 1/1/1 7/7/7 5/5/5
f 2/2/2 8/8/8 3/3/3
f 2/9/2 9/10/9 8/11/8
f 10/12/10 2/2/2 5/5/5
f 12/13/11 9/10/9 2/9/2
f 2/14/2 13/15/12 14/16/13
f 2/9/2 14/17/13 12/13/11
f 11/18/14 10/19/14 2/20/14
f 15/21/15 2/22/2 10/23/10
f 16/24/16 13/25/12 2/26/2
f 16/24/16 2/26/2 17/27/17
f 2/22/2 15/21/15 17/28/17
f 18/29/18 3/30/3 8/11/8
f 3/30/3 18/29/18 19/31/19
f 19/31/19 4/32/4 3/30/3
f 20/33/20 6/6/6 4/4/4
f 19/31/19 20/34/20 4/32/4
f 21/35/21 5/5/5 7/7/7
f 10/23/10 5/36/5 21/37/21
f 20/33/20 7/7/7 6/6/6
f 7/7/7 20/33/20 21/35/21
f 8/11/8 22/38/22 23/39/23
f 8/11/8 9/10/9 22/38/22
f 8/11/8 23/39/23 18/29/18
f 9/10/9 12/13/11 14/17/13
f 14/40/13 22/41/22 9/42/9
f 10/23/10 24/43/24 15/21/15
f 21/37/21 24/43/24 10/23/10
f 13/44/12 25/45/25 14/46/13
f 16/47/16 25/45/25 13/44/12
f 14/40/13 25/48/25 22/41/22
f 26/49/26 27/50/27 15/21/15
f 26/49/26 15/21/15 24/43/24
f 28/51/28 15/52/15 29/53/29
f 28/54/28 17/28/17 15/21/15
f 15/52/15 30/55/30 31/56/31
f 30/55/30 15/52/15 27/57/27
f 31/56/31 29/53/29 15/52/15
f 25/45/25 16/47/16 17/28/17
f 25/45/25 17/28/17 32/58/32
f 32/58/32 17/28/17 33/59/33
f 33/59/33 17/28/17 28/54/28
f 34/60/34 18/29/18 33/61/33
f 35/62/35 19/31/19 18/29/18
f 18/29/18 34/60/34 35/62/35
f 18/29/18 36/63/36 37/64/37
f 18/29/18 38/65/38 36/63/36
f 38/65/38 18/29/18 23/39/23
f 33/61/33 18/29/18 37/64/37
f 35/62/35 39/66/39 19/31/19
f 19/31/19 39/66/39 40/67/40
f 20/34/20 19/31/19 40/67/40
f 20/33/20 41/68/41 42/69/42
f 21/35/21 20/33/20 42/69/42
f 40/67/40 41/70/41 20/34/20
f 43/71/43 21/35/21 42/69/42
f 21/37/21 44/72/44 24/43/24
f 21/73/21 43/74/43 44/75/44
f 45/76/45 23/77/23 22/78/22
f 25/45/25 45/76/45 22/78/22
f 38/65/38 23/39/23 45/79/45
f 44/75/44 46/80/46 24/81/24
f 46/82/46 26/49/26 24/43/24
f 47/83/47 45/76/45 25/45/25
f 47/83/47 25/45/25 32/58/32
f 48/84/48 27/57/27 26/85/26
f 46/82/46 49/86/49 26/49/26
f 49/87/49 48/88/48 26/89/26
f 50/90/50 30/55/30 27/57/27
f 50/90/50 27/57/27 51/91/51
f 48/84/48 51/91/51 27/57/27
f 28/51/28 29/53/29 33/92/33
f 29/53/29 31/56/31 33/92/33
f 30/55/30 50/90/50 35/93/35
f 30/55/30 35/93/35 31/56/31
f 34/94/34 33/92/33 31/56/31
f 34/94/34 31/56/31 35/93/35
f 32/95/32 33/61/33 37/64/37
f 33/96/52 32/97/52 52/98/52
f 37/99/37 47/100/47 32/101/32
f 39/66/39 35/62/35 53/102/53
f 35/62/35 50/103/50 53/102/53
f 47/100/47 37/99/37 36/104/36
f 36/104/36 38/105/38 45/106/45
f 47/100/47 36/104/36 45/106/45
f 40/107/40 39/108/39 53/109/53
f 42/110/42 40/107/40 43/74/43
f 42/110/42 41/111/41 40/107/40
f 44/75/44 40/107/40 53/109/53
f 44/75/44 43/74/43 40/107/40
f 48/88/48 44/75/44 53/109/53
f 46/80/46 44/75/44 54/112/54
f 44/75/44 48/88/48 54/112/54
f 54/112/54 49/87/49 46/80/46
f 51/113/51 48/88/48 53/109/53
f 49/87/49 54/112/54 48/88/48
f 51/91/51 53/114/53 50/90/50
