# Blender 4.3.0
# www.blender.org
mtllib distal_phalanx5_lvs.mtl
o distal_phalanx5_lvs
v 0.018867 -0.002442 -0.050454
v 0.019068 -0.002611 -0.051449
v 0.018243 -0.002511 -0.051748
v 0.017722 -0.003271 -0.049035
v 0.018874 -0.002882 -0.049778
v 0.018650 -0.002895 -0.052112
v 0.018637 -0.004012 -0.052159
v 0.018924 -0.003508 -0.052344
v 0.016987 -0.002580 -0.051679
v 0.016685 -0.003723 -0.048850
v 0.017306 -0.003785 -0.048756
v 0.016771 -0.003008 -0.051882
v 0.017791 -0.003973 -0.052739
v 0.018350 -0.003623 -0.052699
v 0.016975 -0.004462 -0.052093
v 0.017805 -0.004081 -0.050771
v 0.016998 -0.005214 -0.051799
v 0.017567 -0.004768 -0.052448
v 0.018281 -0.004297 -0.052546
v 0.014975 -0.001800 -0.051455
v 0.014810 -0.003382 -0.048386
v 0.014932 -0.002376 -0.049452
v 0.014684 -0.004072 -0.048473
v 0.017225 -0.004044 -0.049274
v 0.015073 -0.005202 -0.050479
v 0.016961 -0.004306 -0.050367
v 0.014395 -0.001848 -0.051701
v 0.014188 -0.003443 -0.052125
v 0.014740 -0.004608 -0.051801
v 0.016189 -0.004763 -0.051901
v 0.016809 -0.004972 -0.052207
v 0.016370 -0.004913 -0.051125
v 0.012929 -0.000549 -0.049428
v 0.012954 -0.001236 -0.050986
v 0.012351 -0.000934 -0.047227
v 0.013737 -0.003200 -0.047618
v 0.013116 -0.004562 -0.048312
v 0.015473 -0.005157 -0.051309
v 0.012678 -0.006094 -0.051304
v 0.012260 -0.002392 -0.052823
v 0.012562 -0.004825 -0.052835
v 0.011689 -0.003213 -0.053384
v 0.012421 -0.000482 -0.048457
v 0.012139 -0.000588 -0.049099
v 0.011360 -0.001948 -0.052010
v 0.012511 -0.001982 -0.046603
v 0.012223 -0.003725 -0.047788
v 0.012299 -0.003495 -0.048298
v 0.012536 -0.003815 -0.047323
v 0.012270 -0.005877 -0.052212
v 0.011689 -0.005708 -0.051230
v 0.011494 -0.005376 -0.052475
v 0.011820 -0.004662 -0.049588
vn 0.4005 0.8852 0.2368
vn 0.8412 0.5061 -0.1903
vn -0.0329 0.9379 -0.3454
vn 0.1012 0.6552 0.7486
vn 0.7604 0.1436 0.6334
vn 0.2262 0.6247 -0.7474
vn 0.7701 -0.6373 0.0295
vn 0.8879 -0.0506 -0.4573
vn 0.0685 0.9210 -0.3836
vn 0.1918 -0.0266 0.9811
vn 0.2074 -0.3530 0.9123
vn -0.0469 0.2470 -0.9679
vn -0.3549 0.2497 -0.9009
vn 0.1253 0.2843 -0.9505
vn -0.4688 0.3000 -0.8308
vn 0.4465 -0.8481 0.2854
vn -0.0280 -0.9715 0.2355
vn 0.2354 -0.7227 -0.6499
vn 0.5197 -0.6489 -0.5558
vn 0.3938 0.8669 -0.3055
vn 0.4926 0.2354 0.8378
vn 0.5416 0.7199 0.4341
vn 0.3238 -0.5756 0.7509
vn 0.1812 -0.9280 0.3257
vn 0.2885 -0.9033 0.3174
vn 0.3272 -0.8958 0.3007
vn 0.1850 0.6431 -0.7431
vn 0.3058 0.0455 -0.9510
vn 0.2607 -0.2246 -0.9389
vn -0.1053 -0.6112 -0.7844
vn -0.3869 -0.4815 -0.7864
vn 0.4228 -0.9057 0.0318
vn 0.2954 0.9541 -0.0504
vn 0.0058 0.8952 -0.4455
vn -0.2648 0.6747 0.6889
vn 0.5282 -0.1531 0.8352
vn 0.0666 -0.8008 0.5953
vn 0.2219 -0.9241 -0.3110
vn 0.0016 -0.9966 0.0820
vn 0.1107 0.6042 -0.7891
vn 0.2187 -0.3396 -0.9148
vn -0.4325 0.1089 -0.8950
vn -0.0404 0.9656 0.2568
vn -0.6477 0.7597 -0.0587
vn -0.7778 0.5473 -0.3092
vn -0.1639 0.2105 0.9638
vn -0.9459 -0.1707 0.2758
vn -0.9881 0.1295 0.0831
vn -0.2468 -0.5565 0.7934
vn -0.0683 -0.8499 -0.5226
vn -0.7552 -0.6312 0.1769
vn -0.7893 -0.4114 -0.4558
vn -0.8989 -0.2844 0.3332
vt 0.077641 0.041729
vt 0.141993 0.012026
vt 0.171713 0.067238
vt 0.546475 1.000000
vt 0.478853 0.971648
vt 0.647397 0.897503
vt 0.758854 0.821362
vt 0.701634 0.775069
vt 0.683358 0.723371
vt 0.602997 0.990555
vt 0.200020 0.029286
vt 0.866945 0.778835
vt 0.229850 0.000000
vt 0.849252 0.819338
vt 0.191371 0.156044
vt 0.668606 0.819599
vt 0.471988 0.880713
vt 0.683358 0.862636
vt 0.700275 0.584323
vt 0.221810 0.163773
vt 0.289380 0.069387
vt 0.265765 0.034359
vt 0.279029 0.130428
vt 0.747714 0.401242
vt 0.845426 0.394594
vt 0.845612 0.532027
vt 0.812171 0.683067
vt 0.934368 0.655724
vt 0.938367 0.724739
vt 0.908032 0.773210
vt 0.064795 0.720757
vt 0.073442 0.788796
vt 0.038431 0.752574
vt 0.420388 0.736288
vt 0.186641 0.309694
vt 0.653243 0.680589
vt 0.549371 0.705942
vt 0.683358 0.670600
vt 0.914861 0.821362
vt 0.880720 0.864582
vt 0.870375 0.825321
vt 0.174679 0.782933
vt 0.106137 0.639811
vt 0.233069 0.628434
vt 0.914861 0.940624
vt 0.903649 0.532027
vt 0.818097 0.626867
vt 0.716285 0.571810
vt 0.741420 0.594863
vt 0.213645 0.346711
vt 0.837515 0.205667
vt 0.746303 0.237646
vt 0.937805 0.228989
vt 0.728039 0.341936
vt 0.030151 0.798653
vt 0.000000 0.600446
vt 0.021886 0.555510
vt 0.021886 0.632086
vt 0.066443 0.850890
vt 0.045362 0.905544
vt 0.715856 0.386492
vt 0.898344 0.617052
vt 0.870375 0.954734
vt 0.825913 0.904723
vt 0.870375 0.821362
vt 0.938275 0.655008
vt 0.073442 0.911824
vt 0.821081 0.937583
vt 0.433560 0.567872
vt 0.173788 0.464955
vt 0.054205 0.495685
vt 0.556555 0.497308
vt 0.670106 0.594594
vt 0.773522 0.821362
vt 0.821081 0.828534
vt 0.791878 0.889913
vt 0.326688 0.631669
vt 0.683358 0.839714
vt 0.147782 0.839488
vt 0.312664 0.866172
vt 0.093590 0.818308
vt 0.338609 0.475949
vt 0.937805 0.074488
vt 0.767408 0.081737
vt 0.896455 0.029883
vt 0.693063 0.285936
vt 0.938367 0.586357
vt 0.000000 0.545594
vt 0.048542 0.555510
vt 0.472727 0.519359
vt 0.288752 0.555510
vt 0.428962 0.423087
vt 0.414640 0.374936
vt 0.495848 0.487693
vt 0.643757 0.497635
vt 0.584744 0.497308
vt 0.661381 0.363029
vt 0.631127 0.338125
vt 0.410452 0.135172
vt 0.708126 0.915906
vt 0.821081 0.972188
vt 0.386786 0.555510
vt 0.088972 0.555510
vt 0.093590 0.720757
vt 0.030151 0.720757
vt 0.683358 0.052382
vt 0.389947 0.862053
vt 0.344978 0.930945
vt 0.410452 0.499473
vt 0.728753 0.000000
vt 0.453543 0.010890
vt 0.683358 0.072461
vt 0.622334 0.000000
vt 0.665570 0.212718
vt 0.683358 0.394006
vt 0.410452 0.731587
vt 0.410452 0.948366
s 1
usemtl Material_with_Texture.075
f 1/1/1 2/2/2 3/3/3
f 1/4/1 3/5/3 4/6/4
f 2/7/2 1/8/1 5/9/5
f 5/10/5 1/4/1 4/6/4
f 6/11/6 3/3/3 2/2/2
f 5/9/5 7/12/7 2/7/2
f 8/13/8 6/11/6 2/2/2
f 2/7/2 7/12/7 8/14/8
f 3/3/3 6/11/6 9/15/9
f 10/16/10 4/6/4 3/5/3
f 9/17/9 10/16/10 3/5/3
f 4/6/4 10/16/10 11/18/11
f 5/10/5 4/6/4 11/18/11
f 7/12/7 5/9/5 11/19/11
f 9/15/9 6/11/6 12/20/12
f 13/21/13 6/11/6 14/22/14
f 13/21/13 15/23/15 6/11/6
f 15/24/15 12/25/12 6/26/6
f 6/11/6 8/13/8 14/22/14
f 16/27/16 17/28/17 7/12/7
f 11/19/11 16/27/16 7/12/7
f 7/12/7 18/29/18 19/30/19
f 7/12/7 19/30/19 8/14/8
f 7/12/7 17/28/17 18/29/18
f 8/31/8 19/32/19 14/33/14
f 10/16/10 9/17/9 20/34/20
f 20/35/20 9/15/9 12/20/12
f 21/36/21 10/16/10 22/37/22
f 20/34/20 22/37/22 10/16/10
f 23/38/23 10/16/10 21/36/21
f 10/39/10 24/40/24 11/41/11
f 25/42/25 10/43/10 23/44/23
f 24/40/24 10/39/10 26/45/26
f 25/46/25 26/47/26 10/48/10
f 24/49/24 16/27/16 11/19/11
f 20/35/20 12/20/12 27/50/27
f 28/51/28 12/25/12 29/52/29
f 27/53/27 12/25/12 28/51/28
f 30/54/30 29/52/29 12/25/12
f 30/54/30 12/25/12 15/24/15
f 19/32/19 13/55/13 14/33/14
f 15/56/15 13/57/13 31/58/31
f 19/32/19 18/59/18 13/55/13
f 13/55/13 18/59/18 31/60/31
f 31/61/31 30/54/30 15/24/15
f 24/49/24 26/47/26 16/27/16
f 16/27/16 26/47/26 25/46/25
f 32/62/32 16/27/16 25/46/25
f 30/63/30 17/64/17 16/65/16
f 30/66/30 16/27/16 32/62/32
f 17/67/17 31/60/31 18/59/18
f 31/68/31 17/64/17 30/63/30
f 20/34/20 33/69/33 22/37/22
f 27/50/27 34/70/34 20/35/20
f 20/35/20 34/70/34 33/71/33
f 22/37/22 33/69/33 21/36/21
f 35/72/35 21/36/21 33/69/33
f 21/36/21 35/72/35 36/73/36
f 23/74/23 21/75/21 36/76/36
f 37/77/37 25/42/25 23/44/23
f 37/78/37 23/74/23 36/76/36
f 38/79/38 25/42/25 39/80/39
f 25/42/25 37/77/37 39/80/39
f 32/81/32 25/42/25 38/79/38
f 34/70/34 27/50/27 40/82/40
f 27/53/27 28/51/28 40/83/40
f 29/52/29 41/84/41 28/51/28
f 28/51/28 42/85/42 40/83/40
f 42/85/42 28/51/28 41/84/41
f 38/86/38 41/84/41 29/52/29
f 30/54/30 38/86/38 29/52/29
f 38/87/38 30/66/30 32/62/32
f 43/88/43 33/71/33 44/89/44
f 33/71/33 34/70/34 44/89/44
f 43/90/43 35/72/35 33/69/33
f 44/89/44 34/70/34 45/91/45
f 45/91/45 34/70/34 40/82/40
f 43/92/43 44/93/44 35/94/35
f 36/73/36 35/72/35 46/95/46
f 46/96/46 35/94/35 47/97/47
f 48/98/48 47/97/47 35/94/35
f 35/94/35 44/93/44 45/99/45
f 45/99/45 48/98/48 35/94/35
f 36/76/36 49/100/49 37/78/37
f 36/76/36 46/101/46 49/100/49
f 39/80/39 37/77/37 49/102/49
f 38/103/38 39/104/39 50/105/50
f 41/84/41 38/86/38 50/106/50
f 51/107/51 39/80/39 49/102/49
f 50/108/50 39/80/39 51/107/51
f 42/109/42 45/91/45 40/82/40
f 41/84/41 52/110/52 42/85/42
f 41/84/41 50/106/50 52/110/52
f 45/99/45 42/111/42 51/112/51
f 51/112/51 42/111/42 52/113/52
f 53/114/53 45/99/45 51/112/51
f 48/98/48 45/99/45 53/114/53
f 47/97/47 49/115/49 46/96/46
f 53/114/53 49/115/49 47/97/47
f 53/114/53 47/97/47 48/98/48
f 51/107/51 49/102/49 53/116/53
f 50/108/50 51/107/51 52/117/52
