# Blender v3.5.0 OBJ File: ''
# www.blender.org
mtllib distal_phalanx4_rvs.mtl
o distal_phalanx4_rvs
v 0.027774 -0.001602 0.038334
v 0.033001 -0.002728 0.039698
v 0.029128 -0.002314 0.038101
v 0.030404 -0.002455 0.040059
v 0.028115 -0.001485 0.037322
v 0.027815 -0.002649 0.040660
v 0.026399 -0.001847 0.038700
v 0.027011 -0.001385 0.037068
v 0.031568 -0.003687 0.037511
v 0.031125 -0.004003 0.037365
v 0.033252 -0.002621 0.038600
v 0.032762 -0.002821 0.038018
v 0.032408 -0.003094 0.037771
v 0.033299 -0.002643 0.039248
v 0.032369 -0.002995 0.041086
v 0.032897 -0.003258 0.041541
v 0.029302 -0.003846 0.036951
v 0.029317 -0.003482 0.040717
v 0.027290 -0.001945 0.035575
v 0.027416 -0.001569 0.036061
v 0.027508 -0.001310 0.036592
v 0.027412 -0.002974 0.035218
v 0.029051 -0.004501 0.040640
v 0.026424 -0.003002 0.041328
v 0.028694 -0.005289 0.040344
v 0.026109 -0.002156 0.039771
v 0.026409 -0.003258 0.039435
v 0.031452 -0.004259 0.037932
v 0.033045 -0.003280 0.038104
v 0.029109 -0.004483 0.037158
v 0.029662 -0.005070 0.040323
v 0.032863 -0.003660 0.041909
v 0.032486 -0.004188 0.042289
v 0.030934 -0.004395 0.041487
v 0.027484 -0.004542 0.035990
v 0.027509 -0.004156 0.035640
v 0.030349 -0.004684 0.041226
v 0.030457 -0.005079 0.040773
v 0.025959 -0.004847 0.040498
v 0.027127 -0.005864 0.039717
v 0.026200 -0.005578 0.039462
v 0.031821 -0.004226 0.039776
v 0.032093 -0.004249 0.042605
v 0.031028 -0.004940 0.041990
v 0.030798 -0.005200 0.041263
v 0.031479 -0.004855 0.042211
vt 0.742952 0.409030
vt 0.803453 0.000000
vt 0.811001 0.316894
vt 0.651116 0.478632
vt 0.597248 0.236870
vt 0.673209 0.066171
vt 0.663513 0.385985
vt 0.715604 0.487009
vt 0.485829 0.395578
vt 0.582359 0.560241
vt 0.702183 0.571871
vt 0.689440 0.223429
vt 0.667824 0.255690
vt 0.738823 0.083300
vt 0.742952 0.133137
vt 0.730923 0.162715
vt 0.707676 0.060081
vt 0.967149 0.184763
vt 0.574677 0.065088
vt 0.553877 0.012426
vt 0.956770 0.321669
vt 0.788437 0.423327
vt 0.482104 0.282793
vt 0.889021 0.531050
vt 0.845462 0.511712
vt 0.806145 0.491265
vt 0.967149 0.519559
vt 0.742952 0.552745
vt 0.389554 0.937360
vt 0.287203 0.821772
vt 0.340398 0.816718
vt 0.396456 0.468122
vt 0.389554 0.321282
vt 0.506544 0.544850
vt 0.233698 0.841723
vt 0.742957 0.860488
vt 0.742952 0.773093
vt 0.832243 0.854225
vt 0.744842 0.637571
vt 0.899471 0.531050
vt 0.782023 0.506426
vt 0.816432 0.537651
vt 0.780541 0.563035
vt 0.058458 0.236653
vt 0.108699 0.240271
vt 0.073103 0.276586
vt 0.514349 0.743071
vt 0.493927 0.665571
vt 0.493367 0.627596
vt 0.514349 0.571871
vt 0.493367 0.734394
vt 0.456928 0.682997
vt 0.493367 0.571871
vt 0.040669 0.114817
vt 0.130952 0.416584
vt 0.089193 0.398118
vt 0.330478 0.269265
vt 0.398941 0.874870
vt 0.389554 0.826823
vt 0.456928 0.899637
vt 0.000000 0.602771
vt 0.018386 0.565589
vt 0.018386 0.784124
vt 0.061301 0.565589
vt 0.061301 0.832082
vt 0.034245 0.615080
vt 0.456928 0.571871
vt 0.514409 0.000000
vt 0.458277 0.009781
vt 0.442998 0.139600
vt 0.104532 0.562182
vt 0.068019 0.565589
vt 0.000000 0.559952
vt 0.425852 0.294536
vt 0.978625 0.583802
vt 1.000000 0.617093
vt 0.424365 0.185414
vt 0.236370 0.776807
vt 0.255772 0.710137
vt 0.302029 0.713683
vt 0.233698 0.820636
vt 0.123909 0.737389
vt 0.233698 0.565589
vt 0.924913 0.969326
vt 0.777411 0.984625
vt 0.365101 0.331318
vt 0.112378 0.606402
vt 0.389554 0.463950
vt 1.000000 0.906216
vt 0.209463 0.142595
vt 0.342858 0.000000
vt 0.337499 0.203882
vt 0.374454 0.012027
vt 0.534696 0.571871
vt 0.534696 0.675288
vt 0.514349 0.578378
vt 0.393208 0.112955
vt 0.387196 0.522576
vt 0.275176 0.673095
vt 0.327859 0.644440
vt 0.362936 0.166601
vt 0.061301 0.662916
vt 0.389554 0.079219
vt 0.341400 0.608762
vt 0.389554 0.565589
vn 0.3109 0.7725 -0.5538
vn 0.1370 0.9549 0.2633
vn 0.4841 0.8356 0.2597
vn 0.0268 0.9117 0.4099
vn -0.0529 0.9103 0.4107
vn -0.1104 0.9664 0.2322
vn 0.0587 0.9892 0.1342
vn -0.5870 0.8091 0.0298
vn -0.3810 0.9246 0.0030
vn -0.6303 0.7750 0.0468
vn -0.2061 0.9773 0.0481
vn 0.3396 0.6832 -0.6465
vn -0.5816 0.8131 0.0245
vn 0.1351 0.9598 0.2461
vn 0.1543 0.9472 0.2811
vn 0.2228 0.9335 0.2810
vn 0.7460 0.4519 -0.4892
vn 0.2259 0.6011 -0.7666
vn -0.1934 0.6662 0.7203
vn 0.1808 0.3878 0.9039
vn 0.8130 0.3393 -0.4733
vn 0.6747 0.6105 -0.4147
vn 0.8441 0.2623 -0.4677
vn 0.7084 0.4425 -0.5499
vn 0.0429 0.9791 0.1990
vn -0.0695 -0.0571 0.9959
vn 0.4257 0.0335 0.9042
vn 0.1149 0.9457 0.3040
vn 0.0057 0.8791 0.4765
vn -0.3026 -0.2120 0.9293
vn -0.9393 -0.1638 -0.3016
vn -0.9399 0.1302 -0.3156
vn -0.9625 -0.1307 -0.2377
vn -0.4421 0.8340 -0.3302
vn -0.9850 -0.0608 -0.1613
vn -0.6177 0.6914 -0.3748
vn 0.5888 -0.5532 -0.5893
vn 0.5419 -0.8288 0.1393
vn 0.6399 -0.7096 -0.2949
vn 0.1726 0.5571 -0.8123
vn 0.4356 -0.5892 -0.6805
vn 0.1783 -0.3525 -0.9187
vn 0.2472 -0.9441 -0.2183
vn -0.0784 -0.9248 -0.3723
vn 0.9665 -0.2446 -0.0784
vn 0.9754 0.0981 0.1973
vn 0.7672 -0.6309 -0.1154
vn 0.9082 -0.4174 0.0308
vn -0.2719 0.6622 0.6983
vn -0.2468 0.6760 0.6944
vn -0.4232 0.6224 0.6584
vn -0.1760 0.4336 0.8838
vn 0.5436 -0.4038 -0.7358
vn 0.5428 -0.5832 -0.6044
vn 0.6002 -0.2248 -0.7676
vn -0.4117 0.0387 0.9105
vn -0.9522 -0.1690 -0.2544
vn -0.9576 -0.1615 -0.2386
vn -0.4106 0.0076 0.9118
vn 0.1086 -0.3923 0.9134
vn -0.3509 -0.7142 0.6056
vn -0.3592 -0.7441 0.5632
vn -0.0144 -0.4072 0.9132
vn -0.9664 0.2557 -0.0269
vn -0.9604 -0.2751 0.0448
vn 0.2111 -0.9538 -0.2138
vn -0.0629 -0.6523 0.7554
vn 0.4002 -0.8995 -0.1754
vn -0.9562 0.0829 -0.2809
vn -0.9425 0.0811 -0.3243
vn 0.3517 -0.9346 -0.0537
vn 0.5285 -0.8441 -0.0907
vn 0.5000 -0.8578 -0.1193
vn 0.2506 -0.9197 -0.3022
vn 0.2327 -0.8730 -0.4286
vn 0.1367 -0.9904 -0.0212
vn -0.3846 0.8692 -0.3106
vn -0.4363 0.5685 0.6975
vn -0.5483 0.5142 0.6596
vn -0.1890 -0.9196 -0.3443
vn -0.7185 -0.6000 0.3519
vn -0.6972 -0.5761 0.4266
vn 0.2595 -0.8800 -0.3979
vn -0.3760 -0.7961 0.4742
vn 0.5821 -0.8034 -0.1258
vn 0.7245 -0.6852 -0.0752
vn -0.4075 -0.1704 0.8972
vn 0.0148 -0.9430 0.3326
usemtl Material_with_Texture.074
s off
f 1/1/1 2/2/1 3/3/1
f 1/4/2 4/5/2 2/6/2
f 3/7/3 5/8/3 1/4/3
f 6/9/4 4/5/4 1/4/4
f 1/4/5 7/10/5 6/9/5
f 7/10/6 1/4/6 8/11/6
f 1/4/7 5/8/7 8/11/7
f 9/12/8 10/13/8 2/6/8
f 2/6/9 11/14/9 12/15/9
f 2/6/10 12/15/10 13/16/10
f 14/17/11 11/14/11 2/6/11
f 3/3/12 2/2/12 10/18/12
f 13/16/13 9/12/13 2/6/13
f 4/5/14 15/19/14 2/6/14
f 16/20/15 14/17/15 2/6/15
f 2/6/16 15/19/16 16/20/16
f 17/21/17 5/22/17 3/3/17
f 3/3/18 10/18/18 17/21/18
f 15/19/19 4/5/19 18/23/19
f 6/9/20 18/23/20 4/5/20
f 19/24/21 20/25/21 5/22/21
f 20/25/22 21/26/22 5/22/22
f 19/24/23 5/22/23 22/27/23
f 17/21/24 22/27/24 5/22/24
f 8/11/25 5/8/25 21/28/25
f 6/29/26 23/30/26 18/31/26
f 24/32/27 25/33/27 6/9/27
f 7/10/28 26/34/28 6/9/28
f 24/32/29 6/9/29 26/34/29
f 23/30/30 6/29/30 25/35/30
f 26/36/31 7/37/31 27/38/31
f 8/39/32 22/40/32 7/37/32
f 27/38/33 7/37/33 22/40/33
f 8/41/34 21/26/34 20/25/34
f 22/40/35 8/39/35 19/42/35
f 19/42/36 8/39/36 20/43/36
f 9/44/37 28/45/37 10/46/37
f 9/47/38 13/48/38 12/49/38
f 11/50/39 9/47/39 12/49/39
f 11/51/40 29/52/40 9/53/40
f 28/45/41 9/44/41 29/54/41
f 30/55/42 17/56/42 10/46/42
f 31/57/43 30/55/43 10/46/43
f 31/57/44 10/46/44 28/45/44
f 11/58/45 14/59/45 29/60/45
f 16/61/46 32/62/46 14/63/46
f 33/64/47 14/65/47 32/66/47
f 14/59/48 33/67/48 29/60/48
f 32/68/49 16/20/49 15/19/49
f 33/69/50 32/68/50 15/19/50
f 33/69/51 15/19/51 34/70/51
f 15/19/52 18/23/52 34/70/52
f 30/55/53 35/71/53 17/56/53
f 35/71/54 36/72/54 17/56/54
f 22/73/55 17/56/55 36/72/55
f 34/70/56 18/23/56 23/74/56
f 22/40/57 36/75/57 35/76/57
f 27/38/58 22/40/58 35/76/58
f 34/70/59 23/74/59 37/77/59
f 25/35/60 31/78/60 23/30/60
f 23/30/61 31/78/61 38/79/61
f 37/80/62 23/30/62 38/79/62
f 24/81/63 39/82/63 25/83/63
f 39/84/64 24/85/64 27/38/64
f 24/85/65 26/36/65 27/38/65
f 25/86/66 30/55/66 31/57/66
f 39/82/67 40/87/67 25/83/67
f 25/86/68 40/88/68 30/55/68
f 27/38/69 41/89/69 39/84/69
f 27/38/70 35/76/70 41/89/70
f 28/45/71 42/90/71 31/57/71
f 29/54/72 42/90/72 28/45/72
f 42/90/73 29/54/73 33/91/73
f 30/55/74 40/88/74 35/71/74
f 42/90/75 38/92/75 31/57/75
f 43/93/76 42/90/76 33/91/76
f 33/94/77 44/95/77 43/96/77
f 34/70/78 44/97/78 33/69/78
f 37/77/79 44/97/79 34/70/79
f 40/88/80 41/98/80 35/71/80
f 37/80/81 38/79/81 45/99/81
f 44/100/82 37/80/82 45/99/82
f 42/90/83 45/101/83 38/92/83
f 39/82/84 41/102/84 40/87/84
f 46/103/85 45/101/85 42/90/85
f 46/103/86 42/90/86 43/93/86
f 44/100/87 46/104/87 43/105/87
f 46/104/88 44/100/88 45/99/88
