# Blender 4.3.0
# www.blender.org
mtllib distal_phalanx1_lvs.mtl
o distal_phalanx1_lvs
v 0.062665 -0.003389 0.019254
v 0.065056 -0.002941 0.017001
v 0.056696 -0.001421 0.019612
v 0.058424 -0.003212 0.021992
v 0.065300 -0.004616 0.019096
v 0.062563 -0.006126 0.021242
v 0.064144 -0.006968 0.020812
v 0.063285 -0.002607 0.016628
v 0.068010 -0.002665 0.015635
v 0.056924 -0.002611 0.012808
v 0.053353 -0.001662 0.011500
v 0.050244 -0.000074 0.015073
v 0.053043 -0.000066 0.021397
v 0.052751 -0.001115 0.025903
v 0.058589 -0.005154 0.022968
v 0.056744 -0.005197 0.024229
v 0.054077 -0.005485 0.026735
v 0.068001 -0.004920 0.019380
v 0.067247 -0.006377 0.019605
v 0.062159 -0.007091 0.020463
v 0.058872 -0.007052 0.022252
v 0.063055 -0.007363 0.013204
v 0.065876 -0.007758 0.020195
v 0.066325 -0.007289 0.020345
v 0.064102 -0.003966 0.012931
v 0.067684 -0.003636 0.013705
v 0.073076 -0.003784 0.014165
v 0.069744 -0.005020 0.020018
v 0.073394 -0.003859 0.016272
v 0.056313 -0.006910 0.011086
v 0.059606 -0.004654 0.012190
v 0.051970 -0.001442 0.011624
v 0.052411 -0.002250 0.011015
v 0.052290 -0.005748 0.010472
v 0.052434 -0.004594 0.019246
v 0.051439 -0.000654 0.023975
v 0.051519 -0.003668 0.026970
v 0.056566 -0.006641 0.024060
v 0.055194 -0.006760 0.025955
v 0.053686 -0.006554 0.026758
v 0.068144 -0.007022 0.020799
v 0.067844 -0.006888 0.020325
v 0.069132 -0.006775 0.020829
v 0.067148 -0.007019 0.020180
v 0.056892 -0.007803 0.020839
v 0.063338 -0.005438 0.012346
v 0.064971 -0.007200 0.012520
v 0.059868 -0.007680 0.013082
v 0.070040 -0.007529 0.020151
v 0.068199 -0.007694 0.020019
v 0.072173 -0.007676 0.017811
v 0.067360 -0.007683 0.020299
v 0.070032 -0.005748 0.011557
v 0.074493 -0.005370 0.013537
v 0.075159 -0.005510 0.016184
v 0.072172 -0.006979 0.019626
v 0.074923 -0.005682 0.017219
v 0.051854 -0.007199 0.011074
v 0.059936 -0.006829 0.012341
v 0.054240 -0.008662 0.011096
v 0.051845 -0.006568 0.011855
v 0.052041 -0.006627 0.012708
v 0.052396 -0.006493 0.014910
v 0.051690 -0.007248 0.011721
v 0.052354 -0.006813 0.019337
v 0.052378 -0.006490 0.016804
v 0.052263 -0.006440 0.018044
v 0.051225 -0.006904 0.023889
v 0.051913 -0.007833 0.021824
v 0.051216 -0.006358 0.026136
v 0.051812 -0.006224 0.027127
v 0.052024 -0.009502 0.024042
v 0.051932 -0.008103 0.026291
v 0.053418 -0.009872 0.017250
v 0.054177 -0.009771 0.012666
v 0.073330 -0.006781 0.013564
v 0.074779 -0.006377 0.016533
v 0.052496 -0.007797 0.012452
v 0.052636 -0.008718 0.011463
v 0.052716 -0.009088 0.012320
v 0.052650 -0.007190 0.012572
v 0.053273 -0.006802 0.014630
v 0.053241 -0.006886 0.013964
v 0.052905 -0.006835 0.016285
v 0.052777 -0.007588 0.016346
v 0.052016 -0.007000 0.017868
v 0.051968 -0.007974 0.019654
v 0.051354 -0.008741 0.021859
v 0.051172 -0.008949 0.023458
v 0.050580 -0.007185 0.024700
v 0.051227 -0.009111 0.018237
v 0.051924 -0.009630 0.022291
v 0.051317 -0.009055 0.024271
v 0.052791 -0.009380 0.014772
v 0.051465 -0.009813 0.018449
v 0.051713 -0.009723 0.017296
v 0.052726 -0.009754 0.016012
v 0.053134 -0.009645 0.013165
v 0.052569 -0.008464 0.014611
v 0.052040 -0.008658 0.016673
v 0.051398 -0.009055 0.017355
v 0.051626 -0.007861 0.017904
v 0.051642 -0.009468 0.021740
vn 0.3656 0.7007 0.6126
vn 0.1989 0.8644 0.4617
vn 0.3279 0.9408 0.0859
vn 0.4829 0.6477 0.5892
vn 0.2133 0.6315 0.7454
vn 0.3928 -0.0178 0.9194
vn 0.1168 -0.4365 0.8921
vn 0.0990 0.9951 0.0003
vn 0.0957 0.9952 0.0181
vn 0.2534 0.7589 -0.5999
vn 0.2921 0.6954 -0.6566
vn -0.7723 0.5775 -0.2647
vn 0.1463 0.9845 0.0967
vn 0.0609 0.7199 0.6914
vn 0.5042 0.1229 0.8548
vn 0.6619 0.0915 0.7440
vn 0.4145 0.1061 0.9038
vn -0.1696 0.6570 0.7346
vn -0.1710 0.4638 0.8692
vn 0.1379 -0.9201 0.3666
vn 0.2984 -0.7154 0.6317
vn -0.0188 -0.8617 -0.5071
vn -0.0668 -0.8719 0.4851
vn 0.1080 0.0979 0.9893
vn 0.1745 0.5242 -0.8335
vn -0.0101 0.7448 -0.6672
vn 0.3861 0.8372 -0.3872
vn 0.1127 0.6363 0.7631
vn 0.4526 0.8563 0.2489
vn 0.2645 -0.1075 -0.9584
vn 0.1202 0.2270 -0.9665
vn -0.5539 0.5377 -0.6356
vn -0.4391 0.1709 -0.8821
vn -0.4731 0.0029 -0.8810
vn -0.9899 -0.1237 -0.0689
vn -0.7155 0.6683 0.2035
vn -0.5476 0.2342 0.8033
vn 0.5989 -0.5605 0.5720
vn 0.6084 -0.4694 0.6400
vn 0.2759 -0.2965 0.9143
vn -0.4396 -0.1813 0.8797
vn -0.5692 0.1421 0.8098
vn 0.0893 -0.0041 0.9960
vn -0.1090 0.4609 0.8807
vn 0.3026 -0.9302 0.2078
vn 0.1145 0.0144 -0.9933
vn 0.0173 -0.6059 -0.7954
vn 0.2610 -0.8779 -0.4015
vn 0.1846 -0.8277 0.5300
vn 0.0270 -0.9384 0.3444
vn 0.2713 -0.9601 0.0677
vn 0.0737 -0.6100 0.7889
vn 0.0970 -0.1321 -0.9865
vn 0.7928 0.1002 -0.6012
vn 0.9837 0.1794 -0.0109
vn 0.5579 -0.3237 0.7642
vn 0.8340 0.1166 0.5394
vn -0.7253 -0.2723 -0.6323
vn 0.2437 -0.4084 -0.8797
vn 0.0656 -0.5256 -0.8482
vn -0.9850 0.0531 0.1639
vn -0.8929 -0.3902 0.2245
vn -0.8342 -0.5507 0.0277
vn -0.9188 -0.3607 0.1604
vn -0.8631 0.4949 0.1001
vn -0.9759 -0.1850 -0.1156
vn -0.9773 0.2003 -0.0683
vn -0.9305 0.1923 -0.3119
vn -0.9221 0.3052 -0.2380
vn -0.9394 -0.0659 0.3365
vn -0.3638 -0.1637 0.9170
vn -0.0037 -0.9483 0.3173
vn -0.2303 -0.6638 0.7116
vn 0.1643 -0.9860 0.0278
vn 0.0607 -0.9524 -0.2988
vn 0.3437 -0.7961 -0.4981
vn 0.7359 -0.6736 0.0680
vn -0.9395 -0.0603 0.3372
vn -0.4892 -0.6703 -0.5579
vn -0.7084 -0.6671 -0.2305
vn -0.8245 -0.2474 0.5090
vn -0.9099 -0.4136 -0.0319
vn -0.9154 -0.3473 0.2034
vn -0.8570 -0.3624 -0.3665
vn -0.8989 0.3441 -0.2713
vn -0.8764 0.4268 -0.2230
vn -0.9242 0.3820 -0.0020
vn -0.9904 0.0507 -0.1284
vn -0.9061 -0.4190 -0.0590
vn -0.9834 0.1816 -0.0071
vn -0.9869 0.1270 -0.0993
vn -0.2826 -0.9562 0.0764
vn -0.6833 -0.6702 0.2898
vn -0.7455 -0.6610 -0.0856
vn -0.6072 -0.7943 -0.0203
vn -0.5877 -0.7195 -0.3699
vn -0.3340 -0.8790 -0.3404
vn -0.4080 -0.9092 -0.0827
vn -0.9954 0.0568 -0.0770
vn -0.8675 0.1266 -0.4811
vn -0.9094 -0.0039 -0.4159
vn -0.9429 0.3135 -0.1129
vn -0.7971 -0.6014 0.0544
vt 0.619012 0.297291
vt 0.589237 0.365747
vt 0.582068 0.153622
vt 0.645720 0.181346
vt 0.743370 0.710407
vt 0.776195 0.769932
vt 0.730785 0.782941
vt 0.813117 0.689922
vt 0.739465 0.592821
vt 0.834463 0.728370
vt 0.567062 0.327925
vt 0.725427 0.860568
vt 0.583536 0.440568
vt 0.429563 0.216549
vt 0.373002 0.143380
vt 0.430536 0.039872
vt 0.594734 0.052918
vt 0.690809 0.016173
vt 0.788219 0.587220
vt 0.789541 0.535411
vt 0.798545 0.454689
vt 0.690809 0.434561
vt 0.634587 0.362283
vt 0.662466 0.421271
vt 0.822284 0.808190
vt 0.788386 0.827795
vt 0.140329 0.306422
vt 0.127725 0.268822
vt 0.146997 0.258784
vt 0.831801 0.598396
vt 0.101354 0.181987
vt 0.321126 0.273600
vt 0.157469 0.347436
vt 0.854338 0.771787
vt 0.844320 0.780856
vt 0.488424 0.380599
vt 0.535773 0.452538
vt 0.589980 0.569111
vt 0.690809 0.455396
vt 0.639486 0.560179
vt 0.249836 0.681697
vt 0.364221 0.597044
vt 0.353617 0.688480
vt 0.345226 0.860955
vt 0.314101 0.755415
vt 0.364875 0.110809
vt 0.364875 0.564508
vt 0.347184 0.575127
vt 0.264028 0.581649
vt 0.744709 0.008956
vt 0.791310 0.207774
vt 0.690809 0.100275
vt 0.637936 0.000000
vt 0.725283 0.021945
vt 0.693289 0.314479
vt 0.700608 0.362606
vt 0.761650 0.389465
vt 0.752063 0.396593
vt 0.823036 0.531983
vt 0.828523 0.485422
vt 0.823310 0.445118
vt 0.122716 0.567268
vt 0.122716 0.627803
vt 0.114670 0.576242
vt 0.144240 0.726874
vt 0.194985 0.730689
vt 0.143702 0.749262
vt 0.182799 0.698653
vt 0.106328 0.595917
vt 0.838803 0.800800
vt 0.837169 0.815235
vt 0.134083 0.133698
vt 0.055729 0.128493
vt 0.261454 0.848626
vt 0.307863 0.845697
vt 0.271582 0.890231
vt 0.321516 0.197555
vt 0.162012 0.446667
vt 0.163684 0.402677
vt 0.219869 0.495461
vt 0.338974 0.318633
vt 0.243451 0.774788
vt 0.855171 0.804155
vt 0.156243 0.382913
vt 0.364875 0.946448
vt 0.502742 0.530452
vt 0.322539 1.000000
vt 0.016049 0.666824
vt 0.063926 0.564508
vt 0.063926 0.658139
vt 0.648617 0.607210
vt 0.584331 0.612324
vt 0.124949 0.651109
vt 0.143475 0.564508
vt 0.194985 0.581484
vt 0.669440 0.594725
vt 0.228310 0.578488
vt 0.263759 0.770786
vt 0.201573 0.639050
vt 0.847290 0.033339
vt 0.828793 0.000000
vt 0.847516 0.053971
vt 0.841451 0.106705
vt 0.863818 0.030753
vt 0.863187 0.015495
vt 0.844166 0.212458
vt 0.839279 0.151784
vt 0.836832 0.181110
vt 0.842532 0.319537
vt 0.866188 0.272330
vt 0.827018 0.372393
vt 0.822033 0.396593
vt 0.813474 0.400322
vt 0.055237 0.021042
vt 0.000000 0.020452
vt 0.009458 0.097534
vt 0.856042 0.408864
vt 0.098446 0.564508
vt 0.122716 0.704595
vt 0.144299 0.401861
vt 0.856042 0.825249
vt 0.218791 0.048199
vt 0.364875 0.438026
vt 0.328624 0.062076
vt 0.364875 0.061780
vt 0.175836 0.496874
vt 0.321149 0.518884
vt 0.251239 0.556043
vt 0.000000 0.626449
vt 0.321278 0.546148
vt 0.258940 0.564508
vt 0.398928 0.623858
vt 0.407938 0.612324
vt 0.407938 0.636324
vt 0.234248 0.559881
vt 0.388633 0.612324
vt 0.388633 0.648105
vt 0.378441 0.624480
vt 0.194985 0.603177
vt 0.898044 0.027546
vt 0.905808 0.048494
vt 0.875155 0.049834
vt 0.334800 0.026680
vt 0.354746 0.023866
vt 0.860383 0.052171
vt 0.089333 0.662660
vt 0.091840 0.683331
vt 0.074260 0.664911
vt 0.086584 0.609384
vt 0.064904 0.614096
vt 0.063926 0.630062
vt 0.077841 0.575825
vt 0.091840 0.564508
vt 0.091840 0.593689
vt 0.096474 0.564508
vt 0.096474 0.649041
vt 0.865494 0.142680
vt 0.847476 0.140501
vt 0.850654 0.177265
vt 0.871914 0.220888
vt 0.888422 0.273525
vt 0.891796 0.311619
vt 0.849058 0.338363
vt 0.364875 0.648873
vt 0.378441 0.612324
vt 0.378441 0.667306
vt 0.901438 0.187542
vt 0.867597 0.379054
vt 0.097025 0.017094
vt 0.048648 0.004239
vt 0.893245 0.331290
vt 0.276747 0.030810
vt 0.188390 0.002683
vt 0.215995 0.007515
vt 0.247546 0.030517
vt 0.315652 0.037608
vt 0.850904 0.085714
vt 0.888545 0.102131
vt 0.909933 0.107328
vt 0.917652 0.069806
vt 0.848120 0.101516
vt 0.891465 0.150794
vt 0.900895 0.166689
vt 0.871573 0.178643
vt 0.905545 0.271915
vt 0.067778 0.000000
vt 0.109725 0.009808
vt 0.917652 0.193722
vt 0.917529 0.137218
vt 0.916515 0.166472
vt 0.398928 0.638614
vt 0.388633 0.624521
vt 0.398928 0.612324
s 1
usemtl Material_with_Texture.067
f 1/1/1 2/2/2 3/3/3
f 4/4/4 1/1/1 3/3/3
f 1/5/1 5/6/5 2/7/2
f 6/8/6 1/5/1 4/9/4
f 1/5/1 7/10/7 5/6/5
f 1/5/1 6/8/6 7/10/7
f 2/2/2 8/11/8 3/3/3
f 2/7/2 5/6/5 9/12/9
f 2/2/2 9/13/9 8/11/8
f 10/14/10 11/15/11 3/3/3
f 10/14/10 3/3/3 8/11/8
f 3/3/3 11/15/11 12/16/12
f 3/3/3 13/17/13 14/18/14
f 3/3/3 14/18/14 4/4/4
f 3/3/3 12/16/12 13/17/13
f 15/19/15 4/9/4 16/20/16
f 17/21/17 4/9/4 14/22/14
f 16/20/16 4/9/4 17/21/17
f 4/9/4 15/19/15 6/8/6
f 5/23/5 18/24/18 9/13/9
f 19/25/19 18/26/18 5/6/5
f 5/6/5 7/10/7 19/25/19
f 7/27/7 6/28/6 20/29/20
f 21/30/21 6/8/6 15/19/15
f 6/28/6 21/31/21 20/29/20
f 20/29/20 22/32/22 7/27/7
f 7/27/7 22/32/22 23/33/23
f 7/10/7 23/34/23 24/35/24
f 7/10/7 24/35/24 19/25/19
f 10/14/10 8/11/8 9/13/9
f 9/13/9 25/36/25 10/14/10
f 26/37/26 9/13/9 27/38/27
f 9/13/9 18/24/18 28/39/28
f 29/40/29 9/13/9 28/39/28
f 25/36/25 9/13/9 26/37/26
f 27/38/27 9/13/9 29/40/29
f 30/41/30 11/42/11 10/43/10
f 10/43/10 25/44/25 31/45/31
f 30/41/30 10/43/10 31/45/31
f 12/16/12 11/15/11 32/46/32
f 32/47/32 11/42/11 33/48/33
f 34/49/34 33/48/33 11/42/11
f 30/41/30 34/49/34 11/42/11
f 33/50/33 35/51/35 12/52/12
f 36/53/36 13/17/13 12/16/12
f 12/52/12 32/54/32 33/50/33
f 36/55/36 12/52/12 35/51/35
f 36/53/36 14/18/14 13/17/13
f 14/56/14 36/55/36 37/57/37
f 37/58/37 17/21/17 14/22/14
f 21/30/21 15/19/15 16/20/16
f 21/30/21 16/20/16 38/59/38
f 39/60/39 16/20/16 17/21/17
f 39/60/39 38/59/38 16/20/16
f 17/21/17 40/61/40 39/60/39
f 40/61/40 17/21/17 37/58/37
f 41/62/41 18/63/18 42/64/42
f 43/65/43 18/66/18 41/67/41
f 43/65/43 28/68/28 18/66/18
f 42/64/42 18/63/18 19/69/19
f 19/25/19 24/35/24 44/70/44
f 44/70/44 42/71/42 19/25/19
f 21/31/21 45/72/45 20/29/20
f 20/29/20 45/72/45 22/32/22
f 45/72/45 21/31/21 38/73/38
f 22/74/22 46/75/46 47/76/47
f 22/32/22 45/72/45 48/77/48
f 49/78/49 50/79/50 22/32/22
f 51/80/51 49/78/49 22/32/22
f 50/79/50 23/33/23 22/32/22
f 51/80/51 22/32/22 47/81/47
f 22/74/22 48/82/48 46/75/46
f 24/35/24 23/34/23 52/83/52
f 23/33/23 50/79/50 52/84/52
f 44/70/44 24/35/24 52/83/52
f 46/75/46 31/45/31 25/44/25
f 47/76/47 25/44/25 26/85/26
f 25/44/25 47/76/47 46/75/46
f 53/86/53 26/37/26 27/38/27
f 47/76/47 26/85/26 53/87/53
f 54/88/54 53/89/53 27/90/27
f 55/91/55 54/92/54 27/38/27
f 29/40/29 55/91/55 27/38/27
f 56/93/56 28/68/28 43/65/43
f 28/68/28 57/94/57 29/95/29
f 28/68/28 56/93/56 57/94/57
f 55/91/55 29/40/29 57/96/57
f 34/49/34 30/41/30 58/97/58
f 31/45/31 59/98/59 30/41/30
f 30/41/30 48/82/48 60/99/60
f 48/82/48 30/41/30 59/98/59
f 30/41/30 60/99/60 58/97/58
f 46/75/46 59/98/59 31/45/31
f 61/100/61 33/50/33 34/101/34
f 62/102/62 33/50/33 61/100/61
f 33/50/33 62/102/62 63/103/63
f 33/50/33 63/103/63 35/51/35
f 34/101/34 64/104/64 61/100/61
f 64/104/64 34/101/34 58/105/58
f 36/55/36 35/51/35 65/106/65
f 63/103/63 66/107/66 35/51/35
f 67/108/67 35/51/35 66/107/66
f 35/51/35 67/108/67 65/106/65
f 68/109/68 36/55/36 69/110/69
f 70/111/70 36/55/36 68/109/68
f 70/111/70 37/57/37 36/55/36
f 69/110/69 36/55/36 65/106/65
f 70/111/70 71/112/71 37/57/37
f 40/61/40 37/58/37 71/113/71
f 38/73/38 72/114/72 45/72/45
f 73/115/73 38/73/38 39/116/39
f 73/115/73 72/114/72 38/73/38
f 40/61/40 73/117/73 39/60/39
f 71/113/71 73/117/73 40/61/40
f 41/62/41 42/64/42 50/118/50
f 49/119/49 43/65/43 41/67/41
f 49/78/49 41/120/41 50/79/50
f 44/70/44 52/83/52 42/71/42
f 50/121/50 42/71/42 52/83/52
f 49/119/49 56/93/56 43/65/43
f 48/77/48 45/72/45 74/122/74
f 74/122/74 45/72/45 72/114/72
f 48/82/48 59/98/59 46/75/46
f 53/123/53 51/80/51 47/81/47
f 48/77/48 75/124/75 60/125/60
f 74/122/74 75/124/75 48/77/48
f 51/80/51 56/126/56 49/78/49
f 76/127/76 51/80/51 53/123/53
f 56/126/56 51/80/51 77/128/77
f 76/127/76 77/128/77 51/80/51
f 53/89/53 54/88/54 76/129/76
f 77/128/77 54/130/54 55/131/55
f 54/130/54 77/128/77 76/127/76
f 57/132/57 77/133/77 55/134/55
f 77/128/77 57/135/57 56/126/56
f 58/136/58 78/137/78 64/138/64
f 58/97/58 60/99/60 79/139/79
f 58/105/58 79/140/79 80/141/80
f 78/142/78 58/105/58 80/141/80
f 60/125/60 80/143/80 79/144/79
f 60/125/60 75/124/75 80/143/80
f 64/104/64 81/145/81 61/100/61
f 62/146/62 61/147/61 81/148/81
f 63/149/63 62/146/62 82/150/82
f 81/148/81 83/151/83 62/146/62
f 82/150/82 62/146/62 83/151/83
f 82/150/82 84/152/84 63/149/63
f 63/149/63 84/152/84 66/153/66
f 64/104/64 78/142/78 81/145/81
f 65/154/65 67/155/67 69/156/69
f 67/108/67 66/107/66 85/157/85
f 84/158/84 85/157/85 66/107/66
f 67/108/67 85/157/85 86/159/86
f 69/110/69 67/108/67 87/160/87
f 67/108/67 86/159/86 87/160/87
f 88/161/88 68/109/68 69/110/69
f 89/162/89 68/109/68 88/161/88
f 89/162/89 90/163/90 68/109/68
f 90/164/90 70/165/70 68/166/68
f 69/110/69 91/167/91 88/161/88
f 69/110/69 87/160/87 91/167/91
f 70/111/70 73/168/73 71/112/71
f 90/163/90 73/168/73 70/111/70
f 74/122/74 72/114/72 92/169/92
f 72/114/72 93/170/93 92/169/92
f 93/170/93 72/114/72 73/115/73
f 93/171/93 73/168/73 90/163/90
f 74/122/74 94/172/94 75/124/75
f 95/173/95 96/174/96 74/122/74
f 74/122/74 97/175/97 94/172/94
f 74/122/74 96/174/96 97/175/97
f 74/122/74 92/169/92 95/173/95
f 75/124/75 98/176/98 80/143/80
f 98/176/98 75/124/75 94/172/94
f 81/145/81 78/142/78 83/177/83
f 83/177/83 78/142/78 99/178/99
f 80/141/80 99/178/99 78/142/78
f 94/179/94 80/141/80 98/180/98
f 99/178/99 80/141/80 94/179/94
f 82/181/82 83/177/83 99/178/99
f 84/158/84 82/181/82 85/157/85
f 82/181/82 99/178/99 100/182/100
f 85/157/85 82/181/82 100/182/100
f 85/157/85 100/182/100 101/183/101
f 101/183/101 102/184/102 85/157/85
f 86/159/86 85/157/85 102/184/102
f 87/160/87 86/159/86 102/184/102
f 91/167/91 87/160/87 101/183/101
f 101/183/101 87/160/87 102/184/102
f 103/185/103 88/161/88 91/167/91
f 88/161/88 103/185/103 89/162/89
f 93/171/93 90/163/90 89/162/89
f 92/169/92 89/186/89 103/187/103
f 92/169/92 93/170/93 89/186/89
f 95/188/95 91/167/91 101/183/101
f 95/188/95 103/185/103 91/167/91
f 92/169/92 103/187/103 95/173/95
f 99/178/99 94/179/94 97/189/97
f 96/190/96 95/188/95 101/183/101
f 100/182/100 97/189/97 96/190/96
f 96/191/96 101/192/101 100/193/100
f 99/178/99 97/189/97 100/182/100
