# Blender v3.5.0 OBJ File: ''
# www.blender.org
mtllib fibula_l.mtl
o fibula_l
v -0.000350 -0.424433 -0.024976
v -0.004000 -0.431823 -0.024600
v -0.004000 -0.425441 -0.030000
v 0.002676 -0.417044 -0.027831
v 0.001713 -0.415363 -0.022137
v 0.008839 -0.408645 -0.025828
v -0.006222 -0.430480 -0.026942
v -0.004000 -0.422082 -0.024060
v 0.002676 -0.417044 -0.032169
v 0.001476 -0.419899 -0.037536
v -0.004000 -0.422753 -0.041610
v -0.008047 -0.425945 -0.035570
v -0.006055 -0.429136 -0.030668
v -0.006055 -0.429136 -0.029332
v 0.008839 -0.408645 -0.034171
v 0.001237 -0.404111 -0.022792
v 0.003447 -0.397560 -0.027580
v 0.003447 -0.397560 -0.032420
v -0.008285 -0.420571 -0.024102
v -0.004000 -0.410660 -0.020010
v 0.004094 -0.409821 -0.041140
v -0.004000 -0.410996 -0.044040
v -0.010665 -0.415029 -0.039175
v -0.012217 -0.419059 -0.032670
v -0.012217 -0.419059 -0.027330
v -0.000270 -0.394706 -0.035134
v 0.000126 -0.387819 -0.024321
v 0.002162 -0.383116 -0.027997
v 0.002162 -0.383116 -0.032002
v -0.000509 -0.370015 -0.034805
v -0.011221 -0.411500 -0.020061
v -0.004000 -0.392520 -0.022440
v -0.004000 -0.391850 -0.034860
v -0.009713 -0.402096 -0.037863
v -0.017866 -0.412340 -0.034505
v -0.017866 -0.412340 -0.025495
v -0.004000 -0.356915 -0.035400
v -0.000826 -0.365481 -0.025631
v 0.000879 -0.348518 -0.028414
v 0.000879 -0.348518 -0.031586
v -0.000985 -0.301996 -0.034150
v -0.004000 -0.255471 -0.035130
v -0.010745 -0.398736 -0.020716
v -0.004000 -0.382444 -0.024330
v -0.010110 -0.380934 -0.038410
v -0.018637 -0.404950 -0.034756
v -0.018637 -0.404950 -0.025244
v -0.008285 -0.328532 -0.035898
v 0.000840 -0.301155 -0.023337
v 0.003190 -0.279321 -0.027664
v 0.003190 -0.279321 -0.032336
v -0.000905 -0.218354 -0.034260
v -0.004000 -0.157387 -0.032970
v -0.006460 -0.269580 -0.033386
v -0.008443 -0.392018 -0.023884
v -0.004000 -0.322989 -0.021090
v -0.012987 -0.401592 -0.032921
v -0.012987 -0.401592 -0.027079
v -0.009135 -0.381773 -0.031669
v 0.001555 -0.226584 -0.022354
v 0.004474 -0.197696 -0.027247
v 0.004474 -0.197696 -0.032753
v 0.000364 -0.160746 -0.036007
v -0.004000 -0.123797 -0.035940
v -0.006777 -0.219362 -0.033822
v -0.007338 -0.314928 -0.031084
v -0.008206 -0.352382 -0.024211
v -0.004000 -0.255471 -0.020010
v -0.009135 -0.381773 -0.028331
v -0.007338 -0.314928 -0.028916
v 0.001237 -0.176366 -0.022792
v 0.003447 -0.147310 -0.027580
v 0.003447 -0.147310 -0.032420
v 0.001555 -0.121949 -0.037645
v -0.004000 -0.096588 -0.041070
v -0.008443 -0.156043 -0.036116
v -0.007852 -0.215499 -0.031252
v -0.007852 -0.215499 -0.028748
v -0.007967 -0.285200 -0.024539
v -0.004000 -0.205421 -0.020010
v -0.008126 -0.210460 -0.024321
v 0.000443 -0.125979 -0.023884
v 0.002420 -0.097595 -0.027914
v 0.002420 -0.097595 -0.032086
v 0.003538 -0.091717 -0.040376
v -0.004000 -0.085840 -0.048900
v -0.010745 -0.117079 -0.039284
v -0.007852 -0.148318 -0.031252
v -0.007852 -0.148318 -0.028748
v -0.007650 -0.151340 -0.024976
v -0.004000 -0.154364 -0.021630
v 0.000126 -0.101459 -0.024321
v 0.003960 -0.082480 -0.027413
v 0.003960 -0.082480 -0.032587
v 0.003856 -0.077777 -0.040813
v -0.004000 -0.073075 -0.048360
v -0.011221 -0.094405 -0.039939
v -0.009906 -0.115734 -0.031919
v -0.009906 -0.115734 -0.028081
v -0.007491 -0.118086 -0.025195
v -0.004000 -0.120437 -0.024330
v 0.001158 -0.081305 -0.022901
v 0.009352 -0.078786 -0.025661
v 0.009352 -0.078786 -0.034339
v 0.003141 -0.072571 -0.039830
v -0.004000 -0.066356 -0.040260
v -0.011935 -0.069043 -0.040922
v -0.019921 -0.071731 -0.035173
v -0.019921 -0.071731 -0.024827
v -0.009952 -0.077777 -0.021809
v -0.004000 -0.083823 -0.026490
v -0.000429 -0.068708 -0.025085
v 0.003704 -0.067028 -0.027497
v 0.003704 -0.067028 -0.032503
v -0.000191 -0.064341 -0.035242
v -0.004000 -0.061653 -0.034860
v -0.007095 -0.059135 -0.034260
v -0.009393 -0.056615 -0.031752
v -0.009393 -0.056615 -0.028248
v -0.006857 -0.063501 -0.026068
v -0.004000 -0.070387 -0.025950
v -0.004000 -0.065685 -0.030000
vt 0.281035 0.358476
vt 0.281965 0.380152
vt 0.268536 0.363268
vt 0.275896 0.336379
vt 0.336537 0.299752
vt 0.326719 0.322309
vt 0.336740 0.280753
vt 0.336740 0.340092
vt 0.281966 0.310136
vt 0.272990 0.379159
vt 0.023302 0.956870
vt 0.038942 0.974226
vt 0.039122 1.000000
vt 0.045406 0.995744
vt 0.176164 0.941898
vt 0.187692 0.942040
vt 0.184162 0.962800
vt 0.162299 0.949057
vt 0.314895 0.100362
vt 0.331376 0.093511
vt 0.326371 0.117285
vt 0.311335 0.116144
vt 0.321818 0.127035
vt 0.331419 0.189771
vt 0.328509 0.187736
vt 0.334673 0.180619
vt 0.334673 0.196371
vt 0.168783 0.920875
vt 0.190954 0.921148
vt 0.024561 0.926721
vt 0.188152 0.890241
vt 0.201606 0.907357
vt 0.203154 0.937514
vt 0.382264 0.115358
vt 0.399226 0.086643
vt 0.399226 0.135833
vt 0.175290 0.890082
vt 0.326719 0.280863
vt 0.324788 0.308887
vt 0.319454 0.281974
vt 0.050394 0.970219
vt 0.398120 0.361407
vt 0.388403 0.345409
vt 0.398120 0.314702
vt 0.038213 0.945019
vt 0.287767 0.356906
vt 0.304369 0.350365
vt 0.304369 0.378781
vt 0.151864 0.922665
vt 0.308889 0.069469
vt 0.331376 0.063993
vt 0.332536 0.059546
vt 0.348227 0.043507
vt 0.356994 0.063993
vt 0.300974 0.284917
vt 0.281966 0.309752
vt 0.282528 0.285971
vt 0.302168 0.306177
vt 0.316100 0.280753
vt 0.315577 0.311058
vt 0.169343 0.881501
vt 0.027599 0.882899
vt 0.187519 0.851383
vt 0.197963 0.863572
vt 0.176876 0.851252
vt 0.170366 0.815572
vt 0.214571 0.017664
vt 0.213259 0.078096
vt 0.203154 0.008740
vt 0.326719 0.336217
vt 0.057542 0.947289
vt 0.038397 0.896001
vt 0.312223 0.001032
vt 0.322515 0.000000
vt 0.356764 0.024939
vt 0.318019 0.032560
vt 0.308889 0.063993
vt 0.291741 0.323200
vt 0.314365 0.331435
vt 0.076147 0.947956
vt 0.061384 0.965262
vt 0.221786 0.110144
vt 0.223745 0.023528
vt 0.030118 0.823044
vt 0.025808 0.777043
vt 0.186940 0.758748
vt 0.178511 0.758644
vt 0.172456 0.633985
vt 0.209367 0.244875
vt 0.205155 0.043587
vt 0.214697 0.359773
vt 0.056239 0.913108
vt 0.038582 0.868614
vt 0.241395 0.052598
vt 0.241395 0.000000
vt 0.328509 0.127035
vt 0.328509 0.185087
vt 0.308889 0.144547
vt 0.399482 0.397485
vt 0.388403 0.382851
vt 0.399482 0.361407
vt 0.308178 0.350365
vt 0.284293 0.341671
vt 0.078096 0.928361
vt 0.231241 0.179551
vt 0.024664 0.652452
vt 0.188344 0.574679
vt 0.200577 0.632527
vt 0.194866 0.803700
vt 0.175928 0.574526
vt 0.257664 0.322976
vt 0.249548 0.171805
vt 0.259295 0.000000
vt 0.263088 0.116783
vt 0.375037 0.314702
vt 0.369712 0.181901
vt 0.375037 0.000000
vt 0.206397 0.599188
vt 0.356994 0.063993
vt 0.356994 0.310446
vt 0.349751 0.093948
vt 0.106734 0.193579
vt 0.114774 0.349875
vt 0.110038 0.386806
vt 0.050494 0.894266
vt 0.335576 0.127035
vt 0.331376 0.103124
vt 0.335576 0.084147
vt 0.037489 0.711283
vt 0.369712 0.000000
vt 0.369712 0.193407
vt 0.356994 0.054911
vt 0.398753 0.298074
vt 0.386931 0.285065
vt 0.398753 0.229213
vt 0.379557 0.336050
vt 0.369712 0.332466
vt 0.372373 0.314702
vt 0.388403 0.320537
vt 0.388403 0.363979
vt 0.116677 0.051868
vt 0.382264 0.195854
vt 0.375037 0.142844
vt 0.382264 0.000000
vt 0.021848 0.454202
vt 0.189244 0.357195
vt 0.203154 0.433749
vt 0.174612 0.357014
vt 0.252088 0.466997
vt 0.241395 0.373637
vt 0.260897 0.556893
vt 0.343196 0.153604
vt 0.349751 0.063993
vt 0.349751 0.316736
vt 0.343196 0.063993
vt 0.343196 0.318483
vt 0.337621 0.228591
vt 0.369712 0.470322
vt 0.365587 0.346287
vt 0.369712 0.193407
vt 0.119799 0.229282
vt 0.115106 0.483690
vt 0.049509 0.788640
vt 0.063229 0.918838
vt 0.036643 0.531844
vt 0.125595 0.051701
vt 0.113516 0.000291
vt 0.129124 0.000000
vt 0.137261 0.129475
vt 0.125592 0.229174
vt 0.022257 0.320373
vt 0.188846 0.222496
vt 0.202237 0.299663
vt 0.175984 0.222338
vt 0.162809 0.154049
vt 0.247821 0.564544
vt 0.263088 0.629177
vt 0.356994 0.266773
vt 0.365332 0.193407
vt 0.365332 0.366092
vt 0.265953 0.152212
vt 0.281966 0.000000
vt 0.281966 0.072317
vt 0.263179 0.310136
vt 0.122291 0.494162
vt 0.111110 0.652874
vt 0.128981 0.494037
vt 0.138257 0.308288
vt 0.150434 0.386052
vt 0.036136 0.398591
vt 0.151864 0.519306
vt 0.141006 0.507313
vt 0.024036 0.185904
vt 0.188443 0.089588
vt 0.199743 0.164991
vt 0.177356 0.089451
vt 0.154964 0.073759
vt 0.302006 0.130122
vt 0.307338 0.052390
vt 0.308889 0.197526
vt 0.281966 0.030888
vt 0.375037 0.229391
vt 0.386931 0.195854
vt 0.386931 0.298074
vt 0.392681 0.000000
vt 0.392681 0.086643
vt 0.382264 0.052577
vt 0.263088 0.053406
vt 0.124211 0.673025
vt 0.104208 0.757443
vt 0.130901 0.672901
vt 0.140853 0.664608
vt 0.047876 0.410754
vt 0.048240 0.609676
vt 0.035865 0.262176
vt 0.046104 0.253156
vt 0.024702 0.120494
vt 0.014724 0.069021
vt 0.189296 0.049636
vt 0.175546 0.049467
vt 0.153734 0.036623
vt 0.283350 0.000000
vt 0.308889 0.017531
vt 0.103199 0.817983
vt 0.079904 0.873078
vt 0.078096 0.839119
vt 0.123760 0.760412
vt 0.134014 0.760221
vt 0.141187 0.753108
vt 0.035931 0.171047
vt 0.045375 0.164554
vt 0.021523 0.067251
vt 0.000000 0.059670
vt 0.386931 0.178818
vt 0.397979 0.165040
vt 0.397979 0.229213
vt 0.169077 0.040824
vt 0.192139 0.041109
vt 0.354447 0.318483
vt 0.355264 0.346163
vt 0.337621 0.346163
vt 0.156602 0.022596
vt 0.334838 0.158973
vt 0.328509 0.136840
vt 0.334838 0.127035
vt 0.326719 0.350365
vt 0.326719 0.378224
vt 0.304369 0.354524
vt 0.312996 0.245017
vt 0.301489 0.263921
vt 0.281966 0.244377
vt 0.101436 0.885765
vt 0.334905 0.231125
vt 0.288662 0.197526
vt 0.118274 0.880659
vt 0.145916 0.880144
vt 0.051037 0.058258
vt 0.078096 0.041332
vt 0.052248 0.157451
vt 0.151864 0.860979
vt 0.035888 0.072924
vt 0.025971 0.033075
vt 0.015265 0.027858
vt 0.175899 0.008178
vt 0.189202 0.008343
vt 0.169945 0.000000
vt 0.314721 0.277387
vt 0.304222 0.278149
vt 0.282510 0.263969
vt 0.324041 0.277650
vt 0.334905 0.280753
vt 0.135157 0.917478
vt 0.125795 0.917653
vt 0.043260 0.018964
vt 0.050303 0.000000
vt 0.035670 0.037313
vt 0.036236 0.023591
vt 0.335227 0.158973
vt 0.335227 0.180619
vt 0.328509 0.164930
vt 0.369712 0.372595
vt 0.376106 0.363979
vt 0.376106 0.384382
vt 0.328744 0.365538
vt 0.342025 0.375994
vt 0.326719 0.373673
vt 0.331129 0.358020
vt 0.338320 0.350578
vt 0.347631 0.350365
vt 0.353215 0.369223
vt 0.353215 0.388287
vn 0.7757 -0.4076 -0.4818
vn 0.7521 -0.4818 -0.4497
vn 0.7571 -0.3457 0.5544
vn 0.6720 -0.3561 0.6493
vn 0.7805 -0.4761 -0.4050
vn 0.3827 -0.5968 -0.7053
vn -0.2616 -0.0534 0.9637
vn -0.7356 -0.0375 0.6764
vn 0.7828 -0.6223 0.0000
vn 0.7923 -0.5941 0.1389
vn 0.5598 -0.8073 -0.1869
vn 0.3964 -0.8944 -0.2071
vn 0.7763 -0.3353 -0.5337
vn 0.8739 -0.4860 0.0000
vn 0.8336 -0.5043 -0.2254
vn 0.8062 -0.5916 0.0000
vn -0.3597 0.0391 0.9322
vn 0.8690 0.0653 0.4905
vn 0.2366 0.2629 0.9354
vn 0.8993 0.4374 0.0000
vn -0.9749 -0.1580 -0.1570
vn -0.1135 -0.2955 0.9486
vn 0.6765 -0.2461 0.6941
vn -0.1261 -0.3315 0.9350
vn 0.7021 -0.6048 -0.3760
vn 0.9593 -0.2738 -0.0688
vn 0.3601 -0.3957 -0.8448
vn 0.6405 -0.1554 -0.7520
vn -0.5096 -0.1741 -0.8426
vn -0.6676 -0.3729 -0.6444
vn -0.8459 -0.3389 -0.4118
vn -0.8538 -0.5205 0.0081
vn -0.8531 -0.5217 0.0000
vn -0.6543 -0.5109 0.5577
vn 0.7246 0.4367 -0.5332
vn 0.7123 0.4270 -0.5570
vn 0.3541 0.1113 0.9286
vn 0.8034 0.1097 0.5853
vn 0.8512 0.0907 0.5169
vn 0.9961 0.0886 0.0000
vn 0.9001 0.0924 -0.4258
vn 0.5978 0.0165 -0.8015
vn -0.6605 -0.4734 0.5828
vn 0.0396 -0.3959 0.9174
vn 0.2879 0.1272 0.9492
vn -0.0224 0.1327 0.9909
vn 0.2578 0.4202 -0.8701
vn 0.2519 0.4184 -0.8726
vn -0.2886 0.4140 -0.8633
vn -0.6329 0.1241 -0.7642
vn -0.5070 0.1239 -0.8530
vn -0.5750 -0.6270 -0.5256
vn -0.7654 -0.6435 0.0000
vn -0.4714 -0.5782 0.6659
vn 0.2230 0.0151 -0.9747
vn -0.0850 -0.0154 -0.9963
vn 0.3470 0.0696 0.9353
vn 0.5915 0.0723 0.8031
vn 0.8528 0.0379 0.5208
vn 0.9993 0.0371 0.0000
vn 0.9983 0.0376 -0.0444
vn 0.7505 0.0116 -0.6608
vn 0.4689 0.0118 -0.8832
vn 0.1776 0.0026 -0.9841
vn -0.6365 0.0632 0.7686
vn 0.2107 0.0423 0.9766
vn -0.5033 0.1593 0.8493
vn 0.0810 0.1838 0.9796
vn 0.4842 -0.0135 -0.8749
vn 0.4841 -0.0135 -0.8749
vn -0.3199 -0.0305 -0.9469
vn -0.3097 -0.0645 -0.9487
vn -0.9946 -0.1038 0.0000
vn -0.4498 -0.0771 0.8898
vn 0.1327 0.0026 -0.9912
vn 0.3322 0.0336 -0.9426
vn 0.5712 -0.0440 0.8196
vn 0.9434 -0.0362 0.3297
vn 0.9330 -0.0350 0.3580
vn 0.9994 -0.0334 0.0000
vn 0.2018 -0.0174 -0.9793
vn 0.7952 -0.0016 -0.6064
vn -0.3985 -0.0008 -0.9172
vn 0.5536 0.0183 -0.8326
vn -0.6410 0.0169 -0.7674
vn -0.7562 0.0512 -0.6524
vn -0.6906 0.4883 0.5336
vn -0.8739 0.4172 0.2496
vn 0.5784 -0.0444 0.8145
vn 0.2125 -0.0532 0.9757
vn -0.9477 0.0481 -0.3156
vn -0.4461 0.2873 0.8476
vn -0.5109 0.8596 0.0000
vn -0.5162 0.4814 -0.7084
vn -0.9922 0.0255 0.1219
vn -0.6228 0.0718 0.7791
vn 0.4801 -0.0162 0.8771
vn 0.8940 -0.0145 0.4479
vn 0.9111 -0.0164 0.4119
vn 0.9999 -0.0157 0.0000
vn 0.5469 -0.0129 -0.8371
vn 0.0138 -0.0306 -0.9994
vn -0.2235 -0.0246 -0.9744
vn -0.9067 -0.0371 -0.4201
vn 0.9152 -0.0355 -0.4014
vn 0.4018 -0.0054 -0.9157
vn -0.8536 -0.0099 -0.5208
vn -0.9918 0.0256 0.1253
vn -0.5894 0.0102 0.8078
vn -0.6407 0.0102 0.7677
vn 0.4508 -0.0143 0.8925
vn -0.5331 -0.0135 0.8459
vn -0.9816 0.1908 0.0000
vn -0.7759 0.1116 -0.6210
vn -0.9996 0.0269 0.0000
vn 0.3425 0.0104 0.9395
vn 0.8843 0.0097 0.4669
vn 0.8014 0.0203 0.5978
vn 0.9998 0.0204 0.0000
vn 0.9688 0.0214 -0.2470
vn 0.3070 -0.0496 -0.9504
vn 0.3480 -0.0502 -0.9362
vn -0.8456 -0.0989 -0.5246
vn 0.8105 -0.1085 -0.5756
vn 0.2461 -0.0286 -0.9688
vn -0.9405 -0.0370 -0.3378
vn -0.9254 -0.0054 -0.3789
vn -1.0000 -0.0052 0.0000
vn -0.9818 0.0044 0.1899
vn -0.7709 0.0059 0.6369
vn 0.4691 0.0000 0.8831
vn -0.7522 0.0000 0.6589
vn -0.9554 0.0231 -0.2943
vn -0.9984 -0.0051 -0.0560
vn -0.9914 -0.0017 -0.1307
vn 0.3534 0.0258 0.9351
vn 0.8152 0.0254 0.5787
vn 0.8528 0.0211 0.5218
vn 0.9998 0.0207 0.0000
vn 0.9889 0.0194 0.1472
vn 0.6326 -0.1107 -0.7666
vn 0.7059 -0.1095 -0.6998
vn -0.9096 -0.2446 -0.3357
vn 0.8442 -0.3156 -0.4333
vn -0.0150 -0.0819 -0.9965
vn -0.9814 -0.0428 0.1872
vn -0.9927 0.0000 0.1206
vn -1.0000 -0.0000 0.0000
vn -0.9986 0.0000 0.0535
vn -0.9975 0.0073 -0.0700
vn -0.7204 -0.0036 0.6936
vn 0.2913 0.0303 0.9562
vn -0.7347 0.0215 0.6780
vn -0.6695 0.0136 0.7427
vn 0.3415 0.0212 0.9396
vn 0.5594 0.0220 0.8286
vn 0.9791 -0.0938 -0.1802
vn 0.9948 -0.1014 0.0000
vn 0.9920 -0.1035 -0.0717
vn 0.9925 -0.0189 0.1205
vn 0.6802 -0.0385 -0.7320
vn 0.7582 0.0276 -0.6515
vn -0.7903 0.0259 -0.6121
vn -0.7617 -0.0347 -0.6470
vn -0.9931 -0.0175 0.1163
vn -0.9905 -0.0599 0.1238
vn -0.9980 -0.0629 0.0000
vn -0.7898 -0.0623 0.6102
vn -0.9983 0.0052 0.0576
vn -0.6468 0.0605 0.7603
vn -0.2357 0.0075 0.9718
vn -0.3446 0.0745 0.9358
vn 0.3867 -0.0845 0.9183
vn 0.3410 -0.0834 0.9363
vn 0.4398 -0.2303 -0.8681
vn 0.5652 -0.8250 0.0000
vn 0.1340 -0.5775 -0.8053
vn 0.9904 0.1249 0.0589
vn 0.2415 0.2120 -0.9470
vn 0.7319 0.5245 -0.4351
vn -0.2030 0.7536 -0.6251
vn -0.6958 -0.0474 -0.7166
vn -0.5729 -0.0478 -0.8182
vn -0.8532 -0.2288 -0.4687
vn -0.9751 -0.2219 0.0000
vn -0.3696 -0.1519 0.9167
vn -0.8012 -0.0985 0.5902
vn -0.2033 0.0577 0.9774
vn 0.5984 -0.0307 0.8006
vn -0.5861 0.0477 0.8088
vn -0.5911 0.0649 0.8040
vn 0.4292 0.2065 0.8793
vn 0.2357 0.2595 0.9366
vn 0.9014 0.4330 0.0000
vn 0.6983 0.4253 -0.5758
vn 0.7973 0.5061 -0.3289
vn 0.3155 0.5563 -0.7688
vn 0.5712 0.6190 -0.5391
vn 0.4373 0.6782 -0.5907
vn -0.1365 0.5978 -0.7899
vn -0.1784 0.6076 -0.7740
vn -0.6019 0.5502 -0.5788
vn -0.8206 0.5715 0.0000
vn -0.0813 0.2735 0.9584
vn -0.1019 0.3046 0.9470
vn 0.5974 -0.0322 0.8013
vn 0.3999 0.1813 0.8984
vn -0.2178 -0.0392 0.9752
vn -0.4403 0.5860 0.6803
vn -0.0281 0.8422 0.5384
vn 0.1717 0.9851 0.0000
vn 0.2886 0.8559 0.4292
vn 0.5190 0.6579 0.5458
vn 0.6000 0.6157 0.5108
vn 0.8196 0.5296 0.2188
vn 0.8595 0.5111 0.0000
vn 0.8287 0.4217 0.3679
vn 0.8390 0.3552 0.4123
usemtl Material_with_Texture.082
s off
f 1/1/1 2/2/1 3/3/1
f 4/4/2 1/1/2 3/3/2
f 1/5/3 5/6/3 2/7/3
f 6/8/4 5/6/4 1/5/4
f 4/4/5 6/9/5 1/1/5
f 2/2/6 7/10/6 3/3/6
f 5/11/7 8/12/7 2/13/7
f 2/13/8 8/12/8 7/14/8
f 9/15/9 4/16/9 3/17/9
f 10/18/10 9/15/10 3/17/10
f 11/19/11 10/20/11 3/21/11
f 12/22/12 11/19/12 3/21/12
f 13/23/13 12/22/13 3/21/13
f 14/24/14 13/25/14 3/26/14
f 7/27/15 14/24/15 3/26/15
f 15/28/16 6/29/16 4/16/16
f 9/15/16 15/28/16 4/16/16
f 5/11/17 16/30/17 8/12/17
f 17/31/18 16/32/18 5/33/18
f 6/34/19 17/35/19 5/36/19
f 18/37/20 17/31/20 6/29/20
f 15/28/20 18/37/20 6/29/20
f 7/38/21 19/39/21 14/40/21
f 8/12/22 19/41/22 7/14/22
f 16/42/23 20/43/23 8/44/23
f 8/12/24 20/45/24 19/41/24
f 21/46/25 15/47/25 9/48/25
f 10/18/26 21/49/26 9/15/26
f 22/50/27 21/51/27 10/20/27
f 11/19/28 22/50/28 10/20/28
f 23/52/29 22/53/29 11/54/29
f 12/55/30 23/56/30 11/57/30
f 24/58/31 23/56/31 12/55/31
f 13/59/32 24/58/32 12/55/32
f 25/60/33 24/58/33 13/59/33
f 14/40/33 25/60/33 13/59/33
f 19/39/34 25/60/34 14/40/34
f 26/61/35 18/37/35 15/28/35
f 21/49/36 26/61/36 15/28/36
f 16/30/37 27/62/37 20/45/37
f 28/63/38 27/64/38 16/32/38
f 17/31/39 28/63/39 16/32/39
f 29/65/40 28/63/40 17/31/40
f 18/37/40 29/65/40 17/31/40
f 30/66/41 29/65/41 18/37/41
f 26/67/42 30/68/42 18/69/42
f 19/39/43 31/70/43 25/60/43
f 20/45/44 31/71/44 19/41/44
f 27/62/45 32/72/45 20/45/45
f 20/45/46 32/72/46 31/71/46
f 33/73/47 26/74/47 21/75/47
f 22/53/48 33/73/48 21/75/48
f 34/76/49 33/73/49 22/53/49
f 23/52/50 34/76/50 22/53/50
f 35/77/51 34/76/51 23/52/51
f 24/58/52 35/78/52 23/56/52
f 36/79/53 35/78/53 24/58/53
f 25/60/53 36/79/53 24/58/53
f 31/71/54 36/80/54 25/81/54
f 37/82/55 30/68/55 26/67/55
f 33/83/56 37/82/56 26/67/56
f 27/62/57 38/84/57 32/72/57
f 39/85/58 38/84/58 27/62/58
f 28/63/59 39/86/59 27/64/59
f 40/87/60 39/86/60 28/63/60
f 29/65/60 40/87/60 28/63/60
f 41/88/61 40/87/61 29/65/61
f 30/68/62 41/89/62 29/90/62
f 42/91/63 41/89/63 30/68/63
f 37/82/64 42/91/64 30/68/64
f 31/71/65 43/92/65 36/80/65
f 32/72/66 43/92/66 31/71/66
f 38/84/67 44/93/67 32/72/67
f 32/72/68 44/93/68 43/92/68
f 45/94/69 37/82/69 33/83/69
f 34/95/70 45/94/70 33/83/70
f 46/96/71 45/97/71 34/98/71
f 35/99/72 46/100/72 34/101/72
f 47/102/73 46/103/73 35/78/73
f 36/79/73 47/102/73 35/78/73
f 43/92/74 47/104/74 36/80/74
f 48/105/75 42/91/75 37/82/75
f 45/94/76 48/105/76 37/82/76
f 38/84/77 49/106/77 44/93/77
f 50/107/78 49/108/78 38/109/78
f 39/86/79 50/107/79 38/109/79
f 51/110/80 50/107/80 39/86/80
f 40/87/80 51/110/80 39/86/80
f 52/111/81 51/112/81 40/113/81
f 41/114/82 52/111/82 40/113/82
f 53/115/83 52/116/83 41/117/83
f 42/91/84 53/118/84 41/89/84
f 54/119/85 53/120/85 42/121/85
f 48/122/86 54/123/86 42/124/86
f 43/92/87 55/125/87 47/104/87
f 44/126/88 55/127/88 43/128/88
f 49/106/89 56/129/89 44/93/89
f 44/93/90 56/129/90 55/125/90
f 57/130/91 48/131/91 45/132/91
f 46/133/92 57/134/92 45/135/92
f 58/136/93 57/137/93 46/138/93
f 47/139/93 58/136/93 46/138/93
f 55/140/94 58/136/94 47/139/94
f 59/141/95 54/123/95 48/122/95
f 57/142/96 59/143/96 48/144/96
f 49/106/97 60/145/97 56/129/97
f 61/146/98 60/147/98 49/108/98
f 50/107/99 61/146/99 49/108/99
f 62/148/100 61/146/100 50/107/100
f 51/110/100 62/148/100 50/107/100
f 63/149/101 62/150/101 51/112/101
f 52/111/102 63/149/102 51/112/102
f 64/151/103 63/149/103 52/111/103
f 53/152/104 64/153/104 52/154/104
f 65/155/105 64/156/105 53/157/105
f 54/158/106 65/159/106 53/160/106
f 66/161/107 65/162/107 54/123/107
f 59/141/108 66/161/108 54/123/108
f 55/125/109 67/163/109 58/164/109
f 56/129/110 67/163/110 55/125/110
f 60/145/111 68/165/111 56/129/111
f 56/129/112 68/165/112 67/163/112
f 69/166/113 59/141/113 57/167/113
f 58/168/113 69/166/113 57/167/113
f 67/169/114 69/166/114 58/168/114
f 70/170/115 66/161/115 59/141/115
f 69/166/115 70/170/115 59/141/115
f 60/145/116 71/171/116 68/165/116
f 72/172/117 71/173/117 60/147/117
f 61/146/118 72/172/118 60/147/118
f 73/174/119 72/172/119 61/146/119
f 62/148/119 73/174/119 61/146/119
f 74/175/120 73/174/120 62/148/120
f 63/149/121 74/176/121 62/150/121
f 75/177/122 74/176/122 63/149/122
f 64/178/123 75/179/123 63/180/123
f 76/181/124 75/182/124 64/183/124
f 65/184/125 76/181/125 64/183/125
f 77/185/126 76/186/126 65/162/126
f 66/161/127 77/185/127 65/162/127
f 78/187/128 77/185/128 66/161/128
f 70/170/128 78/187/128 66/161/128
f 67/169/129 79/188/129 69/166/129
f 68/189/130 79/188/130 67/169/130
f 71/171/131 80/190/131 68/165/131
f 68/189/132 80/191/132 79/188/132
f 79/188/133 70/170/133 69/166/133
f 81/192/134 78/187/134 70/170/134
f 79/188/135 81/192/135 70/170/135
f 71/171/136 82/193/136 80/190/136
f 83/194/137 82/195/137 71/173/137
f 72/172/138 83/194/138 71/173/138
f 84/196/139 83/194/139 72/172/139
f 73/174/139 84/196/139 72/172/139
f 85/197/140 84/196/140 73/174/140
f 74/198/141 85/199/141 73/200/141
f 86/201/142 85/199/142 74/198/142
f 75/202/143 86/203/143 74/204/143
f 87/205/144 86/206/144 75/207/144
f 76/181/145 87/208/145 75/182/145
f 88/209/146 87/210/146 76/186/146
f 77/185/147 88/209/147 76/186/147
f 89/211/148 88/209/148 77/185/148
f 78/187/148 89/211/148 77/185/148
f 90/212/149 89/211/149 78/187/149
f 81/192/150 90/212/150 78/187/150
f 80/190/151 81/213/151 79/214/151
f 82/193/152 91/215/152 80/190/152
f 80/190/153 91/215/153 81/213/153
f 91/215/154 90/216/154 81/213/154
f 82/193/155 92/217/155 91/215/155
f 93/218/156 92/217/156 82/193/156
f 83/194/157 93/219/157 82/195/157
f 94/220/158 93/219/158 83/194/158
f 84/196/158 94/220/158 83/194/158
f 95/221/159 94/220/159 84/196/159
f 85/197/160 95/221/160 84/196/160
f 96/222/161 95/223/161 85/199/161
f 86/201/162 96/222/162 85/199/162
f 97/224/163 96/225/163 86/226/163
f 87/210/164 97/224/164 86/226/164
f 98/227/165 97/224/165 87/210/165
f 88/209/166 98/227/166 87/210/166
f 99/228/167 98/227/167 88/209/167
f 89/211/167 99/228/167 88/209/167
f 100/229/168 99/228/168 89/211/168
f 90/212/169 100/229/169 89/211/169
f 91/215/170 101/230/170 90/216/170
f 101/230/171 100/231/171 90/216/171
f 92/217/172 101/230/172 91/215/172
f 92/217/173 102/232/173 101/230/173
f 103/233/174 102/232/174 92/217/174
f 93/234/175 103/235/175 92/236/175
f 104/237/176 103/238/176 93/219/176
f 94/220/176 104/237/176 93/219/176
f 105/239/177 104/240/177 94/241/177
f 95/221/178 105/242/178 94/220/178
f 106/243/179 105/244/179 95/245/179
f 96/246/180 106/247/180 95/248/180
f 107/249/181 106/250/181 96/251/181
f 97/224/182 107/252/182 96/225/182
f 108/253/183 107/249/183 97/254/183
f 98/227/184 108/255/184 97/224/184
f 109/256/185 108/255/185 98/227/185
f 99/228/185 109/256/185 98/227/185
f 110/257/186 109/258/186 99/259/186
f 100/229/187 110/260/187 99/228/187
f 101/230/188 111/261/188 100/231/188
f 111/261/189 110/257/189 100/231/189
f 102/232/190 111/261/190 101/230/190
f 102/232/191 112/262/191 111/261/191
f 113/263/192 112/262/192 102/232/192
f 103/233/193 113/263/193 102/232/193
f 114/264/194 113/265/194 103/238/194
f 104/237/194 114/264/194 103/238/194
f 115/266/195 114/264/195 104/237/195
f 105/242/196 115/266/196 104/237/196
f 116/267/197 115/268/197 105/269/197
f 106/250/198 116/267/198 105/269/198
f 117/270/199 116/267/199 106/250/199
f 107/249/200 117/270/200 106/250/200
f 118/271/201 117/270/201 107/249/201
f 108/253/202 118/271/202 107/249/202
f 119/272/203 118/273/203 108/255/203
f 109/256/203 119/272/203 108/255/203
f 120/274/204 119/275/204 109/258/204
f 110/257/205 120/274/205 109/258/205
f 111/261/206 121/276/206 110/257/206
f 121/276/207 120/274/207 110/257/207
f 112/262/208 121/276/208 111/261/208
f 112/262/209 122/277/209 121/276/209
f 113/263/210 122/277/210 112/262/210
f 114/278/211 122/279/211 113/280/211
f 115/281/212 122/282/212 114/283/212
f 116/284/213 122/285/213 115/286/213
f 117/287/214 122/285/214 116/284/214
f 118/288/215 122/285/215 117/287/215
f 119/289/216 122/285/216 118/288/216
f 120/290/217 122/285/217 119/289/217
f 121/291/218 122/285/218 120/290/218
