# Blender v3.5.0 OBJ File: ''
# www.blender.org
mtllib fingers12.mtl
o fingers12
v -0.002714 -0.077016 -0.001663
v -0.007757 -0.080821 -0.000931
v -0.002450 -0.085223 -0.004385
v -0.002864 -0.083690 -0.001791
v -0.002640 -0.070391 -0.001137
v -0.007622 -0.074053 -0.000035
v 0.005042 -0.079323 -0.000271
v 0.001912 -0.084176 -0.004572
v 0.005796 -0.072244 -0.000322
v -0.004873 -0.079055 -0.011211
v -0.002420 -0.084582 -0.007649
v -0.006662 -0.072624 -0.012957
v 0.000046 -0.084278 -0.007047
v -0.003576 -0.063814 -0.001893
v -0.008404 -0.067252 -0.002139
v 0.003126 -0.065831 -0.002726
v -0.007223 -0.065781 -0.012692
v 0.006142 -0.080543 -0.003344
v 0.001511 -0.084876 -0.005867
v 0.006849 -0.073969 -0.004631
v 0.004156 -0.066996 -0.005041
v -0.000837 -0.078607 -0.013549
v -0.002126 -0.084390 -0.009755
v -0.000324 -0.071885 -0.014846
v -0.002082 -0.065100 -0.014527
v 0.002469 -0.083852 -0.010918
v 0.002868 -0.082836 -0.012623
v -0.004559 -0.057208 -0.002823
v -0.008727 -0.060280 -0.003543
v 0.000275 -0.059213 -0.004075
v -0.007599 -0.058881 -0.011812
v 0.002118 -0.060356 -0.005536
v -0.004524 -0.058578 -0.014436
v 0.007583 -0.078941 -0.010911
v 0.008600 -0.072629 -0.010658
v 0.004547 -0.066625 -0.009473
v 0.001214 -0.060671 -0.010447
v 0.007256 -0.077982 -0.015412
v 0.006931 -0.071079 -0.015026
v 0.001587 -0.067361 -0.012359
v -0.000273 -0.060206 -0.012138
v -0.004842 -0.050537 -0.003168
v -0.009299 -0.053298 -0.004869
v -0.001042 -0.052111 -0.004128
v -0.008366 -0.052056 -0.011215
v 0.001197 -0.053510 -0.006953
v -0.006602 -0.052038 -0.013371
v 0.000186 -0.053961 -0.011145
v -0.001303 -0.052985 -0.012714
v -0.004429 -0.043877 -0.003433
v -0.009217 -0.046251 -0.005529
v -0.000669 -0.044957 -0.004914
v -0.008825 -0.045201 -0.010916
v 0.000855 -0.046491 -0.007699
v -0.007404 -0.045240 -0.012316
v 0.000150 -0.046898 -0.011396
v -0.002066 -0.046150 -0.013225
v -0.003643 -0.037244 -0.003706
v -0.008394 -0.039169 -0.005557
v 0.000236 -0.037806 -0.005063
v -0.008705 -0.038306 -0.010776
v 0.000947 -0.039441 -0.007260
v -0.007179 -0.038286 -0.011919
v 0.000038 -0.039864 -0.011168
v -0.002087 -0.039111 -0.013363
v -0.003079 -0.030594 -0.003576
v -0.007415 -0.032135 -0.005443
v 0.000549 -0.030731 -0.003789
v -0.008151 -0.031437 -0.010589
v 0.001814 -0.032471 -0.006609
v -0.006483 -0.031377 -0.011933
v 0.000388 -0.033014 -0.010877
v -0.001287 -0.032012 -0.013291
v -0.002720 -0.023950 -0.002937
v -0.006535 -0.025084 -0.005199
v 0.000021 -0.023745 -0.002355
v -0.007574 -0.024581 -0.010244
v 0.002949 -0.025489 -0.006607
v -0.005738 -0.024474 -0.012033
v 0.002129 -0.026294 -0.011149
v 0.000125 -0.025015 -0.013359
v -0.002241 -0.017369 -0.001874
v -0.006344 -0.018009 -0.005100
v 0.000503 -0.016378 -0.001360
v -0.007353 -0.017712 -0.009737
v 0.004352 -0.018582 -0.006514
v -0.005215 -0.017565 -0.012461
v 0.003603 -0.019550 -0.011747
v -0.001554 -0.017921 -0.013754
v -0.002064 -0.010647 -0.002618
v -0.006936 -0.010934 -0.005604
v 0.005745 -0.010896 0.000086
v -0.007572 -0.010828 -0.009933
v 0.007245 -0.012405 -0.004544
v -0.005311 -0.010727 -0.013736
v 0.006818 -0.012956 -0.010976
v -0.001380 -0.010958 -0.013920
v -0.001241 -0.005737 -0.003242
v -0.005372 -0.005266 -0.005608
v 0.007744 -0.005829 0.000117
v -0.006556 -0.004279 -0.009799
v 0.007914 -0.005838 -0.003298
v -0.005659 -0.004116 -0.012208
v 0.005957 -0.006144 -0.012436
v 0.000960 -0.006448 -0.013911
v 0.000446 -0.002476 -0.006360
vt 0.095401 0.098532
vt 0.037759 0.050554
vt 0.096902 0.000000
vt 0.095806 0.017951
vt 0.094782 0.178431
vt 0.038446 0.132148
vt 0.191280 0.073481
vt 0.148330 0.014350
vt 0.197643 0.159209
vt 0.712910 0.051610
vt 0.588550 0.082310
vt 0.623295 0.011094
vt 0.661825 0.000000
vt 0.730317 0.131985
vt 0.575835 0.162215
vt 0.756102 0.512962
vt 0.738629 0.476943
vt 0.768477 0.469584
vt 0.745349 0.727543
vt 0.730317 0.694035
vt 0.745349 0.659158
vt 0.730317 0.659158
vt 0.739186 0.593988
vt 0.767618 0.659158
vt 0.079935 0.257554
vt 0.023068 0.214235
vt 0.159336 0.235928
vt 0.712685 0.216278
vt 0.586437 0.244449
vt 0.812622 0.355637
vt 0.807263 0.392543
vt 0.758237 0.356070
vt 0.750186 0.342755
vt 0.520289 0.822833
vt 0.573558 0.801777
vt 0.575835 0.887184
vt 0.537216 0.902109
vt 0.730317 0.742802
vt 0.738409 0.727543
vt 0.738409 0.755566
vt 0.519936 0.738407
vt 0.549381 0.724176
vt 0.238003 0.904543
vt 0.290798 0.899168
vt 0.266684 0.970462
vt 0.258969 0.973765
vt 0.221541 0.825548
vt 0.300925 0.817591
vt 0.730317 0.452549
vt 0.215808 0.742984
vt 0.280817 0.735391
vt 0.750122 0.279642
vt 0.730317 0.331335
vt 0.752438 0.730808
vt 0.745349 0.707708
vt 0.752438 0.659158
vt 0.768477 0.392543
vt 0.064220 0.337034
vt 0.014302 0.298458
vt 0.120583 0.314894
vt 0.703166 0.301700
vt 0.604289 0.326648
vt 0.517404 0.658063
vt 0.538117 0.644050
vt 0.211073 0.660103
vt 0.252959 0.656039
vt 0.812622 0.260975
vt 0.445115 0.806996
vt 0.444202 0.883127
vt 0.466298 0.734098
vt 0.460408 0.661935
vt 0.391006 0.893132
vt 0.332177 0.951768
vt 0.387858 0.809977
vt 0.319731 0.764880
vt 0.298682 0.678137
vt 0.798604 0.207355
vt 0.751260 0.257195
vt 0.057839 0.417481
vt 0.002690 0.382693
vt 0.102186 0.400099
vt 0.694838 0.387267
vt 0.619058 0.408409
vt 0.501844 0.575360
vt 0.539544 0.558179
vt 0.202226 0.577863
vt 0.227509 0.577079
vt 0.453631 0.580843
vt 0.289112 0.590442
vt 0.395898 0.788264
vt 0.391007 0.871657
vt 0.781587 0.593988
vt 0.732147 0.583243
vt 0.730317 0.516925
vt 0.781587 0.512962
vt 0.442875 0.656239
vt 0.437200 0.742807
vt 0.437535 0.568973
vt 0.059915 0.498053
vt 0.000000 0.467867
vt 0.102721 0.486695
vt 0.693917 0.472641
vt 0.629980 0.490708
vt 0.493245 0.490600
vt 0.529174 0.471855
vt 0.611747 0.491085
vt 0.591478 0.410112
vt 0.450390 0.495564
vt 0.217332 0.495388
vt 0.282509 0.507517
vt 0.305116 0.518145
vt 0.303526 0.603466
vt 0.066445 0.578444
vt 0.007225 0.553654
vt 0.110696 0.573365
vt 0.699878 0.557457
vt 0.638462 0.573404
vt 0.498012 0.405468
vt 0.525453 0.385595
vt 0.200280 0.412154
vt 0.220723 0.411791
vt 0.197643 0.495203
vt 0.453005 0.410614
vt 0.284049 0.422547
vt 0.304846 0.433394
vt 0.071000 0.658894
vt 0.016573 0.638901
vt 0.114040 0.658675
vt 0.707340 0.641481
vt 0.647054 0.655552
vt 0.503919 0.321366
vt 0.539791 0.300155
vt 0.207987 0.329575
vt 0.230527 0.328670
vt 0.455550 0.327925
vt 0.294963 0.337209
vt 0.429698 0.315750
vt 0.430590 0.401398
vt 0.073971 0.739117
vt 0.024953 0.724296
vt 0.107639 0.742563
vt 0.716475 0.725617
vt 0.657504 0.737368
vt 0.501593 0.237163
vt 0.557557 0.215710
vt 0.215652 0.247240
vt 0.241085 0.245591
vt 0.448873 0.246948
vt 0.313420 0.253216
vt 0.426038 0.231392
vt 0.079120 0.818562
vt 0.024844 0.809735
vt 0.112424 0.831505
vt 0.724576 0.810489
vt 0.670262 0.819326
vt 0.499875 0.153886
vt 0.568247 0.126769
vt 0.635629 0.823010
vt 0.634343 0.739727
vt 0.438784 0.165668
vt 0.249649 0.162206
vt 0.295735 0.166948
vt 0.352825 0.189184
vt 0.332633 0.270378
vt 0.077540 0.899862
vt 0.014355 0.894962
vt 0.175536 0.899471
vt 0.726220 0.896327
vt 0.675039 0.902386
vt 0.517918 0.079501
vt 0.575835 0.061003
vt 0.627298 0.906588
vt 0.441913 0.086313
vt 0.252505 0.079056
vt 0.299636 0.082939
vt 0.391007 0.111026
vt 0.084539 0.959527
vt 0.030987 0.963969
vt 0.197643 0.961387
vt 0.730317 0.963799
vt 0.682217 0.980542
vt 0.531303 0.000229
vt 0.572384 0.000000
vt 0.652604 0.984626
vt 0.425732 0.004028
vt 0.246757 0.000000
vt 0.328457 0.029261
vt 0.385112 0.027863
vt 0.098223 1.000000
vt 0.832841 0.095277
vt 0.821016 0.001431
vt 0.856480 0.034500
vt 0.856480 0.207355
vt 0.819511 0.193112
vt 0.792094 0.000000
vt 0.730317 0.128233
vt 0.735882 0.065773
vn -0.0181 -0.3153 0.9488
vn 0.2548 -0.1060 0.9612
vn 0.0221 -0.3640 0.9311
vn -0.1415 -0.0258 0.9896
vn -0.7575 -0.5950 -0.2687
vn -0.9746 -0.1337 -0.1799
vn 0.1654 -0.9680 -0.1886
vn 0.6912 -0.5685 0.4463
vn -0.0538 -0.9952 0.0816
vn -0.0604 0.2013 0.9777
vn 0.0658 0.2531 0.9652
vn -0.9883 -0.1113 -0.1039
vn 0.5220 -0.7469 0.4119
vn 0.9495 -0.0717 0.3055
vn -0.6433 -0.5723 0.5086
vn 0.9132 0.3904 0.1168
vn -0.5922 -0.4813 -0.6463
vn -0.3420 -0.2432 -0.9077
vn 0.1390 -0.9878 -0.0707
vn -0.3073 -0.0115 -0.9516
vn -0.2022 -0.9517 -0.2313
vn -0.6802 -0.5487 -0.4861
vn 0.2214 -0.9654 -0.1376
vn -0.2095 0.1460 0.9668
vn 0.2515 0.2347 0.9389
vn -0.9900 -0.0548 -0.1298
vn 0.8348 0.3652 0.4120
vn -0.4734 -0.0357 -0.8801
vn 0.6925 -0.7211 -0.0208
vn 0.9724 -0.1137 0.2037
vn 0.6879 -0.7256 -0.0166
vn 0.8655 0.4351 0.2484
vn 0.9208 0.3871 -0.0482
vn -0.2489 -0.4102 -0.8774
vn -0.1258 -0.0645 -0.9900
vn 0.2153 0.3990 -0.8913
vn 0.5519 0.1921 -0.8115
vn 0.6674 -0.7118 -0.2188
vn -0.3278 0.0945 0.9400
vn 0.2707 0.0592 0.9608
vn -0.9821 -0.1035 -0.1572
vn 0.7645 0.1877 0.6168
vn -0.6994 -0.0603 -0.7121
vn 0.9712 0.1064 -0.2133
vn 0.3198 0.1057 -0.9416
vn 0.9724 -0.0398 -0.2301
vn 0.6178 0.7213 -0.3133
vn 0.6903 0.2341 -0.6846
vn 0.7485 0.0501 -0.6612
vn -0.4147 0.0762 0.9068
vn 0.3238 0.0534 0.9446
vn -0.9926 -0.0300 -0.1179
vn 0.8425 0.0561 0.5358
vn -0.7449 -0.0026 -0.6672
vn 0.9768 0.0111 -0.2137
vn -0.0171 0.0379 -0.9991
vn 0.6755 -0.0016 -0.7373
vn -0.4074 0.0678 0.9107
vn 0.3456 -0.0137 0.9383
vn -0.9977 0.0673 0.0045
vn 0.8922 -0.0717 0.4459
vn -0.6525 0.0456 -0.7565
vn 0.9779 0.0113 -0.2088
vn -0.2167 0.0212 -0.9760
vn 0.6818 0.0111 -0.7314
vn -0.3874 0.0273 0.9215
vn 0.1934 -0.1121 0.9747
vn -0.9876 0.1064 0.1158
vn 0.8876 -0.1349 0.4404
vn -0.6141 0.0656 -0.7865
vn 0.9615 -0.0665 -0.2667
vn -0.2585 0.0316 -0.9655
vn 0.7621 -0.0460 -0.6458
vn -0.4473 -0.0172 0.8942
vn -0.0556 -0.1508 0.9870
vn -0.9788 0.0949 0.1817
vn 0.8360 -0.0919 0.5410
vn -0.6666 0.0772 -0.7414
vn 0.9555 -0.2047 -0.2123
vn -0.2333 0.0245 -0.9721
vn 0.7234 -0.1828 -0.6658
vn -0.5627 -0.0426 0.8256
vn -0.1663 -0.1327 0.9771
vn -0.9778 0.0198 0.2085
vn 0.7716 -0.1490 0.6185
vn -0.7510 0.0443 -0.6588
vn 0.9708 -0.2090 -0.1179
vn -0.2712 -0.0788 -0.9593
vn 0.4899 -0.0552 -0.8700
vn -0.5722 0.0568 0.8182
vn -0.2957 0.0765 0.9522
vn -0.9828 -0.0482 0.1782
vn 0.6014 -0.5805 0.5490
vn -0.8253 -0.0789 -0.5592
vn 0.9045 -0.4249 -0.0359
vn -0.1975 -0.1007 -0.9751
vn 0.3372 -0.0423 -0.9405
vn -0.5016 0.1636 0.8495
vn -0.3331 0.1495 0.9310
vn -0.9529 0.1988 0.2291
vn 0.9399 -0.2420 0.2408
vn -0.8885 0.1016 -0.4474
vn 0.9883 0.0118 -0.1520
vn -0.1361 0.1595 -0.9778
vn 0.2951 -0.1593 -0.9421
vn -0.2721 0.7348 0.6213
vn -0.2319 0.7322 0.6404
vn -0.3777 0.8718 0.3120
vn 0.4044 0.9144 0.0177
vn -0.2386 0.9708 -0.0232
vn 0.4497 0.8843 -0.1259
vn 0.1930 0.8737 -0.4465
vn 0.0819 0.8843 -0.4596
usemtl Material_with_Texture.087
s off
f 1/1/1 2/2/1 3/3/1 4/4/1
f 5/5/2 6/6/2 2/2/2 1/1/2
f 7/7/3 1/1/3 4/4/3 8/8/3
f 9/9/4 5/5/4 1/1/4 7/7/4
f 2/10/5 10/11/5 11/12/5 3/13/5
f 6/14/6 12/15/6 10/11/6 2/10/6
f 3/16/7 11/17/7 13/18/7
f 4/19/8 3/20/8 13/21/8
f 8/22/9 4/23/9 13/24/9
f 14/25/10 15/26/10 6/6/10 5/5/10
f 16/27/11 14/25/11 5/5/11 9/9/11
f 15/28/12 17/29/12 12/15/12 6/14/12
f 18/30/13 7/31/13 8/32/13 19/33/13
f 20/34/14 9/35/14 7/36/14 18/37/14
f 19/38/15 8/39/15 13/40/15
f 21/41/16 16/42/16 9/35/16 20/34/16
f 10/43/17 22/44/17 23/45/17 11/46/17
f 12/47/18 24/48/18 22/44/18 10/43/18
f 11/17/19 23/49/19 13/18/19
f 17/50/20 25/51/20 24/48/20 12/47/20
f 26/52/21 19/33/21 13/53/21
f 27/54/22 26/55/22 13/56/22
f 23/49/23 27/57/23 13/18/23
f 28/58/24 29/59/24 15/26/24 14/25/24
f 30/60/25 28/58/25 14/25/25 16/27/25
f 29/61/26 31/62/26 17/29/26 15/28/26
f 32/63/27 30/64/27 16/42/27 21/41/27
f 31/65/28 33/66/28 25/51/28 17/50/28
f 34/67/29 18/30/29 26/52/29
f 35/68/30 20/34/30 18/37/30 34/69/30
f 19/33/31 26/52/31 18/30/31
f 36/70/32 21/41/32 20/34/32 35/68/32
f 37/71/33 32/63/33 21/41/33 36/70/33
f 22/44/34 38/72/34 27/73/34 23/45/34
f 24/48/35 39/74/35 38/72/35 22/44/35
f 25/51/36 40/75/36 39/74/36 24/48/36
f 33/66/37 41/76/37 40/75/37 25/51/37
f 38/77/38 34/67/38 26/52/38 27/78/38
f 42/79/39 43/80/39 29/59/39 28/58/39
f 44/81/40 42/79/40 28/58/40 30/60/40
f 43/82/41 45/83/41 31/62/41 29/61/41
f 46/84/42 44/85/42 30/64/42 32/63/42
f 45/86/43 47/87/43 33/66/43 31/65/43
f 48/88/44 46/84/44 32/63/44 37/71/44
f 47/87/45 49/89/45 41/76/45 33/66/45
f 39/90/46 35/68/46 34/69/46 38/91/46
f 40/92/47 36/93/47 35/94/47 39/95/47
f 41/96/48 37/71/48 36/70/48 40/97/48
f 49/98/49 48/88/49 37/71/49 41/96/49
f 50/99/50 51/100/50 43/80/50 42/79/50
f 52/101/51 50/99/51 42/79/51 44/81/51
f 51/102/52 53/103/52 45/83/52 43/82/52
f 54/104/53 52/105/53 44/85/53 46/84/53
f 53/103/54 55/106/54 47/107/54 45/83/54
f 56/108/55 54/104/55 46/84/55 48/88/55
f 55/109/56 57/110/56 49/89/56 47/87/56
f 57/110/57 56/111/57 48/112/57 49/89/57
f 58/113/58 59/114/58 51/100/58 50/99/58
f 60/115/59 58/113/59 50/99/59 52/101/59
f 59/116/60 61/117/60 53/103/60 51/102/60
f 62/118/61 60/119/61 52/105/61 54/104/61
f 61/120/62 63/121/62 55/109/62 53/122/62
f 64/123/63 62/118/63 54/104/63 56/108/63
f 63/121/64 65/124/64 57/110/64 55/109/64
f 65/124/65 64/125/65 56/111/65 57/110/65
f 66/126/66 67/127/66 59/114/66 58/113/66
f 68/128/67 66/126/67 58/113/67 60/115/67
f 67/129/68 69/130/68 61/117/68 59/116/68
f 70/131/69 68/132/69 60/119/69 62/118/69
f 69/133/70 71/134/70 63/121/70 61/120/70
f 72/135/71 70/131/71 62/118/71 64/123/71
f 71/134/72 73/136/72 65/124/72 63/121/72
f 73/137/73 72/135/73 64/123/73 65/138/73
f 74/139/74 75/140/74 67/127/74 66/126/74
f 76/141/75 74/139/75 66/126/75 68/128/75
f 75/142/76 77/143/76 69/130/76 67/129/76
f 78/144/77 76/145/77 68/132/77 70/131/77
f 77/146/78 79/147/78 71/134/78 69/133/78
f 80/148/79 78/144/79 70/131/79 72/135/79
f 79/147/80 81/149/80 73/136/80 71/134/80
f 81/150/81 80/148/81 72/135/81 73/137/81
f 82/151/82 83/152/82 75/140/82 74/139/82
f 84/153/83 82/151/83 74/139/83 76/141/83
f 83/154/84 85/155/84 77/143/84 75/142/84
f 86/156/85 84/157/85 76/145/85 78/144/85
f 85/155/86 87/158/86 79/159/86 77/143/86
f 88/160/87 86/156/87 78/144/87 80/148/87
f 87/161/88 89/162/88 81/149/88 79/147/88
f 89/162/89 88/163/89 80/164/89 81/149/89
f 90/165/90 91/166/90 83/152/90 82/151/90
f 92/167/91 90/165/91 82/151/91 84/153/91
f 91/168/92 93/169/92 85/155/92 83/154/92
f 94/170/93 92/171/93 84/157/93 86/156/93
f 93/169/94 95/172/94 87/158/94 85/155/94
f 96/173/95 94/170/95 86/156/95 88/160/95
f 95/174/96 97/175/96 89/162/96 87/161/96
f 97/175/97 96/176/97 88/163/97 89/162/97
f 98/177/98 99/178/98 91/166/98 90/165/98
f 100/179/99 98/177/99 90/165/99 92/167/99
f 99/180/100 101/181/100 93/169/100 91/168/100
f 102/182/101 100/183/101 92/171/101 94/170/101
f 101/181/102 103/184/102 95/172/102 93/169/102
f 104/185/103 102/182/103 94/170/103 96/173/103
f 103/186/104 105/187/104 97/175/104 95/174/104
f 105/187/105 104/188/105 96/176/105 97/175/105
f 106/189/106 99/178/106 98/177/106
f 106/189/107 98/177/107 100/179/107
f 106/190/108 101/191/108 99/192/108
f 106/190/109 100/193/109 102/194/109
f 106/190/110 103/195/110 101/191/110
f 106/190/111 102/194/111 104/196/111
f 106/190/112 105/197/112 103/195/112
f 106/190/113 104/196/113 105/197/113
