# Blender v3.5.0 OBJ File: ''
# www.blender.org
mtllib fingers2.mtl
o fingers2
v 0.004119 -0.045926 0.002465
v 0.004498 -0.044727 0.005723
v 0.006792 -0.051137 0.005462
v 0.007516 -0.051329 0.004003
v 0.001239 -0.040458 0.001606
v 0.003151 -0.038567 0.004763
v 0.000995 -0.043318 0.001442
v 0.002563 -0.048831 0.003320
v 0.000127 -0.037642 -0.000211
v 0.002167 -0.043742 0.007096
v 0.004669 -0.049267 0.008088
v 0.001698 -0.037471 0.006339
v 0.002384 -0.054591 0.008876
v 0.002732 -0.054871 0.005289
v 0.001052 -0.033832 0.000069
v 0.001700 -0.032403 0.002963
v 0.000081 -0.031819 -0.001737
v 0.000913 -0.031313 0.005582
v -0.001767 -0.043198 0.002599
v 0.000047 -0.048995 0.003501
v -0.003093 -0.037377 0.001313
v -0.003687 -0.031647 -0.000773
v 0.001963 -0.044788 0.012760
v 0.005457 -0.050107 0.013851
v -0.000490 -0.038903 0.011162
v 0.001882 -0.054243 0.011410
v -0.000145 -0.032280 0.010330
v 0.000739 -0.055049 0.006462
v 0.001034 -0.054078 0.013024
v -0.002887 -0.053055 0.011106
v -0.001855 -0.049533 0.006232
v 0.001650 -0.027078 -0.001701
v 0.001603 -0.025972 0.001806
v 0.000007 -0.026022 -0.003380
v 0.000734 -0.025133 0.004799
v -0.003567 -0.025845 -0.002801
v -0.000524 -0.025815 0.009173
v -0.002993 -0.043433 0.005548
v -0.004738 -0.037577 0.004561
v -0.005869 -0.031677 0.003205
v -0.006447 -0.025669 0.001775
v -0.000677 -0.042357 0.011669
v 0.000274 -0.048166 0.012707
v -0.001541 -0.036553 0.010626
v -0.002570 -0.030713 0.009583
v -0.003312 -0.024841 0.008670
v -0.002304 -0.047473 0.009824
v -0.003219 -0.041861 0.009373
v 0.002641 -0.020723 -0.003320
v 0.002653 -0.019717 -0.000079
v 0.000364 -0.020386 -0.005438
v 0.001498 -0.018914 0.003836
v -0.003410 -0.020037 -0.004740
v -0.000103 -0.019271 0.007785
v -0.007084 -0.019678 0.000395
v -0.002379 -0.018967 0.008485
v -0.004604 -0.036287 0.008785
v -0.005619 -0.030759 0.007593
v -0.006088 -0.025172 0.006394
v -0.006588 -0.019566 0.005235
v 0.004977 -0.014620 -0.004360
v 0.005795 -0.014089 -0.001312
v 0.001729 -0.014834 -0.007203
v 0.005184 -0.013922 0.003756
v -0.004430 -0.014513 -0.007251
v 0.002965 -0.013438 0.008169
v -0.007516 -0.013763 -0.001365
v -0.002376 -0.013029 0.008963
v -0.007388 -0.014002 0.004072
v 0.003903 -0.008462 -0.006571
v 0.005883 -0.008118 -0.003213
v 0.004974 -0.007828 0.002525
v -0.003709 -0.008505 -0.007001
v 0.003461 -0.007070 0.006996
v -0.006792 -0.007625 -0.001458
v -0.002029 -0.007285 0.007800
v -0.006743 -0.008325 0.003597
v 0.000303 -0.009027 -0.000417
vt 0.029790 0.641997
vt 0.086667 0.634685
vt 0.058060 0.744637
vt 0.032137 0.744786
vt 0.037951 0.541920
vt 0.092707 0.527265
vt 0.688812 0.608754
vt 0.737823 0.659201
vt 0.788316 0.757723
vt 0.708050 0.708367
vt 0.681233 0.508231
vt 0.695298 0.563050
vt 0.116466 0.616834
vt 0.110970 0.717241
vt 0.124688 0.510753
vt 0.111027 0.800310
vt 0.942466 0.248697
vt 0.935710 0.275445
vt 0.861674 0.341114
vt 0.855754 0.280412
vt 0.703180 0.815336
vt 0.033948 0.428168
vt 0.085087 0.416612
vt 0.012230 0.386469
vt 0.018843 0.486705
vt 0.133097 0.405630
vt 0.641127 0.608417
vt 0.665377 0.708880
vt 0.625550 0.506528
vt 0.623129 0.403636
vt 0.687464 0.406792
vt 0.206908 0.652719
vt 0.201983 0.752878
vt 0.203467 0.544506
vt 0.154789 0.801923
vt 0.210161 0.434705
vt 0.826226 0.306108
vt 0.862247 0.385078
vt 0.853837 0.414753
vt 0.788316 0.397759
vt 0.342276 0.097253
vt 0.291865 0.110646
vt 0.294090 0.002113
vt 0.320649 0.000000
vt 0.025151 0.313724
vt 0.086577 0.307591
vt 0.693336 0.305258
vt 0.718075 0.331397
vt 0.699893 0.448299
vt 0.140100 0.301752
vt 0.632714 0.300639
vt 0.212246 0.324343
vt 0.352235 0.202152
vt 0.300223 0.212894
vt 0.359098 0.305487
vt 0.300461 0.315661
vt 0.357627 0.409320
vt 0.284555 0.417865
vt 0.353009 0.513867
vt 0.266887 0.519376
vt 0.568244 0.155526
vt 0.524882 0.200378
vt 0.536480 0.100375
vt 0.623129 0.061485
vt 0.530772 0.259013
vt 0.514736 0.300230
vt 0.942466 0.419717
vt 0.543859 0.000000
vt 0.542014 0.371226
vt 0.501852 0.400827
vt 0.540523 0.481944
vt 0.493986 0.501501
vt 0.407708 0.120153
vt 0.415782 0.025811
vt 0.490201 0.118974
vt 0.476546 0.023688
vt 0.419218 0.215758
vt 0.016899 0.207395
vt 0.073518 0.202145
vt 0.706792 0.205119
vt 0.742334 0.222092
vt 0.142627 0.199254
vt 0.642824 0.197958
vt 0.209388 0.214136
vt 0.349393 0.618108
vt 0.250525 0.620602
vt 0.552265 0.593685
vt 0.515191 0.599574
vt 0.430315 0.312301
vt 0.430024 0.409222
vt 0.427567 0.505848
vt 0.425934 0.602725
vt 0.479755 0.214669
vt 0.461199 0.310355
vt 0.448057 0.405951
vt 0.444140 0.502083
vt 0.439772 0.598494
vt 0.015069 0.110912
vt 0.065605 0.114990
vt 0.736788 0.108743
vt 0.788316 0.120874
vt 0.150770 0.127932
vt 0.633545 0.096161
vt 0.228920 0.128976
vt 0.338598 0.721881
vt 0.228920 0.721844
vt 0.610029 0.688305
vt 0.521662 0.698419
vt 0.425338 0.699634
vt 0.430315 0.694462
vt 0.000000 0.000000
vt 0.053045 0.011431
vt 0.778352 0.009920
vt 0.150165 0.023833
vt 0.650786 0.000000
vt 0.228920 0.022582
vt 0.350671 0.821058
vt 0.246200 0.817760
vt 0.623129 0.796673
vt 0.531659 0.796428
vt 0.430315 0.792710
vt 0.446121 0.789955
vt 0.963362 0.248697
vt 0.834687 0.248697
vt 0.908077 0.142435
vt 1.000000 0.193724
vt 0.990126 0.096032
vt 0.969155 0.018519
vt 0.788316 0.151514
vt 0.877281 0.000000
vt 0.793429 0.067380
vn 0.9018 0.4279 -0.0602
vn 0.8682 0.2484 -0.4297
vn 0.0180 -0.2911 -0.9565
vn 0.5570 0.0001 -0.8305
vn 0.7391 0.3329 0.5856
vn 0.6677 0.1967 0.7180
vn 0.6910 -0.1935 0.6965
vn 0.7395 -0.5141 0.4346
vn 0.6114 -0.7821 0.1204
vn -0.0256 -0.3105 -0.9502
vn 0.9181 0.0142 -0.3962
vn 0.7663 -0.1400 -0.6271
vn 0.9028 0.2381 0.3580
vn -0.2323 -0.2971 -0.9262
vn -0.4063 -0.2983 -0.8637
vn -0.0480 -0.3108 -0.9493
vn -0.3367 -0.2979 -0.8933
vn 0.8716 0.4889 0.0361
vn 0.9213 0.2748 0.2751
vn 0.8532 -0.5180 -0.0601
vn 0.9386 0.0742 0.3369
vn -0.2053 -0.9667 0.1528
vn 0.1414 -0.9858 0.0907
vn -0.6097 -0.4034 -0.6823
vn 0.9959 -0.0539 -0.0722
vn 0.6781 -0.2191 -0.7016
vn 0.9628 0.0615 0.2630
vn -0.2099 -0.2943 -0.9324
vn 0.9623 0.0822 0.2592
vn -0.8272 -0.2709 -0.4924
vn -0.8554 -0.3063 -0.4178
vn -0.8495 -0.2616 -0.4582
vn -0.8480 -0.1789 -0.4988
vn -0.2232 0.0964 0.9700
vn -0.2254 0.1534 0.9621
vn 0.5784 -0.7230 0.3778
vn -0.2062 0.0259 0.9782
vn -0.2062 0.1345 0.9692
vn -0.1613 0.1490 0.9756
vn -0.9133 -0.2128 -0.3472
vn -0.5730 0.1043 0.8129
vn -0.9849 -0.1731 -0.0049
vn 0.9880 -0.1458 0.0508
vn 0.6089 -0.2943 -0.7366
vn 0.9526 -0.0710 0.2960
vn -0.1844 -0.3167 -0.9304
vn 0.9465 -0.0286 0.3215
vn -0.8191 -0.1860 -0.5426
vn 0.0683 0.1180 0.9907
vn -0.9642 -0.2532 0.0790
vn -0.9825 -0.1653 0.0862
vn -0.9943 -0.0720 0.0785
vn -0.9926 -0.0766 0.0946
vn -0.7138 -0.0254 0.6999
vn -0.5940 -0.0021 0.8044
vn -0.5279 0.0715 0.8463
vn -0.5923 0.0851 0.8012
vn -0.6257 0.1139 0.7717
vn 0.9048 -0.4255 -0.0154
vn 0.6178 -0.3639 -0.6971
vn 0.8329 -0.5085 0.2186
vn -0.0849 -0.3565 -0.9304
vn 0.7848 -0.5000 0.3661
vn -0.8297 -0.2846 -0.4803
vn 0.1804 -0.1186 0.9764
vn -0.9940 -0.0916 0.0592
vn -0.6617 -0.0012 0.7497
vn 0.9177 -0.0586 -0.3928
vn 0.6567 -0.1508 -0.7389
vn 0.9895 0.0456 0.1373
vn 0.0359 0.0627 -0.9974
vn 0.9233 0.0522 0.3806
vn -0.8681 0.1095 -0.4842
vn 0.1468 0.1775 0.9731
vn -0.9928 0.1163 0.0272
vn -0.6916 0.1611 0.7041
vn -0.0104 0.9963 0.0854
vn -0.1632 0.9866 -0.0049
vn -0.1997 0.9765 -0.0810
vn -0.1200 0.9713 -0.2053
vn 0.1999 0.9788 -0.0442
vn -0.0712 0.9715 -0.2262
vn 0.1732 0.9758 0.1334
vn -0.0246 0.9765 -0.2140
usemtl Material_with_Texture.095
s off
f 1/1/1 2/2/1 3/3/1 4/4/1
f 5/5/2 6/6/2 2/2/2 1/1/2
f 7/7/3 1/8/3 4/9/3 8/10/3
f 9/11/4 5/12/4 1/8/4 7/7/4
f 2/2/5 10/13/5 11/14/5 3/3/5
f 6/6/6 12/15/6 10/13/6 2/2/6
f 3/3/7 11/14/7 13/16/7
f 4/17/8 3/18/8 13/19/8
f 13/19/9 14/20/9 4/17/9
f 14/21/10 8/10/10 4/9/10
f 15/22/11 16/23/11 6/6/11 5/5/11
f 17/24/12 15/22/12 5/5/12 9/25/12
f 16/23/13 18/26/13 12/15/13 6/6/13
f 19/27/14 7/7/14 8/10/14 20/28/14
f 21/29/15 9/11/15 7/7/15 19/27/15
f 8/10/16 14/21/16 20/28/16
f 22/30/17 17/31/17 9/11/17 21/29/17
f 10/13/18 23/32/18 24/33/18 11/14/18
f 12/15/19 25/34/19 23/32/19 10/13/19
f 11/14/20 24/33/20 26/35/20 13/16/20
f 18/26/21 27/36/21 25/34/21 12/15/21
f 28/37/22 13/19/22 26/38/22 29/39/22 30/40/22
f 13/19/23 28/37/23 14/20/23
f 31/41/24 20/42/24 14/43/24 28/44/24
f 32/45/25 33/46/25 16/23/25 15/22/25
f 34/47/26 32/48/26 15/49/26 17/31/26
f 33/46/27 35/50/27 18/26/27 16/23/27
f 36/51/28 34/47/28 17/31/28 22/30/28
f 35/50/29 37/52/29 27/36/29 18/26/29
f 38/53/30 19/54/30 20/42/30 31/41/30
f 39/55/31 21/56/31 19/54/31 38/53/31
f 40/57/32 22/58/32 21/56/32 39/55/32
f 41/59/33 36/60/33 22/58/33 40/57/33
f 23/61/34 42/62/34 43/63/34 24/64/34
f 25/65/35 44/66/35 42/62/35 23/61/35
f 24/67/36 29/39/36 26/38/36
f 24/64/37 43/63/37 29/68/37
f 27/69/38 45/70/38 44/66/38 25/65/38
f 37/71/39 46/72/39 45/70/39 27/69/39
f 47/73/40 31/41/40 28/44/40 30/74/40
f 43/63/41 47/75/41 30/76/41 29/68/41
f 48/77/42 38/53/42 31/41/42 47/73/42
f 49/78/43 50/79/43 33/46/43 32/45/43
f 51/80/44 49/81/44 32/48/44 34/47/44
f 50/79/45 52/82/45 35/50/45 33/46/45
f 53/83/46 51/80/46 34/47/46 36/51/46
f 52/82/47 54/84/47 37/52/47 35/50/47
f 55/85/48 53/86/48 36/60/48 41/59/48
f 54/87/49 56/88/49 46/72/49 37/71/49
f 57/89/50 39/55/50 38/53/50 48/77/50
f 58/90/51 40/57/51 39/55/51 57/89/51
f 59/91/52 41/59/52 40/57/52 58/90/52
f 60/92/53 55/85/53 41/59/53 59/91/53
f 42/62/54 48/93/54 47/75/54 43/63/54
f 44/66/55 57/94/55 48/93/55 42/62/55
f 45/70/56 58/95/56 57/94/56 44/66/56
f 46/72/57 59/96/57 58/95/57 45/70/57
f 56/88/58 60/97/58 59/96/58 46/72/58
f 61/98/59 62/99/59 50/79/59 49/78/59
f 63/100/60 61/101/60 49/81/60 51/80/60
f 62/99/61 64/102/61 52/82/61 50/79/61
f 65/103/62 63/100/62 51/80/62 53/83/62
f 64/102/63 66/104/63 54/84/63 52/82/63
f 67/105/64 65/106/64 53/86/64 55/85/64
f 66/107/65 68/108/65 56/88/65 54/87/65
f 69/109/66 67/105/66 55/85/66 60/92/66
f 68/108/67 69/110/67 60/97/67 56/88/67
f 70/111/68 71/112/68 62/99/68 61/98/68
f 70/113/69 61/101/69 63/100/69
f 71/112/70 72/114/70 64/102/70 62/99/70
f 73/115/71 70/113/71 63/100/71 65/103/71
f 72/114/72 74/116/72 66/104/72 64/102/72
f 75/117/73 73/118/73 65/106/73 67/105/73
f 74/119/74 76/120/74 68/108/74 66/107/74
f 77/121/75 75/117/75 67/105/75 69/109/75
f 76/120/76 77/122/76 69/110/76 68/108/76
f 70/123/77 73/124/77 78/125/77
f 71/126/78 70/123/78 78/125/78
f 72/127/79 71/126/79 78/125/79
f 74/128/80 72/127/80 78/125/80
f 73/124/81 75/129/81 78/125/81
f 76/130/82 74/128/82 78/125/82
f 75/129/83 77/131/83 78/125/83
f 77/131/84 76/130/84 78/125/84
