# Blender 4.3.0
# www.blender.org
mtllib fingers10.mtl
o fingers10
v 0.004432 -0.132972 -0.001143
v 0.003540 -0.133297 -0.007440
v -0.001727 -0.133890 -0.011988
v -0.006460 -0.133857 -0.007121
v -0.006040 -0.133676 -0.002004
v -0.000059 -0.165397 -0.003170
v 0.002347 -0.138457 -0.000856
v 0.002322 -0.138540 -0.006196
v -0.000292 -0.132841 0.001406
v -0.000368 -0.137815 0.001015
v -0.000726 -0.139330 -0.010805
v -0.005543 -0.139150 -0.006546
v -0.005159 -0.138791 -0.002233
v 0.003231 -0.164341 -0.000185
v 0.000849 -0.163643 0.000706
v -0.000455 -0.165052 -0.003035
v -0.002914 -0.160460 -0.003233
v 0.001663 -0.162067 -0.006682
v 0.004086 -0.159855 -0.002074
v 0.001846 -0.144148 -0.000501
v 0.001228 -0.143796 -0.004761
v -0.000282 -0.143019 0.000777
v -0.000772 -0.144858 -0.008713
v -0.003911 -0.143686 -0.000953
v -0.004575 -0.144435 -0.006097
v 0.006914 -0.160062 0.001847
v 0.003147 -0.163354 0.002991
v 0.001637 -0.163425 0.002680
v 0.001272 -0.158275 0.002287
v -0.001402 -0.159107 -0.000148
v -0.002487 -0.154019 -0.000001
v -0.003738 -0.155097 -0.004052
v 0.000543 -0.156333 -0.005856
v 0.002494 -0.154542 -0.002999
v 0.003911 -0.155581 0.001592
v 0.002273 -0.150258 0.000696
v 0.001341 -0.149261 -0.003926
v -0.000421 -0.148151 0.001005
v -0.000568 -0.150694 -0.007460
v -0.003067 -0.148767 -0.000058
v -0.004083 -0.149739 -0.004931
v 0.000478 -0.153195 0.001682
vn 0.6445 -0.0059 0.7646
vn 0.8788 0.1234 0.4610
vn -0.3384 0.1293 -0.9321
vn -0.9153 0.1075 0.3882
vn -0.6502 0.0570 0.7576
vn -0.1003 0.4042 0.9092
vn 0.8639 -0.1663 0.4755
vn 0.9172 -0.2283 -0.3267
vn 0.0139 -0.1197 0.9927
vn -0.0045 -0.0657 0.9978
vn 0.1457 -0.3142 -0.9381
vn -0.9117 -0.2298 -0.3405
vn -0.8540 -0.1275 0.5044
vn -0.0111 -0.9600 -0.2797
vn 0.4997 -0.8649 -0.0474
vn -0.5540 -0.6475 0.5233
vn -0.7128 -0.6973 -0.0756
vn -0.9357 -0.2952 -0.1932
vn 0.2523 -0.3268 -0.9108
vn 0.8946 -0.0833 -0.4391
vn 0.8883 0.0071 0.4593
vn 0.9509 -0.1208 -0.2851
vn 0.0154 0.0470 0.9988
vn 0.2085 -0.2832 -0.9361
vn -0.8023 -0.0490 0.5950
vn -0.9028 -0.2095 -0.3756
vn 0.9219 -0.0389 0.3855
vn 0.3721 -0.5810 0.7239
vn -0.3480 -0.5117 0.7856
vn -0.3041 0.0301 0.9522
vn -0.7930 -0.1798 0.5821
vn -0.7779 -0.0709 0.6243
vn -0.9337 -0.1845 -0.3067
vn 0.2252 -0.0095 -0.9743
vn 0.8892 0.1931 -0.4147
vn 0.7525 0.3392 0.5645
vn 0.8112 0.2187 0.5423
vn 0.9383 0.0413 -0.3434
vn -0.0747 0.0952 0.9926
vn 0.1972 -0.1779 -0.9641
vn -0.7673 -0.0205 0.6409
vn -0.9228 -0.1812 -0.3400
vn -0.1709 0.0799 0.9820
vt 0.259869 0.046815
vt 0.287716 0.028188
vt 0.404153 0.003217
vt 0.494745 0.000000
vt 0.478726 0.015585
vt 0.494745 0.680086
vt 0.130679 0.014119
vt 0.259869 0.020451
vt 0.233391 0.126321
vt 0.130134 0.119660
vt 0.715700 0.638796
vt 0.621839 0.641737
vt 0.609207 0.540404
vt 0.661292 0.528334
vt 0.000000 0.000000
vt 0.015170 0.117634
vt 0.856931 0.678994
vt 0.715700 0.681169
vt 0.715831 0.562527
vt 0.850530 0.565878
vt 0.883799 0.012858
vt 0.987857 0.000000
vt 0.992856 0.113223
vt 0.904118 0.120011
vt 0.494745 0.646062
vt 0.502015 0.539551
vt 0.539562 0.796302
vt 0.494745 0.712062
vt 0.549777 0.706007
vt 0.549777 0.794163
vt 0.855246 0.110178
vt 0.735357 0.075466
vt 0.810126 0.000000
vt 0.818331 0.007814
vt 0.048642 0.601450
vt 0.162719 0.571874
vt 0.179603 0.664141
vt 0.093249 0.669230
vt 0.220091 0.242344
vt 0.134206 0.226219
vt 0.599722 0.433525
vt 0.639550 0.410521
vt 0.039359 0.234657
vt 0.519890 0.431985
vt 0.745053 0.442080
vt 0.841652 0.453229
vt 1.000000 0.226158
vt 0.891613 0.228687
vt 0.259869 0.592578
vt 0.242906 0.648413
vt 0.517261 0.646062
vt 0.545203 0.662029
vt 0.856931 0.557640
vt 0.924293 0.555331
vt 0.912713 0.660098
vt 0.868223 0.664917
vt 0.999668 0.567054
vt 1.000000 0.672036
vt 0.906918 0.447559
vt 0.998632 0.452139
vt 0.856931 0.225329
vt 0.763167 0.193037
vt 0.072057 0.480435
vt 0.147509 0.455093
vt 0.244096 0.488819
vt 0.229110 0.371709
vt 0.135620 0.340577
vt 0.586475 0.327018
vt 0.637652 0.279617
vt 0.048482 0.357644
vt 0.528326 0.322568
vt 0.759345 0.317657
vt 0.849932 0.339062
vt 0.995939 0.339347
vt 0.889871 0.338188
vt 0.715700 0.064912
vt 0.602686 0.110621
vt 0.600170 0.002289
vt 0.632277 0.000000
vt 0.662116 0.163758
vt 0.595771 0.218979
vt 0.529516 0.212837
vt 0.541225 0.106245
s 1
usemtl Material_with_Texture.085
f 1/1/1 2/2/2 3/3/3 4/4/4 5/5/5 6/6/6
f 2/7/2 1/8/1 7/9/7 8/10/8
f 1/11/1 9/12/9 10/13/10 7/14/7
f 3/15/3 2/7/2 8/10/8 11/16/11
f 4/17/4 3/18/3 11/19/11 12/20/12
f 5/21/5 4/22/4 12/23/12 13/24/13
f 9/12/9 5/25/5 13/26/13 10/13/10
f 6/27/14 14/28/15 15/29/16 16/30/17
f 17/31/18 18/32/19 6/33/14 16/34/17
f 18/35/19 19/36/20 14/37/15 6/38/14
f 8/10/8 7/9/7 20/39/21 21/40/22
f 7/14/7 10/13/10 22/41/23 20/42/21
f 11/16/11 8/10/8 21/40/22 23/43/24
f 10/13/10 13/26/13 24/44/25 22/41/23
f 12/20/12 11/19/11 23/45/24 25/46/26
f 13/24/13 12/23/12 25/47/26 24/48/25
f 19/36/20 26/49/27 27/50/28 14/37/15
f 14/28/15 27/51/28 28/52/29 15/29/16
f 29/53/30 30/54/31 15/55/16 28/56/29
f 30/54/31 17/57/18 16/58/17 15/55/16
f 31/59/32 32/60/33 17/57/18 30/54/31
f 32/61/33 33/62/34 18/32/19 17/31/18
f 33/63/34 34/64/35 19/36/20 18/35/19
f 34/64/35 35/65/36 26/49/27 19/36/20
f 21/40/22 20/39/21 36/66/37 37/67/38
f 20/42/21 22/41/23 38/68/39 36/69/37
f 23/43/24 21/40/22 37/67/38 39/70/40
f 22/41/23 24/44/25 40/71/41 38/68/39
f 25/46/26 23/45/24 39/72/40 41/73/42
f 24/48/25 25/47/26 41/74/42 40/75/41
f 26/76/27 29/77/30 28/78/29 27/79/28
f 35/80/36 42/81/43 29/77/30 26/76/27
f 42/81/43 31/82/32 30/83/31 29/77/30
f 38/68/39 40/71/41 31/82/32 42/81/43
f 40/75/41 41/74/42 32/60/33 31/59/32
f 41/73/42 39/72/40 33/62/34 32/61/33
f 39/70/40 37/67/38 34/64/35 33/63/34
f 37/67/38 36/66/37 35/65/36 34/64/35
f 36/69/37 38/68/39 42/81/43 35/80/36
