# Blender v3.5.0 OBJ File: ''
# www.blender.org
mtllib fingers6.mtl
o fingers6
v 0.000197 -0.136761 0.026993
v -0.000621 -0.136515 0.020681
v -0.005845 -0.136646 0.016031
v -0.010643 -0.136988 0.020824
v -0.010286 -0.137270 0.025943
v -0.005033 -0.170120 0.021802
v -0.002022 -0.142443 0.026726
v -0.001980 -0.142045 0.021401
v -0.004559 -0.136792 0.029488
v -0.004747 -0.141910 0.028619
v -0.004987 -0.142405 0.016698
v -0.009857 -0.142538 0.020899
v -0.009521 -0.142562 0.025233
v -0.001755 -0.169340 0.024916
v -0.004134 -0.168665 0.025841
v -0.005423 -0.169769 0.021965
v -0.007772 -0.164959 0.022179
v -0.003186 -0.166373 0.018645
v -0.000769 -0.164532 0.023476
v -0.002661 -0.148366 0.026527
v -0.003216 -0.147607 0.022311
v -0.004781 -0.147283 0.027882
v -0.005190 -0.148322 0.018249
v -0.008404 -0.147768 0.026051
v -0.009019 -0.148069 0.020849
v 0.002004 -0.165141 0.027395
v -0.001857 -0.168604 0.028172
v -0.003366 -0.168629 0.027837
v -0.003605 -0.163252 0.027937
v -0.006268 -0.163857 0.025400
v -0.007235 -0.158582 0.026023
v -0.008460 -0.159315 0.021870
v -0.004182 -0.160491 0.020006
v -0.002226 -0.158921 0.023047
v -0.000892 -0.160432 0.027536
v -0.002394 -0.154813 0.027136
v -0.003243 -0.153348 0.022618
v -0.005044 -0.152620 0.027614
v -0.005141 -0.154487 0.018938
v -0.007692 -0.153126 0.026464
v -0.008668 -0.153678 0.021506
v -0.004271 -0.157922 0.027814
vt 0.258124 0.041336
vt 0.286554 0.024243
vt 0.403720 0.002318
vt 0.494218 0.000000
vt 0.477760 0.014520
vt 0.494218 0.704637
vt 0.128371 0.678461
vt 0.000000 0.663292
vt 0.035247 0.554448
vt 0.137636 0.568512
vt 0.715455 0.664586
vt 0.621645 0.666702
vt 0.608949 0.561028
vt 0.660971 0.548880
vt 0.258124 0.700003
vt 0.252443 0.577327
vt 1.000000 0.703583
vt 0.858860 0.706455
vt 0.858968 0.583612
vt 0.993595 0.586275
vt 0.742581 0.011860
vt 0.846695 0.000000
vt 0.851696 0.117412
vt 0.762920 0.123164
vt 0.494218 0.668195
vt 0.501471 0.557509
vt 0.538987 0.819116
vt 0.494218 0.734445
vt 0.549247 0.728167
vt 0.549247 0.816803
vt 0.998292 0.113521
vt 0.878459 0.078357
vt 0.953161 0.000000
vt 0.961370 0.008013
vt 0.258124 0.074141
vt 0.141700 0.097880
vt 0.132454 0.000656
vt 0.219351 0.000000
vt 0.057969 0.434810
vt 0.142362 0.457242
vt 0.599395 0.449670
vt 0.639209 0.426101
vt 0.237839 0.454253
vt 0.519406 0.446284
vt 0.888144 0.458725
vt 0.984719 0.469440
vt 0.858860 0.234524
vt 0.750400 0.235469
vt 0.046202 0.070810
vt 0.068088 0.012537
vt 0.516655 0.668195
vt 0.544576 0.684228
vt 0.715455 0.574786
vt 0.783140 0.574489
vt 0.771408 0.682246
vt 0.726828 0.686332
vt 0.858725 0.588348
vt 0.858860 0.696395
vt 0.765764 0.462662
vt 0.857648 0.469173
vt 1.000000 0.232926
vt 0.906210 0.200641
vt 0.225068 0.197569
vt 0.147565 0.219413
vt 0.053841 0.178327
vt 0.059457 0.300156
vt 0.150241 0.338562
vt 0.586113 0.338763
vt 0.637317 0.290243
vt 0.238724 0.326119
vt 0.527843 0.332886
vt 0.902455 0.329515
vt 0.993007 0.351037
vt 0.854870 0.351974
vt 0.748679 0.348945
vt 0.715455 0.068593
vt 0.602348 0.114330
vt 0.599823 0.001757
vt 0.631993 0.000000
vt 0.661826 0.170430
vt 0.595445 0.226725
vt 0.529029 0.218818
vt 0.540695 0.108130
vn -0.1080 0.3072 0.9455
vn 0.9487 -0.3060 -0.0802
vn 0.4860 -0.1979 0.8513
vn 0.7488 -0.1135 -0.6530
vn -0.6701 -0.1452 -0.7280
vn -0.9871 -0.1452 0.0677
vn -0.5324 -0.1557 0.8320
vn -0.1914 -0.9091 0.3701
vn -0.6347 -0.2844 -0.7185
vn 0.7817 -0.4756 -0.4034
vn 0.9836 -0.1651 -0.0729
vn 0.5304 -0.1013 0.8417
vn 0.8612 -0.2074 -0.4640
vn -0.5226 -0.0470 0.8513
vn -0.6114 -0.1361 -0.7796
vn -0.9799 -0.1711 0.1027
vn 0.7917 -0.5404 -0.2851
vn -0.1389 -0.9771 0.1612
vn -0.7760 -0.1604 0.6100
vn -0.8189 -0.3713 0.4377
vn -0.9146 -0.1494 0.3757
vn -0.5197 0.0020 -0.8544
vn 0.8104 0.2171 -0.5442
vn 0.8714 0.3582 -0.3353
vn 0.9876 0.0077 -0.1568
vn 0.3746 0.0269 0.9268
vn 0.8972 -0.0352 -0.4403
vn -0.4286 -0.0057 0.9035
vn -0.5820 -0.1119 -0.8054
vn -0.9838 -0.0797 0.1607
vn 0.0443 0.0582 0.9973
vn 0.1086 0.0368 0.9934
vn -0.5864 -0.1280 0.7998
vn -0.4513 -0.0715 0.8895
vn -0.9683 -0.0597 0.2424
vn -0.5174 -0.1554 -0.8415
vn 0.8509 0.0781 -0.5194
vn 0.9646 0.2048 -0.1661
vn 0.1961 0.0945 0.9760
usemtl Material_with_Texture.099
s off
f 1/1/1 2/2/1 3/3/1 4/4/1 5/5/1 6/6/1
f 2/7/2 1/8/2 7/9/2 8/10/2
f 1/11/3 9/12/3 10/13/3 7/14/3
f 3/15/4 2/7/4 8/10/4 11/16/4
f 4/17/5 3/18/5 11/19/5 12/20/5
f 5/21/6 4/22/6 12/23/6 13/24/6
f 9/12/7 5/25/7 13/26/7 10/13/7
f 6/27/8 14/28/8 15/29/8 16/30/8
f 17/31/9 18/32/9 6/33/9 16/34/9
f 18/35/10 19/36/10 14/37/10 6/38/10
f 8/10/11 7/9/11 20/39/11 21/40/11
f 7/14/12 10/13/12 22/41/12 20/42/12
f 11/16/13 8/10/13 21/40/13 23/43/13
f 10/13/14 13/26/14 24/44/14 22/41/14
f 12/20/15 11/19/15 23/45/15 25/46/15
f 13/24/16 12/23/16 25/47/16 24/48/16
f 19/36/17 26/49/17 27/50/17 14/37/17
f 14/28/18 27/51/18 28/52/18 15/29/18
f 29/53/19 30/54/19 15/55/19 28/56/19
f 30/54/20 17/57/20 16/58/20 15/55/20
f 31/59/21 32/60/21 17/57/21 30/54/21
f 32/61/22 33/62/22 18/32/22 17/31/22
f 33/63/23 34/64/23 19/36/23 18/35/23
f 34/64/24 35/65/24 26/49/24 19/36/24
f 21/40/25 20/39/25 36/66/25 37/67/25
f 20/42/26 22/41/26 38/68/26 36/69/26
f 23/43/27 21/40/27 37/67/27 39/70/27
f 22/41/28 24/44/28 40/71/28 38/68/28
f 25/46/29 23/45/29 39/72/29 41/73/29
f 24/48/30 25/47/30 41/74/30 40/75/30
f 26/76/31 29/77/31 28/78/31 27/79/31
f 35/80/32 42/81/32 29/77/32 26/76/32
f 42/81/33 31/82/33 30/83/33 29/77/33
f 38/68/34 40/71/34 31/82/34 42/81/34
f 40/75/35 41/74/35 32/60/35 31/59/35
f 41/73/36 39/72/36 33/62/36 32/61/36
f 39/70/37 37/67/37 34/64/37 33/63/37
f 37/67/38 36/66/38 35/65/38 34/64/38
f 36/69/39 38/68/39 42/81/39 35/80/39
