# Blender 4.3.0
# www.blender.org
mtllib fingers3.mtl
o fingers3
v 0.005344 -0.007385 0.004459
v 0.004440 -0.007579 -0.001841
v -0.000831 -0.007602 -0.006400
v -0.005536 -0.007129 -0.001539
v -0.005110 -0.007017 0.003580
v 0.000657 -0.006820 0.007005
v 0.002916 -0.012147 0.004695
v 0.002889 -0.012208 -0.000645
v 0.000259 -0.011311 0.006569
v -0.000189 -0.012620 -0.005266
v -0.004968 -0.012006 -0.001009
v -0.004565 -0.011727 0.003307
v 0.002050 -0.017248 0.004999
v 0.001460 -0.016860 0.000741
v 0.000007 -0.016026 0.006285
v -0.000594 -0.017621 -0.003222
v -0.003642 -0.016277 0.004544
v -0.004348 -0.016880 -0.000607
v 0.002078 -0.022818 0.006141
v 0.001218 -0.021817 0.001527
v -0.000464 -0.020655 0.006466
v -0.000771 -0.022922 -0.002021
v -0.003133 -0.020956 0.005395
v -0.004204 -0.021727 0.000512
v 0.003361 -0.027791 0.006992
v 0.002022 -0.026706 0.002408
v 0.000103 -0.025305 0.007099
v -0.000032 -0.028133 -0.000466
v -0.002896 -0.025762 0.005405
v -0.004208 -0.026608 0.001344
v 0.006056 -0.032133 0.007209
v 0.003260 -0.031666 0.003288
v 0.000563 -0.029977 0.007660
v 0.000710 -0.033424 -0.001344
v -0.002148 -0.030469 0.005214
v -0.003737 -0.031541 0.002116
v 0.002097 -0.034752 0.008320
v 0.002118 -0.035646 0.005135
v 0.000592 -0.034671 0.008006
v -0.001219 -0.036280 0.002137
v -0.000205 -0.034789 0.006030
v -0.001590 -0.035930 0.002276
vn 0.8280 0.4425 0.3443
vn 0.7876 0.4860 -0.3789
vn -0.0195 0.4417 -0.8969
vn -0.7544 0.5712 -0.3236
vn -0.6897 0.5959 0.4112
vn 0.0222 0.5922 0.8055
vn 0.8430 -0.2486 0.4770
vn 0.8919 -0.3135 -0.3259
vn -0.0133 -0.0810 0.9966
vn 0.1199 -0.3424 -0.9319
vn -0.9238 -0.1815 -0.3371
vn -0.8626 -0.0846 0.4988
vn 0.8870 -0.0612 0.4577
vn 0.9382 -0.1968 -0.2846
vn 0.0191 0.0414 0.9990
vn 0.1823 -0.3174 -0.9306
vn -0.8041 -0.0014 0.5945
vn -0.9130 -0.1608 -0.3749
vn 0.8222 0.1745 0.5419
vn 0.9390 -0.0177 -0.3434
vn -0.0705 0.0996 0.9925
vn 0.1807 -0.2017 -0.9626
vn -0.7662 0.0272 0.6421
vn -0.9328 -0.1283 -0.3366
vn 0.7647 0.3056 0.5673
vn 0.8992 0.1518 -0.4104
vn -0.1660 0.0897 0.9820
vn 0.2266 -0.0186 -0.9738
vn -0.7815 -0.0279 0.6233
vn -0.9434 -0.1306 -0.3048
vn 0.9202 -0.1195 0.3728
vn 0.8856 -0.1551 -0.4379
vn -0.3025 0.0456 0.9521
vn 0.2299 -0.3496 -0.9083
vn -0.8028 -0.1461 0.5781
vn -0.9499 -0.2456 -0.1933
vn 0.3023 -0.6166 0.7269
vn 0.4024 -0.9136 -0.0589
vn -0.3875 -0.4924 0.7794
vn -0.1007 -0.9525 -0.2873
vn -0.6005 -0.6234 0.5007
vn -0.7495 -0.6568 -0.0822
vt 0.445231 0.706740
vt 0.546010 0.822715
vt 0.546010 0.990900
vt 0.382603 1.000000
vt 0.295931 0.911401
vt 0.324104 0.752052
vt 0.136352 0.699795
vt 0.000000 0.665135
vt 0.049743 0.549724
vt 0.154999 0.582509
vt 0.741319 0.663880
vt 0.614490 0.675133
vt 0.609545 0.567701
vt 0.684822 0.549524
vt 0.295931 0.721337
vt 0.288404 0.598390
vt 0.741319 0.000000
vt 0.903536 0.000432
vt 0.903536 0.125420
vt 0.748850 0.118799
vt 0.416340 0.009335
vt 0.536591 0.000000
vt 0.535323 0.119075
vt 0.433054 0.122717
vt 0.295931 0.032541
vt 0.322503 0.136968
vt 0.078933 0.428124
vt 0.168407 0.463635
vt 0.606826 0.454611
vt 0.663636 0.426459
vt 0.276908 0.468582
vt 0.412085 0.236749
vt 0.345237 0.247559
vt 0.870101 0.251630
vt 0.759281 0.237078
vt 0.536591 0.238007
vt 0.081979 0.291471
vt 0.179182 0.343136
vt 0.595533 0.342981
vt 0.656622 0.290627
vt 0.280280 0.337520
vt 0.536591 0.452129
vt 0.542640 0.338044
vt 0.853916 0.381697
vt 0.749941 0.356808
vt 0.524849 0.356036
vt 0.403310 0.351560
vt 0.071256 0.172253
vt 0.173858 0.225027
vt 0.604567 0.229894
vt 0.680448 0.169240
vt 0.264108 0.207523
vt 0.548895 0.222197
vt 0.849616 0.513339
vt 0.742148 0.475720
vt 0.520830 0.473750
vt 0.416083 0.466686
vt 0.051237 0.073673
vt 0.163106 0.105864
vt 0.611703 0.116412
vt 0.741319 0.063569
vt 0.295931 0.091270
vt 0.354369 0.470148
vt 0.429450 0.580900
vt 0.352545 0.584022
vt 0.881969 0.636047
vt 0.744271 0.596693
vt 0.514910 0.594300
vt 0.094295 0.000347
vt 0.160551 0.000033
vt 0.610613 0.002835
vt 0.642695 0.000000
vt 0.266636 0.000000
vt 0.410022 0.692301
vt 0.358808 0.696419
vt 0.796108 0.714488
vt 0.786678 0.705985
vt 0.509192 0.706740
vt 0.678116 0.750502
vt 0.704125 0.675133
vt 0.736262 0.693359
vt 0.741319 0.743993
vt 0.729682 0.846437
vt 0.741319 0.844296
s 1
usemtl Material_with_Texture.096
f 1/1/1 2/2/2 3/3/3 4/4/4 5/5/5 6/6/6
f 2/7/2 1/8/1 7/9/7 8/10/8
f 1/11/1 6/12/6 9/13/9 7/14/7
f 3/15/3 2/7/2 8/10/8 10/16/10
f 4/17/4 3/18/3 10/19/10 11/20/11
f 5/21/5 4/22/4 11/23/11 12/24/12
f 6/25/6 5/21/5 12/24/12 9/26/9
f 8/10/8 7/9/7 13/27/13 14/28/14
f 7/14/7 9/13/9 15/29/15 13/30/13
f 10/16/10 8/10/8 14/28/14 16/31/16
f 9/26/9 12/24/12 17/32/17 15/33/15
f 11/20/11 10/19/10 16/34/16 18/35/18
f 12/24/12 11/23/11 18/36/18 17/32/17
f 14/28/14 13/27/13 19/37/19 20/38/20
f 13/30/13 15/29/15 21/39/21 19/40/19
f 16/31/16 14/28/14 20/38/20 22/41/22
f 15/29/15 17/42/17 23/43/23 21/39/21
f 18/35/18 16/34/16 22/44/22 24/45/24
f 17/32/17 18/36/18 24/46/24 23/47/23
f 20/38/20 19/37/19 25/48/25 26/49/26
f 19/40/19 21/39/21 27/50/27 25/51/25
f 22/41/22 20/38/20 26/49/26 28/52/28
f 21/39/21 23/43/23 29/53/29 27/50/27
f 24/45/24 22/44/22 28/54/28 30/55/30
f 23/47/23 24/46/24 30/56/30 29/57/29
f 26/49/26 25/48/25 31/58/31 32/59/32
f 25/51/25 27/50/27 33/60/33 31/61/31
f 28/52/28 26/49/26 32/59/32 34/62/34
f 27/63/27 29/57/29 35/64/35 33/65/33
f 30/55/30 28/54/28 34/66/34 36/67/36
f 29/57/29 30/56/30 36/68/36 35/64/35
f 32/59/32 31/58/31 37/69/37 38/70/38
f 31/61/31 33/60/33 39/71/39 37/72/37
f 34/62/34 32/59/32 38/70/38 40/73/40
f 33/65/33 35/64/35 41/74/41 39/75/39
f 36/67/36 34/66/34 40/76/40 42/77/42
f 35/64/35 36/68/36 42/78/42 41/74/41
f 38/79/38 37/80/37 39/81/39 41/82/41
f 40/83/40 38/79/38 41/82/41 42/84/42
