# Blender v3.5.0 OBJ File: ''
# www.blender.org
mtllib fingers14.mtl
o fingers14
v 0.007591 -0.110324 -0.031279
v 0.006897 -0.110268 -0.036451
v 0.002597 -0.110281 -0.040227
v -0.001311 -0.110219 -0.036269
v -0.001001 -0.110316 -0.032072
v 0.002259 -0.136479 -0.034388
v 0.005600 -0.114707 -0.031297
v 0.005619 -0.114541 -0.035670
v 0.003714 -0.110082 -0.029213
v 0.003398 -0.114122 -0.029753
v 0.003125 -0.114827 -0.039492
v -0.000840 -0.114614 -0.036026
v -0.000543 -0.114529 -0.032480
v 0.004979 -0.135918 -0.031881
v 0.003060 -0.135263 -0.031135
v 0.001952 -0.136183 -0.034264
v 0.000181 -0.132297 -0.034238
v 0.003869 -0.133696 -0.037106
v 0.005926 -0.132217 -0.033225
v 0.004894 -0.119343 -0.031259
v 0.004441 -0.118838 -0.034733
v 0.003201 -0.118366 -0.030176
v 0.002784 -0.119429 -0.038024
v 0.000214 -0.118647 -0.031641
v -0.000325 -0.119000 -0.035886
v 0.008196 -0.132704 -0.030010
v 0.004935 -0.135246 -0.029240
v 0.003700 -0.135211 -0.029506
v 0.003670 -0.130970 -0.029603
v 0.001461 -0.131405 -0.031646
v 0.000836 -0.127200 -0.031308
v -0.000210 -0.127838 -0.034677
v 0.003243 -0.128992 -0.036184
v 0.004906 -0.127756 -0.033757
v 0.005974 -0.128877 -0.030038
v 0.004917 -0.124407 -0.030546
v 0.004244 -0.123343 -0.034289
v 0.002820 -0.122559 -0.030216
v 0.002638 -0.124260 -0.037255
v 0.000633 -0.122878 -0.031128
v -0.000207 -0.123407 -0.035163
v 0.003289 -0.126755 -0.029879
vt 0.259889 0.046812
vt 0.287756 0.028163
vt 0.404219 0.003221
vt 0.494771 0.000000
vt 0.478743 0.015588
vt 0.494771 0.680102
vt 0.130682 0.014098
vt 0.259889 0.020452
vt 0.233401 0.126327
vt 0.130136 0.119664
vt 0.715721 0.638807
vt 0.621876 0.641750
vt 0.609237 0.540432
vt 0.661305 0.528339
vt 0.000000 0.000000
vt 0.015191 0.117645
vt 0.856948 0.679008
vt 0.715721 0.681182
vt 0.715848 0.562528
vt 0.850553 0.565887
vt 0.883789 0.012864
vt 0.987848 0.000000
vt 0.992848 0.113228
vt 0.904126 0.120026
vt 0.494771 0.646081
vt 0.502035 0.539559
vt 0.539583 0.796316
vt 0.494771 0.712070
vt 0.549797 0.706030
vt 0.549797 0.794165
vt 0.855234 0.110155
vt 0.735333 0.075487
vt 0.810122 0.000000
vt 0.818333 0.007800
vt 0.048640 0.601441
vt 0.162720 0.571878
vt 0.179608 0.664149
vt 0.093248 0.669235
vt 0.220120 0.242343
vt 0.134208 0.226215
vt 0.599738 0.433539
vt 0.639580 0.410533
vt 0.039369 0.234652
vt 0.519915 0.431985
vt 0.745066 0.442095
vt 0.841655 0.453224
vt 1.000000 0.226179
vt 0.891620 0.228711
vt 0.259889 0.592587
vt 0.242900 0.648422
vt 0.517285 0.646081
vt 0.545212 0.662041
vt 0.856948 0.557648
vt 0.924297 0.555361
vt 0.912735 0.660120
vt 0.868235 0.664919
vt 0.999671 0.567091
vt 1.000000 0.672065
vt 0.906916 0.447583
vt 0.998642 0.452139
vt 0.856948 0.225343
vt 0.763150 0.193044
vt 0.072064 0.480439
vt 0.147503 0.455107
vt 0.244118 0.488810
vt 0.229132 0.371720
vt 0.135633 0.340581
vt 0.586483 0.327039
vt 0.637670 0.279616
vt 0.048466 0.357647
vt 0.528321 0.322590
vt 0.759354 0.317663
vt 0.849931 0.339068
vt 0.995955 0.339356
vt 0.889897 0.338188
vt 0.715721 0.064913
vt 0.602678 0.110634
vt 0.600185 0.002310
vt 0.632271 0.000000
vt 0.662137 0.163776
vt 0.595782 0.218972
vt 0.529525 0.212835
vt 0.541219 0.106235
vn -0.0838 0.3609 0.9289
vn 0.9308 -0.3580 -0.0741
vn 0.4823 -0.1888 0.8554
vn 0.7374 -0.1749 -0.6525
vn -0.6807 -0.1544 -0.7161
vn -0.9911 -0.1084 0.0775
vn -0.5337 -0.1056 0.8391
vn -0.2288 -0.8920 0.3898
vn -0.6500 -0.2979 -0.6991
vn 0.7484 -0.5381 -0.3878
vn 0.9743 -0.2134 -0.0721
vn 0.5316 -0.0906 0.8421
vn 0.8459 -0.2689 -0.4605
vn -0.5182 0.0078 0.8552
vn -0.6223 -0.1495 -0.7684
vn -0.9845 -0.1342 0.1132
vn 0.7544 -0.5992 -0.2679
vn -0.1823 -0.9649 0.1890
vn -0.7782 -0.1101 0.6183
vn -0.8284 -0.3322 0.4510
vn -0.9174 -0.1031 0.3844
vn -0.5259 -0.0135 -0.8505
vn 0.8151 0.1700 -0.5538
vn 0.8804 0.3208 -0.3494
vn 0.9861 -0.0375 -0.1620
vn 0.3828 0.0523 0.9223
vn 0.8918 -0.0904 -0.4433
vn -0.4216 0.0489 0.9054
vn -0.5925 -0.1267 -0.7956
vn -0.9851 -0.0372 0.1680
vn 0.0552 0.1007 0.9934
vn 0.1182 0.0757 0.9901
vn -0.5863 -0.0760 0.8065
vn -0.4479 -0.0189 0.8939
vn -0.9685 -0.0134 0.2488
vn -0.5301 -0.1758 -0.8295
vn 0.8503 0.0257 -0.5257
vn 0.9699 0.1669 -0.1774
vn 0.2080 0.1311 0.9693
usemtl Material_with_Texture.089
s off
f 1/1/1 2/2/1 3/3/1 4/4/1 5/5/1 6/6/1
f 2/7/2 1/8/2 7/9/2 8/10/2
f 1/11/3 9/12/3 10/13/3 7/14/3
f 3/15/4 2/7/4 8/10/4 11/16/4
f 4/17/5 3/18/5 11/19/5 12/20/5
f 5/21/6 4/22/6 12/23/6 13/24/6
f 9/12/7 5/25/7 13/26/7 10/13/7
f 6/27/8 14/28/8 15/29/8 16/30/8
f 17/31/9 18/32/9 6/33/9 16/34/9
f 18/35/10 19/36/10 14/37/10 6/38/10
f 8/10/11 7/9/11 20/39/11 21/40/11
f 7/14/12 10/13/12 22/41/12 20/42/12
f 11/16/13 8/10/13 21/40/13 23/43/13
f 10/13/14 13/26/14 24/44/14 22/41/14
f 12/20/15 11/19/15 23/45/15 25/46/15
f 13/24/16 12/23/16 25/47/16 24/48/16
f 19/36/17 26/49/17 27/50/17 14/37/17
f 14/28/18 27/51/18 28/52/18 15/29/18
f 29/53/19 30/54/19 15/55/19 28/56/19
f 30/54/20 17/57/20 16/58/20 15/55/20
f 31/59/21 32/60/21 17/57/21 30/54/21
f 32/61/22 33/62/22 18/32/22 17/31/22
f 33/63/23 34/64/23 19/36/23 18/35/23
f 34/64/24 35/65/24 26/49/24 19/36/24
f 21/40/25 20/39/25 36/66/25 37/67/25
f 20/42/26 22/41/26 38/68/26 36/69/26
f 23/43/27 21/40/27 37/67/27 39/70/27
f 22/41/28 24/44/28 40/71/28 38/68/28
f 25/46/29 23/45/29 39/72/29 41/73/29
f 24/48/30 25/47/30 41/74/30 40/75/30
f 26/76/31 29/77/31 28/78/31 27/79/31
f 35/80/32 42/81/32 29/77/32 26/76/32
f 42/81/33 31/82/33 30/83/33 29/77/33
f 38/68/34 40/71/34 31/82/34 42/81/34
f 40/75/35 41/74/35 32/60/35 31/59/35
f 41/73/36 39/72/36 33/62/36 32/61/36
f 39/70/37 37/67/37 34/64/37 33/63/37
f 37/67/38 36/66/38 35/65/38 34/64/38
f 36/69/39 38/68/39 42/81/39 35/80/39
