# Blender v3.5.0 OBJ File: ''
# www.blender.org
mtllib fingers11.mtl
o fingers11
v 0.001029 -0.123118 -0.011369
v 0.001408 -0.122430 -0.007955
v 0.003701 -0.129201 -0.009301
v 0.004425 -0.129142 -0.010770
v -0.001850 -0.117147 -0.011286
v 0.000062 -0.115705 -0.007854
v -0.002095 -0.120159 -0.011934
v -0.000527 -0.126361 -0.011020
v -0.002962 -0.113823 -0.012598
v -0.000922 -0.121629 -0.006434
v 0.001579 -0.127684 -0.006395
v -0.001391 -0.114823 -0.006114
v -0.000707 -0.133489 -0.006523
v -0.000360 -0.133141 -0.010105
v -0.002037 -0.109822 -0.011674
v -0.001388 -0.108824 -0.008580
v -0.003007 -0.107356 -0.013112
v -0.002175 -0.108137 -0.005814
v -0.004857 -0.120240 -0.010773
v -0.003044 -0.126568 -0.010869
v -0.006182 -0.113816 -0.011052
v -0.006774 -0.107346 -0.012133
v -0.001127 -0.123763 -0.001029
v 0.002366 -0.129617 -0.000859
v -0.003579 -0.117215 -0.001605
v -0.001210 -0.133576 -0.003967
v -0.003233 -0.110021 -0.001298
v -0.002352 -0.133541 -0.008981
v -0.002058 -0.133690 -0.002349
v -0.005978 -0.132257 -0.004064
v -0.004946 -0.127632 -0.008270
v -0.001437 -0.102320 -0.012270
v -0.001484 -0.101776 -0.008628
v -0.003080 -0.100893 -0.013746
v -0.002353 -0.101422 -0.005536
v -0.006654 -0.100809 -0.013146
v -0.003611 -0.102936 -0.001341
v -0.006083 -0.121020 -0.007907
v -0.007826 -0.114614 -0.007884
v -0.008957 -0.108094 -0.008218
v -0.009533 -0.101446 -0.008605
v -0.003767 -0.120980 -0.001692
v -0.002817 -0.127346 -0.001656
v -0.004630 -0.114619 -0.001733
v -0.005658 -0.108219 -0.001769
v -0.006399 -0.101809 -0.001671
v -0.005395 -0.126088 -0.004379
v -0.006309 -0.120038 -0.003870
v -0.000445 -0.095269 -0.012787
v -0.000433 -0.094783 -0.009422
v -0.002722 -0.094528 -0.014817
v -0.001588 -0.094635 -0.005427
v -0.006496 -0.094282 -0.014069
v -0.003189 -0.095726 -0.001596
v -0.010170 -0.094826 -0.008947
v -0.005465 -0.095529 -0.000855
v -0.007692 -0.114004 -0.003502
v -0.008707 -0.107908 -0.003738
v -0.009175 -0.101750 -0.003970
v -0.009675 -0.095579 -0.004160
v 0.001892 -0.088590 -0.012775
v 0.002710 -0.088576 -0.009681
v -0.001356 -0.088306 -0.015613
v 0.002099 -0.089311 -0.004658
v -0.007515 -0.087955 -0.015605
v -0.000121 -0.089592 -0.000227
v -0.010601 -0.088216 -0.009678
v -0.005462 -0.089299 0.000627
v -0.010473 -0.089452 -0.004359
v 0.000819 -0.081643 -0.013907
v 0.002799 -0.081882 -0.010539
v 0.001890 -0.082608 -0.004836
v -0.006793 -0.081609 -0.014337
v 0.000377 -0.082608 -0.000301
v -0.009876 -0.081672 -0.008725
v -0.005113 -0.082981 0.000455
v -0.009827 -0.083328 -0.003863
v -0.002782 -0.083352 -0.007939
vt 0.028837 0.696858
vt 0.085522 0.687979
vt 0.056205 0.805236
vt 0.030152 0.804863
vt 0.037901 0.591145
vt 0.092062 0.572675
vt 0.688783 0.655802
vt 0.737826 0.709578
vt 0.788340 0.815191
vt 0.708053 0.762835
vt 0.681197 0.547580
vt 0.695292 0.606257
vt 0.115935 0.670790
vt 0.109645 0.777231
vt 0.124417 0.555987
vt 0.110215 0.869914
vt 0.867984 0.339390
vt 0.861292 0.278800
vt 0.935131 0.248784
vt 0.703171 0.878078
vt 0.034118 0.467808
vt 0.084999 0.454090
vt 0.012746 0.423763
vt 0.019200 0.532511
vt 0.133156 0.442559
vt 0.641096 0.655639
vt 0.665349 0.763799
vt 0.625516 0.545924
vt 0.623098 0.435229
vt 0.687426 0.438225
vt 0.206257 0.709154
vt 0.200243 0.814263
vt 0.203606 0.594250
vt 0.154036 0.871799
vt 0.210364 0.474550
vt 0.832495 0.304456
vt 0.868420 0.383394
vt 0.859990 0.413102
vt 0.788340 0.397256
vt 0.629741 0.782861
vt 0.668156 0.884056
vt 0.025330 0.342947
vt 0.086644 0.335764
vt 0.693297 0.328759
vt 0.718068 0.356333
vt 0.699869 0.482488
vt 0.140322 0.329833
vt 0.632661 0.324256
vt 0.212669 0.355049
vt 0.352895 0.217328
vt 0.302586 0.228631
vt 0.297190 0.118815
vt 0.344247 0.104289
vt 0.356942 0.328322
vt 0.300795 0.339122
vt 0.353876 0.440021
vt 0.284193 0.449054
vt 0.348903 0.552687
vt 0.267422 0.558559
vt 0.568206 0.167803
vt 0.524832 0.215963
vt 0.536430 0.108135
vt 0.623098 0.066734
vt 0.530730 0.279266
vt 0.514686 0.323633
vt 0.935131 0.419872
vt 0.543815 0.000000
vt 0.541973 0.400393
vt 0.501800 0.432095
vt 0.540480 0.519860
vt 0.493933 0.540651
vt 0.410481 0.129918
vt 0.327115 0.000000
vt 0.416419 0.027781
vt 0.490163 0.128246
vt 0.476516 0.025260
vt 0.421129 0.233024
vt 0.016938 0.226463
vt 0.073472 0.220215
vt 0.706749 0.220860
vt 0.742334 0.238274
vt 0.142792 0.217672
vt 0.642766 0.213603
vt 0.209859 0.234918
vt 0.344797 0.665003
vt 0.252090 0.667788
vt 0.552228 0.640558
vt 0.515137 0.646512
vt 0.430275 0.336912
vt 0.428610 0.441232
vt 0.426005 0.545415
vt 0.424166 0.649872
vt 0.479711 0.231348
vt 0.461167 0.334390
vt 0.448009 0.437499
vt 0.444095 0.541224
vt 0.439712 0.645241
vt 0.014602 0.119170
vt 0.064829 0.122277
vt 0.736748 0.116786
vt 0.788340 0.128566
vt 0.150009 0.136180
vt 0.633465 0.104287
vt 0.228631 0.138960
vt 0.333781 0.776827
vt 0.228631 0.776381
vt 0.609978 0.742905
vt 0.521584 0.753023
vt 0.422723 0.754234
vt 0.430275 0.748742
vt 0.000000 0.000000
vt 0.052414 0.009799
vt 0.778358 0.009276
vt 0.149591 0.023339
vt 0.650737 0.000000
vt 0.228631 0.022868
vt 0.348886 0.884551
vt 0.249014 0.880701
vt 0.623098 0.859945
vt 0.531601 0.858863
vt 0.430275 0.855235
vt 0.446082 0.851842
vt 0.963359 0.248784
vt 0.834687 0.248784
vt 0.907987 0.142264
vt 1.000000 0.193794
vt 0.990111 0.096039
vt 0.969162 0.018579
vt 0.788340 0.151660
vt 0.877271 0.000000
vt 0.793379 0.067258
vn 0.9139 0.4056 0.0123
vn 0.8741 0.2965 -0.3848
vn 0.0181 -0.1156 -0.9931
vn 0.5575 0.1310 -0.8197
vn 0.7424 0.2128 0.6352
vn 0.6683 0.0666 0.7409
vn 0.6954 -0.2883 0.6583
vn 0.7571 -0.5509 0.3510
vn 0.6402 -0.7681 -0.0126
vn -0.0254 -0.1343 -0.9906
vn 0.9183 0.0754 -0.3886
vn 0.7665 -0.0291 -0.6415
vn 0.9050 0.1614 0.3937
vn -0.2328 -0.1258 -0.9644
vn -0.4070 -0.1367 -0.9031
vn -0.0483 -0.1348 -0.9897
vn -0.3372 -0.1315 -0.9322
vn 0.8860 0.4480 0.1194
vn 0.9248 0.2084 0.3184
vn 0.8688 -0.4724 -0.1484
vn 0.9387 0.0146 0.3445
vn -0.2208 -0.9752 -0.0116
vn 0.1521 -0.9850 -0.0810
vn -0.6134 -0.2625 -0.7448
vn 0.9960 -0.0381 -0.0803
vn 0.6789 -0.0898 -0.7287
vn 0.9629 0.0147 0.2696
vn -0.2102 -0.1221 -0.9700
vn 0.9625 0.0342 0.2692
vn -0.8294 -0.1702 -0.5321
vn -0.8590 -0.2147 -0.4647
vn -0.8517 -0.1671 -0.4967
vn -0.8487 -0.0848 -0.5220
vn -0.2234 -0.0648 0.9726
vn -0.2252 -0.0113 0.9742
vn 0.6039 -0.7523 0.2635
vn -0.2063 -0.1306 0.9697
vn -0.2063 -0.0298 0.9780
vn -0.1614 -0.0174 0.9867
vn -0.9150 -0.1399 -0.3784
vn -0.5729 -0.0328 0.8190
vn -0.9869 -0.1575 -0.0338
vn 0.9896 -0.1416 0.0258
vn 0.6103 -0.1534 -0.7772
vn 0.9534 -0.1117 0.2802
vn -0.1848 -0.1430 -0.9723
vn 0.9469 -0.0770 0.3123
vn -0.8199 -0.0844 -0.5663
vn 0.0682 -0.0483 0.9965
vn -0.9690 -0.2446 0.0357
vn -0.9846 -0.1649 0.0575
vn -0.9948 -0.0779 0.0653
vn -0.9931 -0.0849 0.0804
vn -0.7146 -0.1334 0.6867
vn -0.5947 -0.1287 0.7936
vn -0.5281 -0.0679 0.8465
vn -0.5923 -0.0484 0.8042
vn -0.6256 -0.0174 0.7799
vn 0.9161 -0.3913 -0.0874
vn 0.6206 -0.2238 -0.7515
vn 0.8501 -0.5094 0.1333
vn -0.0854 -0.1798 -0.9800
vn 0.8020 -0.5257 0.2836
vn -0.8323 -0.1849 -0.5227
vn 0.1814 -0.2635 0.9474
vn -0.9947 -0.0928 0.0431
vn -0.6624 -0.1194 0.7396
vn 0.9177 0.0083 -0.3971
vn 0.6568 -0.0214 -0.7538
vn 0.9895 0.0199 0.1429
vn 0.0359 0.2151 -0.9759
vn 0.9232 -0.0124 0.3840
vn -0.8700 0.1770 -0.4602
vn 0.1470 0.0089 0.9891
vn -0.9937 0.1022 0.0463
vn -0.6918 0.0365 0.7212
vn -0.0109 0.9630 0.2692
vn -0.1753 0.9694 0.1718
vn -0.2144 0.9726 0.0896
vn -0.1291 0.9907 -0.0431
vn 0.2150 0.9681 0.1290
vn -0.0766 0.9949 -0.0652
vn 0.1855 0.9307 0.3151
vn -0.0264 0.9983 -0.0514
usemtl Material_with_Texture.086
s off
f 1/1/1 2/2/1 3/3/1 4/4/1
f 5/5/2 6/6/2 2/2/2 1/1/2
f 7/7/3 1/8/3 4/9/3 8/10/3
f 9/11/4 5/12/4 1/8/4 7/7/4
f 2/2/5 10/13/5 11/14/5 3/3/5
f 6/6/6 12/15/6 10/13/6 2/2/6
f 3/3/7 11/14/7 13/16/7
f 4/4/8 3/3/8 13/16/8
f 13/17/9 14/18/9 4/19/9
f 14/20/10 8/10/10 4/9/10
f 15/21/11 16/22/11 6/6/11 5/5/11
f 17/23/12 15/21/12 5/5/12 9/24/12
f 16/22/13 18/25/13 12/15/13 6/6/13
f 19/26/14 7/7/14 8/10/14 20/27/14
f 21/28/15 9/11/15 7/7/15 19/26/15
f 8/10/16 14/20/16 20/27/16
f 22/29/17 17/30/17 9/11/17 21/28/17
f 10/13/18 23/31/18 24/32/18 11/14/18
f 12/15/19 25/33/19 23/31/19 10/13/19
f 11/14/20 24/32/20 26/34/20 13/16/20
f 18/25/21 27/35/21 25/33/21 12/15/21
f 28/36/22 13/17/22 26/37/22 29/38/22 30/39/22
f 13/17/23 28/36/23 14/18/23
f 31/40/24 20/27/24 14/20/24 28/41/24
f 32/42/25 33/43/25 16/22/25 15/21/25
f 34/44/26 32/45/26 15/46/26 17/30/26
f 33/43/27 35/47/27 18/25/27 16/22/27
f 36/48/28 34/44/28 17/30/28 22/29/28
f 35/47/29 37/49/29 27/35/29 18/25/29
f 38/50/30 19/51/30 20/52/30 31/53/30
f 39/54/31 21/55/31 19/51/31 38/50/31
f 40/56/32 22/57/32 21/55/32 39/54/32
f 41/58/33 36/59/33 22/57/33 40/56/33
f 23/60/34 42/61/34 43/62/34 24/63/34
f 25/64/35 44/65/35 42/61/35 23/60/35
f 24/66/36 29/38/36 26/37/36
f 24/63/37 43/62/37 29/67/37
f 27/68/38 45/69/38 44/65/38 25/64/38
f 37/70/39 46/71/39 45/69/39 27/68/39
f 47/72/40 31/53/40 28/73/40 30/74/40
f 43/62/41 47/75/41 30/76/41 29/67/41
f 48/77/42 38/50/42 31/53/42 47/72/42
f 49/78/43 50/79/43 33/43/43 32/42/43
f 51/80/44 49/81/44 32/45/44 34/44/44
f 50/79/45 52/82/45 35/47/45 33/43/45
f 53/83/46 51/80/46 34/44/46 36/48/46
f 52/82/47 54/84/47 37/49/47 35/47/47
f 55/85/48 53/86/48 36/59/48 41/58/48
f 54/87/49 56/88/49 46/71/49 37/70/49
f 57/89/50 39/54/50 38/50/50 48/77/50
f 58/90/51 40/56/51 39/54/51 57/89/51
f 59/91/52 41/58/52 40/56/52 58/90/52
f 60/92/53 55/85/53 41/58/53 59/91/53
f 42/61/54 48/93/54 47/75/54 43/62/54
f 44/65/55 57/94/55 48/93/55 42/61/55
f 45/69/56 58/95/56 57/94/56 44/65/56
f 46/71/57 59/96/57 58/95/57 45/69/57
f 56/88/58 60/97/58 59/96/58 46/71/58
f 61/98/59 62/99/59 50/79/59 49/78/59
f 63/100/60 61/101/60 49/81/60 51/80/60
f 62/99/61 64/102/61 52/82/61 50/79/61
f 65/103/62 63/100/62 51/80/62 53/83/62
f 64/102/63 66/104/63 54/84/63 52/82/63
f 67/105/64 65/106/64 53/86/64 55/85/64
f 66/107/65 68/108/65 56/88/65 54/87/65
f 69/109/66 67/105/66 55/85/66 60/92/66
f 68/108/67 69/110/67 60/97/67 56/88/67
f 70/111/68 71/112/68 62/99/68 61/98/68
f 70/113/69 61/101/69 63/100/69
f 71/112/70 72/114/70 64/102/70 62/99/70
f 73/115/71 70/113/71 63/100/71 65/103/71
f 72/114/72 74/116/72 66/104/72 64/102/72
f 75/117/73 73/118/73 65/106/73 67/105/73
f 74/119/74 76/120/74 68/108/74 66/107/74
f 77/121/75 75/117/75 67/105/75 69/109/75
f 76/120/76 77/122/76 69/110/76 68/108/76
f 70/123/77 73/124/77 78/125/77
f 71/126/78 70/123/78 78/125/78
f 72/127/79 71/126/79 78/125/79
f 74/128/80 72/127/80 78/125/80
f 73/124/81 75/129/81 78/125/81
f 76/130/82 74/128/82 78/125/82
f 75/129/83 77/131/83 78/125/83
f 77/131/84 76/130/84 78/125/84
