# Blender v3.5.0 OBJ File: ''
# www.blender.org
mtllib fingers15.mtl
o fingers15
v 0.004637 -0.101048 -0.039110
v 0.004947 -0.100645 -0.036284
v 0.006826 -0.106121 -0.037701
v 0.007419 -0.106004 -0.038901
v 0.002278 -0.096167 -0.038763
v 0.003845 -0.095148 -0.035887
v 0.002078 -0.098601 -0.039433
v 0.003362 -0.103717 -0.038976
v 0.001367 -0.093387 -0.039680
v 0.003038 -0.100061 -0.035003
v 0.005087 -0.105016 -0.035254
v 0.002654 -0.094508 -0.034423
v 0.003214 -0.109758 -0.035630
v 0.003498 -0.109306 -0.038544
v 0.002126 -0.090157 -0.038738
v 0.002658 -0.089486 -0.036159
v 0.001331 -0.088072 -0.039799
v 0.002012 -0.089052 -0.033865
v -0.000185 -0.098721 -0.038488
v 0.001300 -0.103893 -0.038862
v -0.001271 -0.093453 -0.038415
v -0.001756 -0.088110 -0.038998
v 0.002870 -0.102059 -0.030681
v 0.005732 -0.106856 -0.030815
v 0.000862 -0.096675 -0.030846
v 0.002802 -0.109949 -0.033543
v 0.001145 -0.090805 -0.030259
v 0.001866 -0.109686 -0.037643
v 0.002107 -0.110118 -0.032224
v -0.001105 -0.108865 -0.033561
v -0.000259 -0.104885 -0.036785
v 0.002618 -0.083992 -0.038875
v 0.002580 -0.083717 -0.035869
v 0.001272 -0.082756 -0.040015
v 0.001867 -0.083572 -0.033324
v -0.001657 -0.082715 -0.039521
v 0.000836 -0.085006 -0.029963
v -0.001190 -0.099493 -0.036179
v -0.002618 -0.094254 -0.035861
v -0.003544 -0.088904 -0.035829
v -0.004016 -0.083449 -0.035836
v 0.000708 -0.099751 -0.031093
v 0.001485 -0.104960 -0.031361
v 0.000001 -0.094546 -0.030830
v -0.000842 -0.089309 -0.030560
v -0.001448 -0.084069 -0.030180
v -0.000627 -0.103804 -0.033530
v -0.001375 -0.098879 -0.032831
v 0.003431 -0.078200 -0.038968
v 0.003441 -0.077960 -0.036192
v 0.001565 -0.077499 -0.040594
v 0.002495 -0.078025 -0.032917
v -0.001527 -0.077332 -0.039971
v 0.001183 -0.079096 -0.029834
v -0.004537 -0.078016 -0.035806
v -0.000682 -0.078970 -0.029219
v -0.002509 -0.093959 -0.032248
v -0.003339 -0.088962 -0.032156
v -0.003722 -0.083913 -0.032058
v -0.004131 -0.078856 -0.031925
v 0.005346 -0.072738 -0.038646
v 0.006017 -0.072870 -0.036114
v 0.002685 -0.072372 -0.040954
v 0.005516 -0.073706 -0.032040
v -0.002361 -0.072084 -0.040932
v 0.003697 -0.074143 -0.028428
v -0.004890 -0.072575 -0.036095
v -0.000679 -0.073943 -0.027716
v -0.004786 -0.073834 -0.031802
v 0.004468 -0.067001 -0.039248
v 0.006090 -0.067354 -0.036504
v 0.005345 -0.068214 -0.031872
v -0.001770 -0.066953 -0.039598
v 0.004105 -0.068426 -0.028162
v -0.004296 -0.067267 -0.035010
v -0.000393 -0.068766 -0.027561
v -0.004256 -0.068848 -0.031110
v 0.001517 -0.068678 -0.034445
vt 0.028857 0.696824
vt 0.085562 0.687946
vt 0.056255 0.805195
vt 0.030182 0.804820
vt 0.037924 0.591111
vt 0.092101 0.572643
vt 0.688803 0.655769
vt 0.737835 0.709537
vt 0.788341 0.815144
vt 0.708067 0.762789
vt 0.681197 0.547555
vt 0.695295 0.606217
vt 0.115962 0.670766
vt 0.109673 0.777196
vt 0.124444 0.555960
vt 0.110246 0.869864
vt 0.867983 0.339382
vt 0.861287 0.278796
vt 0.935135 0.248784
vt 0.703176 0.878024
vt 0.034137 0.467788
vt 0.085042 0.454086
vt 0.012769 0.423736
vt 0.019243 0.532491
vt 0.133182 0.442527
vt 0.641124 0.655598
vt 0.665372 0.763749
vt 0.625528 0.545893
vt 0.623105 0.435208
vt 0.687438 0.438192
vt 0.206284 0.709120
vt 0.200278 0.814224
vt 0.203634 0.594215
vt 0.154068 0.871756
vt 0.210384 0.474531
vt 0.832495 0.304453
vt 0.868422 0.383386
vt 0.859992 0.413108
vt 0.788341 0.397239
vt 0.629757 0.782816
vt 0.668167 0.884010
vt 0.025345 0.342928
vt 0.086680 0.335742
vt 0.693316 0.328744
vt 0.718085 0.356308
vt 0.699888 0.482462
vt 0.140339 0.329810
vt 0.632673 0.324238
vt 0.212685 0.355013
vt 0.352908 0.217322
vt 0.302582 0.228625
vt 0.297190 0.118818
vt 0.344259 0.104289
vt 0.356954 0.328302
vt 0.300815 0.339108
vt 0.353898 0.440009
vt 0.284195 0.449029
vt 0.348908 0.552640
vt 0.267429 0.558531
vt 0.568209 0.167794
vt 0.524858 0.215957
vt 0.536435 0.108143
vt 0.623105 0.066730
vt 0.530750 0.279260
vt 0.514705 0.323609
vt 0.935135 0.419875
vt 0.543828 0.000000
vt 0.541973 0.400368
vt 0.501799 0.432063
vt 0.540488 0.519852
vt 0.493950 0.540631
vt 0.410488 0.129911
vt 0.327123 0.000000
vt 0.416416 0.027783
vt 0.490173 0.128243
vt 0.476527 0.025265
vt 0.421133 0.233002
vt 0.016958 0.226452
vt 0.073500 0.220210
vt 0.706752 0.220847
vt 0.742344 0.238257
vt 0.142816 0.217655
vt 0.642780 0.213580
vt 0.209883 0.234890
vt 0.344808 0.664980
vt 0.252099 0.667764
vt 0.552252 0.640545
vt 0.515160 0.646484
vt 0.430281 0.336909
vt 0.428619 0.441202
vt 0.426015 0.545393
vt 0.424177 0.649843
vt 0.479733 0.231330
vt 0.461167 0.334389
vt 0.448036 0.437475
vt 0.444125 0.541207
vt 0.439749 0.645218
vt 0.014619 0.119184
vt 0.064846 0.122267
vt 0.736757 0.116778
vt 0.788341 0.128576
vt 0.150009 0.136168
vt 0.633491 0.104262
vt 0.228637 0.138950
vt 0.333797 0.776790
vt 0.228637 0.776359
vt 0.609994 0.742871
vt 0.521611 0.752986
vt 0.422727 0.754213
vt 0.430281 0.748725
vt 0.000000 0.000000
vt 0.052410 0.009795
vt 0.778377 0.009269
vt 0.149595 0.023326
vt 0.650743 0.000000
vt 0.228637 0.022855
vt 0.348896 0.884496
vt 0.249027 0.880655
vt 0.623105 0.859914
vt 0.531621 0.858834
vt 0.430281 0.855199
vt 0.446094 0.851810
vt 0.963370 0.248784
vt 0.834686 0.248784
vt 0.907989 0.142255
vt 1.000000 0.193795
vt 0.990105 0.096033
vt 0.969149 0.018573
vt 0.788341 0.151663
vt 0.877269 0.000000
vt 0.793374 0.067268
vn 0.9140 0.4042 0.0355
vn 0.8742 0.3179 -0.3670
vn 0.0180 -0.0587 -0.9981
vn 0.5572 0.1775 -0.8112
vn 0.7423 0.1761 0.6465
vn 0.6681 0.0241 0.7437
vn 0.6952 -0.3254 0.6410
vn 0.7570 -0.5705 0.3185
vn 0.6401 -0.7662 -0.0565
vn -0.0253 -0.0777 -0.9967
vn 0.9184 0.0972 -0.3835
vn 0.7661 0.0074 -0.6426
vn 0.9048 0.1385 0.4027
vn -0.2327 -0.0705 -0.9700
vn -0.4069 -0.0849 -0.9095
vn -0.0484 -0.0781 -0.9958
vn -0.3371 -0.0783 -0.9382
vn 0.8860 0.4405 0.1447
vn 0.9249 0.1898 0.3296
vn 0.8688 -0.4632 -0.1752
vn 0.9387 -0.0051 0.3447
vn -0.2209 -0.9730 -0.0672
vn 0.1523 -0.9788 -0.1370
vn -0.6135 -0.2196 -0.7585
vn 0.9960 -0.0335 -0.0824
vn 0.6787 -0.0481 -0.7328
vn 0.9627 -0.0009 0.2705
vn -0.2100 -0.0665 -0.9754
vn 0.9625 0.0187 0.2707
vn -0.8294 -0.1395 -0.5410
vn -0.8590 -0.1878 -0.4762
vn -0.8518 -0.1384 -0.5052
vn -0.8488 -0.0549 -0.5258
vn -0.2234 -0.1201 0.9673
vn -0.2253 -0.0668 0.9720
vn 0.6039 -0.7661 0.2200
vn -0.2064 -0.1856 0.9607
vn -0.2065 -0.0856 0.9747
vn -0.1613 -0.0736 0.9842
vn -0.9150 -0.1180 -0.3858
vn -0.5731 -0.0794 0.8156
vn -0.9870 -0.1552 -0.0428
vn 0.9896 -0.1428 0.0175
vn 0.6102 -0.1088 -0.7848
vn 0.9534 -0.1276 0.2735
vn -0.1846 -0.0873 -0.9789
vn 0.9468 -0.0950 0.3074
vn -0.8199 -0.0518 -0.5701
vn 0.0682 -0.1051 0.9921
vn -0.9690 -0.2463 0.0216
vn -0.9847 -0.1677 0.0479
vn -0.9948 -0.0815 0.0609
vn -0.9931 -0.0892 0.0756
vn -0.7147 -0.1722 0.6779
vn -0.5946 -0.1737 0.7850
vn -0.5280 -0.1161 0.8412
vn -0.5925 -0.0941 0.8001
vn -0.6257 -0.0618 0.7776
vn 0.9161 -0.3857 -0.1097
vn 0.6206 -0.1806 -0.7631
vn 0.8501 -0.5162 0.1041
vn -0.0853 -0.1235 -0.9887
vn 0.8020 -0.5411 0.2532
vn -0.8323 -0.1547 -0.5323
vn 0.1814 -0.3171 0.9309
vn -0.9947 -0.0952 0.0376
vn -0.6624 -0.1614 0.7316
vn 0.9177 0.0307 -0.3960
vn 0.6568 0.0214 -0.7538
vn 0.9895 0.0117 0.1439
vn 0.0360 0.2704 -0.9621
vn 0.9232 -0.0343 0.3827
vn -0.8700 0.2029 -0.4493
vn 0.1469 -0.0475 0.9880
vn -0.9937 0.0995 0.0520
vn -0.6918 -0.0046 0.7221
vn -0.0109 0.9461 0.3237
vn -0.1752 0.9580 0.2268
vn -0.2144 0.9659 0.1448
vn -0.1292 0.9915 0.0135
vn 0.2149 0.9591 0.1840
vn -0.0765 0.9970 -0.0085
vn 0.1855 0.9113 0.3675
vn -0.0263 0.9996 0.0055
usemtl Material_with_Texture.090
s off
f 1/1/1 2/2/1 3/3/1 4/4/1
f 5/5/2 6/6/2 2/2/2 1/1/2
f 7/7/3 1/8/3 4/9/3 8/10/3
f 9/11/4 5/12/4 1/8/4 7/7/4
f 2/2/5 10/13/5 11/14/5 3/3/5
f 6/6/6 12/15/6 10/13/6 2/2/6
f 3/3/7 11/14/7 13/16/7
f 4/4/8 3/3/8 13/16/8
f 13/17/9 14/18/9 4/19/9
f 14/20/10 8/10/10 4/9/10
f 15/21/11 16/22/11 6/6/11 5/5/11
f 17/23/12 15/21/12 5/5/12 9/24/12
f 16/22/13 18/25/13 12/15/13 6/6/13
f 19/26/14 7/7/14 8/10/14 20/27/14
f 21/28/15 9/11/15 7/7/15 19/26/15
f 8/10/16 14/20/16 20/27/16
f 22/29/17 17/30/17 9/11/17 21/28/17
f 10/13/18 23/31/18 24/32/18 11/14/18
f 12/15/19 25/33/19 23/31/19 10/13/19
f 11/14/20 24/32/20 26/34/20 13/16/20
f 18/25/21 27/35/21 25/33/21 12/15/21
f 28/36/22 13/17/22 26/37/22 29/38/22 30/39/22
f 13/17/23 28/36/23 14/18/23
f 31/40/24 20/27/24 14/20/24 28/41/24
f 32/42/25 33/43/25 16/22/25 15/21/25
f 34/44/26 32/45/26 15/46/26 17/30/26
f 33/43/27 35/47/27 18/25/27 16/22/27
f 36/48/28 34/44/28 17/30/28 22/29/28
f 35/47/29 37/49/29 27/35/29 18/25/29
f 38/50/30 19/51/30 20/52/30 31/53/30
f 39/54/31 21/55/31 19/51/31 38/50/31
f 40/56/32 22/57/32 21/55/32 39/54/32
f 41/58/33 36/59/33 22/57/33 40/56/33
f 23/60/34 42/61/34 43/62/34 24/63/34
f 25/64/35 44/65/35 42/61/35 23/60/35
f 24/66/36 29/38/36 26/37/36
f 24/63/37 43/62/37 29/67/37
f 27/68/38 45/69/38 44/65/38 25/64/38
f 37/70/39 46/71/39 45/69/39 27/68/39
f 47/72/40 31/53/40 28/73/40 30/74/40
f 43/62/41 47/75/41 30/76/41 29/67/41
f 48/77/42 38/50/42 31/53/42 47/72/42
f 49/78/43 50/79/43 33/43/43 32/42/43
f 51/80/44 49/81/44 32/45/44 34/44/44
f 50/79/45 52/82/45 35/47/45 33/43/45
f 53/83/46 51/80/46 34/44/46 36/48/46
f 52/82/47 54/84/47 37/49/47 35/47/47
f 55/85/48 53/86/48 36/59/48 41/58/48
f 54/87/49 56/88/49 46/71/49 37/70/49
f 57/89/50 39/54/50 38/50/50 48/77/50
f 58/90/51 40/56/51 39/54/51 57/89/51
f 59/91/52 41/58/52 40/56/52 58/90/52
f 60/92/53 55/85/53 41/58/53 59/91/53
f 42/61/54 48/93/54 47/75/54 43/62/54
f 44/65/55 57/94/55 48/93/55 42/61/55
f 45/69/56 58/95/56 57/94/56 44/65/56
f 46/71/57 59/96/57 58/95/57 45/69/57
f 56/88/58 60/97/58 59/96/58 46/71/58
f 61/98/59 62/99/59 50/79/59 49/78/59
f 63/100/60 61/101/60 49/81/60 51/80/60
f 62/99/61 64/102/61 52/82/61 50/79/61
f 65/103/62 63/100/62 51/80/62 53/83/62
f 64/102/63 66/104/63 54/84/63 52/82/63
f 67/105/64 65/106/64 53/86/64 55/85/64
f 66/107/65 68/108/65 56/88/65 54/87/65
f 69/109/66 67/105/66 55/85/66 60/92/66
f 68/108/67 69/110/67 60/97/67 56/88/67
f 70/111/68 71/112/68 62/99/68 61/98/68
f 70/113/69 61/101/69 63/100/69
f 71/112/70 72/114/70 64/102/70 62/99/70
f 73/115/71 70/113/71 63/100/71 65/103/71
f 72/114/72 74/116/72 66/104/72 64/102/72
f 75/117/73 73/118/73 65/106/73 67/105/73
f 74/119/74 76/120/74 68/108/74 66/107/74
f 77/121/75 75/117/75 67/105/75 69/109/75
f 76/120/76 77/122/76 69/110/76 68/108/76
f 70/123/77 73/124/77 78/125/77
f 71/126/78 70/123/78 78/125/78
f 72/127/79 71/126/79 78/125/79
f 74/128/80 72/127/80 78/125/80
f 73/124/81 75/129/81 78/125/81
f 76/130/82 74/128/82 78/125/82
f 75/129/83 77/131/83 78/125/83
f 77/131/84 76/130/84 78/125/84
