# Blender 4.3.0
# www.blender.org
mtllib fingers9.mtl
o fingers9
v 0.001718 -0.166486 0.004528
v 0.004710 -0.163984 -0.001020
v 0.002556 -0.164303 -0.005957
v -0.002421 -0.164976 -0.000998
v 0.001700 -0.169455 0.003580
v 0.004770 -0.167761 -0.001287
v -0.002073 -0.168944 -0.001686
v 0.002647 -0.168553 -0.005715
v 0.001370 -0.172573 0.003173
v 0.003854 -0.171355 -0.000673
v -0.000924 -0.172653 -0.001134
v 0.001772 -0.172186 -0.003622
v 0.001470 -0.175413 0.002554
v 0.003837 -0.175145 -0.000353
v -0.000613 -0.176584 -0.000485
v 0.001683 -0.176303 -0.002686
v 0.002822 -0.178224 0.003285
v 0.003965 -0.178761 0.000606
v -0.000159 -0.180527 0.000109
v 0.002454 -0.180884 -0.002212
v 0.003862 -0.181079 0.003757
v 0.005028 -0.182291 0.001213
v 0.001425 -0.183894 0.001155
v 0.003515 -0.184883 -0.000941
v 0.004748 -0.183969 0.004129
v 0.004138 -0.185817 0.002168
v 0.003656 -0.186320 0.002936
vn 0.0396 0.3350 0.9414
vn 0.7197 0.6804 0.1377
vn 0.1432 0.6239 -0.7683
vn -0.8585 0.5124 0.0191
vn 0.0652 -0.2325 0.9704
vn 0.9893 -0.1461 0.0051
vn -0.9668 -0.1782 -0.1834
vn 0.2221 -0.2271 -0.9482
vn -0.0487 -0.1355 0.9896
vn 0.9790 -0.2007 0.0362
vn -0.9699 -0.1935 -0.1480
vn 0.1091 -0.3560 -0.9281
vn -0.1016 0.0598 0.9930
vn 0.9978 0.0349 -0.0570
vn -0.9835 -0.1590 -0.0864
vn 0.0637 -0.1722 -0.9830
vn 0.1366 0.2180 0.9663
vn 0.9722 0.2118 -0.0994
vn -0.9616 -0.2744 -0.0079
vn 0.0836 -0.2205 -0.9718
vn 0.2740 0.1247 0.9536
vn 0.9831 0.0654 -0.1710
vn -0.8621 -0.4928 0.1176
vn 0.1994 -0.6280 -0.7522
vn 0.4070 -0.1561 0.9000
vn 0.5661 -0.8095 -0.1556
vn -0.2122 -0.8455 0.4900
vt 0.851410 1.000000
vt 0.645533 0.896437
vt 0.615245 0.716713
vt 0.851410 0.759640
vt 0.146533 0.000000
vt 0.360713 0.082781
vt 0.335654 0.185846
vt 0.145273 0.127034
vt 0.615245 0.683251
vt 0.383928 0.755112
vt 0.360713 0.618713
vt 0.580358 0.582588
vt 0.000000 0.043528
vt 0.016466 0.184277
vt 0.854026 0.716713
vt 0.615245 0.706427
vt 0.623006 0.591280
vt 0.830642 0.616131
vt 0.331439 0.293936
vt 0.180791 0.251115
vt 0.388524 0.487114
vt 0.552829 0.478108
vt 0.101011 0.303836
vt 0.701181 0.486105
vt 0.825111 0.491569
vt 0.316119 0.390662
vt 0.199732 0.376891
vt 0.400387 0.351735
vt 0.529652 0.381199
vt 0.141754 0.438722
vt 0.731708 0.368790
vt 0.839443 0.375417
vt 0.335680 0.473032
vt 0.238426 0.493479
vt 0.413790 0.215316
vt 0.569345 0.279181
vt 0.161212 0.585164
vt 0.732297 0.229546
vt 0.849356 0.257029
vt 0.349208 0.559918
vt 0.257717 0.602301
vt 0.465136 0.093229
vt 0.595327 0.177162
vt 0.203648 0.707204
vt 0.748645 0.089819
vt 0.848419 0.126983
vt 0.360713 0.649376
vt 0.304240 0.722652
vt 0.552825 0.000000
vt 0.615245 0.074681
vt 0.822640 0.014077
vt 0.854026 0.000000
vt 0.334769 0.739806
s 1
usemtl Material_with_Texture.102
f 1/1/1 2/2/2 3/3/3 4/4/4
f 2/5/2 1/6/1 5/7/5 6/8/6
f 1/9/1 4/10/4 7/11/7 5/12/5
f 3/13/3 2/5/2 6/8/6 8/14/8
f 4/15/4 3/16/3 8/17/8 7/18/7
f 6/8/6 5/7/5 9/19/9 10/20/10
f 5/12/5 7/11/7 11/21/11 9/22/9
f 8/14/8 6/8/6 10/20/10 12/23/12
f 7/18/7 8/17/8 12/24/12 11/25/11
f 10/20/10 9/19/9 13/26/13 14/27/14
f 9/22/9 11/21/11 15/28/15 13/29/13
f 12/23/12 10/20/10 14/27/14 16/30/16
f 11/25/11 12/24/12 16/31/16 15/32/15
f 14/27/14 13/26/13 17/33/17 18/34/18
f 13/29/13 15/28/15 19/35/19 17/36/17
f 16/30/16 14/27/14 18/34/18 20/37/20
f 15/32/15 16/31/16 20/38/20 19/39/19
f 18/34/18 17/33/17 21/40/21 22/41/22
f 17/36/17 19/35/19 23/42/23 21/43/21
f 20/37/20 18/34/18 22/41/22 24/44/24
f 19/39/19 20/38/20 24/45/24 23/46/23
f 22/41/22 21/40/21 25/47/25 26/48/26
f 21/43/21 23/42/23 27/49/27 25/50/25
f 24/44/24 22/41/22 26/48/26
f 23/46/23 24/45/24 26/51/26 27/52/27
f 26/48/26 25/47/25 27/53/27
