# Blender 4.3.0
# www.blender.org
mtllib fingers18.mtl
o fingers18
v 0.011347 -0.040541 0.043304
v 0.007508 -0.043854 0.041462
v 0.007210 -0.040907 0.037384
v 0.009431 -0.035880 0.042121
v 0.010163 -0.045536 0.046154
v 0.007894 -0.048333 0.044200
v 0.007094 -0.040783 0.050398
v 0.006573 -0.035718 0.048104
v 0.007481 -0.046241 0.051743
v 0.004910 -0.044491 0.040393
v 0.004137 -0.040425 0.037316
v 0.005527 -0.048312 0.043816
v 0.003106 -0.038538 0.041865
v 0.009900 -0.050624 0.048871
v 0.009055 -0.052735 0.046621
v 0.008491 -0.051433 0.053725
v 0.006322 -0.052539 0.046701
v 0.002789 -0.041078 0.050717
v 0.001966 -0.036349 0.047896
v 0.003454 -0.046477 0.052305
v 0.004433 -0.051751 0.054184
v 0.000780 -0.045937 0.038786
v -0.001062 -0.041590 0.036111
v 0.002006 -0.048973 0.043288
v 0.003179 -0.053173 0.046803
v -0.004124 -0.038332 0.046011
v -0.005609 -0.041763 0.039717
v 0.010759 -0.055614 0.051204
v 0.010276 -0.057124 0.048995
v 0.009706 -0.056522 0.055870
v 0.007164 -0.057106 0.049050
v 0.005830 -0.056854 0.056139
v 0.004488 -0.058164 0.049194
v -0.003861 -0.043085 0.048058
v -0.001411 -0.047770 0.049210
v 0.000650 -0.052412 0.050976
v 0.002269 -0.057033 0.053110
v -0.003451 -0.046633 0.040861
v -0.001814 -0.050588 0.044225
v -0.000058 -0.054779 0.048051
v 0.001752 -0.059396 0.050904
v 0.013132 -0.060273 0.052861
v 0.010780 -0.061650 0.051530
v 0.010740 -0.061677 0.057649
v 0.007831 -0.061994 0.050726
v 0.007954 -0.061759 0.057694
v 0.006125 -0.063299 0.050295
v 0.003583 -0.061646 0.055244
v 0.003105 -0.064197 0.050981
v 0.015381 -0.064838 0.054560
v 0.011786 -0.066423 0.052519
v 0.011628 -0.066939 0.060218
v 0.009515 -0.066760 0.051418
v 0.009651 -0.066712 0.060035
v 0.007406 -0.068914 0.049562
v 0.004687 -0.066277 0.057556
v 0.004947 -0.069392 0.049443
v 0.014987 -0.069819 0.057487
v 0.012341 -0.069740 0.056016
v 0.013073 -0.071144 0.057954
v 0.009422 -0.070768 0.054471
v 0.010587 -0.071459 0.057964
v 0.007776 -0.071957 0.053341
v 0.004991 -0.070453 0.056652
v 0.004773 -0.073085 0.052457
v 0.010033 -0.070907 0.055818
vn 0.9962 0.0081 -0.0871
vn 0.5550 -0.4654 -0.6895
vn 0.3957 0.0345 -0.9177
vn 0.5487 0.7801 -0.3006
vn 0.9956 -0.0861 -0.0375
vn 0.5175 -0.4392 -0.7344
vn 0.4894 0.3391 0.8034
vn 0.2655 0.8573 0.4411
vn 0.5503 0.2915 0.7824
vn 0.2973 -0.5997 -0.7429
vn 0.2301 0.3873 -0.8928
vn 0.2239 -0.5811 -0.7825
vn -0.2040 0.8931 -0.4009
vn 0.9940 0.1077 -0.0179
vn 0.5521 -0.3295 -0.7659
vn 0.5650 0.3858 0.7294
vn 0.0630 -0.5023 -0.8624
vn -0.2114 0.3141 0.9255
vn -0.2573 0.8917 0.3723
vn -0.2453 0.2177 0.9447
vn -0.3100 0.2579 0.9151
vn 0.0696 -0.6161 -0.7846
vn -0.2143 0.2347 -0.9481
vn 0.1473 -0.6742 -0.7237
vn 0.0466 -0.5542 -0.8311
vn -0.7290 0.6483 0.2196
vn -0.8608 0.2239 -0.4570
vn 0.9759 0.2113 -0.0535
vn 0.5541 -0.2399 -0.7971
vn 0.5075 0.4248 0.7497
vn 0.0840 -0.3913 -0.9164
vn -0.3083 0.2469 0.9187
vn -0.0534 -0.3631 -0.9302
vn -0.8104 -0.0141 0.5857
vn -0.8039 -0.1089 0.5848
vn -0.8174 -0.0444 0.5743
vn -0.8118 -0.0274 0.5834
vn -0.6995 -0.5926 -0.3995
vn -0.6319 -0.6923 -0.3484
vn -0.7617 -0.5531 -0.3374
vn -0.8794 -0.3522 -0.3203
vn 0.9473 0.2611 -0.1859
vn 0.4697 -0.1376 -0.8720
vn 0.4167 0.4599 0.7841
vn 0.2612 -0.1670 -0.9507
vn -0.2394 0.3096 0.9202
vn 0.0623 -0.0179 -0.9979
vn -0.8113 -0.0321 0.5837
vn -0.8513 -0.2008 -0.4847
vn 0.9852 0.0371 -0.1673
vn 0.4866 -0.3330 -0.8077
vn 0.3296 0.0737 0.9412
vn 0.5266 -0.2138 -0.8228
vn -0.2016 0.0049 0.9795
vn 0.3901 -0.2752 -0.8787
vn -0.7578 -0.0700 0.6487
vn -0.5338 -0.3339 -0.7769
vn 0.9252 -0.3781 0.0325
vn 0.4507 -0.5930 -0.6673
vn 0.5497 -0.7941 0.2591
vn 0.6493 -0.5918 -0.4777
vn -0.1004 -0.8943 0.4361
vn 0.5167 -0.8009 -0.3026
vn -0.6905 -0.5138 0.5091
vn -0.4867 -0.8500 -0.2013
vn 0.2445 -0.9444 -0.2198
vt 0.612945 0.635296
vt 0.702404 0.591861
vt 0.746986 0.675215
vt 0.620148 0.728308
vt 0.615640 0.525327
vt 0.686903 0.491175
vt 0.214915 0.607460
vt 0.298921 0.641398
vt 0.289170 0.740018
vt 0.233854 0.713884
vt 0.565141 0.472108
vt 0.553483 0.579815
vt 0.321172 0.566103
vt 0.368584 0.576312
vt 0.353167 0.670856
vt 0.298921 0.644723
vt 0.344556 0.468656
vt 0.386885 0.484752
vt 0.534792 0.759667
vt 0.522484 0.815342
vt 0.425103 0.818316
vt 0.423018 0.687350
vt 0.306085 0.729734
vt 0.611256 0.414246
vt 0.667484 0.393864
vt 0.559025 0.364064
vt 0.352189 0.370174
vt 0.402012 0.388478
vt 0.133129 0.622469
vt 0.144903 0.728556
vt 0.115419 0.514731
vt 0.191843 0.501935
vt 0.298921 0.819385
vt 0.104074 0.405374
vt 0.181466 0.393069
vt 0.446324 0.584403
vt 0.450675 0.687350
vt 0.453285 0.496351
vt 0.534792 0.920231
vt 0.463427 0.394474
vt 0.326051 0.945823
vt 0.456850 1.000000
vt 0.600171 0.307247
vt 0.648050 0.297109
vt 0.547653 0.256536
vt 0.358493 0.271875
vt 0.416079 0.289365
vt 0.101387 0.296219
vt 0.175374 0.283712
vt 0.471023 0.285073
vt 0.000000 0.642099
vt 0.021917 0.740018
vt 0.019564 0.540515
vt 0.031815 0.437199
vt 0.035775 0.333850
vt 0.534785 0.583088
vt 0.547653 0.687348
vt 0.534682 0.483818
vt 0.535061 0.376868
vt 0.533184 0.268277
vt 0.758795 0.581542
vt 0.912323 0.593321
vt 0.913479 0.691290
vt 0.772708 0.684835
vt 0.581095 0.210490
vt 0.634643 0.197050
vt 0.165748 0.176842
vt 0.220275 0.223530
vt 0.202260 0.327964
vt 0.379236 0.174215
vt 0.432633 0.189852
vt 0.113492 0.189606
vt 0.468893 0.179392
vt 0.034108 0.232227
vt 0.531260 0.176434
vt 0.789983 0.480822
vt 0.900635 0.491655
vt 0.827662 0.372113
vt 0.899237 0.388342
vt 0.845007 0.262744
vt 0.903528 0.285035
vt 0.811209 0.172429
vt 0.907235 0.183439
vt 0.562079 0.115157
vt 0.640619 0.103940
vt 0.152422 0.063115
vt 0.236472 0.121048
vt 0.386665 0.079103
vt 0.426503 0.092904
vt 0.116996 0.078639
vt 0.683075 0.107297
vt 0.746986 0.083809
vt 0.712722 0.179160
vt 0.679838 0.198385
vt 0.028350 0.130085
vt 0.469435 0.078828
vt 0.516728 0.085078
vt 0.746986 0.084359
vt 0.913479 0.081342
vt 0.555240 0.004473
vt 0.604421 0.018217
vt 0.157657 0.000000
vt 0.200655 0.016195
vt 0.664824 0.012889
vt 0.807525 0.745399
vt 0.793425 0.698955
vt 0.878525 0.691290
vt 0.891398 0.726419
vt 0.706733 0.000951
vt 0.835261 0.846379
vt 0.891398 0.824469
vt 0.489803 0.000000
vt 0.547653 0.002766
vt 0.770268 0.000000
vt 0.865191 0.014234
vt 0.746986 0.816669
vt 0.711979 0.787074
vt 0.717701 0.728308
vt 0.746986 0.766218
vt 0.639249 0.000000
vt 0.783651 0.761949
vt 0.746986 0.883882
vt 0.750911 0.819573
s 1
usemtl Material_with_Texture.093
f 1/1/1 2/2/2 3/3/3 4/4/4
f 5/5/5 6/6/6 2/2/2 1/1/1
f 7/7/7 1/8/1 4/9/4 8/10/8
f 9/11/9 5/5/5 1/1/1 7/12/7
f 2/13/2 10/14/10 11/15/11 3/16/3
f 6/17/6 12/18/12 10/14/10 2/13/2
f 3/19/3 11/20/11 13/21/13
f 4/22/4 3/19/3 13/21/13
f 8/23/8 4/22/4 13/21/13
f 14/24/14 15/25/15 6/6/6 5/5/5
f 16/26/16 14/24/14 5/5/5 9/11/9
f 15/27/15 17/28/17 12/18/12 6/17/6
f 18/29/18 7/7/7 8/10/8 19/30/19
f 20/31/20 9/32/9 7/7/7 18/29/18
f 19/33/19 8/23/8 13/21/13
f 21/34/21 16/35/16 9/32/9 20/31/20
f 10/14/10 22/36/22 23/37/23 11/15/11
f 12/18/12 24/38/24 22/36/22 10/14/10
f 11/20/11 23/39/23 13/21/13
f 17/28/17 25/40/25 24/38/24 12/18/12
f 26/41/26 19/33/19 13/21/13
f 27/42/27 26/41/26 13/21/13
f 23/39/23 27/42/27 13/21/13
f 28/43/28 29/44/29 15/25/15 14/24/14
f 30/45/30 28/43/28 14/24/14 16/26/16
f 29/46/29 31/47/31 17/28/17 15/27/15
f 32/48/32 30/49/30 16/35/16 21/34/21
f 31/47/31 33/50/33 25/40/25 17/28/17
f 34/51/34 18/29/18 19/30/19 26/52/26
f 35/53/35 20/31/20 18/29/18 34/51/34
f 36/54/36 21/34/21 20/31/20 35/53/35
f 37/55/37 32/48/32 21/34/21 36/54/36
f 22/36/22 38/56/38 27/57/27 23/37/23
f 24/38/24 39/58/39 38/56/38 22/36/22
f 25/40/25 40/59/40 39/58/39 24/38/24
f 33/50/33 41/60/41 40/59/40 25/40/25
f 38/61/38 34/62/34 26/63/26 27/64/27
f 42/65/42 43/66/43 29/44/29 28/43/28
f 44/67/44 42/68/42 28/69/28 30/49/30
f 43/70/43 45/71/45 31/47/31 29/46/29
f 46/72/46 44/67/44 30/49/30 32/48/32
f 45/71/45 47/73/47 33/50/33 31/47/31
f 48/74/48 46/72/46 32/48/32 37/55/37
f 47/73/47 49/75/49 41/60/41 33/50/33
f 39/76/39 35/77/35 34/62/34 38/61/38
f 40/78/40 36/79/36 35/77/35 39/76/39
f 41/80/41 37/81/37 36/79/36 40/78/40
f 49/82/49 48/83/48 37/81/37 41/80/41
f 50/84/50 51/85/51 43/66/43 42/65/42
f 52/86/52 50/87/50 42/68/42 44/67/44
f 51/88/51 53/89/53 45/71/45 43/70/43
f 54/90/54 52/86/52 44/67/44 46/72/46
f 53/91/53 55/92/55 47/93/47 45/94/45
f 56/95/56 54/90/54 46/72/46 48/74/48
f 55/96/55 57/97/57 49/75/49 47/73/47
f 57/98/57 56/99/56 48/83/48 49/82/49
f 58/100/58 59/101/59 51/85/51 50/84/50
f 60/102/60 58/103/58 50/87/50 52/86/52
f 59/101/59 61/104/61 53/91/53 51/85/51
f 62/105/62 60/106/60 52/107/52 54/108/54
f 61/104/61 63/109/63 55/92/55 53/91/53
f 64/110/64 62/105/62 54/108/54 56/111/56
f 63/112/63 65/113/65 57/97/57 55/96/55
f 65/114/65 64/115/64 56/99/56 57/98/57
f 58/116/58 60/117/60 66/118/66
f 59/119/59 58/116/58 66/118/66
f 61/104/61 59/101/59 66/120/66
f 60/106/60 62/105/62 66/121/66
f 63/109/63 61/104/61 66/120/66
f 62/105/62 64/110/64 66/121/66
f 65/122/65 63/123/63 66/121/66
f 64/110/64 65/122/65 66/121/66
