# Blender v3.5.0 OBJ File: ''
# www.blender.org
mtllib fingers9.mtl
o fingers9
v 0.001718 -0.166486 0.004528
v 0.004710 -0.163984 -0.001020
v 0.002556 -0.164303 -0.005957
v -0.002421 -0.164976 -0.000998
v 0.001700 -0.169455 0.003580
v 0.004770 -0.167761 -0.001287
v -0.002073 -0.168944 -0.001686
v 0.002647 -0.168553 -0.005715
v 0.001370 -0.172573 0.003173
v 0.003854 -0.171355 -0.000673
v -0.000924 -0.172653 -0.001134
v 0.001772 -0.172186 -0.003622
v 0.001470 -0.175413 0.002554
v 0.003837 -0.175145 -0.000353
v -0.000613 -0.176584 -0.000485
v 0.001683 -0.176303 -0.002686
v 0.002822 -0.178224 0.003285
v 0.003965 -0.178761 0.000606
v -0.000159 -0.180527 0.000109
v 0.002454 -0.180884 -0.002212
v 0.003862 -0.181079 0.003757
v 0.005028 -0.182291 0.001213
v 0.001425 -0.183894 0.001155
v 0.003515 -0.184883 -0.000941
v 0.004748 -0.183969 0.004129
v 0.004138 -0.185817 0.002168
v 0.003656 -0.186320 0.002936
vt 0.851410 1.000000
vt 0.645533 0.896437
vt 0.615245 0.716713
vt 0.851410 0.759640
vt 0.146533 0.000000
vt 0.360713 0.082781
vt 0.335654 0.185846
vt 0.145273 0.127034
vt 0.615245 0.683251
vt 0.383928 0.755112
vt 0.360713 0.618713
vt 0.580358 0.582588
vt 0.000000 0.043528
vt 0.016466 0.184277
vt 0.854026 0.716713
vt 0.615245 0.706427
vt 0.623006 0.591280
vt 0.830642 0.616131
vt 0.331439 0.293936
vt 0.180791 0.251115
vt 0.388524 0.487114
vt 0.552829 0.478108
vt 0.101011 0.303836
vt 0.701181 0.486105
vt 0.825111 0.491569
vt 0.316119 0.390662
vt 0.199732 0.376891
vt 0.400387 0.351735
vt 0.529652 0.381199
vt 0.141754 0.438722
vt 0.731708 0.368790
vt 0.839443 0.375417
vt 0.335680 0.473032
vt 0.238426 0.493479
vt 0.413790 0.215316
vt 0.569345 0.279181
vt 0.161212 0.585164
vt 0.732297 0.229546
vt 0.849356 0.257029
vt 0.349208 0.559918
vt 0.257717 0.602301
vt 0.465136 0.093229
vt 0.595327 0.177162
vt 0.203648 0.707204
vt 0.748645 0.089819
vt 0.848419 0.126983
vt 0.360713 0.649376
vt 0.304240 0.722652
vt 0.552825 0.000000
vt 0.615245 0.074681
vt 0.822640 0.014077
vt 0.854026 0.000000
vt 0.334769 0.739806
vn -0.1346 0.9722 0.1917
vn 0.8752 -0.0805 0.4770
vn -0.8096 -0.1709 0.5615
vn 0.9086 0.0184 -0.4172
vn -0.6800 0.0035 -0.7332
vn 0.8556 -0.1435 0.4974
vn -0.8431 -0.0899 0.5303
vn 0.8426 -0.3591 -0.4013
vn -0.6131 -0.2879 -0.7356
vn 0.8137 -0.0160 0.5810
vn -0.8543 -0.0496 0.5174
vn 0.7948 -0.1056 -0.5976
vn -0.6625 -0.1623 -0.7312
vn 0.8100 0.3164 0.4937
vn -0.7528 -0.0730 0.6542
vn 0.8180 -0.0108 -0.5751
vn -0.6672 -0.1862 -0.7212
vn 0.8963 0.3428 0.2814
vn -0.6761 -0.1073 0.7290
vn 0.8131 0.0857 -0.5758
vn -0.6802 -0.4308 -0.5930
vn 0.9939 0.0217 0.1079
vn -0.6653 -0.0899 0.7411
vn 0.9122 -0.3045 -0.2743
vn -0.4791 -0.8286 -0.2897
vn 0.8439 -0.4959 0.2048
usemtl Material_with_Texture.102
s off
f 1/1/1 2/2/1 3/3/1 4/4/1
f 2/5/2 1/6/2 5/7/2 6/8/2
f 1/9/3 4/10/3 7/11/3 5/12/3
f 3/13/4 2/5/4 6/8/4 8/14/4
f 4/15/5 3/16/5 8/17/5 7/18/5
f 6/8/6 5/7/6 9/19/6 10/20/6
f 5/12/7 7/11/7 11/21/7 9/22/7
f 8/14/8 6/8/8 10/20/8 12/23/8
f 7/18/9 8/17/9 12/24/9 11/25/9
f 10/20/10 9/19/10 13/26/10 14/27/10
f 9/22/11 11/21/11 15/28/11 13/29/11
f 12/23/12 10/20/12 14/27/12 16/30/12
f 11/25/13 12/24/13 16/31/13 15/32/13
f 14/27/14 13/26/14 17/33/14 18/34/14
f 13/29/15 15/28/15 19/35/15 17/36/15
f 16/30/16 14/27/16 18/34/16 20/37/16
f 15/32/17 16/31/17 20/38/17 19/39/17
f 18/34/18 17/33/18 21/40/18 22/41/18
f 17/36/19 19/35/19 23/42/19 21/43/19
f 20/37/20 18/34/20 22/41/20 24/44/20
f 19/39/21 20/38/21 24/45/21 23/46/21
f 22/41/22 21/40/22 25/47/22 26/48/22
f 21/43/23 23/42/23 27/49/23 25/50/23
f 24/44/24 22/41/24 26/48/24
f 23/46/25 24/45/25 26/51/25 27/52/25
f 26/48/26 25/47/26 27/53/26
