# Blender 4.3.0
# www.blender.org
mtllib fingers4.mtl
o fingers4
v 0.000811 -0.004906 0.005553
v 0.003753 -0.003370 -0.000162
v 0.001497 -0.003687 -0.005040
v -0.003313 -0.003375 0.000023
v 0.000612 -0.007621 0.004762
v 0.003602 -0.006778 -0.000232
v -0.003201 -0.007013 -0.000462
v 0.001364 -0.007492 -0.004578
v 0.000109 -0.010397 0.004524
v 0.002524 -0.009847 0.000582
v -0.002256 -0.010445 0.000264
v 0.000360 -0.010511 -0.002285
v 0.000041 -0.012991 0.004052
v 0.002311 -0.013220 0.001100
v -0.002146 -0.013966 0.001113
v 0.000074 -0.014131 -0.001135
v 0.001237 -0.015633 0.004908
v 0.002266 -0.016417 0.002244
v -0.001896 -0.017518 0.001904
v 0.000598 -0.018302 -0.000435
v 0.002118 -0.018290 0.005512
v 0.003138 -0.019674 0.003017
v -0.000493 -0.020667 0.003099
v 0.001458 -0.021939 0.001025
v 0.002844 -0.020966 0.006020
v 0.002096 -0.022665 0.004168
v 0.001614 -0.023009 0.004969
vn 0.0872 0.3896 0.9168
vn 0.7889 0.6102 0.0725
vn 0.1685 0.5578 -0.8127
vn -0.8074 0.5900 0.0083
vn 0.0715 -0.2036 0.9764
vn 0.9741 -0.2262 -0.0084
vn -0.9781 -0.1390 -0.1551
vn 0.1814 -0.3126 -0.9324
vn -0.0403 -0.0940 0.9948
vn 0.9608 -0.2758 0.0291
vn -0.9811 -0.1595 -0.1095
vn 0.0464 -0.4523 -0.8906
vn -0.0777 0.1199 0.9897
vn 0.9959 -0.0253 -0.0870
vn -0.9919 -0.1158 -0.0532
vn 0.0197 -0.2515 -0.9677
vn 0.1708 0.2793 0.9449
vn 0.9773 0.1624 -0.1361
vn -0.9727 -0.2298 0.0327
vn 0.0432 -0.3038 -0.9518
vn 0.2999 0.1684 0.9390
vn 0.9816 -0.0067 -0.1909
vn -0.8800 -0.4405 0.1776
vn 0.1393 -0.6940 -0.7064
vn 0.4166 -0.1533 0.8961
vn 0.4876 -0.8670 -0.1022
vn -0.2591 -0.8011 0.5395
vt 0.387531 1.000000
vt 0.170960 0.888306
vt 0.133464 0.694295
vt 0.387531 0.739161
vt 0.153630 0.000000
vt 0.387531 0.070213
vt 0.361469 0.170202
vt 0.153140 0.121088
vt 0.661682 0.670841
vt 0.412592 0.753461
vt 0.387531 0.619672
vt 0.624083 0.572894
vt 0.000000 0.055904
vt 0.018526 0.188784
vt 0.917447 0.720007
vt 0.661682 0.694921
vt 0.668379 0.583803
vt 0.890224 0.623119
vt 0.358211 0.274166
vt 0.193260 0.238749
vt 0.417428 0.488034
vt 0.594820 0.472334
vt 0.111087 0.298654
vt 0.751751 0.483920
vt 0.884220 0.497737
vt 0.342338 0.367204
vt 0.214494 0.357343
vt 0.430762 0.355424
vt 0.569863 0.377700
vt 0.155779 0.424583
vt 0.783417 0.370575
vt 0.898764 0.384079
vt 0.362077 0.441669
vt 0.256586 0.465543
vt 0.445634 0.221366
vt 0.612410 0.274195
vt 0.176618 0.561284
vt 0.783153 0.232961
vt 0.908577 0.267730
vt 0.375784 0.521429
vt 0.276555 0.565776
vt 0.500791 0.097655
vt 0.640281 0.171716
vt 0.221459 0.672549
vt 0.801104 0.092411
vt 0.908593 0.134406
vt 0.387531 0.604105
vt 0.328429 0.679099
vt 0.594887 0.000000
vt 0.661682 0.069246
vt 0.883723 0.012434
vt 0.917447 0.000000
vt 0.361902 0.694295
s 1
usemtl Material_with_Texture.097
f 1/1/1 2/2/2 3/3/3 4/4/4
f 2/5/2 1/6/1 5/7/5 6/8/6
f 1/9/1 4/10/4 7/11/7 5/12/5
f 3/13/3 2/5/2 6/8/6 8/14/8
f 4/15/4 3/16/3 8/17/8 7/18/7
f 6/8/6 5/7/5 9/19/9 10/20/10
f 5/12/5 7/11/7 11/21/11 9/22/9
f 8/14/8 6/8/6 10/20/10 12/23/12
f 7/18/7 8/17/8 12/24/12 11/25/11
f 10/20/10 9/19/9 13/26/13 14/27/14
f 9/22/9 11/21/11 15/28/15 13/29/13
f 12/23/12 10/20/10 14/27/14 16/30/16
f 11/25/11 12/24/12 16/31/16 15/32/15
f 14/27/14 13/26/13 17/33/17 18/34/18
f 13/29/13 15/28/15 19/35/19 17/36/17
f 16/30/16 14/27/14 18/34/18 20/37/20
f 15/32/15 16/31/16 20/38/20 19/39/19
f 18/34/18 17/33/17 21/40/21 22/41/22
f 17/36/17 19/35/19 23/42/23 21/43/21
f 20/37/20 18/34/18 22/41/22 24/44/24
f 19/39/19 20/38/20 24/45/24 23/46/23
f 22/41/22 21/40/21 25/47/25 26/48/26
f 21/43/21 23/42/23 27/49/27 25/50/25
f 24/44/24 22/41/22 26/48/26
f 23/46/23 24/45/24 26/51/26 27/52/27
f 26/48/26 25/47/25 27/53/27
