# Blender v3.5.0 OBJ File: ''
# www.blender.org
mtllib fingers18.mtl
o fingers18
v 0.011347 -0.040541 0.043304
v 0.007508 -0.043854 0.041462
v 0.007210 -0.040907 0.037384
v 0.009431 -0.035880 0.042121
v 0.010163 -0.045536 0.046154
v 0.007894 -0.048333 0.044200
v 0.007094 -0.040783 0.050398
v 0.006573 -0.035718 0.048104
v 0.007481 -0.046241 0.051743
v 0.004910 -0.044491 0.040393
v 0.004137 -0.040425 0.037316
v 0.005527 -0.048312 0.043816
v 0.003106 -0.038538 0.041865
v 0.009900 -0.050624 0.048871
v 0.009055 -0.052735 0.046621
v 0.008491 -0.051433 0.053725
v 0.006322 -0.052539 0.046701
v 0.002789 -0.041078 0.050717
v 0.001966 -0.036349 0.047896
v 0.003454 -0.046477 0.052305
v 0.004433 -0.051751 0.054184
v 0.000780 -0.045937 0.038786
v -0.001062 -0.041590 0.036111
v 0.002006 -0.048973 0.043288
v 0.003179 -0.053173 0.046803
v -0.004124 -0.038332 0.046011
v -0.005609 -0.041763 0.039717
v 0.010759 -0.055614 0.051204
v 0.010276 -0.057124 0.048995
v 0.009706 -0.056522 0.055870
v 0.007164 -0.057106 0.049050
v 0.005830 -0.056854 0.056139
v 0.004488 -0.058164 0.049194
v -0.003861 -0.043085 0.048058
v -0.001411 -0.047770 0.049210
v 0.000650 -0.052412 0.050976
v 0.002269 -0.057033 0.053110
v -0.003451 -0.046633 0.040861
v -0.001814 -0.050588 0.044225
v -0.000058 -0.054779 0.048051
v 0.001752 -0.059396 0.050904
v 0.013132 -0.060273 0.052861
v 0.010780 -0.061650 0.051530
v 0.010740 -0.061677 0.057649
v 0.007831 -0.061994 0.050726
v 0.007954 -0.061759 0.057694
v 0.006125 -0.063299 0.050295
v 0.003583 -0.061646 0.055244
v 0.003105 -0.064197 0.050981
v 0.015381 -0.064838 0.054560
v 0.011786 -0.066423 0.052519
v 0.011628 -0.066939 0.060218
v 0.009515 -0.066760 0.051418
v 0.009651 -0.066712 0.060035
v 0.007406 -0.068914 0.049562
v 0.004687 -0.066277 0.057556
v 0.004947 -0.069392 0.049443
v 0.014987 -0.069819 0.057487
v 0.012341 -0.069740 0.056016
v 0.013073 -0.071144 0.057954
v 0.009422 -0.070768 0.054471
v 0.010587 -0.071459 0.057964
v 0.007776 -0.071957 0.053341
v 0.004991 -0.070453 0.056652
v 0.004773 -0.073085 0.052457
v 0.010033 -0.070907 0.055818
vt 0.612945 0.635296
vt 0.702404 0.591861
vt 0.746986 0.675215
vt 0.620148 0.728308
vt 0.615640 0.525327
vt 0.686903 0.491175
vt 0.214915 0.607460
vt 0.298921 0.641398
vt 0.289170 0.740018
vt 0.233854 0.713884
vt 0.565141 0.472108
vt 0.553483 0.579815
vt 0.321172 0.566103
vt 0.368584 0.576312
vt 0.353167 0.670856
vt 0.298921 0.644723
vt 0.344556 0.468656
vt 0.386885 0.484752
vt 0.534792 0.759667
vt 0.522484 0.815342
vt 0.425103 0.818316
vt 0.423018 0.687350
vt 0.306085 0.729734
vt 0.611256 0.414246
vt 0.667484 0.393864
vt 0.559025 0.364064
vt 0.352189 0.370174
vt 0.402012 0.388478
vt 0.133129 0.622469
vt 0.144903 0.728556
vt 0.115419 0.514731
vt 0.191843 0.501935
vt 0.298921 0.819385
vt 0.104074 0.405374
vt 0.181466 0.393069
vt 0.446324 0.584403
vt 0.450675 0.687350
vt 0.453285 0.496351
vt 0.534792 0.920231
vt 0.463427 0.394474
vt 0.326051 0.945823
vt 0.456850 1.000000
vt 0.600171 0.307247
vt 0.648050 0.297109
vt 0.547653 0.256536
vt 0.358493 0.271875
vt 0.416079 0.289365
vt 0.101387 0.296219
vt 0.175374 0.283712
vt 0.471023 0.285073
vt 0.000000 0.642099
vt 0.021917 0.740018
vt 0.019564 0.540515
vt 0.031815 0.437199
vt 0.035775 0.333850
vt 0.534785 0.583088
vt 0.547653 0.687348
vt 0.534682 0.483818
vt 0.535061 0.376868
vt 0.533184 0.268277
vt 0.758795 0.581542
vt 0.912323 0.593321
vt 0.913479 0.691290
vt 0.772708 0.684835
vt 0.581095 0.210490
vt 0.634643 0.197050
vt 0.165748 0.176842
vt 0.220275 0.223530
vt 0.202260 0.327964
vt 0.379236 0.174215
vt 0.432633 0.189852
vt 0.113492 0.189606
vt 0.468893 0.179392
vt 0.034108 0.232227
vt 0.531260 0.176434
vt 0.789983 0.480822
vt 0.900635 0.491655
vt 0.827662 0.372113
vt 0.899237 0.388342
vt 0.845007 0.262744
vt 0.903528 0.285035
vt 0.811209 0.172429
vt 0.907235 0.183439
vt 0.562079 0.115157
vt 0.640619 0.103940
vt 0.152422 0.063115
vt 0.236472 0.121048
vt 0.386665 0.079103
vt 0.426503 0.092904
vt 0.116996 0.078639
vt 0.683075 0.107297
vt 0.746986 0.083809
vt 0.712722 0.179160
vt 0.679838 0.198385
vt 0.028350 0.130085
vt 0.469435 0.078828
vt 0.516728 0.085078
vt 0.746986 0.084359
vt 0.913479 0.081342
vt 0.555240 0.004473
vt 0.604421 0.018217
vt 0.157657 0.000000
vt 0.200655 0.016195
vt 0.664824 0.012889
vt 0.807525 0.745399
vt 0.793425 0.698955
vt 0.878525 0.691290
vt 0.891398 0.726419
vt 0.706733 0.000951
vt 0.835261 0.846379
vt 0.891398 0.824469
vt 0.489803 0.000000
vt 0.547653 0.002766
vt 0.770268 0.000000
vt 0.865191 0.014234
vt 0.746986 0.816669
vt 0.711979 0.787074
vt 0.717701 0.728308
vt 0.746986 0.766218
vt 0.639249 0.000000
vt 0.783651 0.761949
vt 0.746986 0.883882
vt 0.750911 0.819573
vn 0.8147 -0.1502 -0.5601
vn 0.7348 -0.3895 -0.5554
vn 0.8172 0.3644 0.4466
vn 0.8661 0.1279 0.4832
vn 0.1599 -0.6929 -0.7031
vn 0.2970 -0.5457 -0.7836
vn 0.1527 0.9246 -0.3489
vn -0.2773 0.7210 -0.6351
vn -0.3724 0.9057 -0.2024
vn 0.8746 -0.1642 -0.4562
vn 0.8915 0.2403 0.3841
vn 0.0289 -0.5188 -0.8544
vn -0.0366 0.4587 0.8879
vn 0.0844 0.2675 0.9599
vn -0.1109 0.9273 -0.3575
vn 0.0926 0.3601 0.9283
vn 0.3701 -0.4432 -0.8165
vn 0.3650 -0.6604 -0.6563
vn -0.1105 0.9089 -0.4021
vn 0.1626 -0.5724 -0.8037
vn -0.1838 0.9123 -0.3659
vn -0.2196 0.8774 -0.4265
vn -0.2674 0.9179 -0.2932
vn 0.9458 0.0486 -0.3211
vn 0.9036 0.3150 0.2905
vn -0.0376 -0.4729 -0.8803
vn 0.0531 0.3844 0.9217
vn 0.0861 -0.4270 -0.9001
vn -0.4138 0.3778 0.8283
vn -0.4666 0.0948 0.8794
vn -0.6013 0.1068 0.7919
vn -0.6506 0.1139 0.7508
vn -0.4354 -0.4993 -0.7491
vn -0.0301 -0.7525 -0.6579
vn 0.0589 -0.6456 -0.7614
vn -0.1717 -0.5143 -0.8402
vn -0.9672 -0.1859 0.1732
vn 0.7921 -0.0302 -0.6097
vn 0.8135 0.4224 0.3997
vn 0.1336 -0.3908 -0.9107
vn 0.0246 0.3215 0.9466
vn 0.1831 -0.2232 -0.9574
vn -0.5654 0.1125 0.8171
vn -0.3111 -0.2037 -0.9283
vn -0.9222 -0.3429 0.1786
vn -0.9331 -0.2263 0.2794
vn -0.9219 -0.1492 0.3576
vn -0.9357 -0.1963 0.2930
vn 0.5167 -0.0656 -0.8536
vn 0.6876 0.4626 0.5597
vn 0.3497 -0.0661 -0.9345
vn -0.0130 0.4305 0.9025
vn 0.4245 0.1248 -0.8968
vn -0.4339 0.2877 0.8538
vn -0.1422 0.1640 -0.9762
vn -0.9512 -0.2740 0.1422
vn 0.5107 -0.5201 -0.6846
vn 0.6903 0.1303 0.7116
vn 0.4879 -0.5645 -0.6658
vn -0.0261 -0.4413 0.8970
vn 0.7648 -0.4326 -0.4775
vn -0.3585 -0.3397 0.8695
vn 0.3198 -0.6682 -0.6718
vn -0.9999 -0.0155 0.0038
vn 0.3577 -0.7244 -0.5894
vn 0.3698 -0.6130 -0.6982
vn 0.4514 -0.8433 -0.2918
vn 0.1197 -0.9536 -0.2762
vn 0.6987 -0.6065 -0.3795
vn -0.1231 -0.9683 -0.2173
vn 0.3225 -0.9407 0.1050
vn 0.0115 -0.8473 0.5310
usemtl Material_with_Texture.093
s off
f 1/1/1 2/2/1 3/3/1 4/4/1
f 5/5/2 6/6/2 2/2/2 1/1/2
f 7/7/3 1/8/3 4/9/3 8/10/3
f 9/11/4 5/5/4 1/1/4 7/12/4
f 2/13/5 10/14/5 11/15/5 3/16/5
f 6/17/6 12/18/6 10/14/6 2/13/6
f 3/19/7 11/20/7 13/21/7
f 4/22/8 3/19/8 13/21/8
f 8/23/9 4/22/9 13/21/9
f 14/24/10 15/25/10 6/6/10 5/5/10
f 16/26/11 14/24/11 5/5/11 9/11/11
f 15/27/12 17/28/12 12/18/12 6/17/12
f 18/29/13 7/7/13 8/10/13 19/30/13
f 20/31/14 9/32/14 7/7/14 18/29/14
f 19/33/15 8/23/15 13/21/15
f 21/34/16 16/35/16 9/32/16 20/31/16
f 10/14/17 22/36/17 23/37/17 11/15/17
f 12/18/18 24/38/18 22/36/18 10/14/18
f 11/20/19 23/39/19 13/21/19
f 17/28/20 25/40/20 24/38/20 12/18/20
f 26/41/21 19/33/21 13/21/21
f 27/42/22 26/41/22 13/21/22
f 23/39/23 27/42/23 13/21/23
f 28/43/24 29/44/24 15/25/24 14/24/24
f 30/45/25 28/43/25 14/24/25 16/26/25
f 29/46/26 31/47/26 17/28/26 15/27/26
f 32/48/27 30/49/27 16/35/27 21/34/27
f 31/47/28 33/50/28 25/40/28 17/28/28
f 34/51/29 18/29/29 19/30/29 26/52/29
f 35/53/30 20/31/30 18/29/30 34/51/30
f 36/54/31 21/34/31 20/31/31 35/53/31
f 37/55/32 32/48/32 21/34/32 36/54/32
f 22/36/33 38/56/33 27/57/33 23/37/33
f 24/38/34 39/58/34 38/56/34 22/36/34
f 25/40/35 40/59/35 39/58/35 24/38/35
f 33/50/36 41/60/36 40/59/36 25/40/36
f 38/61/37 34/62/37 26/63/37 27/64/37
f 42/65/38 43/66/38 29/44/38 28/43/38
f 44/67/39 42/68/39 28/69/39 30/49/39
f 43/70/40 45/71/40 31/47/40 29/46/40
f 46/72/41 44/67/41 30/49/41 32/48/41
f 45/71/42 47/73/42 33/50/42 31/47/42
f 48/74/43 46/72/43 32/48/43 37/55/43
f 47/73/44 49/75/44 41/60/44 33/50/44
f 39/76/45 35/77/45 34/62/45 38/61/45
f 40/78/46 36/79/46 35/77/46 39/76/46
f 41/80/47 37/81/47 36/79/47 40/78/47
f 49/82/48 48/83/48 37/81/48 41/80/48
f 50/84/49 51/85/49 43/66/49 42/65/49
f 52/86/50 50/87/50 42/68/50 44/67/50
f 51/88/51 53/89/51 45/71/51 43/70/51
f 54/90/52 52/86/52 44/67/52 46/72/52
f 53/91/53 55/92/53 47/93/53 45/94/53
f 56/95/54 54/90/54 46/72/54 48/74/54
f 55/96/55 57/97/55 49/75/55 47/73/55
f 57/98/56 56/99/56 48/83/56 49/82/56
f 58/100/57 59/101/57 51/85/57 50/84/57
f 60/102/58 58/103/58 50/87/58 52/86/58
f 59/101/59 61/104/59 53/91/59 51/85/59
f 62/105/60 60/106/60 52/107/60 54/108/60
f 61/104/61 63/109/61 55/92/61 53/91/61
f 64/110/62 62/105/62 54/108/62 56/111/62
f 63/112/63 65/113/63 57/97/63 55/96/63
f 65/114/64 64/115/64 56/99/64 57/98/64
f 58/116/65 60/117/65 66/118/65
f 59/119/66 58/116/66 66/118/66
f 61/104/67 59/101/67 66/120/67
f 60/106/68 62/105/68 66/121/68
f 63/109/69 61/104/69 66/120/69
f 62/105/70 64/110/70 66/121/70
f 65/122/71 63/123/71 66/121/71
f 64/110/72 65/122/72 66/121/72
