# Blender 4.3.0
# www.blender.org
mtllib fingers6.mtl
o fingers6
v 0.000197 -0.136761 0.026993
v -0.000621 -0.136515 0.020681
v -0.005845 -0.136646 0.016031
v -0.010643 -0.136988 0.020824
v -0.010286 -0.137270 0.025943
v -0.005033 -0.170120 0.021802
v -0.002022 -0.142443 0.026726
v -0.001980 -0.142045 0.021401
v -0.004559 -0.136792 0.029488
v -0.004747 -0.141910 0.028619
v -0.004987 -0.142405 0.016698
v -0.009857 -0.142538 0.020899
v -0.009521 -0.142562 0.025233
v -0.001755 -0.169340 0.024916
v -0.004134 -0.168665 0.025841
v -0.005423 -0.169769 0.021965
v -0.007772 -0.164959 0.022179
v -0.003186 -0.166373 0.018645
v -0.000769 -0.164532 0.023476
v -0.002661 -0.148366 0.026527
v -0.003216 -0.147607 0.022311
v -0.004781 -0.147283 0.027882
v -0.005190 -0.148322 0.018249
v -0.008404 -0.147768 0.026051
v -0.009019 -0.148069 0.020849
v 0.002004 -0.165141 0.027395
v -0.001857 -0.168604 0.028172
v -0.003366 -0.168629 0.027837
v -0.003605 -0.163252 0.027937
v -0.006268 -0.163857 0.025400
v -0.007235 -0.158582 0.026023
v -0.008460 -0.159315 0.021870
v -0.004182 -0.160491 0.020006
v -0.002226 -0.158921 0.023047
v -0.000892 -0.160432 0.027536
v -0.002394 -0.154813 0.027136
v -0.003243 -0.153348 0.022618
v -0.005044 -0.152620 0.027614
v -0.005141 -0.154487 0.018938
v -0.007692 -0.153126 0.026464
v -0.008668 -0.153678 0.021506
v -0.004271 -0.157922 0.027814
vn 0.6318 -0.0905 0.7698
vn 0.8721 0.0552 0.4862
vn -0.2978 0.2184 -0.9293
vn -0.9189 0.0882 0.3844
vn -0.6579 -0.0003 0.7531
vn -0.1080 0.3072 0.9455
vn 0.8553 -0.2234 0.4675
vn 0.9184 -0.2097 -0.3356
vn 0.0034 -0.2067 0.9784
vn -0.0184 -0.1551 0.9877
vn 0.1523 -0.2192 -0.9637
vn -0.9133 -0.1677 -0.3711
vn -0.8629 -0.1481 0.4832
vn -0.0206 -0.9308 -0.3649
vn 0.4941 -0.8617 -0.1152
vn -0.5745 -0.6740 0.4644
vn -0.7322 -0.6655 -0.1447
vn -0.9416 -0.2459 -0.2299
vn 0.2564 -0.2426 -0.9356
vn 0.8984 -0.0593 -0.4351
vn 0.8815 -0.0564 0.4687
vn 0.9522 -0.1122 -0.2842
vn 0.0025 -0.0477 0.9989
vn 0.2166 -0.1893 -0.9577
vn -0.8110 -0.0829 0.5791
vn -0.9036 -0.1447 -0.4031
vn 0.9137 -0.0918 0.3959
vn 0.3599 -0.6496 0.6697
vn -0.3686 -0.5721 0.7327
vn -0.3156 -0.0517 0.9475
vn -0.8053 -0.2067 0.5557
vn -0.7877 -0.1070 0.6067
vn -0.9343 -0.1272 -0.3332
vn 0.2369 0.0760 -0.9686
vn 0.8994 0.2023 -0.3874
vn 0.7569 0.2576 0.6006
vn 0.8100 0.1409 0.5692
vn 0.9435 0.0486 -0.3279
vn -0.0852 0.0017 0.9964
vn 0.2068 -0.0855 -0.9746
vn -0.7766 -0.0608 0.6271
vn -0.9227 -0.1205 -0.3663
vn -0.1818 -0.0096 0.9833
vt 0.258124 0.041336
vt 0.286554 0.024243
vt 0.403720 0.002318
vt 0.494218 0.000000
vt 0.477760 0.014520
vt 0.494218 0.704637
vt 0.128371 0.678461
vt 0.000000 0.663292
vt 0.035247 0.554448
vt 0.137636 0.568512
vt 0.715455 0.664586
vt 0.621645 0.666702
vt 0.608949 0.561028
vt 0.660971 0.548880
vt 0.258124 0.700003
vt 0.252443 0.577327
vt 1.000000 0.703583
vt 0.858860 0.706455
vt 0.858968 0.583612
vt 0.993595 0.586275
vt 0.742581 0.011860
vt 0.846695 0.000000
vt 0.851696 0.117412
vt 0.762920 0.123164
vt 0.494218 0.668195
vt 0.501471 0.557509
vt 0.538987 0.819116
vt 0.494218 0.734445
vt 0.549247 0.728167
vt 0.549247 0.816803
vt 0.998292 0.113521
vt 0.878459 0.078357
vt 0.953161 0.000000
vt 0.961370 0.008013
vt 0.258124 0.074141
vt 0.141700 0.097880
vt 0.132454 0.000656
vt 0.219351 0.000000
vt 0.057969 0.434810
vt 0.142362 0.457242
vt 0.599395 0.449670
vt 0.639209 0.426101
vt 0.237839 0.454253
vt 0.519406 0.446284
vt 0.888144 0.458725
vt 0.984719 0.469440
vt 0.858860 0.234524
vt 0.750400 0.235469
vt 0.046202 0.070810
vt 0.068088 0.012537
vt 0.516655 0.668195
vt 0.544576 0.684228
vt 0.715455 0.574786
vt 0.783140 0.574489
vt 0.771408 0.682246
vt 0.726828 0.686332
vt 0.858725 0.588348
vt 0.858860 0.696395
vt 0.765764 0.462662
vt 0.857648 0.469173
vt 1.000000 0.232926
vt 0.906210 0.200641
vt 0.225068 0.197569
vt 0.147565 0.219413
vt 0.053841 0.178327
vt 0.059457 0.300156
vt 0.150241 0.338562
vt 0.586113 0.338763
vt 0.637317 0.290243
vt 0.238724 0.326119
vt 0.527843 0.332886
vt 0.902455 0.329515
vt 0.993007 0.351037
vt 0.854870 0.351974
vt 0.748679 0.348945
vt 0.715455 0.068593
vt 0.602348 0.114330
vt 0.599823 0.001757
vt 0.631993 0.000000
vt 0.661826 0.170430
vt 0.595445 0.226725
vt 0.529029 0.218818
vt 0.540695 0.108130
s 1
usemtl Material_with_Texture.099
f 1/1/1 2/2/2 3/3/3 4/4/4 5/5/5 6/6/6
f 2/7/2 1/8/1 7/9/7 8/10/8
f 1/11/1 9/12/9 10/13/10 7/14/7
f 3/15/3 2/7/2 8/10/8 11/16/11
f 4/17/4 3/18/3 11/19/11 12/20/12
f 5/21/5 4/22/4 12/23/12 13/24/13
f 9/12/9 5/25/5 13/26/13 10/13/10
f 6/27/14 14/28/15 15/29/16 16/30/17
f 17/31/18 18/32/19 6/33/14 16/34/17
f 18/35/19 19/36/20 14/37/15 6/38/14
f 8/10/8 7/9/7 20/39/21 21/40/22
f 7/14/7 10/13/10 22/41/23 20/42/21
f 11/16/11 8/10/8 21/40/22 23/43/24
f 10/13/10 13/26/13 24/44/25 22/41/23
f 12/20/12 11/19/11 23/45/24 25/46/26
f 13/24/13 12/23/12 25/47/26 24/48/25
f 19/36/20 26/49/27 27/50/28 14/37/15
f 14/28/15 27/51/28 28/52/29 15/29/16
f 29/53/30 30/54/31 15/55/16 28/56/29
f 30/54/31 17/57/18 16/58/17 15/55/16
f 31/59/32 32/60/33 17/57/18 30/54/31
f 32/61/33 33/62/34 18/32/19 17/31/18
f 33/63/34 34/64/35 19/36/20 18/35/19
f 34/64/35 35/65/36 26/49/27 19/36/20
f 21/40/22 20/39/21 36/66/37 37/67/38
f 20/42/21 22/41/23 38/68/39 36/69/37
f 23/43/24 21/40/22 37/67/38 39/70/40
f 22/41/23 24/44/25 40/71/41 38/68/39
f 25/46/26 23/45/24 39/72/40 41/73/42
f 24/48/25 25/47/26 41/74/42 40/75/41
f 26/76/27 29/77/30 28/78/29 27/79/28
f 35/80/36 42/81/43 29/77/30 26/76/27
f 42/81/43 31/82/32 30/83/31 29/77/30
f 38/68/39 40/71/41 31/82/32 42/81/43
f 40/75/41 41/74/42 32/60/33 31/59/32
f 41/73/42 39/72/40 33/62/34 32/61/33
f 39/70/40 37/67/38 34/64/35 33/63/34
f 37/67/38 36/66/37 35/65/36 34/64/35
f 36/69/37 38/68/39 42/81/43 35/80/36
