# Blender v3.5.0 OBJ File: ''
# www.blender.org
mtllib fingers19.mtl
o fingers19
v 0.006243 -0.074957 0.059788
v 0.003395 -0.077614 0.058615
v 0.005987 -0.079792 0.060412
v 0.008052 -0.078364 0.060576
v 0.010878 -0.077321 0.062114
v 0.011279 -0.072604 0.061244
v 0.010649 -0.068461 0.058765
v 0.004987 -0.071344 0.057885
v 0.002681 -0.073434 0.056778
v 0.004930 -0.077763 0.055419
v 0.006123 -0.079228 0.057202
v 0.003764 -0.074448 0.054814
v 0.008183 -0.084321 0.062719
v 0.010147 -0.083051 0.064403
v 0.008797 -0.085495 0.060615
v 0.013983 -0.076503 0.063179
v 0.014340 -0.072653 0.062693
v 0.014015 -0.082315 0.064436
v 0.013641 -0.068138 0.059484
v 0.011444 -0.070828 0.055668
v 0.006887 -0.072424 0.055166
v 0.009696 -0.076444 0.053068
v 0.009638 -0.078464 0.055124
v 0.008619 -0.073778 0.052164
v 0.011270 -0.085269 0.059311
v 0.009306 -0.087903 0.064691
v 0.011385 -0.087592 0.065393
v 0.009736 -0.089448 0.062655
v 0.015909 -0.087091 0.065924
v 0.012077 -0.090222 0.062135
v 0.015078 -0.077140 0.059956
v 0.015269 -0.074029 0.058979
v 0.014634 -0.083110 0.061767
v 0.015525 -0.070420 0.057228
v 0.015728 -0.087917 0.063559
v 0.013635 -0.072710 0.052868
v 0.012661 -0.075513 0.054369
v 0.012827 -0.077888 0.056338
v 0.013539 -0.084591 0.059936
v 0.014417 -0.089413 0.062367
v 0.010293 -0.094538 0.065397
v 0.013277 -0.090401 0.067079
v 0.011951 -0.093956 0.063832
v 0.016491 -0.091780 0.066972
v 0.016959 -0.093212 0.065663
v 0.014948 -0.093382 0.064562
v 0.012560 -0.096206 0.066389
v 0.014807 -0.096000 0.065721
v 0.016050 -0.096602 0.067109
vt 0.222044 0.137378
vt 0.314698 0.176420
vt 0.258064 0.253350
vt 0.199794 0.231446
vt 0.116522 0.232613
vt 0.079979 0.118234
vt 0.083301 0.000000
vt 0.238909 0.032780
vt 0.314698 0.061773
vt 0.945343 0.398282
vt 0.947149 0.484457
vt 0.861542 0.502914
vt 0.878166 0.443320
vt 0.944627 0.597740
vt 0.883909 0.588561
vt 0.223487 0.386908
vt 0.156918 0.379691
vt 0.880832 0.253310
vt 0.941248 0.260514
vt 0.032226 0.236798
vt 0.000000 0.145283
vt 0.063940 0.381698
vt 0.007817 0.012533
vt 0.902818 0.815131
vt 1.000000 0.834269
vt 0.990640 0.908316
vt 0.915602 0.694692
vt 1.000000 0.674880
vt 0.974153 0.597740
vt 0.913046 0.603296
vt 0.600761 0.603931
vt 0.495802 0.632913
vt 0.506387 0.565050
vt 0.579665 0.543287
vt 0.595312 0.685978
vt 0.496853 0.705325
vt 0.804516 0.452800
vt 0.830177 0.251747
vt 0.823844 0.706772
vt 0.208870 0.490658
vt 0.154230 0.498884
vt 0.887273 0.140784
vt 0.947149 0.155002
vt 0.044294 0.513332
vt 0.847657 0.110918
vt 0.600761 0.573995
vt 0.634540 0.484366
vt 0.716548 0.510319
vt 0.701005 0.589906
vt 0.677838 0.342727
vt 0.747270 0.358363
vt 0.696199 0.689828
vt 0.610260 0.711345
vt 0.714753 0.221055
vt 0.773463 0.232148
vt 0.901160 0.918562
vt 0.804516 0.833529
vt 0.413625 0.616237
vt 0.423482 0.541011
vt 0.371628 0.686893
vt 0.457108 0.353401
vt 0.517526 0.361905
vt 0.474163 0.218312
vt 0.535266 0.219354
vt 0.229224 0.655200
vt 0.118842 0.586239
vt 0.858506 0.015377
vt 0.904375 0.000000
vt 0.057052 0.633205
vt 0.575641 0.242279
vt 0.567219 0.122135
vt 0.752225 0.106460
vt 0.799723 0.091528
vt 0.491305 0.105695
vt 0.407242 0.352128
vt 0.345695 0.494030
vt 0.314698 0.568666
vt 0.800737 0.613893
vt 0.804516 0.693362
vt 0.423037 0.224565
vt 0.439125 0.082156
vt 0.182446 0.712585
vt 0.515039 0.038265
vt 0.562704 0.038874
vt 0.600761 0.099584
vt 0.100915 0.744285
vt 0.804516 0.000000
vt 0.486116 0.000000
vn -0.3654 0.1382 0.9205
vn -0.3972 0.1169 0.9103
vn -0.3731 0.3859 0.8437
vn -0.5665 0.2358 0.7896
vn -0.5739 -0.7939 -0.2011
vn -0.8682 -0.3366 -0.3646
vn -0.5461 0.2729 0.7920
vn -0.8934 -0.4429 -0.0753
vn -0.5457 0.3700 0.7519
vn -0.3905 0.1775 0.9033
vn -0.2131 0.2987 0.9303
vn -0.3139 0.4872 0.8149
vn 0.0571 0.8002 -0.5970
vn -0.2605 0.7728 -0.5787
vn -0.3906 0.7288 -0.5624
vn -0.3942 0.7098 -0.5838
vn -0.1523 -0.7538 -0.6392
vn -0.3721 -0.3558 -0.8573
vn -0.3382 -0.5538 -0.7609
vn -0.4053 0.7227 -0.5598
vn -0.5440 0.1434 0.8268
vn -0.9560 -0.2889 -0.0513
vn -0.0983 0.2248 0.9694
vn -0.3560 -0.5007 -0.7890
vn 0.9586 -0.0157 0.2843
vn 0.9619 0.0369 0.2709
vn 0.9271 0.2309 0.2954
vn 0.9557 0.2940 -0.0115
vn 0.1649 0.7589 -0.6299
vn 0.1041 0.8612 -0.4974
vn -0.1560 0.8140 -0.5595
vn 0.4236 -0.6061 -0.6732
vn 0.3134 -0.3773 -0.8714
vn 0.3746 -0.4133 -0.8300
vn 0.2935 -0.4129 -0.8622
vn -0.4785 0.0757 0.8748
vn -0.8551 -0.3153 -0.4115
vn -0.0131 0.3387 0.9408
vn -0.3192 -0.3832 -0.8668
vn 0.9850 0.1702 -0.0276
vn 0.2659 -0.4236 -0.8660
vn 0.8694 -0.1783 -0.4609
vn 0.8628 -0.2422 -0.4438
vn 0.8925 -0.3282 -0.3095
vn 0.8177 -0.0824 -0.5697
vn 0.6276 -0.2263 -0.7449
vn -0.4331 -0.0535 0.8998
vn -0.2012 -0.7587 -0.6196
vn 0.0437 0.0244 0.9987
vn -0.2110 -0.0896 0.9734
vn 0.2885 -0.4005 -0.8697
vn 0.9117 -0.0719 0.4046
vn 0.4689 -0.3785 -0.7980
vn 0.5610 -0.4475 -0.6965
vn -0.0272 -0.9258 -0.3771
usemtl Material_with_Texture.094
s off
f 1/1/1 2/2/1 3/3/1 4/4/1
f 4/4/2 5/5/2 6/6/2 1/1/2
f 6/6/3 7/7/3 8/8/3 1/1/3
f 1/1/4 8/8/4 9/9/4 2/2/4
f 3/10/5 2/11/5 10/12/5 11/13/5
f 10/12/6 2/11/6 9/14/6 12/15/6
f 4/4/7 3/3/7 13/16/7 14/17/7
f 3/10/8 11/13/8 15/18/8 13/19/8
f 4/4/9 14/17/9 5/5/9
f 6/6/10 5/5/10 16/20/10 17/21/10
f 5/5/11 14/17/11 18/22/11 16/20/11
f 7/7/12 6/6/12 17/21/12 19/23/12
f 20/24/13 7/25/13 19/26/13
f 7/25/14 20/24/14 21/27/14 8/28/14
f 8/28/15 21/27/15 9/29/15
f 9/29/16 21/27/16 12/30/16
f 10/31/17 22/32/17 23/33/17 11/34/17
f 12/35/18 24/36/18 22/32/18 10/31/18
f 11/13/19 23/37/19 25/38/19 15/18/19
f 12/30/20 21/27/20 24/39/20
f 13/16/21 26/40/21 27/41/21 14/17/21
f 13/19/22 15/18/22 28/42/22 26/43/22
f 14/17/23 27/41/23 29/44/23 18/22/23
f 15/18/24 25/38/24 30/45/24 28/42/24
f 17/46/25 16/47/25 31/48/25 32/49/25
f 31/48/26 16/47/26 18/50/26 33/51/26
f 32/49/27 34/52/27 19/53/27 17/46/27
f 33/51/28 18/50/28 29/54/28 35/55/28
f 20/24/29 19/26/29 34/56/29
f 34/56/30 36/57/30 20/24/30
f 20/24/31 36/57/31 24/39/31 21/27/31
f 22/32/32 37/58/32 38/59/32 23/33/32
f 22/32/33 24/36/33 36/60/33 37/58/33
f 23/33/34 38/59/34 39/61/34 25/62/34
f 25/62/35 39/61/35 40/63/35 30/64/35
f 26/40/36 41/65/36 42/66/36 27/41/36
f 26/43/37 28/42/37 43/67/37 41/68/37
f 27/41/38 42/66/38 44/69/38 29/44/38
f 28/70/39 30/64/39 43/71/39
f 35/55/40 29/54/40 44/72/40 45/73/40
f 30/64/41 40/63/41 46/74/41 43/71/41
f 33/75/42 39/61/42 38/59/42 31/76/42
f 31/76/43 38/59/43 37/58/43 32/77/43
f 37/78/44 36/79/44 34/52/44 32/49/44
f 35/80/45 40/63/45 39/61/45 33/75/45
f 45/81/46 46/74/46 40/63/46 35/80/46
f 41/65/47 47/82/47 42/66/47
f 48/83/48 47/84/48 41/85/48 43/71/48
f 49/86/49 44/69/49 42/66/49
f 42/66/50 47/82/50 49/86/50
f 43/71/51 46/74/51 48/83/51
f 49/87/52 45/73/52 44/72/52
f 48/83/53 46/74/53 45/81/53
f 49/88/54 48/83/54 45/81/54
f 49/88/55 47/84/55 48/83/55
