# Blender 4.3.0
# www.blender.org
mtllib fingers11.mtl
o fingers11
v 0.001029 -0.123118 -0.011369
v 0.001408 -0.122430 -0.007955
v 0.003701 -0.129201 -0.009301
v 0.004425 -0.129142 -0.010770
v -0.001850 -0.117147 -0.011286
v 0.000062 -0.115705 -0.007854
v -0.002095 -0.120159 -0.011934
v -0.000527 -0.126361 -0.011020
v -0.002962 -0.113823 -0.012598
v -0.000922 -0.121629 -0.006434
v 0.001579 -0.127684 -0.006395
v -0.001391 -0.114823 -0.006114
v -0.000707 -0.133489 -0.006523
v -0.000360 -0.133141 -0.010105
v -0.002037 -0.109822 -0.011674
v -0.001388 -0.108824 -0.008580
v -0.003007 -0.107356 -0.013112
v -0.002175 -0.108137 -0.005814
v -0.004857 -0.120240 -0.010773
v -0.003044 -0.126568 -0.010869
v -0.006182 -0.113816 -0.011052
v -0.006774 -0.107346 -0.012133
v -0.001127 -0.123763 -0.001029
v 0.002366 -0.129617 -0.000859
v -0.003579 -0.117215 -0.001605
v -0.001210 -0.133576 -0.003967
v -0.003233 -0.110021 -0.001298
v -0.002352 -0.133541 -0.008981
v -0.002058 -0.133690 -0.002349
v -0.005978 -0.132257 -0.004064
v -0.004946 -0.127632 -0.008270
v -0.001437 -0.102320 -0.012270
v -0.001484 -0.101776 -0.008628
v -0.003080 -0.100893 -0.013746
v -0.002353 -0.101422 -0.005536
v -0.006654 -0.100809 -0.013146
v -0.003611 -0.102936 -0.001341
v -0.006083 -0.121020 -0.007907
v -0.007826 -0.114614 -0.007884
v -0.008957 -0.108094 -0.008218
v -0.009533 -0.101446 -0.008605
v -0.003767 -0.120980 -0.001692
v -0.002817 -0.127346 -0.001656
v -0.004630 -0.114619 -0.001733
v -0.005658 -0.108219 -0.001769
v -0.006399 -0.101809 -0.001671
v -0.005395 -0.126088 -0.004379
v -0.006309 -0.120038 -0.003870
v -0.000445 -0.095269 -0.012787
v -0.000433 -0.094783 -0.009422
v -0.002722 -0.094528 -0.014817
v -0.001588 -0.094635 -0.005427
v -0.006496 -0.094282 -0.014069
v -0.003189 -0.095726 -0.001596
v -0.010170 -0.094826 -0.008947
v -0.005465 -0.095529 -0.000855
v -0.007692 -0.114004 -0.003502
v -0.008707 -0.107908 -0.003738
v -0.009175 -0.101750 -0.003970
v -0.009675 -0.095579 -0.004160
v 0.001892 -0.088590 -0.012775
v 0.002710 -0.088576 -0.009681
v -0.001356 -0.088306 -0.015613
v 0.002099 -0.089311 -0.004658
v -0.007515 -0.087955 -0.015605
v -0.000121 -0.089592 -0.000227
v -0.010601 -0.088216 -0.009678
v -0.005462 -0.089299 0.000627
v -0.010473 -0.089452 -0.004359
v 0.000819 -0.081643 -0.013907
v 0.002799 -0.081882 -0.010539
v 0.001890 -0.082608 -0.004836
v -0.006793 -0.081609 -0.014337
v 0.000377 -0.082608 -0.000301
v -0.009876 -0.081672 -0.008725
v -0.005113 -0.082981 0.000455
v -0.009827 -0.083328 -0.003863
v -0.002782 -0.083352 -0.007939
vn 0.6219 0.1661 -0.7652
vn 0.9153 0.2838 0.2857
vn 0.9091 -0.1274 0.3967
vn 0.8087 -0.1350 -0.5725
vn 0.7653 0.1606 -0.6233
vn 0.9751 0.1591 0.1545
vn 0.0662 -0.0291 -0.9974
vn -0.0618 -0.1261 -0.9901
vn 0.2061 -0.0926 -0.9741
vn 0.8445 0.2230 0.4869
vn 0.9186 0.0503 0.3921
vn 0.8939 0.1107 0.4344
vn 0.4110 -0.9114 0.0218
vn 0.0979 -0.7612 -0.6411
vn 0.8796 -0.0070 -0.4756
vn 0.9967 0.0559 0.0584
vn 0.2447 -0.1191 -0.9622
vn 0.9493 0.0502 0.3104
vn -0.6345 -0.1749 -0.7528
vn -0.4798 -0.1838 -0.8579
vn -0.6612 -0.1715 -0.7303
vn -0.6112 -0.1318 -0.7804
vn 0.4590 0.2051 0.8645
vn 0.7280 -0.1736 0.6633
vn 0.4172 0.0745 0.9058
vn 0.3731 -0.9277 0.0110
vn 0.5135 -0.0023 0.8581
vn -0.4862 -0.7589 -0.4333
vn -0.1051 -0.7773 0.6204
vn -0.8507 -0.4622 0.2504
vn -0.8672 -0.1885 -0.4609
vn 0.8982 -0.1084 -0.4260
vn 0.9886 -0.0701 0.1332
vn 0.2333 -0.1479 -0.9611
vn 0.9573 -0.0429 0.2859
vn -0.5570 -0.1174 -0.8222
vn 0.5511 -0.0248 0.8341
vn -0.9449 -0.1991 -0.2600
vn -0.9533 -0.2082 -0.2190
vn -0.9640 -0.1312 -0.2314
vn -0.9647 -0.0877 -0.2483
vn -0.4646 -0.0799 0.8819
vn -0.4295 -0.0813 0.8994
vn -0.3949 -0.0674 0.9163
vn -0.3758 -0.0412 0.9258
vn -0.3585 -0.0363 0.9328
vn -0.9355 -0.1413 0.3238
vn -0.8863 -0.1865 0.4239
vn 0.8575 -0.2435 -0.4532
vn 0.9482 -0.3059 0.0853
vn 0.2439 -0.1929 -0.9504
vn 0.9055 -0.3367 0.2584
vn -0.5155 -0.1669 -0.8405
vn 0.5896 -0.2533 0.7669
vn -0.9611 -0.1159 -0.2507
vn -0.2705 -0.1305 0.9538
vn -0.8534 -0.1630 0.4951
vn -0.8680 -0.0997 0.4864
vn -0.8790 -0.0620 0.4727
vn -0.8890 -0.0867 0.4496
vn 0.8489 -0.1706 -0.5003
vn 0.9766 -0.2103 -0.0455
vn 0.3130 -0.0437 -0.9487
vn 0.9311 -0.2675 0.2480
vn -0.5118 0.0176 -0.8590
vn 0.6229 -0.2360 0.7459
vn -0.9672 0.0050 -0.2541
vn -0.2848 -0.0897 0.9544
vn -0.9168 -0.0263 0.3985
vn 0.4402 0.7266 -0.5275
vn 0.7065 0.7062 -0.0458
vn 0.6506 0.7288 0.2134
vn -0.3347 0.7478 -0.5733
vn 0.4748 0.6371 0.6072
vn -0.6070 0.7946 -0.0109
vn -0.2493 0.6429 0.7242
vn -0.6882 0.6098 0.3931
vn -0.0269 0.9932 0.1135
vt 0.028837 0.696858
vt 0.085522 0.687979
vt 0.056205 0.805236
vt 0.030152 0.804863
vt 0.037901 0.591145
vt 0.092062 0.572675
vt 0.688783 0.655802
vt 0.737826 0.709578
vt 0.788340 0.815191
vt 0.708053 0.762835
vt 0.681197 0.547580
vt 0.695292 0.606257
vt 0.115935 0.670790
vt 0.109645 0.777231
vt 0.124417 0.555987
vt 0.110215 0.869914
vt 0.867984 0.339390
vt 0.861292 0.278800
vt 0.935131 0.248784
vt 0.703171 0.878078
vt 0.034118 0.467808
vt 0.084999 0.454090
vt 0.012746 0.423763
vt 0.019200 0.532511
vt 0.133156 0.442559
vt 0.641096 0.655639
vt 0.665349 0.763799
vt 0.625516 0.545924
vt 0.623098 0.435229
vt 0.687426 0.438225
vt 0.206257 0.709154
vt 0.200243 0.814263
vt 0.203606 0.594250
vt 0.154036 0.871799
vt 0.210364 0.474550
vt 0.832495 0.304456
vt 0.868420 0.383394
vt 0.859990 0.413102
vt 0.788340 0.397256
vt 0.629741 0.782861
vt 0.668156 0.884056
vt 0.025330 0.342947
vt 0.086644 0.335764
vt 0.693297 0.328759
vt 0.718068 0.356333
vt 0.699869 0.482488
vt 0.140322 0.329833
vt 0.632661 0.324256
vt 0.212669 0.355049
vt 0.352895 0.217328
vt 0.302586 0.228631
vt 0.297190 0.118815
vt 0.344247 0.104289
vt 0.356942 0.328322
vt 0.300795 0.339122
vt 0.353876 0.440021
vt 0.284193 0.449054
vt 0.348903 0.552687
vt 0.267422 0.558559
vt 0.568206 0.167803
vt 0.524832 0.215963
vt 0.536430 0.108135
vt 0.623098 0.066734
vt 0.530730 0.279266
vt 0.514686 0.323633
vt 0.935131 0.419872
vt 0.543815 0.000000
vt 0.541973 0.400393
vt 0.501800 0.432095
vt 0.540480 0.519860
vt 0.493933 0.540651
vt 0.410481 0.129918
vt 0.327115 0.000000
vt 0.416419 0.027781
vt 0.490163 0.128246
vt 0.476516 0.025260
vt 0.421129 0.233024
vt 0.016938 0.226463
vt 0.073472 0.220215
vt 0.706749 0.220860
vt 0.742334 0.238274
vt 0.142792 0.217672
vt 0.642766 0.213603
vt 0.209859 0.234918
vt 0.344797 0.665003
vt 0.252090 0.667788
vt 0.552228 0.640558
vt 0.515137 0.646512
vt 0.430275 0.336912
vt 0.428610 0.441232
vt 0.426005 0.545415
vt 0.424166 0.649872
vt 0.479711 0.231348
vt 0.461167 0.334390
vt 0.448009 0.437499
vt 0.444095 0.541224
vt 0.439712 0.645241
vt 0.014602 0.119170
vt 0.064829 0.122277
vt 0.736748 0.116786
vt 0.788340 0.128566
vt 0.150009 0.136180
vt 0.633465 0.104287
vt 0.228631 0.138960
vt 0.333781 0.776827
vt 0.228631 0.776381
vt 0.609978 0.742905
vt 0.521584 0.753023
vt 0.422723 0.754234
vt 0.430275 0.748742
vt 0.000000 0.000000
vt 0.052414 0.009799
vt 0.778358 0.009276
vt 0.149591 0.023339
vt 0.650737 0.000000
vt 0.228631 0.022868
vt 0.348886 0.884551
vt 0.249014 0.880701
vt 0.623098 0.859945
vt 0.531601 0.858863
vt 0.430275 0.855235
vt 0.446082 0.851842
vt 0.963359 0.248784
vt 0.834687 0.248784
vt 0.907987 0.142264
vt 1.000000 0.193794
vt 0.990111 0.096039
vt 0.969162 0.018579
vt 0.788340 0.151660
vt 0.877271 0.000000
vt 0.793379 0.067258
s 1
usemtl Material_with_Texture.086
f 1/1/1 2/2/2 3/3/3 4/4/4
f 5/5/5 6/6/6 2/2/2 1/1/1
f 7/7/7 1/8/1 4/9/4 8/10/8
f 9/11/9 5/12/5 1/8/1 7/7/7
f 2/2/2 10/13/10 11/14/11 3/3/3
f 6/6/6 12/15/12 10/13/10 2/2/2
f 3/3/3 11/14/11 13/16/13
f 4/4/4 3/3/3 13/16/13
f 13/17/13 14/18/14 4/19/4
f 14/20/14 8/10/8 4/9/4
f 15/21/15 16/22/16 6/6/6 5/5/5
f 17/23/17 15/21/15 5/5/5 9/24/9
f 16/22/16 18/25/18 12/15/12 6/6/6
f 19/26/19 7/7/7 8/10/8 20/27/20
f 21/28/21 9/11/9 7/7/7 19/26/19
f 8/10/8 14/20/14 20/27/20
f 22/29/22 17/30/17 9/11/9 21/28/21
f 10/13/10 23/31/23 24/32/24 11/14/11
f 12/15/12 25/33/25 23/31/23 10/13/10
f 11/14/11 24/32/24 26/34/26 13/16/13
f 18/25/18 27/35/27 25/33/25 12/15/12
f 28/36/28 13/17/13 26/37/26 29/38/29 30/39/30
f 13/17/13 28/36/28 14/18/14
f 31/40/31 20/27/20 14/20/14 28/41/28
f 32/42/32 33/43/33 16/22/16 15/21/15
f 34/44/34 32/45/32 15/46/15 17/30/17
f 33/43/33 35/47/35 18/25/18 16/22/16
f 36/48/36 34/44/34 17/30/17 22/29/22
f 35/47/35 37/49/37 27/35/27 18/25/18
f 38/50/38 19/51/19 20/52/20 31/53/31
f 39/54/39 21/55/21 19/51/19 38/50/38
f 40/56/40 22/57/22 21/55/21 39/54/39
f 41/58/41 36/59/36 22/57/22 40/56/40
f 23/60/23 42/61/42 43/62/43 24/63/24
f 25/64/25 44/65/44 42/61/42 23/60/23
f 24/66/24 29/38/29 26/37/26
f 24/63/24 43/62/43 29/67/29
f 27/68/27 45/69/45 44/65/44 25/64/25
f 37/70/37 46/71/46 45/69/45 27/68/27
f 47/72/47 31/53/31 28/73/28 30/74/30
f 43/62/43 47/75/47 30/76/30 29/67/29
f 48/77/48 38/50/38 31/53/31 47/72/47
f 49/78/49 50/79/50 33/43/33 32/42/32
f 51/80/51 49/81/49 32/45/32 34/44/34
f 50/79/50 52/82/52 35/47/35 33/43/33
f 53/83/53 51/80/51 34/44/34 36/48/36
f 52/82/52 54/84/54 37/49/37 35/47/35
f 55/85/55 53/86/53 36/59/36 41/58/41
f 54/87/54 56/88/56 46/71/46 37/70/37
f 57/89/57 39/54/39 38/50/38 48/77/48
f 58/90/58 40/56/40 39/54/39 57/89/57
f 59/91/59 41/58/41 40/56/40 58/90/58
f 60/92/60 55/85/55 41/58/41 59/91/59
f 42/61/42 48/93/48 47/75/47 43/62/43
f 44/65/44 57/94/57 48/93/48 42/61/42
f 45/69/45 58/95/58 57/94/57 44/65/44
f 46/71/46 59/96/59 58/95/58 45/69/45
f 56/88/56 60/97/60 59/96/59 46/71/46
f 61/98/61 62/99/62 50/79/50 49/78/49
f 63/100/63 61/101/61 49/81/49 51/80/51
f 62/99/62 64/102/64 52/82/52 50/79/50
f 65/103/65 63/100/63 51/80/51 53/83/53
f 64/102/64 66/104/66 54/84/54 52/82/52
f 67/105/67 65/106/65 53/86/53 55/85/55
f 66/107/66 68/108/68 56/88/56 54/87/54
f 69/109/69 67/105/67 55/85/55 60/92/60
f 68/108/68 69/110/69 60/97/60 56/88/56
f 70/111/70 71/112/71 62/99/62 61/98/61
f 70/113/70 61/101/61 63/100/63
f 71/112/71 72/114/72 64/102/64 62/99/62
f 73/115/73 70/113/70 63/100/63 65/103/65
f 72/114/72 74/116/74 66/104/66 64/102/64
f 75/117/75 73/118/73 65/106/65 67/105/67
f 74/119/74 76/120/76 68/108/68 66/107/66
f 77/121/77 75/117/75 67/105/67 69/109/69
f 76/120/76 77/122/77 69/110/69 68/108/68
f 70/123/70 73/124/73 78/125/78
f 71/126/71 70/123/70 78/125/78
f 72/127/72 71/126/71 78/125/78
f 74/128/74 72/127/72 78/125/78
f 73/124/73 75/129/75 78/125/78
f 76/130/76 74/128/74 78/125/78
f 75/129/75 77/131/77 78/125/78
f 77/131/77 76/130/76 78/125/78
