# Blender 4.3.0
# www.blender.org
mtllib fingers13.mtl
o fingers13
v 0.006126 -0.136933 -0.026989
v 0.009136 -0.135150 -0.031307
v 0.007607 -0.135025 -0.035453
v 0.003247 -0.135065 -0.031654
v 0.005795 -0.139312 -0.027856
v 0.008733 -0.138210 -0.031639
v 0.003076 -0.138304 -0.032322
v 0.007145 -0.138483 -0.035382
v 0.005165 -0.141785 -0.028300
v 0.007519 -0.141019 -0.031290
v 0.003520 -0.141463 -0.031931
v 0.005884 -0.141363 -0.033824
v 0.004928 -0.144082 -0.028889
v 0.007022 -0.144093 -0.031146
v 0.003254 -0.144699 -0.031507
v 0.005258 -0.144706 -0.033190
v 0.005637 -0.146543 -0.028315
v 0.006632 -0.147058 -0.030468
v 0.003106 -0.147962 -0.031122
v 0.005293 -0.148522 -0.032908
v 0.006103 -0.148995 -0.027968
v 0.007026 -0.150062 -0.030031
v 0.003919 -0.150909 -0.030296
v 0.005594 -0.151921 -0.031942
v 0.006445 -0.151454 -0.027712
v 0.005824 -0.152828 -0.029400
v 0.005333 -0.153193 -0.028811
vn 0.0307 0.2980 0.9541
vn 0.8037 0.5589 0.2042
vn 0.2828 0.6164 -0.7349
vn -0.7714 0.6362 -0.0109
vn -0.0308 -0.2673 0.9631
vn 0.9538 -0.2950 0.0561
vn -0.9692 -0.0238 -0.2450
vn 0.2440 -0.2313 -0.9418
vn -0.1299 -0.1546 0.9794
vn 0.9336 -0.3482 0.0846
vn -0.9768 -0.0393 -0.2104
vn 0.1120 -0.3419 -0.9330
vn -0.1529 0.0462 0.9872
vn 0.9933 -0.1157 0.0015
vn -0.9889 -0.0049 -0.1484
vn 0.0984 -0.1517 -0.9835
vn 0.1073 0.1670 0.9801
vn 0.9973 0.0641 -0.0356
vn -0.9895 -0.1246 -0.0732
vn 0.1099 -0.2029 -0.9730
vn 0.2298 0.0544 0.9717
vn 0.9905 -0.0801 -0.1120
vn -0.9320 -0.3591 0.0496
vn 0.1494 -0.6293 -0.7627
vn 0.3223 -0.2419 0.9152
vn 0.4467 -0.8814 -0.1533
vn -0.3672 -0.8170 0.4447
vt 0.851947 1.000000
vt 0.645914 0.896361
vt 0.615626 0.716542
vt 0.851947 0.759460
vt 0.146608 0.000000
vt 0.360939 0.082880
vt 0.335869 0.186002
vt 0.145350 0.127173
vt 0.615626 0.683704
vt 0.384138 0.755635
vt 0.360939 0.619164
vt 0.580738 0.582977
vt 0.000000 0.043585
vt 0.016478 0.184455
vt 0.854782 0.716542
vt 0.618424 0.601073
vt 0.827062 0.616990
vt 0.331665 0.294154
vt 0.180920 0.251312
vt 0.388766 0.487459
vt 0.553192 0.478442
vt 0.101078 0.304062
vt 0.692042 0.492572
vt 0.816176 0.492687
vt 0.316328 0.390944
vt 0.199883 0.377204
vt 0.400622 0.351993
vt 0.529994 0.381468
vt 0.141841 0.439015
vt 0.717494 0.373984
vt 0.825515 0.375957
vt 0.335903 0.473374
vt 0.238578 0.493845
vt 0.414032 0.215455
vt 0.569681 0.279388
vt 0.161303 0.585579
vt 0.712078 0.234747
vt 0.830297 0.257148
vt 0.349450 0.560313
vt 0.257875 0.602730
vt 0.465427 0.093307
vt 0.595707 0.177292
vt 0.203788 0.707687
vt 0.722408 0.094345
vt 0.823764 0.127185
vt 0.360939 0.649844
vt 0.304457 0.723169
vt 0.553142 0.000000
vt 0.615626 0.074727
vt 0.793117 0.015411
vt 0.823872 0.000000
vt 0.334980 0.740341
s 1
usemtl Material_with_Texture.088
f 1/1/1 2/2/2 3/3/3 4/4/4
f 2/5/2 1/6/1 5/7/5 6/8/6
f 1/9/1 4/10/4 7/11/7 5/12/5
f 3/13/3 2/5/2 6/8/6 8/14/8
f 4/15/4 3/3/3 8/16/8 7/17/7
f 6/8/6 5/7/5 9/18/9 10/19/10
f 5/12/5 7/11/7 11/20/11 9/21/9
f 8/14/8 6/8/6 10/19/10 12/22/12
f 7/17/7 8/16/8 12/23/12 11/24/11
f 10/19/10 9/18/9 13/25/13 14/26/14
f 9/21/9 11/20/11 15/27/15 13/28/13
f 12/22/12 10/19/10 14/26/14 16/29/16
f 11/24/11 12/23/12 16/30/16 15/31/15
f 14/26/14 13/25/13 17/32/17 18/33/18
f 13/28/13 15/27/15 19/34/19 17/35/17
f 16/29/16 14/26/14 18/33/18 20/36/20
f 15/31/15 16/30/16 20/37/20 19/38/19
f 18/33/18 17/32/17 21/39/21 22/40/22
f 17/35/17 19/34/19 23/41/23 21/42/21
f 20/36/20 18/33/18 22/40/22 24/43/24
f 19/38/19 20/37/20 24/44/24 23/45/23
f 22/40/22 21/39/21 25/46/25 26/47/26
f 21/42/21 23/41/23 27/48/27 25/49/25
f 24/43/24 22/40/22 26/47/26
f 23/45/23 24/44/24 26/50/26 27/51/27
f 26/47/26 25/46/25 27/52/27
