# Blender v3.5.0 OBJ File: ''
# www.blender.org
mtllib fingers8.mtl
o fingers8
v -0.007618 -0.076319 0.019802
v -0.012697 -0.080114 0.021010
v -0.007435 -0.085150 0.018142
v -0.007831 -0.083234 0.020521
v -0.007481 -0.069404 0.019482
v -0.012497 -0.073005 0.021040
v 0.000117 -0.078599 0.021474
v -0.003063 -0.084131 0.017824
v 0.000938 -0.071294 0.020526
v -0.009808 -0.079616 0.010587
v -0.007403 -0.084901 0.014822
v -0.011538 -0.073173 0.008039
v -0.004933 -0.084533 0.015381
v -0.008356 -0.062692 0.017897
v -0.013217 -0.066234 0.018089
v -0.001675 -0.064944 0.017327
v -0.012035 -0.066060 0.007434
v 0.001202 -0.080258 0.018581
v -0.003473 -0.085015 0.016628
v 0.001970 -0.073632 0.016470
v -0.000659 -0.066451 0.015178
v -0.005771 -0.079485 0.008211
v -0.007109 -0.084971 0.012709
v -0.005195 -0.072706 0.006071
v -0.006889 -0.065634 0.005527
v -0.002511 -0.084604 0.011487
v -0.002104 -0.083774 0.009666
v -0.009279 -0.055972 0.016137
v -0.013476 -0.059201 0.015813
v -0.004465 -0.058248 0.015150
v -0.012345 -0.058812 0.007431
v -0.002634 -0.059631 0.013845
v -0.009270 -0.058858 0.004789
v 0.002649 -0.079573 0.010870
v 0.003726 -0.073026 0.010321
v -0.000269 -0.066632 0.010734
v -0.003547 -0.060570 0.009012
v 0.002326 -0.079149 0.006284
v 0.002067 -0.071961 0.005790
v -0.003239 -0.067731 0.007965
v -0.005032 -0.060290 0.007276
v -0.009499 -0.049117 0.014948
v -0.013983 -0.052146 0.013611
v -0.005715 -0.050900 0.014196
v -0.013046 -0.051674 0.007157
v -0.003492 -0.052725 0.011570
v -0.011285 -0.051944 0.005017
v -0.004512 -0.053712 0.007468
v -0.005994 -0.052888 0.005788
v -0.009024 -0.042269 0.013840
v -0.013836 -0.044946 0.012063
v -0.005276 -0.043607 0.012508
v -0.013440 -0.044546 0.006584
v -0.003769 -0.045560 0.009939
v -0.012021 -0.044776 0.005201
v -0.004483 -0.046443 0.006324
v -0.006693 -0.045880 0.004414
v -0.008175 -0.035454 0.012728
v -0.012946 -0.037635 0.011136
v -0.004303 -0.036243 0.011452
v -0.013255 -0.037400 0.005849
v -0.003610 -0.038218 0.009480
v -0.011730 -0.037538 0.004711
v -0.004527 -0.039141 0.005657
v -0.006648 -0.038621 0.003384
v -0.007549 -0.028568 0.012013
v -0.011901 -0.030358 0.010356
v -0.003922 -0.028770 0.011819
v -0.012636 -0.030281 0.005162
v -0.002677 -0.030938 0.009242
v -0.010970 -0.030404 0.003822
v -0.004113 -0.032026 0.005076
v -0.005781 -0.031281 0.002554
v -0.007126 -0.021622 0.011804
v -0.010954 -0.023046 0.009704
v -0.004383 -0.021361 0.012355
v -0.011994 -0.023155 0.004634
v -0.001476 -0.023730 0.008359
v -0.010159 -0.023288 0.002846
v -0.002309 -0.025130 0.003954
v -0.004303 -0.024069 0.001600
v -0.006584 -0.014689 0.012024
v -0.010697 -0.015722 0.008904
v -0.003830 -0.013625 0.012407
v -0.011708 -0.015993 0.004266
v -0.000008 -0.016591 0.007574
v -0.009571 -0.016204 0.001545
v -0.000772 -0.018246 0.002505
v -0.003521 -0.017118 -0.000354
v -0.006554 -0.007735 0.011950
v -0.011814 -0.008369 0.007870
v 0.000841 -0.007735 0.013456
v -0.011863 -0.008898 0.003198
v 0.002946 -0.009982 0.008744
v -0.009605 -0.009296 -0.000587
v 0.001232 -0.011589 0.000880
v -0.003979 -0.007165 -0.002865
v -0.005446 -0.001467 0.010773
v -0.012269 -0.001280 0.007673
v 0.004677 -0.001497 0.012415
v -0.009017 -0.000204 0.004950
v 0.003816 -0.002822 0.008474
v -0.009120 -0.000995 0.001911
v 0.001114 -0.004347 -0.000596
v -0.005178 -0.004638 -0.003739
v -0.005299 -0.001296 0.003769
vt 0.097454 0.099820
vt 0.042039 0.051845
vt 0.099939 0.000000
vt 0.098420 0.018887
vt 0.096230 0.180202
vt 0.042018 0.134052
vt 0.189978 0.075251
vt 0.149509 0.014398
vt 0.195536 0.161291
vt 0.696048 0.052178
vt 0.574776 0.079891
vt 0.608429 0.009990
vt 0.645665 0.000000
vt 0.711202 0.133377
vt 0.561835 0.159304
vt 0.736054 0.494360
vt 0.719208 0.459623
vt 0.747986 0.452503
vt 0.740087 0.700693
vt 0.724989 0.668188
vt 0.740087 0.634979
vt 0.746822 0.571660
vt 0.746822 0.634979
vt 0.711202 0.576537
vt 0.081447 0.259348
vt 0.026886 0.215710
vt 0.158337 0.237444
vt 0.693013 0.217262
vt 0.570725 0.242017
vt 0.790698 0.342728
vt 0.785610 0.378194
vt 0.738134 0.343393
vt 0.730325 0.330615
vt 0.508079 0.839478
vt 0.559247 0.817839
vt 0.561835 0.903583
vt 0.524791 0.918903
vt 0.724989 0.715326
vt 0.732992 0.700693
vt 0.732992 0.726792
vt 0.506923 0.754858
vt 0.535138 0.740311
vt 0.236838 0.919325
vt 0.287197 0.914858
vt 0.264318 0.985340
vt 0.257528 0.988086
vt 0.221254 0.840329
vt 0.297544 0.833340
vt 0.711202 0.436121
vt 0.216775 0.757309
vt 0.279170 0.750563
vt 0.730267 0.269757
vt 0.711202 0.319577
vt 0.747148 0.705206
vt 0.740087 0.682670
vt 0.747148 0.634979
vt 0.747986 0.378194
vt 0.065836 0.338787
vt 0.018027 0.299764
vt 0.120565 0.316194
vt 0.682426 0.302623
vt 0.586488 0.324951
vt 0.503775 0.674330
vt 0.523470 0.660138
vt 0.213486 0.673824
vt 0.253180 0.670667
vt 0.790698 0.251440
vt 0.435646 0.824288
vt 0.435070 0.900753
vt 0.455172 0.751073
vt 0.448665 0.678851
vt 0.383631 0.909936
vt 0.326949 0.967731
vt 0.381719 0.826311
vt 0.317227 0.779902
vt 0.297960 0.692602
vt 0.777199 0.199747
vt 0.731396 0.248064
vt 0.059170 0.419409
vt 0.006416 0.383851
vt 0.102224 0.401689
vt 0.673062 0.388112
vt 0.599468 0.407267
vt 0.488162 0.591520
vt 0.524192 0.573976
vt 0.206124 0.591029
vt 0.229857 0.590946
vt 0.441531 0.597564
vt 0.289556 0.604609
vt 0.387820 0.806068
vt 0.383631 0.889816
vt 0.713987 0.494360
vt 0.759345 0.509147
vt 0.764869 0.571660
vt 0.711202 0.571660
vt 0.431536 0.673387
vt 0.426787 0.760252
vt 0.425752 0.585883
vt 0.060644 0.500199
vt 0.003309 0.469107
vt 0.102236 0.488347
vt 0.670551 0.473756
vt 0.608614 0.490067
vt 0.479330 0.506539
vt 0.513727 0.487410
vt 0.590494 0.490208
vt 0.572200 0.408530
vt 0.437922 0.512011
vt 0.221354 0.508584
vt 0.283984 0.521419
vt 0.306355 0.531797
vt 0.303897 0.617392
vt 0.066435 0.580802
vt 0.009694 0.555225
vt 0.109360 0.575285
vt 0.674328 0.559225
vt 0.615175 0.573339
vt 0.483452 0.421040
vt 0.509736 0.400835
vt 0.206373 0.424487
vt 0.225776 0.424543
vt 0.202781 0.507920
vt 0.439935 0.426708
vt 0.286442 0.436139
vt 0.307204 0.446623
vt 0.070246 0.661604
vt 0.018104 0.640840
vt 0.111826 0.661357
vt 0.679493 0.643966
vt 0.621637 0.656134
vt 0.488781 0.336516
vt 0.523132 0.314901
vt 0.214888 0.341569
vt 0.236242 0.341144
vt 0.441953 0.343662
vt 0.298054 0.350501
vt 0.416726 0.331792
vt 0.417991 0.417787
vt 0.072480 0.742347
vt 0.025571 0.726646
vt 0.104869 0.746046
vt 0.686319 0.728846
vt 0.629889 0.738665
vt 0.486201 0.251964
vt 0.539730 0.229965
vt 0.223412 0.258850
vt 0.247436 0.257817
vt 0.435259 0.262375
vt 0.316902 0.266293
vt 0.412894 0.247087
vt 0.076756 0.822450
vt 0.024850 0.812431
vt 0.108743 0.835649
vt 0.692422 0.814281
vt 0.640518 0.821314
vt 0.484224 0.168327
vt 0.549588 0.140568
vt 0.606266 0.824448
vt 0.606812 0.740726
vt 0.425233 0.180808
vt 0.256582 0.174236
vt 0.329331 0.183174
vt 0.356363 0.201836
vt 0.336049 0.283105
vt 0.074666 0.902913
vt 0.007917 0.898154
vt 0.162252 0.904730
vt 0.697785 0.900752
vt 0.643646 0.904768
vt 0.501554 0.093333
vt 0.561835 0.073657
vt 0.596745 0.908037
vt 0.412145 0.101614
vt 0.259891 0.091079
vt 0.328482 0.064211
vt 0.382333 0.123006
vt 0.083524 0.977410
vt 0.000000 0.980089
vt 0.202781 0.980089
vt 0.711202 0.982307
vt 0.678151 1.000000
vt 0.506461 0.010158
vt 0.551946 0.000000
vt 0.642084 0.997512
vt 0.404934 0.015941
vt 0.261776 0.000000
vt 0.316169 0.033299
vt 0.383631 0.037110
vt 0.785433 0.149760
vt 0.711202 0.199747
vt 0.715956 0.112728
vt 0.751434 0.000000
vt 0.724989 0.709758
vt 0.711202 0.669650
vt 0.724989 0.634979
vt 0.790533 0.029641
vt 0.783312 0.199280
vt 0.751084 0.182029
vt 0.871674 0.106165
vt 0.871674 0.187691
vn -0.0199 -0.1851 0.9825
vn 0.2548 0.0139 0.9669
vn 0.0201 -0.2344 0.9719
vn -0.1405 0.0973 0.9853
vn -0.7743 -0.6013 -0.1973
vn -0.9767 -0.1404 -0.1624
vn 0.1629 -0.9840 -0.0722
vn 0.6946 -0.4994 0.5178
vn -0.0647 -0.9755 0.2101
vn -0.0578 0.3122 0.9483
vn 0.0694 0.3594 0.9306
vn -0.9899 -0.1097 -0.0896
vn 0.5270 -0.6800 0.5099
vn 0.9492 -0.0398 0.3120
vn -0.6556 -0.4822 0.5811
vn 0.9223 0.3802 0.0688
vn -0.6032 -0.5375 -0.5893
vn -0.3463 -0.3402 -0.8743
vn 0.1357 -0.9894 0.0517
vn -0.3085 -0.1240 -0.9431
vn -0.2187 -0.9686 -0.1184
vn -0.6943 -0.5836 -0.4212
vn 0.2210 -0.9751 -0.0201
vn -0.2074 0.2590 0.9434
vn 0.2554 0.3366 0.9063
vn -0.9908 -0.0590 -0.1221
vn 0.8434 0.3926 0.3667
vn -0.4747 -0.1370 -0.8694
vn 0.7006 -0.7102 0.0684
vn 0.9720 -0.0925 0.2160
vn 0.6961 -0.7142 0.0732
vn 0.8764 0.4403 0.1952
vn 0.9295 0.3564 -0.0954
vn -0.2556 -0.4994 -0.8278
vn -0.1275 -0.1810 -0.9752
vn 0.2189 0.2708 -0.9374
vn 0.5532 0.0792 -0.8293
vn 0.6751 -0.7256 -0.1332
vn -0.3262 0.2078 0.9222
vn 0.2723 0.1711 0.9469
vn -0.9837 -0.1087 -0.1434
vn 0.7683 0.2474 0.5904
vn -0.7010 -0.1378 -0.6998
vn 0.9722 0.0664 -0.2246
vn 0.3197 -0.0169 -0.9474
vn 0.9718 -0.0748 -0.2235
vn 0.6361 0.6559 -0.4064
vn 0.6924 0.1334 -0.7090
vn 0.7480 -0.0398 -0.6625
vn -0.4132 0.1868 0.8913
vn 0.3253 0.1631 0.9314
vn -0.9930 -0.0339 -0.1134
vn 0.8438 0.1111 0.5251
vn -0.7455 -0.0769 -0.6620
vn 0.9766 -0.0243 -0.2136
vn -0.0180 -0.0854 -0.9962
vn 0.6748 -0.0974 -0.7316
vn -0.4060 0.1793 0.8961
vn 0.3467 0.0981 0.9328
vn -0.9973 0.0737 -0.0037
vn 0.8921 -0.0222 0.4514
vn -0.6529 -0.0428 -0.7562
vn 0.9777 -0.0237 -0.2086
vn -0.2176 -0.0968 -0.9712
vn 0.6812 -0.0848 -0.7272
vn -0.3863 0.1418 0.9114
vn 0.1937 0.0102 0.9810
vn -0.9870 0.1245 0.1020
vn 0.8873 -0.0830 0.4536
vn -0.6145 -0.0277 -0.7884
vn 0.9608 -0.1045 -0.2567
vn -0.2593 -0.0851 -0.9620
vn 0.7611 -0.1295 -0.6356
vn -0.4465 0.0966 0.8895
vn -0.0557 -0.0229 0.9982
vn -0.9781 0.1214 0.1688
vn 0.8358 -0.0293 0.5482
vn -0.6667 -0.0107 -0.7453
vn 0.9552 -0.2300 -0.1861
vn -0.2342 -0.0929 -0.9677
vn 0.7225 -0.2622 -0.6397
vn -0.5621 0.0650 0.8245
vn -0.1661 -0.0059 0.9861
vn -0.9774 0.0531 0.2044
vn 0.7712 -0.0736 0.6323
vn -0.7512 -0.0312 -0.6593
vn 0.9706 -0.2226 -0.0918
vn -0.2761 -0.1915 -0.9419
vn 0.6475 -0.2826 -0.7078
vn -0.6108 0.0149 0.7917
vn -0.1822 -0.0080 0.9832
vn -0.9905 -0.0699 0.1188
vn 0.6027 -0.4808 0.6368
vn -0.8268 -0.1359 -0.5458
vn 0.9319 -0.3514 -0.0899
vn -0.3009 -0.2613 -0.9172
vn 0.5075 -0.2524 -0.8239
vn -0.5107 0.1126 0.8524
vn -0.1714 0.2374 0.9562
vn -0.9081 0.1750 -0.3804
vn 0.9198 -0.2981 0.2553
vn -0.9066 0.2607 -0.3317
vn 0.9681 -0.0794 -0.2378
vn -0.6292 0.0745 -0.7736
vn 0.4690 -0.1463 -0.8710
vn 0.0162 0.9996 0.0247
vn -0.0010 0.9997 0.0244
vn 0.3966 0.5872 0.7057
vn 0.3340 0.8690 -0.3651
vn 0.1977 0.9470 -0.2532
vn 0.2793 0.9298 -0.2396
vn 0.2589 0.8840 -0.3893
vn 0.1578 0.9031 -0.3994
usemtl Material_with_Texture.101
s off
f 1/1/1 2/2/1 3/3/1 4/4/1
f 5/5/2 6/6/2 2/2/2 1/1/2
f 7/7/3 1/1/3 4/4/3 8/8/3
f 9/9/4 5/5/4 1/1/4 7/7/4
f 2/10/5 10/11/5 11/12/5 3/13/5
f 6/14/6 12/15/6 10/11/6 2/10/6
f 3/16/7 11/17/7 13/18/7
f 4/19/8 3/20/8 13/21/8
f 8/22/9 4/23/9 13/24/9
f 14/25/10 15/26/10 6/6/10 5/5/10
f 16/27/11 14/25/11 5/5/11 9/9/11
f 15/28/12 17/29/12 12/15/12 6/14/12
f 18/30/13 7/31/13 8/32/13 19/33/13
f 20/34/14 9/35/14 7/36/14 18/37/14
f 19/38/15 8/39/15 13/40/15
f 21/41/16 16/42/16 9/35/16 20/34/16
f 10/43/17 22/44/17 23/45/17 11/46/17
f 12/47/18 24/48/18 22/44/18 10/43/18
f 11/17/19 23/49/19 13/18/19
f 17/50/20 25/51/20 24/48/20 12/47/20
f 26/52/21 19/33/21 13/53/21
f 27/54/22 26/55/22 13/56/22
f 23/49/23 27/57/23 13/18/23
f 28/58/24 29/59/24 15/26/24 14/25/24
f 30/60/25 28/58/25 14/25/25 16/27/25
f 29/61/26 31/62/26 17/29/26 15/28/26
f 32/63/27 30/64/27 16/42/27 21/41/27
f 31/65/28 33/66/28 25/51/28 17/50/28
f 34/67/29 18/30/29 26/52/29
f 35/68/30 20/34/30 18/37/30 34/69/30
f 19/33/31 26/52/31 18/30/31
f 36/70/32 21/41/32 20/34/32 35/68/32
f 37/71/33 32/63/33 21/41/33 36/70/33
f 22/44/34 38/72/34 27/73/34 23/45/34
f 24/48/35 39/74/35 38/72/35 22/44/35
f 25/51/36 40/75/36 39/74/36 24/48/36
f 33/66/37 41/76/37 40/75/37 25/51/37
f 38/77/38 34/67/38 26/52/38 27/78/38
f 42/79/39 43/80/39 29/59/39 28/58/39
f 44/81/40 42/79/40 28/58/40 30/60/40
f 43/82/41 45/83/41 31/62/41 29/61/41
f 46/84/42 44/85/42 30/64/42 32/63/42
f 45/86/43 47/87/43 33/66/43 31/65/43
f 48/88/44 46/84/44 32/63/44 37/71/44
f 47/87/45 49/89/45 41/76/45 33/66/45
f 39/90/46 35/68/46 34/69/46 38/91/46
f 40/92/47 36/93/47 35/94/47 39/95/47
f 41/96/48 37/71/48 36/70/48 40/97/48
f 49/98/49 48/88/49 37/71/49 41/96/49
f 50/99/50 51/100/50 43/80/50 42/79/50
f 52/101/51 50/99/51 42/79/51 44/81/51
f 51/102/52 53/103/52 45/83/52 43/82/52
f 54/104/53 52/105/53 44/85/53 46/84/53
f 53/103/54 55/106/54 47/107/54 45/83/54
f 56/108/55 54/104/55 46/84/55 48/88/55
f 55/109/56 57/110/56 49/89/56 47/87/56
f 57/110/57 56/111/57 48/112/57 49/89/57
f 58/113/58 59/114/58 51/100/58 50/99/58
f 60/115/59 58/113/59 50/99/59 52/101/59
f 59/116/60 61/117/60 53/103/60 51/102/60
f 62/118/61 60/119/61 52/105/61 54/104/61
f 61/120/62 63/121/62 55/109/62 53/122/62
f 64/123/63 62/118/63 54/104/63 56/108/63
f 63/121/64 65/124/64 57/110/64 55/109/64
f 65/124/65 64/125/65 56/111/65 57/110/65
f 66/126/66 67/127/66 59/114/66 58/113/66
f 68/128/67 66/126/67 58/113/67 60/115/67
f 67/129/68 69/130/68 61/117/68 59/116/68
f 70/131/69 68/132/69 60/119/69 62/118/69
f 69/133/70 71/134/70 63/121/70 61/120/70
f 72/135/71 70/131/71 62/118/71 64/123/71
f 71/134/72 73/136/72 65/124/72 63/121/72
f 73/137/73 72/135/73 64/123/73 65/138/73
f 74/139/74 75/140/74 67/127/74 66/126/74
f 76/141/75 74/139/75 66/126/75 68/128/75
f 75/142/76 77/143/76 69/130/76 67/129/76
f 78/144/77 76/145/77 68/132/77 70/131/77
f 77/146/78 79/147/78 71/134/78 69/133/78
f 80/148/79 78/144/79 70/131/79 72/135/79
f 79/147/80 81/149/80 73/136/80 71/134/80
f 81/150/81 80/148/81 72/135/81 73/137/81
f 82/151/82 83/152/82 75/140/82 74/139/82
f 84/153/83 82/151/83 74/139/83 76/141/83
f 83/154/84 85/155/84 77/143/84 75/142/84
f 86/156/85 84/157/85 76/145/85 78/144/85
f 85/155/86 87/158/86 79/159/86 77/143/86
f 88/160/87 86/156/87 78/144/87 80/148/87
f 87/161/88 89/162/88 81/149/88 79/147/88
f 89/162/89 88/163/89 80/164/89 81/149/89
f 90/165/90 91/166/90 83/152/90 82/151/90
f 92/167/91 90/165/91 82/151/91 84/153/91
f 91/168/92 93/169/92 85/155/92 83/154/92
f 94/170/93 92/171/93 84/157/93 86/156/93
f 93/169/94 95/172/94 87/158/94 85/155/94
f 96/173/95 94/170/95 86/156/95 88/160/95
f 95/174/96 97/175/96 89/162/96 87/161/96
f 97/175/97 96/176/97 88/163/97 89/162/97
f 98/177/98 99/178/98 91/166/98 90/165/98
f 100/179/99 98/177/99 90/165/99 92/167/99
f 99/180/100 101/181/100 93/169/100 91/168/100
f 102/182/101 100/183/101 92/171/101 94/170/101
f 101/181/102 103/184/102 95/172/102 93/169/102
f 104/185/103 102/182/103 94/170/103 96/173/103
f 103/186/104 105/187/104 97/175/104 95/174/104
f 105/187/105 104/188/105 96/176/105 97/175/105
f 106/189/106 99/190/106 98/191/106
f 106/189/107 98/191/107 100/192/107
f 106/193/108 101/194/108 99/195/108
f 106/189/109 100/192/109 102/196/109
f 106/189/110 103/197/110 101/198/110
f 106/189/111 102/196/111 104/199/111
f 106/189/112 105/200/112 103/197/112
f 106/189/113 104/199/113 105/200/113
