# Blender v3.5.0 OBJ File: ''
# www.blender.org
mtllib fingers3.mtl
o fingers3
v 0.005344 -0.007385 0.004459
v 0.004440 -0.007579 -0.001841
v -0.000831 -0.007602 -0.006400
v -0.005536 -0.007129 -0.001539
v -0.005110 -0.007017 0.003580
v 0.000657 -0.006820 0.007005
v 0.002916 -0.012147 0.004695
v 0.002889 -0.012208 -0.000645
v 0.000259 -0.011311 0.006569
v -0.000189 -0.012620 -0.005266
v -0.004968 -0.012006 -0.001009
v -0.004565 -0.011727 0.003307
v 0.002050 -0.017248 0.004999
v 0.001460 -0.016860 0.000741
v 0.000007 -0.016026 0.006285
v -0.000594 -0.017621 -0.003222
v -0.003642 -0.016277 0.004544
v -0.004348 -0.016880 -0.000607
v 0.002078 -0.022818 0.006141
v 0.001218 -0.021817 0.001527
v -0.000464 -0.020655 0.006466
v -0.000771 -0.022922 -0.002021
v -0.003133 -0.020956 0.005395
v -0.004204 -0.021727 0.000512
v 0.003361 -0.027791 0.006992
v 0.002022 -0.026706 0.002408
v 0.000103 -0.025305 0.007099
v -0.000032 -0.028133 -0.000466
v -0.002896 -0.025762 0.005405
v -0.004208 -0.026608 0.001344
v 0.006056 -0.032133 0.007209
v 0.003260 -0.031666 0.003288
v 0.000563 -0.029977 0.007660
v 0.000710 -0.033424 -0.001344
v -0.002148 -0.030469 0.005214
v -0.003737 -0.031541 0.002116
v 0.002097 -0.034752 0.008320
v 0.002118 -0.035646 0.005135
v 0.000592 -0.034671 0.008006
v -0.001219 -0.036280 0.002137
v -0.000205 -0.034789 0.006030
v -0.001590 -0.035930 0.002276
vt 0.445231 0.706740
vt 0.546010 0.822715
vt 0.546010 0.990900
vt 0.382603 1.000000
vt 0.295931 0.911401
vt 0.324104 0.752052
vt 0.136352 0.699795
vt 0.000000 0.665135
vt 0.049743 0.549724
vt 0.154999 0.582509
vt 0.741319 0.663880
vt 0.614490 0.675133
vt 0.609545 0.567701
vt 0.684822 0.549524
vt 0.295931 0.721337
vt 0.288404 0.598390
vt 0.741319 0.000000
vt 0.903536 0.000432
vt 0.903536 0.125420
vt 0.748850 0.118799
vt 0.416340 0.009335
vt 0.536591 0.000000
vt 0.535323 0.119075
vt 0.433054 0.122717
vt 0.295931 0.032541
vt 0.322503 0.136968
vt 0.078933 0.428124
vt 0.168407 0.463635
vt 0.606826 0.454611
vt 0.663636 0.426459
vt 0.276908 0.468582
vt 0.412085 0.236749
vt 0.345237 0.247559
vt 0.870101 0.251630
vt 0.759281 0.237078
vt 0.536591 0.238007
vt 0.081979 0.291471
vt 0.179182 0.343136
vt 0.595533 0.342981
vt 0.656622 0.290627
vt 0.280280 0.337520
vt 0.536591 0.452129
vt 0.542640 0.338044
vt 0.853916 0.381697
vt 0.749941 0.356808
vt 0.524849 0.356036
vt 0.403310 0.351560
vt 0.071256 0.172253
vt 0.173858 0.225027
vt 0.604567 0.229894
vt 0.680448 0.169240
vt 0.264108 0.207523
vt 0.548895 0.222197
vt 0.849616 0.513339
vt 0.742148 0.475720
vt 0.520830 0.473750
vt 0.416083 0.466686
vt 0.051237 0.073673
vt 0.163106 0.105864
vt 0.611703 0.116412
vt 0.741319 0.063569
vt 0.295931 0.091270
vt 0.354369 0.470148
vt 0.429450 0.580900
vt 0.352545 0.584022
vt 0.881969 0.636047
vt 0.744271 0.596693
vt 0.514910 0.594300
vt 0.094295 0.000347
vt 0.160551 0.000033
vt 0.610613 0.002835
vt 0.642695 0.000000
vt 0.266636 0.000000
vt 0.410022 0.692301
vt 0.358808 0.696419
vt 0.796108 0.714488
vt 0.786678 0.705985
vt 0.509192 0.706740
vt 0.678116 0.750502
vt 0.704125 0.675133
vt 0.736262 0.693359
vt 0.741319 0.743993
vt 0.729682 0.846437
vt 0.741319 0.844296
vn 0.0423 0.9977 -0.0537
vn 0.9153 -0.3976 -0.0645
vn 0.4849 -0.1667 0.8585
vn 0.7261 -0.2253 -0.6497
vn -0.6908 -0.2013 -0.6945
vn -0.9894 -0.1124 0.0916
vn -0.5294 -0.0736 0.8452
vn 0.9682 -0.2400 -0.0704
vn 0.5388 -0.0597 0.8403
vn 0.8320 -0.3193 -0.4538
vn -0.5108 0.0513 0.8582
vn -0.6337 -0.1990 -0.7476
vn -0.9821 -0.1385 0.1279
vn 0.9843 -0.0509 -0.1688
vn 0.3955 0.1012 0.9129
vn 0.8863 -0.1227 -0.4466
vn -0.4118 0.0988 0.9059
vn -0.6041 -0.1757 -0.7773
vn -0.9835 -0.0305 0.1784
vn 0.9664 0.1707 -0.1923
vn 0.2238 0.1904 0.9558
vn 0.8461 0.0007 -0.5330
vn -0.4409 0.0235 0.8973
vn -0.5432 -0.2305 -0.8073
vn -0.9663 -0.0009 0.2576
vn 0.8723 0.3258 -0.3646
vn 0.1322 0.1311 0.9825
vn 0.8109 0.1565 -0.5638
vn -0.5818 -0.0429 0.8122
vn -0.5364 -0.0549 -0.8422
vn -0.9141 -0.0918 0.3950
vn 0.7135 -0.6587 -0.2390
vn 0.0700 0.1586 0.9849
vn 0.7125 -0.6016 -0.3612
vn -0.7743 -0.0886 0.6265
vn -0.6594 -0.3533 -0.6636
vn -0.8207 -0.3334 0.4639
vn -0.2010 -0.9551 0.2175
vn -0.2418 -0.8834 0.4013
usemtl Material_with_Texture.096
s off
f 1/1/1 2/2/1 3/3/1 4/4/1 5/5/1 6/6/1
f 2/7/2 1/8/2 7/9/2 8/10/2
f 1/11/3 6/12/3 9/13/3 7/14/3
f 3/15/4 2/7/4 8/10/4 10/16/4
f 4/17/5 3/18/5 10/19/5 11/20/5
f 5/21/6 4/22/6 11/23/6 12/24/6
f 6/25/7 5/21/7 12/24/7 9/26/7
f 8/10/8 7/9/8 13/27/8 14/28/8
f 7/14/9 9/13/9 15/29/9 13/30/9
f 10/16/10 8/10/10 14/28/10 16/31/10
f 9/26/11 12/24/11 17/32/11 15/33/11
f 11/20/12 10/19/12 16/34/12 18/35/12
f 12/24/13 11/23/13 18/36/13 17/32/13
f 14/28/14 13/27/14 19/37/14 20/38/14
f 13/30/15 15/29/15 21/39/15 19/40/15
f 16/31/16 14/28/16 20/38/16 22/41/16
f 15/29/17 17/42/17 23/43/17 21/39/17
f 18/35/18 16/34/18 22/44/18 24/45/18
f 17/32/19 18/36/19 24/46/19 23/47/19
f 20/38/20 19/37/20 25/48/20 26/49/20
f 19/40/21 21/39/21 27/50/21 25/51/21
f 22/41/22 20/38/22 26/49/22 28/52/22
f 21/39/23 23/43/23 29/53/23 27/50/23
f 24/45/24 22/44/24 28/54/24 30/55/24
f 23/47/25 24/46/25 30/56/25 29/57/25
f 26/49/26 25/48/26 31/58/26 32/59/26
f 25/51/27 27/50/27 33/60/27 31/61/27
f 28/52/28 26/49/28 32/59/28 34/62/28
f 27/63/29 29/57/29 35/64/29 33/65/29
f 30/55/30 28/54/30 34/66/30 36/67/30
f 29/57/31 30/56/31 36/68/31 35/64/31
f 32/59/32 31/58/32 37/69/32 38/70/32
f 31/61/33 33/60/33 39/71/33 37/72/33
f 34/62/34 32/59/34 38/70/34 40/73/34
f 33/65/35 35/64/35 41/74/35 39/75/35
f 36/67/36 34/66/36 40/76/36 42/77/36
f 35/64/37 36/68/37 42/78/37 41/74/37
f 38/79/38 37/80/38 39/81/38 41/82/38
f 40/83/39 38/79/39 41/82/39 42/84/39
