# Blender 4.3.0
# www.blender.org
mtllib fingers15.mtl
o fingers15
v 0.004637 -0.101048 -0.039110
v 0.004947 -0.100645 -0.036284
v 0.006826 -0.106121 -0.037701
v 0.007419 -0.106004 -0.038901
v 0.002278 -0.096167 -0.038763
v 0.003845 -0.095148 -0.035887
v 0.002078 -0.098601 -0.039433
v 0.003362 -0.103717 -0.038976
v 0.001367 -0.093387 -0.039680
v 0.003038 -0.100061 -0.035003
v 0.005087 -0.105016 -0.035254
v 0.002654 -0.094508 -0.034423
v 0.003214 -0.109758 -0.035630
v 0.003498 -0.109306 -0.038544
v 0.002126 -0.090157 -0.038738
v 0.002658 -0.089486 -0.036159
v 0.001331 -0.088072 -0.039799
v 0.002012 -0.089052 -0.033865
v -0.000185 -0.098721 -0.038488
v 0.001300 -0.103893 -0.038862
v -0.001271 -0.093453 -0.038415
v -0.001756 -0.088110 -0.038998
v 0.002870 -0.102059 -0.030681
v 0.005732 -0.106856 -0.030815
v 0.000862 -0.096675 -0.030846
v 0.002802 -0.109949 -0.033543
v 0.001145 -0.090805 -0.030259
v 0.001866 -0.109686 -0.037643
v 0.002107 -0.110118 -0.032224
v -0.001105 -0.108865 -0.033561
v -0.000259 -0.104885 -0.036785
v 0.002618 -0.083992 -0.038875
v 0.002580 -0.083717 -0.035869
v 0.001272 -0.082756 -0.040015
v 0.001867 -0.083572 -0.033324
v -0.001657 -0.082715 -0.039521
v 0.000836 -0.085006 -0.029963
v -0.001190 -0.099493 -0.036179
v -0.002618 -0.094254 -0.035861
v -0.003544 -0.088904 -0.035829
v -0.004016 -0.083449 -0.035836
v 0.000708 -0.099751 -0.031093
v 0.001485 -0.104960 -0.031361
v 0.000001 -0.094546 -0.030830
v -0.000842 -0.089309 -0.030560
v -0.001448 -0.084069 -0.030180
v -0.000627 -0.103804 -0.033530
v -0.001375 -0.098879 -0.032831
v 0.003431 -0.078200 -0.038968
v 0.003441 -0.077960 -0.036192
v 0.001565 -0.077499 -0.040594
v 0.002495 -0.078025 -0.032917
v -0.001527 -0.077332 -0.039971
v 0.001183 -0.079096 -0.029834
v -0.004537 -0.078016 -0.035806
v -0.000682 -0.078970 -0.029219
v -0.002509 -0.093959 -0.032248
v -0.003339 -0.088962 -0.032156
v -0.003722 -0.083913 -0.032058
v -0.004131 -0.078856 -0.031925
v 0.005346 -0.072738 -0.038646
v 0.006017 -0.072870 -0.036114
v 0.002685 -0.072372 -0.040954
v 0.005516 -0.073706 -0.032040
v -0.002361 -0.072084 -0.040932
v 0.003697 -0.074143 -0.028428
v -0.004890 -0.072575 -0.036095
v -0.000679 -0.073943 -0.027716
v -0.004786 -0.073834 -0.031802
v 0.004468 -0.067001 -0.039248
v 0.006090 -0.067354 -0.036504
v 0.005345 -0.068214 -0.031872
v -0.001770 -0.066953 -0.039598
v 0.004105 -0.068426 -0.028162
v -0.004296 -0.067267 -0.035010
v -0.000393 -0.068766 -0.027561
v -0.004256 -0.068848 -0.031110
v 0.001517 -0.068678 -0.034445
vn 0.6219 0.2095 -0.7545
vn 0.9153 0.2669 0.3017
vn 0.9091 -0.1500 0.3887
vn 0.8087 -0.1023 -0.5793
vn 0.7652 0.1958 -0.6132
vn 0.9751 0.1499 0.1636
vn 0.0662 0.0278 -0.9974
vn -0.0618 -0.0695 -0.9957
vn 0.2059 -0.0370 -0.9779
vn 0.8445 0.1948 0.4989
vn 0.9185 0.0278 0.3944
vn 0.8939 0.0856 0.4401
vn 0.4110 -0.9111 -0.0302
vn 0.0978 -0.7234 -0.6835
vn 0.8795 0.0200 -0.4754
vn 0.9967 0.0524 0.0617
vn 0.2447 -0.0641 -0.9675
vn 0.9492 0.0323 0.3130
vn -0.6345 -0.1316 -0.7616
vn -0.4798 -0.1345 -0.8670
vn -0.6613 -0.1296 -0.7389
vn -0.6112 -0.0870 -0.7867
vn 0.4590 0.1555 0.8747
vn 0.7280 -0.2111 0.6523
vn 0.4172 0.0227 0.9085
vn 0.3731 -0.9268 -0.0420
vn 0.5135 -0.0513 0.8566
vn -0.4862 -0.7329 -0.4758
vn -0.1051 -0.8114 0.5750
vn -0.8508 -0.4756 0.2235
vn -0.8673 -0.1618 -0.4709
vn 0.8981 -0.0839 -0.4317
vn 0.9886 -0.0776 0.1291
vn 0.2334 -0.0928 -0.9679
vn 0.9572 -0.0593 0.2832
vn -0.5570 -0.0703 -0.8276
vn 0.5511 -0.0724 0.8313
vn -0.9449 -0.1839 -0.2710
vn -0.9533 -0.1953 -0.2305
vn -0.9640 -0.1177 -0.2383
vn -0.9647 -0.0733 -0.2528
vn -0.4646 -0.1300 0.8759
vn -0.4296 -0.1324 0.8933
vn -0.3950 -0.1196 0.9109
vn -0.3759 -0.0939 0.9219
vn -0.3586 -0.0895 0.9292
vn -0.9355 -0.1594 0.3152
vn -0.8863 -0.2103 0.4126
vn 0.8575 -0.2172 -0.4664
vn 0.9482 -0.3103 0.0677
vn 0.2439 -0.1384 -0.9599
vn 0.9054 -0.3510 0.2388
vn -0.5155 -0.1187 -0.8486
vn 0.5896 -0.2968 0.7512
vn -0.9611 -0.1014 -0.2568
vn -0.2706 -0.1846 0.9448
vn -0.8534 -0.1909 0.4850
vn -0.8681 -0.1272 0.4799
vn -0.8790 -0.0888 0.4684
vn -0.8890 -0.1122 0.4439
vn 0.8489 -0.1419 -0.5092
vn 0.9766 -0.2074 -0.0575
vn 0.3130 0.0104 -0.9497
vn 0.9311 -0.2813 0.2324
vn -0.5117 0.0665 -0.8566
vn 0.6228 -0.2782 0.7312
vn -0.9672 0.0195 -0.2534
vn -0.2848 -0.1440 0.9477
vn -0.9168 -0.0489 0.3963
vn 0.4403 0.7554 -0.4853
vn 0.7066 0.7076 -0.0056
vn 0.6506 0.7155 0.2546
vn -0.3347 0.7793 -0.5297
vn 0.4748 0.6014 0.6426
vn -0.6070 0.7939 0.0344
vn -0.2493 0.6006 0.7597
vn -0.6882 0.5865 0.4271
vn -0.0269 0.9851 0.1699
vt 0.028857 0.696824
vt 0.085562 0.687946
vt 0.056255 0.805195
vt 0.030182 0.804820
vt 0.037924 0.591111
vt 0.092101 0.572643
vt 0.688803 0.655769
vt 0.737835 0.709537
vt 0.788341 0.815144
vt 0.708067 0.762789
vt 0.681197 0.547555
vt 0.695295 0.606217
vt 0.115962 0.670766
vt 0.109673 0.777196
vt 0.124444 0.555960
vt 0.110246 0.869864
vt 0.867983 0.339382
vt 0.861287 0.278796
vt 0.935135 0.248784
vt 0.703176 0.878024
vt 0.034137 0.467788
vt 0.085042 0.454086
vt 0.012769 0.423736
vt 0.019243 0.532491
vt 0.133182 0.442527
vt 0.641124 0.655598
vt 0.665372 0.763749
vt 0.625528 0.545893
vt 0.623105 0.435208
vt 0.687438 0.438192
vt 0.206284 0.709120
vt 0.200278 0.814224
vt 0.203634 0.594215
vt 0.154068 0.871756
vt 0.210384 0.474531
vt 0.832495 0.304453
vt 0.868422 0.383386
vt 0.859992 0.413108
vt 0.788341 0.397239
vt 0.629757 0.782816
vt 0.668167 0.884010
vt 0.025345 0.342928
vt 0.086680 0.335742
vt 0.693316 0.328744
vt 0.718085 0.356308
vt 0.699888 0.482462
vt 0.140339 0.329810
vt 0.632673 0.324238
vt 0.212685 0.355013
vt 0.352908 0.217322
vt 0.302582 0.228625
vt 0.297190 0.118818
vt 0.344259 0.104289
vt 0.356954 0.328302
vt 0.300815 0.339108
vt 0.353898 0.440009
vt 0.284195 0.449029
vt 0.348908 0.552640
vt 0.267429 0.558531
vt 0.568209 0.167794
vt 0.524858 0.215957
vt 0.536435 0.108143
vt 0.623105 0.066730
vt 0.530750 0.279260
vt 0.514705 0.323609
vt 0.935135 0.419875
vt 0.543828 0.000000
vt 0.541973 0.400368
vt 0.501799 0.432063
vt 0.540488 0.519852
vt 0.493950 0.540631
vt 0.410488 0.129911
vt 0.327123 0.000000
vt 0.416416 0.027783
vt 0.490173 0.128243
vt 0.476527 0.025265
vt 0.421133 0.233002
vt 0.016958 0.226452
vt 0.073500 0.220210
vt 0.706752 0.220847
vt 0.742344 0.238257
vt 0.142816 0.217655
vt 0.642780 0.213580
vt 0.209883 0.234890
vt 0.344808 0.664980
vt 0.252099 0.667764
vt 0.552252 0.640545
vt 0.515160 0.646484
vt 0.430281 0.336909
vt 0.428619 0.441202
vt 0.426015 0.545393
vt 0.424177 0.649843
vt 0.479733 0.231330
vt 0.461167 0.334389
vt 0.448036 0.437475
vt 0.444125 0.541207
vt 0.439749 0.645218
vt 0.014619 0.119184
vt 0.064846 0.122267
vt 0.736757 0.116778
vt 0.788341 0.128576
vt 0.150009 0.136168
vt 0.633491 0.104262
vt 0.228637 0.138950
vt 0.333797 0.776790
vt 0.228637 0.776359
vt 0.609994 0.742871
vt 0.521611 0.752986
vt 0.422727 0.754213
vt 0.430281 0.748725
vt 0.000000 0.000000
vt 0.052410 0.009795
vt 0.778377 0.009269
vt 0.149595 0.023326
vt 0.650743 0.000000
vt 0.228637 0.022855
vt 0.348896 0.884496
vt 0.249027 0.880655
vt 0.623105 0.859914
vt 0.531621 0.858834
vt 0.430281 0.855199
vt 0.446094 0.851810
vt 0.963370 0.248784
vt 0.834686 0.248784
vt 0.907989 0.142255
vt 1.000000 0.193795
vt 0.990105 0.096033
vt 0.969149 0.018573
vt 0.788341 0.151663
vt 0.877269 0.000000
vt 0.793374 0.067268
s 1
usemtl Material_with_Texture.090
f 1/1/1 2/2/2 3/3/3 4/4/4
f 5/5/5 6/6/6 2/2/2 1/1/1
f 7/7/7 1/8/1 4/9/4 8/10/8
f 9/11/9 5/12/5 1/8/1 7/7/7
f 2/2/2 10/13/10 11/14/11 3/3/3
f 6/6/6 12/15/12 10/13/10 2/2/2
f 3/3/3 11/14/11 13/16/13
f 4/4/4 3/3/3 13/16/13
f 13/17/13 14/18/14 4/19/4
f 14/20/14 8/10/8 4/9/4
f 15/21/15 16/22/16 6/6/6 5/5/5
f 17/23/17 15/21/15 5/5/5 9/24/9
f 16/22/16 18/25/18 12/15/12 6/6/6
f 19/26/19 7/7/7 8/10/8 20/27/20
f 21/28/21 9/11/9 7/7/7 19/26/19
f 8/10/8 14/20/14 20/27/20
f 22/29/22 17/30/17 9/11/9 21/28/21
f 10/13/10 23/31/23 24/32/24 11/14/11
f 12/15/12 25/33/25 23/31/23 10/13/10
f 11/14/11 24/32/24 26/34/26 13/16/13
f 18/25/18 27/35/27 25/33/25 12/15/12
f 28/36/28 13/17/13 26/37/26 29/38/29 30/39/30
f 13/17/13 28/36/28 14/18/14
f 31/40/31 20/27/20 14/20/14 28/41/28
f 32/42/32 33/43/33 16/22/16 15/21/15
f 34/44/34 32/45/32 15/46/15 17/30/17
f 33/43/33 35/47/35 18/25/18 16/22/16
f 36/48/36 34/44/34 17/30/17 22/29/22
f 35/47/35 37/49/37 27/35/27 18/25/18
f 38/50/38 19/51/19 20/52/20 31/53/31
f 39/54/39 21/55/21 19/51/19 38/50/38
f 40/56/40 22/57/22 21/55/21 39/54/39
f 41/58/41 36/59/36 22/57/22 40/56/40
f 23/60/23 42/61/42 43/62/43 24/63/24
f 25/64/25 44/65/44 42/61/42 23/60/23
f 24/66/24 29/38/29 26/37/26
f 24/63/24 43/62/43 29/67/29
f 27/68/27 45/69/45 44/65/44 25/64/25
f 37/70/37 46/71/46 45/69/45 27/68/27
f 47/72/47 31/53/31 28/73/28 30/74/30
f 43/62/43 47/75/47 30/76/30 29/67/29
f 48/77/48 38/50/38 31/53/31 47/72/47
f 49/78/49 50/79/50 33/43/33 32/42/32
f 51/80/51 49/81/49 32/45/32 34/44/34
f 50/79/50 52/82/52 35/47/35 33/43/33
f 53/83/53 51/80/51 34/44/34 36/48/36
f 52/82/52 54/84/54 37/49/37 35/47/35
f 55/85/55 53/86/53 36/59/36 41/58/41
f 54/87/54 56/88/56 46/71/46 37/70/37
f 57/89/57 39/54/39 38/50/38 48/77/48
f 58/90/58 40/56/40 39/54/39 57/89/57
f 59/91/59 41/58/41 40/56/40 58/90/58
f 60/92/60 55/85/55 41/58/41 59/91/59
f 42/61/42 48/93/48 47/75/47 43/62/43
f 44/65/44 57/94/57 48/93/48 42/61/42
f 45/69/45 58/95/58 57/94/57 44/65/44
f 46/71/46 59/96/59 58/95/58 45/69/45
f 56/88/56 60/97/60 59/96/59 46/71/46
f 61/98/61 62/99/62 50/79/50 49/78/49
f 63/100/63 61/101/61 49/81/49 51/80/51
f 62/99/62 64/102/64 52/82/52 50/79/50
f 65/103/65 63/100/63 51/80/51 53/83/53
f 64/102/64 66/104/66 54/84/54 52/82/52
f 67/105/67 65/106/65 53/86/53 55/85/55
f 66/107/66 68/108/68 56/88/56 54/87/54
f 69/109/69 67/105/67 55/85/55 60/92/60
f 68/108/68 69/110/69 60/97/60 56/88/56
f 70/111/70 71/112/71 62/99/62 61/98/61
f 70/113/70 61/101/61 63/100/63
f 71/112/71 72/114/72 64/102/64 62/99/62
f 73/115/73 70/113/70 63/100/63 65/103/65
f 72/114/72 74/116/74 66/104/66 64/102/64
f 75/117/75 73/118/73 65/106/65 67/105/67
f 74/119/74 76/120/76 68/108/68 66/107/66
f 77/121/77 75/117/75 67/105/67 69/109/69
f 76/120/76 77/122/77 69/110/69 68/108/68
f 70/123/70 73/124/73 78/125/78
f 71/126/71 70/123/70 78/125/78
f 72/127/72 71/126/71 78/125/78
f 74/128/74 72/127/72 78/125/78
f 73/124/73 75/129/75 78/125/78
f 76/130/76 74/128/74 78/125/78
f 75/129/75 77/131/77 78/125/78
f 77/131/77 76/130/76 78/125/78
