# Blender v3.5.0 OBJ File: ''
# www.blender.org
mtllib hamate_lvs.mtl
o hamate_lvs
v 0.013153 -0.027423 0.011730
v 0.011978 -0.024048 0.013129
v 0.011837 -0.027606 0.013920
v 0.011282 -0.030205 0.013014
v 0.012284 -0.025571 0.010450
v 0.011997 -0.031455 0.011629
v 0.011636 -0.028957 0.009720
v 0.009949 -0.027268 0.015843
v 0.010017 -0.024562 0.016094
v 0.009850 -0.023029 0.015227
v 0.009619 -0.026446 0.010750
v 0.007890 -0.023343 0.012944
v 0.010573 -0.032806 0.012931
v 0.008639 -0.032783 0.013619
v 0.010124 -0.031797 0.010261
v 0.009014 -0.033568 0.011510
v 0.006671 -0.029148 0.010929
v 0.007088 -0.024189 0.017411
v 0.003617 -0.027265 0.017143
v 0.006625 -0.032062 0.014172
v 0.006034 -0.029231 0.015393
v 0.008497 -0.022631 0.015673
v 0.005891 -0.025423 0.011701
v 0.006540 -0.022767 0.013387
v 0.008067 -0.033575 0.011532
v 0.009042 -0.031902 0.010798
v 0.004888 -0.028300 0.010896
v 0.005318 -0.031501 0.011535
v 0.003943 -0.024186 0.018107
v 0.004384 -0.029845 0.014579
v 0.000902 -0.025326 0.021120
v 0.002511 -0.027977 0.015623
v -0.001078 -0.027651 0.019175
v 0.004162 -0.021312 0.014654
v 0.004303 -0.021891 0.016289
v 0.003312 -0.023886 0.011316
v 0.002650 -0.026596 0.010144
v 0.002453 -0.020300 0.012426
v 0.002104 -0.028192 0.010042
v 0.001015 -0.027758 0.012976
v 0.003000 -0.021806 0.016911
v -0.001518 -0.025396 0.022817
v -0.001988 -0.023670 0.022217
v -0.000881 -0.017294 0.016903
v -0.004078 -0.026030 0.023303
v -0.006514 -0.026669 0.022935
v -0.011247 -0.027510 0.010638
v -0.000896 -0.027339 0.007023
v -0.009484 -0.028543 0.018376
v -0.008255 -0.028631 0.020303
v 0.001827 -0.019356 0.014453
v 0.001863 -0.022641 0.010025
v 0.000861 -0.027948 0.008652
v 0.001604 -0.017382 0.008758
v 0.001858 -0.020304 0.008115
v 0.001713 -0.012777 0.010930
v 0.000206 -0.027817 0.007411
v -0.005547 -0.023301 0.023691
v -0.008251 -0.018952 0.020510
v -0.002283 -0.014538 0.015063
v 0.000289 -0.011602 0.013463
v -0.009138 -0.026921 0.019862
v -0.011885 -0.023717 0.011429
v -0.011575 -0.027396 0.012939
v 0.000807 -0.019774 0.006673
v 0.000644 -0.025300 0.007462
v 0.001312 -0.015350 0.007531
v 0.000832 -0.009279 0.009405
v -0.007795 -0.022396 0.020671
v -0.010289 -0.015154 0.014141
v -0.010650 -0.016771 0.012496
v -0.002126 -0.012808 0.013180
v -0.011228 -0.015132 0.009572
v -0.009903 -0.013983 0.009047
v -0.001704 -0.010813 0.008542
v -0.010059 -0.014240 0.012035
vt 0.423403 0.064040
vt 0.434048 0.147307
vt 0.377740 0.084572
vt 0.343947 0.040019
vt 0.993292 0.614347
vt 0.951347 0.578802
vt 1.000000 0.533845
vt 0.353193 0.002832
vt 0.945523 0.659671
vt 1.000000 0.708133
vt 0.332124 0.121547
vt 0.365839 0.172426
vt 0.391598 0.200788
vt 0.090927 0.535270
vt 0.110408 0.584877
vt 0.030669 0.571765
vt 0.066032 0.660476
vt 0.000000 0.637773
vt 0.299434 0.000000
vt 0.261244 0.027795
vt 0.870904 0.819911
vt 0.898859 0.749527
vt 0.945523 0.795071
vt 0.958213 0.724335
vt 0.617556 0.475587
vt 0.587962 0.533845
vt 0.573254 0.497054
vt 0.984458 0.761231
vt 0.812065 0.718109
vt 0.795684 0.818360
vt 0.309656 0.221749
vt 0.215612 0.208220
vt 0.232138 0.069364
vt 0.247055 0.134212
vt 0.370185 0.227318
vt 0.000304 0.671832
vt 0.878464 0.660471
vt 0.939536 0.675950
vt 0.065662 0.695920
vt 0.936151 0.641266
vt 0.572865 0.449867
vt 0.624253 0.454831
vt 0.574548 0.400006
vt 0.780992 0.796220
vt 0.745106 0.811876
vt 0.734922 0.792627
vt 0.810674 0.672799
vt 0.748355 0.714417
vt 0.251307 0.264983
vt 0.522571 0.299649
vt 0.577973 0.342158
vt 0.546498 0.370445
vt 0.156825 0.292540
vt 0.565495 0.288629
vt 0.452513 0.206180
vt 0.514687 0.183671
vt 0.640608 0.389267
vt 0.220169 0.141625
vt 0.052945 0.765189
vt 0.019452 0.768290
vt 0.305018 0.297869
vt 0.883510 0.592384
vt 0.823505 0.610711
vt 0.945523 0.533845
vt 0.110408 0.794014
vt 0.785288 0.616962
vt 0.633922 0.274788
vt 0.690419 0.321110
vt 0.278616 0.318398
vt 0.099455 0.328062
vt 0.120105 0.364842
vt 0.434048 0.141302
vt 0.273690 0.453993
vt 0.444170 0.083769
vt 0.471940 0.035185
vt 0.776975 0.024254
vt 0.776975 0.275503
vt 0.597507 0.008972
vt 0.546485 0.021897
vt 0.068954 0.828028
vt 0.315602 0.372201
vt 0.854858 0.131982
vt 0.810419 0.112439
vt 0.826816 0.044616
vt 0.810922 0.197075
vt 0.865116 0.003980
vt 0.825069 0.007139
vt 0.910006 0.244373
vt 0.907303 0.175842
vt 0.885781 0.358675
vt 0.776975 0.226737
vt 0.729539 0.303530
vt 0.761209 0.297973
vt 0.055178 0.828028
vt 0.055178 0.945925
vt 0.006987 0.911538
vt 0.044504 0.351012
vt 0.052000 0.422793
vt 0.095736 0.530089
vt 0.304759 0.518472
vt 0.400824 0.535270
vt 0.000000 0.369592
vt 0.371763 0.901123
vt 0.392495 0.814348
vt 0.427878 0.836879
vt 0.290297 0.914275
vt 0.456745 0.972400
vt 0.434048 0.886592
vt 0.704077 0.950437
vt 0.434048 0.602365
vt 0.426930 0.648092
vt 0.347493 0.601210
vt 0.729165 0.000000
vt 0.732619 0.773252
vt 0.734922 0.901684
vt 0.728866 0.960293
vt 0.434048 0.785192
vt 0.434048 0.486675
vt 0.905305 0.057846
vt 0.897085 0.000000
vt 0.948469 0.179237
vt 0.948469 0.284024
vt 0.942249 0.429002
vt 0.848067 0.394506
vt 0.283406 0.827999
vt 0.206547 0.809316
vt 0.734922 0.940985
vt 0.864806 0.819911
vt 0.864806 0.960220
vt 0.141010 0.644100
vt 0.182871 0.611422
vt 0.098001 0.934965
vt 0.110408 0.990405
vt 0.056433 0.939798
vt 0.986952 0.000000
vt 0.986952 0.185433
vt 0.948469 0.032228
vt 0.055178 0.839849
vt 0.734922 0.671356
vt 0.154126 0.538958
vt 0.471720 0.657021
vt 0.441584 0.685885
vt 0.656030 0.571936
vt 0.709173 0.533845
vt 0.110408 0.828028
vt 0.969611 0.990063
vt 0.880379 0.981313
vt 0.969611 0.824780
vt 0.929174 0.821607
vt 0.124497 0.598284
vt 0.125288 0.535269
vt 0.864806 0.819911
vn 0.8513 0.0815 0.5184
vn 0.8192 -0.3367 0.4642
vn 0.9257 0.3643 -0.1014
vn 0.7619 -0.2336 0.6041
vn 0.8079 -0.0277 -0.5886
vn 0.8534 -0.2330 -0.4663
vn 0.7189 0.1236 0.6841
vn 0.8376 -0.0713 0.5416
vn 0.7341 0.3931 0.5537
vn -0.3208 0.8072 -0.4955
vn 0.1423 0.6231 -0.7691
vn 0.1754 0.9437 -0.2804
vn 0.6287 -0.3723 0.6827
vn 0.7659 -0.2280 0.6012
vn 0.5712 -0.4201 0.7052
vn 0.3315 -0.1202 0.9358
vn -0.1864 0.2410 -0.9525
vn 0.5807 -0.4397 -0.6852
vn 0.5716 -0.7957 -0.2004
vn 0.5067 -0.6859 -0.5223
vn -0.2391 0.1979 -0.9506
vn -0.2340 -0.0603 -0.9704
vn 0.3982 -0.0946 0.9124
vn 0.1918 -0.2979 0.9351
vn 0.1095 -0.3940 0.9126
vn 0.0845 -0.3797 0.9212
vn 0.1703 -0.5301 0.8307
vn 0.4096 0.4825 0.7742
vn 0.4000 0.4971 0.7700
vn 0.1824 0.9407 -0.2860
vn -0.2032 0.1577 -0.9663
vn -0.0599 0.5538 -0.8305
vn 0.2888 0.9087 -0.3013
vn -0.0435 0.5430 -0.8386
vn 0.1188 -0.9235 0.3648
vn 0.0151 -0.9362 0.3511
vn -0.2109 -0.8934 0.3968
vn -0.3999 -0.3031 -0.8650
vn -0.3873 -0.3568 -0.8501
vn -0.0185 -0.3927 -0.9195
vn 0.1256 0.2265 -0.9659
vn -0.3111 -0.2239 -0.9236
vn -0.0796 -0.2054 -0.9754
vn -0.1329 -0.1748 -0.9756
vn 0.2050 -0.3121 0.9277
vn 0.1618 0.6660 0.7282
vn -0.0774 -0.7143 0.6956
vn 0.7268 -0.2741 0.6298
vn -0.3707 -0.7078 0.6013
vn 0.3129 -0.7519 0.5802
vn 0.2026 -0.9351 0.2906
vn -0.5973 -0.7918 0.1276
vn -0.6746 -0.7153 0.1822
vn -0.2667 -0.4281 0.8635
vn 0.3469 0.8706 -0.3488
vn 0.2092 0.9273 0.3103
vn 0.2179 0.5848 0.7814
vn 0.3779 0.4286 -0.8207
vn 0.3183 0.3097 -0.8960
vn 0.3953 0.1171 -0.9111
vn 0.4131 0.3581 -0.8373
vn 0.5183 0.8551 -0.0092
vn 0.2846 -0.1508 -0.9467
vn 0.2917 -0.0387 -0.9557
vn -0.5908 -0.7709 0.2381
vn -0.6765 -0.7222 -0.1443
vn 0.3927 0.5324 0.7499
vn 0.4826 0.5384 0.6908
vn -0.5975 -0.7531 0.2754
vn 0.5175 0.4033 0.7547
vn 0.3859 -0.7628 0.5189
vn 0.5386 0.4823 0.6909
vn 0.5563 0.4797 0.6785
vn -0.1101 -0.9937 -0.0200
vn 0.1598 -0.8738 0.4593
vn 0.0076 -0.9996 -0.0256
vn 0.1159 -0.9861 -0.1190
vn 0.1939 -0.8437 0.5006
vn 0.1190 -0.9802 -0.1580
vn 0.2973 -0.7953 0.5283
vn -0.1319 -0.9909 -0.0274
vn 0.6162 0.7577 0.2152
vn 0.6424 0.7513 -0.1515
vn 0.3273 0.7427 0.5841
vn 0.7166 0.1219 -0.6867
vn 0.7725 0.3492 -0.5303
vn 0.5946 0.0943 -0.7985
vn 0.7125 -0.2008 -0.6724
vn 0.9840 0.1154 -0.1359
vn 0.9847 -0.1089 -0.1358
vn 0.9625 0.1408 0.2317
vn 0.9820 0.0611 -0.1787
vn -0.2473 -0.9676 0.0513
vn -0.2902 -0.9555 0.0523
vn -0.4177 -0.9059 0.0703
vn 0.7282 0.6268 0.2773
vn 0.0907 0.3489 0.9328
vn 0.3884 0.0785 0.9181
vn 0.3664 0.5574 0.7451
vn 0.2288 0.6184 0.7518
vn 0.2064 0.6580 0.7242
vn -0.0750 0.5270 0.8465
vn 0.7429 0.2277 0.6295
vn -0.0974 -0.1913 0.9767
vn -0.7343 -0.2130 0.6445
vn -0.7614 0.0740 0.6441
vn -0.3285 0.1395 -0.9341
vn -0.9815 -0.1373 -0.1331
vn -0.4430 -0.8963 -0.0187
vn -0.3610 0.0382 -0.9318
vn 0.3179 -0.0361 -0.9474
vn 0.4381 -0.1397 -0.8880
vn -0.8130 -0.2895 0.5053
vn -0.9254 0.0746 0.3716
vn -0.9556 -0.0603 0.2884
vn 0.8901 0.2270 0.3951
vn 0.9750 -0.1393 -0.1730
vn 0.8692 -0.1417 -0.4737
vn 0.8630 -0.1465 -0.4834
vn 0.8253 0.1888 -0.5321
vn 0.9504 -0.0489 -0.3072
vn 0.9869 0.0491 -0.1536
vn 0.7834 -0.1104 -0.6116
vn 0.9638 0.1452 -0.2236
vn 0.8743 0.3614 0.3239
vn -0.7786 0.1210 0.6158
vn -0.8109 -0.0803 0.5796
vn -0.1261 0.8338 0.5375
vn -0.9044 -0.1004 0.4146
vn -0.9607 -0.0612 0.2709
vn -0.9418 0.1192 0.3144
vn -0.4133 0.6875 0.5971
vn -0.1331 0.7353 0.6645
vn -0.4467 0.8009 0.3987
vn -0.9059 0.2024 0.3720
vn -0.4012 0.2183 -0.8896
vn -0.9563 0.1298 0.2618
vn -0.1556 -0.2048 -0.9664
vn -0.2141 -0.1908 -0.9580
vn -0.1155 0.1422 -0.9831
vn 0.1382 0.3021 -0.9432
vn -0.5650 0.7754 0.2821
vn -0.2163 0.9039 0.3691
vn -0.2167 0.9040 0.3687
vn -0.9741 0.2259 -0.0083
vn -0.9039 0.2713 0.3307
vn -0.6476 0.7613 0.0317
vn -0.3566 0.9322 0.0616
usemtl Material_with_Texture.112
s off
f 1/1/1 2/2/1 3/3/1
f 1/1/2 3/3/2 4/4/2
f 1/5/3 5/6/3 2/7/3
f 1/1/4 4/4/4 6/8/4
f 5/6/5 1/5/5 7/9/5
f 6/10/6 7/9/6 1/5/6
f 2/2/7 8/11/7 3/3/7
f 2/2/8 9/12/8 8/11/8
f 10/13/9 9/12/9 2/2/9
f 5/14/10 11/15/10 2/16/10
f 11/15/11 12/17/11 2/16/11
f 2/16/12 12/17/12 10/18/12
f 3/3/13 8/11/13 4/4/13
f 4/4/14 13/19/14 6/8/14
f 14/20/15 4/4/15 8/11/15
f 4/4/16 14/20/16 13/19/16
f 7/21/17 11/22/17 5/23/17
f 7/9/18 6/10/18 15/24/18
f 16/25/19 6/26/19 13/27/19
f 6/10/20 16/28/20 15/24/20
f 11/22/21 7/21/21 17/29/21
f 17/29/22 7/21/22 15/30/22
f 8/11/23 9/12/23 18/31/23
f 19/32/24 8/11/24 18/31/24
f 20/33/25 14/20/25 8/11/25
f 20/33/26 8/11/26 21/34/26
f 21/34/27 8/11/27 19/32/27
f 10/13/28 18/31/28 9/12/28
f 18/31/29 10/13/29 22/35/29
f 12/17/30 22/36/30 10/18/30
f 23/37/31 11/22/31 17/29/31
f 11/22/32 23/37/32 12/38/32
f 24/39/33 22/36/33 12/17/33
f 12/38/34 23/37/34 24/40/34
f 13/27/35 14/41/35 16/25/35
f 16/25/36 14/41/36 25/42/36
f 20/43/37 25/42/37 14/41/37
f 26/44/38 17/29/38 15/30/38
f 16/45/39 26/44/39 15/30/39
f 25/46/40 26/44/40 16/45/40
f 23/37/41 17/29/41 27/47/41
f 25/46/42 17/29/42 26/44/42
f 17/29/43 28/48/43 27/47/43
f 17/29/44 25/46/44 28/48/44
f 29/49/45 19/32/45 18/31/45
f 29/49/46 18/31/46 22/35/46
f 19/50/47 30/51/47 21/52/47
f 19/32/48 29/49/48 31/53/48
f 32/54/49 30/51/49 19/50/49
f 19/50/50 31/55/50 33/56/50
f 32/54/51 19/50/51 33/56/51
f 25/42/52 20/43/52 28/57/52
f 28/57/53 20/43/53 30/51/53
f 21/34/54 30/58/54 20/33/54
f 22/36/55 24/39/55 34/59/55
f 22/36/56 34/59/56 35/60/56
f 29/49/57 22/35/57 35/61/57
f 24/40/58 23/37/58 36/62/58
f 37/63/59 36/62/59 23/37/59
f 37/63/60 23/37/60 27/47/60
f 24/40/61 36/62/61 38/64/61
f 38/65/62 34/59/62 24/39/62
f 39/66/63 27/47/63 28/48/63
f 27/47/64 39/66/64 37/63/64
f 40/67/65 28/57/65 30/51/65
f 28/57/66 40/67/66 39/68/66
f 41/69/67 29/49/67 35/61/67
f 41/69/68 31/53/68 29/49/68
f 40/67/69 30/51/69 32/54/69
f 42/70/70 31/53/70 43/71/70
f 42/72/71 33/56/71 31/55/71
f 43/71/72 31/53/72 44/73/72
f 41/69/73 44/73/73 31/53/73
f 40/67/74 32/54/74 33/56/74
f 33/56/75 45/74/75 46/75/75
f 47/76/76 48/77/76 33/56/76
f 49/78/77 33/56/77 50/79/77
f 46/75/78 50/79/78 33/56/78
f 33/56/79 49/78/79 47/76/79
f 33/56/80 42/72/80 45/74/80
f 40/67/81 33/56/81 48/77/81
f 35/60/82 34/59/82 51/80/82
f 34/59/83 38/65/83 51/80/83
f 41/69/84 35/61/84 51/81/84
f 52/82/85 36/83/85 37/84/85
f 38/85/86 36/83/86 52/82/86
f 37/84/87 53/86/87 52/82/87
f 53/86/88 37/84/88 39/87/88
f 54/88/89 38/85/89 55/89/89
f 55/89/90 38/85/90 52/82/90
f 38/85/91 56/90/91 51/91/91
f 56/90/92 38/85/92 54/88/92
f 53/92/93 39/68/93 40/67/93
f 57/93/94 53/92/94 40/67/94
f 48/77/95 57/93/95 40/67/95
f 44/94/96 41/95/96 51/96/96
f 43/71/97 45/97/97 42/70/97
f 45/97/98 43/71/98 58/98/98
f 44/73/99 58/98/99 43/71/99
f 59/99/100 44/73/100 60/100/100
f 59/99/101 58/98/101 44/73/101
f 61/101/102 60/100/102 44/73/102
f 61/101/103 44/73/103 51/81/103
f 45/97/104 58/98/104 46/102/104
f 46/103/105 62/104/105 50/105/105
f 46/103/106 58/106/106 62/104/106
f 47/107/107 63/108/107 48/109/107
f 47/110/108 64/111/108 63/112/108
f 64/113/109 47/76/109 49/78/109
f 48/109/110 63/108/110 65/114/110
f 48/109/111 66/115/111 57/116/111
f 65/114/112 66/115/112 48/109/112
f 62/104/113 49/117/113 50/105/113
f 63/112/114 64/111/114 49/117/114
f 62/104/115 63/112/115 49/117/115
f 51/81/116 56/118/116 61/101/116
f 52/82/117 53/86/117 55/89/117
f 66/119/118 53/86/118 57/120/118
f 53/86/119 66/119/119 55/89/119
f 55/89/120 65/121/120 54/88/120
f 54/88/121 65/121/121 67/122/121
f 54/88/122 67/122/122 56/90/122
f 66/119/123 65/121/123 55/89/123
f 56/90/124 67/122/124 68/123/124
f 56/90/125 68/123/125 61/124/125
f 62/104/126 58/106/126 69/125/126
f 59/126/127 69/125/127 58/106/127
f 60/127/128 70/128/128 59/129/128
f 63/112/129 69/125/129 59/126/129
f 70/130/130 71/131/130 59/126/130
f 59/126/131 71/131/131 63/112/131
f 72/132/132 60/133/132 61/134/132
f 72/135/133 70/136/133 60/137/133
f 68/138/134 72/132/134 61/134/134
f 63/112/135 62/104/135 69/125/135
f 65/114/136 63/108/136 67/139/136
f 63/112/137 71/131/137 73/140/137
f 67/139/138 63/108/138 74/141/138
f 73/142/139 74/141/139 63/108/139
f 75/143/140 67/139/140 74/141/140
f 75/143/141 68/144/141 67/139/141
f 75/145/142 72/132/142 68/138/142
f 72/146/143 75/147/143 70/148/143
f 70/148/144 75/147/144 76/149/144
f 76/150/145 71/131/145 70/130/145
f 71/131/146 76/150/146 73/140/146
f 73/140/147 76/150/147 74/151/147
f 74/152/148 76/149/148 75/147/148
