# Blender 4.3.0
# www.blender.org
mtllib hamate_rvs.mtl
o hamate_rvs
v 0.011837 -0.027606 -0.013920
v 0.011978 -0.024048 -0.013129
v 0.013153 -0.027423 -0.011730
v 0.011282 -0.030205 -0.013014
v 0.009949 -0.027268 -0.015843
v 0.010017 -0.024562 -0.016094
v 0.009850 -0.023029 -0.015227
v 0.012284 -0.025571 -0.010450
v 0.009619 -0.026446 -0.010750
v 0.007890 -0.023343 -0.012944
v 0.011997 -0.031455 -0.011629
v 0.011636 -0.028957 -0.009720
v 0.010573 -0.032806 -0.012931
v 0.008639 -0.032783 -0.013619
v 0.007088 -0.024189 -0.017411
v 0.003617 -0.027265 -0.017143
v 0.006625 -0.032062 -0.014172
v 0.006034 -0.029231 -0.015393
v 0.008497 -0.022631 -0.015673
v 0.006671 -0.029148 -0.010929
v 0.005891 -0.025423 -0.011701
v 0.006540 -0.022767 -0.013387
v 0.010124 -0.031797 -0.010261
v 0.009014 -0.033568 -0.011510
v 0.008067 -0.033575 -0.011532
v 0.003943 -0.024186 -0.018107
v 0.004384 -0.029845 -0.014579
v 0.000902 -0.025326 -0.021120
v 0.002511 -0.027977 -0.015623
v -0.001078 -0.027651 -0.019175
v 0.005318 -0.031501 -0.011535
v 0.004162 -0.021312 -0.014654
v 0.004303 -0.021891 -0.016289
v 0.004888 -0.028300 -0.010896
v 0.009042 -0.031902 -0.010798
v 0.003312 -0.023886 -0.011316
v 0.002650 -0.026596 -0.010144
v 0.002453 -0.020300 -0.012426
v 0.003000 -0.021806 -0.016911
v 0.001015 -0.027758 -0.012976
v -0.001988 -0.023670 -0.022217
v -0.001518 -0.025396 -0.022817
v -0.000881 -0.017294 -0.016903
v -0.006514 -0.026669 -0.022935
v -0.004078 -0.026030 -0.023303
v -0.000896 -0.027339 -0.007023
v -0.011247 -0.027510 -0.010638
v -0.008255 -0.028631 -0.020303
v -0.009484 -0.028543 -0.018376
v 0.002104 -0.028192 -0.010042
v 0.001827 -0.019356 -0.014453
v 0.001863 -0.022641 -0.010025
v 0.000861 -0.027948 -0.008652
v 0.001858 -0.020304 -0.008115
v 0.001604 -0.017382 -0.008758
v 0.001713 -0.012777 -0.010930
v 0.000206 -0.027817 -0.007411
v -0.005547 -0.023301 -0.023691
v -0.002283 -0.014538 -0.015063
v -0.008251 -0.018952 -0.020510
v 0.000289 -0.011602 -0.013463
v -0.009138 -0.026921 -0.019862
v 0.000807 -0.019774 -0.006673
v -0.011885 -0.023717 -0.011429
v 0.000644 -0.025300 -0.007462
v -0.011575 -0.027396 -0.012939
v 0.001312 -0.015350 -0.007531
v 0.000832 -0.009279 -0.009405
v -0.007795 -0.022396 -0.020671
v -0.002126 -0.012808 -0.013180
v -0.010289 -0.015154 -0.014141
v -0.010650 -0.016771 -0.012496
v -0.011228 -0.015132 -0.009572
v -0.009903 -0.013983 -0.009047
v -0.001704 -0.010813 -0.008542
v -0.010059 -0.014240 -0.012035
vn 0.7723 -0.1427 -0.6191
vn 0.7126 0.7012 0.0215
vn 0.9990 -0.0451 0.0041
vn 0.6809 -0.3055 -0.6656
vn 0.4944 -0.2504 -0.8324
vn 0.6254 0.1624 -0.7632
vn 0.4818 0.8248 -0.2959
vn 0.4183 0.5678 0.7089
vn -0.1584 0.4151 0.8959
vn 0.1135 0.7719 0.6255
vn 0.8640 -0.4995 0.0634
vn 0.3690 -0.0823 0.9258
vn 0.5498 -0.6644 -0.5063
vn 0.1164 -0.7128 -0.6916
vn 0.2642 0.2135 -0.9405
vn 0.2166 -0.6521 -0.7265
vn -0.3208 -0.7057 -0.6317
vn 0.0047 -0.5183 -0.8552
vn 0.3477 0.8745 -0.3381
vn -0.1429 -0.0224 0.9895
vn 0.1458 0.3578 0.9223
vn 0.3163 0.7525 0.5777
vn 0.1190 -0.4579 0.8810
vn 0.1479 -0.9208 0.3610
vn -0.2736 -0.8768 0.3954
vn 0.4665 0.1984 -0.8620
vn -0.4550 -0.7293 -0.5109
vn 0.5958 -0.1642 -0.7862
vn -0.2511 -0.9185 -0.3054
vn 0.1830 -0.9374 -0.2962
vn -0.4983 -0.6837 0.5331
vn 0.5060 0.8601 -0.0645
vn 0.3344 0.7429 -0.5798
vn 0.2159 0.0060 0.9764
vn -0.3437 -0.3043 0.8884
vn 0.5467 0.3031 0.7805
vn 0.5063 0.0708 0.8594
vn 0.8999 0.3758 0.2215
vn 0.4856 0.5969 -0.6386
vn -0.3449 -0.9382 -0.0278
vn 0.4082 0.4272 -0.8068
vn 0.4025 -0.1976 -0.8938
vn 0.4645 0.5264 -0.7122
vn -0.3401 -0.4693 -0.8149
vn 0.1957 -0.4616 -0.8652
vn -0.1101 -0.5856 0.8031
vn -0.5734 -0.5796 0.5790
vn -0.3574 -0.8285 -0.4312
vn -0.6046 -0.7785 -0.1684
vn 0.0426 -0.7509 0.6590
vn 0.8133 0.5050 -0.2891
vn 0.9247 0.0301 0.3796
vn 0.3734 -0.8439 0.3852
vn 0.9238 0.0048 0.3828
vn 0.9694 0.0493 0.2404
vn 0.9734 0.2090 -0.0939
vn 0.2665 -0.7653 0.5859
vn -0.1703 0.2605 -0.9503
vn -0.0801 0.6742 -0.7342
vn -0.5212 0.4571 -0.7208
vn 0.3022 0.7024 -0.6444
vn -0.8666 -0.0384 -0.4976
vn 0.2898 0.1048 0.9513
vn -0.9220 0.0483 0.3842
vn 0.6850 -0.1407 0.7149
vn -0.8765 -0.4668 -0.1179
vn 0.5733 0.1134 0.8115
vn 0.3415 0.9129 0.2236
vn -0.8562 0.0193 -0.5164
vn -0.3264 0.8016 -0.5009
vn -0.7371 0.5498 -0.3928
vn -0.9594 0.1340 -0.2483
vn -0.8369 0.2525 0.4857
vn -0.4827 0.5536 0.6786
vn -0.2909 0.7584 0.5833
vn -0.6262 0.7417 -0.2405
vt 0.377740 0.450698
vt 0.434048 0.387962
vt 0.423403 0.471230
vt 0.343947 0.495250
vt 0.332124 0.413723
vt 0.365839 0.362843
vt 0.391598 0.334482
vt 1.000000 0.761231
vt 0.951347 0.716274
vt 0.993292 0.680729
vt 0.030669 0.791533
vt 0.110408 0.778421
vt 0.090927 0.828028
vt 0.066032 0.702822
vt 0.000000 0.725525
vt 0.353193 0.532438
vt 0.945523 0.635405
vt 1.000000 0.586943
vt 0.299434 0.535270
vt 0.261244 0.507475
vt 0.309656 0.313521
vt 0.215612 0.327049
vt 0.232138 0.465906
vt 0.247055 0.401058
vt 0.370185 0.307951
vt 0.000304 0.691465
vt 0.945523 0.558686
vt 0.898859 0.604230
vt 0.870904 0.533845
vt 0.812065 0.635647
vt 0.878464 0.693286
vt 0.939536 0.677807
vt 0.065662 0.667378
vt 0.936151 0.712491
vt 0.958213 0.570741
vt 0.573254 0.036791
vt 0.587962 0.000000
vt 0.617556 0.058258
vt 0.984458 0.533845
vt 0.795684 0.535397
vt 0.572865 0.083978
vt 0.624253 0.079014
vt 0.574548 0.133839
vt 0.251307 0.270287
vt 0.546498 0.163401
vt 0.577973 0.191687
vt 0.522571 0.234196
vt 0.156825 0.242730
vt 0.565495 0.245217
vt 0.514687 0.350175
vt 0.452513 0.327665
vt 0.640608 0.144578
vt 0.220169 0.393645
vt 0.052945 0.598109
vt 0.019452 0.595007
vt 0.305018 0.237401
vt 0.810674 0.680958
vt 0.780992 0.557537
vt 0.734922 0.561130
vt 0.748355 0.639340
vt 0.883510 0.761373
vt 0.823505 0.743045
vt 0.945523 0.819911
vt 0.110408 0.569284
vt 0.745106 0.541881
vt 0.278616 0.216872
vt 0.633922 0.259057
vt 0.120105 0.170427
vt 0.099455 0.207208
vt 0.434048 0.392543
vt 0.273690 0.081277
vt 0.471940 0.498660
vt 0.444170 0.450076
vt 0.776975 0.258342
vt 0.776975 0.509591
vt 0.546485 0.511948
vt 0.597507 0.524873
vt 0.785288 0.736794
vt 0.690419 0.212736
vt 0.068954 0.535269
vt 0.315602 0.163068
vt 0.826816 0.384386
vt 0.810419 0.316563
vt 0.854858 0.297020
vt 0.810922 0.231927
vt 0.865116 0.425022
vt 0.825069 0.421863
vt 0.907303 0.253160
vt 0.910006 0.184629
vt 0.776975 0.202265
vt 0.885781 0.070328
vt 0.006987 0.862415
vt 0.055178 0.828028
vt 0.055178 0.945925
vt 0.729539 0.230315
vt 0.761209 0.235872
vt 0.044504 0.184258
vt 0.052000 0.112476
vt 0.304759 0.016797
vt 0.095736 0.005180
vt 0.400824 0.000000
vt 0.427878 0.612666
vt 0.392495 0.635197
vt 0.371763 0.548422
vt 0.290297 0.535269
vt 0.000000 0.165678
vt 0.732619 0.732993
vt 0.434048 0.619654
vt 0.704077 0.555808
vt 0.728866 0.545952
vt 0.734922 0.604562
vt 0.456745 0.533845
vt 0.347493 0.848335
vt 0.426930 0.801452
vt 0.434048 0.847180
vt 0.729165 0.533845
vt 0.434048 0.664352
vt 0.434048 0.048594
vt 0.897085 0.429002
vt 0.905305 0.371157
vt 0.948469 0.249765
vt 0.948469 0.144978
vt 0.942249 0.000000
vt 0.848067 0.034497
vt 0.283406 0.621546
vt 0.206547 0.640228
vt 0.056433 0.878636
vt 0.110408 0.828028
vt 0.098001 0.883468
vt 0.948469 0.153205
vt 0.986952 0.000000
vt 0.986952 0.185433
vt 0.864806 0.819911
vt 0.864806 0.960220
vt 0.734922 0.839147
vt 0.182871 0.838123
vt 0.141010 0.805445
vt 0.055178 0.978584
vt 0.734922 0.834890
vt 0.154126 0.910587
vt 0.471720 0.849225
vt 0.441584 0.820360
vt 0.656030 0.934309
vt 0.709173 0.972400
vt 0.110408 0.990405
vt 0.969611 0.985195
vt 0.880379 0.828662
vt 0.969611 0.819911
vt 0.929174 0.988367
vt 0.124497 0.851260
vt 0.125288 0.914275
vt 0.864806 0.990063
s 1
usemtl Material_with_Texture.113
f 1/1/1 2/2/2 3/3/3
f 4/4/4 1/1/1 3/3/3
f 1/1/1 5/5/5 2/2/2
f 4/4/4 5/5/5 1/1/1
f 5/5/5 6/6/6 2/2/2
f 2/2/2 6/6/6 7/7/7
f 2/8/2 8/9/8 3/10/3
f 2/11/2 9/12/9 8/13/8
f 2/11/2 10/14/10 9/12/9
f 7/15/7 10/14/10 2/11/2
f 11/16/11 4/4/4 3/3/3
f 12/17/12 3/10/3 8/9/8
f 3/10/3 12/17/12 11/18/11
f 11/16/11 13/19/13 4/4/4
f 5/5/5 4/4/4 14/20/14
f 13/19/13 14/20/14 4/4/4
f 15/21/15 6/6/6 5/5/5
f 15/21/15 5/5/5 16/22/16
f 5/5/5 14/20/14 17/23/17
f 18/24/18 5/5/5 17/23/17
f 16/22/16 5/5/5 18/24/18
f 6/6/6 15/21/15 7/7/7
f 19/25/19 7/7/7 15/21/15
f 7/15/7 19/26/19 10/14/10
f 8/27/8 9/28/9 12/29/12
f 20/30/20 9/28/9 21/31/21
f 20/30/20 12/29/12 9/28/9
f 10/32/10 21/31/21 9/28/9
f 10/14/10 19/26/19 22/33/22
f 22/34/22 21/31/21 10/32/10
f 23/35/23 11/18/11 12/17/12
f 13/36/13 11/37/11 24/38/24
f 23/35/23 24/39/24 11/18/11
f 23/40/23 12/29/12 20/30/20
f 24/38/24 14/41/14 13/36/13
f 25/42/25 14/41/14 24/38/24
f 14/41/14 25/42/25 17/43/17
f 15/21/15 16/22/16 26/44/26
f 19/25/19 15/21/15 26/44/26
f 18/45/18 27/46/27 16/47/16
f 28/48/28 26/44/26 16/22/16
f 16/47/16 27/46/27 29/49/29
f 30/50/30 28/51/28 16/47/16
f 30/50/30 16/47/16 29/49/29
f 31/52/31 17/43/17 25/42/25
f 27/46/27 17/43/17 31/52/31
f 17/23/17 27/53/27 18/24/18
f 32/54/32 22/33/22 19/26/19
f 33/55/33 32/54/32 19/26/19
f 33/56/33 19/25/19 26/44/26
f 34/57/34 20/30/20 21/31/21
f 23/40/23 20/30/20 35/58/35
f 35/58/35 20/30/20 25/59/25
f 34/57/34 31/60/31 20/30/20
f 31/60/31 25/59/25 20/30/20
f 36/61/36 21/31/21 22/34/22
f 21/31/21 36/61/36 37/62/37
f 34/57/34 21/31/21 37/62/37
f 38/63/38 36/61/36 22/34/22
f 22/33/22 32/54/32 38/64/38
f 23/40/23 35/58/35 24/65/24
f 24/65/24 35/58/35 25/59/25
f 33/56/33 26/44/26 39/66/39
f 26/44/26 28/48/28 39/66/39
f 29/49/29 27/46/27 40/67/40
f 27/46/27 31/52/31 40/67/40
f 41/68/41 28/48/28 42/69/42
f 28/51/28 30/50/30 42/70/42
f 43/71/43 28/48/28 41/68/41
f 28/48/28 43/71/43 39/66/39
f 30/50/30 29/49/29 40/67/40
f 44/72/44 45/73/45 30/50/30
f 30/50/30 46/74/46 47/75/47
f 48/76/48 30/50/30 49/77/49
f 30/50/30 48/76/48 44/72/44
f 47/75/47 49/77/49 30/50/30
f 45/73/45 42/70/42 30/50/30
f 46/74/46 30/50/30 40/67/40
f 31/60/31 34/57/34 50/78/50
f 50/79/50 40/67/40 31/52/31
f 51/80/51 32/54/32 33/55/33
f 51/80/51 38/64/38 32/54/32
f 51/81/51 33/56/33 39/66/39
f 37/62/37 50/78/50 34/57/34
f 37/82/37 36/83/36 52/84/52
f 52/84/52 36/83/36 38/85/38
f 52/84/52 53/86/53 37/82/37
f 50/87/50 37/82/37 53/86/53
f 54/88/54 38/85/38 55/89/55
f 52/84/52 38/85/38 54/88/54
f 51/90/51 56/91/56 38/85/38
f 55/89/55 38/85/38 56/91/56
f 51/92/51 39/93/39 43/94/43
f 40/67/40 53/95/53 57/96/57
f 40/67/40 57/96/57 46/74/46
f 40/67/40 50/79/50 53/95/53
f 42/69/42 45/97/45 41/68/41
f 58/98/58 41/68/41 45/97/45
f 41/68/41 58/98/58 43/71/43
f 59/99/59 43/71/43 60/100/60
f 43/71/43 58/98/58 60/100/60
f 43/71/43 59/99/59 61/101/61
f 51/81/51 43/71/43 61/101/61
f 48/102/48 62/103/62 44/104/44
f 62/103/62 58/105/58 44/104/44
f 44/106/44 58/98/58 45/97/45
f 63/107/63 64/108/64 46/109/46
f 57/110/57 65/111/65 46/109/46
f 46/109/46 65/111/65 63/107/63
f 46/109/46 64/108/64 47/112/47
f 64/113/64 66/114/66 47/115/47
f 49/77/49 47/75/47 66/116/66
f 48/102/48 49/117/49 62/103/62
f 49/117/49 66/114/66 64/113/64
f 49/117/49 64/113/64 62/103/62
f 61/101/61 56/118/56 51/81/51
f 54/88/54 53/86/53 52/84/52
f 57/119/57 53/86/53 65/120/65
f 54/88/54 65/120/65 53/86/53
f 54/88/54 63/121/63 65/120/65
f 55/89/55 63/121/63 54/88/54
f 67/122/67 63/121/63 55/89/55
f 56/91/56 67/122/67 55/89/55
f 68/123/68 67/122/67 56/91/56
f 61/124/61 68/123/68 56/91/56
f 69/125/69 58/105/58 62/103/62
f 58/105/58 69/125/69 60/126/60
f 61/127/61 59/128/59 70/129/70
f 59/130/59 71/131/71 70/132/70
f 60/133/60 71/134/71 59/135/59
f 60/126/60 69/125/69 64/113/64
f 60/126/60 72/136/72 71/137/71
f 64/113/64 72/136/72 60/126/60
f 61/127/61 70/129/70 68/138/68
f 69/125/69 62/103/62 64/113/64
f 67/139/67 64/108/64 63/107/63
f 73/140/73 72/136/72 64/113/64
f 74/141/74 64/108/64 67/139/67
f 64/108/64 74/141/74 73/142/73
f 74/141/74 67/139/67 75/143/75
f 67/139/67 68/144/68 75/143/75
f 68/138/68 70/129/70 75/145/75
f 71/146/71 75/147/75 70/148/70
f 76/149/76 75/147/75 71/146/71
f 71/137/71 72/136/72 76/150/76
f 73/140/73 76/150/76 72/136/72
f 74/151/74 76/150/76 73/140/73
f 75/147/75 76/149/76 74/152/74
