# Blender 4.3.0
# www.blender.org
mtllib hamate_lvs.mtl
o hamate_lvs
v 0.013153 -0.027423 0.011730
v 0.011978 -0.024048 0.013129
v 0.011837 -0.027606 0.013920
v 0.011282 -0.030205 0.013014
v 0.012284 -0.025571 0.010450
v 0.011997 -0.031455 0.011629
v 0.011636 -0.028957 0.009720
v 0.009949 -0.027268 0.015843
v 0.010017 -0.024562 0.016094
v 0.009850 -0.023029 0.015227
v 0.009619 -0.026446 0.010750
v 0.007890 -0.023343 0.012944
v 0.010573 -0.032806 0.012931
v 0.008639 -0.032783 0.013619
v 0.010124 -0.031797 0.010261
v 0.009014 -0.033568 0.011510
v 0.006671 -0.029148 0.010929
v 0.007088 -0.024189 0.017411
v 0.003617 -0.027265 0.017143
v 0.006625 -0.032062 0.014172
v 0.006034 -0.029231 0.015393
v 0.008497 -0.022631 0.015673
v 0.005891 -0.025423 0.011701
v 0.006540 -0.022767 0.013387
v 0.008067 -0.033575 0.011532
v 0.009042 -0.031902 0.010798
v 0.004888 -0.028300 0.010896
v 0.005318 -0.031501 0.011535
v 0.003943 -0.024186 0.018107
v 0.004384 -0.029845 0.014579
v 0.000902 -0.025326 0.021120
v 0.002511 -0.027977 0.015623
v -0.001078 -0.027651 0.019175
v 0.004162 -0.021312 0.014654
v 0.004303 -0.021891 0.016289
v 0.003312 -0.023886 0.011316
v 0.002650 -0.026596 0.010144
v 0.002453 -0.020300 0.012426
v 0.002104 -0.028192 0.010042
v 0.001015 -0.027758 0.012976
v 0.003000 -0.021806 0.016911
v -0.001518 -0.025396 0.022817
v -0.001988 -0.023670 0.022217
v -0.000881 -0.017294 0.016903
v -0.004078 -0.026030 0.023303
v -0.006514 -0.026669 0.022935
v -0.011247 -0.027510 0.010638
v -0.000896 -0.027339 0.007023
v -0.009484 -0.028543 0.018376
v -0.008255 -0.028631 0.020303
v 0.001827 -0.019356 0.014453
v 0.001863 -0.022641 0.010025
v 0.000861 -0.027948 0.008652
v 0.001604 -0.017382 0.008758
v 0.001858 -0.020304 0.008115
v 0.001713 -0.012777 0.010930
v 0.000206 -0.027817 0.007411
v -0.005547 -0.023301 0.023691
v -0.008251 -0.018952 0.020510
v -0.002283 -0.014538 0.015063
v 0.000289 -0.011602 0.013463
v -0.009138 -0.026921 0.019862
v -0.011885 -0.023717 0.011429
v -0.011575 -0.027396 0.012939
v 0.000807 -0.019774 0.006673
v 0.000644 -0.025300 0.007462
v 0.001312 -0.015350 0.007531
v 0.000832 -0.009279 0.009405
v -0.007795 -0.022396 0.020671
v -0.010289 -0.015154 0.014141
v -0.010650 -0.016771 0.012496
v -0.002126 -0.012808 0.013180
v -0.011228 -0.015132 0.009572
v -0.009903 -0.013983 0.009047
v -0.001704 -0.010813 0.008542
v -0.010059 -0.014240 0.012035
vn 0.9990 -0.0451 -0.0041
vn 0.7126 0.7012 -0.0215
vn 0.7723 -0.1427 0.6191
vn 0.6798 -0.3065 0.6663
vn 0.4183 0.5678 -0.7089
vn 0.8643 -0.4988 -0.0648
vn 0.3690 -0.0823 -0.9258
vn 0.4944 -0.2504 0.8324
vn 0.6254 0.1624 0.7632
vn 0.4810 0.8241 0.2991
vn -0.1584 0.4151 -0.8959
vn 0.1145 0.7728 -0.6243
vn 0.5498 -0.6644 0.5063
vn 0.1164 -0.7128 0.6916
vn 0.1190 -0.4579 -0.8810
vn 0.1479 -0.9208 -0.3610
vn -0.1429 -0.0224 -0.9895
vn 0.2642 0.2135 0.9405
vn 0.2166 -0.6521 0.7265
vn -0.3208 -0.7057 0.6317
vn 0.0047 -0.5183 0.8552
vn 0.3477 0.8745 0.3381
vn 0.1458 0.3578 -0.9223
vn 0.3163 0.7525 -0.5777
vn -0.2736 -0.8768 -0.3954
vn -0.3437 -0.3043 -0.8884
vn 0.2159 0.0060 -0.9764
vn -0.4983 -0.6837 -0.5331
vn 0.4665 0.1984 0.8620
vn -0.4550 -0.7293 0.5109
vn 0.5958 -0.1642 0.7862
vn -0.2511 -0.9185 0.3054
vn 0.1830 -0.9374 0.2962
vn 0.5060 0.8601 0.0645
vn 0.3344 0.7429 0.5798
vn 0.5467 0.3031 -0.7805
vn 0.5063 0.0708 -0.8594
vn 0.8999 0.3758 -0.2215
vn 0.0426 -0.7509 -0.6590
vn -0.3449 -0.9382 0.0278
vn 0.4856 0.5969 0.6386
vn 0.4025 -0.1976 0.8938
vn 0.4082 0.4272 0.8068
vn 0.4645 0.5264 0.7122
vn 0.1957 -0.4616 0.8652
vn -0.3401 -0.4693 0.8149
vn -0.5734 -0.5796 -0.5790
vn -0.1101 -0.5856 -0.8031
vn -0.6046 -0.7785 0.1684
vn -0.3574 -0.8285 0.4312
vn 0.8133 0.5050 0.2891
vn 0.9247 0.0301 -0.3796
vn 0.3734 -0.8433 -0.3866
vn 0.9694 0.0493 -0.2404
vn 0.9238 0.0048 -0.3828
vn 0.9734 0.2090 0.0939
vn 0.2665 -0.7653 -0.5859
vn -0.1703 0.2605 0.9503
vn -0.5212 0.4571 0.7208
vn -0.0801 0.6742 0.7342
vn 0.3022 0.7024 0.6444
vn -0.8666 -0.0384 0.4976
vn -0.9220 0.0483 -0.3842
vn -0.8765 -0.4668 0.1179
vn 0.2898 0.1048 -0.9513
vn 0.6811 -0.1412 -0.7184
vn 0.5733 0.1134 -0.8115
vn 0.3415 0.9129 -0.2236
vn -0.8562 0.0193 0.5164
vn -0.7371 0.5498 0.3928
vn -0.9594 0.1340 0.2483
vn -0.3264 0.8016 0.5009
vn -0.8369 0.2525 -0.4857
vn -0.4827 0.5536 -0.6786
vn -0.2908 0.7584 -0.5833
vn -0.6262 0.7417 0.2405
vt 0.423403 0.064040
vt 0.434048 0.147307
vt 0.377740 0.084572
vt 0.343947 0.040019
vt 0.993292 0.614347
vt 0.951347 0.578802
vt 1.000000 0.533845
vt 0.353193 0.002832
vt 0.945523 0.659671
vt 1.000000 0.708133
vt 0.332124 0.121547
vt 0.365839 0.172426
vt 0.391598 0.200788
vt 0.090927 0.535270
vt 0.110408 0.584877
vt 0.030669 0.571765
vt 0.066032 0.660476
vt 0.000000 0.637773
vt 0.299434 0.000000
vt 0.261244 0.027795
vt 0.870904 0.819911
vt 0.898859 0.749527
vt 0.945523 0.795071
vt 0.958213 0.724335
vt 0.617556 0.475587
vt 0.587962 0.533845
vt 0.573254 0.497054
vt 0.984458 0.761231
vt 0.812065 0.718109
vt 0.795684 0.818360
vt 0.309656 0.221749
vt 0.215612 0.208220
vt 0.232138 0.069364
vt 0.247055 0.134212
vt 0.370185 0.227318
vt 0.000304 0.671832
vt 0.878464 0.660471
vt 0.939536 0.675950
vt 0.065662 0.695920
vt 0.936151 0.641266
vt 0.572865 0.449867
vt 0.624253 0.454831
vt 0.574548 0.400006
vt 0.780992 0.796220
vt 0.745106 0.811876
vt 0.734922 0.792627
vt 0.810674 0.672799
vt 0.748355 0.714417
vt 0.251307 0.264983
vt 0.522571 0.299649
vt 0.577973 0.342158
vt 0.546498 0.370445
vt 0.156825 0.292540
vt 0.565495 0.288629
vt 0.452513 0.206180
vt 0.514687 0.183671
vt 0.640608 0.389267
vt 0.220169 0.141625
vt 0.052945 0.765189
vt 0.019452 0.768290
vt 0.305018 0.297869
vt 0.883510 0.592384
vt 0.823505 0.610711
vt 0.945523 0.533845
vt 0.110408 0.794014
vt 0.785288 0.616962
vt 0.633922 0.274788
vt 0.690419 0.321110
vt 0.278616 0.318398
vt 0.099455 0.328062
vt 0.120105 0.364842
vt 0.434048 0.141302
vt 0.273690 0.453993
vt 0.444170 0.083769
vt 0.471940 0.035185
vt 0.776975 0.024254
vt 0.776975 0.275503
vt 0.597507 0.008972
vt 0.546485 0.021897
vt 0.068954 0.828028
vt 0.315602 0.372201
vt 0.854858 0.131982
vt 0.810419 0.112439
vt 0.826816 0.044616
vt 0.810922 0.197075
vt 0.865116 0.003980
vt 0.825069 0.007139
vt 0.910006 0.244373
vt 0.907303 0.175842
vt 0.885781 0.358675
vt 0.776975 0.226737
vt 0.729539 0.303530
vt 0.761209 0.297973
vt 0.055178 0.828028
vt 0.055178 0.945925
vt 0.006987 0.911538
vt 0.044504 0.351012
vt 0.052000 0.422793
vt 0.095736 0.530089
vt 0.304759 0.518472
vt 0.400824 0.535270
vt 0.000000 0.369592
vt 0.371763 0.901123
vt 0.392495 0.814348
vt 0.427878 0.836879
vt 0.290297 0.914275
vt 0.456745 0.972400
vt 0.434048 0.886592
vt 0.704077 0.950437
vt 0.434048 0.602365
vt 0.426930 0.648092
vt 0.347493 0.601210
vt 0.729165 0.000000
vt 0.732619 0.773252
vt 0.734922 0.901684
vt 0.728866 0.960293
vt 0.434048 0.785192
vt 0.434048 0.486675
vt 0.905305 0.057846
vt 0.897085 0.000000
vt 0.948469 0.179237
vt 0.948469 0.284024
vt 0.942249 0.429002
vt 0.848067 0.394506
vt 0.283406 0.827999
vt 0.206547 0.809316
vt 0.734922 0.940985
vt 0.864806 0.819911
vt 0.864806 0.960220
vt 0.141010 0.644100
vt 0.182871 0.611422
vt 0.098001 0.934965
vt 0.110408 0.990405
vt 0.056433 0.939798
vt 0.986952 0.000000
vt 0.986952 0.185433
vt 0.948469 0.032228
vt 0.055178 0.839849
vt 0.734922 0.671356
vt 0.154126 0.538958
vt 0.471720 0.657021
vt 0.441584 0.685885
vt 0.656030 0.571936
vt 0.709173 0.533845
vt 0.110408 0.828028
vt 0.969611 0.990063
vt 0.880379 0.981313
vt 0.969611 0.824780
vt 0.929174 0.821607
vt 0.124497 0.598284
vt 0.125288 0.535269
s 1
usemtl Material_with_Texture.112
f 1/1/1 2/2/2 3/3/3
f 1/1/1 3/3/3 4/4/4
f 1/5/1 5/6/5 2/7/2
f 1/1/1 4/4/4 6/8/6
f 5/6/5 1/5/1 7/9/7
f 6/10/6 7/9/7 1/5/1
f 2/2/2 8/11/8 3/3/3
f 2/2/2 9/12/9 8/11/8
f 10/13/10 9/12/9 2/2/2
f 5/14/5 11/15/11 2/16/2
f 11/15/11 12/17/12 2/16/2
f 2/16/2 12/17/12 10/18/10
f 3/3/3 8/11/8 4/4/4
f 4/4/4 13/19/13 6/8/6
f 14/20/14 4/4/4 8/11/8
f 4/4/4 14/20/14 13/19/13
f 7/21/7 11/22/11 5/23/5
f 7/9/7 6/10/6 15/24/15
f 16/25/16 6/26/6 13/27/13
f 6/10/6 16/28/16 15/24/15
f 11/22/11 7/21/7 17/29/17
f 17/29/17 7/21/7 15/30/15
f 8/11/8 9/12/9 18/31/18
f 19/32/19 8/11/8 18/31/18
f 20/33/20 14/20/14 8/11/8
f 20/33/20 8/11/8 21/34/21
f 21/34/21 8/11/8 19/32/19
f 10/13/10 18/31/18 9/12/9
f 18/31/18 10/13/10 22/35/22
f 12/17/12 22/36/22 10/18/10
f 23/37/23 11/22/11 17/29/17
f 11/22/11 23/37/23 12/38/12
f 24/39/24 22/36/22 12/17/12
f 12/38/12 23/37/23 24/40/24
f 13/27/13 14/41/14 16/25/16
f 16/25/16 14/41/14 25/42/25
f 20/43/20 25/42/25 14/41/14
f 26/44/26 17/29/17 15/30/15
f 16/45/16 26/44/26 15/30/15
f 25/46/25 26/44/26 16/45/16
f 23/37/23 17/29/17 27/47/27
f 25/46/25 17/29/17 26/44/26
f 17/29/17 28/48/28 27/47/27
f 17/29/17 25/46/25 28/48/28
f 29/49/29 19/32/19 18/31/18
f 29/49/29 18/31/18 22/35/22
f 19/50/19 30/51/30 21/52/21
f 19/32/19 29/49/29 31/53/31
f 32/54/32 30/51/30 19/50/19
f 19/50/19 31/55/31 33/56/33
f 32/54/32 19/50/19 33/56/33
f 25/42/25 20/43/20 28/57/28
f 28/57/28 20/43/20 30/51/30
f 21/34/21 30/58/30 20/33/20
f 22/36/22 24/39/24 34/59/34
f 22/36/22 34/59/34 35/60/35
f 29/49/29 22/35/22 35/61/35
f 24/40/24 23/37/23 36/62/36
f 37/63/37 36/62/36 23/37/23
f 37/63/37 23/37/23 27/47/27
f 24/40/24 36/62/36 38/64/38
f 38/65/38 34/59/34 24/39/24
f 39/66/39 27/47/27 28/48/28
f 27/47/27 39/66/39 37/63/37
f 40/67/40 28/57/28 30/51/30
f 28/57/28 40/67/40 39/68/39
f 41/69/41 29/49/29 35/61/35
f 41/69/41 31/53/31 29/49/29
f 40/67/40 30/51/30 32/54/32
f 42/70/42 31/53/31 43/71/43
f 42/72/42 33/56/33 31/55/31
f 43/71/43 31/53/31 44/73/44
f 41/69/41 44/73/44 31/53/31
f 40/67/40 32/54/32 33/56/33
f 33/56/33 45/74/45 46/75/46
f 47/76/47 48/77/48 33/56/33
f 49/78/49 33/56/33 50/79/50
f 46/75/46 50/79/50 33/56/33
f 33/56/33 49/78/49 47/76/47
f 33/56/33 42/72/42 45/74/45
f 40/67/40 33/56/33 48/77/48
f 35/60/35 34/59/34 51/80/51
f 34/59/34 38/65/38 51/80/51
f 41/69/41 35/61/35 51/81/51
f 52/82/52 36/83/36 37/84/37
f 38/85/38 36/83/36 52/82/52
f 37/84/37 53/86/53 52/82/52
f 53/86/53 37/84/37 39/87/39
f 54/88/54 38/85/38 55/89/55
f 55/89/55 38/85/38 52/82/52
f 38/85/38 56/90/56 51/91/51
f 56/90/56 38/85/38 54/88/54
f 53/92/53 39/68/39 40/67/40
f 57/93/57 53/92/53 40/67/40
f 48/77/48 57/93/57 40/67/40
f 44/94/44 41/95/41 51/96/51
f 43/71/43 45/97/45 42/70/42
f 45/97/45 43/71/43 58/98/58
f 44/73/44 58/98/58 43/71/43
f 59/99/59 44/73/44 60/100/60
f 59/99/59 58/98/58 44/73/44
f 61/101/61 60/100/60 44/73/44
f 61/101/61 44/73/44 51/81/51
f 45/97/45 58/98/58 46/102/46
f 46/103/46 62/104/62 50/105/50
f 46/103/46 58/106/58 62/104/62
f 47/107/47 63/108/63 48/109/48
f 47/110/47 64/111/64 63/112/63
f 64/113/64 47/76/47 49/78/49
f 48/109/48 63/108/63 65/114/65
f 48/109/48 66/115/66 57/116/57
f 65/114/65 66/115/66 48/109/48
f 62/104/62 49/117/49 50/105/50
f 63/112/63 64/111/64 49/117/49
f 62/104/62 63/112/63 49/117/49
f 51/81/51 56/118/56 61/101/61
f 52/82/52 53/86/53 55/89/55
f 66/119/66 53/86/53 57/120/57
f 53/86/53 66/119/66 55/89/55
f 55/89/55 65/121/65 54/88/54
f 54/88/54 65/121/65 67/122/67
f 54/88/54 67/122/67 56/90/56
f 66/119/66 65/121/65 55/89/55
f 56/90/56 67/122/67 68/123/68
f 56/90/56 68/123/68 61/124/61
f 62/104/62 58/106/58 69/125/69
f 59/126/59 69/125/69 58/106/58
f 60/127/60 70/128/70 59/129/59
f 63/112/63 69/125/69 59/126/59
f 70/130/70 71/131/71 59/126/59
f 59/126/59 71/131/71 63/112/63
f 72/132/72 60/133/60 61/134/61
f 72/135/72 70/136/70 60/137/60
f 68/138/68 72/132/72 61/134/61
f 63/112/63 62/104/62 69/125/69
f 65/114/65 63/108/63 67/139/67
f 63/112/63 71/131/71 73/140/73
f 67/139/67 63/108/63 74/141/74
f 73/142/73 74/141/74 63/108/63
f 75/143/75 67/139/67 74/141/74
f 75/143/75 68/144/68 67/139/67
f 75/145/75 72/132/72 68/138/68
f 72/146/72 75/147/75 70/148/70
f 70/148/70 75/147/75 76/149/76
f 76/150/76 71/131/71 70/130/70
f 71/131/71 76/150/76 73/140/73
f 73/140/73 76/150/76 74/151/74
f 74/128/74 76/149/76 75/147/75
