# Blender 4.3.0
# www.blender.org
mtllib index_medial_rvs.mtl
o index_medial_rvs
v 0.039308 -0.160188 0.016532
v 0.039684 -0.160332 0.017770
v 0.037679 -0.158068 0.018509
v 0.041080 -0.160670 0.017855
v 0.040640 -0.160881 0.016552
v 0.036769 -0.156972 0.017893
v 0.037207 -0.157574 0.014793
v 0.039789 -0.159618 0.011345
v 0.039965 -0.160156 0.013401
v 0.042435 -0.157434 0.019592
v 0.036987 -0.155634 0.019238
v 0.038347 -0.155560 0.019817
v 0.042432 -0.159915 0.018294
v 0.042908 -0.159876 0.017364
v 0.040600 -0.160400 0.014138
v 0.042650 -0.159126 0.014524
v 0.032629 -0.153364 0.014996
v 0.034751 -0.155115 0.017620
v 0.036673 -0.156196 0.013119
v 0.041040 -0.160062 0.011006
v 0.037642 -0.156801 0.011760
v 0.038609 -0.156567 0.011096
v 0.040580 -0.159213 0.010612
v 0.041131 -0.160395 0.012108
v 0.042820 -0.158811 0.018926
v 0.041336 -0.156326 0.019967
v 0.039747 -0.155652 0.020091
v 0.041466 -0.155298 0.019620
v 0.042988 -0.156711 0.018965
v 0.037859 -0.154603 0.018921
v 0.036708 -0.153470 0.019299
v 0.035619 -0.154367 0.019184
v 0.039169 -0.154444 0.019321
v 0.043442 -0.158121 0.018268
v 0.043410 -0.157911 0.016460
v 0.042618 -0.159570 0.012679
v 0.042813 -0.157130 0.014874
v 0.043401 -0.157732 0.012761
v 0.033362 -0.152311 0.013107
v 0.036610 -0.155188 0.012330
v 0.028562 -0.149365 0.015494
v 0.027798 -0.148372 0.014730
v 0.031568 -0.150193 0.012815
v 0.026863 -0.146003 0.013318
v 0.028725 -0.148635 0.020908
v 0.032962 -0.151655 0.020145
v 0.031093 -0.149409 0.021378
v 0.037687 -0.155357 0.011577
v 0.042306 -0.159261 0.010722
v 0.038605 -0.155943 0.010996
v 0.040375 -0.157114 0.011004
v 0.042417 -0.157497 0.010232
v 0.041709 -0.155200 0.017464
v 0.043142 -0.156552 0.017112
v 0.038108 -0.154083 0.017505
v 0.034253 -0.150103 0.017290
v 0.035202 -0.151685 0.019615
v 0.034891 -0.152186 0.019927
v 0.041331 -0.155209 0.015312
v 0.042867 -0.156009 0.013045
v 0.043002 -0.157776 0.010688
v 0.042888 -0.156910 0.010758
v 0.036911 -0.154389 0.012407
v 0.036118 -0.152912 0.012919
v 0.023192 -0.145345 0.016178
v 0.023729 -0.145173 0.022051
v 0.023069 -0.145485 0.017194
v 0.032366 -0.149006 0.012949
v 0.023758 -0.143968 0.013874
v 0.025194 -0.143587 0.012764
v 0.027855 -0.145136 0.012906
v 0.029730 -0.145868 0.013123
v 0.026859 -0.146945 0.022644
v 0.029394 -0.146380 0.023327
v 0.032069 -0.148930 0.021395
v 0.037214 -0.153794 0.012774
v 0.039759 -0.154390 0.011459
v 0.040673 -0.155338 0.010596
v 0.041911 -0.156207 0.010313
v 0.037863 -0.153703 0.013908
v 0.040938 -0.154589 0.013224
v 0.032584 -0.148162 0.020631
v 0.042576 -0.156063 0.010860
v 0.040782 -0.154714 0.011260
v 0.021866 -0.143457 0.016809
v 0.021872 -0.143914 0.019432
v 0.026037 -0.145655 0.024230
v 0.023647 -0.143964 0.022700
v 0.024325 -0.143920 0.024068
v 0.030616 -0.144963 0.022277
v 0.029884 -0.144086 0.016269
v 0.024217 -0.142161 0.013064
v 0.022950 -0.143044 0.014633
v 0.026190 -0.142688 0.012640
v 0.028873 -0.144443 0.013266
v 0.027405 -0.145067 0.024903
v 0.028188 -0.143019 0.025385
v 0.029227 -0.142549 0.024662
v 0.023447 -0.142947 0.015449
v 0.023720 -0.143550 0.019362
v 0.026594 -0.143906 0.025499
v 0.025147 -0.143227 0.024959
v 0.027220 -0.140480 0.023270
v 0.026523 -0.141628 0.024931
v 0.026643 -0.141576 0.019505
v 0.025784 -0.142559 0.019551
v 0.027133 -0.141149 0.020641
v 0.025065 -0.142853 0.024399
v 0.024840 -0.143066 0.019230
v 0.029032 -0.140408 0.022895
v 0.028407 -0.141152 0.014380
v 0.024907 -0.140982 0.013500
v 0.025757 -0.141649 0.016179
v 0.027384 -0.141639 0.013215
v 0.027085 -0.142963 0.025664
v 0.026877 -0.142341 0.025747
v 0.028512 -0.141302 0.024648
v 0.024612 -0.143285 0.018206
v 0.025941 -0.142145 0.017869
v 0.026060 -0.142631 0.025662
v 0.027736 -0.139504 0.022474
v 0.027616 -0.140130 0.023711
v 0.027188 -0.140404 0.024349
v 0.027091 -0.140373 0.020115
v 0.025991 -0.142011 0.019083
v 0.026795 -0.140084 0.019129
v 0.026528 -0.141575 0.018695
v 0.025648 -0.142631 0.018709
v 0.027420 -0.139146 0.020831
v 0.026287 -0.140230 0.013958
v 0.026624 -0.139476 0.015273
v 0.025782 -0.139954 0.014289
v 0.026466 -0.139873 0.015941
v 0.026724 -0.141108 0.017877
vn -0.6126 -0.7904 0.0040
vn -0.3878 -0.7929 0.4700
vn -0.5872 -0.5787 0.5660
vn 0.0355 -0.8642 0.5019
vn -0.0264 -0.9996 -0.0096
vn -0.7495 -0.5966 0.2868
vn -0.7350 -0.6663 -0.1257
vn -0.5849 -0.6485 -0.4873
vn -0.4693 -0.8721 -0.1389
vn 0.3756 -0.1750 0.9101
vn -0.3944 -0.2292 0.8899
vn -0.2813 0.0785 0.9564
vn 0.4145 -0.6750 0.6103
vn 0.7514 -0.6592 0.0284
vn 0.1470 -0.9845 -0.0952
vn 0.8337 -0.5515 -0.0276
vn -0.6860 -0.6862 -0.2419
vn -0.6355 -0.7045 0.3161
vn -0.7114 -0.5404 -0.4492
vn -0.0111 -0.8107 -0.5853
vn -0.7314 -0.3049 -0.6100
vn -0.3699 -0.1482 -0.9172
vn -0.2698 -0.2718 -0.9238
vn 0.0897 -0.9838 -0.1550
vn 0.4837 -0.4432 0.7547
vn 0.1862 -0.0485 0.9813
vn -0.0707 0.0408 0.9967
vn 0.4645 0.6710 0.5780
vn 0.8211 0.3578 0.4448
vn 0.1088 0.6578 0.7453
vn 0.5138 0.3244 0.7942
vn -0.2873 -0.4505 0.8453
vn 0.0371 0.8612 0.5069
vn 0.9550 -0.0983 0.2800
vn 0.9872 -0.0102 -0.1591
vn 0.7377 -0.6747 -0.0253
vn 0.9529 0.3029 0.0121
vn 0.9986 -0.0521 0.0098
vn -0.4100 -0.4084 -0.8155
vn -0.5370 -0.2482 -0.8062
vn -0.6665 -0.7426 -0.0652
vn -0.5907 -0.6483 -0.4805
vn -0.3059 -0.2801 -0.9099
vn -0.3610 -0.4540 -0.8146
vn -0.4613 -0.7797 0.4235
vn -0.2224 -0.5912 0.7752
vn -0.1158 -0.5623 0.8188
vn -0.5145 0.1867 -0.8369
vn 0.5310 -0.5477 -0.6466
vn -0.3528 0.0590 -0.9338
vn -0.1816 0.0114 -0.9833
vn 0.2352 0.0013 -0.9720
vn 0.5254 0.8506 -0.0211
vn 0.8475 0.5251 -0.0772
vn 0.4855 0.8609 0.1523
vn 0.7186 0.6949 -0.0279
vn 0.7360 0.4527 0.5034
vn 0.2849 -0.0945 0.9539
vn 0.5851 0.8073 0.0772
vn 0.8215 0.5668 0.0621
vn 0.8478 -0.1366 -0.5124
vn 0.8305 0.2689 -0.4879
vn -0.1414 0.3795 -0.9143
vn 0.3578 0.5996 -0.7159
vn -0.7079 -0.6159 -0.3457
vn -0.7060 -0.6166 0.3483
vn -0.7068 -0.7063 -0.0386
vn 0.4880 0.4529 -0.7462
vn -0.6559 -0.3996 -0.6403
vn -0.3110 -0.2194 -0.9247
vn 0.0626 -0.1445 -0.9875
vn 0.4218 0.3295 -0.8447
vn -0.2962 -0.8250 0.4814
vn 0.3530 -0.4619 0.8136
vn 0.4678 -0.0586 0.8819
vn 0.2344 0.7463 -0.6229
vn 0.0025 0.8560 -0.5169
vn -0.0120 0.3703 -0.9288
vn 0.1278 0.3025 -0.9445
vn 0.4314 0.8929 -0.1287
vn 0.4429 0.8964 0.0150
vn 0.8188 0.4571 0.3475
vn 0.6936 0.5732 -0.4363
vn 0.3482 0.8464 -0.4030
vn -0.9136 0.3934 -0.1030
vn -0.9350 0.2563 0.2451
vn -0.3441 -0.6805 0.6469
vn -0.8977 0.2985 0.3239
vn -0.7974 -0.0742 0.5989
vn 0.9134 0.1943 0.3577
vn 0.8910 0.4234 -0.1641
vn -0.6441 0.4053 -0.6487
vn -0.8613 0.3864 -0.3299
vn 0.0456 0.1748 -0.9836
vn 0.5966 0.3045 -0.7426
vn 0.1306 -0.5428 0.8297
vn 0.4382 -0.0300 0.8984
vn 0.7545 0.1512 0.6387
vn -0.3975 0.8990 0.1840
vn -0.2598 0.9602 0.1029
vn -0.1424 -0.3574 0.9230
vn -0.7052 0.0702 0.7056
vn -0.7789 0.6269 0.0152
vn -0.6062 0.6510 0.4568
vn -0.8433 0.5194 0.1376
vn -0.6994 0.7147 -0.0082
vn -0.8727 0.4802 0.0881
vn -0.7349 0.6217 0.2708
vn -0.4398 0.8978 -0.0209
vn 0.7540 0.6207 0.2148
vn 0.7262 0.5464 -0.4173
vn -0.6437 0.6460 -0.4104
vn -0.7274 0.6162 0.3019
vn 0.3535 0.4283 -0.8317
vn 0.1287 -0.1595 0.9788
vn 0.0030 0.3084 0.9513
vn 0.5043 0.5164 0.6921
vn -0.3848 0.9113 0.1467
vn -0.6996 0.6872 0.1958
vn -0.4648 0.2355 0.8535
vn -0.2444 0.9438 0.2226
vn -0.0979 0.9175 0.3855
vn -0.3742 0.8130 0.4461
vn -0.9464 0.1265 0.2972
vn -0.7554 0.6378 0.1500
vn -0.9606 0.2281 0.1587
vn -0.8502 0.5248 0.0417
vn -0.7087 0.7005 0.0842
vn -0.2961 0.9447 0.1411
vn 0.1603 0.6933 -0.7026
vn -0.1234 0.9856 -0.1155
vn -0.5123 0.8370 -0.1922
vn -0.9122 0.3961 0.1050
vn -0.9442 0.2992 0.1378
vt 0.275985 0.082426
vt 0.313218 0.083801
vt 0.306054 0.172348
vt 0.328706 0.050978
vt 0.290816 0.043574
vt 0.276793 0.205046
vt 0.199487 0.156566
vt 0.137286 0.035899
vt 0.196754 0.041313
vt 0.476237 0.854268
vt 0.587492 0.796090
vt 0.587492 0.884220
vt 0.564569 0.914305
vt 0.556415 0.727494
vt 0.527065 0.743334
vt 0.308786 0.238374
vt 0.522084 0.917933
vt 0.408584 0.923043
vt 0.352956 0.939105
vt 0.337327 0.902463
vt 0.397772 0.949713
vt 0.223075 0.031129
vt 0.340480 0.832427
vt 0.410040 0.840223
vt 0.147451 0.327001
vt 0.244060 0.276852
vt 0.143490 0.177468
vt 0.140601 0.000000
vt 0.799517 0.046554
vt 0.784802 0.147550
vt 0.759675 0.129629
vt 0.774241 0.035251
vt 0.783272 0.010974
vt 0.117646 0.134633
vt 0.172653 0.002128
vt 0.493579 0.895730
vt 0.478749 0.808945
vt 0.499607 0.766513
vt 0.455713 0.794459
vt 0.449697 0.856281
vt 0.929452 0.376973
vt 0.921644 0.423182
vt 0.891090 0.371121
vt 0.290099 0.288414
vt 0.881741 0.418917
vt 0.603327 0.794374
vt 0.618420 0.766755
vt 0.637765 0.801428
vt 0.587492 0.755419
vt 0.487467 0.740743
vt 0.449697 0.944590
vt 0.424976 0.965070
vt 0.449697 0.892495
vt 0.399926 0.788641
vt 0.350599 0.774444
vt 0.487537 0.015556
vt 0.543674 0.000000
vt 0.536055 0.036574
vt 0.447202 0.786512
vt 0.445162 0.845413
vt 0.097704 0.315074
vt 0.117023 0.190382
vt 0.108612 0.486213
vt 0.077044 0.512758
vt 0.065126 0.387243
vt 0.020225 0.562548
vt 0.252836 0.546722
vt 0.281436 0.400164
vt 0.288831 0.490277
vt 0.753867 0.174399
vt 0.793880 0.185325
vt 0.106442 0.159232
vt 0.352029 0.742206
vt 0.394495 0.732080
vt 0.741190 0.000000
vt 0.746736 0.141608
vt 0.735759 0.082759
vt 0.701834 0.030443
vt 0.466167 0.899939
vt 0.410102 0.119203
vt 0.420200 0.057670
vt 0.470236 0.107282
vt 0.429393 0.182151
vt 0.472222 0.050006
vt 0.435937 0.018191
vt 0.445929 0.204645
vt 0.485728 0.203757
vt 0.441708 0.251946
vt 0.637765 0.727494
vt 0.513769 0.359733
vt 0.441687 0.318951
vt 0.917070 0.488326
vt 0.900593 0.485464
vt 0.865143 0.528637
vt 0.532685 0.106202
vt 0.592498 0.004154
vt 0.589243 0.049656
vt 0.652747 0.003155
vt 0.652526 0.022524
vt 0.434083 0.727494
vt 0.779530 0.328981
vt 0.750741 0.213037
vt 0.773029 0.202929
vt 0.736930 0.260635
vt 0.771000 0.405762
vt 0.063836 0.672970
vt 0.226140 0.719916
vt 0.090894 0.682112
vt 0.730965 0.413795
vt 0.778893 0.585941
vt 0.000000 0.666569
vt 0.761301 0.664898
vt 0.799517 0.691417
vt 0.740667 0.581211
vt 0.718927 0.529900
vt 0.800240 0.750663
vt 0.818302 0.666922
vt 0.865968 0.731836
vt 0.313382 0.598408
vt 0.276397 0.630957
vt 0.857830 0.619158
vt 0.888249 0.614976
vt 0.733109 0.220398
vt 0.692667 0.151222
vt 0.692587 0.110046
vt 0.696755 0.015218
vt 0.685446 0.066568
vt 0.681305 0.034989
vt 0.589084 0.201549
vt 0.594318 0.117837
vt 0.625506 0.249016
vt 0.646076 0.402423
vt 0.429070 0.445436
vt 0.915113 0.615724
vt 0.652196 0.045767
vt 0.650351 0.110673
vt 0.670228 0.058525
vt 0.623736 0.208650
vt 0.061145 0.740194
vt 0.134137 0.755682
vt 0.306449 0.685905
vt 0.237428 0.750250
vt 0.279825 0.750467
vt 0.395441 0.554738
vt 0.569778 0.562426
vt 0.656786 0.518425
vt 0.751828 0.714222
vt 0.797811 0.729503
vt 0.009515 0.706727
vt 0.722830 0.662046
vt 0.706826 0.576062
vt 0.658424 0.564305
vt 0.799517 0.808239
vt 0.839054 0.807511
vt 0.890754 0.845441
vt 0.920808 0.732945
vt 0.924357 0.832183
vt 0.649461 0.138971
vt 0.678712 0.123260
vt 0.670228 0.054565
vt 0.668665 0.098189
vt 0.799517 0.206479
vt 0.865866 0.308796
vt 0.819393 0.280047
vt 0.857541 0.334599
vt 0.819581 0.104366
vt 0.842936 0.197486
vt 0.337327 0.719647
vt 0.838918 0.851507
vt 0.854775 0.032256
vt 0.828081 0.062017
vt 0.958626 0.067583
vt 0.914671 0.025057
vt 0.939725 0.176336
vt 0.902537 0.180034
vt 0.953513 0.141655
vt 0.863224 0.048479
vt 0.875094 0.194579
vt 0.307558 0.755682
vt 0.391311 0.678066
vt 0.337327 0.639872
vt 0.633729 0.642043
vt 0.714615 0.725662
vt 0.934436 0.274766
vt 0.942671 0.354954
vt 0.906576 0.371121
vt 0.678535 0.661388
vt 0.670228 0.649136
vt 0.865845 0.866382
vt 0.871544 0.883987
vt 0.342551 0.678730
vt 0.929452 0.870064
vt 0.870234 0.224591
vt 0.920897 0.226267
vt 0.848165 0.889149
vt 0.818943 0.882478
vt 0.881951 0.007207
vt 0.992063 0.086935
vt 0.971776 0.052919
vt 0.955286 0.037560
vt 0.903372 0.000000
vt 0.970969 0.156739
vt 0.919804 0.191982
vt 0.975231 0.186158
vt 0.940767 0.199710
vt 0.901782 0.204419
vt 1.000000 0.134885
vt 0.458294 0.727494
vt 0.409961 0.720706
vt 0.374532 0.716143
vt 0.655865 0.702129
vt 0.618375 0.715040
vt 0.677444 0.732005
vt 0.672547 0.714833
vt 0.977771 0.327778
vt 0.986023 0.277443
vt 1.000000 0.295265
vt 0.957532 0.221517
vt 0.915414 0.906525
vt 0.357856 0.722331
vt 0.670228 0.819301
vt 0.647590 0.762648
vt 0.670228 0.727494
vt 0.649012 0.719286
s 1
usemtl Material_with_Texture.125
f 1/1/1 2/2/2 3/3/3
f 4/4/4 2/2/2 1/1/1
f 1/1/1 5/5/5 4/4/4
f 6/6/6 1/1/1 3/3/3
f 1/1/1 6/6/6 7/7/7
f 8/8/8 1/1/1 7/7/7
f 8/8/8 9/9/9 1/1/1
f 5/5/5 1/1/1 9/9/9
f 10/10/10 3/11/3 2/12/2
f 4/13/4 10/10/10 2/12/2
f 11/14/11 3/11/3 12/15/12
f 12/15/12 3/11/3 10/10/10
f 6/6/6 3/3/3 11/16/11
f 4/13/4 13/17/13 10/10/10
f 14/18/14 4/19/4 5/20/5
f 14/18/14 13/21/13 4/19/4
f 15/22/15 5/5/5 9/9/9
f 15/23/15 16/24/16 5/20/5
f 16/24/16 14/18/14 5/20/5
f 17/25/17 6/6/6 18/26/18
f 18/26/18 6/6/6 11/16/11
f 17/25/17 7/7/7 6/6/6
f 19/27/19 7/7/7 17/25/17
f 7/7/7 19/27/19 8/8/8
f 20/28/20 9/9/9 8/8/8
f 8/29/8 21/30/21 22/31/22
f 22/31/22 23/32/23 8/29/8
f 23/32/23 20/33/20 8/29/8
f 19/27/19 21/34/21 8/8/8
f 24/35/24 9/9/9 20/28/20
f 9/9/9 24/35/24 15/22/15
f 13/17/13 25/36/25 10/10/10
f 26/37/26 27/38/27 10/10/10
f 27/38/27 12/15/12 10/10/10
f 10/10/10 28/39/28 26/37/26
f 10/10/10 29/40/29 28/39/28
f 29/40/29 10/10/10 25/36/25
f 30/41/30 31/42/31 11/43/11
f 18/26/18 11/16/11 32/44/32
f 32/45/32 11/43/11 31/42/31
f 12/46/12 30/47/30 11/48/11
f 30/47/30 12/46/12 33/49/33
f 33/50/33 12/15/12 27/38/27
f 34/51/34 13/21/13 14/18/14
f 34/51/34 25/52/25 13/21/13
f 35/53/35 34/51/34 14/18/14
f 14/18/14 16/24/16 35/53/35
f 16/24/16 15/23/15 36/54/36
f 36/54/36 15/23/15 24/55/24
f 35/56/35 16/57/16 37/58/37
f 16/24/16 38/59/38 37/60/37
f 16/24/16 36/54/36 38/59/38
f 39/61/39 40/62/40 17/25/17
f 17/25/17 18/26/18 41/63/41
f 42/64/42 17/25/17 41/63/41
f 39/61/39 17/25/17 43/65/43
f 44/66/44 43/65/43 17/25/17
f 44/66/44 17/25/17 42/64/42
f 19/27/19 17/25/17 40/62/40
f 18/26/18 45/67/45 41/63/41
f 32/44/32 46/68/46 18/26/18
f 46/68/46 47/69/47 18/26/18
f 45/67/45 18/26/18 47/69/47
f 48/70/48 21/30/21 19/71/19
f 19/27/19 40/62/40 48/72/48
f 20/73/20 49/74/49 24/55/24
f 20/33/20 23/32/23 49/75/49
f 21/30/21 48/70/48 22/31/22
f 22/31/22 48/70/48 50/76/50
f 51/77/51 22/31/22 50/76/50
f 51/77/51 23/32/23 22/31/22
f 51/77/51 52/78/52 23/32/23
f 23/32/23 52/78/52 49/75/49
f 36/54/36 24/55/24 49/74/49
f 34/79/34 29/40/29 25/36/25
f 27/38/27 26/37/26 28/39/28
f 27/38/27 28/39/28 33/50/33
f 28/80/28 29/81/29 53/82/53
f 28/80/28 53/82/53 33/83/33
f 54/84/54 53/82/53 29/81/29
f 29/81/29 34/85/34 54/84/54
f 30/86/30 55/87/55 31/88/31
f 30/47/30 33/49/33 55/89/55
f 56/90/56 57/91/57 31/88/31
f 56/90/56 31/88/31 55/87/55
f 57/92/57 58/93/58 31/42/31
f 31/42/31 58/93/58 32/45/32
f 46/94/46 32/45/32 58/93/58
f 55/87/55 33/83/33 59/95/59
f 53/82/53 59/95/59 33/83/33
f 35/56/35 54/84/54 34/85/34
f 54/84/54 35/56/35 37/58/37
f 38/59/38 36/54/36 49/74/49
f 59/95/59 53/82/53 37/58/37
f 38/96/38 60/97/60 37/58/37
f 37/58/37 60/97/60 59/95/59
f 54/84/54 37/58/37 53/82/53
f 61/98/61 62/99/62 38/96/38
f 38/96/38 62/99/62 60/97/60
f 61/100/61 38/59/38 49/74/49
f 39/101/39 63/102/63 40/103/40
f 64/104/64 63/102/63 39/101/39
f 39/101/39 43/105/43 64/104/64
f 63/102/63 48/70/48 40/103/40
f 42/64/42 41/63/41 65/106/65
f 66/107/66 67/108/67 41/63/41
f 45/67/45 66/107/66 41/63/41
f 41/63/41 67/108/67 65/106/65
f 42/64/42 65/106/65 44/66/44
f 68/109/68 64/104/64 43/105/43
f 44/110/44 68/109/68 43/105/43
f 69/111/69 44/66/44 65/106/65
f 70/112/70 44/110/44 69/113/69
f 44/110/44 70/112/70 71/114/71
f 44/110/44 71/114/71 72/115/72
f 44/110/44 72/115/72 68/109/68
f 73/116/73 45/117/45 74/118/74
f 74/119/74 45/67/45 47/69/47
f 73/120/73 66/107/66 45/67/45
f 46/94/46 58/93/58 47/121/47
f 58/93/58 75/122/75 47/121/47
f 75/122/75 74/118/74 47/121/47
f 76/123/76 77/124/77 48/70/48
f 76/123/76 48/70/48 63/102/63
f 78/125/78 50/76/50 48/70/48
f 77/124/77 78/125/78 48/70/48
f 52/78/52 61/126/61 49/75/49
f 51/77/51 50/76/50 78/125/78
f 79/127/79 51/77/51 78/125/78
f 79/127/79 52/78/52 51/77/51
f 79/127/79 62/128/62 52/78/52
f 61/126/61 52/78/52 62/128/62
f 80/129/80 56/90/56 55/87/55
f 55/87/55 59/95/59 81/130/81
f 81/130/81 80/129/80 55/87/55
f 64/131/64 68/132/68 56/90/56
f 56/90/56 80/129/80 64/131/64
f 56/90/56 68/132/68 82/133/82
f 57/91/57 56/90/56 82/133/82
f 82/134/82 75/122/75 57/92/57
f 57/92/57 75/122/75 58/93/58
f 81/130/81 59/95/59 60/97/60
f 60/97/60 62/99/62 83/135/83
f 83/135/83 84/136/84 60/97/60
f 84/136/84 81/130/81 60/97/60
f 79/127/79 83/137/83 62/128/62
f 64/104/64 76/123/76 63/102/63
f 76/138/76 64/131/64 80/129/80
f 85/139/85 65/106/65 67/108/67
f 69/111/69 65/106/65 85/139/85
f 67/108/67 66/107/66 86/140/86
f 73/120/73 87/141/87 66/107/66
f 66/107/66 88/142/88 86/140/86
f 89/143/89 88/142/88 66/107/66
f 89/143/89 66/107/66 87/141/87
f 67/108/67 86/140/86 85/139/85
f 82/133/82 68/132/68 90/144/90
f 91/145/91 68/132/68 72/146/72
f 68/132/68 91/145/91 90/144/90
f 92/147/92 69/113/69 93/148/93
f 85/139/85 93/149/93 69/111/69
f 92/147/92 70/112/70 69/113/69
f 94/150/94 71/114/71 70/112/70
f 70/112/70 92/147/92 94/150/94
f 71/114/71 94/150/94 95/151/95
f 95/151/95 72/115/72 71/114/71
f 95/152/95 91/145/91 72/146/72
f 87/153/87 73/116/73 96/154/96
f 74/118/74 96/154/96 73/116/73
f 96/154/96 74/118/74 97/155/97
f 74/118/74 75/122/75 82/134/82
f 82/134/82 90/156/90 74/118/74
f 98/157/98 74/118/74 90/156/90
f 97/155/97 74/118/74 98/157/98
f 80/129/80 81/130/81 76/138/76
f 77/158/77 76/138/76 81/130/81
f 77/124/77 84/159/84 78/125/78
f 84/136/84 77/158/77 81/130/81
f 79/160/79 78/161/78 83/135/83
f 84/136/84 83/135/83 78/161/78
f 86/162/86 99/163/99 85/164/85
f 99/163/99 93/165/93 85/164/85
f 88/166/88 100/167/100 86/162/86
f 99/163/99 86/162/86 100/167/100
f 101/168/101 89/143/89 87/141/87
f 96/154/96 101/169/101 87/153/87
f 102/170/102 88/166/88 89/171/89
f 103/172/103 88/166/88 104/173/104
f 105/174/105 106/175/106 88/166/88
f 107/176/107 105/174/105 88/166/88
f 108/177/108 88/166/88 102/170/102
f 104/173/104 88/166/88 108/177/108
f 109/178/109 100/167/100 88/166/88
f 103/172/103 107/176/107 88/166/88
f 109/178/109 88/166/88 106/175/106
f 89/143/89 101/168/101 102/179/102
f 110/180/110 90/144/90 91/145/91
f 98/181/98 90/144/90 110/180/110
f 111/182/111 110/180/110 91/145/91
f 111/182/111 91/145/91 95/152/95
f 112/183/112 94/150/94 92/147/92
f 113/184/113 112/185/112 92/186/92
f 93/165/93 113/184/113 92/186/92
f 113/184/113 93/165/93 99/163/99
f 114/187/114 95/151/95 94/150/94
f 112/183/112 114/187/114 94/150/94
f 114/188/114 111/182/111 95/152/95
f 101/169/101 96/154/96 97/155/97
f 115/189/115 97/155/97 116/190/116
f 101/169/101 97/155/97 115/189/115
f 116/190/116 97/155/97 98/157/98
f 110/180/110 117/191/117 98/181/98
f 116/190/116 98/157/98 117/192/117
f 118/193/118 99/163/99 100/167/100
f 119/194/119 99/163/99 118/193/118
f 119/194/119 113/184/113 99/163/99
f 109/178/109 118/193/118 100/167/100
f 115/189/115 120/195/120 101/169/101
f 101/169/101 120/195/120 102/196/102
f 102/170/102 120/197/120 108/177/108
f 121/198/121 103/172/103 122/199/122
f 123/200/123 122/199/122 103/172/103
f 103/172/103 104/173/104 123/200/123
f 107/176/107 103/172/103 121/198/121
f 104/173/104 108/177/108 120/197/120
f 120/197/120 116/201/116 104/173/104
f 116/201/116 123/200/123 104/173/104
f 107/176/107 124/202/124 105/174/105
f 106/175/106 105/174/105 125/203/125
f 124/202/124 126/204/126 105/174/105
f 127/205/127 105/174/105 126/204/126
f 105/174/105 127/205/127 125/203/125
f 118/193/118 109/178/109 106/175/106
f 106/175/106 128/206/128 118/193/118
f 128/206/128 106/175/106 125/203/125
f 129/207/129 124/202/124 107/176/107
f 121/198/121 129/207/129 107/176/107
f 111/182/111 129/208/129 110/180/110
f 121/209/121 110/180/110 129/208/129
f 117/191/117 110/180/110 122/210/122
f 121/209/121 122/210/122 110/180/110
f 130/211/130 111/182/111 114/188/114
f 111/182/111 130/211/130 131/212/131
f 111/182/111 131/212/131 129/208/129
f 112/183/112 132/213/132 130/214/130
f 130/214/130 114/187/114 112/183/112
f 132/215/132 112/185/112 113/184/113
f 133/216/133 131/217/131 113/184/113
f 131/217/131 132/215/132 113/184/113
f 133/216/133 113/184/113 134/218/134
f 134/218/134 113/184/113 119/194/119
f 116/190/116 120/195/120 115/189/115
f 116/190/116 117/192/117 123/219/123
f 122/210/122 123/220/123 117/191/117
f 119/194/119 118/193/118 128/206/128
f 127/205/127 134/218/134 119/194/119
f 119/194/119 128/206/128 125/203/125
f 127/205/127 119/194/119 125/203/125
f 129/207/129 126/204/126 124/202/124
f 129/207/129 133/216/133 126/204/126
f 133/221/133 134/222/134 126/223/126
f 126/204/126 134/218/134 127/205/127
f 129/207/129 131/217/131 133/216/133
f 131/212/131 130/211/130 132/224/132
