# Blender 4.3.0
# www.blender.org
mtllib index_medial_lvs.mtl
o index_medial_lvs
v 0.037679 -0.158068 -0.018509
v 0.039684 -0.160332 -0.017770
v 0.039308 -0.160188 -0.016532
v 0.036769 -0.156972 -0.017893
v 0.042435 -0.157434 -0.019592
v 0.038347 -0.155560 -0.019817
v 0.036987 -0.155634 -0.019238
v 0.041080 -0.160670 -0.017855
v 0.040640 -0.160881 -0.016552
v 0.037207 -0.157574 -0.014793
v 0.039789 -0.159618 -0.011345
v 0.039965 -0.160156 -0.013401
v 0.034751 -0.155115 -0.017620
v 0.032629 -0.153364 -0.014996
v 0.042432 -0.159915 -0.018294
v 0.042820 -0.158811 -0.018926
v 0.039747 -0.155652 -0.020091
v 0.041336 -0.156326 -0.019967
v 0.041466 -0.155298 -0.019620
v 0.042988 -0.156711 -0.018965
v 0.037859 -0.154603 -0.018921
v 0.039169 -0.154444 -0.019321
v 0.036708 -0.153470 -0.019299
v 0.035619 -0.154367 -0.019184
v 0.042908 -0.159876 -0.017364
v 0.040600 -0.160400 -0.014138
v 0.042650 -0.159126 -0.014524
v 0.036673 -0.156196 -0.013119
v 0.041040 -0.160062 -0.011006
v 0.038609 -0.156567 -0.011096
v 0.037642 -0.156801 -0.011760
v 0.040580 -0.159213 -0.010612
v 0.041131 -0.160395 -0.012108
v 0.028562 -0.149365 -0.015494
v 0.028725 -0.148635 -0.020908
v 0.032962 -0.151655 -0.020145
v 0.031093 -0.149409 -0.021378
v 0.036610 -0.155188 -0.012330
v 0.033362 -0.152311 -0.013107
v 0.027798 -0.148372 -0.014730
v 0.031568 -0.150193 -0.012815
v 0.026863 -0.146003 -0.013318
v 0.043442 -0.158121 -0.018268
v 0.041709 -0.155200 -0.017464
v 0.043142 -0.156552 -0.017112
v 0.038108 -0.154083 -0.017505
v 0.041331 -0.155209 -0.015312
v 0.035202 -0.151685 -0.019615
v 0.034253 -0.150103 -0.017290
v 0.034891 -0.152186 -0.019927
v 0.043410 -0.157911 -0.016460
v 0.042618 -0.159570 -0.012679
v 0.042813 -0.157130 -0.014874
v 0.043401 -0.157732 -0.012761
v 0.037687 -0.155357 -0.011577
v 0.042306 -0.159261 -0.010722
v 0.038605 -0.155943 -0.010996
v 0.040375 -0.157114 -0.011004
v 0.042417 -0.157497 -0.010232
v 0.023192 -0.145345 -0.016178
v 0.023069 -0.145485 -0.017194
v 0.023729 -0.145173 -0.022051
v 0.029394 -0.146380 -0.023327
v 0.026859 -0.146945 -0.022644
v 0.032069 -0.148930 -0.021395
v 0.036911 -0.154389 -0.012407
v 0.036118 -0.152912 -0.012919
v 0.032366 -0.149006 -0.012949
v 0.023758 -0.143968 -0.013874
v 0.025194 -0.143587 -0.012764
v 0.027855 -0.145136 -0.012906
v 0.029730 -0.145868 -0.013123
v 0.037863 -0.153703 -0.013908
v 0.040938 -0.154589 -0.013224
v 0.042867 -0.156009 -0.013045
v 0.032584 -0.148162 -0.020631
v 0.042888 -0.156910 -0.010758
v 0.043002 -0.157776 -0.010688
v 0.039759 -0.154390 -0.011459
v 0.037214 -0.153794 -0.012774
v 0.040673 -0.155338 -0.010596
v 0.041911 -0.156207 -0.010313
v 0.021866 -0.143457 -0.016809
v 0.021872 -0.143914 -0.019432
v 0.026037 -0.145655 -0.024230
v 0.023647 -0.143964 -0.022700
v 0.024325 -0.143920 -0.024068
v 0.027405 -0.145067 -0.024903
v 0.028188 -0.143019 -0.025385
v 0.030616 -0.144963 -0.022277
v 0.029227 -0.142549 -0.024662
v 0.029884 -0.144086 -0.016269
v 0.022950 -0.143044 -0.014633
v 0.024217 -0.142161 -0.013064
v 0.026190 -0.142688 -0.012640
v 0.028873 -0.144443 -0.013266
v 0.040782 -0.154714 -0.011260
v 0.042576 -0.156063 -0.010860
v 0.023447 -0.142947 -0.015449
v 0.023720 -0.143550 -0.019362
v 0.026594 -0.143906 -0.025499
v 0.025147 -0.143227 -0.024959
v 0.026523 -0.141628 -0.024931
v 0.027220 -0.140480 -0.023270
v 0.025784 -0.142559 -0.019551
v 0.026643 -0.141576 -0.019505
v 0.027133 -0.141149 -0.020641
v 0.025065 -0.142853 -0.024399
v 0.024840 -0.143066 -0.019230
v 0.026877 -0.142341 -0.025747
v 0.027085 -0.142963 -0.025664
v 0.029032 -0.140408 -0.022895
v 0.028512 -0.141302 -0.024648
v 0.028407 -0.141152 -0.014380
v 0.025757 -0.141649 -0.016179
v 0.024907 -0.140982 -0.013500
v 0.027384 -0.141639 -0.013215
v 0.024612 -0.143285 -0.018206
v 0.025941 -0.142145 -0.017869
v 0.026060 -0.142631 -0.025662
v 0.027188 -0.140404 -0.024349
v 0.027616 -0.140130 -0.023711
v 0.027736 -0.139504 -0.022474
v 0.025991 -0.142011 -0.019083
v 0.025648 -0.142631 -0.018709
v 0.027091 -0.140373 -0.020115
v 0.026795 -0.140084 -0.019129
v 0.026528 -0.141575 -0.018695
v 0.027420 -0.139146 -0.020831
v 0.026287 -0.140230 -0.013958
v 0.026624 -0.139476 -0.015273
v 0.025782 -0.139954 -0.014289
v 0.026466 -0.139873 -0.015941
v 0.026724 -0.141108 -0.017877
vn -0.5872 -0.5787 -0.5660
vn -0.3855 -0.7947 -0.4689
vn -0.6126 -0.7904 -0.0040
vn -0.7495 -0.5966 -0.2868
vn 0.3768 -0.1746 -0.9097
vn -0.2813 0.0785 -0.9564
vn -0.3944 -0.2292 -0.8899
vn 0.0355 -0.8642 -0.5019
vn -0.0264 -0.9996 0.0096
vn -0.7350 -0.6663 0.1257
vn -0.5849 -0.6485 0.4873
vn -0.4693 -0.8721 0.1389
vn -0.6355 -0.7045 -0.3161
vn -0.6860 -0.6862 0.2419
vn 0.4145 -0.6750 -0.6103
vn 0.4837 -0.4432 -0.7547
vn -0.0707 0.0408 -0.9967
vn 0.1862 -0.0485 -0.9813
vn 0.4645 0.6710 -0.5780
vn 0.8217 0.3553 -0.4456
vn 0.1088 0.6578 -0.7453
vn 0.0371 0.8612 -0.5069
vn 0.5138 0.3244 -0.7942
vn -0.2873 -0.4505 -0.8453
vn 0.7514 -0.6592 -0.0284
vn 0.1470 -0.9845 0.0952
vn 0.8337 -0.5515 0.0276
vn -0.7114 -0.5404 0.4492
vn -0.0111 -0.8107 0.5853
vn -0.3699 -0.1482 0.9172
vn -0.7314 -0.3049 0.6100
vn -0.2698 -0.2718 0.9238
vn 0.0897 -0.9838 0.1550
vn -0.6665 -0.7426 0.0652
vn -0.4613 -0.7797 -0.4235
vn -0.2224 -0.5912 -0.7752
vn -0.1158 -0.5623 -0.8188
vn -0.5370 -0.2482 0.8062
vn -0.4100 -0.4084 0.8155
vn -0.5909 -0.6483 0.4802
vn -0.3059 -0.2801 0.9099
vn -0.3611 -0.4541 0.8145
vn 0.9550 -0.0983 -0.2800
vn 0.5267 0.8498 0.0218
vn 0.8475 0.5251 0.0772
vn 0.4855 0.8609 -0.1523
vn 0.5851 0.8073 -0.0772
vn 0.7360 0.4527 -0.5034
vn 0.7186 0.6949 0.0279
vn 0.2849 -0.0945 -0.9539
vn 0.9872 -0.0102 0.1591
vn 0.7377 -0.6747 0.0253
vn 0.9529 0.3029 -0.0121
vn 0.9986 -0.0521 -0.0098
vn -0.5145 0.1867 0.8369
vn 0.5310 -0.5477 0.6466
vn -0.3528 0.0590 0.9338
vn -0.1816 0.0114 0.9833
vn 0.2352 0.0013 0.9720
vn -0.7079 -0.6159 0.3457
vn -0.7068 -0.7063 0.0386
vn -0.7060 -0.6166 -0.3483
vn 0.3530 -0.4619 -0.8136
vn -0.2962 -0.8250 -0.4814
vn 0.4678 -0.0586 -0.8819
vn -0.1414 0.3795 0.9143
vn 0.3578 0.5996 0.7159
vn 0.4880 0.4529 0.7462
vn -0.6559 -0.3996 0.6403
vn -0.3110 -0.2194 0.9247
vn 0.0626 -0.1445 0.9875
vn 0.4218 0.3295 0.8447
vn 0.4314 0.8929 0.1287
vn 0.4429 0.8964 -0.0150
vn 0.8215 0.5668 -0.0621
vn 0.8188 0.4571 -0.3475
vn 0.8305 0.2689 0.4879
vn 0.8478 -0.1366 0.5124
vn 0.0025 0.8560 0.5169
vn 0.2344 0.7463 0.6229
vn -0.0120 0.3703 0.9288
vn 0.1278 0.3025 0.9445
vn -0.9136 0.3934 0.1030
vn -0.9350 0.2563 -0.2451
vn -0.3441 -0.6805 -0.6469
vn -0.8977 0.2985 -0.3239
vn -0.7970 -0.0755 -0.5992
vn 0.1306 -0.5428 -0.8297
vn 0.4382 -0.0300 -0.8984
vn 0.9134 0.1943 -0.3577
vn 0.7545 0.1512 -0.6387
vn 0.8910 0.4234 0.1641
vn -0.8613 0.3864 0.3299
vn -0.6441 0.4053 0.6487
vn 0.0456 0.1748 0.9836
vn 0.5966 0.3045 0.7426
vn 0.3482 0.8464 0.4030
vn 0.6936 0.5732 0.4363
vn -0.3975 0.8990 -0.1840
vn -0.2598 0.9602 -0.1029
vn -0.1411 -0.3588 -0.9227
vn -0.7052 0.0702 -0.7056
vn -0.6062 0.6510 -0.4568
vn -0.7789 0.6269 -0.0152
vn -0.6994 0.7147 0.0082
vn -0.8433 0.5194 -0.1376
vn -0.8727 0.4802 -0.0881
vn -0.7349 0.6217 -0.2708
vn -0.4398 0.8978 0.0209
vn 0.0030 0.3084 -0.9513
vn 0.1281 -0.1591 -0.9789
vn 0.7540 0.6207 -0.2148
vn 0.5043 0.5164 -0.6921
vn 0.7262 0.5464 0.4173
vn -0.7274 0.6162 -0.3019
vn -0.6437 0.6460 0.4104
vn 0.3535 0.4283 0.8317
vn -0.3848 0.9113 -0.1467
vn -0.6996 0.6872 -0.1958
vn -0.4646 0.2357 -0.8536
vn -0.3742 0.8130 -0.4461
vn -0.0979 0.9175 -0.3855
vn -0.2444 0.9438 -0.2226
vn -0.7554 0.6378 -0.1500
vn -0.7087 0.7005 -0.0842
vn -0.9461 0.1265 -0.2981
vn -0.9606 0.2281 -0.1587
vn -0.8502 0.5248 -0.0417
vn -0.2961 0.9447 -0.1411
vn 0.1603 0.6933 0.7026
vn -0.1234 0.9856 0.1155
vn -0.5123 0.8370 0.1922
vn -0.9122 0.3961 -0.1050
vn -0.9442 0.2992 -0.1378
vt 0.031273 0.172348
vt 0.024109 0.083800
vt 0.061342 0.082425
vt 0.060534 0.205046
vt 0.587492 0.761207
vt 0.587492 0.849337
vt 0.476237 0.791158
vt 0.527065 0.902093
vt 0.556415 0.917933
vt 0.028541 0.238373
vt 0.008621 0.050978
vt 0.564569 0.731121
vt 0.046511 0.043573
vt 0.137840 0.156566
vt 0.200041 0.035899
vt 0.140573 0.041313
vt 0.093268 0.276852
vt 0.189877 0.327001
vt 0.522084 0.727494
vt 0.493579 0.749697
vt 0.499607 0.878913
vt 0.478749 0.836482
vt 0.455713 0.850968
vt 0.449697 0.789146
vt 0.637765 0.727494
vt 0.618420 0.762166
vt 0.603327 0.734547
vt 0.587492 0.773502
vt 0.487467 0.904684
vt 0.891090 0.906525
vt 0.921644 0.854463
vt 0.929452 0.900672
vt 0.047228 0.288413
vt 0.881741 0.858729
vt 0.337327 0.790101
vt 0.352956 0.753460
vt 0.408584 0.769521
vt 0.397772 0.742851
vt 0.114252 0.031128
vt 0.410041 0.852341
vt 0.340480 0.860137
vt 0.193837 0.177468
vt 0.196726 0.000000
vt 0.759675 0.602376
vt 0.784802 0.584455
vt 0.799517 0.685451
vt 0.774241 0.696754
vt 0.783272 0.721032
vt 0.219681 0.134633
vt 0.164674 0.002127
vt 0.228715 0.486213
vt 0.084491 0.546721
vt 0.055891 0.400164
vt 0.048496 0.490276
vt 0.220305 0.190382
vt 0.239623 0.315074
vt 0.260283 0.512758
vt 0.272201 0.387243
vt 0.317102 0.562548
vt 0.449697 0.747974
vt 0.424976 0.727494
vt 0.466167 0.745488
vt 0.470236 0.620211
vt 0.420200 0.669823
vt 0.410102 0.608290
vt 0.429393 0.545342
vt 0.472222 0.677487
vt 0.435937 0.709302
vt 0.441708 0.475547
vt 0.485728 0.523737
vt 0.445929 0.522848
vt 0.637765 0.801427
vt 0.532685 0.621291
vt 0.441687 0.408543
vt 0.513769 0.367760
vt 0.900593 0.792182
vt 0.917070 0.789319
vt 0.865143 0.749008
vt 0.449697 0.800069
vt 0.399926 0.903923
vt 0.350599 0.918120
vt 0.536055 0.690920
vt 0.543674 0.727494
vt 0.487537 0.711938
vt 0.445162 0.847152
vt 0.447202 0.906052
vt 0.793880 0.546680
vt 0.753867 0.557607
vt 0.230885 0.159232
vt 0.394495 0.960484
vt 0.352029 0.950358
vt 0.741190 0.732005
vt 0.746736 0.590397
vt 0.735759 0.649246
vt 0.701834 0.701562
vt 0.273491 0.672970
vt 0.246433 0.682112
vt 0.111187 0.719915
vt 0.865968 0.545809
vt 0.818302 0.610723
vt 0.800240 0.526983
vt 0.023945 0.598408
vt 0.060930 0.630956
vt 0.857831 0.658487
vt 0.888249 0.662669
vt 0.773029 0.529076
vt 0.750741 0.518968
vt 0.779530 0.403024
vt 0.736931 0.471370
vt 0.771000 0.326243
vt 0.730965 0.318211
vt 0.778893 0.146065
vt 0.337327 0.666569
vt 0.799517 0.040588
vt 0.761301 0.067107
vt 0.740667 0.150794
vt 0.718927 0.202105
vt 0.589084 0.525945
vt 0.594318 0.609657
vt 0.589243 0.677838
vt 0.429070 0.282057
vt 0.915113 0.661921
vt 0.646076 0.325070
vt 0.625506 0.478477
vt 0.592498 0.723340
vt 0.652526 0.704970
vt 0.652747 0.724339
vt 0.434083 0.965070
vt 0.692667 0.580783
vt 0.733109 0.511607
vt 0.692588 0.621959
vt 0.696755 0.716787
vt 0.685446 0.665437
vt 0.681305 0.697016
vt 0.276182 0.740194
vt 0.203190 0.755682
vt 0.030878 0.685904
vt 0.099899 0.750250
vt 0.057502 0.750467
vt 0.839054 0.470135
vt 0.890754 0.432205
vt 0.920808 0.544700
vt 0.924357 0.445463
vt 0.799517 0.469407
vt 0.623736 0.518843
vt 0.395441 0.172756
vt 0.656786 0.209069
vt 0.569778 0.165067
vt 0.797811 0.002503
vt 0.751828 0.017784
vt 0.327812 0.706727
vt 0.722830 0.069959
vt 0.706826 0.155943
vt 0.658424 0.163189
vt 0.650351 0.616820
vt 0.649460 0.588522
vt 0.652196 0.681727
vt 0.670228 0.673480
vt 0.678712 0.608745
vt 0.668665 0.629305
vt 0.670228 0.672929
vt 0.819393 0.091073
vt 0.865866 0.062324
vt 0.799517 0.164641
vt 0.857541 0.036521
vt 0.842936 0.173635
vt 0.819581 0.266754
vt 0.000000 0.719647
vt 0.838918 0.426139
vt 0.828081 0.309104
vt 0.854775 0.338864
vt 0.914671 0.346063
vt 0.958626 0.303537
vt 0.902537 0.191087
vt 0.939725 0.194784
vt 0.953513 0.229466
vt 0.863224 0.322641
vt 0.875094 0.176542
vt 0.029769 0.755682
vt 0.871544 0.393659
vt 0.865845 0.411263
vt 0.391311 0.049428
vt 0.337327 0.087622
vt 0.342551 0.048764
vt 0.929452 0.407581
vt 0.633729 0.085451
vt 0.906576 0.000000
vt 0.934436 0.096355
vt 0.714615 0.006343
vt 0.942671 0.016167
vt 0.678535 0.070617
vt 0.670228 0.078357
vt 0.870234 0.146530
vt 0.920897 0.144854
vt 0.848165 0.388497
vt 0.818943 0.395167
vt 0.881951 0.363914
vt 0.955286 0.333561
vt 0.903372 0.371121
vt 0.971776 0.318202
vt 0.992063 0.284185
vt 0.919804 0.179139
vt 0.901782 0.166702
vt 0.970969 0.214381
vt 0.975231 0.184963
vt 0.940767 0.171411
vt 1.000000 0.236235
vt 0.915414 0.371121
vt 0.458294 0.000000
vt 0.409961 0.006788
vt 0.374532 0.011351
vt 0.357856 0.005162
vt 0.655865 0.025365
vt 0.618375 0.012454
vt 0.977771 0.043342
vt 1.000000 0.075855
vt 0.986023 0.093678
vt 0.957532 0.149604
vt 0.672547 0.017173
vt 0.677444 0.000000
vt 0.670228 0.819301
vt 0.647590 0.784147
vt 0.670228 0.727494
vt 0.649012 0.008208
s 1
usemtl Material_with_Texture.124
f 1/1/1 2/2/2 3/3/3
f 1/1/1 3/3/3 4/4/4
f 2/5/2 1/6/1 5/7/5
f 6/8/6 1/6/1 7/9/7
f 5/7/5 1/6/1 6/8/6
f 7/10/7 1/1/1 4/4/4
f 3/3/3 2/2/2 8/11/8
f 2/5/2 5/7/5 8/12/8
f 8/11/8 9/13/9 3/3/3
f 10/14/10 4/4/4 3/3/3
f 10/14/10 3/3/3 11/15/11
f 3/3/3 12/16/12 11/15/11
f 12/16/12 3/3/3 9/13/9
f 13/17/13 4/4/4 14/18/14
f 7/10/7 4/4/4 13/17/13
f 4/4/4 10/14/10 14/18/14
f 5/7/5 15/19/15 8/12/8
f 5/7/5 16/20/16 15/19/15
f 5/7/5 17/21/17 18/22/18
f 5/7/5 6/8/6 17/21/17
f 18/22/18 19/23/19 5/7/5
f 19/23/19 20/24/20 5/7/5
f 16/20/16 5/7/5 20/24/20
f 7/25/7 21/26/21 6/27/6
f 22/28/22 6/27/6 21/26/21
f 17/21/17 6/8/6 22/29/22
f 7/30/7 23/31/23 21/32/21
f 24/33/24 7/10/7 13/17/13
f 23/31/23 7/30/7 24/34/24
f 9/35/9 8/36/8 25/37/25
f 8/36/8 15/38/15 25/37/25
f 12/16/12 9/13/9 26/39/26
f 9/35/9 27/40/27 26/41/26
f 9/35/9 25/37/25 27/40/27
f 14/18/14 10/14/10 28/42/28
f 11/15/11 28/42/28 10/14/10
f 11/15/11 12/16/12 29/43/29
f 30/44/30 31/45/31 11/46/11
f 11/46/11 32/47/32 30/44/30
f 11/46/11 29/48/29 32/47/32
f 11/15/11 31/49/31 28/42/28
f 29/43/29 12/16/12 33/50/33
f 26/39/26 33/50/33 12/16/12
f 34/51/34 13/17/13 14/18/14
f 34/51/34 35/52/35 13/17/13
f 13/17/13 36/53/36 24/33/24
f 13/17/13 37/54/37 36/53/36
f 37/54/37 13/17/13 35/52/35
f 14/18/14 38/55/38 39/56/39
f 34/51/34 14/18/14 40/57/40
f 41/58/41 14/18/14 39/56/39
f 14/18/14 41/58/41 42/59/42
f 40/57/40 14/18/14 42/59/42
f 38/55/38 14/18/14 28/42/28
f 25/37/25 15/38/15 43/60/43
f 15/38/15 16/61/16 43/60/43
f 16/20/16 20/24/20 43/62/43
f 19/23/19 18/22/18 17/21/17
f 22/29/22 19/23/19 17/21/17
f 44/63/44 20/64/20 19/65/19
f 22/66/22 44/63/44 19/65/19
f 20/64/20 44/63/44 45/67/45
f 45/67/45 43/68/43 20/64/20
f 23/69/23 46/70/46 21/71/21
f 46/72/46 22/28/22 21/26/21
f 47/73/47 22/66/22 46/70/46
f 22/66/22 47/73/47 44/63/44
f 23/69/23 48/74/48 49/75/49
f 46/70/46 23/69/23 49/75/49
f 23/31/23 50/76/50 48/77/48
f 24/34/24 50/76/50 23/31/23
f 50/76/50 24/34/24 36/78/36
f 25/37/25 43/60/43 51/79/51
f 51/79/51 27/40/27 25/37/25
f 52/80/52 26/41/26 27/40/27
f 33/81/33 26/41/26 52/80/52
f 53/82/53 27/83/27 51/84/51
f 53/85/53 54/86/54 27/40/27
f 54/86/54 52/80/52 27/40/27
f 28/87/28 31/45/31 55/88/55
f 55/89/55 38/55/38 28/42/28
f 33/81/33 56/90/56 29/91/29
f 56/92/56 32/47/32 29/48/29
f 30/44/30 55/88/55 31/45/31
f 57/93/57 55/88/55 30/44/30
f 57/93/57 30/44/30 58/94/58
f 30/44/30 32/47/32 58/94/58
f 32/47/32 59/95/59 58/94/58
f 56/92/56 59/95/59 32/47/32
f 56/90/56 33/81/33 52/80/52
f 60/96/60 34/51/34 40/57/40
f 34/51/34 61/97/61 62/98/62
f 34/51/34 62/98/62 35/52/35
f 60/96/60 61/97/61 34/51/34
f 63/99/63 35/100/35 64/101/64
f 37/54/37 35/52/35 63/102/63
f 35/52/35 62/98/62 64/103/64
f 37/104/37 50/76/50 36/78/36
f 37/104/37 65/105/65 50/76/50
f 37/104/37 63/99/63 65/105/65
f 38/106/38 66/107/66 39/108/39
f 38/106/38 55/88/55 66/107/66
f 39/108/39 66/107/66 67/109/67
f 67/109/67 41/110/41 39/108/39
f 42/59/42 60/96/60 40/57/40
f 41/110/41 67/109/67 68/111/68
f 41/110/41 68/111/68 42/112/42
f 60/96/60 42/59/42 69/113/69
f 69/114/69 42/112/42 70/115/70
f 71/116/71 70/115/70 42/112/42
f 72/117/72 71/116/71 42/112/42
f 68/111/68 72/117/72 42/112/42
f 43/68/43 45/67/45 51/84/51
f 53/82/53 44/63/44 47/73/47
f 44/63/44 53/82/53 45/67/45
f 53/82/53 51/84/51 45/67/45
f 46/70/46 49/75/49 73/118/73
f 74/119/74 47/73/47 46/70/46
f 46/70/46 73/118/73 74/119/74
f 47/73/47 75/120/75 53/82/53
f 75/120/75 47/73/47 74/119/74
f 76/121/76 49/75/49 48/74/48
f 48/77/48 65/105/65 76/122/76
f 50/76/50 65/105/65 48/77/48
f 49/75/49 68/123/68 67/124/67
f 67/124/67 73/118/73 49/75/49
f 76/121/76 68/123/68 49/75/49
f 56/90/56 52/80/52 54/86/54
f 53/82/53 75/120/75 54/125/54
f 54/125/54 77/126/77 78/127/78
f 75/120/75 77/126/77 54/125/54
f 56/90/56 54/86/54 78/128/78
f 55/88/55 79/129/79 80/130/80
f 66/107/66 55/88/55 80/130/80
f 55/88/55 57/93/57 81/131/81
f 55/88/55 81/131/81 79/129/79
f 56/92/56 78/132/78 59/95/59
f 81/131/81 57/93/57 58/94/58
f 81/131/81 58/94/58 82/133/82
f 58/94/58 59/95/59 82/133/82
f 59/95/59 77/134/77 82/133/82
f 77/134/77 59/95/59 78/132/78
f 61/97/61 60/96/60 83/135/83
f 83/135/83 60/96/60 69/113/69
f 84/136/84 62/98/62 61/97/61
f 83/135/83 84/136/84 61/97/61
f 62/98/62 85/137/85 64/103/64
f 84/136/84 86/138/86 62/98/62
f 62/98/62 86/138/86 87/139/87
f 85/137/85 62/98/62 87/139/87
f 64/101/64 88/140/88 63/99/63
f 89/141/89 63/99/63 88/140/88
f 76/122/76 65/105/65 63/99/63
f 63/99/63 90/142/90 76/122/76
f 90/142/90 63/99/63 91/143/91
f 91/143/91 63/99/63 89/141/89
f 88/140/88 64/101/64 85/144/85
f 66/107/66 80/130/80 67/109/67
f 73/118/73 67/124/67 80/145/80
f 90/146/90 68/123/68 76/121/76
f 72/147/72 68/123/68 92/148/92
f 90/146/90 92/148/92 68/123/68
f 93/149/93 69/114/69 94/150/94
f 69/113/69 93/151/93 83/135/83
f 69/114/69 70/115/70 94/150/94
f 70/115/70 71/116/71 95/152/95
f 95/152/95 94/150/94 70/115/70
f 96/153/96 95/152/95 71/116/71
f 71/116/71 72/117/72 96/153/96
f 72/147/72 92/148/92 96/154/96
f 80/145/80 74/119/74 73/118/73
f 75/120/75 74/119/74 97/155/97
f 74/119/74 80/145/80 79/156/79
f 74/119/74 79/156/79 97/155/97
f 98/157/98 77/126/77 75/120/75
f 75/120/75 97/155/97 98/157/98
f 77/134/77 98/158/98 82/133/82
f 81/131/81 97/159/97 79/129/79
f 98/157/98 81/160/81 82/161/82
f 81/160/81 98/157/98 97/155/97
f 83/162/83 99/163/99 84/164/84
f 83/162/83 93/165/93 99/163/99
f 84/164/84 100/166/100 86/167/86
f 100/166/100 84/164/84 99/163/99
f 85/137/85 87/139/87 101/168/101
f 85/144/85 101/169/101 88/140/88
f 87/170/87 86/167/86 102/171/102
f 103/172/103 86/167/86 104/173/104
f 86/167/86 105/174/105 106/175/106
f 86/167/86 106/175/106 107/176/107
f 102/171/102 86/167/86 108/177/108
f 108/177/108 86/167/86 103/172/103
f 86/167/86 100/166/100 109/178/109
f 86/167/86 107/176/107 104/173/104
f 105/174/105 86/167/86 109/178/109
f 102/179/102 101/168/101 87/139/87
f 89/141/89 88/140/88 101/169/101
f 110/180/110 89/141/89 111/181/111
f 111/181/111 89/141/89 101/169/101
f 91/143/91 89/141/89 110/180/110
f 92/148/92 90/146/90 112/182/112
f 112/182/112 90/146/90 91/183/91
f 91/183/91 113/184/113 112/182/112
f 113/185/113 91/143/91 110/180/110
f 92/148/92 112/182/112 114/186/114
f 96/154/96 92/148/92 114/186/114
f 94/187/94 115/188/115 93/165/93
f 99/163/99 93/165/93 115/188/115
f 94/150/94 95/152/95 116/189/116
f 94/187/94 116/190/116 115/188/115
f 95/152/95 96/153/96 117/191/117
f 95/152/95 117/191/117 116/189/116
f 96/154/96 114/186/114 117/192/117
f 100/166/100 99/163/99 118/193/118
f 118/193/118 99/163/99 119/194/119
f 99/163/99 115/188/115 119/194/119
f 100/166/100 118/193/118 109/178/109
f 101/169/101 120/195/120 111/181/111
f 102/196/102 120/195/120 101/169/101
f 108/177/108 120/197/120 102/171/102
f 121/198/121 103/172/103 104/173/104
f 120/197/120 108/177/108 103/172/103
f 103/172/103 110/199/110 120/197/120
f 103/172/103 121/198/121 110/199/110
f 122/200/122 104/173/104 123/201/123
f 104/173/104 122/200/122 121/198/121
f 123/201/123 104/173/104 107/176/107
f 124/202/124 106/175/106 105/174/105
f 105/174/105 109/178/109 118/193/118
f 118/193/118 125/203/125 105/174/105
f 124/202/124 105/174/105 125/203/125
f 106/175/106 126/204/126 107/176/107
f 106/175/106 127/205/127 126/204/126
f 127/205/127 106/175/106 128/206/128
f 124/202/124 128/206/128 106/175/106
f 107/176/107 126/204/126 129/207/129
f 107/176/107 129/207/129 123/201/123
f 111/181/111 120/195/120 110/180/110
f 121/208/121 113/185/113 110/180/110
f 112/182/112 129/209/129 114/186/114
f 129/209/129 112/182/112 123/210/123
f 122/211/122 112/182/112 113/184/113
f 112/182/112 122/211/122 123/210/123
f 113/184/113 121/212/121 122/211/122
f 117/192/117 114/186/114 130/213/130
f 131/214/131 130/213/130 114/186/114
f 129/209/129 131/214/131 114/186/114
f 115/188/115 116/190/116 132/215/132
f 115/188/115 131/216/131 133/217/133
f 115/188/115 132/215/132 131/216/131
f 134/218/134 115/188/115 133/217/133
f 119/194/119 115/188/115 134/218/134
f 130/219/130 132/220/132 116/189/116
f 116/189/116 117/191/117 130/219/130
f 125/203/125 118/193/118 119/194/119
f 119/194/119 134/218/134 128/206/128
f 124/202/124 125/203/125 119/194/119
f 124/202/124 119/194/119 128/206/128
f 126/204/126 127/205/127 129/207/129
f 127/205/127 133/217/133 129/207/129
f 127/221/127 134/222/134 133/223/133
f 128/206/128 134/218/134 127/205/127
f 133/217/133 131/216/131 129/207/129
f 132/224/132 130/213/130 131/214/131
