# Blender 4.3.0
# www.blender.org
mtllib index_proximal_rvs.mtl
o index_proximal_rvs
v 0.017906 -0.136291 0.023189
v 0.018744 -0.138557 0.023689
v 0.019025 -0.135168 0.024391
v 0.012101 -0.128174 0.019542
v 0.017361 -0.136156 0.021333
v 0.018914 -0.134444 0.024175
v 0.015407 -0.132276 0.022157
v 0.024450 -0.136713 0.025397
v 0.020801 -0.141051 0.023786
v 0.019680 -0.140809 0.022046
v 0.021551 -0.134310 0.025027
v 0.009299 -0.123015 0.020387
v 0.011666 -0.126005 0.017303
v 0.017876 -0.136064 0.017009
v 0.018679 -0.138737 0.017635
v 0.019617 -0.140549 0.019606
v 0.014782 -0.126729 0.024178
v 0.016705 -0.126226 0.024034
v 0.020694 -0.133519 0.023500
v 0.020570 -0.133892 0.024617
v 0.021621 -0.141356 0.023897
v 0.024092 -0.140310 0.024467
v 0.024655 -0.138599 0.024992
v 0.024897 -0.135115 0.024564
v 0.025831 -0.137304 0.024291
v 0.021316 -0.141764 0.022257
v 0.022622 -0.133608 0.024002
v 0.004746 -0.112919 0.016314
v 0.012389 -0.121230 0.024483
v 0.009171 -0.112493 0.026386
v 0.003927 -0.111470 0.022659
v 0.007657 -0.113507 0.014293
v 0.020290 -0.138961 0.015213
v 0.018721 -0.134695 0.015706
v 0.020429 -0.141016 0.016084
v 0.021733 -0.142173 0.017164
v 0.021425 -0.141576 0.019555
v 0.012139 -0.115072 0.025330
v 0.014007 -0.117588 0.024223
v 0.015408 -0.120538 0.023160
v 0.021326 -0.133245 0.021680
v 0.024027 -0.141171 0.023137
v 0.025754 -0.138301 0.024098
v 0.024862 -0.140272 0.023528
v 0.025150 -0.135529 0.021985
v 0.026020 -0.137595 0.021987
v 0.023845 -0.141127 0.020449
v 0.023183 -0.133915 0.022029
v 0.002022 -0.107642 0.021912
v 0.002435 -0.107910 0.015800
v 0.002907 -0.106327 0.013814
v 0.010243 -0.112381 0.026277
v 0.003498 -0.108867 0.025202
v 0.007508 -0.107590 0.028663
v 0.009280 -0.110776 0.013130
v 0.010926 -0.113198 0.013722
v 0.007680 -0.108747 0.012306
v 0.017625 -0.128646 0.015640
v 0.021436 -0.136457 0.014316
v 0.022187 -0.136196 0.014120
v 0.024476 -0.139832 0.014173
v 0.021608 -0.140980 0.015012
v 0.024170 -0.137361 0.013868
v 0.024632 -0.138139 0.013874
v 0.020313 -0.133909 0.015894
v 0.022073 -0.134576 0.014889
v 0.021762 -0.142009 0.015819
v 0.023740 -0.141799 0.015567
v 0.023708 -0.141013 0.019659
v 0.012527 -0.109837 0.024651
v 0.012037 -0.112294 0.016001
v 0.016675 -0.123003 0.020196
v 0.021250 -0.133472 0.019610
v 0.025852 -0.138443 0.021767
v 0.025102 -0.136787 0.019481
v 0.025384 -0.137737 0.019498
v 0.024450 -0.140250 0.019627
v 0.001732 -0.105580 0.018894
v 0.001773 -0.105514 0.021364
v 0.003939 -0.103609 0.026719
v 0.004139 -0.103953 0.012308
v 0.002306 -0.104116 0.014897
v 0.009959 -0.107132 0.028303
v 0.010824 -0.107269 0.027563
v 0.004339 -0.105198 0.027308
v 0.008160 -0.105052 0.028649
v 0.006752 -0.105267 0.028873
v 0.010463 -0.111578 0.013600
v 0.004899 -0.103350 0.012219
v 0.009008 -0.105208 0.012403
v 0.021191 -0.133433 0.017330
v 0.024177 -0.135908 0.014576
v 0.025054 -0.140213 0.014895
v 0.025471 -0.138091 0.014563
v 0.022644 -0.134213 0.017013
v 0.024489 -0.135425 0.016836
v 0.025561 -0.139874 0.017278
v 0.011648 -0.101844 0.024413
v 0.010763 -0.104564 0.013566
v 0.025895 -0.137692 0.017096
v 0.003591 -0.102520 0.013459
v 0.007107 -0.102246 0.018880
v 0.004184 -0.102453 0.025132
v 0.005844 -0.101538 0.026462
v 0.006074 -0.102570 0.027958
v 0.010584 -0.105984 0.027829
v 0.008600 -0.102662 0.027847
v 0.010419 -0.102395 0.026727
v 0.005202 -0.101789 0.013285
v 0.007971 -0.102561 0.012860
v 0.009758 -0.102599 0.013867
v 0.010138 -0.100530 0.023351
v 0.008453 -0.101388 0.014870
v 0.007969 -0.101064 0.026443
v 0.007688 -0.100981 0.015700
v 0.007163 -0.101416 0.013884
vn -0.8094 -0.2366 0.5374
vn -0.6963 -0.3490 0.6271
vn -0.4918 0.0149 0.8706
vn -0.8617 -0.5067 -0.0283
vn -0.8816 -0.4678 0.0623
vn -0.3768 0.1163 0.9190
vn -0.7394 -0.3666 0.5647
vn 0.2509 0.0403 0.9672
vn -0.4513 -0.5853 0.6736
vn -0.7186 -0.6875 0.1049
vn -0.0351 0.3921 0.9193
vn -0.8544 -0.4594 0.2428
vn -0.7653 -0.4266 -0.4820
vn -0.8314 -0.4243 -0.3589
vn -0.8777 -0.4142 -0.2411
vn -0.7422 -0.6695 -0.0307
vn -0.3446 -0.2012 0.9170
vn 0.3528 0.1225 0.9276
vn 0.2610 0.7988 0.5420
vn -0.2498 0.6868 0.6825
vn -0.1189 -0.7298 0.6733
vn 0.2923 -0.5414 0.7883
vn 0.2896 -0.2880 0.9128
vn 0.6487 0.6004 0.4677
vn 0.8953 0.0905 0.4361
vn -0.1766 -0.9813 0.0768
vn 0.3006 0.8927 0.3358
vn -0.8051 -0.4467 -0.3903
vn -0.4430 -0.2685 0.8554
vn -0.2315 -0.4234 0.8759
vn -0.8096 -0.5007 0.3063
vn -0.3838 -0.3416 -0.8579
vn -0.5664 -0.2290 -0.7917
vn -0.3212 -0.0404 -0.9462
vn -0.7230 -0.5680 -0.3933
vn -0.1447 -0.9859 0.0843
vn -0.1491 -0.9871 0.0582
vn 0.4093 -0.0187 0.9122
vn 0.7076 0.1486 0.6909
vn 0.9142 0.3277 0.2384
vn 0.6441 0.7633 0.0499
vn 0.4640 -0.8645 0.1934
vn 0.8690 -0.2898 0.4010
vn 0.7698 -0.5934 0.2352
vn 0.7775 0.6090 -0.1566
vn 0.9917 0.1006 -0.0803
vn 0.5307 -0.8405 -0.1090
vn 0.5380 0.8322 -0.1342
vn -0.9582 -0.2305 0.1697
vn -0.9213 -0.2785 -0.2715
vn -0.7659 -0.2130 -0.6067
vn 0.3511 -0.2070 0.9132
vn -0.7586 -0.3639 0.5405
vn -0.1770 -0.3009 0.9371
vn 0.1109 -0.2656 -0.9577
vn 0.4266 0.0126 -0.9044
vn -0.0596 -0.2241 -0.9727
vn 0.5584 0.2418 -0.7936
vn -0.3122 -0.0406 -0.9491
vn -0.1136 0.1717 -0.9786
vn 0.2554 -0.3376 -0.9060
vn -0.3183 -0.4226 -0.8486
vn 0.1754 0.1569 -0.9719
vn 0.2901 -0.0117 -0.9569
vn 0.2311 0.5693 -0.7890
vn 0.1397 0.7450 -0.6523
vn -0.2628 -0.8574 -0.4425
vn 0.3520 -0.8627 -0.3631
vn 0.4977 -0.8670 -0.0252
vn 0.9417 0.0640 0.3304
vn 0.9294 0.2040 -0.3075
vn 0.9170 0.3914 -0.0776
vn 0.7577 0.6492 -0.0671
vn 0.9355 -0.3351 -0.1115
vn 0.8500 0.5236 -0.0571
vn 1.0000 -0.0014 -0.0072
vn 0.8160 -0.5758 0.0512
vn -0.9409 0.3388 0.0023
vn -0.9310 0.3574 0.0748
vn -0.7912 0.3104 0.5269
vn -0.4948 0.0642 -0.8667
vn -0.9304 0.3179 -0.1822
vn 0.4039 -0.1158 0.9075
vn 0.7747 -0.0718 0.6282
vn -0.7007 -0.0672 0.7103
vn 0.2363 0.1644 0.9577
vn -0.2254 0.0340 0.9737
vn 0.6261 0.0273 -0.7792
vn -0.1455 0.3199 -0.9362
vn 0.3316 0.1005 -0.9380
vn 0.6635 0.6881 -0.2939
vn 0.5346 0.6057 -0.5893
vn 0.7612 -0.4842 -0.4315
vn 0.8616 0.1008 -0.4974
vn 0.4711 0.8708 -0.1409
vn 0.7070 0.7047 -0.0598
vn 0.8888 -0.4481 0.0959
vn 0.8326 0.5169 0.1991
vn 0.8000 0.2384 -0.5507
vn 0.9812 0.1927 -0.0130
vn -0.6607 0.6794 -0.3191
vn -0.5517 0.8301 0.0808
vn -0.6700 0.7402 0.0569
vn -0.4113 0.8686 0.2762
vn -0.3075 0.5098 0.8034
vn 0.6881 0.1476 0.7104
vn 0.2724 0.4610 0.8446
vn 0.5939 0.5058 0.6256
vn -0.2599 0.8725 -0.4138
vn 0.2619 0.5134 -0.8172
vn 0.6259 0.5977 -0.5010
vn 0.2747 0.9615 0.0034
vn 0.4063 0.8652 -0.2939
vn 0.0374 0.9103 0.4122
vn -0.1145 0.9932 -0.0214
vn 0.0947 0.8832 -0.4593
vt 0.169333 0.739376
vt 0.163986 0.787832
vt 0.139106 0.729042
vt 0.233267 0.542168
vt 0.206442 0.729752
vt 0.141395 0.714608
vt 0.184881 0.645868
vt 0.580641 0.903236
vt 0.468985 0.912094
vt 0.485528 0.850959
vt 0.499017 0.972270
vt 0.199588 0.833081
vt 0.163192 0.848670
vt 0.549130 0.968924
vt 0.503447 0.985922
vt 0.210084 0.428714
vt 0.271136 0.495455
vt 0.287848 0.724432
vt 0.281440 0.780299
vt 0.246020 0.823689
vt 0.130838 0.543214
vt 0.905451 0.516872
vt 0.901825 0.689324
vt 0.867022 0.524996
vt 0.860635 0.689608
vt 0.029435 0.958892
vt 0.036086 0.937082
vt 0.063888 0.967940
vt 0.536143 0.983576
vt 0.497415 0.839170
vt 0.548239 0.839559
vt 0.570425 0.866890
vt 0.603820 0.927407
vt 0.603820 0.880053
vt 0.674889 0.899210
vt 0.661826 0.898954
vt 0.665812 0.866477
vt 0.193206 0.862868
vt 0.000000 0.929052
vt 0.011585 0.958867
vt 0.576860 0.971696
vt 0.272106 0.203687
vt 0.115701 0.425598
vt 0.062434 0.245415
vt 0.147973 0.182033
vt 0.660308 0.233567
vt 0.711581 0.721429
vt 0.653705 0.499877
vt 0.603820 0.213089
vt 0.323637 0.792017
vt 0.738968 0.696210
vt 0.312735 0.832142
vt 0.291294 0.864689
vt 0.244357 0.855601
vt 0.851370 0.285848
vt 0.899262 0.398277
vt 0.837961 0.348437
vt 0.836678 0.414552
vt 0.643161 0.785365
vt 0.661826 0.721429
vt 0.661826 0.900367
vt 0.387728 0.155008
vt 0.422201 0.155977
vt 0.405437 0.429921
vt 0.041623 0.898986
vt 0.720416 0.881548
vt 0.728125 0.909728
vt 0.595047 0.862326
vt 0.742302 0.890410
vt 0.772827 0.905501
vt 0.357986 0.103400
vt 0.361408 0.056640
vt 0.408188 0.092781
vt 0.373807 0.143617
vt 0.406335 0.048850
vt 0.365371 0.037902
vt 0.716418 0.829330
vt 0.668201 0.813965
vt 0.411442 0.133780
vt 0.011272 0.891099
vt 0.156695 0.096771
vt 0.274002 0.094239
vt 0.305885 0.065308
vt 0.614945 0.070433
vt 0.883269 0.212628
vt 0.863260 0.220181
vt 0.092312 0.135598
vt 0.875240 0.107717
vt 0.008778 0.147411
vt 0.709847 0.189067
vt 0.724791 0.246234
vt 0.694091 0.138354
vt 0.754150 0.578691
vt 0.414213 0.911995
vt 0.377738 0.956055
vt 0.361692 0.957668
vt 0.336480 0.877741
vt 0.398741 0.868382
vt 0.423998 0.869362
vt 0.329219 0.926457
vt 0.324339 0.909530
vt 0.423998 0.997226
vt 0.772827 0.692808
vt 0.468985 0.841912
vt 0.468985 0.907199
vt 0.457280 0.874183
vt 0.357728 0.984825
vt 0.316620 0.859598
vt 0.402973 0.844926
vt 0.670087 0.739292
vt 0.708052 0.732216
vt 0.668871 0.765213
vt 0.714408 0.814361
vt 0.796201 0.197797
vt 0.553290 0.600794
vt 0.382095 0.649883
vt 0.461097 0.374703
vt 0.463080 0.150907
vt 0.063888 0.864689
vt 0.378467 0.004580
vt 0.411020 0.033413
vt 0.772827 0.859398
vt 0.457552 0.067650
vt 0.456631 0.048068
vt 0.733472 0.814720
vt 0.209443 0.051744
vt 0.161499 0.055059
vt 0.045449 0.045154
vt 0.656017 0.028475
vt 0.280128 0.022297
vt 0.323637 0.028265
vt 0.827383 0.121599
vt 0.811401 0.132779
vt 0.037708 0.078171
vt 0.841294 0.068563
vt 0.000000 0.099725
vt 0.868408 0.059710
vt 0.725974 0.213233
vt 0.548755 0.259593
vt 0.600457 0.588038
vt 0.603820 0.621286
vt 0.674006 0.021925
vt 0.739416 0.082694
vt 0.508054 0.150711
vt 0.538147 0.145380
vt 0.323637 0.950139
vt 0.363751 0.839170
vt 0.643161 0.757793
vt 0.643161 0.804027
vt 0.633894 0.788247
vt 0.329225 0.864339
vt 0.555975 0.086531
vt 0.568841 0.041211
vt 0.569925 0.058446
vt 0.621157 0.766884
vt 0.606088 0.761732
vt 0.621157 0.721429
vt 0.553527 0.038167
vt 0.425197 0.861934
vt 0.425213 0.839170
vt 0.554226 0.123002
vt 0.510861 0.095371
vt 0.511244 0.128139
vt 0.755833 0.768240
vt 0.743245 0.721429
vt 0.388576 0.806863
vt 0.328373 0.709293
vt 0.603820 0.753597
vt 0.456068 0.005000
vt 0.502808 0.044974
vt 0.499941 0.005151
vt 0.855136 0.980393
vt 0.815873 0.958226
vt 0.780900 0.883630
vt 0.772827 0.835491
vt 0.900988 0.861749
vt 0.822705 0.751526
vt 0.804780 0.722297
vt 0.854051 0.718932
vt 0.845969 0.689608
vt 0.853697 0.007610
vt 0.896651 0.009371
vt 0.905451 0.039990
vt 0.298796 0.000000
vt 0.651037 0.003844
vt 0.804939 0.107533
vt 0.323637 0.735206
vt 0.810121 0.031462
vt 0.772827 0.044446
vt 0.772827 0.087129
vt 0.878351 1.000000
vt 0.890026 0.977282
vt 0.734313 0.029827
vt 0.685918 0.000000
vt 0.764746 0.046224
vt 0.547883 0.000000
vt 0.412629 0.839170
vt 0.582999 0.826871
vt 0.599997 0.796463
vt 0.345640 0.803963
vt 0.931276 0.697021
vt 0.966020 0.736994
vt 0.896106 0.711020
vt 0.950866 0.762560
vt 0.931739 0.920572
vt 0.802955 0.000000
vt 0.926108 0.958049
vt 0.937316 0.975527
vt 0.621157 0.745166
vt 0.643161 0.721429
vt 0.966020 0.949263
vt 0.946218 0.934029
s 1
usemtl Material_with_Texture.127
f 1/1/1 2/2/2 3/3/3
f 4/4/4 5/5/5 1/1/1
f 3/3/3 6/6/6 1/1/1
f 7/7/7 1/1/1 6/6/6
f 2/2/2 1/1/1 5/5/5
f 1/1/1 7/7/7 4/4/4
f 8/8/8 2/9/2 9/10/9
f 3/11/3 2/9/2 8/8/8
f 10/12/10 9/13/9 2/2/2
f 2/2/2 5/5/5 10/12/10
f 11/14/11 3/11/3 8/8/8
f 3/11/3 11/14/11 6/15/6
f 4/4/4 7/7/7 12/16/12
f 4/4/4 12/16/12 13/17/13
f 13/17/13 14/18/14 4/4/4
f 5/5/5 4/4/4 14/18/14
f 5/5/5 14/18/14 15/19/15
f 5/5/5 16/20/16 10/12/10
f 15/19/15 16/20/16 5/5/5
f 6/6/6 17/21/17 7/7/7
f 17/22/17 6/23/6 18/24/18
f 19/25/19 18/24/18 6/23/6
f 20/26/20 19/27/19 6/28/6
f 11/14/11 20/29/20 6/15/6
f 12/16/12 7/7/7 17/21/17
f 9/10/9 21/30/21 8/8/8
f 21/30/21 22/31/22 8/8/8
f 22/31/22 23/32/23 8/8/8
f 11/14/11 8/8/8 24/33/24
f 8/8/8 25/34/25 24/33/24
f 25/34/25 8/8/8 23/32/23
f 21/35/21 9/36/9 26/37/26
f 9/13/9 10/12/10 26/38/26
f 26/38/26 10/12/10 16/20/16
f 27/39/27 20/26/20 11/40/11
f 24/33/24 27/41/27 11/14/11
f 12/16/12 28/42/28 13/17/13
f 29/43/29 12/16/12 17/21/17
f 12/16/12 29/43/29 30/44/30
f 12/16/12 30/44/30 31/45/31
f 28/42/28 12/16/12 31/45/31
f 32/46/32 14/47/14 13/48/13
f 13/48/13 28/49/28 32/46/32
f 14/18/14 33/50/33 15/19/15
f 34/51/34 14/47/14 32/46/32
f 35/52/35 15/19/15 33/50/33
f 35/52/35 16/20/16 15/19/15
f 36/53/36 16/20/16 35/52/35
f 26/38/26 16/20/16 37/54/37
f 37/54/37 16/20/16 36/53/36
f 17/22/17 38/55/38 29/56/29
f 18/24/18 38/55/38 17/22/17
f 18/24/18 39/57/39 38/55/38
f 19/25/19 40/58/40 18/24/18
f 40/59/40 39/60/39 18/61/18
f 19/27/19 20/26/20 27/39/27
f 19/62/19 41/63/41 40/64/40
f 19/27/19 27/39/27 41/65/41
f 42/66/42 21/35/21 26/37/26
f 42/66/42 22/67/22 21/35/21
f 22/31/22 43/68/43 23/32/23
f 22/67/22 42/66/42 44/69/44
f 43/70/43 22/67/22 44/69/44
f 23/32/23 43/68/43 25/34/25
f 24/71/24 25/72/25 45/73/45
f 27/74/27 24/71/24 45/73/45
f 46/75/46 45/73/45 25/72/25
f 25/72/25 43/76/43 46/75/46
f 26/37/26 47/77/47 42/66/42
f 37/78/37 47/77/47 26/37/26
f 27/74/27 45/73/45 48/79/48
f 48/80/48 41/65/41 27/39/27
f 49/81/49 28/42/28 31/45/31
f 50/82/50 28/42/28 49/81/49
f 28/42/28 50/82/50 51/83/51
f 32/46/32 28/49/28 51/84/51
f 30/85/30 29/56/29 38/55/38
f 38/55/38 52/86/52 30/85/30
f 30/44/30 53/87/53 31/45/31
f 52/86/52 54/88/54 30/85/30
f 30/44/30 54/89/54 53/87/53
f 53/87/53 49/81/49 31/45/31
f 32/46/32 55/90/55 56/91/56
f 32/46/32 51/84/51 57/92/57
f 57/92/57 55/90/55 32/46/32
f 32/46/32 58/93/58 34/51/34
f 56/91/56 58/93/58 32/46/32
f 33/94/33 59/95/59 60/96/60
f 61/97/61 62/98/62 33/94/33
f 33/94/33 62/98/62 35/99/35
f 63/100/63 33/94/33 60/96/60
f 64/101/64 33/94/33 63/100/63
f 64/101/64 61/97/61 33/94/33
f 33/94/33 34/102/34 59/95/59
f 58/93/58 65/103/65 34/51/34
f 66/104/66 34/105/34 65/106/65
f 60/96/60 59/95/59 34/102/34
f 66/107/66 60/96/60 34/102/34
f 35/52/35 67/108/67 36/53/36
f 62/98/62 67/109/67 35/99/35
f 67/110/67 68/111/68 36/112/36
f 68/111/68 37/78/37 36/112/36
f 69/113/69 37/78/37 68/111/68
f 69/113/69 47/77/47 37/78/37
f 70/114/70 52/86/52 38/55/38
f 38/55/38 39/57/39 70/114/70
f 40/58/40 70/114/70 39/57/39
f 71/115/71 70/116/70 40/64/40
f 72/117/72 71/115/71 40/64/40
f 40/64/40 41/63/41 72/117/72
f 72/117/72 41/63/41 73/118/73
f 41/65/41 48/80/48 73/119/73
f 44/69/44 42/66/42 47/77/47
f 43/76/43 44/120/44 74/121/74
f 74/121/74 46/75/46 43/76/43
f 74/122/74 44/69/44 47/77/47
f 45/73/45 75/123/75 48/79/48
f 75/123/75 45/73/45 46/75/46
f 75/123/75 46/75/46 76/124/76
f 46/75/46 74/121/74 76/124/76
f 47/77/47 77/125/77 74/122/74
f 47/77/47 69/113/69 77/125/77
f 73/118/73 48/79/48 75/123/75
f 78/126/78 50/82/50 49/81/49
f 79/127/79 78/126/78 49/81/49
f 49/81/49 80/128/80 79/127/79
f 80/128/80 49/81/49 53/87/53
f 51/83/51 50/82/50 78/126/78
f 51/84/51 81/129/81 57/92/57
f 78/126/78 82/130/82 51/83/51
f 81/131/81 51/83/51 82/130/82
f 54/88/54 52/86/52 83/132/83
f 84/133/84 52/86/52 70/114/70
f 83/132/83 52/86/52 84/133/84
f 80/128/80 53/87/53 85/134/85
f 53/87/53 54/89/54 85/134/85
f 86/135/86 54/88/54 83/132/83
f 87/136/87 85/134/85 54/89/54
f 87/137/87 54/88/54 86/135/86
f 88/138/88 56/91/56 55/90/55
f 88/138/88 55/90/55 57/92/57
f 58/139/58 56/140/56 71/115/71
f 71/115/71 56/140/56 88/141/88
f 89/142/89 57/92/57 81/129/81
f 90/143/90 88/138/88 57/92/57
f 89/142/89 90/143/90 57/92/57
f 72/117/72 91/144/91 58/139/58
f 65/145/65 58/139/58 91/144/91
f 71/115/71 72/117/72 58/139/58
f 63/100/63 60/96/60 92/146/92
f 66/107/66 92/146/92 60/96/60
f 61/97/61 68/147/68 67/109/67
f 62/98/62 61/97/61 67/109/67
f 64/148/64 93/149/93 61/150/61
f 93/151/93 68/147/68 61/97/61
f 92/152/92 64/153/64 63/154/63
f 64/155/64 94/156/94 93/157/93
f 92/152/92 94/158/94 64/153/64
f 91/159/91 95/160/95 65/106/65
f 66/104/66 65/106/65 95/160/95
f 92/152/92 66/161/66 96/162/96
f 66/161/66 95/163/95 96/162/96
f 69/113/69 68/111/68 77/125/77
f 68/111/68 97/164/97 77/125/77
f 93/165/93 97/164/97 68/111/68
f 70/116/70 98/166/98 84/167/84
f 71/115/71 99/168/99 70/116/70
f 99/168/99 98/166/98 70/116/70
f 99/168/99 71/115/71 88/141/88
f 91/144/91 72/117/72 73/118/73
f 73/118/73 75/123/75 96/162/96
f 95/163/95 73/118/73 96/162/96
f 95/163/95 91/144/91 73/118/73
f 77/169/77 76/124/76 74/121/74
f 96/162/96 75/123/75 100/170/100
f 76/124/76 100/170/100 75/123/75
f 76/124/76 77/169/77 97/171/97
f 76/124/76 97/171/97 100/170/100
f 101/172/101 82/173/82 78/174/78
f 79/175/79 102/176/102 78/174/78
f 101/172/101 78/174/78 102/176/102
f 79/175/79 103/177/103 102/176/102
f 103/177/103 79/175/79 80/178/80
f 80/178/80 104/179/104 103/177/103
f 105/180/105 104/179/104 80/178/80
f 105/181/105 80/182/80 85/183/85
f 101/184/101 81/131/81 82/130/82
f 81/129/81 101/185/101 89/142/89
f 84/133/84 106/186/106 83/132/83
f 86/135/86 83/132/83 106/186/106
f 106/187/106 84/167/84 98/166/98
f 85/183/85 87/137/87 105/181/105
f 86/135/86 107/188/107 87/137/87
f 106/186/106 108/189/108 86/135/86
f 107/188/107 86/135/86 108/189/108
f 107/188/107 105/181/105 87/137/87
f 90/143/90 99/190/99 88/138/88
f 89/191/89 101/172/101 109/192/109
f 90/143/90 89/142/89 110/193/110
f 89/142/89 109/194/109 110/193/110
f 110/193/110 111/195/111 90/143/90
f 99/190/99 90/143/90 111/195/111
f 94/158/94 92/152/92 100/170/100
f 92/152/92 96/162/96 100/170/100
f 93/196/93 94/158/94 97/171/97
f 97/171/97 94/158/94 100/170/100
f 112/197/112 98/166/98 113/198/113
f 111/199/111 113/198/113 98/166/98
f 111/199/111 98/166/98 99/168/99
f 108/200/108 106/187/106 98/166/98
f 108/201/108 98/202/98 114/203/114
f 112/204/112 114/203/114 98/202/98
f 109/192/109 101/172/101 102/176/102
f 112/204/112 102/176/102 104/179/104
f 102/176/102 103/177/103 104/179/104
f 115/205/115 109/192/109 102/176/102
f 102/176/102 112/204/112 115/205/115
f 114/203/114 104/179/104 105/180/105
f 104/179/104 114/203/114 112/204/112
f 107/188/107 114/206/114 105/181/105
f 107/188/107 108/189/108 114/206/114
f 116/207/116 110/208/110 109/192/109
f 109/192/109 115/205/115 116/207/116
f 111/148/111 110/209/110 116/210/116
f 111/211/111 116/207/116 113/212/113
f 112/204/112 113/212/113 115/205/115
f 113/212/113 116/207/116 115/205/115
