# Blender 4.3.0
# www.blender.org
mtllib index_distal_lvs.mtl
o index_distal_lvs
v 0.047813 -0.161855 -0.016602
v 0.046947 -0.162285 -0.015753
v 0.046059 -0.161847 -0.017249
v 0.047144 -0.161178 -0.017455
v 0.049857 -0.162555 -0.015397
v 0.047794 -0.160908 -0.017148
v 0.048847 -0.161372 -0.016446
v 0.045819 -0.162088 -0.016636
v 0.050163 -0.163457 -0.013730
v 0.042394 -0.161788 -0.015568
v 0.044895 -0.161979 -0.018110
v 0.044394 -0.160782 -0.019556
v 0.045373 -0.159706 -0.019448
v 0.053033 -0.164426 -0.013174
v 0.050415 -0.162008 -0.015572
v 0.051288 -0.162351 -0.015443
v 0.047945 -0.159941 -0.016571
v 0.046018 -0.159019 -0.018747
v 0.048938 -0.160537 -0.015687
v 0.050477 -0.161422 -0.014963
v 0.044100 -0.162113 -0.017617
v 0.042512 -0.161731 -0.016539
v 0.052710 -0.164411 -0.012590
v 0.050038 -0.163283 -0.011876
v 0.045754 -0.161991 -0.011779
v 0.041619 -0.161354 -0.012269
v 0.041856 -0.161571 -0.014423
v 0.044157 -0.161802 -0.018563
v 0.044131 -0.161266 -0.019206
v 0.044814 -0.159463 -0.019677
v 0.043702 -0.160228 -0.019347
v 0.044132 -0.159067 -0.019264
v 0.045210 -0.158539 -0.018965
v 0.052439 -0.162623 -0.015273
v 0.055030 -0.164243 -0.014094
v 0.056456 -0.164778 -0.012307
v 0.051625 -0.162000 -0.015298
v 0.045760 -0.157193 -0.010652
v 0.045312 -0.157608 -0.017554
v 0.050256 -0.160973 -0.013091
v 0.043522 -0.161450 -0.018628
v 0.043187 -0.160643 -0.014152
v 0.043990 -0.159601 -0.014515
v 0.055615 -0.164644 -0.010750
v 0.052760 -0.163871 -0.011252
v 0.051127 -0.162400 -0.010350
v 0.049824 -0.162656 -0.010871
v 0.048146 -0.161401 -0.010489
v 0.046773 -0.160889 -0.010241
v 0.044872 -0.160651 -0.009956
v 0.042598 -0.160640 -0.010128
v 0.042338 -0.160826 -0.011155
v 0.043821 -0.159804 -0.013630
v 0.044366 -0.158308 -0.015163
v 0.044182 -0.158532 -0.018824
v 0.044394 -0.157656 -0.017714
v 0.044054 -0.157550 -0.016825
v 0.052697 -0.162351 -0.016289
v 0.052203 -0.162258 -0.015670
v 0.056218 -0.164728 -0.014041
v 0.055819 -0.164301 -0.014903
v 0.056778 -0.164903 -0.012701
v 0.056637 -0.164886 -0.011799
v 0.057779 -0.164460 -0.013025
v 0.057217 -0.164679 -0.011714
v 0.052369 -0.161681 -0.014617
v 0.051679 -0.161495 -0.012939
v 0.052622 -0.161458 -0.015469
v 0.047610 -0.159743 -0.010330
v 0.046105 -0.158231 -0.009726
v 0.045010 -0.157588 -0.009424
v 0.043832 -0.157261 -0.009775
v 0.043827 -0.156844 -0.010955
v 0.043916 -0.156957 -0.013647
v 0.044467 -0.157383 -0.017193
v 0.049923 -0.161430 -0.011066
v 0.044275 -0.158670 -0.014589
v 0.043552 -0.160169 -0.014154
v 0.044011 -0.159112 -0.014156
v 0.056088 -0.163722 -0.009634
v 0.053941 -0.163589 -0.009531
v 0.057165 -0.164290 -0.010722
v 0.052013 -0.162269 -0.009529
v 0.051779 -0.162618 -0.010315
v 0.050650 -0.162253 -0.010426
v 0.051579 -0.162123 -0.010076
v 0.051066 -0.161902 -0.010470
v 0.049780 -0.162024 -0.010590
v 0.045852 -0.159561 -0.009550
v 0.042840 -0.160280 -0.009627
v 0.043676 -0.159390 -0.008825
v 0.042444 -0.160488 -0.010692
v 0.043018 -0.159212 -0.010167
v 0.042789 -0.160118 -0.010801
v 0.044246 -0.158168 -0.012956
v 0.044045 -0.157879 -0.014331
v 0.052933 -0.161871 -0.016658
v 0.052422 -0.161788 -0.016346
v 0.057465 -0.164243 -0.014132
v 0.055732 -0.163148 -0.015770
v 0.056563 -0.163615 -0.015321
v 0.056922 -0.163850 -0.015025
v 0.053973 -0.162262 -0.016405
v 0.056884 -0.163316 -0.014681
v 0.057605 -0.163968 -0.012100
v 0.056367 -0.162729 -0.013886
v 0.052933 -0.161776 -0.012669
v 0.051946 -0.161663 -0.010867
v 0.052833 -0.161390 -0.016172
v 0.054011 -0.161723 -0.015983
v 0.044558 -0.158714 -0.008803
v 0.043345 -0.158601 -0.008889
v 0.043005 -0.158092 -0.009287
v 0.043216 -0.157434 -0.010429
v 0.043871 -0.157988 -0.011730
v 0.053678 -0.162489 -0.008813
v 0.055459 -0.162731 -0.009569
v 0.053042 -0.162174 -0.008845
v 0.052569 -0.161975 -0.009008
v 0.051862 -0.161784 -0.009324
v 0.052106 -0.161452 -0.010266
v 0.042985 -0.159060 -0.008961
v 0.043824 -0.158891 -0.008726
v 0.043027 -0.158150 -0.010151
v 0.056258 -0.162839 -0.015206
v 0.053185 -0.161659 -0.009277
v 0.052190 -0.161392 -0.009766
vn 0.2244 -0.7180 -0.6589
vn -0.0341 -0.9355 -0.3516
vn 0.2903 -0.8692 -0.4003
vn 0.4458 -0.5255 -0.7247
vn 0.0616 -0.7257 -0.6853
vn 0.6294 -0.0910 -0.7718
vn 0.5552 -0.0108 -0.8317
vn 0.0290 -0.9861 -0.1635
vn -0.2314 -0.9530 -0.1956
vn -0.3534 -0.9339 -0.0540
vn 0.2303 -0.8691 -0.4379
vn 0.0139 -0.3634 -0.9315
vn 0.5248 -0.0155 -0.8511
vn -0.1588 -0.9375 -0.3097
vn 0.2920 0.1242 -0.9483
vn 0.1286 -0.2840 -0.9502
vn 0.7232 0.5644 -0.3981
vn 0.6611 0.4183 -0.6229
vn 0.6434 0.6710 -0.3684
vn 0.4611 0.8027 -0.3783
vn -0.1767 -0.9771 -0.1187
vn -0.9044 -0.3099 -0.2934
vn -0.2553 -0.9611 0.1051
vn -0.2648 -0.9066 0.3286
vn -0.2067 -0.8903 0.4058
vn -0.9553 -0.2218 0.1954
vn -0.9734 -0.1705 -0.1527
vn -0.1307 -0.8540 -0.5037
vn -0.1629 -0.6092 -0.7761
vn 0.0316 0.2335 -0.9718
vn -0.8383 0.1601 -0.5211
vn -0.6757 0.4284 -0.5999
vn 0.2525 0.6685 -0.6995
vn -0.3039 -0.7845 -0.5406
vn -0.2631 -0.9134 -0.3105
vn -0.0331 -0.9992 -0.0209
vn -0.0331 0.6498 -0.7593
vn 0.4627 0.8601 0.2146
vn 0.3956 0.8578 -0.3282
vn 0.4969 0.8674 0.0273
vn -0.8284 -0.3625 -0.4270
vn -0.6892 0.7070 -0.1586
vn -0.8877 0.4100 -0.2096
vn -0.0417 -0.9268 0.3733
vn -0.3410 -0.8340 0.4338
vn -0.3113 -0.3814 0.8704
vn -0.1812 -0.7022 0.6885
vn 0.0223 -0.3089 0.9508
vn 0.0807 -0.5062 0.8587
vn 0.0176 -0.7123 0.7017
vn -0.7270 -0.4722 0.4985
vn -0.6975 0.7146 -0.0542
vn -0.8716 0.4837 -0.0797
vn -0.9886 -0.1379 -0.0602
vn -0.8206 0.4665 -0.3302
vn -0.3894 0.7850 -0.4819
vn -0.9103 0.3955 -0.1226
vn -0.4221 -0.6404 -0.6417
vn -0.7709 -0.3420 -0.5374
vn -0.0366 -0.9631 -0.2666
vn -0.0684 -0.8245 -0.5618
vn 0.1846 -0.9624 0.1991
vn 0.1086 -0.9938 0.0229
vn 0.9330 -0.3418 -0.1124
vn 0.5774 -0.7937 0.1914
vn -0.2764 0.9610 0.0133
vn 0.2195 0.9756 0.0086
vn -0.2705 0.9625 -0.0215
vn 0.5674 0.2900 0.7706
vn 0.6010 0.3949 0.6949
vn 0.2478 0.6594 0.7097
vn -0.2007 0.8257 0.5272
vn -0.2726 0.9582 0.0870
vn -0.6316 0.7705 -0.0863
vn -0.1781 0.9469 -0.2676
vn 0.3359 0.7606 0.5555
vn -0.9575 0.0698 -0.2798
vn -0.8229 0.5680 -0.0171
vn -0.9621 0.2230 -0.1568
vn 0.5306 -0.2122 0.8206
vn -0.2367 -0.7318 0.6392
vn 0.7600 -0.2581 0.5965
vn -0.5803 -0.5660 0.5855
vn -0.4149 -0.6750 0.6100
vn -0.1996 -0.0859 0.9761
vn -0.7016 0.0088 0.7125
vn -0.2120 0.7099 0.6717
vn -0.0702 0.0808 0.9943
vn 0.3327 -0.2196 0.9171
vn -0.6585 -0.4048 0.6344
vn -0.0561 -0.4032 0.9134
vn -0.8914 0.4353 0.1258
vn -0.9723 0.1817 -0.1468
vn -0.8673 0.4803 -0.1308
vn -0.9907 -0.0051 -0.1359
vn -0.9871 -0.1536 -0.0462
vn -0.0791 0.1308 -0.9883
vn -0.7861 0.2570 -0.5621
vn 0.8432 -0.3310 -0.4236
vn 0.3343 -0.0891 -0.9382
vn 0.5182 -0.1450 -0.8429
vn 0.6679 -0.2547 -0.6993
vn 0.2725 -0.0364 -0.9615
vn 0.7951 0.5434 -0.2691
vn 0.9301 0.3103 0.1966
vn 0.5562 0.8310 0.0021
vn 0.2105 0.9776 -0.0024
vn -0.2511 0.9621 -0.1062
vn -0.1186 0.9411 -0.3167
vn 0.4015 0.8536 -0.3321
vn 0.2279 0.0904 0.9695
vn -0.2619 0.3446 0.9015
vn -0.7427 0.4459 0.4996
vn -0.8719 0.4883 -0.0368
vn -0.9407 -0.1023 -0.3233
vn 0.0810 -0.0020 0.9967
vn 0.5550 0.6209 0.5536
vn -0.1585 0.0405 0.9865
vn -0.3271 0.1769 0.9283
vn -0.6903 0.2909 0.6625
vn -0.3307 0.9432 -0.0303
vn -0.7669 -0.0486 0.6400
vn -0.0315 0.0872 0.9957
vn -0.9691 0.0895 -0.2297
vn 0.6182 0.6478 -0.4451
vn 0.2277 0.8647 0.4477
vn -0.2467 0.9502 0.1902
vt 0.352044 0.203140
vt 0.308499 0.188629
vt 0.356445 0.133606
vt 0.927146 0.630660
vt 0.894183 0.561876
vt 0.942099 0.581674
vt 0.329128 0.300598
vt 0.962837 0.604034
vt 0.938780 0.730820
vt 0.964707 0.658894
vt 0.329604 0.135682
vt 0.267466 0.344518
vt 0.247285 0.020152
vt 0.871359 0.510066
vt 0.376175 0.085132
vt 0.912304 0.446459
vt 0.968797 0.462360
vt 0.279627 0.468936
vt 0.970759 0.736358
vt 0.977500 0.772350
vt 0.927837 0.906007
vt 0.993514 0.604363
vt 0.726239 0.237901
vt 0.754679 0.226501
vt 0.797690 0.339555
vt 1.000000 0.485444
vt 0.734859 0.175556
vt 0.699675 0.184725
vt 0.684094 0.108111
vt 0.711848 0.102200
vt 0.347448 0.064363
vt 0.286599 0.012977
vt 0.252999 0.463450
vt 0.193669 0.357044
vt 0.139299 0.183864
vt 0.109435 0.020679
vt 0.196261 0.009642
vt 0.385129 0.051022
vt 0.864788 0.474785
vt 0.887456 0.452730
vt 0.966488 0.436086
vt 0.913740 0.419398
vt 0.961171 0.415881
vt 0.550355 0.836573
vt 0.551849 0.858401
vt 0.497107 0.856851
vt 1.000000 0.447571
vt 0.354965 0.395011
vt 0.339322 0.527102
vt 0.992387 0.816872
vt 0.286389 0.606033
vt 0.995395 0.780237
vt 0.706942 0.059462
vt 0.461120 0.325577
vt 0.737482 0.384731
vt 0.799290 0.378866
vt 0.605278 0.110897
vt 0.380210 0.021808
vt 0.471512 0.632477
vt 0.421106 0.729580
vt 0.410737 0.640327
vt 0.525215 0.646919
vt 0.454376 0.817747
vt 0.215660 0.590548
vt 0.201518 0.470531
vt 0.147293 0.397384
vt 0.152069 0.349690
vt 0.117546 0.272984
vt 0.091681 0.218166
vt 0.058023 0.149541
vt 0.037705 0.066538
vt 0.411421 0.551490
vt 0.455726 0.467434
vt 0.444435 0.508192
vt 0.513857 0.611266
vt 0.410057 0.034204
vt 0.410737 0.000000
vt 0.591803 0.827948
vt 0.501004 0.842522
vt 0.578504 0.669560
vt 0.569567 0.816890
vt 0.603557 0.769659
vt 0.599137 0.731665
vt 0.788424 0.412603
vt 0.739555 0.415881
vt 0.397757 0.388730
vt 0.367751 0.376223
vt 0.346430 0.355305
vt 0.351247 0.578110
vt 0.380260 0.547488
vt 0.305560 0.615367
vt 0.268685 0.619741
vt 0.777413 0.767078
vt 0.765547 0.751935
vt 0.777413 0.715858
vt 0.066494 0.748374
vt 0.066494 0.785804
vt 0.055928 0.762759
vt 0.732347 0.773808
vt 0.700020 0.760993
vt 0.732347 0.715858
vt 0.157344 0.714061
vt 0.128336 0.736165
vt 0.154634 0.641528
vt 0.609684 0.050445
vt 0.167693 0.749941
vt 0.130390 0.755523
vt 0.473735 0.205535
vt 0.432410 0.284367
vt 0.410737 0.332888
vt 0.416760 0.382388
vt 0.461276 0.400646
vt 0.570086 0.415880
vt 0.717359 0.415324
vt 0.525522 0.096681
vt 0.563596 0.647494
vt 0.495810 0.632479
vt 0.542270 0.630537
vt 0.177974 0.603899
vt 0.148466 0.526322
vt 0.272318 0.637833
vt 0.233088 0.640102
vt 0.700020 0.770370
vt 0.661471 0.770370
vt 0.675115 0.715858
vt 0.125819 0.435546
vt 0.153620 0.424633
vt 0.851763 0.046811
vt 0.826796 0.076662
vt 0.854487 0.026720
vt 0.869855 0.010758
vt 0.858260 0.000000
vt 0.872106 0.037731
vt 0.845655 0.083257
vt 0.837120 0.148623
vt 0.873731 0.093504
vt 0.884463 0.189088
vt 0.827997 0.201052
vt 0.851676 0.242823
vt 0.799290 0.267732
vt 0.021125 0.074492
vt 0.000000 0.097936
vt 0.045495 0.708713
vt 0.000000 0.674671
vt 0.045495 0.640102
vt 0.458050 0.488697
vt 0.514166 0.465228
vt 0.473030 0.447026
vt 0.478406 0.493336
vt 0.579038 0.579520
vt 0.661471 0.715858
vt 0.661471 0.818493
vt 0.640990 0.747212
vt 0.585686 0.632609
vt 0.614168 0.747930
vt 0.614168 0.600557
vt 0.401943 0.703108
vt 0.410737 0.861516
vt 0.387364 0.871440
vt 0.396863 0.368881
vt 0.399632 0.881835
vt 0.149170 0.783909
vt 0.363439 0.640102
vt 0.410737 0.665523
vt 0.369752 0.613400
vt 0.330223 0.640102
vt 0.362432 0.745845
vt 0.358962 0.703083
vt 0.359153 0.681893
vt 0.374990 0.827969
vt 0.614168 0.545919
vt 0.633449 0.502325
vt 0.675681 0.484604
vt 0.614168 0.776203
vt 0.640990 0.751289
vt 0.640990 0.810072
vt 0.703612 0.519962
vt 0.627864 0.585676
vt 0.615929 0.715858
vt 0.606992 0.000000
vt 0.681441 0.036042
vt 0.172248 0.640102
vt 0.510445 0.043342
vt 0.529242 0.021887
vt 0.172248 0.779648
vt 0.864788 0.466231
vt 0.837605 0.578119
vt 0.813338 0.442308
vt 0.861503 0.437674
vt 0.904892 0.255428
vt 0.045495 0.773474
vt 0.006219 0.746517
vt 0.296852 0.705009
vt 0.343010 0.749370
vt 0.300507 0.759462
vt 0.248313 0.698878
vt 0.248972 0.765039
vt 0.227555 0.719816
vt 0.598895 0.445543
vt 0.614075 0.491271
vt 0.580021 0.469381
vt 0.551853 0.425064
vt 0.102231 0.695588
vt 0.128336 0.775294
vt 0.092234 0.746982
vt 0.128336 0.640102
vt 0.202262 0.640102
vt 0.200448 0.731724
vt 0.172248 0.718750
vt 0.227554 0.674054
vt 0.676609 0.688911
vt 0.631018 0.640933
vt 0.719805 0.696430
vt 0.202180 0.759170
vt 0.111382 0.477933
vt 0.203638 0.781059
vt 0.189676 0.804967
vt 0.202720 0.813490
vt 0.142047 0.411772
vt 0.116153 0.424232
vt 0.904892 0.004416
vt 0.765547 0.715858
vt 0.765547 0.751441
vt 0.732347 0.741002
vt 0.055928 0.736217
vt 0.075669 0.718785
vt 0.092234 0.748374
vt 0.266430 0.671487
vt 0.343010 0.694683
vt 0.236218 0.679088
vt 0.229879 0.640101
vt 0.517771 0.415881
vt 0.270417 0.690441
vt 0.576153 0.527470
vt 0.550991 0.460197
vt 0.804109 0.423078
vt 0.849077 0.415881
vt 0.156081 0.800239
vt 0.663708 0.468450
vt 0.343010 0.724991
vt 0.709378 0.466118
vt 0.722362 0.442753
vt 0.682160 0.457900
vt 0.820068 0.715858
vt 0.861555 0.698523
vt 0.092234 0.640102
vt 0.864788 0.678115
vt 0.227554 0.765995
vt 0.226656 0.812220
vt 0.745318 0.716676
s 1
usemtl Material_with_Texture.122
f 1/1/1 2/2/2 3/3/3
f 1/4/1 3/5/3 4/6/4
f 2/2/2 1/1/1 5/7/5
f 1/4/1 4/6/4 6/8/6
f 5/9/5 1/4/1 7/10/7
f 1/4/1 6/8/6 7/10/7
f 3/3/3 2/2/2 8/11/8
f 2/2/2 5/7/5 9/12/9
f 10/13/10 2/2/2 9/12/9
f 10/13/10 8/11/8 2/2/2
f 3/5/3 11/14/11 4/6/4
f 3/3/3 8/11/8 11/15/11
f 12/16/12 4/6/4 11/14/11
f 13/17/13 4/6/4 12/16/12
f 13/17/13 6/8/6 4/6/4
f 5/7/5 14/18/14 9/12/9
f 5/9/5 15/19/15 16/20/16
f 5/9/5 7/10/7 15/19/15
f 5/9/5 16/20/16 14/21/14
f 17/22/17 7/10/7 6/8/6
f 17/23/17 6/24/6 18/25/18
f 18/26/18 6/8/6 13/17/13
f 7/27/7 19/28/19 20/29/20
f 15/30/15 7/27/7 20/29/20
f 7/27/7 17/23/17 19/28/19
f 21/31/21 8/11/8 22/32/22
f 22/32/22 8/11/8 10/13/10
f 21/31/21 11/15/11 8/11/8
f 9/12/9 14/18/14 23/33/23
f 10/13/10 9/12/9 24/34/24
f 9/12/9 23/33/23 24/34/24
f 10/13/10 24/34/24 25/35/25
f 25/35/25 26/36/26 10/13/10
f 27/37/27 10/13/10 26/36/26
f 10/13/10 27/37/27 22/32/22
f 11/15/11 21/31/21 28/38/28
f 11/14/11 28/39/28 29/40/29
f 29/40/29 12/16/12 11/14/11
f 13/17/13 12/16/12 30/41/30
f 12/16/12 31/42/31 32/43/32
f 31/42/31 12/16/12 29/40/29
f 32/44/32 30/45/30 12/46/12
f 13/17/13 33/47/33 18/26/18
f 33/47/33 13/17/13 30/41/30
f 14/18/14 34/48/34 35/49/35
f 16/20/16 34/50/34 14/21/14
f 36/51/36 23/33/23 14/18/14
f 36/51/36 14/18/14 35/49/35
f 37/52/37 16/20/16 15/19/15
f 37/53/37 15/30/15 20/29/20
f 16/20/16 37/52/37 34/50/34
f 38/54/38 19/28/19 17/23/17
f 38/54/38 17/23/17 39/55/39
f 39/55/39 17/23/17 18/25/18
f 39/55/39 18/25/18 33/56/33
f 20/29/20 19/28/19 40/57/40
f 40/57/40 19/28/19 38/54/38
f 20/29/20 40/57/40 37/53/37
f 41/58/41 21/31/21 22/32/22
f 41/58/41 28/38/28 21/31/21
f 42/59/42 22/60/22 27/61/27
f 43/62/43 22/60/22 42/59/42
f 43/62/43 41/63/41 22/60/22
f 44/64/44 23/33/23 36/51/36
f 23/33/23 44/64/44 45/65/45
f 23/33/23 45/65/45 24/34/24
f 46/66/46 24/34/24 45/65/45
f 24/34/24 46/66/46 47/67/47
f 24/34/24 47/67/47 25/35/25
f 25/35/25 47/67/47 48/68/48
f 25/35/25 48/68/48 49/69/49
f 26/36/26 25/35/25 50/70/50
f 50/70/50 25/35/25 49/69/49
f 26/36/26 50/70/50 51/71/51
f 26/72/26 51/73/51 52/74/52
f 27/61/27 26/72/26 42/59/42
f 53/75/53 26/72/26 52/74/52
f 53/75/53 42/59/42 26/72/26
f 28/38/28 41/58/41 29/76/29
f 31/77/31 29/76/29 41/58/41
f 32/44/32 33/78/33 30/45/30
f 31/79/31 41/63/41 32/44/32
f 54/80/54 32/44/32 41/63/41
f 33/78/33 32/44/32 55/81/55
f 32/44/32 56/82/56 55/81/55
f 56/82/56 32/44/32 57/83/57
f 57/83/57 32/44/32 54/80/54
f 33/56/33 55/84/55 56/85/56
f 39/55/39 33/56/33 56/85/56
f 35/49/35 34/48/34 58/86/58
f 34/48/34 59/87/59 58/86/58
f 37/88/37 59/87/59 34/48/34
f 60/89/60 35/49/35 61/90/61
f 36/51/36 35/49/35 60/89/60
f 61/90/61 35/49/35 58/86/58
f 62/91/62 36/51/36 60/89/60
f 36/51/36 63/92/63 44/64/44
f 36/93/36 62/94/62 64/95/64
f 36/96/36 65/97/65 63/98/63
f 65/99/65 36/100/36 64/101/64
f 66/102/66 37/103/37 67/104/67
f 40/57/40 67/105/67 37/53/37
f 68/106/68 59/107/59 37/103/37
f 68/106/68 37/103/37 66/102/66
f 69/108/69 38/54/38 70/109/70
f 40/57/40 38/54/38 69/108/69
f 70/109/70 38/54/38 71/110/71
f 72/111/72 71/110/71 38/54/38
f 73/112/73 72/111/72 38/54/38
f 39/55/39 73/112/73 38/54/38
f 39/55/39 74/113/74 73/112/73
f 74/113/74 39/55/39 75/114/75
f 39/55/39 56/85/56 75/114/75
f 40/57/40 69/108/69 76/115/76
f 67/105/67 40/57/40 76/115/76
f 77/116/77 41/63/41 43/62/43
f 77/116/77 54/80/54 41/63/41
f 78/117/78 42/59/42 53/75/53
f 42/59/42 78/117/78 43/62/43
f 78/117/78 79/118/79 43/62/43
f 79/118/79 77/116/77 43/62/43
f 44/64/44 80/119/80 81/120/81
f 44/64/44 63/92/63 65/121/65
f 82/122/82 44/64/44 65/121/65
f 44/123/44 82/124/82 80/125/80
f 45/65/45 44/64/44 81/120/81
f 83/126/83 45/65/45 81/120/81
f 45/65/45 84/127/84 46/66/46
f 45/65/45 83/126/83 84/127/84
f 85/128/85 47/129/47 46/130/46
f 86/131/86 46/130/46 84/132/84
f 46/130/46 87/133/87 85/128/85
f 87/133/87 46/130/46 86/131/86
f 47/129/47 88/134/88 48/135/48
f 47/129/47 85/128/85 88/134/88
f 76/136/76 48/135/48 88/134/88
f 48/135/48 76/136/76 69/137/69
f 69/137/69 49/138/49 48/135/48
f 89/139/89 50/140/50 49/138/49
f 69/137/69 89/139/89 49/138/49
f 90/141/90 50/70/50 91/142/91
f 50/143/50 89/144/89 91/145/91
f 50/70/50 90/141/90 51/71/51
f 51/73/51 92/146/92 52/74/52
f 93/147/93 51/73/51 90/148/90
f 92/146/92 51/73/51 94/149/94
f 93/147/93 94/149/94 51/73/51
f 94/149/94 52/74/52 92/146/92
f 53/75/53 52/74/52 94/149/94
f 79/118/79 78/117/78 53/75/53
f 53/75/53 94/149/94 95/150/95
f 79/118/79 53/75/53 95/150/95
f 96/151/96 57/152/57 54/153/54
f 77/116/77 96/154/96 54/80/54
f 57/83/57 75/155/75 56/82/56
f 57/83/57 74/156/74 75/155/75
f 96/154/96 74/156/74 57/83/57
f 61/157/61 58/158/58 97/159/97
f 59/87/59 98/160/98 58/86/58
f 58/158/58 98/161/98 97/159/97
f 59/107/59 68/106/68 98/162/98
f 99/163/99 60/164/60 61/157/61
f 99/165/99 64/166/64 60/89/60
f 60/89/60 64/166/64 62/91/62
f 61/157/61 100/167/100 101/168/101
f 61/157/61 101/168/101 102/169/102
f 100/167/100 61/157/61 103/170/103
f 99/163/99 61/157/61 102/169/102
f 103/170/103 61/157/61 97/159/97
f 64/171/64 99/172/99 104/173/104
f 105/174/105 65/175/65 64/176/64
f 64/171/64 106/177/106 105/178/105
f 104/173/104 106/177/106 64/171/64
f 105/174/105 82/179/82 65/175/65
f 67/105/67 107/180/107 66/181/66
f 66/102/66 107/182/107 68/106/68
f 76/115/76 87/183/87 67/105/67
f 67/105/67 108/184/108 107/180/107
f 87/183/87 108/184/108 67/105/67
f 68/106/68 109/185/109 98/162/98
f 106/177/106 68/186/68 107/187/107
f 110/188/110 68/186/68 106/177/106
f 68/186/68 110/188/110 109/189/109
f 89/139/89 69/137/69 70/190/70
f 70/143/70 111/191/111 89/192/89
f 111/193/111 70/194/70 71/195/71
f 111/193/111 71/195/71 112/196/112
f 72/197/72 112/196/112 71/195/71
f 72/197/72 113/198/113 112/196/112
f 72/199/72 73/200/73 114/201/114
f 72/199/72 114/201/114 113/202/113
f 73/200/73 74/156/74 114/201/114
f 115/203/115 74/204/74 95/205/95
f 95/150/95 74/156/74 96/154/96
f 115/203/115 114/206/114 74/204/74
f 87/133/87 76/136/76 88/134/88
f 79/118/79 96/154/96 77/116/77
f 95/150/95 96/154/96 79/118/79
f 80/207/80 116/208/116 81/209/81
f 80/207/80 117/210/117 116/208/116
f 105/178/105 80/211/80 82/212/82
f 80/211/80 105/178/105 117/213/117
f 116/208/116 118/214/118 81/209/81
f 118/215/118 83/126/83 81/120/81
f 118/214/118 119/216/119 83/217/83
f 119/216/119 120/218/120 83/217/83
f 86/219/86 84/127/84 83/126/83
f 83/126/83 120/220/120 86/219/86
f 85/128/85 87/133/87 88/134/88
f 121/221/121 87/133/87 86/131/86
f 121/222/121 86/223/86 120/224/120
f 121/225/121 108/226/108 87/227/87
f 91/228/91 89/229/89 111/193/111
f 91/228/91 122/230/122 90/231/90
f 93/147/93 90/148/90 122/232/122
f 123/233/123 122/230/122 91/228/91
f 111/193/111 123/233/123 91/228/91
f 95/150/95 94/149/94 93/147/93
f 115/234/115 95/150/95 93/147/93
f 124/235/124 93/147/93 122/232/122
f 93/147/93 124/235/124 115/234/115
f 103/236/103 97/237/97 110/188/110
f 110/188/110 97/237/97 109/189/109
f 109/185/109 97/238/97 98/162/98
f 99/172/99 102/239/102 104/173/104
f 101/168/101 100/167/100 125/240/125
f 110/188/110 125/241/125 100/242/100
f 103/236/103 110/188/110 100/242/100
f 101/243/101 104/173/104 102/239/102
f 101/243/101 125/241/125 104/173/104
f 106/177/106 104/173/104 125/241/125
f 117/213/117 105/178/105 106/177/106
f 117/213/117 106/177/106 126/244/126
f 106/177/106 107/187/107 127/245/127
f 106/177/106 125/241/125 110/188/110
f 106/177/106 127/245/127 126/244/126
f 108/226/108 121/225/121 107/246/107
f 121/247/121 127/245/127 107/187/107
f 123/233/123 111/193/111 112/196/112
f 122/230/122 123/233/123 112/196/112
f 112/196/112 113/198/113 122/230/122
f 122/232/122 113/202/113 124/235/124
f 114/201/114 124/235/124 113/202/113
f 124/235/124 114/201/114 115/234/115
f 126/248/126 116/208/116 117/210/117
f 126/248/126 118/214/118 116/208/116
f 118/214/118 126/248/126 119/216/119
f 119/216/119 126/248/126 120/218/120
f 126/248/126 127/249/127 120/218/120
f 121/222/121 120/224/120 127/250/127
