# Blender 4.3.0
# www.blender.org
mtllib index_distal_rvs.mtl
o index_distal_rvs
v 0.046059 -0.161847 0.017249
v 0.046947 -0.162285 0.015753
v 0.047813 -0.161855 0.016602
v 0.045819 -0.162088 0.016636
v 0.047144 -0.161178 0.017455
v 0.044895 -0.161979 0.018110
v 0.049857 -0.162555 0.015397
v 0.050163 -0.163457 0.013730
v 0.042394 -0.161788 0.015568
v 0.047794 -0.160908 0.017148
v 0.048847 -0.161372 0.016446
v 0.042512 -0.161731 0.016539
v 0.044100 -0.162113 0.017617
v 0.044394 -0.160782 0.019556
v 0.045373 -0.159706 0.019448
v 0.044157 -0.161802 0.018563
v 0.044131 -0.161266 0.019206
v 0.053033 -0.164426 0.013174
v 0.051288 -0.162351 0.015443
v 0.050415 -0.162008 0.015572
v 0.052710 -0.164411 0.012590
v 0.050038 -0.163283 0.011876
v 0.045754 -0.161991 0.011779
v 0.041619 -0.161354 0.012269
v 0.041856 -0.161571 0.014423
v 0.047945 -0.159941 0.016571
v 0.046018 -0.159019 0.018747
v 0.050477 -0.161422 0.014963
v 0.048938 -0.160537 0.015687
v 0.043522 -0.161450 0.018628
v 0.043187 -0.160643 0.014152
v 0.043990 -0.159601 0.014515
v 0.044814 -0.159463 0.019677
v 0.044132 -0.159067 0.019264
v 0.043702 -0.160228 0.019347
v 0.045210 -0.158539 0.018965
v 0.055030 -0.164243 0.014094
v 0.052439 -0.162623 0.015273
v 0.056456 -0.164778 0.012307
v 0.051625 -0.162000 0.015298
v 0.055615 -0.164644 0.010750
v 0.052760 -0.163871 0.011252
v 0.051127 -0.162400 0.010350
v 0.049824 -0.162656 0.010871
v 0.048146 -0.161401 0.010489
v 0.046773 -0.160889 0.010241
v 0.044872 -0.160651 0.009956
v 0.042598 -0.160640 0.010128
v 0.042338 -0.160826 0.011155
v 0.043821 -0.159804 0.013630
v 0.045760 -0.157193 0.010652
v 0.045312 -0.157608 0.017554
v 0.050256 -0.160973 0.013091
v 0.044366 -0.158308 0.015163
v 0.044275 -0.158670 0.014589
v 0.043552 -0.160169 0.014154
v 0.044011 -0.159112 0.014156
v 0.044182 -0.158532 0.018824
v 0.044394 -0.157656 0.017714
v 0.044054 -0.157550 0.016825
v 0.055819 -0.164301 0.014903
v 0.056218 -0.164728 0.014041
v 0.052697 -0.162351 0.016289
v 0.052203 -0.162258 0.015670
v 0.056778 -0.164903 0.012701
v 0.056637 -0.164886 0.011799
v 0.057779 -0.164460 0.013025
v 0.057217 -0.164679 0.011714
v 0.051679 -0.161495 0.012939
v 0.052369 -0.161681 0.014617
v 0.052622 -0.161458 0.015469
v 0.053941 -0.163589 0.009531
v 0.056088 -0.163722 0.009634
v 0.057165 -0.164290 0.010722
v 0.052013 -0.162269 0.009529
v 0.051779 -0.162618 0.010315
v 0.050650 -0.162253 0.010426
v 0.051579 -0.162123 0.010076
v 0.051066 -0.161902 0.010470
v 0.049780 -0.162024 0.010590
v 0.049923 -0.161430 0.011066
v 0.047610 -0.159743 0.010330
v 0.045852 -0.159561 0.009550
v 0.043676 -0.159390 0.008825
v 0.042840 -0.160280 0.009627
v 0.042444 -0.160488 0.010692
v 0.043018 -0.159212 0.010167
v 0.042789 -0.160118 0.010801
v 0.044246 -0.158168 0.012956
v 0.046105 -0.158231 0.009726
v 0.045010 -0.157588 0.009424
v 0.043832 -0.157261 0.009775
v 0.043827 -0.156844 0.010955
v 0.043916 -0.156957 0.013647
v 0.044467 -0.157383 0.017193
v 0.044045 -0.157879 0.014331
v 0.056563 -0.163615 0.015321
v 0.055732 -0.163148 0.015770
v 0.056922 -0.163850 0.015025
v 0.053973 -0.162262 0.016405
v 0.057465 -0.164243 0.014132
v 0.052933 -0.161871 0.016658
v 0.052422 -0.161788 0.016346
v 0.056884 -0.163316 0.014681
v 0.057605 -0.163968 0.012100
v 0.056367 -0.162729 0.013886
v 0.052933 -0.161776 0.012669
v 0.051946 -0.161663 0.010867
v 0.052833 -0.161390 0.016172
v 0.054011 -0.161723 0.015983
v 0.053678 -0.162489 0.008813
v 0.053042 -0.162174 0.008845
v 0.055459 -0.162731 0.009569
v 0.052569 -0.161975 0.009008
v 0.051862 -0.161784 0.009324
v 0.052106 -0.161452 0.010266
v 0.044558 -0.158714 0.008803
v 0.042985 -0.159060 0.008961
v 0.043824 -0.158891 0.008726
v 0.043871 -0.157988 0.011730
v 0.043027 -0.158150 0.010151
v 0.043345 -0.158601 0.008889
v 0.043005 -0.158092 0.009287
v 0.043216 -0.157434 0.010429
v 0.056258 -0.162839 0.015206
v 0.053185 -0.161659 0.009277
v 0.052190 -0.161392 0.009766
vn 0.2903 -0.8692 0.4003
vn -0.0338 -0.9355 0.3516
vn 0.2244 -0.7180 0.6589
vn 0.0287 -0.9861 0.1637
vn 0.4453 -0.5254 0.7251
vn 0.2303 -0.8691 0.4379
vn 0.0616 -0.7259 0.6850
vn -0.2314 -0.9530 0.1956
vn -0.3534 -0.9339 0.0536
vn 0.6294 -0.0910 0.7718
vn 0.5552 -0.0108 0.8317
vn -0.9044 -0.3099 0.2934
vn -0.1767 -0.9771 0.1187
vn 0.0139 -0.3634 0.9315
vn 0.5241 -0.0157 0.8515
vn -0.1307 -0.8540 0.5037
vn -0.1629 -0.6092 0.7761
vn -0.1588 -0.9375 0.3097
vn 0.1286 -0.2840 0.9502
vn 0.2920 0.1242 0.9483
vn -0.2553 -0.9611 -0.1051
vn -0.2648 -0.9066 -0.3286
vn -0.2067 -0.8903 -0.4058
vn -0.9553 -0.2218 -0.1954
vn -0.9734 -0.1705 0.1528
vn 0.7232 0.5644 0.3981
vn 0.6611 0.4183 0.6229
vn 0.4611 0.8027 0.3783
vn 0.6434 0.6710 0.3684
vn -0.8287 -0.3621 0.4268
vn -0.6892 0.7070 0.1586
vn -0.8877 0.4100 0.2096
vn 0.0316 0.2335 0.9718
vn -0.6760 0.4284 0.5996
vn -0.8383 0.1601 0.5211
vn 0.2517 0.6680 0.7003
vn -0.2647 -0.9133 0.3095
vn -0.3039 -0.7845 0.5405
vn -0.0331 -0.9992 0.0209
vn -0.0331 0.6499 0.7593
vn -0.0417 -0.9268 -0.3733
vn -0.3410 -0.8340 -0.4338
vn -0.3113 -0.3814 -0.8704
vn -0.1796 -0.7004 -0.6908
vn 0.0223 -0.3089 -0.9508
vn 0.0807 -0.5062 -0.8587
vn 0.0176 -0.7123 -0.7017
vn -0.7270 -0.4722 -0.4985
vn -0.6975 0.7146 0.0542
vn -0.8716 0.4837 0.0797
vn 0.4627 0.8601 -0.2146
vn 0.3956 0.8578 0.3282
vn 0.4969 0.8674 -0.0273
vn -0.9886 -0.1377 0.0615
vn -0.9575 0.0698 0.2798
vn -0.8229 0.5680 0.0171
vn -0.9621 0.2230 0.1568
vn -0.8206 0.4665 0.3302
vn -0.3894 0.7850 0.4819
vn -0.9103 0.3955 0.1226
vn -0.0693 -0.8243 0.5619
vn -0.0366 -0.9631 0.2666
vn -0.4221 -0.6404 0.6417
vn -0.7709 -0.3420 0.5373
vn 0.1846 -0.9624 -0.1991
vn 0.1086 -0.9938 -0.0229
vn 0.9330 -0.3418 0.1124
vn 0.5774 -0.7937 -0.1914
vn 0.2195 0.9756 -0.0086
vn -0.2764 0.9610 -0.0133
vn -0.2706 0.9625 0.0205
vn -0.2367 -0.7317 -0.6392
vn 0.5306 -0.2122 -0.8206
vn 0.7600 -0.2581 -0.5965
vn -0.5794 -0.5658 -0.5866
vn -0.4149 -0.6750 -0.6100
vn -0.1942 -0.0855 -0.9772
vn -0.7016 0.0088 -0.7125
vn -0.2120 0.7099 -0.6717
vn -0.0702 0.0808 -0.9943
vn 0.3359 0.7606 -0.5555
vn 0.5674 0.2900 -0.7706
vn 0.3327 -0.2196 -0.9171
vn -0.0561 -0.4032 -0.9134
vn -0.6585 -0.4048 -0.6344
vn -0.8914 0.4353 -0.1258
vn -0.9723 0.1817 0.1468
vn -0.8673 0.4803 0.1308
vn -0.9907 -0.0051 0.1359
vn 0.6010 0.3949 -0.6949
vn 0.2478 0.6594 -0.7098
vn -0.2007 0.8267 -0.5256
vn -0.2726 0.9582 -0.0870
vn -0.6316 0.7705 0.0863
vn -0.1781 0.9469 0.2676
vn -0.9871 -0.1536 0.0462
vn 0.5182 -0.1450 0.8429
vn 0.3343 -0.0891 0.9382
vn 0.6679 -0.2547 0.6993
vn 0.2725 -0.0364 0.9615
vn 0.8434 -0.3294 0.4245
vn -0.0791 0.1308 0.9883
vn -0.7861 0.2570 0.5621
vn 0.7951 0.5435 0.2691
vn 0.9301 0.3103 -0.1966
vn 0.5562 0.8310 -0.0021
vn 0.2105 0.9776 0.0024
vn -0.2511 0.9621 0.1062
vn -0.1186 0.9411 0.3167
vn 0.4058 0.8518 0.3311
vn 0.0810 -0.0020 -0.9967
vn -0.1585 0.0405 -0.9865
vn 0.5550 0.6209 -0.5536
vn -0.3219 0.1767 -0.9301
vn -0.6903 0.2909 -0.6625
vn -0.3307 0.9432 0.0303
vn 0.2279 0.0904 -0.9695
vn -0.7664 -0.0484 -0.6406
vn -0.0315 0.0872 -0.9957
vn -0.9407 -0.1023 0.3233
vn -0.9693 0.0898 0.2291
vn -0.2622 0.3459 -0.9009
vn -0.7427 0.4459 -0.4996
vn -0.8719 0.4883 0.0368
vn 0.6182 0.6478 0.4451
vn 0.2277 0.8647 -0.4477
vn -0.2467 0.9502 -0.1902
vt 0.054292 0.133606
vt 0.102238 0.188629
vt 0.058693 0.203140
vt 0.081133 0.135682
vt 0.942099 0.740213
vt 0.871360 0.811821
vt 0.894183 0.760011
vt 0.034562 0.085132
vt 0.927146 0.691227
vt 0.081609 0.300598
vt 0.143271 0.344518
vt 0.163452 0.020152
vt 0.962837 0.717853
vt 0.964707 0.662993
vt 0.938781 0.591067
vt 0.124138 0.012977
vt 0.063289 0.064363
vt 0.912304 0.875428
vt 0.968797 0.859527
vt 0.025608 0.051022
vt 0.887456 0.869157
vt 0.864788 0.847102
vt 0.131110 0.468936
vt 0.977500 0.549537
vt 0.970759 0.585529
vt 0.927837 0.415881
vt 0.157738 0.463451
vt 0.217068 0.357044
vt 0.271438 0.183864
vt 0.301302 0.020679
vt 0.214476 0.009642
vt 0.993514 0.717524
vt 0.412337 0.339555
vt 0.455348 0.226501
vt 0.483788 0.237900
vt 1.000000 0.836443
vt 0.525933 0.108110
vt 0.510352 0.184724
vt 0.475168 0.175556
vt 0.498179 0.102200
vt 0.030527 0.021808
vt 0.410737 0.633954
vt 0.421106 0.544702
vt 0.471512 0.641805
vt 0.525215 0.627363
vt 0.454376 0.456534
vt 0.966488 0.885801
vt 0.961171 0.906006
vt 0.913740 0.902490
vt 0.497108 0.417431
vt 0.551849 0.415881
vt 0.550356 0.437709
vt 1.000000 0.874316
vt 0.000680 0.034204
vt 0.000000 0.000000
vt 0.071415 0.527102
vt 0.055772 0.395011
vt 0.992388 0.505015
vt 0.124348 0.606033
vt 0.995395 0.541650
vt 0.503085 0.059462
vt 0.195077 0.590548
vt 0.209219 0.470531
vt 0.263444 0.397384
vt 0.258668 0.349690
vt 0.293191 0.272984
vt 0.319056 0.218166
vt 0.352714 0.149541
vt 0.373032 0.066538
vt 0.444435 0.766090
vt 0.455726 0.806848
vt 0.411421 0.722792
vt 0.513857 0.663016
vt 0.748907 0.325577
vt 0.472545 0.384731
vt 0.410737 0.378866
vt 0.604749 0.110897
vt 0.501004 0.431760
vt 0.578504 0.604722
vt 0.563596 0.626788
vt 0.495810 0.641802
vt 0.542270 0.643745
vt 0.591803 0.446334
vt 0.569568 0.457392
vt 0.603557 0.504622
vt 0.599137 0.542617
vt 0.470472 0.415881
vt 0.421603 0.412602
vt 0.030477 0.547488
vt 0.059490 0.578110
vt 0.012980 0.388730
vt 0.042986 0.376223
vt 0.064307 0.355305
vt 0.105177 0.615367
vt 0.142052 0.619741
vt 0.777413 0.767078
vt 0.765547 0.731001
vt 0.777413 0.715858
vt 0.055928 0.771419
vt 0.066494 0.748374
vt 0.066494 0.785803
vt 0.732347 0.773807
vt 0.700019 0.728673
vt 0.732347 0.715858
vt 0.154634 0.798813
vt 0.128336 0.704176
vt 0.157344 0.726280
vt 0.600343 0.050445
vt 0.130390 0.684818
vt 0.167692 0.690400
vt 0.262271 0.526322
vt 0.232763 0.603899
vt 0.138419 0.637834
vt 0.177649 0.640102
vt 0.686376 0.715858
vt 0.700019 0.770369
vt 0.661471 0.770369
vt 0.284918 0.435546
vt 0.257117 0.424633
vt 0.854487 0.241012
vt 0.826796 0.191070
vt 0.851763 0.220921
vt 0.858260 0.267732
vt 0.869855 0.256974
vt 0.872106 0.230001
vt 0.837120 0.119109
vt 0.845656 0.184475
vt 0.873731 0.174228
vt 0.884463 0.078644
vt 0.827997 0.066680
vt 0.799290 0.000000
vt 0.851676 0.024909
vt 0.410737 0.097936
vt 0.389612 0.074492
vt 0.045495 0.708713
vt 0.000000 0.674144
vt 0.045495 0.640102
vt 0.458050 0.785584
vt 0.473030 0.827256
vt 0.514166 0.809054
vt 0.478406 0.780945
vt 0.579038 0.694762
vt 0.777617 0.284367
vt 0.736292 0.205535
vt 0.799290 0.332888
vt 0.793267 0.382388
vt 0.748751 0.400645
vt 0.639941 0.415881
vt 0.492668 0.415323
vt 0.684505 0.096681
vt 0.640990 0.787139
vt 0.661471 0.715858
vt 0.661471 0.818492
vt 0.585686 0.641673
vt 0.614168 0.526352
vt 0.614168 0.673725
vt 0.358962 0.818854
vt 0.362432 0.776092
vt 0.401943 0.818829
vt 0.359153 0.840044
vt 0.374990 0.693968
vt 0.363439 0.881835
vt 0.410737 0.856413
vt 0.387364 0.650496
vt 0.410737 0.660421
vt 0.080514 0.640102
vt 0.040985 0.613400
vt 0.013874 0.368881
vt 0.399632 0.640102
vt 0.149170 0.656432
vt 0.675681 0.647134
vt 0.633449 0.629414
vt 0.614168 0.585820
vt 0.640990 0.715858
vt 0.640990 0.774641
vt 0.614168 0.749727
vt 0.627864 0.546063
vt 0.703612 0.611776
vt 0.615929 0.810071
vt 0.699582 0.043342
vt 0.528586 0.036042
vt 0.603035 0.000000
vt 0.680785 0.021887
vt 0.172248 0.800239
vt 0.172248 0.660693
vt 0.837605 0.553620
vt 0.864788 0.665508
vt 0.813338 0.689431
vt 0.861503 0.694065
vt 0.172248 0.734842
vt 0.200448 0.721868
vt 0.202262 0.813490
vt 0.202180 0.694422
vt 0.299355 0.477934
vt 0.227554 0.779538
vt 0.631018 0.490806
vt 0.676609 0.442828
vt 0.719805 0.435309
vt 0.189676 0.648625
vt 0.203638 0.672533
vt 0.202720 0.640102
vt 0.268690 0.411772
vt 0.294584 0.424232
vt 0.904892 0.263315
vt 0.732347 0.726297
vt 0.765547 0.715858
vt 0.765547 0.751441
vt 0.092234 0.640102
vt 0.075669 0.669691
vt 0.055928 0.652259
vt 0.904892 0.012304
vt 0.006219 0.735671
vt 0.045495 0.773474
vt 0.296852 0.700132
vt 0.343010 0.710457
vt 0.266430 0.733653
vt 0.229879 0.765039
vt 0.236218 0.726052
vt 0.270417 0.714699
vt 0.517771 0.858401
vt 0.576153 0.746812
vt 0.550991 0.814085
vt 0.092234 0.668414
vt 0.128336 0.640102
vt 0.102230 0.719808
vt 0.300507 0.645679
vt 0.343010 0.655770
vt 0.248313 0.706262
vt 0.248972 0.640102
vt 0.227555 0.685324
vt 0.580021 0.804901
vt 0.614075 0.783011
vt 0.598895 0.828738
vt 0.551854 0.849217
vt 0.128336 0.775294
vt 0.343010 0.796946
vt 0.663708 0.663289
vt 0.682160 0.673839
vt 0.709379 0.665621
vt 0.722362 0.688986
vt 0.804109 0.708661
vt 0.849077 0.715858
vt 0.156081 0.640102
vt 0.820068 0.415881
vt 0.861555 0.433216
vt 0.092234 0.748374
vt 0.864788 0.453623
vt 0.227554 0.687597
vt 0.226656 0.641372
vt 0.745318 0.750623
s 1
usemtl Material_with_Texture.123
f 1/1/1 2/2/2 3/3/3
f 4/4/4 2/2/2 1/1/1
f 5/5/5 6/6/6 1/7/1
f 6/8/6 4/4/4 1/1/1
f 5/5/5 1/7/1 3/9/3
f 7/10/7 3/3/3 2/2/2
f 8/11/8 7/10/7 2/2/2
f 8/11/8 2/2/2 9/12/9
f 2/2/2 4/4/4 9/12/9
f 10/13/10 5/5/5 3/9/3
f 11/14/11 3/9/3 7/15/7
f 11/14/11 10/13/10 3/9/3
f 12/16/12 4/4/4 13/17/13
f 9/12/9 4/4/4 12/16/12
f 4/4/4 6/8/6 13/17/13
f 6/6/6 5/5/5 14/18/14
f 14/18/14 5/5/5 15/19/15
f 5/5/5 10/13/10 15/19/15
f 16/20/16 13/17/13 6/8/6
f 17/21/17 16/22/16 6/6/6
f 6/6/6 14/18/14 17/21/17
f 8/11/8 18/23/18 7/10/7
f 19/24/19 20/25/20 7/15/7
f 20/25/20 11/14/11 7/15/7
f 18/26/18 19/24/19 7/15/7
f 21/27/21 18/23/18 8/11/8
f 22/28/22 8/11/8 9/12/9
f 22/28/22 21/27/21 8/11/8
f 23/29/23 22/28/22 9/12/9
f 9/12/9 24/30/24 23/29/23
f 24/30/24 9/12/9 25/31/25
f 12/16/12 25/31/25 9/12/9
f 10/13/10 11/14/11 26/32/26
f 27/33/27 10/34/10 26/35/26
f 15/19/15 10/13/10 27/36/27
f 28/37/28 29/38/29 11/39/11
f 28/37/28 11/39/11 20/40/20
f 29/38/29 26/35/26 11/39/11
f 12/16/12 13/17/13 30/41/30
f 25/42/25 12/43/12 31/44/31
f 31/44/31 12/43/12 32/45/32
f 12/43/12 30/46/30 32/45/32
f 13/17/13 16/20/16 30/41/30
f 33/47/33 14/18/14 15/19/15
f 34/48/34 35/49/35 14/18/14
f 17/21/17 14/18/14 35/49/35
f 14/50/14 33/51/33 34/52/34
f 27/36/27 36/53/36 15/19/15
f 33/47/33 15/19/15 36/53/36
f 17/54/17 30/41/30 16/20/16
f 30/41/30 17/54/17 35/55/35
f 37/56/37 38/57/38 18/23/18
f 18/26/18 38/58/38 19/24/19
f 18/23/18 21/27/21 39/59/39
f 37/56/37 18/23/18 39/59/39
f 38/58/38 40/60/40 19/24/19
f 20/25/20 19/24/19 40/60/40
f 28/37/28 20/40/20 40/61/40
f 39/59/39 21/27/21 41/62/41
f 42/63/42 41/62/41 21/27/21
f 22/28/22 42/63/42 21/27/21
f 42/63/42 22/28/22 43/64/43
f 44/65/44 43/64/43 22/28/22
f 23/29/23 44/65/44 22/28/22
f 45/66/45 44/65/44 23/29/23
f 46/67/46 45/66/45 23/29/23
f 47/68/47 23/29/23 24/30/24
f 46/67/46 23/29/23 47/68/47
f 48/69/48 47/68/47 24/30/24
f 49/70/49 48/71/48 24/72/24
f 31/44/31 24/72/24 25/42/25
f 49/70/49 24/72/24 50/73/50
f 24/72/24 31/44/31 50/73/50
f 26/35/26 29/38/29 51/74/51
f 52/75/52 26/35/26 51/74/51
f 27/33/27 26/35/26 52/75/52
f 36/76/36 27/33/27 52/75/52
f 53/77/53 29/38/29 28/37/28
f 40/61/40 53/77/53 28/37/28
f 51/74/51 29/38/29 53/77/53
f 34/52/34 30/46/30 35/78/35
f 30/46/30 34/52/34 54/79/54
f 32/45/32 30/46/30 55/80/55
f 30/46/30 54/79/54 55/80/55
f 50/73/50 31/44/31 56/81/56
f 32/45/32 56/81/56 31/44/31
f 32/45/32 57/82/57 56/81/56
f 32/45/32 55/80/55 57/82/57
f 33/51/33 36/83/36 34/52/34
f 58/84/58 34/52/34 36/83/36
f 58/84/58 59/85/59 34/52/34
f 60/86/60 34/52/34 59/85/59
f 54/79/54 34/52/34 60/86/60
f 59/87/59 58/88/58 36/76/36
f 59/87/59 36/76/36 52/75/52
f 61/89/61 37/56/37 62/90/62
f 62/90/62 37/56/37 39/59/39
f 63/91/63 37/56/37 61/89/61
f 63/91/63 38/57/38 37/56/37
f 63/91/63 64/92/64 38/57/38
f 38/57/38 64/92/64 40/93/40
f 62/90/62 39/59/39 65/94/65
f 41/62/41 66/95/66 39/59/39
f 67/96/67 65/97/65 39/98/39
f 66/99/66 68/100/68 39/101/39
f 67/102/67 39/103/39 68/104/68
f 69/105/69 40/106/40 70/107/70
f 40/61/40 69/108/69 53/77/53
f 40/106/40 64/109/64 71/110/71
f 70/107/70 40/106/40 71/110/71
f 72/111/72 73/112/73 41/62/41
f 68/113/68 66/95/66 41/62/41
f 68/113/68 41/62/41 74/114/74
f 73/115/73 74/116/74 41/117/41
f 72/111/72 41/62/41 42/63/42
f 72/111/72 42/63/42 75/118/75
f 43/64/43 76/119/76 42/63/42
f 76/119/76 75/118/75 42/63/42
f 43/120/43 44/121/44 77/122/77
f 76/123/76 43/120/43 78/124/78
f 77/122/77 79/125/79 43/120/43
f 78/124/78 43/120/43 79/125/79
f 45/126/45 80/127/80 44/121/44
f 80/127/80 77/122/77 44/121/44
f 80/127/80 45/126/45 81/128/81
f 82/129/82 81/128/81 45/126/45
f 45/126/45 46/130/46 82/129/82
f 46/130/46 47/131/47 83/132/83
f 46/130/46 83/132/83 82/129/82
f 84/133/84 47/68/47 85/134/85
f 84/135/84 83/136/83 47/137/47
f 48/69/48 85/134/85 47/68/47
f 49/70/49 86/138/86 48/71/48
f 85/139/85 48/71/48 87/140/87
f 88/141/88 48/71/48 86/138/86
f 48/71/48 88/141/88 87/140/87
f 86/138/86 49/70/49 88/141/88
f 88/141/88 49/70/49 50/73/50
f 50/73/50 56/81/56 57/82/57
f 89/142/89 88/141/88 50/73/50
f 89/142/89 50/73/50 57/82/57
f 90/143/90 51/74/51 82/144/82
f 82/144/82 51/74/51 53/77/53
f 91/145/91 51/74/51 90/143/90
f 51/74/51 91/145/91 92/146/92
f 51/74/51 92/146/92 93/147/93
f 51/74/51 93/147/93 52/75/52
f 93/147/93 94/148/94 52/75/52
f 95/149/95 52/75/52 94/148/94
f 95/149/95 59/87/59 52/75/52
f 81/150/81 82/144/82 53/77/53
f 81/150/81 53/77/53 69/108/69
f 54/151/54 60/152/60 96/153/96
f 54/79/54 96/154/96 55/80/55
f 55/80/55 96/154/96 57/82/57
f 57/82/57 96/154/96 89/142/89
f 59/85/59 95/155/95 60/86/60
f 95/155/95 94/156/94 60/86/60
f 60/86/60 94/156/94 96/154/96
f 97/157/97 98/158/98 61/159/61
f 99/160/99 97/157/97 61/159/61
f 100/161/100 61/159/61 98/158/98
f 99/160/99 61/159/61 101/162/101
f 61/159/61 62/163/62 101/162/101
f 102/164/102 63/165/63 61/159/61
f 102/164/102 61/159/61 100/161/100
f 62/90/62 67/166/67 101/167/101
f 65/94/65 67/166/67 62/90/62
f 63/91/63 103/168/103 64/92/64
f 102/164/102 103/169/103 63/165/63
f 103/170/103 71/110/71 64/109/64
f 104/171/104 101/172/101 67/173/67
f 67/174/67 68/175/68 105/176/105
f 105/177/105 106/178/106 67/173/67
f 67/173/67 106/178/106 104/171/104
f 68/175/68 74/179/74 105/176/105
f 69/108/69 79/180/79 81/150/81
f 70/181/70 107/182/107 69/108/69
f 107/182/107 108/183/108 69/108/69
f 69/108/69 108/183/108 79/180/79
f 71/110/71 107/184/107 70/107/70
f 103/170/103 109/185/109 71/110/71
f 107/186/107 71/187/71 106/178/106
f 106/178/106 71/187/71 110/188/110
f 109/189/109 110/188/110 71/187/71
f 72/190/72 111/191/111 73/192/73
f 72/190/72 112/193/112 111/191/111
f 72/111/72 75/118/75 112/194/112
f 111/191/111 113/195/113 73/192/73
f 74/196/74 73/197/73 105/177/105
f 113/198/113 105/177/105 73/197/73
f 75/199/75 114/200/114 112/193/112
f 75/199/75 115/201/115 114/200/114
f 75/118/75 76/119/76 78/202/78
f 78/202/78 115/203/115 75/118/75
f 80/127/80 79/125/79 77/122/77
f 78/124/78 79/125/79 116/204/116
f 115/205/115 78/206/78 116/207/116
f 80/127/80 81/128/81 79/125/79
f 79/208/79 108/209/108 116/210/116
f 90/211/90 82/129/82 83/132/83
f 83/212/83 117/135/117 90/213/90
f 117/214/117 83/215/83 84/216/84
f 85/217/85 118/218/118 84/216/84
f 84/216/84 118/218/118 119/219/119
f 84/216/84 119/219/119 117/214/117
f 118/220/118 85/139/85 87/140/87
f 87/140/87 88/141/88 89/142/89
f 87/140/87 89/142/89 120/221/120
f 118/220/118 87/140/87 121/222/121
f 120/221/120 121/222/121 87/140/87
f 89/223/89 94/224/94 120/225/120
f 96/154/96 94/156/94 89/142/89
f 91/226/91 90/227/90 117/214/117
f 122/228/122 91/226/91 117/214/117
f 91/226/91 122/228/122 92/229/92
f 122/228/122 123/230/123 92/229/92
f 124/231/124 93/232/93 92/233/92
f 123/234/123 124/231/124 92/233/92
f 124/231/124 94/156/94 93/232/93
f 94/224/94 124/235/124 120/225/120
f 125/236/125 98/158/98 97/157/97
f 99/237/99 104/171/104 97/238/97
f 104/171/104 125/239/125 97/238/97
f 98/240/98 125/239/125 110/188/110
f 98/240/98 110/188/110 100/241/100
f 104/171/104 99/237/99 101/172/101
f 110/188/110 102/242/102 100/241/100
f 109/189/109 102/242/102 110/188/110
f 103/170/103 102/243/102 109/185/109
f 125/239/125 104/171/104 106/178/106
f 106/178/106 105/177/105 113/198/113
f 126/244/126 106/178/106 113/198/113
f 127/245/127 107/186/107 106/178/106
f 110/188/110 125/239/125 106/178/106
f 126/244/126 127/245/127 106/178/106
f 107/246/107 116/210/116 108/209/108
f 107/186/107 127/245/127 116/247/116
f 113/195/113 111/191/111 126/248/126
f 111/191/111 112/193/112 126/248/126
f 114/200/114 126/248/126 112/193/112
f 115/201/115 126/248/126 114/200/114
f 115/201/115 127/249/127 126/248/126
f 127/250/127 115/205/115 116/207/116
f 122/228/122 117/214/117 119/219/119
f 122/228/122 119/219/119 118/218/118
f 118/218/118 123/230/123 122/228/122
f 121/222/121 123/234/123 118/220/118
f 120/221/120 124/231/124 121/222/121
f 123/234/123 121/222/121 124/231/124
