# Blender 4.3.0
# www.blender.org
mtllib l_pat.mtl
o l_pat
v 0.000000 0.052920 -0.000000
v 0.000000 0.050274 0.012600
v 0.005482 0.049127 0.007546
v 0.005758 0.047980 0.001871
v 0.005758 0.047980 -0.001871
v 0.003895 0.049744 -0.005362
v 0.000000 0.051509 -0.007200
v -0.003367 0.051596 -0.004633
v -0.004046 0.051685 -0.001315
v -0.004046 0.051685 0.001315
v -0.004954 0.050979 0.006818
v 0.000000 0.044982 0.021764
v 0.010147 0.044365 0.013966
v -0.007935 0.043395 0.010922
v 0.012139 0.043747 0.003944
v 0.012139 0.043747 -0.003944
v 0.008993 0.046569 -0.012378
v 0.000000 0.049392 -0.017836
v -0.006781 0.045599 -0.009333
v -0.004981 0.041807 -0.001618
v -0.004981 0.041807 0.001618
v 0.000000 0.035280 0.024709
v 0.012023 0.033957 0.016548
v -0.008176 0.035015 0.011253
v 0.015407 0.032634 0.005006
v -0.002957 0.034751 0.000961
v 0.015407 0.032634 -0.005006
v 0.012600 0.034927 -0.017343
v 0.000000 0.037220 -0.026673
v -0.008752 0.035986 -0.012047
v -0.002957 0.034751 -0.000961
v 0.000000 0.023814 0.021436
v 0.011013 0.023814 0.015158
v -0.007358 0.025577 0.010128
v 0.015251 0.023814 0.004955
v -0.003424 0.027342 0.001112
v 0.015251 0.023814 -0.004955
v -0.003424 0.027342 -0.001112
v 0.011590 0.023460 -0.015953
v 0.000000 0.023109 -0.023400
v -0.007935 0.025225 -0.010922
v 0.000000 0.018345 0.015546
v 0.008512 0.016493 0.011716
v -0.007887 0.015435 0.010856
v 0.012761 0.014641 0.004146
v -0.010738 0.012524 0.003489
v 0.012761 0.014641 -0.004146
v -0.010738 0.012524 -0.003489
v 0.009089 0.016229 -0.012511
v -0.008464 0.015171 -0.011650
v 0.000000 0.017816 -0.017509
v 0.000000 0.008643 0.013418
v 0.006925 0.008732 0.009531
v -0.006925 0.007937 0.009531
v 0.009649 0.008820 0.003135
v -0.009649 0.007232 0.003135
v 0.009649 0.008820 -0.003135
v -0.009649 0.007232 -0.003135
v 0.007551 0.008556 -0.010392
v -0.007551 0.007761 -0.010392
v 0.000000 0.008291 -0.015546
v 0.000000 0.004233 0.008182
v 0.003991 0.003969 0.005495
v -0.004424 0.003616 0.006089
v 0.005135 0.003705 0.001669
v -0.006536 0.002999 0.002124
v 0.005135 0.003705 -0.001669
v -0.006536 0.002999 -0.002124
v 0.004617 0.003440 -0.006355
v -0.005049 0.003087 -0.006950
v 0.000000 0.003174 -0.010309
v 0.000000 0.000000 0.000000
vn 0.1844 0.9828 -0.0066
vn -0.0675 0.9002 0.4303
vn 0.5286 0.8376 0.1380
vn 0.6238 0.7810 -0.0297
vn 0.6024 0.7977 0.0271
vn 0.5303 0.8462 -0.0527
vn -0.0067 0.9725 -0.2327
vn -0.6371 0.7660 -0.0859
vn -0.7618 0.6474 0.0241
vn -0.7344 0.6777 -0.0377
vn -0.6918 0.7154 0.0981
vn -0.1469 0.5486 0.8231
vn 0.7210 0.5504 0.4209
vn -0.9573 0.2412 0.1594
vn 0.8296 0.5553 0.0586
vn 0.8267 0.5611 -0.0427
vn 0.6863 0.6609 -0.3035
vn -0.1335 0.7820 -0.6089
vn -0.9253 0.3656 -0.1003
vn -0.9871 -0.0191 0.1587
vn -0.9838 -0.0373 -0.1756
vn -0.1815 0.0229 0.9831
vn 0.7986 0.0605 0.5989
vn -0.9945 -0.0380 0.0976
vn 0.9839 0.1050 0.1444
vn -0.9773 -0.0807 -0.1958
vn 0.9853 0.1198 -0.1218
vn 0.8152 0.1440 -0.5610
vn -0.1628 0.1909 -0.9680
vn -0.9926 0.0525 -0.1093
vn -0.9778 -0.0685 0.1979
vn -0.2043 -0.3557 0.9120
vn 0.7011 -0.3277 0.6332
vn -0.9837 0.0036 0.1800
vn 0.9623 -0.1849 0.1994
vn -0.9691 0.1995 -0.1447
vn 0.9706 -0.1786 -0.1611
vn -0.9674 0.1980 0.1581
vn 0.7454 -0.3166 -0.5866
vn -0.1841 -0.3445 -0.9205
vn -0.9875 0.0113 -0.1570
vn -0.1549 -0.3918 0.9069
vn 0.6270 -0.4152 0.6591
vn -0.8503 -0.0566 0.5232
vn 0.8975 -0.3775 0.2281
vn -0.9912 0.0548 0.1201
vn 0.9117 -0.3697 -0.1792
vn -0.9957 0.0614 -0.0693
vn 0.6929 -0.4101 -0.5931
vn -0.8839 -0.0546 -0.4645
vn -0.1444 -0.4001 -0.9050
vn 0.0018 -0.4821 0.8761
vn 0.6021 -0.5215 0.6046
vn -0.6234 -0.4535 0.6370
vn 0.8100 -0.5550 0.1894
vn -0.8798 -0.4245 0.2137
vn 0.8329 -0.5389 -0.1261
vn -0.9014 -0.4072 -0.1470
vn 0.6870 -0.4941 -0.5328
vn -0.7119 -0.4231 -0.5605
vn -0.0007 -0.4697 -0.8828
vn 0.0592 -0.8060 0.5889
vn 0.4794 -0.7800 0.4022
vn -0.3737 -0.7953 0.4774
vn 0.6512 -0.7488 0.1235
vn -0.5959 -0.7818 0.1834
vn 0.6787 -0.7334 -0.0380
vn -0.6257 -0.7734 -0.1019
vn 0.5627 -0.7755 -0.2861
vn -0.4820 -0.7973 -0.3632
vn 0.0458 -0.8287 -0.5578
vn 0.0857 -0.9937 0.0721
vt 0.163123 0.705802
vt 0.157192 0.838934
vt 0.105184 0.782822
vt 0.672631 0.625612
vt 0.674096 0.537651
vt 0.714223 0.583392
vt 0.733621 0.617483
vt 0.733621 0.658299
vt 0.130307 0.648456
vt 0.170044 0.631047
vt 0.203122 0.660165
vt 0.207678 0.695327
vt 0.205773 0.722866
vt 0.212089 0.781422
vt 0.156948 0.937281
vt 0.057736 0.849042
vt 0.249306 0.829837
vt 0.045011 0.743032
vt 0.107809 0.723730
vt 0.050725 0.660436
vt 0.110520 0.684547
vt 0.086168 0.572976
vt 0.180308 0.520632
vt 0.249306 0.615968
vt 0.222642 0.009871
vt 0.264218 0.057618
vt 0.208627 0.116585
vt 0.188637 0.017150
vt 0.178562 0.124828
vt 0.164203 0.023850
vt 0.075706 0.131201
vt 0.110603 0.044700
vt 0.887386 0.495204
vt 0.789979 0.537651
vt 0.754816 0.447640
vt 0.861847 0.409147
vt 0.089630 0.217271
vt 0.000000 0.252057
vt 0.006454 0.145774
vt 0.724343 0.327144
vt 0.841845 0.304395
vt 0.208773 0.195790
vt 0.712757 0.222839
vt 0.832717 0.222218
vt 0.725103 0.093070
vt 0.855413 0.132655
vt 0.750679 0.000000
vt 0.887386 0.077302
vt 0.364867 0.000000
vt 0.473201 0.101419
vt 0.301480 0.147806
vt 0.226630 0.190894
vt 0.667047 0.517458
vt 0.648816 0.446014
vt 0.124018 0.310819
vt 0.055118 0.360461
vt 0.632789 0.337395
vt 0.221283 0.271426
vt 0.621321 0.234152
vt 0.241946 0.265761
vt 0.608561 0.122012
vt 0.302444 0.933202
vt 0.332438 0.827091
vt 0.473201 0.860750
vt 0.454664 1.000000
vt 0.473201 0.253428
vt 0.317811 0.260556
vt 0.597474 0.537651
vt 0.589113 0.618119
vt 0.496894 0.655779
vt 0.480555 0.587909
vt 0.672631 0.642139
vt 0.666430 0.681984
vt 0.571250 0.420405
vt 0.539014 0.341456
vt 0.198963 0.425481
vt 0.136784 0.415728
vt 0.529419 0.255070
vt 0.263795 0.407706
vt 0.249306 0.764796
vt 0.290182 0.680395
vt 0.357276 0.742689
vt 0.343914 0.360859
vt 0.459603 0.779547
vt 0.429875 0.322325
vt 0.576985 0.682446
vt 0.503590 0.713071
vt 0.647126 0.727907
vt 0.489656 0.407924
vt 0.480456 0.339690
vt 0.218446 0.478888
vt 0.169483 0.489071
vt 0.473201 0.274369
vt 0.276700 0.462916
vt 0.328087 0.622469
vt 0.380076 0.663582
vt 0.352210 0.439867
vt 0.473201 0.687083
vt 0.432163 0.424305
vt 0.570085 0.751919
vt 0.527269 0.775218
vt 0.614825 0.778041
vt 0.513781 0.811557
vt 0.473201 0.770747
vt 0.672631 0.793610
vt 0.634840 0.819935
vt 0.300455 0.583516
vt 0.360586 0.545761
vt 0.375296 0.566498
vt 0.290120 0.509811
vt 0.250652 0.520632
vt 0.401354 0.592946
vt 0.341308 0.497205
vt 0.462074 0.611426
vt 0.394534 0.489744
vt 0.562436 0.848349
vt 0.424057 0.520632
vt 0.633460 0.859973
vt 0.616484 0.903853
vt 0.562828 0.931028
s 1
usemtl Material_with_Texture.155
f 1/1/1 2/2/2 3/3/3
f 1/4/1 3/5/3 4/6/4
f 1/4/1 4/6/4 5/7/5
f 1/4/1 5/7/5 6/8/6
f 1/1/1 6/9/6 7/10/7
f 1/1/1 7/10/7 8/11/8
f 1/1/1 8/11/8 9/12/9
f 1/1/1 9/12/9 10/13/10
f 1/1/1 10/13/10 11/14/11
f 1/1/1 11/14/11 2/2/2
f 2/2/2 12/15/12 13/16/13 3/3/3
f 11/14/11 14/17/14 12/15/12 2/2/2
f 3/3/3 13/16/13 15/18/15 4/19/4
f 4/19/4 15/18/15 16/20/16 5/21/5
f 5/21/5 16/20/16 17/22/17 6/9/6
f 6/9/6 17/22/17 18/23/18 7/10/7
f 7/10/7 18/23/18 19/24/19 8/11/8
f 8/25/8 19/26/19 20/27/20 9/28/9
f 9/28/9 20/27/20 21/29/21 10/30/10
f 10/30/10 21/29/21 14/31/14 11/32/11
f 12/33/12 22/34/22 23/35/23 13/36/13
f 14/31/14 24/37/24 22/38/22 12/39/12
f 13/36/13 23/35/23 25/40/25 15/41/15
f 21/29/21 26/42/26 24/37/24 14/31/14
f 15/41/15 25/40/25 27/43/27 16/44/16
f 16/44/16 27/43/27 28/45/28 17/46/17
f 17/46/17 28/45/28 29/47/29 18/48/18
f 18/49/18 29/50/29 30/51/30 19/26/19
f 19/26/19 30/51/30 31/52/31 20/27/20
f 20/27/20 31/52/31 26/42/26 21/29/21
f 22/34/22 32/53/32 33/54/33 23/35/23
f 24/37/24 34/55/34 32/56/32 22/38/22
f 23/35/23 33/54/33 35/57/35 25/40/25
f 26/42/26 36/58/36 34/55/34 24/37/24
f 25/40/25 35/57/35 37/59/37 27/43/27
f 31/52/31 38/60/38 36/58/36 26/42/26
f 27/43/27 37/59/37 39/61/39 28/45/28
f 28/62/28 39/63/39 40/64/40 29/65/29
f 29/50/29 40/66/40 41/67/41 30/51/30
f 30/51/30 41/67/41 38/60/38 31/52/31
f 32/68/32 42/69/42 43/70/43 33/71/33
f 34/72/34 44/73/44 42/69/42 32/68/32
f 33/54/33 43/74/43 45/75/45 35/57/35
f 36/58/36 46/76/46 44/77/44 34/55/34
f 35/57/35 45/75/45 47/78/47 37/59/37
f 38/60/38 48/79/48 46/76/46 36/58/36
f 37/80/37 47/81/47 49/82/49 39/63/39
f 41/67/41 50/83/50 48/79/48 38/60/38
f 39/63/39 49/82/49 51/84/51 40/64/40
f 40/66/40 51/85/51 50/83/50 41/67/41
f 42/69/42 52/86/52 53/87/53 43/70/43
f 44/73/44 54/88/54 52/86/52 42/69/42
f 43/74/43 53/89/53 55/90/55 45/75/45
f 46/76/46 56/91/56 54/92/54 44/77/44
f 45/75/45 55/90/55 57/93/57 47/78/47
f 48/79/48 58/94/58 56/91/56 46/76/46
f 47/81/47 57/95/57 59/96/59 49/82/49
f 50/83/50 60/97/60 58/94/58 48/79/48
f 49/82/49 59/96/59 61/98/61 51/84/51
f 51/85/51 61/99/61 60/97/60 50/83/50
f 52/86/52 62/100/62 63/101/63 53/87/53
f 54/88/54 64/102/64 62/100/62 52/86/52
f 53/87/53 63/101/63 65/103/65 55/104/55
f 56/105/56 66/106/66 64/102/64 54/88/54
f 55/107/55 65/108/65 67/109/67 57/95/57
f 58/94/58 68/110/68 66/111/66 56/91/56
f 57/95/57 67/109/67 69/112/69 59/96/59
f 60/97/60 70/113/70 68/110/68 58/94/58
f 59/96/59 69/112/69 71/114/71 61/98/61
f 61/99/61 71/115/71 70/113/70 60/97/60
f 62/100/62 72/116/72 63/101/63
f 64/102/64 72/116/72 62/100/62
f 63/101/63 72/116/72 65/103/65
f 66/106/66 72/116/72 64/102/64
f 65/108/65 72/117/72 67/109/67
f 68/118/68 72/116/72 66/106/66
f 67/109/67 72/117/72 69/112/69
f 70/119/70 72/116/72 68/118/68
f 69/112/69 72/117/72 71/114/71
f 71/120/71 72/116/72 70/119/70
