# Blender 4.3.0
# www.blender.org
mtllib l_pelvis.mtl
o l_pelvis
v -0.062448 -0.071901 -0.057002
v -0.062417 -0.062953 -0.055540
v -0.045919 -0.070017 -0.069408
v -0.057682 -0.053884 -0.064535
v -0.047413 -0.050859 -0.081192
v -0.084750 -0.081351 -0.070701
v -0.087329 -0.064967 -0.065912
v -0.080483 -0.072644 -0.062249
v -0.076977 -0.066999 -0.055770
v -0.094784 -0.078564 -0.080703
v -0.084509 -0.048300 -0.064622
v -0.077690 -0.044275 -0.065884
v -0.075725 -0.050801 -0.059263
v -0.070202 -0.044831 -0.065144
v -0.089862 -0.054217 -0.072831
v -0.091591 -0.050185 -0.089785
v -0.085142 -0.053865 -0.060240
v -0.078795 -0.058398 -0.056620
v -0.071624 -0.058301 -0.055727
v -0.067026 -0.053924 -0.056784
v -0.097661 -0.060940 -0.092403
v -0.048881 -0.048842 -0.096234
v -0.061698 -0.040081 -0.089113
v -0.061428 -0.046106 -0.069411
v -0.065351 -0.049490 -0.061383
v -0.088044 -0.048933 -0.100261
v -0.072428 -0.040380 -0.077771
v -0.018107 0.019491 -0.132935
v -0.028267 -0.009664 -0.112591
v -0.045061 0.043864 -0.123584
v -0.063048 -0.006570 -0.099770
v -0.008839 -0.013896 -0.121746
v -0.001073 0.011410 -0.128095
v -0.016222 0.038473 -0.132645
v -0.042118 0.051224 -0.132586
v -0.042675 0.072014 -0.119140
v -0.077514 0.027034 -0.079831
v -0.065829 0.083022 -0.103489
v -0.063704 0.089931 -0.100713
v -0.086810 0.093832 -0.076345
v -0.105118 0.082413 -0.073602
v -0.097580 0.072126 -0.071741
v -0.127064 0.049844 -0.068258
v -0.101925 -0.005538 -0.073290
v -0.132189 0.020569 -0.063785
v -0.140045 0.047838 -0.057869
v -0.142756 0.037853 -0.055989
v -0.135709 0.025433 -0.056811
v -0.140283 0.027057 -0.051667
v -0.121831 0.074797 -0.061410
v -0.134095 0.010597 -0.055875
v -0.120259 -0.006688 -0.063216
v -0.130339 -0.000991 -0.057141
v -0.036015 -0.018197 -0.095127
v -0.083712 0.011709 -0.060801
v -0.058937 -0.031863 -0.062129
v -0.045607 -0.037891 -0.078833
v -0.029562 -0.031117 -0.096830
v -0.095264 -0.012132 -0.070120
v -0.097172 0.024295 -0.055110
v -0.104359 0.010080 -0.050771
v -0.134140 0.009515 -0.055856
v -0.118896 0.021691 -0.059151
v -0.082516 0.044380 -0.066276
v -0.056939 0.031117 -0.098576
v -0.068605 0.091887 -0.085194
v -0.023835 -0.009300 -0.106864
v 0.000000 -0.000000 -0.118718
v -0.008366 0.022010 -0.122779
v -0.001184 0.011484 -0.127749
v -0.026130 0.046823 -0.120518
v -0.084245 0.065990 -0.059553
v -0.099933 0.080171 -0.058907
v -0.080521 0.089270 -0.070947
v -0.110783 0.041488 -0.052254
v -0.130442 0.036093 -0.043881
v -0.142567 0.036860 -0.050538
v -0.137764 0.052955 -0.051671
v -0.135777 0.025181 -0.056779
v -0.101184 0.087329 -0.067624
v -0.121330 0.055186 -0.048853
v -0.096303 -0.102807 -0.040325
v -0.106712 -0.111791 -0.036161
v -0.065047 -0.095889 -0.019016
v -0.025062 -0.079029 -0.002221
v -0.026301 -0.071631 -0.004815
v -0.046878 -0.072892 -0.002407
v -0.055663 -0.097839 0.000351
v -0.055379 -0.082850 -0.001799
v -0.055601 -0.064625 -0.037258
v -0.062757 -0.090507 -0.019243
v -0.092129 -0.120870 -0.035677
v -0.072771 -0.117347 -0.025230
v -0.119191 -0.101490 -0.069475
v -0.135738 -0.096931 -0.060259
v -0.131818 -0.075844 -0.069124
v -0.135611 -0.084397 -0.054166
v -0.098898 -0.090770 -0.050130
v -0.114308 -0.115077 -0.052030
v -0.111746 -0.086624 -0.072478
v -0.118362 -0.066696 -0.067764
v -0.126944 -0.070428 -0.061559
v -0.125353 -0.054405 -0.052960
v -0.110855 -0.059933 -0.067604
v -0.089373 -0.030293 -0.066890
v -0.102557 -0.079412 -0.071675
v -0.105344 -0.063815 -0.075543
v -0.080788 -0.075604 -0.049913
v -0.100969 -0.048285 -0.084058
v -0.062492 -0.055190 -0.052861
v -0.054641 -0.074427 -0.051754
v -0.052625 -0.067426 -0.044255
v -0.041877 -0.045942 -0.088833
v -0.059916 -0.027590 -0.099000
v -0.088158 -0.031197 -0.092581
v -0.071333 -0.042764 -0.104575
v -0.031563 -0.083550 -0.016874
v -0.043487 -0.047599 -0.064706
v -0.041830 -0.065559 -0.060295
v -0.021941 -0.075541 -0.023867
v -0.043358 -0.059739 -0.041738
v -0.054177 -0.102026 -0.005631
v -0.036276 -0.072749 -0.036449
v -0.052737 -0.076823 -0.059980
v -0.059231 -0.032040 -0.061986
vn -0.2953 0.1812 -0.9381
vn -0.3888 -0.0900 -0.9169
vn 0.2335 -0.7395 -0.6313
vn -0.6511 -0.4656 -0.5994
vn -0.8590 -0.4810 -0.1753
vn 0.5606 -0.6244 -0.5439
vn 0.8314 0.1212 -0.5423
vn 0.4690 0.4995 -0.7284
vn 0.3475 0.2969 -0.8894
vn 0.1169 -0.6274 -0.7699
vn 0.6113 -0.7284 -0.3094
vn 0.2824 -0.8646 -0.4155
vn 0.1204 -0.5667 -0.8151
vn -0.1494 -0.8405 -0.5208
vn 0.9524 -0.2460 -0.1803
vn 0.7504 -0.6589 -0.0532
vn 0.6619 -0.2341 -0.7121
vn 0.3759 -0.1146 -0.9196
vn 0.0603 -0.1865 -0.9806
vn -0.2228 -0.4590 -0.8600
vn -0.1378 -0.3946 -0.9084
vn 0.1105 -0.3870 -0.9154
vn -0.2322 -0.9713 0.0520
vn -0.4596 -0.7902 -0.4053
vn -0.3584 -0.6622 -0.6580
vn -0.2196 -0.5488 -0.8066
vn 0.1172 -0.9872 -0.1078
vn -0.1504 -0.2179 -0.9643
vn -0.3312 -0.8366 -0.4364
vn -0.7240 -0.2631 -0.6377
vn -0.4769 -0.0368 -0.8782
vn 0.3103 -0.9041 -0.2936
vn 0.1722 -0.2130 -0.9618
vn 0.6530 0.4580 -0.6032
vn -0.3886 0.0986 -0.9161
vn 0.4336 0.7927 -0.4285
vn -0.5657 0.0212 -0.8244
vn -0.5937 0.2348 -0.7697
vn 0.0894 0.8896 -0.4480
vn -0.2065 0.9784 -0.0092
vn -0.5653 0.3863 -0.7288
vn -0.3632 -0.2188 -0.9057
vn -0.4654 0.1121 -0.8780
vn -0.5631 -0.7256 -0.3955
vn -0.6193 -0.1776 -0.7648
vn -0.8718 0.2687 -0.4096
vn -0.9273 -0.0075 -0.3742
vn -0.8794 -0.3901 -0.2729
vn -0.9156 -0.4021 0.0068
vn -0.6834 0.7232 0.0994
vn -0.7638 -0.2567 -0.5922
vn -0.3081 -0.9383 -0.1571
vn -0.7506 -0.6329 0.1900
vn 0.6447 0.2625 0.7180
vn 0.4591 -0.0491 0.8870
vn 0.5712 0.2180 0.7913
vn 0.8669 0.2253 0.4448
vn 0.8933 -0.3981 -0.2087
vn -0.8814 -0.1306 0.4540
vn 0.2576 0.1082 0.9602
vn 0.1456 -0.2111 0.9665
vn -0.0589 0.0593 0.9965
vn -0.0114 -0.0442 0.9990
vn 0.6779 -0.0084 0.7351
vn 0.6509 0.1418 0.7458
vn 0.5762 0.7333 0.3611
vn 0.4594 -0.5684 0.6826
vn 0.9341 -0.1656 0.3163
vn 0.7249 0.4407 0.5295
vn 0.9302 0.3084 0.1990
vn 0.7278 0.3761 0.5734
vn 0.5929 0.0513 0.8037
vn 0.0459 0.5382 0.8415
vn 0.4336 0.5920 0.6793
vn 0.3135 -0.1172 0.9423
vn -0.0541 -0.1590 0.9858
vn -0.8591 -0.0005 0.5118
vn -0.6956 0.5054 0.5105
vn 0.0415 -0.4166 0.9082
vn -0.2909 0.7864 -0.5450
vn -0.3456 0.9086 0.2346
vn 0.0332 0.2927 0.9556
vn 0.5685 0.7937 -0.2162
vn -0.5478 -0.2109 0.8096
vn 0.1881 0.7883 -0.5858
vn 0.7032 -0.2524 0.6647
vn 0.5167 0.7064 0.4838
vn -0.2579 0.6542 0.7110
vn -0.1851 -0.2988 0.9362
vn -0.7298 0.2537 0.6348
vn -0.9038 0.2139 0.3706
vn -0.8466 -0.1148 -0.5197
vn 0.1723 -0.9771 -0.1245
vn 0.4120 -0.8962 -0.1644
vn 0.0445 -0.5699 -0.8205
vn -0.8891 -0.4374 -0.1351
vn -0.6848 0.3642 -0.6311
vn -0.7693 0.2902 0.5692
vn 0.7402 -0.2515 0.6235
vn -0.0979 -0.9624 -0.2534
vn 0.2581 -0.2516 -0.9328
vn -0.3520 0.4075 -0.8427
vn -0.7131 0.5975 0.3668
vn -0.8156 0.3333 0.4729
vn -0.6630 0.1894 -0.7243
vn 0.0074 0.2472 0.9689
vn -0.1590 -0.5923 -0.7898
vn -0.8420 -0.2044 -0.4992
vn 0.1301 -0.3936 0.9100
vn -0.8508 0.2013 -0.4855
vn -0.3584 0.3037 0.8828
vn -0.4570 -0.7146 0.5296
vn -0.8171 -0.5045 0.2789
vn 0.8742 -0.3008 -0.3812
vn -0.0094 -0.0621 -0.9980
vn -0.5984 0.3535 -0.7190
vn 0.0636 -0.4132 -0.9084
vn 0.4232 -0.8615 -0.2806
vn 0.8917 0.4025 0.2069
vn 0.9586 -0.2507 -0.1350
vn 0.9148 0.0277 -0.4029
vn 0.5018 0.7429 0.4431
vn 0.5302 -0.8391 0.1216
vn 0.8888 0.0132 -0.4581
vn 0.0353 -0.9577 -0.2858
vn 0.1410 0.5218 0.8414
vt 0.917106 0.626067
vt 0.898629 0.604847
vt 0.971859 0.585060
vt 0.907785 0.560234
vt 0.953053 0.513224
vt 0.056120 0.847605
vt 0.087626 0.894870
vt 0.052783 0.890496
vt 0.047817 0.921120
vt 0.096227 0.823744
vt 0.202003 0.803887
vt 0.221033 0.786702
vt 0.230550 0.815457
vt 0.239873 0.783965
vt 0.165701 0.801680
vt 0.133512 0.753771
vt 0.014067 0.944164
vt 0.000000 0.919575
vt 0.171907 0.840119
vt 0.202078 0.827174
vt 0.096227 0.935629
vt 0.068159 0.938239
vt 0.218817 0.841009
vt 0.238002 0.837423
vt 0.869412 0.599309
vt 0.873777 0.582044
vt 0.108131 0.841009
vt 0.100344 0.776167
vt 0.966928 0.626067
vt 0.966928 0.707246
vt 0.951936 0.665459
vt 0.355326 0.770772
vt 0.374356 0.725280
vt 0.374356 0.839417
vt 0.970585 0.481122
vt 0.913742 0.480982
vt 0.893098 0.533366
vt 0.252505 0.821641
vt 0.253115 0.799561
vt 0.877114 0.560363
vt 0.123227 0.723397
vt 0.219630 0.709970
vt 0.215436 0.745776
vt 0.871164 0.511226
vt 0.863707 0.544761
vt 0.047724 0.946743
vt 0.852227 0.575945
vt 0.136848 0.498453
vt 0.078364 0.389542
vt 0.255025 0.460910
vt 0.148980 0.299297
vt 0.030688 0.441247
vt 0.436205 0.886838
vt 0.436205 0.980732
vt 0.396160 0.963166
vt 0.981566 0.229381
vt 0.993212 0.329266
vt 0.954544 0.276985
vt 0.939943 0.145122
vt 0.267307 0.498453
vt 0.993212 0.081693
vt 0.279183 0.271967
vt 0.411452 0.429512
vt 0.990481 0.000000
vt 0.429455 0.436417
vt 0.335030 0.494198
vt 0.489426 0.340702
vt 0.486807 0.284501
vt 0.445866 0.279274
vt 0.429905 0.185540
vt 0.226782 0.165599
vt 0.355337 0.124078
vt 0.449818 0.133840
vt 0.426091 0.110259
vt 0.378442 0.107621
vt 0.392940 0.089099
vt 0.497270 0.213707
vt 0.333296 0.087391
vt 0.257552 0.106083
vt 0.293087 0.080986
vt 0.712721 0.072222
vt 0.628390 0.275962
vt 0.578124 0.116444
vt 0.622565 0.058324
vt 0.699548 0.025422
vt 0.348773 0.781208
vt 0.260955 0.647562
vt 0.348773 0.641504
vt 0.622041 0.339869
vt 0.573482 0.323070
vt 0.342274 0.560213
vt 0.261338 0.590010
vt 0.324130 0.523755
vt 0.299044 0.498453
vt 0.591571 0.847769
vt 0.591571 0.909964
vt 0.548838 0.882424
vt 0.345135 0.611350
vt 0.708387 0.349650
vt 0.790804 0.233657
vt 0.866617 0.421676
vt 0.774352 0.058500
vt 0.819861 0.002408
vt 0.853324 0.022347
vt 0.895268 0.089974
vt 0.895370 0.044474
vt 0.396160 0.972589
vt 0.369998 0.934112
vt 0.396160 0.886838
vt 0.915370 0.189608
vt 0.939943 0.137045
vt 0.939943 0.286878
vt 0.904812 0.391739
vt 0.734253 0.413599
vt 0.739488 0.480982
vt 0.812306 0.452996
vt 0.631220 0.412779
vt 0.652393 0.921080
vt 0.591571 0.886697
vt 0.652393 0.847769
vt 0.323008 0.911927
vt 0.330693 0.957303
vt 0.299326 0.957303
vt 0.870828 0.758150
vt 0.889475 0.717605
vt 0.892140 0.770788
vt 0.928469 0.730991
vt 0.573867 0.446891
vt 0.595673 0.372871
vt 0.870828 0.956290
vt 0.815801 0.950066
vt 0.870828 0.897460
vt 0.274747 0.970953
vt 0.261751 0.960623
vt 0.274747 0.911927
vt 0.771555 0.926178
vt 0.814889 0.897460
vt 0.814889 0.950881
vt 0.876798 0.926639
vt 0.886707 0.866364
vt 0.900125 0.941800
vt 0.928469 0.917060
vt 0.923163 0.985952
vt 0.896790 0.992008
vt 0.353988 0.979088
vt 0.330693 0.937194
vt 0.353988 0.911927
vt 0.825009 0.471648
vt 0.636387 0.471379
vt 0.926429 0.803125
vt 0.553958 0.961716
vt 0.618767 0.577759
vt 0.658285 0.553633
vt 0.620589 0.702412
vt 0.153299 0.929018
vt 0.130942 0.943237
vt 0.100344 0.898021
vt 0.157302 0.841009
vt 0.354096 0.921253
vt 0.369998 0.886838
vt 0.369998 0.949810
vt 0.497270 0.718670
vt 0.604921 0.713166
vt 0.658285 0.764075
vt 0.616490 0.777142
vt 0.583594 0.806072
vt 0.000000 0.657055
vt 0.014150 0.583905
vt 0.034678 0.702836
vt 0.353504 0.846742
vt 0.290744 0.858157
vt 0.284100 0.781208
vt 0.260955 0.832616
vt 0.100344 0.815708
vt 0.055083 0.823744
vt 0.576631 0.480982
vt 0.736198 0.840194
vt 0.770275 0.876766
vt 0.718345 0.950558
vt 0.003639 0.746688
vt 0.899690 0.626067
vt 0.920250 0.696392
vt 0.877098 0.693728
vt 0.920250 0.674210
vt 0.951936 0.686256
vt 0.951802 0.717065
vt 0.132256 0.004683
vt 0.086007 0.058834
vt 0.078274 0.035966
vt 0.483199 0.725280
vt 0.388389 0.585806
vt 0.497270 0.662157
vt 0.852227 0.696392
vt 0.869255 0.626744
vt 0.014313 0.056396
vt 0.062109 0.082650
vt 0.658285 0.845924
vt 0.718345 0.840194
vt 0.718345 1.000000
vt 0.000000 0.093650
vt 0.050012 0.141554
vt 0.096043 0.133149
vt 0.497270 0.498453
vt 0.497270 0.956395
vt 0.436205 0.914117
vt 0.497270 0.886838
vt 0.800872 0.618268
vt 0.771555 0.578615
vt 0.830531 0.600198
vt 0.274747 0.960445
vt 0.283231 0.911927
vt 0.299326 0.960445
vt 0.006376 0.256021
vt 0.083399 0.273527
vt 0.025867 0.318786
vt 0.075143 0.384295
vt 0.121051 0.201283
vt 0.180011 0.995171
vt 0.157301 0.885386
vt 0.210601 0.911385
vt 0.198586 0.160806
vt 0.065695 0.195078
vt 0.054868 0.244761
vt 0.443333 0.886838
vt 0.476475 0.859324
vt 0.489328 0.885719
vt 0.770275 0.976352
vt 0.548838 0.970048
vt 0.497270 0.906167
vt 0.548838 0.847769
vt 0.771555 0.480982
vt 0.696054 0.547438
vt 0.658285 0.509330
vt 0.634283 0.020958
vt 0.573814 0.043761
vt 0.529879 0.000000
vt 0.100344 0.498453
vt 0.161529 0.565512
vt 0.130755 0.589344
vt 0.981235 0.471158
vt 0.939943 0.448780
vt 0.981235 0.329266
vt 0.558469 0.847769
vt 0.077384 0.501511
vt 0.497270 0.769338
vt 0.407617 0.814290
vt 0.438034 0.725280
vt 0.374356 0.778014
vt 0.933456 0.806030
vt 0.963218 0.717605
vt 0.986645 0.794222
vt 0.928469 0.879420
vt 0.702216 0.623218
vt 0.661315 0.577862
vt 0.721399 0.706290
vt 0.771555 0.690942
vt 0.821159 0.717605
vt 0.779033 0.619718
vt 0.852227 0.593844
vt 0.157302 0.992372
vt 0.494029 0.824484
vt 0.377003 0.886838
vt 0.781237 0.766823
vt 0.870828 0.717605
vt 0.838079 0.778871
vt 0.834290 0.797005
vt 0.986645 0.922430
vt 0.771555 0.868154
vt 0.997742 0.329266
vt 0.997742 0.435086
vt 0.981235 0.422752
vt 0.260955 0.610599
vt 0.112670 0.686617
vt 0.182410 0.626780
vt 0.497270 0.035808
vt 0.248417 0.904220
vt 0.253391 0.964161
vt 0.210601 0.933323
vt 0.253391 0.841009
vt 0.577031 0.116731
vt 0.356133 0.594074
vt 0.388389 0.498453
vt 0.388389 0.637544
vt 0.253280 0.686617
vt 0.353988 0.795385
vt 0.951936 0.626067
vt 0.210601 0.841009
vt 0.350760 0.679837
vt 0.388389 0.719768
vt 0.162880 0.686617
vt 0.157637 0.967762
vt 0.735014 0.840194
vt 0.705306 0.820895
vt 0.748356 0.727467
vt 0.953131 0.626067
vt 0.852227 0.480982
vt 0.806439 0.523510
vt 0.084138 0.000000
vt 0.990187 0.586985
vt 0.996594 0.650024
vt 0.971859 0.599915
vt 0.996594 0.480982
vt 0.873061 0.724622
vt 0.425559 0.096011
s 1
usemtl Material_with_Texture.157
f 1/1/1 2/2/2 3/3/3
f 3/3/3 4/4/4 5/5/5
f 6/6/6 7/7/7 8/8/8
f 8/8/8 7/7/7 9/9/9
f 10/10/10 7/7/7 6/6/6
f 11/11/11 12/12/12 13/13/13
f 14/14/14 13/13/13 12/12/12
f 11/11/11 15/15/15 12/12/12
f 16/16/16 12/12/12 15/15/15
f 9/9/9 2/17/2 1/18/1
f 7/19/7 15/15/15 17/20/17
f 7/7/7 17/21/17 18/22/18
f 9/9/9 7/7/7 18/22/18
f 18/23/18 13/13/13 19/24/19
f 2/2/2 19/25/19 20/26/20
f 10/27/10 21/28/21 7/19/7
f 7/29/7 16/30/16 15/31/15
f 21/28/21 16/16/16 7/19/7
f 5/32/5 22/33/22 3/34/3
f 22/35/22 5/5/5 23/36/23
f 5/5/5 4/4/4 24/37/24
f 23/36/23 5/5/5 24/37/24
f 20/38/20 13/13/13 25/39/25
f 4/4/4 20/26/20 25/40/25
f 26/41/26 23/42/23 27/43/27
f 23/36/23 24/37/24 27/44/27
f 4/4/4 2/2/2 20/26/20
f 24/37/24 4/4/4 25/40/25
f 24/37/24 25/40/25 14/45/14
f 27/44/27 24/37/24 14/45/14
f 2/17/2 9/9/9 19/46/19
f 9/9/9 18/22/18 19/46/19
f 11/11/11 13/13/13 17/20/17
f 17/20/17 13/13/13 18/23/18
f 27/43/27 12/12/12 16/16/16
f 16/16/16 26/41/26 27/43/27
f 21/28/21 26/41/26 16/16/16
f 19/24/19 13/13/13 20/38/20
f 25/40/25 13/47/13 14/45/14
f 17/20/17 15/15/15 11/11/11
f 28/48/28 29/49/29 30/50/30
f 30/50/30 29/49/29 31/51/31
f 29/49/29 28/48/28 32/52/32
f 32/53/32 28/54/28 33/55/33
f 34/56/34 33/57/33 28/58/28
f 34/56/34 28/58/28 35/59/35
f 28/48/28 30/50/30 35/60/35
f 36/61/36 34/56/34 35/59/35
f 30/50/30 37/62/37 38/63/38
f 30/50/30 38/63/38 35/60/35
f 36/61/36 35/59/35 38/64/38
f 39/65/39 36/66/36 38/63/38
f 40/67/40 38/63/38 41/68/41
f 38/63/38 42/69/42 41/68/41
f 39/65/39 38/63/38 40/67/40
f 37/62/37 43/70/43 42/69/42
f 37/62/37 42/69/42 38/63/38
f 37/62/37 30/50/30 31/51/31
f 37/62/37 31/51/31 44/71/44
f 43/70/43 37/62/37 44/71/44
f 43/70/43 45/72/45 46/73/46
f 47/74/47 45/72/45 48/75/48
f 47/74/47 48/75/48 49/76/49
f 46/73/46 45/72/45 47/74/47
f 41/68/41 43/70/43 50/77/50
f 42/69/42 43/70/43 41/68/41
f 43/70/43 46/73/46 50/77/50
f 48/75/48 45/72/45 51/78/51
f 45/72/45 52/79/52 51/78/51
f 51/78/51 52/79/52 53/80/53
f 43/70/43 44/71/44 52/79/52
f 52/79/52 45/72/45 43/70/43
f 54/81/54 55/82/55 56/83/56
f 57/84/57 58/85/58 54/81/54
f 56/83/56 57/84/57 54/81/54
f 56/86/56 55/87/55 59/88/59
f 55/82/55 60/89/60 61/90/61
f 52/91/52 55/87/55 61/92/61
f 53/93/53 52/91/52 61/92/61
f 53/93/53 61/92/61 62/94/62
f 60/95/60 63/96/63 61/97/61
f 59/88/59 55/87/55 44/98/44
f 44/98/44 55/87/55 52/91/52
f 64/99/64 65/100/65 66/101/66
f 64/99/64 55/82/55 65/100/65
f 67/102/67 54/81/54 58/85/58
f 67/102/67 32/103/32 68/104/68
f 69/105/69 68/104/68 70/106/70
f 70/107/70 68/108/68 32/109/32
f 54/81/54 65/100/65 55/82/55
f 67/102/67 65/100/65 54/81/54
f 68/104/68 65/100/65 67/102/67
f 71/110/71 65/100/65 69/105/69
f 66/101/66 65/100/65 71/110/71
f 34/111/34 69/105/69 70/106/70
f 71/110/71 69/105/69 34/111/34
f 71/110/71 34/111/34 36/112/36
f 66/101/66 71/110/71 36/112/36
f 39/113/39 66/101/66 36/112/36
f 66/101/66 72/114/72 64/99/64
f 73/115/73 72/114/72 74/116/74
f 64/99/64 72/114/72 75/117/75
f 64/99/64 75/117/75 60/89/60
f 75/118/75 63/119/63 60/120/60
f 76/121/76 77/122/77 49/123/49
f 46/124/46 77/125/77 78/126/78
f 76/127/76 78/126/78 77/125/77
f 76/128/76 63/129/63 75/117/75
f 79/130/79 63/131/63 76/132/76
f 79/133/80 49/134/80 76/135/80
f 79/136/79 62/137/62 63/138/63
f 41/139/41 50/140/50 80/141/81
f 50/140/50 73/142/73 80/141/81
f 80/141/81 74/143/74 40/144/40
f 41/139/41 80/141/81 40/144/40
f 40/145/40 66/146/66 39/147/39
f 66/101/66 40/148/40 74/116/74
f 50/140/50 46/124/46 78/126/78
f 81/149/82 72/114/72 73/115/73
f 72/114/72 81/149/82 75/117/75
f 50/140/50 78/126/78 81/150/82
f 81/150/82 78/126/78 76/127/76
f 61/97/61 63/96/63 62/151/62
f 75/117/75 81/149/82 76/128/76
f 55/82/55 64/99/64 60/89/60
f 74/116/74 72/114/72 66/101/66
f 73/142/73 74/143/74 80/141/81
f 65/100/65 68/104/68 69/105/69
f 82/152/83 83/153/84 84/154/85
f 85/155/86 86/156/87 87/157/88
f 85/155/86 87/157/88 88/158/89
f 89/159/90 88/160/89 87/161/88
f 90/162/91 91/163/92 88/164/89
f 90/162/91 88/164/89 89/165/90
f 89/165/90 87/166/88 90/162/91
f 92/167/93 93/168/94 83/169/84
f 94/170/95 95/171/96 96/172/97
f 96/172/97 95/171/96 97/173/98
f 97/174/98 95/175/96 83/169/84
f 82/152/83 97/176/98 83/153/84
f 82/177/83 98/178/99 97/179/98
f 99/180/100 83/169/84 95/175/96
f 94/170/95 99/147/100 95/171/96
f 100/181/101 96/182/97 101/183/102
f 96/184/97 102/185/103 101/186/102
f 103/187/104 104/188/105 101/189/102
f 59/190/59 103/191/104 105/192/106
f 104/193/105 100/181/101 101/183/102
f 106/194/107 100/181/101 104/193/105
f 106/195/107 104/188/105 107/196/108
f 103/197/104 102/198/103 108/199/109
f 10/200/10 107/196/108 21/201/21
f 21/201/21 107/196/108 109/202/110
f 103/191/104 108/203/109 105/192/106
f 110/204/111 108/205/109 111/206/112
f 112/207/113 110/208/111 111/209/112
f 90/210/91 110/211/111 112/212/113
f 113/213/114 114/214/115 58/215/58
f 58/215/58 114/214/115 67/216/67
f 67/216/67 114/214/115 31/51/31
f 31/51/31 114/214/115 115/217/116
f 113/218/114 116/219/117 114/220/115
f 59/221/59 31/51/31 115/217/116
f 59/221/59 44/71/44 31/51/31
f 26/222/26 21/201/21 109/202/110
f 26/222/26 109/202/110 115/217/116
f 116/223/117 26/222/26 115/217/116
f 59/221/59 115/217/116 109/202/110
f 104/188/105 59/221/59 109/202/110
f 6/224/6 106/225/107 10/226/10
f 102/227/103 97/179/98 98/178/99
f 102/228/103 98/229/99 108/230/109
f 88/231/89 117/232/118 85/233/86
f 113/234/114 118/235/119 119/236/120
f 120/237/121 121/238/122 90/239/91
f 86/240/87 120/241/121 90/242/91
f 87/166/88 86/243/87 90/162/91
f 88/237/89 93/168/94 122/244/123
f 93/168/94 88/237/89 83/169/84
f 94/245/95 98/246/99 99/247/100
f 99/247/100 98/246/99 82/248/83
f 92/249/93 99/250/100 82/251/83
f 82/251/83 93/252/94 92/249/93
f 117/232/118 123/253/124 120/254/121
f 119/255/120 123/253/124 117/232/118
f 117/232/118 124/256/125 119/255/120
f 112/207/113 117/257/118 90/258/91
f 111/209/112 117/257/118 112/207/113
f 124/259/125 117/257/118 111/209/112
f 85/233/86 117/232/118 120/254/121
f 86/156/87 85/155/86 120/260/121
f 100/261/101 98/246/99 94/245/95
f 6/224/6 108/262/109 98/246/99
f 106/225/107 6/224/6 98/246/99
f 106/225/107 98/246/99 100/261/101
f 122/263/123 93/264/94 84/265/85
f 122/263/123 84/265/85 91/266/92
f 93/252/94 82/251/83 84/267/85
f 117/268/118 122/263/123 91/266/92
f 117/269/118 88/270/89 122/271/123
f 125/272/126 108/273/109 110/274/111
f 119/236/120 118/235/119 121/275/122
f 123/276/124 119/277/120 121/278/122
f 120/279/121 123/276/124 121/278/122
f 57/84/57 118/235/119 113/234/114
f 125/280/126 118/235/119 57/84/57
f 90/239/91 121/238/122 110/274/111
f 58/85/58 57/84/57 113/234/114
f 105/281/106 125/282/126 59/283/59
f 105/284/106 108/273/109 125/272/126
f 121/238/122 125/272/126 110/274/111
f 121/275/122 118/235/119 125/280/126
f 117/268/118 91/266/92 90/132/91
f 92/167/93 83/169/84 99/180/100
f 84/154/85 83/153/84 88/164/89
f 100/285/101 94/170/95 96/172/97
f 103/187/104 59/221/59 104/188/105
f 97/286/98 102/185/103 96/184/97
f 10/200/10 106/195/107 107/196/108
f 116/219/117 115/287/116 114/220/115
f 12/12/12 27/43/27 14/14/14
f 2/2/2 4/4/4 3/3/3
f 6/6/6 8/8/8 1/18/1
f 9/9/9 1/18/1 8/8/8
f 23/288/23 116/283/117 22/289/22
f 116/290/117 23/42/23 26/41/26
f 22/291/22 116/219/117 113/218/114
f 22/292/22 113/293/114 3/294/3
f 119/255/120 3/294/3 113/293/114
f 3/3/3 124/295/125 1/1/1
f 119/255/120 124/256/125 3/294/3
f 6/296/6 124/259/125 108/297/109
f 108/297/109 124/259/125 111/209/112
f 101/189/102 102/298/103 103/187/104
f 104/188/105 109/202/110 107/196/108
f 29/299/29 32/300/32 67/301/67
f 29/299/29 67/301/67 31/302/31
f 81/150/82 73/142/73 50/140/50
f 84/154/85 88/164/89 91/163/92
f 47/303/47 77/125/77 46/124/46
f 49/76/49 77/304/77 47/74/47
