# Blender v3.5.0 OBJ File: ''
# www.blender.org
mtllib l_talus.mtl
o l_talus
v -0.017534 -0.005773 0.001672
v -0.014889 -0.004263 0.007677
v -0.015336 -0.001709 0.005020
v -0.015134 -0.009392 0.006469
v -0.016145 -0.011160 0.000750
v -0.016894 -0.008737 -0.003632
v -0.017213 -0.004306 -0.005621
v -0.016408 -0.000916 -0.001140
v -0.008588 0.000363 0.016332
v -0.009812 0.008402 0.009034
v -0.008109 -0.002378 0.019176
v -0.008156 -0.010315 0.019210
v -0.009509 -0.013840 0.011591
v -0.011753 -0.011069 -0.001350
v -0.012790 -0.004464 -0.007535
v -0.013200 0.000903 -0.010083
v -0.011834 0.006489 -0.002472
v -0.001819 0.005958 0.018558
v -0.002403 0.009072 0.015098
v -0.001849 0.000709 0.018580
v -0.001458 -0.007908 0.021141
v -0.002952 -0.009810 0.012653
v -0.003984 -0.009892 0.006743
v -0.005343 -0.006355 -0.001153
v -0.006902 -0.002759 -0.010219
v -0.007451 -0.000894 -0.013429
v -0.007312 0.002795 -0.012766
v -0.006053 0.006568 -0.005703
v -0.004040 0.008542 0.005741
v 0.004224 0.010541 0.016663
v 0.004404 0.008107 0.017781
v 0.004365 0.001357 0.017810
v 0.004701 -0.003949 0.019925
v 0.004377 -0.007954 0.018219
v 0.002490 -0.006676 0.007377
v 0.001319 -0.004636 0.000596
v 0.000020 -0.008159 -0.006716
v -0.001083 -0.009117 -0.012991
v -0.001320 -0.007122 -0.014416
v -0.000879 -0.001614 -0.012100
v -0.001113 0.006381 -0.013734
v -0.000964 0.011758 -0.013080
v -0.000284 0.012208 -0.009203
v 0.001097 0.009358 -0.001186
v 0.002786 0.009264 0.008480
v 0.011067 0.008327 0.019597
v 0.010816 0.013197 0.017977
v 0.010820 0.001011 0.018459
v 0.009790 -0.000758 0.012617
v 0.008875 -0.006587 0.007593
v 0.008122 -0.008226 0.003352
v 0.006425 -0.009819 -0.006307
v 0.004808 -0.016224 -0.015331
v 0.004027 -0.013425 -0.019898
v 0.003969 -0.008552 -0.020410
v 0.004587 -0.002166 -0.017112
v 0.004393 0.005266 -0.018499
v 0.004559 0.013894 -0.017860
v 0.006297 0.013113 -0.007881
v 0.007844 0.010954 0.001054
v 0.009372 0.012608 0.009729
v 0.016815 0.009905 0.016115
v 0.017353 0.006290 0.019331
v 0.017451 -0.000895 0.020162
v 0.016136 -0.007106 0.012861
v 0.015590 -0.010241 0.009858
v 0.014124 -0.007268 0.001350
v 0.012082 -0.006681 -0.010352
v 0.011014 -0.007763 -0.016441
v 0.011147 -0.005011 -0.015775
v 0.011431 -0.002194 -0.014249
v 0.011223 0.000865 -0.015554
v 0.010979 0.007109 -0.017182
v 0.011171 0.012550 -0.016281
v 0.011494 0.012555 -0.014434
v 0.013560 0.010656 -0.002543
v 0.022744 0.006111 0.013885
v 0.023483 -0.002124 0.018414
v 0.023415 -0.006313 0.018186
v 0.022780 -0.008386 0.014624
v 0.022242 -0.008646 0.011547
v 0.021713 -0.010781 0.008600
v 0.020847 -0.009610 0.003608
v 0.018541 -0.006527 -0.009704
v 0.018140 -0.007222 -0.011979
v 0.017952 -0.004539 -0.013159
v 0.018189 -0.002472 -0.011876
v 0.018252 0.003153 -0.011715
v 0.018275 0.006965 -0.011730
v 0.018882 0.007665 -0.008285
v 0.020859 0.007388 0.003044
v 0.022406 0.007167 0.011911
v 0.028566 0.003878 0.010972
v 0.027208 -0.004271 0.003496
v 0.024665 -0.001069 -0.011172
v 0.025728 0.002451 -0.005214
v 0.026307 0.005710 -0.002026
v 0.028607 -0.002347 0.002356
v 0.027173 -0.000936 -0.005899
vt 0.335493 0.762163
vt 0.286095 0.810373
vt 0.274017 0.779773
vt 0.340193 0.809004
vt 0.000000 0.487855
vt 0.047231 0.476160
vt 0.027092 0.541407
vt 0.380054 0.710730
vt 0.383025 0.757629
vt 0.347153 0.682805
vt 0.294604 0.719063
vt 0.179676 0.864956
vt 0.136816 0.778878
vt 0.192670 0.897722
vt 0.947104 0.037417
vt 0.976335 0.011979
vt 0.976335 0.186101
vt 0.494073 0.974616
vt 0.441559 0.858449
vt 0.494073 0.802471
vt 0.087026 0.612228
vt 0.053372 0.701151
vt 0.093160 0.476191
vt 0.040672 0.432646
vt 0.916089 0.942930
vt 0.913015 0.883161
vt 0.984210 0.935958
vt 0.881065 0.903174
vt 0.869779 0.835282
vt 0.207410 0.672236
vt 0.295036 0.610309
vt 0.878805 0.423507
vt 0.814117 0.337264
vt 0.858829 0.339919
vt 0.768671 0.419804
vt 0.757572 0.344059
vt 0.729967 0.417857
vt 0.644465 0.428149
vt 0.656567 0.350322
vt 0.093160 0.756581
vt 0.869779 0.642245
vt 0.941708 0.633576
vt 0.977687 0.720738
vt 0.929431 0.573080
vt 0.873216 0.510249
vt 0.405230 0.802471
vt 0.441559 0.881846
vt 0.383025 0.916291
vt 0.595553 0.802471
vt 0.595553 0.948668
vt 0.549115 0.866657
vt 0.944780 0.837819
vt 0.916039 0.825855
vt 0.258520 0.555078
vt 0.296484 0.556064
vt 0.190564 0.615357
vt 0.092438 0.432646
vt 0.070097 0.314973
vt 0.159276 0.409704
vt 0.002953 0.337223
vt 0.000000 0.234650
vt 0.862025 0.264035
vt 0.832216 0.265032
vt 0.759499 0.273774
vt 0.695560 0.276573
vt 0.979932 0.243988
vt 0.970302 0.297957
vt 0.922782 0.291089
vt 0.595553 0.882157
vt 0.654278 0.802471
vt 0.654278 0.903419
vt 0.992149 0.559914
vt 1.000000 0.670663
vt 1.000000 0.490837
vt 0.441559 0.961237
vt 0.635074 0.327268
vt 0.559390 0.363947
vt 0.588700 0.276992
vt 0.644465 0.419398
vt 0.546111 0.434510
vt 0.555809 0.446181
vt 0.299509 0.590596
vt 0.266413 0.544554
vt 0.329153 0.533304
vt 0.984210 0.796401
vt 0.932547 0.720738
vt 0.900555 0.788098
vt 0.198133 0.512933
vt 0.144217 0.508493
vt 0.122274 0.544815
vt 0.112713 0.627460
vt 0.162128 0.326303
vt 0.091406 0.241605
vt 0.027986 0.173514
vt 0.821161 0.190286
vt 0.878805 0.187079
vt 0.746136 0.202036
vt 0.644465 0.076800
vt 0.567460 0.110046
vt 0.584883 0.042636
vt 0.878805 0.323414
vt 0.979932 0.428149
vt 0.899750 0.394091
vt 0.591497 0.090656
vt 0.585400 0.206800
vt 0.527752 0.176505
vt 0.513094 0.226153
vt 0.491960 0.334995
vt 0.443979 0.446362
vt 0.454399 0.490837
vt 0.341547 0.550956
vt 0.383025 0.467535
vt 0.339201 0.452907
vt 0.263666 0.471835
vt 0.199591 0.443705
vt 0.114955 0.432646
vt 0.213557 0.403910
vt 0.244801 0.343396
vt 0.316035 0.432646
vt 0.184834 0.259599
vt 0.947104 0.077069
vt 0.878805 0.097158
vt 0.881525 0.000000
vt 0.947104 0.167729
vt 0.885113 0.186101
vt 0.841877 0.124033
vt 0.792566 0.122506
vt 0.712572 0.130262
vt 0.517631 0.000000
vt 0.472903 0.092130
vt 0.451186 0.131173
vt 0.457696 0.218426
vt 0.104627 0.846563
vt 0.024526 0.856920
vt 0.091801 0.756581
vt 0.104627 0.971683
vt 0.000000 0.918788
vt 0.501235 0.490837
vt 0.543635 0.507531
vt 0.500529 0.606184
vt 0.512259 0.634225
vt 0.574215 0.553381
vt 0.519357 0.664834
vt 0.591224 0.622421
vt 0.544266 0.691400
vt 0.641380 0.690984
vt 0.589095 0.747958
vt 0.686556 0.775642
vt 0.614687 0.802471
vt 0.337698 0.347776
vt 0.351271 0.363901
vt 0.255354 0.238840
vt 0.120318 0.073846
vt 0.116828 0.188199
vt 0.054722 0.117718
vt 0.106144 0.036140
vt 0.189911 0.031873
vt 0.697471 0.064310
vt 0.800744 0.062383
vt 0.653142 0.070222
vt 0.425663 0.004550
vt 0.409335 0.047611
vt 0.404014 0.081793
vt 0.388102 0.118250
vt 0.388649 0.170584
vt 0.446567 0.345343
vt 0.389846 0.310201
vt 0.383025 0.336463
vt 0.432777 0.414100
vt 0.422604 0.657685
vt 0.444652 0.680909
vt 0.448911 0.703738
vt 0.479853 0.758351
vt 0.501525 0.795093
vt 0.375765 0.257910
vt 0.348646 0.229672
vt 0.266182 0.129969
vt 0.201647 0.051926
vt 0.778616 0.000000
vt 0.789587 0.814091
vt 0.746264 0.809041
vt 0.869779 0.722420
vt 0.775343 0.640054
vt 0.719842 0.770963
vt 0.712729 0.739056
vt 0.686555 0.707284
vt 0.691345 0.656557
vt 0.786982 0.490837
vt 0.703728 0.521246
vt 0.693310 0.497331
vt 0.397695 0.755086
vt 0.730533 0.814091
vt 0.730533 0.912313
vt 0.686556 0.860437
vt 0.383025 0.802471
vt 0.383025 0.137612
vt 0.549115 0.937808
vt 0.494073 0.845771
vt 0.531604 0.836617
vt 0.351110 0.118422
vt 0.260457 0.000000
vt 0.800778 0.624842
vt 0.803314 0.540613
vt 0.703280 0.923255
vt 0.549115 0.802471
vt 0.869779 0.589540
vn -0.9137 0.2051 0.3509
vn -0.9087 -0.0541 0.4139
vn -0.9261 -0.2817 0.2508
vn -0.9670 -0.2536 0.0250
vn -0.9929 -0.1001 -0.0638
vn -0.9738 0.2274 0.0029
vn -0.9215 0.3312 0.2030
vn -0.8457 0.2823 0.4528
vn -0.8395 0.3142 0.4433
vn -0.8396 0.3136 0.4436
vn -0.8527 -0.0808 0.5160
vn -0.8768 0.0073 0.4807
vn -0.7612 -0.5265 0.3787
vn -0.7479 -0.5853 0.3131
vn -0.0737 -0.9777 -0.1966
vn -0.1964 -0.8719 -0.4485
vn 0.0150 -0.6822 -0.7310
vn -0.3757 -0.4019 -0.8351
vn -0.3729 -0.4210 -0.8269
vn -0.8518 0.4833 -0.2019
vn -0.8477 0.4850 -0.2146
vn -0.8444 0.5324 0.0599
vn -0.8908 0.4045 0.2071
vn -0.5496 0.5727 0.6082
vn -0.6063 0.4819 0.6325
vn -0.3167 0.0058 0.9485
vn -0.2653 0.6715 0.6919
vn 0.0930 0.0037 0.9957
vn -0.3506 0.2521 0.9019
vn 0.2145 -0.9004 0.3785
vn 0.5088 -0.8548 0.1020
vn 0.5314 -0.8432 -0.0811
vn 0.4017 -0.8787 -0.2578
vn 0.5463 -0.7253 -0.4189
vn 0.5539 -0.7369 -0.3875
vn -0.1262 -0.6885 -0.7141
vn 0.0198 -0.8630 -0.5048
vn -0.5512 -0.3918 -0.7366
vn -0.4541 0.1741 -0.8738
vn -0.4312 0.8255 -0.3641
vn -0.3055 0.7930 -0.5272
vn -0.0986 0.9834 -0.1523
vn -0.1065 0.9837 -0.1448
vn -0.0513 0.9976 -0.0475
vn -0.3079 0.6808 0.6647
vn -0.0299 0.4154 0.9092
vn 0.1227 0.0035 0.9924
vn 0.1226 0.0036 0.9924
vn 0.0756 0.3733 0.9246
vn 0.0060 0.2851 0.9585
vn 0.4108 -0.3852 0.8264
vn 0.0935 -0.9749 0.2020
vn 0.3619 -0.9164 -0.1710
vn 0.4491 -0.8910 -0.0661
vn 0.4459 -0.8330 -0.3276
vn 0.3301 -0.8390 -0.4326
vn 0.1245 -0.9023 0.4126
vn -0.5207 -0.8205 -0.2359
vn -0.6677 -0.7094 0.2257
vn -0.7341 -0.4503 -0.5083
vn -0.3411 0.3874 -0.8565
vn 0.0071 -0.8641 -0.5033
vn 0.1742 -0.1923 -0.9657
vn -0.2528 0.1804 -0.9506
vn -0.5106 0.7929 -0.3325
vn -0.8476 0.0871 -0.5234
vn -0.6872 0.7255 0.0363
vn -0.5290 0.7668 0.3637
vn -0.2998 0.9476 -0.1107
vn -0.1171 0.9927 0.0301
vn -0.0889 0.9952 -0.0408
vn -0.1880 0.9749 -0.1191
vn -0.2973 0.2875 0.9104
vn -0.2543 0.3881 0.8859
vn -0.2561 -0.1401 0.9565
vn -0.0998 0.0049 0.9950
vn -0.0813 -0.9499 0.3020
vn 0.3901 -0.6355 0.6663
vn 0.9436 0.1724 0.2825
vn 0.9074 -0.2247 0.3552
vn 0.0179 -0.9926 -0.1201
vn 0.0008 -0.9328 0.3604
vn -0.3917 -0.8976 -0.2024
vn -0.5250 -0.8202 0.2275
vn -0.2505 -0.8540 0.4560
vn -0.2376 -0.7715 0.5902
vn -0.7119 -0.6647 0.2266
vn -0.7854 -0.5785 -0.2202
vn -0.8414 -0.3767 -0.3875
vn -0.7567 -0.0772 -0.6492
vn -0.6659 0.3339 -0.6672
vn -0.5920 0.4143 -0.6913
vn -0.6755 -0.1666 -0.7183
vn -0.6642 -0.1539 -0.7315
vn -0.6375 0.1104 -0.7625
vn -0.6678 0.0677 -0.7413
vn -0.3893 0.9203 -0.0385
vn -0.1560 0.9823 0.1040
vn -0.1975 0.9124 0.3584
vn -0.3064 0.9118 0.2734
vn -0.2463 0.9678 0.0525
vn -0.4366 0.8948 -0.0937
vn -0.4425 0.8946 -0.0618
vn -0.3736 0.9276 -0.0008
vn 0.4309 0.3048 0.8494
vn 0.2452 0.6645 0.7059
vn -0.0079 -0.1534 0.9881
vn -0.2177 0.1092 0.9699
vn -0.3377 -0.8827 0.3268
vn -0.6318 -0.4468 0.6334
vn -0.4899 -0.6185 0.6144
vn -0.3447 -0.8534 0.3910
vn -0.6498 -0.4637 0.6023
vn 0.0383 -0.9413 -0.3355
vn 0.1971 -0.9723 0.1257
vn 0.4160 -0.9017 -0.1178
vn 0.6378 -0.6774 0.3665
vn 0.8036 -0.5941 -0.0354
vn 0.6850 -0.5631 -0.4622
vn 0.2901 0.2118 -0.9333
vn 0.5681 -0.0793 -0.8192
vn 0.3354 0.4224 -0.8421
vn 0.3548 0.4017 -0.8443
vn 0.3610 -0.3451 -0.8664
vn 0.2973 -0.1677 -0.9400
vn 0.2534 -0.2348 -0.9384
vn 0.1769 0.0693 -0.9818
vn 0.2582 0.1490 -0.9545
vn 0.2080 0.9774 -0.0390
vn 0.1664 0.9849 0.0481
vn 0.2440 0.9634 0.1115
vn 0.1774 0.9632 0.2020
vn 0.0696 0.9972 0.0280
vn 0.5109 0.8234 -0.2470
vn 0.4424 0.8857 -0.1407
vn 0.5856 0.5857 0.5604
vn 0.6554 0.4083 0.6354
vn 0.2978 0.1137 0.9478
vn 0.2672 -0.0567 0.9620
vn -0.3928 -0.6643 0.6359
vn -0.2925 -0.8029 0.5194
vn -0.2184 -0.9684 0.1200
vn -0.0183 -0.6900 0.7236
vn 0.0476 -0.8129 0.5804
vn -0.1278 -0.9703 -0.2054
vn -0.2282 -0.9307 -0.2859
vn -0.3321 -0.9432 0.0106
vn 0.0465 -0.9714 -0.2330
vn -0.0066 -0.9560 0.2932
vn -0.0390 -0.9826 0.1815
vn 0.5124 0.1785 -0.8400
vn 0.3568 -0.3550 -0.8641
vn 0.2975 0.4314 -0.8517
vn 0.3088 0.4758 -0.8236
vn 0.2963 -0.3577 -0.8856
vn 0.4742 0.0199 -0.8802
vn 0.5185 -0.1967 -0.8321
vn 0.5985 -0.0068 -0.8011
vn 0.5963 0.1106 -0.7951
vn 0.6591 0.7428 -0.1173
vn 0.6738 0.6919 -0.2593
vn 0.5254 0.8497 0.0444
vn 0.4431 0.8948 -0.0554
vn 0.4333 0.9004 -0.0393
vn 0.4095 0.9110 -0.0487
vn 0.5916 0.7487 0.2992
vn 0.5313 0.4444 0.7213
vn 0.8408 -0.0430 0.5396
vn 0.9239 -0.3306 0.1926
vn 0.8461 -0.5122 0.1473
vn 0.6209 -0.7828 -0.0424
vn 0.8247 -0.5180 0.2272
vn 0.6143 -0.7378 -0.2796
vn 0.6165 -0.7402 -0.2685
vn 0.6012 -0.7493 -0.2777
vn 0.6755 -0.7300 0.1039
vn 0.4240 -0.3395 -0.8396
vn -0.0224 0.5291 -0.8483
vn -0.1342 0.8635 -0.4862
vn 0.6569 0.0142 -0.7539
vn 0.6558 -0.0069 -0.7549
vn 0.6561 0.7086 -0.2596
vn 0.6361 0.4788 -0.6050
vn 0.2736 0.9615 -0.0242
vn 0.2739 0.9614 -0.0238
vn 0.4755 0.8788 0.0412
vn 0.4823 0.8041 0.3476
vn 0.8467 -0.4294 0.3143
vn 0.6978 -0.6651 -0.2662
vn 0.5300 -0.8158 -0.2315
vn 0.8124 0.4269 -0.3972
vn 0.7165 0.4186 -0.5580
vn 0.9684 0.2072 -0.1391
vn 0.9716 0.1941 -0.1356
usemtl Material_with_Texture.160
s off
f 1/1/1 2/2/1 3/3/1
f 1/1/2 4/4/2 2/2/2
f 1/5/3 5/6/3 4/7/3
f 1/1/4 6/8/4 5/9/4
f 1/1/5 7/10/5 6/8/5
f 1/1/6 8/11/6 7/10/6
f 1/1/7 3/3/7 8/11/7
f 3/3/8 9/12/8 10/13/8
f 3/3/9 2/2/9 9/12/9
f 2/2/10 11/14/10 9/12/10
f 2/15/11 4/16/11 11/17/11
f 4/18/12 12/19/12 11/20/12
f 4/7/13 13/21/13 12/22/13
f 4/7/14 5/6/14 13/21/14
f 5/6/15 14/23/15 13/21/15
f 5/6/16 6/24/16 14/23/16
f 6/25/17 15/26/17 14/27/17
f 6/25/18 7/28/18 15/26/18
f 7/28/19 16/29/19 15/26/19
f 7/10/20 17/30/20 16/31/20
f 7/10/21 8/11/21 17/30/21
f 8/11/22 10/13/22 17/30/22
f 8/11/23 3/3/23 10/13/23
f 10/32/24 18/33/24 19/34/24
f 10/32/25 9/35/25 18/33/25
f 9/35/26 20/36/26 18/33/26
f 9/35/27 11/37/27 20/36/27
f 11/37/28 12/38/28 20/36/28
f 12/38/29 21/39/29 20/36/29
f 12/22/30 13/21/30 21/40/30
f 13/41/31 22/42/31 21/43/31
f 13/41/32 23/44/32 22/42/32
f 13/41/33 14/45/33 23/44/33
f 14/46/34 24/47/34 23/48/34
f 14/49/35 25/50/35 24/51/35
f 14/27/36 15/26/36 25/52/36
f 15/26/37 26/53/37 25/52/37
f 15/26/38 16/29/38 26/53/38
f 16/31/39 27/54/39 26/55/39
f 16/31/40 28/56/40 27/54/40
f 16/31/41 17/30/41 28/56/41
f 17/57/42 29/58/42 28/59/42
f 17/57/43 10/60/43 29/58/43
f 10/60/44 19/61/44 29/58/44
f 19/34/45 18/33/45 30/62/45
f 18/33/46 31/63/46 30/62/46
f 18/33/47 20/36/47 31/63/47
f 20/36/48 32/64/48 31/63/48
f 20/36/49 33/65/49 32/64/49
f 20/36/50 21/39/50 33/65/50
f 21/66/51 34/67/51 33/68/51
f 21/69/52 22/70/52 34/71/52
f 22/42/53 35/72/53 34/73/53
f 22/42/54 23/44/54 35/72/54
f 23/44/55 36/74/55 35/72/55
f 23/48/56 24/47/56 36/75/56
f 24/76/57 37/77/57 36/78/57
f 24/76/58 25/79/58 37/77/58
f 25/79/59 38/80/59 37/77/59
f 25/79/60 39/81/60 38/80/60
f 25/82/61 40/83/61 39/84/61
f 25/52/62 26/53/62 40/85/62
f 26/53/63 41/86/63 40/85/63
f 26/53/64 27/87/64 41/86/64
f 27/54/65 28/56/65 41/88/65
f 28/56/66 42/89/66 41/88/66
f 28/56/67 43/90/67 42/89/67
f 28/56/68 44/91/68 43/90/68
f 28/59/69 29/58/69 44/92/69
f 29/58/70 45/93/70 44/92/70
f 29/58/71 19/61/71 45/93/71
f 19/61/72 30/94/72 45/93/72
f 30/62/73 46/95/73 47/96/73
f 30/62/74 31/63/74 46/95/74
f 31/63/75 48/97/75 46/95/75
f 31/63/76 32/64/76 48/97/76
f 32/98/77 49/99/77 48/100/77
f 32/101/78 50/102/78 49/103/78
f 32/101/79 33/68/79 50/102/79
f 33/68/80 34/67/80 50/102/80
f 34/104/81 35/105/81 50/106/81
f 35/105/82 51/107/82 50/106/82
f 35/105/83 36/78/83 51/107/83
f 36/78/84 52/108/84 51/107/84
f 36/78/85 37/77/85 52/108/85
f 37/77/86 53/109/86 52/108/86
f 37/77/87 38/80/87 53/109/87
f 38/80/88 54/110/88 53/109/88
f 38/111/89 39/84/89 54/112/89
f 39/84/90 55/113/90 54/112/90
f 39/84/91 40/83/91 55/113/91
f 40/83/92 56/114/92 55/113/92
f 40/83/93 41/88/93 56/114/93
f 41/88/94 57/115/94 56/114/94
f 41/88/95 42/89/95 57/115/95
f 42/89/96 58/116/96 57/115/96
f 42/89/97 43/90/97 58/116/97
f 43/117/98 59/118/98 58/119/98
f 43/117/99 44/92/99 59/118/99
f 44/92/100 60/120/100 59/118/100
f 44/92/101 45/93/101 60/120/101
f 45/121/102 61/122/102 60/123/102
f 45/121/103 30/124/103 61/122/103
f 30/124/104 47/125/104 61/122/104
f 47/96/105 46/95/105 62/126/105
f 46/95/106 63/127/106 62/126/106
f 46/95/107 48/97/107 63/127/107
f 48/97/108 64/128/108 63/127/108
f 48/100/109 49/99/109 64/129/109
f 49/99/110 50/106/110 64/129/110
f 50/106/111 65/130/111 64/129/111
f 50/106/112 51/107/112 65/130/112
f 51/107/113 66/131/113 65/130/113
f 51/107/114 67/132/114 66/131/114
f 51/107/115 52/108/115 67/132/115
f 52/133/116 68/134/116 67/135/116
f 52/133/117 53/136/117 68/134/117
f 53/136/118 69/137/118 68/134/118
f 53/138/119 54/139/119 69/140/119
f 54/139/120 70/141/120 69/140/120
f 54/139/121 55/142/121 70/141/121
f 55/142/122 71/143/122 70/141/122
f 55/142/123 56/144/123 71/143/123
f 56/144/124 72/145/124 71/143/124
f 56/144/125 57/146/125 72/145/125
f 57/146/126 73/147/126 72/145/126
f 57/146/127 58/148/127 73/147/127
f 58/148/128 74/149/128 73/147/128
f 58/119/129 75/150/129 74/151/129
f 58/119/130 59/118/130 75/150/130
f 59/118/131 76/152/131 75/150/131
f 59/118/132 60/120/132 76/152/132
f 60/120/133 62/153/133 76/152/133
f 60/120/134 61/154/134 62/153/134
f 61/154/135 47/155/135 62/153/135
f 62/153/136 63/156/136 77/157/136
f 63/127/137 78/158/137 77/159/137
f 63/127/138 64/128/138 78/158/138
f 64/128/139 79/160/139 78/158/139
f 64/129/140 65/130/140 79/161/140
f 65/130/141 80/162/141 79/161/141
f 65/130/142 81/163/142 80/162/142
f 65/130/143 66/131/143 81/163/143
f 66/131/144 82/164/144 81/163/144
f 66/131/145 83/165/145 82/164/145
f 66/131/146 67/132/146 83/165/146
f 67/132/147 68/166/147 83/165/147
f 68/166/148 84/167/148 83/165/148
f 68/166/149 85/168/149 84/167/149
f 68/166/150 69/169/150 85/168/150
f 69/140/151 70/141/151 85/170/151
f 70/141/152 86/171/152 85/170/152
f 70/141/153 71/143/153 86/171/153
f 71/143/154 87/172/154 86/171/154
f 71/143/155 72/145/155 87/172/155
f 72/145/156 88/173/156 87/172/156
f 72/145/157 73/147/157 88/173/157
f 73/147/158 89/174/158 88/173/158
f 73/147/159 74/149/159 89/174/159
f 74/151/160 75/150/160 89/175/160
f 75/150/161 90/176/161 89/175/161
f 75/150/162 76/152/162 90/176/162
f 76/152/163 91/177/163 90/176/163
f 76/152/164 62/153/164 91/177/164
f 62/153/165 92/178/165 91/177/165
f 62/153/166 77/157/166 92/178/166
f 77/159/167 78/158/167 93/179/167
f 78/180/168 79/181/168 93/182/168
f 79/181/169 94/183/169 93/182/169
f 79/181/170 80/184/170 94/183/170
f 80/184/171 81/185/171 94/183/171
f 81/185/172 82/186/172 94/183/172
f 82/186/173 83/187/173 94/183/173
f 83/187/174 95/188/174 94/183/174
f 83/187/175 84/189/175 95/188/175
f 84/189/176 85/190/176 95/188/176
f 85/170/177 86/171/177 95/191/177
f 86/171/178 87/172/178 95/191/178
f 87/192/179 96/193/179 95/194/179
f 87/172/180 88/173/180 96/195/180
f 88/173/181 89/174/181 96/195/181
f 89/175/182 90/176/182 96/196/182
f 90/197/183 97/198/183 96/199/183
f 90/176/184 91/177/184 97/200/184
f 91/177/185 92/178/185 97/200/185
f 92/178/186 93/201/186 97/200/186
f 92/178/187 77/157/187 93/201/187
f 93/182/188 94/183/188 98/202/188
f 94/183/189 95/188/189 98/202/189
f 95/188/190 99/203/190 98/202/190
f 95/194/191 96/193/191 99/204/191
f 96/199/192 97/198/192 99/205/192
f 97/206/193 93/182/193 99/203/193
f 93/182/194 98/202/194 99/203/194
