# Blender 4.3.0
# www.blender.org
mtllib little_proximal_lvs.mtl
o little_proximal_lvs
v 0.015775 -0.116212 0.040419
v 0.017964 -0.115112 0.038993
v 0.017104 -0.118801 0.040698
v 0.012575 -0.116619 0.040680
v 0.016220 -0.113480 0.038647
v 0.012883 -0.113091 0.039166
v 0.018001 -0.117695 0.040090
v 0.018411 -0.113550 0.039467
v 0.019205 -0.115383 0.040075
v 0.013766 -0.118370 0.041032
v 0.015253 -0.119120 0.041025
v 0.017521 -0.118845 0.041714
v 0.013068 -0.117739 0.041662
v 0.008726 -0.109109 0.040509
v 0.014445 -0.112588 0.038843
v 0.013759 -0.112848 0.038864
v 0.016335 -0.112182 0.039608
v 0.014551 -0.112054 0.039768
v 0.009335 -0.106533 0.038169
v 0.010289 -0.106414 0.038156
v 0.018898 -0.117153 0.040767
v 0.018591 -0.113437 0.041783
v 0.019333 -0.115213 0.042131
v 0.013584 -0.118333 0.041684
v 0.014899 -0.119126 0.042502
v 0.018888 -0.116730 0.042743
v 0.017059 -0.117859 0.044672
v 0.014928 -0.118401 0.044815
v 0.013067 -0.117364 0.042349
v 0.004112 -0.102624 0.041538
v 0.002863 -0.097950 0.037875
v 0.007264 -0.101823 0.037071
v 0.012696 -0.116797 0.044479
v 0.016820 -0.112096 0.041441
v 0.015110 -0.111486 0.041543
v 0.012172 -0.107777 0.038878
v 0.010169 -0.103958 0.037439
v 0.018068 -0.113276 0.044020
v 0.018569 -0.115656 0.044412
v 0.013379 -0.118239 0.042493
v 0.013915 -0.118081 0.044722
v 0.018764 -0.116366 0.046591
v 0.017117 -0.117938 0.047375
v 0.016106 -0.118234 0.047634
v 0.014877 -0.118458 0.045983
v 0.002244 -0.098009 0.038969
v 0.006262 -0.104716 0.044079
v 0.002044 -0.097902 0.041162
v 0.005466 -0.097050 0.035345
v 0.000493 -0.094776 0.036094
v 0.000042 -0.094687 0.037366
v 0.009257 -0.101610 0.037059
v 0.013968 -0.117317 0.047729
v 0.012585 -0.114317 0.046657
v 0.012198 -0.112799 0.046861
v 0.017203 -0.112625 0.043904
v 0.009681 -0.102042 0.045860
v 0.014819 -0.110719 0.045573
v 0.019136 -0.114417 0.046403
v 0.017463 -0.112269 0.048262
v 0.018247 -0.116248 0.048712
v 0.017633 -0.117004 0.048531
v 0.015166 -0.118092 0.048143
v 0.016036 -0.117950 0.048238
v -0.000972 -0.090814 0.042414
v 0.009651 -0.107251 0.046526
v 0.002327 -0.092522 0.044097
v -0.002322 -0.090140 0.038480
v -0.001579 -0.091279 0.040130
v 0.003417 -0.091494 0.032172
v 0.000515 -0.093337 0.035177
v 0.006105 -0.093147 0.033949
v 0.007212 -0.096587 0.035468
v -0.000558 -0.093474 0.036839
v 0.007640 -0.094211 0.042567
v 0.007693 -0.091829 0.035175
v 0.012643 -0.114400 0.047224
v 0.015041 -0.117052 0.048676
v 0.012401 -0.113087 0.047330
v 0.012135 -0.111749 0.047295
v 0.012501 -0.111893 0.047704
v 0.013683 -0.110335 0.047090
v 0.006777 -0.095011 0.044629
v 0.015307 -0.110743 0.047795
v 0.018690 -0.114321 0.048665
v 0.016800 -0.112654 0.048922
v 0.017713 -0.115804 0.049269
v -0.001706 -0.089035 0.042147
v 0.001034 -0.090155 0.044354
v 0.012451 -0.110961 0.047712
v 0.004729 -0.091802 0.044466
v -0.000546 -0.091485 0.034050
v -0.002245 -0.090037 0.039999
v -0.002037 -0.087042 0.041164
v -0.002147 -0.087768 0.039251
v -0.002129 -0.088490 0.040638
v -0.001705 -0.087510 0.035879
v -0.001739 -0.089451 0.041148
v 0.001125 -0.090478 0.031652
v 0.003112 -0.090636 0.031389
v 0.004974 -0.088174 0.030971
v 0.006875 -0.090026 0.033016
v 0.007731 -0.086612 0.034098
v 0.005655 -0.091526 0.044355
v 0.006116 -0.085388 0.043655
v 0.013267 -0.113701 0.047975
v 0.013594 -0.111910 0.048380
v 0.017896 -0.114252 0.049258
v -0.001534 -0.085783 0.042384
v -0.001111 -0.087389 0.043515
v 0.002087 -0.088629 0.045054
v 0.000695 -0.089577 0.031570
v -0.000306 -0.084109 0.043322
v 0.005782 -0.083612 0.034675
v 0.000076 -0.087259 0.032333
v 0.001109 -0.085663 0.032572
v 0.001712 -0.089581 0.031011
v 0.002581 -0.088828 0.030605
v 0.005942 -0.085599 0.031620
v 0.004394 -0.086368 0.030926
v 0.006500 -0.087790 0.031795
v 0.007129 -0.084844 0.033918
v 0.003513 -0.083542 0.044499
v 0.005149 -0.083614 0.043458
v 0.006630 -0.084295 0.036356
v 0.000230 -0.085293 0.044427
v 0.002564 -0.083816 0.044649
v 0.001426 -0.088693 0.031029
v 0.002827 -0.082567 0.042154
v 0.001076 -0.083175 0.043646
v 0.003969 -0.084338 0.033043
v 0.005016 -0.083089 0.038220
v 0.005062 -0.084123 0.032882
v 0.001089 -0.086915 0.031775
v 0.003836 -0.084749 0.031965
v 0.002746 -0.082627 0.043491
v 0.003949 -0.082713 0.042545
vn -0.1988 -0.3276 -0.9237
vn 0.2361 -0.2071 -0.9494
vn 0.1929 -0.7554 -0.6262
vn -0.6152 -0.4740 -0.6300
vn 0.0580 0.0535 -0.9969
vn -0.2452 -0.2051 -0.9475
vn 0.3689 -0.5612 -0.7410
vn 0.6797 0.4991 -0.5375
vn 0.9026 -0.0259 -0.4297
vn -0.4650 -0.6587 -0.5915
vn -0.1515 -0.8192 -0.5531
vn 0.5092 -0.8588 0.0561
vn -0.8170 -0.5749 0.0459
vn -0.7439 -0.4924 -0.4518
vn -0.1069 0.5825 -0.8058
vn -0.3386 0.2908 -0.8949
vn 0.3119 0.8214 -0.4775
vn 0.2868 0.7069 -0.6465
vn -0.3555 -0.3556 -0.8644
vn 0.1017 -0.2142 -0.9715
vn 0.8540 -0.4622 -0.2387
vn 0.7924 0.6100 0.0109
vn 0.9889 0.0965 0.1126
vn -0.6560 -0.7511 -0.0750
vn -0.1795 -0.9761 0.1227
vn 0.8766 -0.4101 0.2517
vn 0.5397 -0.8290 0.1466
vn -0.0329 -0.9909 0.1305
vn -0.9017 -0.4294 0.0507
vn -0.8866 -0.4610 0.0381
vn -0.6032 -0.5821 -0.5453
vn -0.2868 -0.3835 -0.8779
vn -0.8549 -0.4897 0.1713
vn 0.4806 0.8763 -0.0350
vn 0.6183 0.7689 -0.1630
vn 0.7219 0.2770 -0.6342
vn 0.4545 -0.0171 -0.8906
vn 0.7975 0.6031 0.0131
vn 0.9802 -0.1883 0.0606
vn -0.7581 -0.6521 -0.0030
vn -0.5138 -0.8373 0.1869
vn 0.8909 -0.4534 0.0274
vn 0.4966 -0.8488 0.1816
vn 0.2030 -0.9505 0.2353
vn -0.1934 -0.9777 0.0815
vn -0.7912 -0.5568 -0.2529
vn -0.7202 -0.2649 0.6413
vn -0.8854 -0.4439 0.1379
vn -0.1581 -0.4613 -0.8731
vn -0.6321 -0.5564 -0.5393
vn -0.8310 -0.5452 -0.1106
vn 0.6919 0.0466 -0.7205
vn -0.7202 -0.4876 0.4936
vn -0.9383 -0.2868 0.1932
vn -0.8510 -0.2756 0.4470
vn 0.5710 0.8206 -0.0263
vn 0.4607 0.3378 0.8207
vn 0.6837 0.7297 0.0129
vn 0.9791 0.2020 -0.0221
vn 0.6179 0.6956 0.3665
vn 0.7411 -0.4186 0.5250
vn 0.4881 -0.6636 0.5669
vn -0.2704 -0.7752 0.5710
vn 0.1626 -0.7150 0.6799
vn -0.7746 -0.3076 0.5526
vn -0.4265 -0.0404 0.9036
vn -0.3341 -0.1594 0.9289
vn -0.9766 -0.1964 -0.0871
vn -0.8820 -0.4226 0.2087
vn 0.0760 -0.5890 -0.8046
vn -0.5201 -0.5771 -0.6296
vn 0.4964 -0.3025 -0.8137
vn 0.3196 -0.2064 -0.9248
vn -0.8574 -0.4539 -0.2427
vn 0.9370 0.2253 0.2671
vn 0.9395 -0.0864 -0.3315
vn -0.8799 -0.2740 0.3882
vn -0.3280 -0.2590 0.9085
vn -0.8431 -0.1813 0.5062
vn -0.7244 -0.2289 0.6503
vn -0.6732 -0.1102 0.7312
vn 0.3183 0.7230 0.6132
vn 0.4395 0.2837 0.8523
vn 0.2849 0.8532 0.4368
vn 0.8516 0.1829 0.4913
vn 0.1120 0.3530 0.9289
vn 0.2153 -0.1918 0.9575
vn -0.8835 -0.1876 0.4293
vn -0.4394 -0.2637 0.8587
vn -0.3206 0.2127 0.9230
vn -0.0041 -0.0541 0.9985
vn -0.7738 -0.3913 -0.4982
vn -0.9401 -0.2321 0.2498
vn -0.9695 0.2245 0.0981
vn -0.9022 0.4142 -0.1205
vn -0.9830 -0.0383 0.1794
vn -0.8620 0.4580 -0.2173
vn -0.9474 -0.2061 0.2450
vn -0.4036 -0.5346 -0.7425
vn 0.1417 -0.5485 -0.8241
vn 0.3554 -0.1775 -0.9177
vn 0.7057 -0.2733 -0.6537
vn 0.9644 0.1557 -0.2136
vn 0.4366 0.0705 0.8969
vn 0.7713 0.2588 0.5815
vn -0.5013 -0.1291 0.8556
vn -0.2600 0.1609 0.9521
vn 0.2666 0.1897 0.9449
vn -0.8902 0.4247 0.1648
vn -0.7407 -0.0461 0.6703
vn -0.1211 -0.0734 0.9899
vn -0.6907 -0.1571 -0.7059
vn -0.7204 0.6520 0.2367
vn 0.2055 0.9667 -0.1523
vn -0.7722 0.2601 -0.5797
vn -0.5311 0.7554 -0.3839
vn -0.2894 -0.3078 -0.9064
vn -0.0866 -0.0620 -0.9943
vn 0.5158 0.4188 -0.7473
vn 0.0455 0.3063 -0.9508
vn 0.7049 -0.0681 -0.7060
vn 0.8036 0.5361 -0.2585
vn 0.2339 0.5169 0.8235
vn 0.6282 0.6496 0.4282
vn 0.7774 0.6281 0.0332
vn -0.4843 0.1988 0.8521
vn -0.0880 0.4128 0.9066
vn -0.4529 0.1028 -0.8856
vn -0.2077 0.9690 -0.1337
vn -0.4621 0.8090 0.3634
vn -0.3425 0.9297 -0.1351
vn 0.3433 0.9385 -0.0356
vn 0.1242 0.8880 -0.4428
vn -0.4331 0.3815 -0.8166
vn -0.1791 0.7413 -0.6469
vn -0.0186 0.9231 0.3842
vn 0.3491 0.9259 0.1440
vt 0.936462 0.059963
vt 0.884243 0.067492
vt 0.936589 0.000000
vt 1.000000 0.081017
vt 0.900877 0.114737
vt 0.959588 0.149670
vt 0.908943 0.014851
vt 0.861443 0.088248
vt 0.864574 0.044743
vt 0.994780 0.036778
vt 0.974270 0.009658
vt 0.293016 0.775449
vt 0.332443 0.769958
vt 0.340222 0.790558
vt 0.355157 0.762011
vt 0.097773 0.071282
vt 0.098606 0.027578
vt 0.114254 0.042977
vt 0.120383 0.245182
vt 1.000000 0.251135
vt 0.925532 0.145945
vt 0.940769 0.147600
vt 0.887125 0.131031
vt 0.423518 0.762011
vt 0.404198 0.799778
vt 0.405353 0.770403
vt 0.861443 0.512688
vt 0.902231 0.459664
vt 0.907169 0.615489
vt 0.813313 0.466256
vt 0.821456 0.615489
vt 0.793608 0.462688
vt 0.861443 0.609652
vt 0.887631 0.012119
vt 0.375078 0.778055
vt 0.360841 0.684911
vt 0.318952 0.721441
vt 0.313479 0.678937
vt 0.325721 0.642217
vt 0.361268 0.725195
vt 0.329368 0.757825
vt 0.112393 0.027620
vt 0.260979 0.792286
vt 0.265015 0.778770
vt 0.284758 0.805692
vt 0.375078 0.820265
vt 0.332249 0.855225
vt 0.286398 0.856046
vt 0.129527 0.048073
vt 0.165723 0.401303
vt 0.104986 0.512048
vt 0.907169 0.349983
vt 0.782999 0.353634
vt 0.765206 0.521872
vt 0.721085 0.257379
vt 0.175593 0.055139
vt 0.394005 0.780699
vt 0.375078 0.818980
vt 0.362248 0.648607
vt 0.419410 0.837469
vt 0.393359 0.852997
vt 0.370685 0.628709
vt 0.334289 0.631854
vt 0.333835 0.531920
vt 0.841940 0.508171
vt 0.826800 0.414481
vt 0.371088 0.755592
vt 0.408656 0.686396
vt 0.409069 0.737847
vt 0.129615 0.028443
vt 0.125466 0.000000
vt 0.266720 0.855519
vt 0.256567 0.809253
vt 0.371185 0.858889
vt 0.371323 0.900575
vt 0.331431 0.910250
vt 0.309420 0.914394
vt 0.284399 0.879733
vt 0.128139 0.512122
vt 0.209668 0.337077
vt 0.173981 0.508855
vt 0.778089 0.241342
vt 0.694386 0.171668
vt 0.107175 0.597516
vt 0.080115 0.596396
vt 0.823936 0.361857
vt 0.239740 0.025537
vt 0.227858 0.096973
vt 0.236898 0.128469
vt 0.423518 0.890495
vt 0.410381 0.668908
vt 0.499191 0.427325
vt 0.456271 0.624822
vt 0.320750 0.388509
vt 0.319861 0.441191
vt 0.451640 0.721935
vt 0.500097 0.676899
vt 0.451416 0.760004
vt 0.175487 0.020562
vt 0.199322 0.002210
vt 0.496719 0.762011
vt 0.359729 0.944528
vt 0.344569 0.937742
vt 0.290237 0.925459
vt 0.308581 0.927938
vt 0.244656 0.000392
vt 0.223794 0.663993
vt 0.579574 0.260706
vt 0.623427 0.361062
vt 0.531460 0.343574
vt 0.562465 0.607604
vt 0.510804 0.671983
vt 0.580590 0.133359
vt 0.146054 0.699270
vt 0.175986 0.666659
vt 0.773007 0.103988
vt 0.704018 0.138952
vt 0.815935 0.162680
vt 0.815782 0.244074
vt 0.100486 0.626995
vt 0.065293 0.626806
vt 0.457779 0.249798
vt 0.312072 0.178492
vt 0.856294 0.154702
vt 0.239263 0.093179
vt 0.576071 0.098309
vt 0.577152 0.030587
vt 0.602021 0.024141
vt 0.594089 0.004803
vt 0.245519 0.119949
vt 0.248962 0.147818
vt 0.248943 0.255376
vt 0.256567 0.141045
vt 0.491584 0.616666
vt 0.626253 0.521920
vt 0.630424 0.167128
vt 0.500419 0.268470
vt 0.500490 0.634683
vt 0.503962 0.762011
vt 0.510804 0.800805
vt 0.479625 0.800805
vt 0.499585 0.725166
vt 0.687944 0.095830
vt 0.673749 0.092273
vt 0.694386 0.045608
vt 0.659283 0.143978
vt 0.510804 0.752379
vt 0.349927 0.957795
vt 0.664657 0.023985
vt 0.611960 0.000000
vt 0.650971 0.003867
vt 0.224263 0.704567
vt 0.511644 0.712558
vt 0.559128 0.662580
vt 0.589532 0.152637
vt 0.603322 0.163836
vt 0.614899 0.600280
vt 0.048590 0.673897
vt 0.177637 0.695957
vt 0.210087 0.748486
vt 0.168608 0.741267
vt 0.195158 0.722910
vt 0.099180 0.753428
vt 0.202468 0.699904
vt 0.734043 0.067348
vt 0.772389 0.081107
vt 0.825308 0.043275
vt 0.851376 0.102472
vt 0.694808 0.090414
vt 0.303544 0.070299
vt 0.507052 0.192283
vt 0.507512 0.068741
vt 0.274733 0.131517
vt 0.596206 0.145761
vt 0.583095 0.124947
vt 0.595730 0.104359
vt 0.618350 0.134526
vt 0.634473 0.598107
vt 0.465009 0.762011
vt 0.465009 0.806100
vt 0.452380 0.769928
vt 0.681470 0.051934
vt 0.238326 0.765200
vt 0.540451 0.735158
vt 0.256567 0.727591
vt 0.593887 0.680885
vt 0.000000 0.688302
vt 0.001405 0.709120
vt 0.701191 0.692354
vt 0.718435 0.653580
vt 0.743593 0.629919
vt 0.784094 0.615489
vt 0.858551 0.823699
vt 0.694386 0.761529
vt 0.024569 0.756018
vt 0.744528 0.840823
vt 0.711822 0.842414
vt 0.731368 0.047037
vt 0.751409 0.050095
vt 0.773481 0.038728
vt 0.861443 0.004089
vt 0.825566 0.005020
vt 0.858264 0.050313
vt 0.256567 0.080896
vt 0.306158 0.031365
vt 0.694386 0.712591
vt 0.663295 0.767010
vt 0.690960 0.754822
vt 0.359053 0.025801
vt 0.510804 0.027934
vt 0.543528 0.772182
vt 0.583453 0.791200
vt 0.586083 0.761310
vt 0.643401 0.769308
vt 0.734357 0.003588
vt 0.751528 0.031518
vt 0.848754 0.654875
vt 0.618381 0.796546
vt 0.818785 0.615685
vt 0.810710 0.846411
vt 0.404976 0.000000
vt 0.328674 0.002742
vt 0.870725 0.849494
vt 0.832072 0.855904
vt 0.866050 0.747527
vt 0.730646 0.859041
vt 0.756588 0.000000
vt 0.799644 0.867828
vt 0.831063 0.889345
vt 0.792627 0.895145
vt 0.260272 0.033675
vt 0.292505 0.003933
vt 0.654227 0.793458
vt 0.479625 0.762011
vt 0.479625 0.806399
vt 0.465009 0.788140
vt 0.423518 0.800321
vt 0.435336 0.762011
vt 0.445761 0.800321
vt 0.497746 0.001310
vt 0.853545 0.627942
vt 0.870725 0.654307
s 1
usemtl Material_with_Texture.135
f 1/1/1 2/2/2 3/3/3
f 3/3/3 4/4/4 1/1/1
f 2/2/2 1/1/1 5/5/5
f 1/1/1 6/6/6 5/5/5
f 1/1/1 4/4/4 6/6/6
f 3/3/3 2/2/2 7/7/7
f 8/8/8 2/2/2 5/5/5
f 8/8/8 9/9/9 2/2/2
f 7/7/7 2/2/2 9/9/9
f 3/3/3 10/10/10 4/4/4
f 3/3/3 11/11/11 10/10/10
f 11/12/11 3/13/3 12/14/12
f 12/14/12 3/13/3 7/15/7
f 4/16/4 10/17/10 13/18/13
f 14/19/14 4/16/4 13/18/13
f 6/6/6 4/4/4 14/20/14
f 15/21/15 5/5/5 16/22/16
f 5/5/5 15/21/15 17/23/17
f 16/22/16 5/5/5 6/6/6
f 5/5/5 17/23/17 8/8/8
f 6/24/6 18/25/18 16/26/16
f 14/27/14 19/28/19 6/29/6
f 20/30/20 6/31/6 19/32/19
f 20/30/20 18/33/18 6/31/6
f 7/7/7 9/9/9 21/34/21
f 12/14/12 7/15/7 21/35/21
f 22/36/22 9/37/9 8/38/8
f 22/36/22 8/38/8 17/39/17
f 9/37/9 22/36/22 23/40/23
f 23/40/23 21/41/21 9/37/9
f 13/18/13 10/17/10 24/42/24
f 24/43/24 10/44/10 11/12/11
f 24/43/24 11/12/11 25/45/25
f 25/45/25 11/12/11 12/14/12
f 26/46/26 12/14/12 21/35/21
f 26/46/26 27/47/27 12/14/12
f 28/48/28 12/14/12 27/47/27
f 25/45/25 12/14/12 28/48/28
f 29/49/29 13/18/13 24/42/24
f 29/49/29 14/19/14 13/18/13
f 14/19/14 30/50/30 31/51/31
f 14/27/14 32/52/32 19/28/19
f 32/53/32 14/54/14 31/55/31
f 33/56/33 14/19/14 29/49/29
f 14/19/14 33/56/33 30/50/30
f 16/26/16 18/25/18 15/57/15
f 17/58/17 15/57/15 18/25/18
f 34/59/34 22/36/22 17/39/17
f 35/60/35 17/58/17 18/25/18
f 17/58/17 35/60/35 34/61/34
f 35/62/35 18/63/18 36/64/36
f 20/30/20 36/65/36 18/33/18
f 19/32/19 37/66/37 20/30/20
f 37/66/37 19/32/19 32/53/32
f 20/30/20 37/66/37 36/65/36
f 21/41/21 23/40/23 26/67/26
f 34/59/34 38/68/38 22/36/22
f 23/40/23 22/36/22 38/68/38
f 39/69/39 26/67/26 23/40/23
f 39/69/39 23/40/23 38/68/38
f 24/42/24 40/70/40 29/49/29
f 24/42/24 25/71/25 40/70/40
f 41/72/41 40/73/40 25/45/25
f 25/45/25 28/48/28 41/72/41
f 39/74/39 27/47/27 26/46/26
f 39/74/39 42/75/42 27/47/27
f 43/76/43 27/47/27 42/75/42
f 44/77/44 45/78/45 27/47/27
f 43/76/43 44/77/44 27/47/27
f 27/47/27 45/78/45 28/48/28
f 45/78/45 41/72/41 28/48/28
f 29/49/29 40/70/40 33/56/33
f 31/51/31 30/50/30 46/79/46
f 47/80/47 48/81/48 30/50/30
f 48/81/48 46/79/46 30/50/30
f 47/80/47 30/50/30 33/56/33
f 32/53/32 31/55/31 49/82/49
f 49/82/49 31/55/31 50/83/50
f 31/51/31 46/79/46 51/84/51
f 50/85/50 31/51/31 51/84/51
f 32/53/32 49/82/49 52/86/52
f 52/86/52 37/66/37 32/53/32
f 53/87/53 54/88/54 33/56/33
f 40/70/40 53/87/53 33/56/33
f 55/89/55 47/80/47 33/56/33
f 33/56/33 54/88/54 55/89/55
f 56/90/56 34/61/34 35/60/35
f 34/59/34 56/91/56 38/68/38
f 35/62/35 57/92/57 58/93/58
f 57/92/57 35/62/35 36/64/36
f 56/91/56 35/62/35 58/93/58
f 57/92/57 36/64/36 52/94/52
f 36/64/36 37/95/37 52/94/52
f 38/68/38 59/96/59 39/69/39
f 56/91/56 60/97/60 38/68/38
f 59/96/59 38/68/38 60/97/60
f 39/69/39 59/96/59 42/98/42
f 53/87/53 40/70/40 41/99/41
f 45/100/45 53/87/53 41/99/41
f 59/96/59 61/101/61 42/98/42
f 43/76/43 42/75/42 61/102/61
f 62/103/62 44/77/44 43/76/43
f 62/103/62 43/76/43 61/102/61
f 45/78/45 44/77/44 63/104/63
f 44/77/44 62/103/62 64/105/64
f 63/104/63 44/77/44 64/105/64
f 53/87/53 45/100/45 63/106/63
f 46/79/46 48/81/48 51/84/51
f 48/81/48 47/80/47 65/107/65
f 66/108/66 57/109/57 47/110/47
f 67/111/67 65/112/65 47/110/47
f 47/110/47 57/109/57 67/111/67
f 66/108/66 47/110/47 55/113/55
f 51/84/51 48/81/48 68/114/68
f 48/81/48 69/115/69 68/114/68
f 69/115/69 48/81/48 65/107/65
f 70/116/70 49/82/49 71/117/71
f 49/82/49 50/83/50 71/117/71
f 49/82/49 70/116/70 72/118/72
f 49/82/49 72/118/72 73/119/73
f 52/86/52 49/82/49 73/119/73
f 74/120/74 71/121/71 50/85/50
f 50/85/50 51/84/51 74/120/74
f 74/120/74 51/84/51 68/114/68
f 75/122/75 52/94/52 76/123/76
f 52/94/52 75/122/75 57/92/57
f 76/124/76 52/86/52 73/119/73
f 77/125/77 54/88/54 53/87/53
f 77/126/77 53/127/53 78/128/78
f 53/127/53 63/129/63 78/128/78
f 79/130/79 54/88/54 77/125/77
f 54/88/54 79/130/79 55/89/55
f 80/131/80 66/132/66 55/89/55
f 55/89/55 79/130/79 81/133/81
f 80/131/80 55/89/55 81/133/81
f 60/97/60 56/91/56 58/93/58
f 82/134/82 58/93/58 57/92/57
f 83/135/83 67/111/67 57/109/57
f 66/108/66 82/136/82 57/109/57
f 83/137/83 57/92/57 75/122/75
f 84/138/84 60/97/60 58/93/58
f 58/139/58 82/140/82 84/141/84
f 85/142/85 61/101/61 59/96/59
f 59/96/59 60/97/60 85/142/85
f 60/143/60 86/144/86 85/145/85
f 86/144/86 60/143/60 84/146/84
f 85/142/85 87/147/87 61/101/61
f 87/148/87 62/103/62 61/102/61
f 87/149/87 64/150/64 62/151/62
f 63/129/63 64/150/64 78/128/78
f 64/150/64 87/149/87 78/128/78
f 69/115/69 65/107/65 88/152/88
f 88/153/88 65/112/65 89/154/89
f 89/154/89 65/112/65 67/111/67
f 80/155/80 90/156/90 66/108/66
f 90/156/90 82/136/82 66/108/66
f 83/135/83 91/157/91 67/111/67
f 67/111/67 91/157/91 89/154/89
f 74/120/74 68/114/68 92/158/92
f 69/115/69 93/159/93 68/114/68
f 94/160/94 95/161/95 68/114/68
f 96/162/96 68/114/68 93/159/93
f 96/162/96 94/160/94 68/114/68
f 97/163/97 68/114/68 95/161/95
f 97/163/97 92/158/92 68/114/68
f 88/152/88 98/164/98 69/115/69
f 98/164/98 93/159/93 69/115/69
f 70/116/70 71/117/71 99/165/99
f 99/165/99 100/166/100 70/116/70
f 70/116/70 100/166/100 101/167/101
f 102/168/102 70/116/70 101/167/101
f 102/168/102 72/118/72 70/116/70
f 71/121/71 74/120/74 92/158/92
f 92/169/92 99/165/99 71/117/71
f 73/119/73 72/118/72 76/124/76
f 76/124/76 72/118/72 102/168/102
f 75/122/75 76/123/76 103/170/103
f 83/137/83 75/122/75 104/171/104
f 105/172/105 104/171/104 75/122/75
f 103/170/103 105/172/105 75/122/75
f 103/170/103 76/123/76 102/173/102
f 81/174/81 79/175/79 77/126/77
f 77/126/77 78/128/78 106/176/106
f 81/174/81 77/126/77 106/176/106
f 106/176/106 78/128/78 87/149/87
f 80/155/80 81/174/81 90/156/90
f 107/177/107 90/156/90 81/174/81
f 107/177/107 81/174/81 106/176/106
f 90/156/90 84/146/84 82/136/82
f 91/157/91 83/135/83 104/178/104
f 90/156/90 107/177/107 84/146/84
f 84/146/84 107/177/107 86/144/86
f 85/179/85 86/180/86 108/181/108
f 87/149/87 85/145/85 108/182/108
f 86/144/86 106/176/106 108/182/108
f 86/144/86 107/177/107 106/176/106
f 106/176/106 87/149/87 108/182/108
f 96/162/96 88/152/88 94/160/94
f 88/152/88 109/183/109 94/160/94
f 96/162/96 98/164/98 88/152/88
f 89/154/89 110/184/110 88/153/88
f 88/152/88 110/185/110 109/183/109
f 91/157/91 111/186/111 89/154/89
f 111/186/111 110/184/110 89/154/89
f 104/178/104 111/186/111 91/157/91
f 99/187/99 92/158/92 112/188/112
f 112/188/112 92/158/92 97/163/97
f 93/159/93 98/164/98 96/162/96
f 95/189/95 94/190/94 109/191/109
f 109/191/109 113/192/113 95/189/95
f 114/193/114 97/194/97 95/189/95
f 113/192/113 114/193/114 95/189/95
f 115/195/115 112/188/112 97/163/97
f 114/193/114 116/196/116 97/194/97
f 115/197/115 97/194/97 116/196/116
f 99/165/99 112/198/112 117/199/117
f 117/199/117 100/166/100 99/165/99
f 118/200/118 100/166/100 117/199/117
f 101/167/101 100/166/100 118/200/118
f 119/201/119 101/167/101 120/202/120
f 121/203/121 102/168/102 101/167/101
f 120/202/120 101/167/101 118/200/118
f 101/167/101 119/201/119 121/203/121
f 121/204/121 103/170/103 102/173/102
f 122/205/122 105/172/105 103/170/103
f 121/204/121 122/205/122 103/170/103
f 104/178/104 105/206/105 123/207/123
f 111/186/111 104/178/104 123/207/123
f 105/206/105 124/208/124 123/207/123
f 105/172/105 125/209/125 124/210/124
f 125/209/125 105/172/105 122/205/122
f 109/211/109 110/184/110 113/212/113
f 113/212/113 110/184/110 126/213/126
f 111/186/111 126/213/126 110/184/110
f 126/213/126 111/186/111 127/214/127
f 111/186/111 123/207/123 127/214/127
f 112/198/112 115/215/115 128/216/128
f 117/199/117 112/198/112 128/216/128
f 114/193/114 113/192/113 129/217/129
f 126/213/126 130/218/130 113/212/113
f 113/192/113 130/219/130 129/217/129
f 114/193/114 131/220/131 116/196/116
f 132/221/132 122/205/122 114/222/114
f 122/223/122 133/224/133 114/193/114
f 129/217/129 132/225/132 114/193/114
f 131/220/131 114/193/114 133/224/133
f 134/226/134 115/197/115 116/196/116
f 128/216/128 115/215/115 134/227/134
f 134/226/134 116/196/116 135/228/135
f 131/220/131 135/228/135 116/196/116
f 117/199/117 128/216/128 118/200/118
f 134/227/134 118/200/118 128/216/128
f 118/200/118 134/227/134 120/202/120
f 135/228/135 119/229/119 120/230/120
f 119/229/119 135/228/135 133/224/133
f 121/204/121 119/231/119 122/205/122
f 133/232/133 122/205/122 119/231/119
f 135/228/135 120/230/120 134/226/134
f 122/205/122 132/221/132 125/209/125
f 123/207/123 130/218/130 127/214/127
f 130/218/130 123/207/123 136/233/136
f 123/234/123 137/235/137 136/236/136
f 137/237/137 123/238/123 124/239/124
f 125/209/125 137/240/137 124/210/124
f 137/240/137 125/209/125 132/221/132
f 126/213/126 127/214/127 130/218/130
f 136/241/136 129/217/129 130/219/130
f 136/241/136 137/242/137 129/217/129
f 129/217/129 137/242/137 132/225/132
f 131/220/131 133/224/133 135/228/135
