# Blender 4.3.0
# www.blender.org
mtllib little_distal_rvs.mtl
o little_distal_rvs
v 0.045478 -0.135995 -0.047091
v 0.046574 -0.137410 -0.048256
v 0.047332 -0.137461 -0.047591
v 0.047736 -0.136511 -0.047157
v 0.046315 -0.135589 -0.046955
v 0.044990 -0.135838 -0.047248
v 0.045107 -0.135242 -0.047069
v 0.041890 -0.136109 -0.048180
v 0.047778 -0.138007 -0.048268
v 0.047843 -0.138106 -0.049663
v 0.044300 -0.137533 -0.049516
v 0.048838 -0.137386 -0.047819
v 0.048195 -0.136295 -0.047588
v 0.046023 -0.134823 -0.047212
v 0.042775 -0.135368 -0.047268
v 0.044082 -0.135108 -0.047173
v 0.045220 -0.134492 -0.047530
v 0.042070 -0.135472 -0.047419
v 0.039359 -0.134254 -0.046548
v 0.038552 -0.134723 -0.047148
v 0.038719 -0.135358 -0.049182
v 0.037789 -0.134715 -0.047522
v 0.049128 -0.137643 -0.048199
v 0.049182 -0.137836 -0.049069
v 0.047820 -0.138323 -0.050425
v 0.048863 -0.137831 -0.050144
v 0.042746 -0.136686 -0.050292
v 0.047278 -0.138138 -0.050974
v 0.045061 -0.136642 -0.052010
v 0.048822 -0.136855 -0.048246
v 0.048571 -0.136550 -0.048598
v 0.047413 -0.136191 -0.051508
v 0.041833 -0.135017 -0.047221
v 0.043083 -0.134947 -0.047297
v 0.044150 -0.134666 -0.047851
v 0.045489 -0.134974 -0.049589
v 0.044719 -0.134925 -0.049546
v 0.039413 -0.133281 -0.046109
v 0.037385 -0.134359 -0.046495
v 0.040528 -0.133916 -0.046558
v 0.036832 -0.134491 -0.049727
v 0.039575 -0.135068 -0.050728
v 0.035580 -0.134152 -0.045759
v 0.048898 -0.137325 -0.049804
v 0.048632 -0.137808 -0.051368
v 0.048324 -0.136997 -0.051285
v 0.048761 -0.137228 -0.050334
v 0.042796 -0.135489 -0.051437
v 0.041087 -0.135468 -0.051002
v 0.048257 -0.137593 -0.051656
v 0.046615 -0.136603 -0.052256
v 0.045403 -0.135948 -0.052423
v 0.043234 -0.135298 -0.052047
v 0.044845 -0.134992 -0.052147
v 0.046341 -0.135826 -0.052119
v 0.044713 -0.134851 -0.050301
v 0.044168 -0.134567 -0.051519
v 0.042222 -0.134214 -0.047717
v 0.041464 -0.133716 -0.047445
v 0.043482 -0.134536 -0.049355
v 0.044206 -0.134909 -0.050339
v 0.038138 -0.132566 -0.045237
v 0.039748 -0.132429 -0.046504
v 0.038235 -0.131478 -0.045159
v 0.035960 -0.133357 -0.044354
v 0.036585 -0.133004 -0.044259
v 0.036309 -0.134050 -0.051043
v 0.036853 -0.134159 -0.050903
v 0.033491 -0.133732 -0.050058
v 0.039991 -0.134370 -0.051236
v 0.037181 -0.133361 -0.051639
v 0.035260 -0.133493 -0.044862
v 0.034179 -0.133810 -0.046565
v 0.034514 -0.133458 -0.045813
v 0.033486 -0.133715 -0.048311
v 0.042139 -0.134957 -0.051515
v 0.042729 -0.134933 -0.051864
v 0.041306 -0.134850 -0.051337
v 0.043136 -0.134575 -0.052079
v 0.043651 -0.134509 -0.051894
v 0.040692 -0.132971 -0.048702
v 0.042597 -0.134530 -0.050523
v 0.041794 -0.134128 -0.050352
v 0.041904 -0.133881 -0.049764
v 0.042400 -0.134439 -0.051053
v 0.037451 -0.132071 -0.044501
v 0.037255 -0.130289 -0.045148
v 0.037414 -0.129771 -0.049893
v 0.037804 -0.130251 -0.045891
v 0.037164 -0.130703 -0.044656
v 0.036056 -0.132757 -0.043935
v 0.035769 -0.132367 -0.044222
v 0.036721 -0.132301 -0.044056
v 0.036150 -0.133589 -0.051581
v 0.034660 -0.132858 -0.052242
v 0.034383 -0.133165 -0.051813
v 0.034215 -0.133315 -0.050977
v 0.038260 -0.132032 -0.051991
v 0.038655 -0.131563 -0.051880
v 0.040698 -0.134314 -0.051120
v 0.039921 -0.133006 -0.051394
v 0.035236 -0.132770 -0.048525
v 0.035957 -0.131811 -0.044723
v 0.035829 -0.132079 -0.047448
v 0.035853 -0.131519 -0.045782
v 0.041718 -0.134514 -0.051323
v 0.037986 -0.130026 -0.051477
v 0.041288 -0.134251 -0.050877
v 0.036807 -0.131599 -0.044032
v 0.036060 -0.130308 -0.045242
v 0.036759 -0.129839 -0.045953
v 0.036552 -0.129552 -0.050606
v 0.036914 -0.129770 -0.051396
v 0.036033 -0.129555 -0.049827
v 0.037487 -0.129792 -0.051450
v 0.036416 -0.129580 -0.046651
v 0.036052 -0.131292 -0.044368
v 0.036045 -0.131810 -0.044217
v 0.036307 -0.132497 -0.052912
v 0.037456 -0.132117 -0.052413
v 0.035155 -0.131835 -0.052905
v 0.034646 -0.132631 -0.051282
v 0.034838 -0.132247 -0.051578
v 0.035336 -0.131357 -0.052904
v 0.035545 -0.132485 -0.049115
v 0.037867 -0.131635 -0.052297
v 0.037750 -0.130780 -0.052348
v 0.035629 -0.132282 -0.048350
v 0.036073 -0.130777 -0.046477
v 0.035938 -0.131264 -0.048220
v 0.036110 -0.131246 -0.047499
v 0.035756 -0.131638 -0.048560
v 0.035882 -0.130961 -0.045504
v 0.037263 -0.130464 -0.052496
v 0.035779 -0.130191 -0.045825
v 0.035734 -0.129968 -0.046433
v 0.035589 -0.129882 -0.047593
v 0.036041 -0.129700 -0.051292
v 0.035519 -0.129971 -0.050650
v 0.037152 -0.129991 -0.051975
v 0.036651 -0.129827 -0.051871
v 0.035330 -0.129978 -0.050151
v 0.035446 -0.129884 -0.048539
v 0.037159 -0.131869 -0.052802
v 0.036562 -0.132087 -0.053078
v 0.036164 -0.131792 -0.053236
v 0.035500 -0.131309 -0.051498
v 0.035919 -0.131254 -0.050584
v 0.035308 -0.131404 -0.051984
v 0.035464 -0.130926 -0.051968
v 0.035702 -0.130576 -0.052577
v 0.035786 -0.132065 -0.048838
v 0.035865 -0.131645 -0.049798
v 0.036815 -0.131625 -0.053081
v 0.035942 -0.131277 -0.048915
v 0.035526 -0.130305 -0.051730
v 0.035881 -0.130643 -0.050332
v 0.035888 -0.130678 -0.049510
v 0.036066 -0.131027 -0.049937
vn -0.2846 -0.4564 0.8431
vn -0.3198 -0.8504 0.4177
vn -0.1520 -0.6833 0.7141
vn 0.3067 0.0142 0.9517
vn 0.1567 0.1329 0.9787
vn -0.2416 -0.4736 0.8470
vn -0.1163 0.1670 0.9791
vn -0.2217 -0.8257 0.5188
vn -0.0924 -0.9359 0.3400
vn 0.0288 -0.9839 0.1765
vn -0.2912 -0.9545 0.0643
vn 0.6132 -0.2196 0.7588
vn 0.6576 0.6195 0.4287
vn 0.3193 0.7814 0.5361
vn -0.0666 -0.3635 0.9292
vn -0.0741 0.3623 0.9291
vn 0.0634 0.9435 0.3252
vn -0.0666 -0.6412 0.7645
vn 0.0326 -0.5689 0.8218
vn -0.1066 -0.8560 0.5059
vn -0.3551 -0.9331 -0.0560
vn -0.2361 -0.9535 0.1872
vn 0.8463 -0.3678 0.3852
vn 0.8827 -0.4698 -0.0042
vn 0.1088 -0.9938 -0.0209
vn 0.8287 -0.5279 -0.1858
vn -0.3501 -0.8224 -0.4484
vn -0.1530 -0.8891 -0.4313
vn -0.2895 -0.6486 -0.7039
vn 0.8862 0.4606 0.0500
vn 0.6941 0.7169 -0.0662
vn 0.5696 0.6893 -0.4478
vn 0.2054 -0.0432 0.9777
vn 0.0810 0.5785 0.8117
vn -0.0961 0.9746 0.2025
vn 0.2790 0.9469 -0.1596
vn 0.1102 0.9913 -0.0720
vn 0.3717 -0.2028 0.9059
vn 0.1168 -0.8461 0.5200
vn 0.4088 -0.0484 0.9113
vn -0.2717 -0.9538 -0.1285
vn -0.2784 -0.7374 -0.6154
vn -0.2098 -0.9200 0.3309
vn 0.9255 0.3393 -0.1684
vn 0.7408 -0.3956 -0.5429
vn 0.7365 0.5061 -0.4488
vn 0.8952 0.3492 -0.2770
vn -0.3979 -0.6053 -0.6894
vn -0.2640 -0.6006 -0.7547
vn 0.3709 -0.2507 -0.8942
vn 0.2219 -0.1552 -0.9626
vn -0.0032 -0.0270 -0.9996
vn -0.3757 -0.3594 -0.8542
vn 0.2417 0.6837 -0.6885
vn 0.4346 0.5758 -0.6925
vn 0.1422 0.9885 0.0514
vn 0.1938 0.9809 0.0175
vn 0.4776 0.6988 0.5326
vn 0.6474 0.6046 0.4641
vn 0.3204 0.9455 -0.0585
vn 0.0709 0.9946 0.0758
vn 0.5193 -0.3586 0.7757
vn 0.7272 0.4965 0.4739
vn 0.6933 0.2975 0.6564
vn -0.1516 -0.6428 0.7509
vn 0.4158 -0.5394 0.7322
vn -0.0831 -0.8691 -0.4876
vn -0.1343 -0.8421 -0.5223
vn -0.9571 -0.1843 -0.2237
vn -0.0117 -0.2874 -0.9577
vn -0.0113 -0.4401 -0.8979
vn -0.7813 -0.2969 0.5490
vn -0.9291 -0.2676 0.2553
vn -0.7873 0.2741 0.5524
vn -0.9785 -0.1089 0.1749
vn -0.2596 0.0626 -0.9637
vn -0.5075 -0.2304 -0.8303
vn -0.1900 -0.0956 -0.9771
vn -0.3088 0.7043 -0.6392
vn 0.0904 0.9545 -0.2842
vn 0.6273 0.7788 0.0015
vn 0.2600 0.9567 -0.1310
vn 0.4783 0.7489 -0.4587
vn 0.4811 0.8212 -0.3069
vn -0.0741 0.9868 -0.1440
vn 0.6103 -0.0879 0.7873
vn 0.3313 0.7699 0.5454
vn 0.4380 0.8978 0.0455
vn 0.6133 0.7384 0.2804
vn 0.2955 0.5770 0.7615
vn -0.2714 -0.1486 0.9509
vn -0.7532 0.2557 0.6060
vn 0.2635 -0.0942 0.9601
vn 0.0471 -0.7391 -0.6720
vn -0.7267 -0.2599 -0.6359
vn -0.8016 -0.2662 -0.5354
vn -0.5962 0.7988 0.0809
vn 0.3327 -0.2504 -0.9092
vn 0.6034 0.2135 -0.7683
vn 0.1929 0.2813 -0.9400
vn 0.5775 0.2956 -0.7610
vn -0.6405 0.7662 0.0522
vn -0.9562 0.2524 0.1485
vn -0.9210 0.3857 0.0550
vn -0.9809 0.1944 -0.0050
vn 0.0519 0.6777 -0.7335
vn 0.6069 0.7383 -0.2944
vn 0.3867 0.6819 -0.6208
vn 0.1494 0.2181 0.9644
vn -0.4403 0.7107 0.5487
vn 0.0480 0.9461 0.3202
vn 0.0259 0.9966 -0.0788
vn 0.1055 0.9772 -0.1841
vn -0.2145 0.9757 -0.0445
vn 0.2466 0.9359 -0.2514
vn -0.2536 0.9062 0.3383
vn -0.6624 0.3524 0.6611
vn -0.5662 0.2860 0.7730
vn 0.1259 -0.6282 -0.7678
vn 0.4987 -0.5342 -0.6826
vn -0.7044 0.0240 -0.7094
vn -0.8316 0.5457 0.1032
vn -0.8702 0.4852 0.0857
vn -0.6545 0.4184 -0.6298
vn -0.7725 0.6284 0.0915
vn 0.5256 -0.1034 -0.8444
vn 0.5790 0.3233 -0.7485
vn -0.8854 0.4648 -0.0013
vn -0.9878 -0.1413 -0.0659
vn -0.9910 0.0094 0.1333
vn -0.9964 0.0261 0.0807
vn -0.9646 0.2636 -0.0091
vn -0.9982 -0.0539 0.0245
vn 0.2838 0.5558 -0.7814
vn -0.2797 0.9001 0.3340
vn -0.9929 -0.0327 0.1145
vn -0.3539 0.8693 0.3450
vn -0.8985 0.4096 0.1575
vn -0.8361 0.5289 0.1455
vn -0.3392 0.9144 -0.2209
vn -0.9274 0.3714 -0.0444
vn 0.2470 0.8118 -0.5291
vn 0.0047 0.8905 -0.4550
vn -0.9362 -0.3126 -0.1604
vn -0.9268 0.3729 0.0440
vn 0.5565 -0.3092 -0.7712
vn 0.3346 -0.4047 -0.8510
vn -0.0585 -0.0097 -0.9982
vn -0.8376 0.4423 0.3205
vn -0.9399 0.2095 0.2697
vn -0.8979 0.4266 0.1085
vn -0.9664 0.2464 0.0738
vn -0.4932 0.6082 -0.6219
vn -0.9617 0.2650 -0.0706
vn -0.9422 0.3305 0.0551
vn 0.3566 0.0860 -0.9303
vn -0.9967 0.0663 -0.0460
vn -0.9119 0.3875 -0.1350
vn -0.9138 -0.3414 0.2201
vn -0.9523 -0.2906 -0.0928
vn -0.9952 -0.0203 -0.0959
vt 0.339505 0.188330
vt 0.305550 0.119300
vt 0.340987 0.096795
vt 0.782900 0.508155
vt 0.793302 0.428733
vt 0.820714 0.520930
vt 0.767965 0.444894
vt 0.327549 0.207040
vt 0.769418 0.404696
vt 0.792215 0.414774
vt 0.254109 0.314951
vt 0.319053 0.066676
vt 0.263986 0.047396
vt 0.228625 0.192616
vt 0.795954 0.571399
vt 0.349421 0.036123
vt 0.764579 0.528745
vt 0.739960 0.429498
vt 0.300973 0.297587
vt 0.776754 0.373332
vt 0.803025 0.339393
vt 0.734824 0.406733
vt 0.286707 0.322430
vt 0.290061 0.449337
vt 0.256612 0.469702
vt 0.177123 0.434252
vt 0.232757 0.495310
vt 0.337576 0.018126
vt 0.303379 0.004367
vt 0.233212 0.037647
vt 0.256649 0.004663
vt 0.179534 0.252260
vt 0.204944 0.054274
vt 0.137775 0.142821
vt 0.771791 0.572193
vt 0.798512 0.593201
vt 0.647578 0.585472
vt 0.517929 0.567160
vt 0.684244 0.558039
vt 0.664510 0.594154
vt 0.676014 0.456502
vt 0.654611 0.425423
vt 0.814878 0.322797
vt 0.802324 0.303631
vt 0.782525 0.342795
vt 0.657156 0.381576
vt 0.630414 0.387826
vt 0.641552 0.342072
vt 0.574595 0.461367
vt 0.568177 0.430069
vt 0.811684 0.199632
vt 0.777626 0.175582
vt 0.842120 0.139237
vt 0.269169 0.526011
vt 0.783253 0.230477
vt 0.133396 0.509698
vt 0.125264 0.385972
vt 0.277599 0.606714
vt 0.669870 0.612028
vt 0.635426 0.624771
vt 0.602646 0.617142
vt 0.018105 0.663500
vt 0.018105 0.716732
vt 0.012594 0.698212
vt 0.305945 0.663501
vt 0.322841 0.682296
vt 0.304846 0.693442
vt 0.204985 0.000000
vt 0.286265 0.669396
vt 0.304846 0.663501
vt 0.304846 0.717860
vt 0.322841 0.732678
vt 0.309865 0.705004
vt 0.134399 0.248341
vt 0.131889 0.320169
vt 0.844960 0.681557
vt 0.820472 0.623073
vt 0.864353 0.593201
vt 0.189108 0.013347
vt 0.683525 0.777906
vt 0.647042 0.645250
vt 0.684244 0.659098
vt 0.649927 0.728864
vt 0.653481 0.785956
vt 0.675264 0.869453
vt 0.115111 0.226084
vt 0.536783 0.607275
vt 0.579805 0.616479
vt 0.464679 0.462712
vt 0.481863 0.528226
vt 0.537657 0.437118
vt 0.482715 0.426005
vt 0.614792 0.702837
vt 0.622792 0.652018
vt 0.627648 0.753636
vt 0.761747 0.314131
vt 0.755063 0.276511
vt 0.562688 0.376053
vt 0.615307 0.306568
vt 0.530783 0.417919
vt 0.774940 0.104747
vt 0.736808 0.181308
vt 0.732551 0.088474
vt 0.338308 0.615152
vt 0.349421 0.595090
vt 0.821222 0.041420
vt 0.074681 0.519238
vt 0.086613 0.498591
vt 0.081278 0.643323
vt 0.852202 0.740518
vt 0.820191 0.741836
vt 0.825864 0.865938
vt 0.859756 0.857215
vt 0.309814 0.635453
vt 0.229050 0.655394
vt 0.263071 0.654097
vt 0.151122 0.663501
vt 0.645301 0.624771
vt 0.810327 0.656528
vt 0.116578 0.251232
vt 0.123664 0.277998
vt 0.818620 0.686933
vt 0.630316 0.822747
vt 0.651893 0.888913
vt 0.672329 0.892535
vt 0.449236 0.391084
vt 0.462117 0.409003
vt 0.559066 0.246441
vt 0.618115 0.269790
vt 0.637534 0.181869
vt 0.506250 0.353177
vt 0.504539 0.316435
vt 0.529332 0.312691
vt 0.482777 0.350189
vt 0.771738 0.058700
vt 0.699792 0.038913
vt 0.475473 0.103767
vt 0.641060 0.081271
vt 0.684244 0.072307
vt 0.721463 0.031447
vt 0.842120 0.030002
vt 0.821667 0.013696
vt 0.372439 0.660107
vt 0.387506 0.640479
vt 0.425179 0.637243
vt 0.413799 0.624771
vt 0.794284 0.029658
vt 0.864353 0.880598
vt 0.850477 0.899788
vt 0.007585 0.580967
vt 0.051339 0.523584
vt 0.021498 0.593818
vt 0.601457 0.803461
vt 0.614792 0.835788
vt 0.567326 0.773045
vt 0.550613 0.702220
vt 0.758808 0.850852
vt 0.734289 0.842328
vt 0.806766 0.715284
vt 0.769059 0.767518
vt 0.514018 0.665856
vt 0.543073 0.624771
vt 0.543073 0.776211
vt 0.448085 0.659808
vt 0.390256 0.814182
vt 0.427898 0.772166
vt 0.455418 0.704410
vt 0.322841 0.687746
vt 0.349421 0.663501
vt 0.349421 0.782484
vt 0.562593 0.624771
vt 0.614792 0.694298
vt 0.461547 0.348798
vt 0.684244 0.908202
vt 0.799233 0.676807
vt 0.785046 0.649723
vt 0.442411 0.244295
vt 0.417740 0.144940
vt 0.464707 0.326621
vt 0.478064 0.302870
vt 0.794539 0.691718
vt 0.780537 0.668982
vt 0.766383 0.020486
vt 0.684213 0.046665
vt 0.665221 0.052106
vt 0.648808 0.005965
vt 0.627396 0.037306
vt 0.437557 0.075364
vt 0.409601 0.099655
vt 0.463475 0.046732
vt 0.413487 0.123060
vt 0.595558 0.028959
vt 0.684244 0.004351
vt 0.761373 0.000000
vt 0.807778 0.005182
vt 0.782783 0.004631
vt 0.450635 0.638923
vt 0.000000 0.512411
vt 0.775682 0.884014
vt 0.809492 0.926184
vt 0.847128 0.973741
vt 0.801768 0.978981
vt 0.380840 0.928174
vt 0.369125 0.967509
vt 0.354908 0.948436
vt 0.397530 0.941780
vt 0.434951 1.000000
vt 0.413765 0.998513
vt 0.349421 0.913030
vt 0.403494 0.839941
vt 0.750400 0.875045
vt 0.719351 0.893297
vt 0.684244 0.886448
vt 0.462051 0.282566
vt 0.414820 0.808807
vt 0.470946 0.646549
vt 0.485550 0.735571
vt 0.459425 0.806536
vt 0.464262 0.776895
vt 0.441382 0.819406
vt 0.478841 0.694345
vt 0.715098 0.917898
vt 0.369151 0.130446
vt 0.622302 0.000000
vt 0.507742 0.685432
vt 0.507428 0.709511
vt 0.597252 0.002789
vt 0.012594 0.663501
vt 0.012594 0.732658
vt 0.000000 0.706048
vt 0.548933 0.008467
vt 0.404547 0.063479
vt 0.424989 0.038287
vt 0.388841 0.116864
vt 0.387690 0.094657
vt 0.443109 0.025662
vt 0.509289 0.012693
vt 0.771761 0.903279
vt 0.790167 0.925059
vt 0.785373 0.946159
vt 0.780513 0.979750
vt 0.442904 0.941953
vt 0.452660 0.904786
vt 0.435452 0.961596
vt 0.456390 0.962419
vt 0.471340 0.989022
vt 0.743819 0.974711
vt 0.423875 0.829905
vt 0.438736 0.871019
vt 0.768425 0.922965
vt 0.514018 0.735285
vt 0.507834 0.822567
vt 0.512357 0.783485
vt 0.456912 0.835395
vt 0.349421 0.070430
vt 0.482593 0.954234
vt 0.514018 0.938428
vt 0.499013 0.910199
vt 0.477342 0.895830
vt 0.550613 0.712832
vt 0.543861 0.645706
vt 0.550613 0.624771
vt 0.478441 0.861587
vt 0.465331 0.878720
s 1
usemtl Material_with_Texture.132
f 1/1/1 2/2/2 3/3/3
f 4/4/4 1/5/1 3/6/3
f 5/7/5 1/5/1 4/4/4
f 2/2/2 1/1/1 6/8/6
f 7/9/7 6/10/6 1/5/1
f 7/9/7 1/5/1 5/7/5
f 8/11/8 2/2/2 6/8/6
f 9/12/9 3/3/3 2/2/2
f 10/13/10 2/2/2 11/14/11
f 9/12/9 2/2/2 10/13/10
f 2/2/2 8/11/8 11/14/11
f 12/15/12 4/4/4 3/6/3
f 3/3/3 9/12/9 12/16/12
f 13/17/13 4/4/4 12/15/12
f 5/7/5 4/4/4 13/17/13
f 14/18/14 7/9/7 5/7/5
f 5/7/5 13/17/13 14/18/14
f 6/8/6 15/19/15 8/11/8
f 16/20/16 6/10/6 7/9/7
f 16/20/16 15/21/15 6/10/6
f 14/18/14 17/22/17 7/9/7
f 16/20/16 7/9/7 17/22/17
f 18/23/18 19/24/19 8/11/8
f 15/19/15 18/23/18 8/11/8
f 20/25/20 8/11/8 19/24/19
f 21/26/21 11/14/11 8/11/8
f 8/11/8 20/25/20 22/27/22
f 22/27/22 21/26/21 8/11/8
f 12/16/12 9/12/9 23/28/23
f 23/28/23 9/12/9 24/29/24
f 9/12/9 10/13/10 24/29/24
f 25/30/25 10/13/10 11/14/11
f 25/30/25 26/31/26 10/13/10
f 10/13/10 26/31/26 24/29/24
f 11/14/11 21/26/21 27/32/27
f 28/33/28 11/14/11 29/34/29
f 25/30/25 11/14/11 28/33/28
f 27/32/27 29/34/29 11/14/11
f 13/17/13 12/15/12 30/35/30
f 12/15/12 23/36/23 30/35/30
f 31/37/31 32/38/32 13/39/13
f 31/37/31 13/39/13 30/40/30
f 14/41/14 13/39/13 32/38/32
f 32/38/32 17/42/17 14/41/14
f 18/43/18 15/21/15 33/44/33
f 34/45/34 15/21/15 16/20/16
f 15/21/15 34/45/34 33/44/33
f 16/46/16 35/47/35 34/48/34
f 16/46/16 17/42/17 35/47/35
f 36/49/36 17/42/17 32/38/32
f 17/42/17 37/50/37 35/47/35
f 36/49/36 37/50/37 17/42/17
f 19/51/19 18/43/18 33/44/33
f 38/52/38 39/53/39 19/51/19
f 39/54/39 20/25/20 19/24/19
f 19/51/19 33/44/33 40/55/40
f 38/52/38 19/51/19 40/55/40
f 20/25/20 39/54/39 22/27/22
f 21/26/21 22/27/22 41/56/41
f 27/32/27 21/26/21 42/57/42
f 21/26/21 41/56/41 42/57/42
f 39/54/39 43/58/43 22/27/22
f 43/58/43 41/56/41 22/27/22
f 23/59/23 24/60/24 44/61/44
f 44/61/44 31/37/31 23/59/23
f 23/62/23 31/63/31 30/64/30
f 24/65/24 26/66/26 44/67/44
f 28/33/28 45/68/45 25/30/25
f 26/31/26 25/30/25 45/68/45
f 45/69/45 46/70/46 26/71/26
f 26/66/26 46/72/46 47/73/47
f 26/66/26 47/73/47 44/67/44
f 29/34/29 27/32/27 48/74/48
f 49/75/49 27/32/27 42/57/42
f 49/76/49 48/77/48 27/78/27
f 28/33/28 50/79/50 45/68/45
f 29/80/29 50/81/50 28/82/28
f 51/83/51 50/81/50 29/80/29
f 29/80/29 52/84/52 51/83/51
f 29/80/29 53/85/53 52/84/52
f 48/74/48 53/86/53 29/34/29
f 46/87/46 32/38/32 31/37/31
f 31/37/31 44/61/44 47/88/47
f 31/37/31 47/88/47 46/87/46
f 54/89/54 32/38/32 55/90/55
f 56/91/56 36/49/36 32/38/32
f 57/92/57 32/38/32 54/89/54
f 56/91/56 32/38/32 57/92/57
f 51/83/51 32/93/32 50/81/50
f 50/81/50 32/93/32 46/94/46
f 32/93/32 51/83/51 55/95/55
f 33/44/33 34/45/34 58/96/58
f 40/55/40 33/44/33 59/97/59
f 58/96/58 59/97/59 33/44/33
f 60/98/60 34/48/34 35/47/35
f 34/48/34 60/98/60 58/99/58
f 35/47/35 37/50/37 60/98/60
f 37/50/37 36/49/36 56/91/56
f 37/50/37 56/91/56 61/100/61
f 37/50/37 61/100/61 60/98/60
f 39/53/39 38/52/38 62/101/62
f 38/52/38 40/55/40 63/102/63
f 64/103/64 38/52/38 63/102/63
f 62/101/62 38/52/38 64/103/64
f 65/104/65 43/58/43 39/54/39
f 39/54/39 66/105/66 65/104/65
f 66/106/66 39/53/39 62/101/62
f 59/97/59 63/102/63 40/55/40
f 67/107/67 68/108/68 41/56/41
f 41/56/41 68/108/68 42/57/42
f 41/56/41 69/109/69 67/107/67
f 43/58/43 69/109/69 41/56/41
f 49/76/49 42/110/42 70/111/70
f 71/112/71 70/111/70 42/110/42
f 42/110/42 68/113/68 71/112/71
f 43/58/43 65/104/65 72/114/72
f 73/115/73 43/58/43 74/116/74
f 43/58/43 72/114/72 74/116/74
f 75/117/75 69/109/69 43/58/43
f 75/117/75 43/58/43 73/115/73
f 45/118/45 50/81/50 46/94/46
f 48/77/48 49/76/49 76/119/76
f 77/120/77 53/86/53 48/74/48
f 77/120/77 48/74/48 76/121/76
f 76/119/76 49/76/49 78/122/78
f 78/122/78 49/76/49 70/111/70
f 51/83/51 52/84/52 55/95/55
f 55/95/55 52/84/52 54/123/54
f 53/85/53 54/123/54 52/84/52
f 53/85/53 79/124/79 54/123/54
f 79/124/79 53/85/53 77/125/77
f 79/126/79 80/127/80 54/89/54
f 54/89/54 80/127/80 57/92/57
f 56/91/56 80/127/80 61/100/61
f 56/91/56 57/92/57 80/127/80
f 81/128/81 59/129/59 58/99/58
f 81/128/81 58/99/58 60/98/60
f 81/128/81 63/130/63 59/129/59
f 82/131/82 60/98/60 61/100/61
f 83/132/83 84/133/84 60/98/60
f 83/132/83 60/98/60 82/131/82
f 60/98/60 84/133/84 81/128/81
f 82/131/82 61/100/61 85/134/85
f 85/134/85 61/100/61 80/127/80
f 86/135/86 66/106/66 62/101/62
f 86/135/86 62/101/62 64/103/64
f 63/102/63 87/136/87 64/103/64
f 88/137/88 63/130/63 81/128/81
f 89/138/89 63/130/63 88/137/88
f 89/139/89 87/136/87 63/102/63
f 90/140/90 64/103/64 87/136/87
f 64/103/64 90/140/90 86/135/86
f 65/141/65 66/106/66 91/142/91
f 72/143/72 65/144/65 92/145/92
f 65/144/65 91/146/91 92/145/92
f 93/147/93 91/142/91 66/106/66
f 86/135/86 93/147/93 66/106/66
f 71/112/71 68/113/68 67/148/67
f 71/112/71 67/148/67 94/149/94
f 67/107/67 95/150/95 94/151/94
f 96/152/96 67/107/67 69/109/69
f 96/152/96 95/150/95 67/107/67
f 97/153/97 96/154/96 69/155/69
f 97/153/97 69/155/69 75/156/75
f 71/112/71 98/157/98 70/111/70
f 70/111/70 98/157/98 99/158/99
f 100/159/100 70/111/70 101/160/101
f 99/158/99 101/160/101 70/111/70
f 78/122/78 70/111/70 100/159/100
f 71/112/71 94/149/94 98/157/98
f 74/161/74 72/162/72 102/163/102
f 72/143/72 92/145/92 103/164/103
f 102/165/102 72/143/72 104/166/104
f 105/167/105 72/143/72 103/164/103
f 72/143/72 105/167/105 104/166/104
f 73/168/73 74/169/74 102/170/102
f 75/156/75 73/171/73 102/172/102
f 102/172/102 97/153/97 75/156/75
f 79/126/79 76/173/76 80/127/80
f 79/124/79 77/125/77 76/174/76
f 76/173/76 85/134/85 80/127/80
f 78/122/78 106/175/106 76/119/76
f 85/176/85 76/119/76 106/175/106
f 106/175/106 78/122/78 100/159/100
f 101/177/101 107/178/107 81/128/81
f 81/128/81 107/178/107 88/137/88
f 101/177/101 81/128/81 84/133/84
f 106/179/106 82/131/82 85/134/85
f 82/131/82 106/179/106 108/180/108
f 108/180/108 83/132/83 82/131/82
f 83/132/83 101/177/101 84/133/84
f 108/181/108 101/160/101 83/182/83
f 93/147/93 86/135/86 109/183/109
f 109/183/109 86/135/86 90/140/90
f 90/184/90 87/185/87 110/186/110
f 111/187/111 87/185/87 89/138/89
f 111/187/111 110/186/110 87/185/87
f 112/188/112 88/137/88 113/189/113
f 114/190/114 88/137/88 112/188/112
f 115/191/115 113/189/113 88/137/88
f 107/178/107 115/191/115 88/137/88
f 116/192/116 88/137/88 114/190/114
f 116/192/116 89/138/89 88/137/88
f 111/187/111 89/138/89 116/192/116
f 110/186/110 117/193/117 90/184/90
f 109/183/109 90/140/90 117/194/117
f 93/147/93 92/195/92 91/142/91
f 118/196/118 92/195/92 93/147/93
f 92/145/92 118/197/118 103/164/103
f 93/147/93 109/183/109 117/194/117
f 117/194/117 118/196/118 93/147/93
f 119/198/119 94/151/94 95/150/95
f 120/199/120 98/157/98 94/149/94
f 94/149/94 119/200/119 120/199/120
f 95/201/95 121/202/121 119/200/119
f 122/203/122 95/204/95 96/205/96
f 95/204/95 122/203/122 123/206/123
f 124/207/124 121/208/121 95/204/95
f 124/207/124 95/204/95 123/206/123
f 96/205/96 97/209/97 122/203/122
f 97/209/97 102/165/102 125/210/125
f 122/203/122 97/209/97 125/210/125
f 126/211/126 98/157/98 120/199/120
f 99/158/99 98/157/98 126/211/126
f 127/212/127 99/158/99 126/211/126
f 127/212/127 107/213/107 99/158/99
f 99/158/99 107/213/107 101/160/101
f 101/160/101 108/181/108 100/159/100
f 100/214/100 108/180/108 106/179/106
f 102/165/102 104/166/104 128/215/128
f 125/210/125 102/165/102 128/215/128
f 103/164/103 117/216/117 105/167/105
f 118/197/118 117/216/117 103/164/103
f 129/217/129 104/166/104 105/167/105
f 130/218/130 104/166/104 131/219/131
f 104/166/104 129/217/129 131/219/131
f 104/166/104 132/220/132 128/215/128
f 104/166/104 130/218/130 132/220/132
f 133/221/133 105/167/105 117/216/117
f 105/167/105 133/221/133 129/217/129
f 134/222/134 107/213/107 127/212/127
f 107/178/107 134/223/134 115/191/115
f 110/186/110 111/187/111 135/224/135
f 117/216/117 110/225/110 135/226/136
f 136/227/137 135/224/137 110/186/137
f 137/228/138 111/229/111 116/230/116
f 135/224/135 111/187/111 136/227/139
f 137/231/138 136/227/139 111/187/111
f 113/189/113 138/232/140 112/188/112
f 114/190/114 112/188/112 139/233/141
f 112/188/112 138/232/140 139/233/141
f 115/191/115 140/234/142 113/189/113
f 141/235/143 113/189/113 140/234/142
f 141/235/143 138/232/140 113/189/113
f 142/236/144 143/237/145 114/190/114
f 142/236/144 114/190/114 139/233/141
f 116/192/116 114/190/114 143/237/145
f 134/223/134 140/234/142 115/191/115
f 116/192/116 143/237/145 137/231/138
f 135/226/136 133/221/133 117/216/117
f 144/238/146 120/199/120 119/200/119
f 144/238/146 119/200/119 145/239/147
f 119/200/119 121/202/121 146/240/148
f 119/200/119 146/240/148 145/239/147
f 120/199/120 144/238/146 126/211/126
f 124/241/124 146/240/148 121/202/121
f 125/210/125 123/206/123 122/203/122
f 147/242/149 123/206/123 148/243/150
f 124/207/124 123/206/123 149/244/151
f 125/210/125 148/243/150 123/206/123
f 149/244/151 123/206/123 147/242/149
f 124/207/124 149/244/151 150/245/152
f 151/246/153 124/207/124 150/245/152
f 151/247/153 146/240/148 124/241/124
f 152/248/154 153/249/155 125/210/125
f 128/215/128 152/248/154 125/210/125
f 148/243/150 125/210/125 153/249/155
f 126/211/126 154/250/156 127/212/127
f 144/238/146 154/250/156 126/211/126
f 134/222/134 127/212/127 154/250/156
f 152/248/154 128/215/128 132/220/132
f 133/221/133 136/251/139 129/217/129
f 129/217/129 136/251/139 131/219/131
f 143/252/145 130/218/130 137/253/138
f 155/254/157 130/218/130 143/252/145
f 137/253/138 130/218/130 131/219/131
f 130/218/130 155/254/157 132/220/132
f 131/219/131 136/251/139 137/253/138
f 152/248/154 132/220/132 153/249/155
f 155/254/157 153/249/155 132/220/132
f 133/221/133 135/226/136 136/251/139
f 151/255/153 141/235/143 134/223/134
f 141/235/143 140/234/142 134/223/134
f 146/240/148 134/222/134 154/250/156
f 134/222/134 146/240/148 151/247/153
f 141/235/143 151/255/153 138/232/140
f 151/246/153 156/256/158 138/257/140
f 156/256/158 139/258/141 138/257/140
f 139/258/141 156/256/158 148/243/150
f 148/243/150 157/259/159 139/258/141
f 143/260/145 142/261/144 139/262/141
f 143/252/145 139/258/141 158/263/160
f 157/259/159 158/263/160 139/258/141
f 155/254/157 143/252/145 158/263/160
f 154/250/156 144/238/146 145/239/147
f 145/239/147 146/240/148 154/250/156
f 147/242/149 148/243/150 150/245/152
f 150/245/152 149/244/151 147/242/149
f 148/243/150 156/256/158 150/245/152
f 159/264/161 157/259/159 148/243/150
f 159/264/161 148/243/150 153/249/155
f 150/245/152 156/256/158 151/246/153
f 158/263/160 159/264/161 153/249/155
f 153/249/155 155/254/157 158/263/160
f 159/264/161 158/263/160 157/259/159
