# Blender v3.5.0 OBJ File: ''
# www.blender.org
mtllib little_medial_rvs.mtl
o little_medial_rvs
v 0.031547 -0.132250 -0.045774
v 0.030906 -0.131724 -0.046719
v 0.033384 -0.133430 -0.046929
v 0.030091 -0.130211 -0.045145
v 0.030553 -0.130215 -0.044688
v 0.029985 -0.130611 -0.045603
v 0.034343 -0.130799 -0.044425
v 0.033132 -0.133203 -0.045935
v 0.032556 -0.132318 -0.051070
v 0.029923 -0.130544 -0.047012
v 0.033701 -0.133297 -0.045882
v 0.033290 -0.133002 -0.048849
v 0.034730 -0.132038 -0.048507
v 0.035028 -0.132689 -0.046251
v 0.028352 -0.128582 -0.045321
v 0.029851 -0.129287 -0.044698
v 0.030905 -0.129261 -0.044227
v 0.026151 -0.127343 -0.048065
v 0.034661 -0.132731 -0.045510
v 0.034822 -0.131879 -0.044982
v 0.033341 -0.129915 -0.044109
v 0.032012 -0.129361 -0.044005
v 0.034683 -0.130225 -0.044910
v 0.033591 -0.132680 -0.051344
v 0.029788 -0.129707 -0.049626
v 0.030514 -0.130069 -0.050694
v 0.033123 -0.131996 -0.051645
v 0.034600 -0.130472 -0.048188
v 0.035137 -0.130914 -0.049886
v 0.034478 -0.132063 -0.051550
v 0.035219 -0.131331 -0.045492
v 0.034999 -0.130567 -0.046674
v 0.023801 -0.124851 -0.044249
v 0.026191 -0.126102 -0.043915
v 0.028618 -0.128265 -0.044723
v 0.030401 -0.128480 -0.044928
v 0.029354 -0.127576 -0.044609
v 0.031404 -0.128384 -0.044599
v 0.026589 -0.126486 -0.049550
v 0.022455 -0.124133 -0.047608
v 0.021730 -0.123323 -0.048203
v 0.020694 -0.121411 -0.049291
v 0.033310 -0.129100 -0.044366
v 0.034782 -0.130065 -0.046387
v 0.033488 -0.128983 -0.046086
v 0.034338 -0.130663 -0.051907
v 0.029500 -0.128792 -0.050212
v 0.030364 -0.128927 -0.050812
v 0.031157 -0.129392 -0.051284
v 0.031311 -0.130396 -0.051128
v 0.034498 -0.129552 -0.049628
v 0.033194 -0.128941 -0.047808
v 0.034831 -0.130902 -0.051545
v 0.034630 -0.130218 -0.051473
v 0.024440 -0.124325 -0.042895
v 0.020002 -0.121340 -0.040567
v 0.020997 -0.120911 -0.040011
v 0.017999 -0.120751 -0.042263
v 0.027768 -0.126547 -0.044091
v 0.030528 -0.128046 -0.046048
v 0.023217 -0.121677 -0.049451
v 0.023749 -0.121178 -0.044723
v 0.029924 -0.127448 -0.048745
v 0.025445 -0.123350 -0.043461
v 0.029290 -0.127964 -0.050020
v 0.028822 -0.127000 -0.049700
v 0.017661 -0.121020 -0.046200
v 0.018003 -0.119767 -0.048821
v 0.019078 -0.119467 -0.049694
v 0.022052 -0.120962 -0.049501
v 0.033776 -0.129639 -0.051820
v 0.031092 -0.128065 -0.050751
v 0.029792 -0.127710 -0.049828
v 0.031725 -0.128808 -0.051394
v 0.032696 -0.128939 -0.051582
v 0.034277 -0.129547 -0.051377
v 0.032701 -0.128462 -0.051039
v 0.022709 -0.121271 -0.041053
v 0.025142 -0.123962 -0.042868
v 0.018440 -0.119941 -0.040670
v 0.020213 -0.119994 -0.039516
v 0.021345 -0.119317 -0.039583
v 0.016517 -0.119801 -0.044385
v 0.017325 -0.119998 -0.042567
v 0.022064 -0.120211 -0.049293
v 0.021276 -0.117629 -0.048342
v 0.021669 -0.117220 -0.041519
v 0.023495 -0.120827 -0.042094
v 0.016458 -0.119393 -0.046474
v 0.016657 -0.119386 -0.047116
v 0.018130 -0.118333 -0.049431
v 0.017253 -0.119041 -0.048201
v 0.019740 -0.118771 -0.049771
v 0.020539 -0.117974 -0.049287
v 0.022097 -0.118948 -0.040147
v 0.020261 -0.117256 -0.041229
v 0.019863 -0.118184 -0.039927
v 0.020279 -0.117730 -0.043343
v 0.019951 -0.118038 -0.044262
v 0.019631 -0.118983 -0.039364
v 0.018733 -0.119179 -0.044518
v 0.019406 -0.118800 -0.044248
v 0.020476 -0.119261 -0.039364
v 0.020730 -0.118559 -0.039505
v 0.018583 -0.119328 -0.045342
v 0.019499 -0.116860 -0.048670
v 0.019665 -0.116296 -0.047604
v 0.020246 -0.116158 -0.043152
v 0.021377 -0.117952 -0.040138
v 0.020539 -0.116478 -0.041844
v 0.020526 -0.116995 -0.040868
v 0.018057 -0.118925 -0.047232
v 0.018517 -0.117422 -0.049057
v 0.019428 -0.118141 -0.046511
v 0.020226 -0.117217 -0.040365
v 0.020110 -0.117601 -0.043979
v 0.019497 -0.118362 -0.044610
v 0.019880 -0.117122 -0.044489
v 0.019861 -0.118019 -0.044910
v 0.019309 -0.118838 -0.044923
vt 0.214634 0.098934
vt 0.174859 0.124498
vt 0.185625 0.012009
vt 0.226825 0.193681
vt 0.247133 0.183326
vt 0.209173 0.184085
vt 0.284843 0.064982
vt 0.220508 0.030272
vt 0.026115 0.039310
vt 0.156572 0.179521
vt 0.226671 0.012424
vt 0.113815 0.014434
vt 0.835971 0.821453
vt 0.901769 0.831846
vt 0.832325 0.895001
vt 0.899950 0.918798
vt 0.846543 0.934066
vt 0.207226 0.281543
vt 0.241430 0.225869
vt 0.845792 0.532341
vt 0.832325 0.499670
vt 0.861328 0.491792
vt 0.886866 0.372782
vt 0.089284 0.358036
vt 0.247391 0.001939
vt 0.267955 0.021651
vt 0.917650 0.458320
vt 0.916749 0.406677
vt 0.928689 0.508919
vt 0.928689 0.372782
vt 0.916749 0.378600
vt 0.888865 0.407837
vt 0.694951 0.753229
vt 0.712959 0.755624
vt 0.701873 0.801523
vt 0.023655 0.000000
vt 0.058708 0.189345
vt 0.024597 0.154137
vt 0.743326 0.783120
vt 0.719011 0.771616
vt 0.731933 0.656951
vt 0.734782 0.811117
vt 0.888936 0.946648
vt 0.848473 0.726767
vt 0.661249 0.839851
vt 0.573132 0.835525
vt 0.575758 0.787559
vt 0.520156 0.828256
vt 0.936906 0.776655
vt 0.888880 0.717433
vt 0.936906 0.943171
vt 0.683529 0.801478
vt 0.634698 0.786320
vt 0.212736 0.506888
vt 0.242900 0.411239
vt 0.231250 0.285418
vt 0.883369 0.529779
vt 0.885026 0.566383
vt 0.851691 0.582524
vt 0.901794 0.494311
vt 0.877446 0.452832
vt 0.037403 0.358813
vt 0.078423 0.543189
vt 0.050927 0.580131
vt 0.002702 0.650356
vt 0.913460 0.963902
vt 0.915515 0.423489
vt 0.640922 0.764871
vt 0.636273 0.700829
vt 0.698346 0.683849
vt 0.811778 0.785859
vt 0.774642 0.821973
vt 0.034740 0.216811
vt 0.230152 0.889196
vt 0.204061 0.859051
vt 0.230152 0.834168
vt 0.018918 0.186059
vt 0.768261 0.661933
vt 0.743155 0.689955
vt 0.760991 0.625406
vt 0.517620 0.773539
vt 0.570823 0.708005
vt 0.457068 0.835359
vt 0.454628 0.811407
vt 0.925291 0.714135
vt 0.816397 0.803221
vt 0.267437 0.509870
vt 0.320388 0.720599
vt 0.348199 0.706772
vt 0.242797 0.781331
vt 0.856622 0.666890
vt 0.877089 0.617060
vt 0.248067 0.355358
vt 0.651901 0.599530
vt 0.609736 0.601312
vt 0.650751 0.546263
vt 0.913163 0.552390
vt 0.395627 0.279067
vt 0.570034 0.236070
vt 0.503382 0.594745
vt 0.640531 0.325068
vt 0.916749 0.714135
vt 0.671272 0.619102
vt 0.734850 0.452110
vt 0.760325 0.566778
vt 0.742314 0.594216
vt 0.733460 0.161153
vt 0.775586 0.527993
vt 0.094692 0.761801
vt 0.000000 0.768687
vt 0.712959 0.042678
vt 0.749779 0.070765
vt 0.780160 0.189307
vt 0.788430 0.239087
vt 0.826900 0.744437
vt 0.432308 0.777711
vt 0.438762 0.819920
vt 0.803367 0.624122
vt 0.779549 0.573327
vt 0.799121 0.664099
vt 0.819717 0.695591
vt 0.451943 0.783777
vt 0.446427 0.712253
vt 0.154274 0.834168
vt 0.154274 0.933966
vt 0.122463 0.881268
vt 0.942513 0.641924
vt 0.942892 0.714135
vt 0.916749 0.656942
vt 0.942892 0.553930
vt 0.304833 0.798231
vt 0.360580 0.754169
vt 0.057073 0.836913
vt 0.082864 0.834168
vt 0.078104 0.882079
vt 0.106483 0.835161
vt 0.153210 0.834168
vt 0.226455 0.817081
vt 0.662970 0.328421
vt 0.652023 0.474347
vt 0.801421 0.169856
vt 0.457573 0.563862
vt 0.384887 0.209606
vt 0.400270 0.112282
vt 0.650623 0.049150
vt 0.662341 0.196423
vt 0.464109 0.608283
vt 0.696520 0.179118
vt 0.075408 0.834168
vt 0.053117 0.825189
vt 0.758159 0.014764
vt 0.713882 0.000000
vt 0.017291 0.811092
vt 0.786079 0.072590
vt 0.827499 0.072231
vt 0.428984 0.729801
vt 0.832325 0.680585
vt 0.442349 0.658724
vt 0.712959 0.093527
vt 0.082864 0.864232
vt 0.856421 0.287740
vt 0.965605 0.334089
vt 0.880440 0.344150
vt 0.893073 0.216696
vt 0.916687 0.186348
vt 0.905189 0.372782
vt 0.361738 0.796358
vt 0.204061 0.941237
vt 0.154274 0.882004
vt 0.204061 0.834168
vt 0.973448 0.187479
vt 0.949438 0.194236
vt 0.056921 0.861754
vt 0.028807 0.850699
vt 0.051105 0.888826
vt 0.082864 0.915671
vt 0.755045 0.883275
vt 0.768428 0.821973
vt 0.770238 0.941154
vt 0.832325 0.876041
vt 0.988470 0.159127
vt 1.000000 0.264373
vt 0.361738 0.111624
vt 0.370459 0.050216
vt 0.407831 0.029622
vt 0.574382 0.000000
vt 0.702563 0.048816
vt 0.626116 0.003987
vt 0.664333 0.008587
vt 0.248578 0.834168
vt 0.248578 0.875383
vt 0.230152 0.848206
vt 0.832325 0.938312
vt 0.713263 0.873636
vt 0.755045 0.876357
vt 0.751910 0.912853
vt 0.792888 0.000797
vt 0.755045 0.821973
vt 0.999699 0.085654
vt 0.948707 0.105455
vt 1.000000 0.000000
vt 0.960330 0.004209
vt 0.832325 0.011934
vt 0.048026 0.927563
vt 0.832325 0.257542
vt 0.840653 0.298367
vt 0.847084 0.318418
vt 0.012512 0.884781
vt 0.000000 0.925119
vt 0.896978 0.192058
vt 0.837803 0.206366
vt 0.936844 0.176553
vt 0.888432 0.168038
vt 0.923489 0.162613
vt 0.958542 0.170137
vt 0.893264 0.046296
vt 0.925056 0.013718
vt 0.361738 0.920388
vt 0.318722 0.915391
vt 0.361738 0.834168
vt 0.681510 0.002423
vn -0.5697 -0.8189 -0.0694
vn -0.5725 -0.5858 0.5737
vn -0.7151 -0.6919 0.0999
vn -0.1847 -0.4544 0.8715
vn -0.1384 -0.5181 0.8441
vn -0.5091 -0.8581 0.0669
vn -0.5326 -0.5726 0.6233
vn -0.5700 -0.8150 -0.1049
vn -0.7312 -0.6558 -0.1878
vn -0.7687 -0.6396 0.0034
vn -0.1764 -0.9684 0.1764
vn -0.2836 -0.9388 -0.1954
vn 0.5776 -0.7903 -0.2045
vn 0.4922 -0.8169 -0.3007
vn 0.4143 -0.9101 -0.0098
vn -0.5192 -0.4777 0.7087
vn -0.6244 -0.4656 0.6272
vn -0.5737 -0.5465 0.6101
vn -0.3856 -0.2822 0.8784
vn -0.1239 -0.3943 0.9106
vn -0.6457 -0.7635 -0.0079
vn -0.7229 -0.6232 0.2984
vn -0.1582 -0.4668 0.8701
vn -0.0446 -0.4947 0.8679
vn -0.1403 -0.5023 0.8533
vn -0.1186 -0.4508 0.8847
vn -0.2106 -0.5728 0.7922
vn 0.5388 0.3343 0.7733
vn 0.7950 0.0405 0.6052
vn -0.3638 -0.9172 -0.1623
vn -0.7226 -0.6683 -0.1767
vn -0.7323 -0.6167 -0.2888
vn -0.5480 -0.3724 -0.7490
vn -0.3921 -0.5818 -0.7125
vn -0.5957 -0.7733 -0.2169
vn 0.4496 -0.8763 0.1730
vn 0.5622 -0.8261 -0.0388
vn 0.9896 0.1027 -0.1011
vn 0.9547 0.0187 0.2970
vn 0.9065 -0.4161 -0.0716
vn 0.5643 -0.8246 -0.0400
vn 0.8492 -0.3436 0.4011
vn 0.9796 -0.0264 -0.1994
vn 0.9657 -0.0380 -0.2569
vn -0.4453 -0.7027 0.5549
vn -0.6089 -0.7816 0.1355
vn -0.5316 -0.6274 0.5690
vn -0.4360 -0.7003 0.5652
vn 0.3273 0.0460 0.9438
vn -0.0830 -0.0758 0.9937
vn -0.3681 0.4782 0.7974
vn -0.1361 0.4515 0.8818
vn -0.3112 0.5157 0.7983
vn -0.6108 -0.5943 -0.5231
vn -0.6458 -0.7573 0.0969
vn -0.6569 -0.7291 -0.1920
vn -0.5662 -0.6306 -0.5309
vn -0.5441 -0.6178 -0.5677
vn 0.8833 -0.3560 0.3051
vn 0.7690 0.0368 0.6382
vn 0.1987 0.3016 0.9325
vn 0.5387 0.2719 0.7974
vn 0.1131 0.5666 0.8162
vn 0.6534 0.7467 0.1247
vn 0.9153 0.3891 0.1035
vn 0.6570 0.7445 0.1186
vn -0.0496 -0.2514 -0.9666
vn 0.1432 -0.3149 -0.9383
vn -0.5790 -0.5611 -0.5915
vn -0.8408 -0.1638 -0.5160
vn -0.5270 -0.5697 -0.6306
vn -0.5324 -0.2091 -0.8202
vn -0.5719 -0.1583 -0.8049
vn -0.5593 -0.3986 -0.7268
vn -0.2463 0.0341 -0.9686
vn 0.9028 0.3886 0.1843
vn 0.7350 0.5938 0.3273
vn 0.5910 0.7719 -0.2342
vn 0.7191 0.6867 -0.1060
vn 0.8547 0.4810 -0.1951
vn 0.9402 0.2943 -0.1713
vn 0.8944 0.4374 -0.0939
vn 0.9421 -0.2857 -0.1758
vn 0.5333 -0.1586 -0.8310
vn 0.9287 0.3653 0.0633
vn -0.4553 -0.7361 0.5008
vn -0.0482 -0.7472 0.6628
vn -0.3769 -0.7894 0.4845
vn -0.4855 -0.8259 0.2866
vn -0.5648 -0.8237 0.0503
vn 0.0085 -0.3415 0.9398
vn -0.0586 -0.5397 0.8398
vn 0.1230 -0.2885 0.9496
vn 0.6723 0.6614 0.3325
vn -0.1979 0.9213 0.3346
vn 0.7447 0.6497 -0.1524
vn 0.6413 0.7591 0.1119
vn 0.4645 0.8808 0.0913
vn 0.7451 0.6550 0.1260
vn 0.3511 0.0711 0.9336
vn 0.3406 0.9359 0.0897
vn 0.0296 0.9772 0.2101
vn -0.0534 0.2127 -0.9757
vn -0.0754 -0.0367 -0.9965
vn 0.0099 0.3193 -0.9476
vn -0.5802 -0.7509 -0.3153
vn -0.5204 -0.8478 0.1026
vn -0.5936 -0.6932 -0.4088
vn -0.4848 -0.6160 -0.6209
vn -0.4456 -0.5213 -0.7278
vn -0.0652 -0.2542 -0.9650
vn -0.0834 -0.2041 -0.9754
vn -0.0656 -0.0224 -0.9976
vn 0.3310 0.9385 0.0981
vn 0.4268 0.9029 -0.0509
vn -0.2535 -0.0571 -0.9656
vn 0.5528 0.3669 -0.7482
vn 0.6510 0.2661 -0.7109
vn -0.5647 0.0478 -0.8239
vn -0.3268 0.3384 -0.8824
vn -0.4421 0.4291 -0.7877
vn -0.0168 0.6239 -0.7814
vn -0.4759 0.3076 -0.8239
vn -0.0289 -0.1578 -0.9870
vn -0.2032 -0.1100 -0.9729
vn -0.2524 -0.0610 -0.9657
vn 0.8732 0.4750 -0.1090
vn 0.5558 0.8285 -0.0679
vn 0.4858 0.8723 0.0552
vn 0.3962 0.9151 0.0752
vn 0.5647 0.4003 -0.7217
vn 0.4648 -0.2490 0.8497
vn 0.1870 -0.4275 0.8845
vn 0.1271 -0.3158 0.9403
vn -0.5999 -0.6338 0.4883
vn -0.4860 -0.4893 0.7242
vn -0.1878 -0.5860 0.7882
vn 0.2338 -0.2994 0.9250
vn 0.4421 -0.3214 0.8374
vn -0.6406 -0.7604 0.1070
vn -0.7687 -0.5753 0.2793
vn -0.7472 -0.4856 0.4538
vn 0.6498 0.3380 0.6808
vn 0.1993 0.2586 -0.9452
vn 0.6213 0.6730 -0.4013
vn 0.7689 0.6211 -0.1521
vn 0.8955 0.3664 -0.2527
vn 0.8542 0.5137 -0.0800
vn 0.7897 0.6134 -0.0056
vn 0.8936 0.4481 0.0265
vn 0.1438 0.9577 -0.2492
vn 0.5479 0.7953 -0.2592
vn 0.7385 0.2436 0.6287
vn 0.7325 0.2165 0.6454
vn 0.1571 0.3790 -0.9120
vn -0.7927 -0.6021 -0.0952
vn -0.6714 -0.6307 -0.3891
vn -0.7602 -0.6029 -0.2422
vn -0.7353 -0.2091 -0.6447
vn -0.7731 -0.3429 -0.5337
vn -0.5557 -0.2833 -0.7816
vn -0.1878 0.0702 -0.9797
vn 0.0062 -0.1158 -0.9933
vn 0.3548 0.2443 -0.9025
vn 0.3255 0.2305 -0.9170
vn 0.3595 0.7454 -0.5613
vn 0.0324 0.6697 -0.7419
vn 0.2311 0.9717 -0.0482
vn -0.0264 0.7511 -0.6596
vn 0.3504 0.7021 -0.6199
vn 0.8022 -0.0213 0.5966
vn 0.6349 -0.1298 0.7616
vn -0.7995 0.5770 0.1668
vn -0.7430 0.6680 0.0413
vn -0.7929 0.4877 0.3654
vn -0.5070 -0.4062 0.7603
vn -0.3207 0.9335 0.1604
vn -0.8330 0.5383 -0.1278
vn -0.5249 0.8417 0.1267
vn -0.8132 0.5810 -0.0343
vn -0.0599 -0.1820 0.9815
vn 0.2185 -0.2727 0.9369
vn 0.2493 0.1032 0.9629
vn 0.4741 0.2994 0.8280
vn -0.2006 0.9604 0.1932
vn -0.1251 0.9759 0.1789
vn -0.5528 0.8318 -0.0498
vn 0.6288 0.4304 -0.6475
vn 0.4116 0.7045 -0.5782
vn 0.4219 0.7726 -0.4745
vn 0.6055 0.7891 -0.1035
vn 0.6553 0.7508 -0.0828
vn 0.7322 0.5254 0.4333
vn 0.5289 0.8441 0.0880
vn 0.8812 0.4080 0.2390
vn 0.4294 0.7572 0.4922
vn 0.4048 0.8058 0.4322
vn -0.3181 0.9439 -0.0883
vn -0.1617 0.9550 0.2486
vn -0.2997 0.9443 0.1356
vn -0.0811 0.4078 -0.9095
vn -0.4003 0.8881 0.2258
vn -0.5628 0.8027 0.1974
vn -0.8961 0.2232 0.3837
vn 0.0355 0.4925 -0.8696
vn 0.0430 0.5145 -0.8564
vn 0.4771 0.3376 0.8114
vn -0.9559 0.2847 -0.0720
vn -0.8311 0.4959 0.2516
vn -0.6573 0.7512 -0.0605
vn -0.9426 0.3298 -0.0531
vn 0.1752 0.5326 0.8280
vn -0.0665 0.4323 0.8993
vn -0.9454 0.1603 0.2837
vn -0.9771 -0.0457 0.2077
vn -0.9677 -0.0503 0.2469
vn -0.7212 0.5242 0.4529
vn -0.8962 0.0400 0.4418
vn -0.9897 -0.0430 0.1362
vn -0.6320 0.7671 0.1103
vn -0.4665 0.8814 -0.0745
vn -0.5734 0.8185 0.0363
vn -0.9478 0.2957 0.1195
vn -0.4824 0.3370 0.8085
vn 0.2182 0.5833 0.7824
vn -0.5919 0.7388 0.3223
vn -0.6404 0.7198 0.2679
vn -0.9840 0.1654 0.0657
vn -0.5692 0.7152 0.4056
vn -0.9720 0.2018 0.1206
vn -0.9372 0.2589 0.2337
vn -0.9978 -0.0100 0.0662
vn -0.9389 -0.1002 0.3293
vn 0.3694 0.7485 0.5507
vn -0.9429 0.3251 0.0720
vn -0.6310 0.7677 0.1121
usemtl Material_with_Texture.134
s off
f 1/1/1 2/2/1 3/3/1
f 4/4/2 1/1/2 5/5/2
f 1/1/3 6/6/3 2/2/3
f 7/7/4 1/1/4 8/8/4
f 5/5/5 1/1/5 7/7/5
f 3/3/6 8/8/6 1/1/6
f 6/6/7 1/1/7 4/4/7
f 3/3/8 2/2/8 9/9/8
f 9/9/9 2/2/9 10/10/9
f 6/6/10 10/10/10 2/2/10
f 3/3/11 11/11/11 8/8/11
f 12/12/12 3/3/12 9/9/12
f 12/13/13 13/14/13 3/15/13
f 13/14/14 14/16/14 3/15/14
f 14/16/15 11/17/15 3/15/15
f 15/18/16 4/4/16 16/19/16
f 5/5/17 16/19/17 4/4/17
f 6/6/18 4/4/18 15/18/18
f 16/20/19 5/21/19 17/22/19
f 17/22/20 5/21/20 7/23/20
f 18/24/21 10/10/21 6/6/21
f 6/6/22 15/18/22 18/24/22
f 8/8/23 11/11/23 7/7/23
f 11/11/24 19/25/24 7/7/24
f 19/25/25 20/26/25 7/7/25
f 21/27/26 22/28/26 7/29/26
f 22/28/27 17/30/27 7/29/27
f 7/23/28 23/31/28 21/32/28
f 23/33/29 7/34/29 20/35/29
f 9/9/30 24/36/30 12/12/30
f 10/10/31 25/37/31 9/9/31
f 26/38/32 9/9/32 25/37/32
f 27/39/33 9/40/33 26/41/33
f 27/39/34 24/42/34 9/40/34
f 18/24/35 25/37/35 10/10/35
f 14/16/36 19/43/36 11/17/36
f 13/14/37 12/13/37 24/44/37
f 14/45/38 13/46/38 28/47/38
f 13/46/39 29/48/39 28/47/39
f 29/49/40 13/14/40 30/50/40
f 13/14/41 24/44/41 30/50/41
f 31/51/42 19/43/42 14/16/42
f 31/52/43 14/45/43 32/53/43
f 32/53/44 14/45/44 28/47/44
f 33/54/45 15/18/45 34/55/45
f 33/54/46 18/24/46 15/18/46
f 16/19/47 35/56/47 15/18/47
f 35/56/48 34/55/48 15/18/48
f 36/57/49 37/58/49 16/20/49
f 35/59/50 16/20/50 37/58/50
f 17/22/51 36/57/51 16/20/51
f 38/60/52 17/22/52 22/61/52
f 36/57/53 17/22/53 38/60/53
f 25/37/54 18/24/54 39/62/54
f 18/24/55 33/54/55 40/63/55
f 41/64/56 18/24/56 40/63/56
f 39/62/57 18/24/57 42/65/57
f 18/24/58 41/64/58 42/65/58
f 31/51/59 20/66/59 19/43/59
f 31/52/60 23/33/60 20/35/60
f 22/61/61 21/32/61 43/67/61
f 21/32/62 23/31/62 43/67/62
f 22/61/63 43/67/63 38/60/63
f 44/68/64 45/69/64 23/33/64
f 23/33/65 31/52/65 44/68/65
f 43/70/66 23/33/66 45/69/66
f 24/42/67 46/71/67 30/72/67
f 27/39/68 46/71/68 24/42/68
f 39/62/69 47/73/69 25/37/69
f 48/74/70 26/75/70 25/76/70
f 25/37/71 47/73/71 48/77/71
f 49/78/72 50/79/72 26/41/72
f 49/78/73 26/41/73 48/80/73
f 50/79/74 27/39/74 26/41/74
f 50/79/75 46/71/75 27/39/75
f 29/48/76 51/81/76 28/47/76
f 28/47/77 51/81/77 52/82/77
f 44/68/78 28/47/78 45/69/78
f 28/47/79 52/82/79 45/69/79
f 44/68/80 32/53/80 28/47/80
f 53/83/81 54/84/81 29/48/81
f 29/48/82 54/84/82 51/81/82
f 53/85/83 29/49/83 30/50/83
f 53/86/84 30/72/84 46/71/84
f 32/53/85 44/68/85 31/52/85
f 55/87/86 33/54/86 34/55/86
f 56/88/87 33/54/87 57/89/87
f 57/89/88 33/54/88 55/87/88
f 33/54/89 56/88/89 58/90/89
f 40/63/90 33/54/90 58/90/90
f 34/91/91 35/59/91 59/92/91
f 34/55/92 59/93/92 55/87/92
f 37/58/93 59/92/93 35/59/93
f 36/94/94 60/95/94 37/96/94
f 36/57/95 38/60/95 60/97/95
f 37/96/96 61/98/96 62/99/96
f 63/100/97 61/98/97 37/96/97
f 37/96/98 60/95/98 63/100/98
f 37/96/99 62/99/99 64/101/99
f 64/102/100 59/92/100 37/58/100
f 63/100/101 38/103/101 43/70/101
f 63/100/102 60/95/102 38/103/102
f 39/104/103 65/105/103 47/106/103
f 42/107/104 66/108/104 39/104/104
f 39/104/105 66/108/105 65/105/105
f 67/109/106 41/64/106 40/63/106
f 58/90/107 67/109/107 40/63/107
f 68/110/108 41/64/108 67/109/108
f 42/65/109 41/64/109 68/110/109
f 42/107/110 68/111/110 69/112/110
f 42/107/111 69/112/111 70/113/111
f 42/107/112 70/113/112 61/114/112
f 61/114/113 66/108/113 42/107/113
f 43/70/114 45/69/114 63/100/114
f 45/69/115 52/82/115 63/100/115
f 46/71/116 50/79/116 71/115/116
f 71/116/117 54/84/117 46/117/117
f 53/83/118 46/117/118 54/84/118
f 65/105/119 48/80/119 47/106/119
f 72/118/120 49/78/120 48/80/120
f 73/119/121 72/118/121 48/80/121
f 73/119/122 48/80/122 65/105/122
f 49/78/123 72/118/123 74/120/123
f 50/79/124 49/78/124 74/120/124
f 75/121/125 50/79/125 74/120/125
f 71/115/126 50/79/126 75/121/126
f 51/81/127 54/84/127 76/122/127
f 76/122/128 77/123/128 51/81/128
f 77/123/129 52/82/129 51/81/129
f 63/100/130 52/82/130 77/123/130
f 71/116/131 76/122/131 54/84/131
f 57/124/132 55/125/132 78/126/132
f 79/127/133 78/128/133 55/129/133
f 59/130/134 79/127/134 55/129/134
f 80/131/135 58/90/135 56/88/135
f 80/131/136 56/88/136 81/132/136
f 56/88/137 57/89/137 81/132/137
f 81/133/138 57/134/138 82/135/138
f 57/124/139 78/126/139 82/136/139
f 67/109/140 58/90/140 83/137/140
f 58/90/141 84/138/141 83/137/141
f 84/138/142 58/90/142 80/131/142
f 64/101/143 79/139/143 59/140/143
f 85/141/144 61/114/144 70/113/144
f 66/142/145 61/98/145 63/100/145
f 61/98/146 85/143/146 62/99/146
f 62/99/147 85/143/147 86/144/147
f 87/145/148 62/99/148 86/144/148
f 62/99/149 88/146/149 64/101/149
f 87/145/150 88/146/150 62/99/150
f 63/100/151 77/123/151 73/147/151
f 73/147/152 66/142/152 63/100/152
f 78/148/153 79/139/153 64/101/153
f 64/101/154 88/146/154 78/148/154
f 66/108/155 73/119/155 65/105/155
f 67/109/156 83/137/156 89/149/156
f 90/150/157 68/110/157 67/109/157
f 90/150/158 67/109/158 89/149/158
f 91/151/159 68/111/159 92/152/159
f 90/150/160 92/153/160 68/110/160
f 91/151/161 69/112/161 68/111/161
f 69/112/162 91/151/162 93/154/162
f 70/113/163 69/112/163 93/154/163
f 70/113/164 94/155/164 85/141/164
f 70/113/165 93/154/165 94/155/165
f 71/116/166 75/156/166 76/122/166
f 72/118/167 77/157/167 74/120/167
f 72/158/168 73/147/168 77/123/168
f 77/157/169 75/121/169 74/120/169
f 77/123/170 76/122/170 75/156/170
f 95/159/171 78/148/171 88/146/171
f 82/136/172 78/126/172 95/160/172
f 96/161/173 80/162/173 97/163/173
f 80/162/174 98/164/174 99/165/174
f 97/163/175 80/162/175 100/166/175
f 80/131/176 81/132/176 100/167/176
f 101/168/177 84/169/177 80/170/177
f 98/164/178 80/162/178 96/161/178
f 101/171/179 80/162/179 102/172/179
f 99/165/180 102/172/180 80/162/180
f 103/173/181 100/174/181 81/133/181
f 81/133/182 82/135/182 103/173/182
f 103/173/183 82/135/183 104/175/183
f 104/175/184 82/135/184 95/176/184
f 83/177/185 84/178/185 89/179/185
f 84/178/186 105/180/186 89/179/186
f 101/171/187 105/181/187 84/182/187
f 86/144/188 85/143/188 94/183/188
f 106/184/189 86/144/189 94/183/189
f 86/144/190 106/184/190 107/185/190
f 107/185/191 108/186/191 86/144/191
f 86/144/192 108/186/192 87/145/192
f 87/145/193 109/187/193 95/159/193
f 110/188/194 87/145/194 108/186/194
f 95/159/195 88/146/195 87/145/195
f 109/187/196 87/145/196 111/189/196
f 110/188/197 111/189/197 87/145/197
f 89/190/198 112/191/198 90/192/198
f 105/180/199 112/193/199 89/179/199
f 112/194/200 92/195/200 90/196/200
f 93/154/201 91/151/201 113/197/201
f 112/194/202 91/198/202 92/195/202
f 112/199/203 114/200/203 91/201/203
f 114/200/204 113/202/204 91/201/204
f 113/197/205 94/155/205 93/154/205
f 106/203/206 94/155/206 113/197/206
f 104/175/207 95/176/207 109/204/207
f 110/205/208 98/164/208 96/161/208
f 110/205/209 96/161/209 111/206/209
f 115/207/210 111/206/210 96/161/210
f 96/161/211 97/163/211 115/207/211
f 100/174/212 103/173/212 97/208/212
f 103/173/213 115/209/213 97/208/213
f 98/164/214 116/210/214 99/165/214
f 110/205/215 108/211/215 98/164/215
f 116/210/216 98/164/216 108/211/216
f 102/172/217 99/165/217 117/212/217
f 116/210/218 118/213/218 99/165/218
f 119/214/219 99/165/219 118/213/219
f 99/165/220 119/214/220 117/212/220
f 105/181/221 101/171/221 102/172/221
f 102/172/222 120/215/222 105/181/222
f 120/215/223 102/172/223 117/212/223
f 103/173/224 104/175/224 115/209/224
f 104/175/225 109/204/225 115/209/225
f 114/200/226 112/199/226 105/181/226
f 114/200/227 105/181/227 120/215/227
f 107/216/228 106/217/228 114/200/228
f 106/218/229 113/219/229 114/220/229
f 108/211/230 107/216/230 118/213/230
f 107/216/231 114/200/231 119/214/231
f 118/213/232 107/216/232 119/214/232
f 116/210/233 108/211/233 118/213/233
f 111/189/234 115/221/234 109/187/234
f 114/200/235 120/215/235 117/212/235
f 119/214/236 114/200/236 117/212/236
