# Blender 4.3.0
# www.blender.org
mtllib little_proximal_rvs.mtl
o little_proximal_rvs
v 0.017104 -0.118801 -0.040698
v 0.017964 -0.115112 -0.038993
v 0.015775 -0.116212 -0.040419
v 0.012575 -0.116619 -0.040680
v 0.013766 -0.118370 -0.041032
v 0.015253 -0.119120 -0.041025
v 0.018001 -0.117695 -0.040090
v 0.017521 -0.118845 -0.041714
v 0.016220 -0.113480 -0.038647
v 0.018411 -0.113550 -0.039467
v 0.019205 -0.115383 -0.040075
v 0.012883 -0.113091 -0.039166
v 0.013068 -0.117739 -0.041662
v 0.008726 -0.109109 -0.040509
v 0.013584 -0.118333 -0.041684
v 0.014899 -0.119126 -0.042502
v 0.018898 -0.117153 -0.040767
v 0.018888 -0.116730 -0.042743
v 0.017059 -0.117859 -0.044672
v 0.014928 -0.118401 -0.044815
v 0.013759 -0.112848 -0.038864
v 0.014445 -0.112588 -0.038843
v 0.016335 -0.112182 -0.039608
v 0.018591 -0.113437 -0.041783
v 0.019333 -0.115213 -0.042131
v 0.014551 -0.112054 -0.039768
v 0.009335 -0.106533 -0.038169
v 0.010289 -0.106414 -0.038156
v 0.013067 -0.117364 -0.042349
v 0.002863 -0.097950 -0.037875
v 0.004112 -0.102624 -0.041538
v 0.007264 -0.101823 -0.037071
v 0.012696 -0.116797 -0.044479
v 0.013379 -0.118239 -0.042493
v 0.013915 -0.118081 -0.044722
v 0.018569 -0.115656 -0.044412
v 0.018764 -0.116366 -0.046591
v 0.017117 -0.117938 -0.047375
v 0.014877 -0.118458 -0.045983
v 0.016106 -0.118234 -0.047634
v 0.016820 -0.112096 -0.041441
v 0.015110 -0.111486 -0.041543
v 0.018068 -0.113276 -0.044020
v 0.012172 -0.107777 -0.038878
v 0.010169 -0.103958 -0.037439
v 0.005466 -0.097050 -0.035345
v 0.000493 -0.094776 -0.036094
v 0.002244 -0.098009 -0.038969
v 0.000042 -0.094687 -0.037366
v 0.002044 -0.097902 -0.041162
v 0.006262 -0.104716 -0.044079
v 0.009257 -0.101610 -0.037059
v 0.012585 -0.114317 -0.046657
v 0.013968 -0.117317 -0.047729
v 0.012198 -0.112799 -0.046861
v 0.019136 -0.114417 -0.046403
v 0.018247 -0.116248 -0.048712
v 0.017633 -0.117004 -0.048531
v 0.015166 -0.118092 -0.048143
v 0.016036 -0.117950 -0.048238
v 0.017203 -0.112625 -0.043904
v 0.014819 -0.110719 -0.045573
v 0.009681 -0.102042 -0.045860
v 0.017463 -0.112269 -0.048262
v 0.000515 -0.093337 -0.035177
v 0.003417 -0.091494 -0.032172
v 0.006105 -0.093147 -0.033949
v 0.007212 -0.096587 -0.035468
v -0.000558 -0.093474 -0.036839
v -0.002322 -0.090140 -0.038480
v -0.001579 -0.091279 -0.040130
v -0.000972 -0.090814 -0.042414
v 0.009651 -0.107251 -0.046526
v 0.002327 -0.092522 -0.044097
v 0.007693 -0.091829 -0.035175
v 0.007640 -0.094211 -0.042567
v 0.012643 -0.114400 -0.047224
v 0.012401 -0.113087 -0.047330
v 0.015041 -0.117052 -0.048676
v 0.012135 -0.111749 -0.047295
v 0.012501 -0.111893 -0.047704
v 0.018690 -0.114321 -0.048665
v 0.017713 -0.115804 -0.049269
v 0.013683 -0.110335 -0.047090
v 0.015307 -0.110743 -0.047795
v 0.006777 -0.095011 -0.044629
v 0.016800 -0.112654 -0.048922
v 0.001125 -0.090478 -0.031652
v -0.000546 -0.091485 -0.034050
v 0.003112 -0.090636 -0.031389
v 0.004974 -0.088174 -0.030971
v 0.006875 -0.090026 -0.033016
v -0.002245 -0.090037 -0.039999
v -0.002147 -0.087768 -0.039251
v -0.002037 -0.087042 -0.041164
v -0.002129 -0.088490 -0.040638
v -0.001705 -0.087510 -0.035879
v -0.001739 -0.089451 -0.041148
v -0.001706 -0.089035 -0.042147
v 0.001034 -0.090155 -0.044354
v 0.012451 -0.110961 -0.047712
v 0.004729 -0.091802 -0.044466
v 0.007731 -0.086612 -0.034098
v 0.005655 -0.091526 -0.044355
v 0.006116 -0.085388 -0.043655
v 0.013267 -0.113701 -0.047975
v 0.013594 -0.111910 -0.048380
v 0.017896 -0.114252 -0.049258
v 0.000695 -0.089577 -0.031570
v 0.001712 -0.089581 -0.031011
v 0.002581 -0.088828 -0.030605
v 0.004394 -0.086368 -0.030926
v 0.005942 -0.085599 -0.031620
v 0.006500 -0.087790 -0.031795
v -0.000306 -0.084109 -0.043322
v -0.001534 -0.085783 -0.042384
v 0.005782 -0.083612 -0.034675
v 0.000076 -0.087259 -0.032333
v 0.001109 -0.085663 -0.032572
v -0.001111 -0.087389 -0.043515
v 0.002087 -0.088629 -0.045054
v 0.007129 -0.084844 -0.033918
v 0.003513 -0.083542 -0.044499
v 0.005149 -0.083614 -0.043458
v 0.006630 -0.084295 -0.036356
v 0.001426 -0.088693 -0.031029
v 0.001089 -0.086915 -0.031775
v 0.003836 -0.084749 -0.031965
v 0.005062 -0.084123 -0.032882
v 0.002827 -0.082567 -0.042154
v 0.000230 -0.085293 -0.044427
v 0.001076 -0.083175 -0.043646
v 0.003969 -0.084338 -0.033043
v 0.005016 -0.083089 -0.038220
v 0.002564 -0.083816 -0.044649
v 0.002746 -0.082627 -0.043491
v 0.003949 -0.082713 -0.042545
vn 0.1929 -0.7554 0.6262
vn 0.2361 -0.2071 0.9494
vn -0.1988 -0.3276 0.9237
vn -0.6152 -0.4740 0.6300
vn -0.4650 -0.6587 0.5915
vn -0.1515 -0.8192 0.5531
vn 0.3699 -0.5585 0.7425
vn 0.5098 -0.8585 -0.0554
vn 0.0580 0.0535 0.9969
vn 0.6797 0.4991 0.5375
vn 0.9027 -0.0255 0.4294
vn -0.2452 -0.2051 0.9475
vn -0.8170 -0.5749 -0.0459
vn -0.7439 -0.4924 0.4518
vn -0.6560 -0.7511 0.0750
vn -0.1796 -0.9761 -0.1227
vn 0.8540 -0.4622 0.2387
vn 0.8766 -0.4101 -0.2517
vn 0.5406 -0.8283 -0.1470
vn -0.0329 -0.9909 -0.1305
vn -0.3386 0.2908 0.8949
vn -0.1069 0.5824 0.8058
vn 0.3119 0.8214 0.4775
vn 0.7924 0.6100 -0.0109
vn 0.9889 0.0965 -0.1126
vn 0.2868 0.7069 0.6465
vn -0.3555 -0.3556 0.8644
vn 0.1017 -0.2142 0.9715
vn -0.9017 -0.4294 -0.0507
vn -0.6032 -0.5821 0.5453
vn -0.8866 -0.4610 -0.0381
vn -0.2868 -0.3835 0.8779
vn -0.8549 -0.4897 -0.1713
vn -0.7581 -0.6521 0.0030
vn -0.5138 -0.8373 -0.1869
vn 0.9802 -0.1883 -0.0606
vn 0.8909 -0.4534 -0.0274
vn 0.4966 -0.8488 -0.1816
vn -0.1941 -0.9773 -0.0848
vn 0.2030 -0.9505 -0.2353
vn 0.4803 0.8764 0.0352
vn 0.6183 0.7689 0.1630
vn 0.7975 0.6031 -0.0131
vn 0.7219 0.2770 0.6342
vn 0.4545 -0.0171 0.8906
vn -0.1581 -0.4612 0.8731
vn -0.6321 -0.5564 0.5393
vn -0.7912 -0.5568 0.2529
vn -0.8310 -0.5452 0.1106
vn -0.8847 -0.4451 -0.1384
vn -0.7202 -0.2649 -0.6413
vn 0.6919 0.0466 0.7205
vn -0.9383 -0.2868 -0.1932
vn -0.7201 -0.4878 -0.4934
vn -0.8510 -0.2756 -0.4470
vn 0.9791 0.2020 0.0221
vn 0.7411 -0.4186 -0.5250
vn 0.4881 -0.6636 -0.5669
vn -0.2704 -0.7751 -0.5710
vn 0.1626 -0.7150 -0.6799
vn 0.5710 0.8206 0.0263
vn 0.6837 0.7297 -0.0129
vn 0.4607 0.3378 -0.8207
vn 0.6179 0.6956 -0.3665
vn -0.5201 -0.5771 0.6296
vn 0.0760 -0.5890 0.8046
vn 0.4964 -0.3025 0.8137
vn 0.3196 -0.2064 0.9248
vn -0.8574 -0.4539 0.2427
vn -0.9766 -0.1966 0.0871
vn -0.8814 -0.4233 -0.2097
vn -0.7746 -0.3076 -0.5526
vn -0.4265 -0.0404 -0.9036
vn -0.3341 -0.1594 -0.9289
vn 0.9395 -0.0864 0.3315
vn 0.9370 0.2253 -0.2671
vn -0.8799 -0.2740 -0.3882
vn -0.8431 -0.1813 -0.5062
vn -0.3280 -0.2590 -0.9085
vn -0.7244 -0.2289 -0.6503
vn -0.6732 -0.1102 -0.7312
vn 0.8516 0.1829 -0.4913
vn 0.2153 -0.1918 -0.9575
vn 0.3183 0.7230 -0.6132
vn 0.2849 0.8532 -0.4368
vn 0.4395 0.2837 -0.8523
vn 0.1120 0.3530 -0.9289
vn -0.4036 -0.5346 0.7425
vn -0.7738 -0.3913 0.4982
vn 0.1417 -0.5485 0.8241
vn 0.3554 -0.1775 0.9177
vn 0.7057 -0.2733 0.6537
vn -0.9401 -0.2321 -0.2498
vn -0.9022 0.4142 0.1205
vn -0.9695 0.2245 -0.0981
vn -0.9830 -0.0383 -0.1794
vn -0.8620 0.4580 0.2173
vn -0.9474 -0.2061 -0.2450
vn -0.8835 -0.1876 -0.4293
vn -0.4394 -0.2637 -0.8587
vn -0.3206 0.2127 -0.9230
vn -0.0041 -0.0541 -0.9985
vn 0.9644 0.1557 0.2136
vn 0.4366 0.0705 -0.8969
vn 0.7715 0.2588 -0.5813
vn -0.5013 -0.1291 -0.8556
vn -0.2600 0.1609 -0.9521
vn 0.2666 0.1897 -0.9450
vn -0.6907 -0.1571 0.7059
vn -0.2894 -0.3078 0.9064
vn -0.0885 -0.0614 0.9942
vn 0.0455 0.3063 0.9508
vn 0.5158 0.4188 0.7473
vn 0.7049 -0.0681 0.7060
vn -0.7204 0.6518 -0.2370
vn -0.8902 0.4247 -0.1648
vn 0.2055 0.9667 0.1523
vn -0.7722 0.2601 0.5797
vn -0.5311 0.7554 0.3839
vn -0.7394 -0.0461 -0.6716
vn -0.1208 -0.0734 -0.9900
vn 0.8039 0.5354 0.2592
vn 0.2339 0.5169 -0.8235
vn 0.6282 0.6496 -0.4282
vn 0.7774 0.6281 -0.0332
vn -0.4529 0.1028 0.8856
vn -0.4313 0.3803 0.8181
vn -0.1791 0.7413 0.6469
vn 0.1242 0.8880 0.4428
vn -0.2077 0.9690 0.1337
vn -0.4843 0.1988 -0.8521
vn -0.4621 0.8090 -0.3634
vn -0.3425 0.9297 0.1351
vn 0.3433 0.9385 0.0356
vn -0.0880 0.4128 -0.9066
vn -0.0186 0.9231 -0.3842
vn 0.3491 0.9259 -0.1440
vt 0.936589 0.251135
vt 0.884243 0.183643
vt 0.936462 0.191172
vt 1.000000 0.170118
vt 0.994780 0.214357
vt 0.974270 0.241478
vt 0.908943 0.236284
vt 0.340222 0.929248
vt 0.332443 0.949849
vt 0.293016 0.944357
vt 0.355157 0.957795
vt 0.900877 0.136398
vt 0.861443 0.162887
vt 0.864574 0.206392
vt 0.959588 0.101466
vt 0.114254 0.722223
vt 0.098606 0.737622
vt 0.097773 0.693918
vt 0.120383 0.520019
vt 1.000000 0.000000
vt 0.112393 0.737580
vt 0.265015 0.941036
vt 0.260979 0.927520
vt 0.284758 0.914114
vt 0.887631 0.239016
vt 0.375078 0.941751
vt 0.375078 0.899541
vt 0.332249 0.864581
vt 0.286398 0.863760
vt 0.940769 0.103535
vt 0.925532 0.105190
vt 0.887125 0.120105
vt 0.313479 0.083074
vt 0.318952 0.040570
vt 0.360841 0.077100
vt 0.325721 0.119794
vt 0.361268 0.036816
vt 0.329368 0.004186
vt 0.405353 0.882103
vt 0.404198 0.852728
vt 0.423518 0.890495
vt 0.907169 0.349983
vt 0.902231 0.505808
vt 0.861443 0.452784
vt 0.793608 0.152801
vt 0.821456 0.000000
vt 0.813313 0.149233
vt 0.861443 0.005837
vt 0.129527 0.717127
vt 0.104986 0.253153
vt 0.165723 0.363897
vt 0.907169 0.615489
vt 0.721085 0.358110
vt 0.765206 0.093618
vt 0.782999 0.261855
vt 0.175593 0.710061
vt 0.129615 0.736757
vt 0.125466 0.765200
vt 0.256567 0.910553
vt 0.266720 0.864287
vt 0.371088 0.006419
vt 0.371185 0.860917
vt 0.409069 0.024164
vt 0.371323 0.819231
vt 0.331431 0.809556
vt 0.284399 0.840073
vt 0.309420 0.805412
vt 0.394005 0.871807
vt 0.375078 0.833526
vt 0.362248 0.113404
vt 0.419410 0.815037
vt 0.393359 0.799509
vt 0.408656 0.075615
vt 0.333835 0.230091
vt 0.334289 0.130157
vt 0.370685 0.133301
vt 0.841940 0.107319
vt 0.826800 0.201008
vt 0.778089 0.374147
vt 0.694386 0.443821
vt 0.128139 0.253078
vt 0.107175 0.167685
vt 0.080115 0.168805
vt 0.173981 0.256345
vt 0.209668 0.428123
vt 0.823936 0.253633
vt 0.227858 0.668227
vt 0.239740 0.739663
vt 0.236898 0.636732
vt 0.175487 0.744638
vt 0.199322 0.762990
vt 0.451416 0.002006
vt 0.451640 0.040075
vt 0.496719 0.000000
vt 0.359729 0.775279
vt 0.344569 0.782064
vt 0.244656 0.764808
vt 0.290237 0.794348
vt 0.308581 0.791868
vt 0.423518 0.762011
vt 0.410381 0.093103
vt 0.456271 0.137189
vt 0.499191 0.334686
vt 0.500097 0.085112
vt 0.320750 0.373502
vt 0.319861 0.320820
vt 0.704018 0.476537
vt 0.773007 0.511501
vt 0.815935 0.452809
vt 0.815782 0.371415
vt 0.065293 0.138394
vt 0.100486 0.138206
vt 0.146054 0.065931
vt 0.175986 0.098541
vt 0.223794 0.101208
vt 0.531460 0.452972
vt 0.623427 0.435483
vt 0.579574 0.535839
vt 0.510804 0.124563
vt 0.562465 0.188941
vt 0.580590 0.663187
vt 0.312072 0.583519
vt 0.457779 0.512212
vt 0.856294 0.460787
vt 0.239263 0.672021
vt 0.245519 0.645251
vt 0.602021 0.772404
vt 0.577152 0.765958
vt 0.576071 0.698237
vt 0.594089 0.791743
vt 0.248943 0.509824
vt 0.248962 0.617383
vt 0.256567 0.624156
vt 0.499585 0.036845
vt 0.510804 0.009632
vt 0.349927 0.762011
vt 0.650971 0.792678
vt 0.611960 0.796546
vt 0.664657 0.772561
vt 0.491584 0.145344
vt 0.500490 0.127328
vt 0.510804 0.800805
vt 0.479625 0.800805
vt 0.486467 0.762011
vt 0.626253 0.274625
vt 0.630424 0.629418
vt 0.500419 0.493541
vt 0.694386 0.750937
vt 0.673749 0.704273
vt 0.687944 0.700715
vt 0.659283 0.652568
vt 0.734043 0.548142
vt 0.048590 0.091303
vt 0.694808 0.525075
vt 0.772389 0.534382
vt 0.825308 0.572214
vt 0.851376 0.513017
vt 0.177637 0.069243
vt 0.168608 0.023934
vt 0.210087 0.016714
vt 0.195158 0.042290
vt 0.099180 0.011772
vt 0.202468 0.065296
vt 0.224263 0.060634
vt 0.559128 0.133966
vt 0.511644 0.083988
vt 0.603322 0.632709
vt 0.589532 0.643908
vt 0.614899 0.196265
vt 0.303544 0.691711
vt 0.274733 0.630494
vt 0.507052 0.569728
vt 0.507512 0.693269
vt 0.583095 0.671599
vt 0.596206 0.650785
vt 0.595730 0.692187
vt 0.618350 0.662019
vt 0.452380 0.798184
vt 0.465009 0.762011
vt 0.465009 0.806100
vt 0.681470 0.744612
vt 0.634473 0.198439
vt 0.001405 0.056081
vt 0.000000 0.076899
vt 0.751409 0.565394
vt 0.731368 0.568452
vt 0.773481 0.576761
vt 0.825566 0.610469
vt 0.861443 0.611400
vt 0.858264 0.565176
vt 0.256567 0.681114
vt 0.701191 0.818280
vt 0.784094 0.895145
vt 0.743593 0.880714
vt 0.718435 0.857054
vt 0.694386 0.749105
vt 0.858551 0.686935
vt 0.238326 0.000000
vt 0.024569 0.009182
vt 0.744528 0.669811
vt 0.711822 0.668220
vt 0.540451 0.061388
vt 0.256567 0.037610
vt 0.593887 0.115661
vt 0.306158 0.730646
vt 0.663295 0.029536
vt 0.694386 0.083954
vt 0.690960 0.041723
vt 0.510804 0.734077
vt 0.359053 0.736210
vt 0.751528 0.583971
vt 0.734357 0.611901
vt 0.756588 0.615489
vt 0.730646 0.651593
vt 0.792627 0.615489
vt 0.799644 0.642806
vt 0.831063 0.621289
vt 0.832072 0.654730
vt 0.260272 0.728335
vt 0.292505 0.758078
vt 0.583453 0.005346
vt 0.543528 0.024363
vt 0.848754 0.855759
vt 0.586083 0.035235
vt 0.618381 0.000000
vt 0.818785 0.894949
vt 0.810710 0.664223
vt 0.328674 0.759269
vt 0.404976 0.762011
vt 0.870725 0.661140
vt 0.866050 0.763107
vt 0.643401 0.027238
vt 0.654227 0.003087
vt 0.465009 0.780270
vt 0.479625 0.762011
vt 0.479625 0.806399
vt 0.423518 0.800321
vt 0.433943 0.762011
vt 0.445761 0.800321
vt 0.497746 0.760701
vt 0.853545 0.882692
vt 0.870725 0.856327
s 1
usemtl Material_with_Texture.136
f 1/1/1 2/2/2 3/3/3
f 3/3/3 4/4/4 1/1/1
f 4/4/4 5/5/5 1/1/1
f 5/5/5 6/6/6 1/1/1
f 7/7/7 2/2/2 1/1/1
f 8/8/8 1/9/1 6/10/6
f 7/11/7 1/9/1 8/8/8
f 9/12/9 3/3/3 2/2/2
f 9/12/9 2/2/2 10/13/10
f 2/2/2 11/14/11 10/13/10
f 11/14/11 2/2/2 7/7/7
f 9/12/9 12/15/12 3/3/3
f 12/15/12 4/4/4 3/3/3
f 13/16/13 5/17/5 4/18/4
f 13/16/13 4/18/4 14/19/14
f 14/20/14 4/4/4 12/15/12
f 15/21/15 5/17/5 13/16/13
f 6/10/6 5/22/5 15/23/15
f 16/24/16 6/10/6 15/23/15
f 8/8/8 6/10/6 16/24/16
f 17/25/17 11/14/11 7/7/7
f 17/26/17 7/11/7 8/8/8
f 17/26/17 8/8/8 18/27/18
f 8/8/8 19/28/19 18/27/18
f 19/28/19 8/8/8 20/29/20
f 20/29/20 8/8/8 16/24/16
f 21/30/21 9/12/9 22/31/22
f 23/32/23 22/31/22 9/12/9
f 12/15/12 9/12/9 21/30/21
f 10/13/10 23/32/23 9/12/9
f 10/33/10 11/34/11 24/35/24
f 23/36/23 10/33/10 24/35/24
f 25/37/25 24/35/24 11/34/11
f 11/34/11 17/38/17 25/37/25
f 21/39/21 26/40/26 12/41/12
f 12/42/12 27/43/27 14/44/14
f 27/45/27 12/46/12 28/47/28
f 12/46/12 26/48/26 28/47/28
f 15/21/15 13/16/13 29/49/29
f 13/16/13 14/19/14 29/49/29
f 30/50/30 31/51/31 14/19/14
f 27/43/27 32/52/32 14/44/14
f 30/53/30 14/54/14 32/55/32
f 29/49/29 14/19/14 33/56/33
f 31/51/31 33/56/33 14/19/14
f 29/49/29 34/57/34 15/21/15
f 34/57/34 16/58/16 15/21/15
f 16/24/16 34/59/34 35/60/35
f 35/60/35 20/29/20 16/24/16
f 18/61/18 25/37/25 17/38/17
f 18/27/18 19/28/19 36/62/36
f 25/37/25 18/61/18 36/63/36
f 19/28/19 37/64/37 36/62/36
f 37/64/37 19/28/19 38/65/38
f 19/28/19 39/66/39 40/67/40
f 19/28/19 40/67/40 38/65/38
f 20/29/20 39/66/39 19/28/19
f 20/29/20 35/60/35 39/66/39
f 22/68/22 26/40/26 21/39/21
f 26/40/26 22/68/22 23/69/23
f 23/36/23 24/35/24 41/70/41
f 26/40/26 23/69/23 42/71/42
f 41/72/41 42/71/42 23/69/23
f 24/35/24 43/73/43 41/70/41
f 43/73/43 24/35/24 25/37/25
f 43/73/43 25/37/25 36/63/36
f 44/74/44 26/75/26 42/76/42
f 26/48/26 44/77/44 28/47/28
f 28/47/28 45/78/45 27/45/27
f 32/55/32 27/45/27 45/78/45
f 44/77/44 45/78/45 28/47/28
f 33/56/33 34/57/34 29/49/29
f 46/79/46 30/53/30 32/55/32
f 47/80/47 30/53/30 46/79/46
f 48/81/48 31/51/31 30/50/30
f 49/82/49 48/81/48 30/50/30
f 49/82/49 30/50/30 47/83/47
f 31/51/31 50/84/50 51/85/51
f 31/51/31 48/81/48 50/84/50
f 33/56/33 31/51/31 51/85/51
f 52/86/52 46/79/46 32/55/32
f 32/55/32 45/78/45 52/86/52
f 33/56/33 53/87/53 54/88/54
f 33/56/33 54/88/54 34/57/34
f 33/56/33 51/85/51 55/89/55
f 55/89/55 53/87/53 33/56/33
f 35/90/35 34/57/34 54/88/54
f 35/90/35 54/88/54 39/91/39
f 37/92/37 56/93/56 36/63/36
f 36/63/36 56/93/56 43/73/43
f 37/92/37 57/94/57 56/93/56
f 57/95/57 37/64/37 38/65/38
f 38/65/38 40/67/40 58/96/58
f 57/95/57 38/65/38 58/96/58
f 59/97/59 39/91/39 54/88/54
f 59/98/59 40/67/40 39/66/39
f 60/99/60 58/96/58 40/67/40
f 60/99/60 40/67/40 59/98/59
f 42/71/42 41/72/41 61/100/61
f 43/73/43 61/101/61 41/70/41
f 62/102/62 63/103/63 42/76/42
f 44/74/44 42/76/42 63/103/63
f 62/102/62 42/76/42 61/101/61
f 43/73/43 64/104/64 61/101/61
f 64/104/64 43/73/43 56/93/56
f 52/105/52 44/74/44 63/103/63
f 52/105/52 45/106/45 44/74/44
f 65/107/65 46/79/46 66/108/66
f 65/107/65 47/80/47 46/79/46
f 67/109/67 66/108/66 46/79/46
f 68/110/68 67/109/67 46/79/46
f 68/110/68 46/79/46 52/86/52
f 47/83/47 65/111/65 69/112/69
f 69/112/69 49/82/49 47/83/47
f 49/82/49 50/84/50 48/81/48
f 70/113/70 49/82/49 69/112/69
f 70/113/70 50/84/50 49/82/49
f 70/113/70 71/114/71 50/84/50
f 72/115/72 51/85/51 50/84/50
f 72/115/72 50/84/50 71/114/71
f 51/116/51 63/117/63 73/118/73
f 51/116/51 72/119/72 74/120/74
f 74/120/74 63/117/63 51/116/51
f 55/121/55 51/116/51 73/118/73
f 75/122/75 52/105/52 76/123/76
f 63/103/63 76/123/76 52/105/52
f 68/110/68 52/86/52 75/124/75
f 77/125/77 53/87/53 78/126/78
f 54/88/54 53/87/53 77/125/77
f 55/89/55 78/126/78 53/87/53
f 79/127/79 54/128/54 77/129/77
f 79/127/79 59/130/59 54/128/54
f 55/89/55 73/131/73 80/132/80
f 81/133/81 78/126/78 55/89/55
f 81/133/81 55/89/55 80/132/80
f 56/93/56 57/94/57 82/134/82
f 82/134/82 64/104/64 56/93/56
f 57/94/57 83/135/83 82/134/82
f 57/95/57 58/96/58 83/136/83
f 58/137/58 60/138/60 83/139/83
f 79/127/79 60/138/60 59/130/59
f 79/127/79 83/139/83 60/138/60
f 62/102/62 61/101/61 64/104/64
f 63/103/63 62/102/62 84/140/84
f 62/102/62 64/104/64 85/141/85
f 85/142/85 84/143/84 62/144/62
f 63/117/63 74/120/74 86/145/86
f 63/117/63 84/146/84 73/118/73
f 76/123/76 63/103/63 86/147/86
f 82/148/82 87/149/87 64/150/64
f 85/151/85 64/150/64 87/149/87
f 88/152/88 65/107/65 66/108/66
f 89/153/89 69/112/69 65/111/65
f 65/107/65 88/152/88 89/154/89
f 66/108/66 90/155/90 88/152/88
f 91/156/91 90/155/90 66/108/66
f 91/156/91 66/108/66 92/157/92
f 66/108/66 67/109/67 92/157/92
f 75/124/75 67/109/67 68/110/68
f 92/157/92 67/109/67 75/124/75
f 89/153/89 70/113/70 69/112/69
f 70/113/70 93/158/93 71/114/71
f 70/113/70 94/159/94 95/160/95
f 93/158/93 70/113/70 96/161/96
f 70/113/70 95/160/95 96/161/96
f 94/159/94 70/113/70 97/162/97
f 70/113/70 89/153/89 97/162/97
f 71/114/71 98/163/98 99/164/99
f 71/114/71 93/158/93 98/163/98
f 99/164/99 72/115/72 71/114/71
f 100/165/100 72/119/72 99/166/99
f 74/120/74 72/119/72 100/165/100
f 73/118/73 101/167/101 80/168/80
f 73/118/73 84/146/84 101/167/101
f 74/120/74 102/169/102 86/145/86
f 100/165/100 102/169/102 74/120/74
f 103/170/103 75/122/75 76/123/76
f 92/171/92 75/122/75 103/170/103
f 104/172/104 76/123/76 86/147/86
f 76/123/76 104/172/104 105/173/105
f 76/123/76 105/173/105 103/170/103
f 77/129/77 78/174/78 81/175/81
f 106/176/106 79/127/79 77/129/77
f 106/176/106 77/129/77 81/175/81
f 83/139/83 79/127/79 106/176/106
f 101/167/101 81/175/81 80/168/80
f 81/175/81 101/167/101 107/177/107
f 106/176/106 81/175/81 107/177/107
f 108/178/108 87/179/87 82/180/82
f 108/181/108 82/148/82 83/139/83
f 108/181/108 83/139/83 106/176/106
f 84/146/84 85/151/85 101/167/101
f 85/151/85 107/177/107 101/167/101
f 87/149/87 107/177/107 85/151/85
f 104/182/104 86/145/86 102/169/102
f 108/181/108 106/176/106 87/149/87
f 106/176/106 107/177/107 87/149/87
f 109/183/109 89/153/89 88/184/88
f 110/185/110 109/186/109 88/152/88
f 88/152/88 90/155/90 110/185/110
f 97/162/97 89/153/89 109/183/109
f 110/185/110 90/155/90 111/187/111
f 111/187/111 90/155/90 91/156/91
f 112/188/112 91/156/91 113/189/113
f 91/156/91 92/157/92 114/190/114
f 111/187/111 91/156/91 112/188/112
f 114/190/114 113/189/113 91/156/91
f 92/171/92 103/170/103 114/191/114
f 96/161/96 98/163/98 93/158/93
f 94/192/94 115/193/115 116/194/116
f 116/194/116 95/195/95 94/192/94
f 94/192/94 97/196/97 117/197/117
f 94/192/94 117/197/117 115/193/115
f 95/160/95 99/164/99 96/161/96
f 95/160/95 116/198/116 99/164/99
f 99/164/99 98/163/98 96/161/96
f 97/162/97 109/183/109 118/199/118
f 97/196/97 119/200/119 117/197/117
f 119/200/119 97/196/97 118/201/118
f 99/166/99 120/202/120 100/165/100
f 116/198/116 120/203/120 99/164/99
f 100/165/100 121/204/121 102/169/102
f 100/165/100 120/202/120 121/204/121
f 102/169/102 121/204/121 104/182/104
f 103/170/103 105/173/105 122/205/122
f 103/170/103 122/205/122 114/191/114
f 123/206/123 105/207/105 104/182/104
f 123/206/123 104/182/104 121/204/121
f 123/206/123 124/208/124 105/207/105
f 124/209/124 125/210/125 105/173/105
f 122/205/122 105/173/105 125/210/125
f 126/211/126 118/212/118 109/186/109
f 126/211/126 109/186/109 110/185/110
f 111/187/111 126/211/126 110/185/110
f 126/211/126 111/187/111 127/213/127
f 112/188/112 127/213/127 111/187/111
f 127/214/127 112/215/112 128/216/128
f 112/215/112 113/217/113 128/216/128
f 129/218/129 128/216/128 113/217/113
f 122/205/122 113/219/113 114/191/114
f 113/219/113 122/205/122 129/220/129
f 115/221/115 120/202/120 116/222/116
f 130/223/130 115/193/115 117/197/117
f 131/224/131 120/202/120 115/221/115
f 115/221/115 132/225/132 131/224/131
f 130/223/130 132/226/132 115/193/115
f 119/200/119 133/227/133 117/197/117
f 117/228/117 122/205/122 134/229/134
f 117/197/117 129/218/129 122/230/122
f 117/197/117 134/231/134 130/223/130
f 129/218/129 117/197/117 133/227/133
f 119/200/119 118/201/118 127/214/127
f 127/213/127 118/212/118 126/211/126
f 128/216/128 119/200/119 127/214/127
f 119/200/119 128/216/128 133/227/133
f 120/202/120 131/224/131 121/204/121
f 135/232/135 121/204/121 131/224/131
f 135/232/135 123/206/123 121/204/121
f 125/210/125 134/229/134 122/205/122
f 135/232/135 132/225/132 123/206/123
f 136/233/136 123/206/123 132/225/132
f 136/234/136 137/235/137 123/236/123
f 124/237/124 123/238/123 137/239/137
f 124/209/124 137/240/137 125/210/125
f 134/229/134 125/210/125 137/240/137
f 128/216/128 129/218/129 133/227/133
f 132/226/132 130/223/130 136/241/136
f 130/223/130 137/242/137 136/241/136
f 134/231/134 137/242/137 130/223/130
f 132/225/132 135/232/135 131/224/131
