# Blender 4.3.0
# www.blender.org
mtllib little_medial_lvs.mtl
o little_medial_lvs
v 0.033384 -0.133430 0.046929
v 0.030906 -0.131724 0.046719
v 0.031547 -0.132250 0.045774
v 0.033132 -0.133203 0.045935
v 0.032556 -0.132318 0.051070
v 0.033701 -0.133297 0.045882
v 0.033290 -0.133002 0.048849
v 0.034730 -0.132038 0.048507
v 0.035028 -0.132689 0.046251
v 0.029985 -0.130611 0.045603
v 0.029923 -0.130544 0.047012
v 0.030553 -0.130215 0.044688
v 0.030091 -0.130211 0.045145
v 0.034343 -0.130799 0.044425
v 0.033591 -0.132680 0.051344
v 0.029788 -0.129707 0.049626
v 0.030514 -0.130069 0.050694
v 0.033123 -0.131996 0.051645
v 0.034661 -0.132731 0.045510
v 0.034600 -0.130472 0.048188
v 0.035137 -0.130914 0.049886
v 0.034478 -0.132063 0.051550
v 0.035219 -0.131331 0.045492
v 0.034999 -0.130567 0.046674
v 0.028352 -0.128582 0.045321
v 0.026151 -0.127343 0.048065
v 0.029851 -0.129287 0.044698
v 0.030905 -0.129261 0.044227
v 0.034822 -0.131879 0.044982
v 0.032012 -0.129361 0.044005
v 0.033341 -0.129915 0.044109
v 0.034683 -0.130225 0.044910
v 0.034338 -0.130663 0.051907
v 0.026589 -0.126486 0.049550
v 0.029500 -0.128792 0.050212
v 0.030364 -0.128927 0.050812
v 0.031311 -0.130396 0.051128
v 0.031157 -0.129392 0.051284
v 0.034498 -0.129552 0.049628
v 0.033194 -0.128941 0.047808
v 0.033488 -0.128983 0.046086
v 0.034782 -0.130065 0.046387
v 0.034630 -0.130218 0.051473
v 0.034831 -0.130902 0.051545
v 0.026191 -0.126102 0.043915
v 0.023801 -0.124851 0.044249
v 0.028618 -0.128265 0.044723
v 0.022455 -0.124133 0.047608
v 0.021730 -0.123323 0.048203
v 0.020694 -0.121411 0.049291
v 0.029354 -0.127576 0.044609
v 0.030401 -0.128480 0.044928
v 0.031404 -0.128384 0.044599
v 0.033310 -0.129100 0.044366
v 0.033776 -0.129639 0.051820
v 0.029290 -0.127964 0.050020
v 0.028822 -0.127000 0.049700
v 0.031092 -0.128065 0.050751
v 0.029792 -0.127710 0.049828
v 0.031725 -0.128808 0.051394
v 0.032696 -0.128939 0.051582
v 0.034277 -0.129547 0.051377
v 0.032701 -0.128462 0.051039
v 0.029924 -0.127448 0.048745
v 0.024440 -0.124325 0.042895
v 0.027768 -0.126547 0.044091
v 0.020997 -0.120911 0.040011
v 0.020002 -0.121340 0.040567
v 0.017999 -0.120751 0.042263
v 0.017661 -0.121020 0.046200
v 0.018003 -0.119767 0.048821
v 0.019078 -0.119467 0.049694
v 0.022052 -0.120962 0.049501
v 0.023217 -0.121677 0.049451
v 0.030528 -0.128046 0.046048
v 0.023749 -0.121178 0.044723
v 0.025445 -0.123350 0.043461
v 0.022709 -0.121271 0.041053
v 0.025142 -0.123962 0.042868
v 0.020213 -0.119994 0.039516
v 0.021345 -0.119317 0.039583
v 0.018440 -0.119941 0.040670
v 0.016517 -0.119801 0.044385
v 0.017325 -0.119998 0.042567
v 0.016458 -0.119393 0.046474
v 0.016657 -0.119386 0.047116
v 0.017253 -0.119041 0.048201
v 0.018130 -0.118333 0.049431
v 0.019740 -0.118771 0.049771
v 0.022064 -0.120211 0.049293
v 0.020539 -0.117974 0.049287
v 0.021276 -0.117629 0.048342
v 0.021669 -0.117220 0.041519
v 0.023495 -0.120827 0.042094
v 0.022097 -0.118948 0.040147
v 0.019631 -0.118983 0.039364
v 0.020476 -0.119261 0.039364
v 0.020730 -0.118559 0.039505
v 0.019863 -0.118184 0.039927
v 0.020261 -0.117256 0.041229
v 0.019951 -0.118038 0.044262
v 0.020279 -0.117730 0.043343
v 0.018733 -0.119179 0.044518
v 0.019406 -0.118800 0.044248
v 0.018583 -0.119328 0.045342
v 0.018057 -0.118925 0.047232
v 0.018517 -0.117422 0.049057
v 0.019428 -0.118141 0.046511
v 0.019499 -0.116860 0.048670
v 0.019665 -0.116296 0.047604
v 0.020246 -0.116158 0.043152
v 0.021377 -0.117952 0.040138
v 0.020539 -0.116478 0.041844
v 0.020526 -0.116995 0.040868
v 0.020226 -0.117217 0.040365
v 0.020110 -0.117601 0.043979
v 0.019497 -0.118362 0.044610
v 0.019880 -0.117122 0.044489
v 0.019861 -0.118019 0.044910
v 0.019309 -0.118838 0.044923
vn -0.0316 -0.9937 0.1078
vn -0.6870 -0.7245 0.0551
vn -0.4829 -0.7479 -0.4554
vn -0.3200 -0.7979 -0.5109
vn -0.5538 -0.6969 0.4556
vn 0.0854 -0.8704 -0.4848
vn 0.1327 -0.9758 0.1739
vn 0.8890 -0.4534 0.0648
vn 0.8303 -0.5571 0.0135
vn -0.6627 -0.6586 -0.3564
vn -0.6944 -0.7126 0.0998
vn -0.3906 -0.4762 -0.7878
vn -0.5739 -0.5333 -0.6215
vn 0.3712 -0.1413 -0.9178
vn 0.0893 -0.8422 0.5317
vn -0.6904 -0.6182 0.3758
vn -0.7212 -0.3806 0.5788
vn -0.2371 -0.3167 0.9184
vn 0.4529 -0.6556 -0.6042
vn 0.9235 0.3794 -0.0560
vn 0.9994 0.0343 -0.0079
vn 0.5590 -0.5428 0.6268
vn 0.9705 0.0241 -0.2400
vn 0.9593 0.2395 0.1495
vn -0.6020 -0.6734 -0.4291
vn -0.6485 -0.7333 0.2042
vn -0.3730 -0.2110 -0.9035
vn -0.2737 0.0685 -0.9594
vn 0.5035 -0.3970 -0.7674
vn -0.0728 0.0081 -0.9973
vn 0.1998 -0.0499 -0.9786
vn 0.7815 0.4383 -0.4441
vn 0.2736 0.0578 0.9601
vn -0.3783 -0.3507 0.8567
vn -0.5515 -0.3188 0.7708
vn -0.5501 0.0779 0.8315
vn -0.4342 -0.2435 0.8673
vn -0.3381 -0.0224 0.9408
vn 0.7544 0.6518 -0.0777
vn 0.5567 0.8305 -0.0189
vn 0.5321 0.8464 -0.0199
vn 0.7841 0.6190 0.0454
vn 0.8000 0.3944 0.4521
vn 0.8600 -0.0008 0.5104
vn -0.2638 -0.6408 -0.7210
vn -0.5238 -0.8005 -0.2912
vn -0.2695 -0.4843 -0.8324
vn -0.6248 -0.7767 0.0798
vn -0.5727 -0.6879 0.4459
vn -0.3150 -0.4447 0.8385
vn 0.5077 0.4045 -0.7607
vn 0.0969 0.6545 -0.7498
vn 0.0292 0.8317 -0.5545
vn 0.4438 0.6826 -0.5807
vn 0.1621 0.3655 0.9166
vn -0.0420 0.3487 0.9363
vn 0.3492 0.5529 0.7566
vn -0.0906 0.8183 0.5676
vn 0.1595 0.7921 0.5891
vn -0.1922 0.3320 0.9235
vn 0.0106 0.4297 0.9029
vn 0.6581 0.6412 0.3947
vn 0.3074 0.8836 0.3532
vn 0.4761 0.8770 0.0641
vn -0.1357 -0.6360 -0.7596
vn 0.1990 -0.1505 -0.9684
vn 0.1289 -0.5249 -0.8413
vn -0.3650 -0.7200 -0.5902
vn -0.6479 -0.6977 -0.3058
vn -0.6512 -0.7460 0.1394
vn -0.6363 -0.4727 0.6097
vn -0.2992 -0.2444 0.9224
vn 0.0792 0.0081 0.9968
vn 0.4592 0.4197 0.7829
vn 0.2461 0.9463 -0.2097
vn 0.8184 0.5697 0.0755
vn 0.7719 0.5003 -0.3921
vn 0.6232 -0.1194 -0.7729
vn 0.4735 -0.0412 -0.8798
vn -0.1531 -0.3983 -0.9044
vn 0.4295 -0.0369 -0.9023
vn -0.8579 0.0040 -0.5139
vn -0.9416 0.2166 -0.2577
vn -0.8708 0.2851 -0.4006
vn -0.9309 0.3624 0.0466
vn -0.9122 0.2375 0.3339
vn -0.8518 0.4214 0.3112
vn -0.6882 0.3479 0.6367
vn 0.0520 0.1982 0.9788
vn 0.6366 0.4065 0.6553
vn 0.3548 0.4950 0.7931
vn 0.6929 0.6174 0.3723
vn 0.7006 0.6794 -0.2180
vn 0.8720 0.3504 -0.3419
vn 0.7500 0.2419 -0.6157
vn -0.4278 0.2349 -0.8728
vn 0.0827 0.0225 -0.9963
vn 0.0132 0.3691 -0.9293
vn -0.5223 0.5829 -0.6225
vn -0.8626 0.5054 -0.0207
vn -0.8938 0.4036 -0.1955
vn -0.9378 0.3316 -0.1024
vn -0.5005 0.8658 0.0008
vn -0.7370 0.6692 -0.0947
vn -0.4205 0.8896 -0.1781
vn -0.4167 0.8840 -0.2118
vn -0.6525 0.6868 0.3201
vn -0.8086 0.5303 -0.2551
vn -0.2191 0.8809 0.4196
vn -0.3632 0.9206 0.1432
vn -0.3953 0.8998 -0.1845
vn 0.4985 0.5690 -0.6540
vn -0.3267 0.9140 -0.2406
vn -0.1296 0.9130 -0.3869
vn -0.4404 0.7625 -0.4740
vn -0.9433 0.0299 -0.3307
vn -0.8102 0.5472 -0.2099
vn -0.9808 0.0492 -0.1886
vn -0.8974 0.4214 -0.1308
vn -0.7823 0.6117 -0.1171
vt 0.176113 0.012009
vt 0.186879 0.124498
vt 0.147104 0.098934
vt 0.141230 0.030272
vt 0.335623 0.039310
vt 0.135067 0.012423
vt 0.247923 0.014434
vt 0.832325 0.783036
vt 0.901769 0.846191
vt 0.835970 0.856585
vt 0.899950 0.759239
vt 0.846543 0.743971
vt 0.152565 0.184085
vt 0.205166 0.179521
vt 0.114605 0.183326
vt 0.134913 0.193681
vt 0.076895 0.064982
vt 0.338083 0.000000
vt 0.303030 0.189345
vt 0.337141 0.154137
vt 0.731933 0.165022
vt 0.719011 0.050357
vt 0.743326 0.038853
vt 0.734781 0.010856
vt 0.114347 0.001939
vt 0.888936 0.731389
vt 0.848473 0.951270
vt 0.575758 0.052293
vt 0.573132 0.004326
vt 0.661249 0.000000
vt 0.520156 0.011595
vt 0.888880 0.960604
vt 0.936906 0.901382
vt 0.936906 0.734866
vt 0.634698 0.053531
vt 0.683529 0.038374
vt 0.154512 0.281543
vt 0.272454 0.358036
vt 0.120308 0.225869
vt 0.861328 0.595125
vt 0.832325 0.587247
vt 0.845792 0.554576
vt 0.886865 0.714135
vt 0.093783 0.021651
vt 0.928689 0.372782
vt 0.916749 0.475024
vt 0.917650 0.423381
vt 0.928689 0.508919
vt 0.888865 0.679080
vt 0.916749 0.708317
vt 0.701873 0.038328
vt 0.712959 0.084228
vt 0.694951 0.086622
vt 0.774642 0.000000
vt 0.811777 0.036114
vt 0.324335 0.358813
vt 0.326998 0.216811
vt 0.230152 0.889196
vt 0.204061 0.864313
vt 0.230152 0.834168
vt 0.342820 0.186059
vt 0.743154 0.132018
vt 0.768261 0.160040
vt 0.760991 0.196567
vt 0.913459 0.714135
vt 0.517620 0.066312
vt 0.570823 0.131847
vt 0.636273 0.139022
vt 0.640922 0.074980
vt 0.454628 0.028444
vt 0.457068 0.004492
vt 0.925291 0.963902
vt 0.816397 0.018752
vt 0.118838 0.411239
vt 0.149001 0.506888
vt 0.130488 0.285418
vt 0.283315 0.543189
vt 0.310811 0.580131
vt 0.359036 0.650356
vt 0.885026 0.520534
vt 0.883369 0.557138
vt 0.851691 0.504393
vt 0.877446 0.634085
vt 0.901793 0.592606
vt 0.915515 0.663428
vt 0.698346 0.156003
vt 0.826900 0.077536
vt 0.438762 0.019932
vt 0.432308 0.062140
vt 0.742314 0.227757
vt 0.760325 0.255195
vt 0.734850 0.369863
vt 0.775586 0.293980
vt 0.733460 0.660820
vt 0.803367 0.197851
vt 0.779549 0.248646
vt 0.799121 0.157874
vt 0.819717 0.126382
vt 0.451943 0.056075
vt 0.446427 0.127598
vt 0.503382 0.245106
vt 0.094301 0.509870
vt 0.877089 0.469857
vt 0.856622 0.420027
vt 0.113671 0.355358
vt 0.013539 0.706771
vt 0.041350 0.720600
vt 0.118941 0.781332
vt 0.267046 0.761801
vt 0.361738 0.768687
vt 0.749778 0.751208
vt 0.712959 0.779295
vt 0.780160 0.632666
vt 0.788430 0.582886
vt 0.650751 0.293588
vt 0.609736 0.238540
vt 0.651901 0.240322
vt 0.570034 0.603782
vt 0.395627 0.560785
vt 0.640531 0.514784
vt 0.916749 0.372782
vt 0.913163 0.534527
vt 0.671271 0.220749
vt 0.428984 0.110050
vt 0.457573 0.275989
vt 0.464109 0.231568
vt 0.832325 0.141388
vt 0.442349 0.181127
vt 0.122463 0.886866
vt 0.154274 0.834168
vt 0.154274 0.933966
vt 0.916750 0.611123
vt 0.942892 0.553930
vt 0.942513 0.626141
vt 0.942892 0.714135
vt 0.652023 0.365505
vt 0.662970 0.511430
vt 0.001158 0.754169
vt 0.078104 0.879652
vt 0.082864 0.927563
vt 0.057073 0.924818
vt 0.106483 0.932973
vt 0.056905 0.798231
vt 0.208528 0.834168
vt 0.135283 0.817081
vt 0.286329 0.834168
vt 0.308621 0.825189
vt 0.713882 0.821973
vt 0.758158 0.807209
vt 0.344447 0.811092
vt 0.786079 0.749383
vt 0.801421 0.652117
vt 0.827499 0.749742
vt 0.384887 0.630246
vt 0.400269 0.727570
vt 0.650623 0.790701
vt 0.662341 0.643428
vt 0.696520 0.660734
vt 0.712959 0.746325
vt 0.082864 0.903902
vt 0.000000 0.796358
vt 0.028807 0.911032
vt 0.056921 0.899977
vt 0.051105 0.872905
vt 0.082864 0.846060
vt 0.880440 0.028631
vt 0.965605 0.038693
vt 0.856422 0.085041
vt 0.916687 0.186434
vt 0.893073 0.156086
vt 0.905189 0.000000
vt 0.204061 0.941237
vt 0.154274 0.893401
vt 0.204061 0.834168
vt 0.949438 0.178546
vt 0.973448 0.185303
vt 0.770238 0.821973
vt 0.768428 0.941155
vt 0.755045 0.879852
vt 0.832325 0.887086
vt 1.000000 0.108409
vt 0.988470 0.213654
vt 0.230152 0.861346
vt 0.248578 0.834168
vt 0.248578 0.875383
vt 0.832325 0.824815
vt 0.751910 0.821973
vt 0.755044 0.858469
vt 0.713263 0.861190
vt 0.755044 0.912853
vt 0.792887 0.821176
vt 1.000000 0.372782
vt 0.948707 0.267327
vt 0.999699 0.287128
vt 0.960330 0.368573
vt 0.361738 0.728228
vt 0.370459 0.789635
vt 0.832325 0.810039
vt 0.407831 0.810230
vt 0.574381 0.839851
vt 0.702563 0.791035
vt 0.626116 0.835864
vt 0.664333 0.831265
vt 0.048026 0.834168
vt 0.012512 0.876950
vt 0.000000 0.836612
vt 0.847084 0.054364
vt 0.832325 0.115240
vt 0.840653 0.074415
vt 0.896978 0.180724
vt 0.936844 0.196228
vt 0.888432 0.204744
vt 0.923489 0.210169
vt 0.837803 0.166415
vt 0.958542 0.202644
vt 0.361738 0.920388
vt 0.318722 0.839165
vt 0.361738 0.834168
vt 0.925056 0.359064
vt 0.893264 0.326486
vt 0.681510 0.837429
s 1
usemtl Material_with_Texture.133
f 1/1/1 2/2/2 3/3/3
f 3/3/3 4/4/4 1/1/1
f 5/5/5 2/2/2 1/1/1
f 4/4/4 6/6/6 1/1/1
f 5/5/5 1/1/1 7/7/7
f 1/8/1 8/9/8 7/10/7
f 1/8/1 9/11/9 8/9/8
f 1/8/1 6/12/6 9/11/9
f 2/2/2 10/13/10 3/3/3
f 11/14/11 2/2/2 5/5/5
f 2/2/2 11/14/11 10/13/10
f 12/15/12 3/3/3 13/16/13
f 4/4/4 3/3/3 14/17/14
f 14/17/14 3/3/3 12/15/12
f 13/16/13 3/3/3 10/13/10
f 14/17/14 6/6/6 4/4/4
f 7/7/7 15/18/15 5/5/5
f 5/5/5 16/19/16 11/14/11
f 16/19/16 5/5/5 17/20/17
f 17/21/17 5/22/5 18/23/18
f 5/22/5 15/24/15 18/23/18
f 14/17/14 19/25/19 6/6/6
f 6/12/6 19/26/19 9/11/9
f 15/27/15 7/10/7 8/9/8
f 20/28/20 8/29/8 9/30/9
f 20/28/20 21/31/21 8/29/8
f 22/32/22 8/9/8 21/33/21
f 22/32/22 15/27/15 8/9/8
f 9/11/9 19/26/19 23/34/23
f 24/35/24 9/30/9 23/36/23
f 20/28/20 9/30/9 24/35/24
f 25/37/25 13/16/13 10/13/10
f 10/13/10 11/14/11 26/38/26
f 26/38/26 25/37/25 10/13/10
f 11/14/11 16/19/16 26/38/26
f 13/16/13 27/39/27 12/15/12
f 28/40/28 12/41/12 27/42/27
f 14/43/14 12/41/12 28/40/28
f 27/39/27 13/16/13 25/37/25
f 14/17/14 29/44/29 19/25/19
f 14/45/14 30/46/30 31/47/31
f 14/45/14 28/48/28 30/46/30
f 31/49/31 32/50/32 14/43/14
f 29/51/29 14/52/14 32/53/32
f 22/54/22 33/55/33 15/24/15
f 15/24/15 33/55/33 18/23/18
f 34/56/34 26/38/26 16/19/16
f 16/19/16 35/57/35 34/56/34
f 16/58/16 17/59/17 36/60/36
f 36/61/36 35/57/35 16/19/16
f 17/21/17 37/62/37 38/63/38
f 36/64/36 17/21/17 38/63/38
f 17/21/17 18/23/18 37/62/37
f 18/23/18 33/55/33 37/62/37
f 19/26/19 29/65/29 23/34/23
f 20/28/20 39/66/39 21/31/21
f 40/67/40 39/66/39 20/28/20
f 41/68/41 20/28/20 42/69/42
f 41/68/41 40/67/40 20/28/20
f 20/28/20 24/35/24 42/69/42
f 21/31/21 43/70/43 44/71/44
f 39/66/39 43/70/43 21/31/21
f 22/32/22 21/33/21 44/72/44
f 33/55/33 22/54/22 44/73/44
f 29/51/29 32/53/32 23/36/23
f 42/69/42 23/36/23 32/53/32
f 23/36/23 42/69/42 24/35/24
f 45/74/45 25/37/25 46/75/46
f 25/37/25 26/38/26 46/75/46
f 25/37/25 47/76/47 27/39/27
f 25/37/25 45/74/45 47/76/47
f 48/77/48 46/75/46 26/38/26
f 48/77/48 26/38/26 49/78/49
f 50/79/50 26/38/26 34/56/34
f 50/79/50 49/78/49 26/38/26
f 27/42/27 51/80/51 52/81/52
f 51/80/51 27/42/27 47/82/47
f 27/42/27 52/81/52 28/40/28
f 30/83/30 28/40/28 53/84/53
f 53/84/53 28/40/28 52/81/52
f 54/85/54 31/49/31 30/83/30
f 53/84/53 54/85/54 30/83/30
f 54/85/54 32/50/32 31/49/31
f 32/53/32 41/68/41 42/69/42
f 41/68/41 32/53/32 54/86/54
f 55/87/55 37/62/37 33/55/33
f 33/88/33 43/70/43 55/89/55
f 43/70/43 33/88/33 44/71/44
f 35/90/35 56/91/56 34/92/34
f 34/92/34 57/93/57 50/94/50
f 56/91/56 57/93/57 34/92/34
f 35/90/35 36/64/36 56/91/56
f 36/64/36 38/63/38 58/95/58
f 36/64/36 58/95/58 59/96/59
f 56/91/56 36/64/36 59/96/59
f 60/97/60 38/63/38 37/62/37
f 60/97/60 37/62/37 61/98/61
f 61/98/61 37/62/37 55/87/55
f 60/97/60 58/95/58 38/63/38
f 62/99/62 43/70/43 39/66/39
f 39/66/39 63/100/63 62/99/62
f 39/66/39 40/67/40 63/100/63
f 64/101/64 40/67/40 41/68/41
f 63/100/63 40/67/40 64/101/64
f 64/101/64 41/68/41 54/86/54
f 43/70/43 62/99/62 55/89/55
f 45/74/45 46/75/46 65/102/65
f 66/103/66 47/82/47 45/104/45
f 65/102/65 66/105/66 45/74/45
f 67/106/67 46/75/46 68/107/68
f 65/102/65 46/75/46 67/106/67
f 69/108/69 68/107/68 46/75/46
f 69/108/69 46/75/46 48/77/48
f 47/82/47 66/103/66 51/80/51
f 48/77/48 49/78/49 70/109/70
f 48/77/48 70/109/70 69/108/69
f 70/109/70 49/78/49 71/110/71
f 71/110/71 49/78/49 50/79/50
f 72/111/72 71/112/71 50/94/50
f 73/113/73 72/111/72 50/94/50
f 74/114/74 73/113/73 50/94/50
f 50/94/50 57/93/57 74/114/74
f 51/115/51 75/116/75 52/117/52
f 76/118/76 74/119/74 51/115/51
f 51/115/51 74/119/74 64/101/64
f 64/101/64 75/116/75 51/115/51
f 77/120/77 76/118/76 51/115/51
f 51/80/51 66/103/66 77/121/77
f 75/122/75 53/84/53 52/81/52
f 54/86/54 53/123/53 64/101/64
f 53/123/53 75/116/75 64/101/64
f 62/99/62 61/124/61 55/89/55
f 56/91/56 59/96/59 57/93/57
f 64/101/64 74/119/74 57/125/57
f 64/101/64 57/125/57 59/126/59
f 60/97/60 63/127/63 58/95/58
f 63/100/63 59/126/59 58/128/58
f 59/126/59 63/100/63 64/101/64
f 60/97/60 61/98/61 63/127/63
f 61/124/61 62/99/62 63/100/63
f 78/129/78 65/130/65 67/131/67
f 65/132/65 78/133/78 79/134/79
f 65/132/65 79/134/79 66/135/66
f 66/136/66 79/137/79 77/120/77
f 80/138/80 67/106/67 68/107/68
f 81/139/81 67/140/67 80/141/80
f 81/142/81 78/129/78 67/131/67
f 68/107/68 69/108/69 82/143/82
f 80/138/80 68/107/68 82/143/82
f 83/144/83 69/108/69 70/109/70
f 83/144/83 84/145/84 69/108/69
f 82/143/82 69/108/69 84/145/84
f 85/146/85 83/144/83 70/109/70
f 70/109/70 71/110/71 86/147/86
f 85/146/85 70/109/70 86/147/86
f 87/148/87 71/112/71 88/149/88
f 71/110/71 87/150/87 86/147/86
f 71/112/71 72/111/72 88/149/88
f 89/151/89 88/149/88 72/111/72
f 89/151/89 72/111/72 73/113/73
f 73/113/73 74/114/74 90/152/90
f 90/152/90 91/153/91 73/113/73
f 91/153/91 89/151/89 73/113/73
f 76/118/76 90/154/90 74/119/74
f 92/155/92 90/154/90 76/118/76
f 92/155/92 76/118/76 93/156/93
f 77/120/77 94/157/94 76/118/76
f 76/118/76 94/157/94 93/156/93
f 77/120/77 79/137/79 78/158/78
f 78/158/78 94/157/94 77/120/77
f 94/157/94 78/158/78 95/159/95
f 95/160/95 78/129/78 81/142/81
f 96/161/96 80/138/80 82/143/82
f 80/141/80 96/162/96 97/163/97
f 97/163/97 81/139/81 80/141/80
f 98/164/98 81/139/81 97/163/97
f 95/165/95 81/139/81 98/164/98
f 99/166/99 82/167/82 100/168/100
f 101/169/101 102/170/102 82/167/82
f 96/171/96 82/167/82 99/166/99
f 82/172/82 84/173/84 103/174/103
f 100/168/100 82/167/82 102/170/102
f 104/175/104 82/167/82 103/176/103
f 82/167/82 104/175/104 101/169/101
f 85/177/85 84/178/84 83/179/83
f 85/177/85 105/180/105 84/178/84
f 84/181/84 105/182/105 103/176/103
f 86/183/86 106/184/106 85/185/85
f 85/177/85 106/186/106 105/180/105
f 86/187/86 87/188/87 106/189/106
f 87/188/87 88/190/88 106/189/106
f 107/191/107 88/149/88 89/151/89
f 88/192/88 108/193/108 106/194/106
f 88/192/88 107/195/107 108/193/108
f 89/151/89 91/153/91 107/191/107
f 91/196/91 90/154/90 92/155/92
f 91/196/91 92/155/92 109/197/109
f 107/191/107 91/153/91 109/198/109
f 110/199/110 109/197/109 92/155/92
f 92/155/92 111/200/111 110/199/110
f 93/156/93 111/200/111 92/155/92
f 95/159/95 112/201/112 93/156/93
f 111/200/111 93/156/93 113/202/113
f 93/156/93 94/157/94 95/159/95
f 114/203/114 93/156/93 112/201/112
f 93/156/93 114/203/114 113/202/113
f 112/204/112 95/165/95 98/164/98
f 99/205/99 97/163/97 96/162/96
f 99/205/99 115/206/115 97/163/97
f 115/206/115 98/164/98 97/163/97
f 115/206/115 112/204/112 98/164/98
f 115/207/115 99/166/99 100/168/100
f 100/168/100 102/170/102 113/208/113
f 114/209/114 100/168/100 113/208/113
f 100/168/100 114/209/114 115/207/115
f 101/169/101 116/210/116 102/170/102
f 117/211/117 101/169/101 104/175/104
f 101/169/101 118/212/118 116/210/116
f 118/212/118 101/169/101 119/213/119
f 117/211/117 119/213/119 101/169/101
f 102/170/102 111/214/111 113/208/113
f 111/214/111 102/170/102 116/210/116
f 104/175/104 103/176/103 105/182/105
f 105/182/105 120/215/120 104/175/104
f 117/211/117 104/175/104 120/215/120
f 105/182/105 106/194/106 108/193/108
f 120/215/120 105/182/105 108/193/108
f 108/216/108 107/217/107 109/218/109
f 108/193/108 109/219/109 110/220/110
f 119/213/119 108/193/108 110/220/110
f 117/211/117 120/215/120 108/193/108
f 117/211/117 108/193/108 119/213/119
f 118/212/118 110/220/110 111/214/111
f 119/213/119 110/220/110 118/212/118
f 118/212/118 111/214/111 116/210/116
f 112/201/112 115/221/115 114/203/114
