# Blender 4.3.0
# www.blender.org
mtllib little_medial_rvs.mtl
o little_medial_rvs
v 0.031547 -0.132250 -0.045774
v 0.030906 -0.131724 -0.046719
v 0.033384 -0.133430 -0.046929
v 0.030091 -0.130211 -0.045145
v 0.030553 -0.130215 -0.044688
v 0.029985 -0.130611 -0.045603
v 0.034343 -0.130799 -0.044425
v 0.033132 -0.133203 -0.045935
v 0.032556 -0.132318 -0.051070
v 0.029923 -0.130544 -0.047012
v 0.033701 -0.133297 -0.045882
v 0.033290 -0.133002 -0.048849
v 0.034730 -0.132038 -0.048507
v 0.035028 -0.132689 -0.046251
v 0.028352 -0.128582 -0.045321
v 0.029851 -0.129287 -0.044698
v 0.030905 -0.129261 -0.044227
v 0.026151 -0.127343 -0.048065
v 0.034661 -0.132731 -0.045510
v 0.034822 -0.131879 -0.044982
v 0.033341 -0.129915 -0.044109
v 0.032012 -0.129361 -0.044005
v 0.034683 -0.130225 -0.044910
v 0.033591 -0.132680 -0.051344
v 0.029788 -0.129707 -0.049626
v 0.030514 -0.130069 -0.050694
v 0.033123 -0.131996 -0.051645
v 0.034600 -0.130472 -0.048188
v 0.035137 -0.130914 -0.049886
v 0.034478 -0.132063 -0.051550
v 0.035219 -0.131331 -0.045492
v 0.034999 -0.130567 -0.046674
v 0.023801 -0.124851 -0.044249
v 0.026191 -0.126102 -0.043915
v 0.028618 -0.128265 -0.044723
v 0.030401 -0.128480 -0.044928
v 0.029354 -0.127576 -0.044609
v 0.031404 -0.128384 -0.044599
v 0.026589 -0.126486 -0.049550
v 0.022455 -0.124133 -0.047608
v 0.021730 -0.123323 -0.048203
v 0.020694 -0.121411 -0.049291
v 0.033310 -0.129100 -0.044366
v 0.034782 -0.130065 -0.046387
v 0.033488 -0.128983 -0.046086
v 0.034338 -0.130663 -0.051907
v 0.029500 -0.128792 -0.050212
v 0.030364 -0.128927 -0.050812
v 0.031157 -0.129392 -0.051284
v 0.031311 -0.130396 -0.051128
v 0.034498 -0.129552 -0.049628
v 0.033194 -0.128941 -0.047808
v 0.034831 -0.130902 -0.051545
v 0.034630 -0.130218 -0.051473
v 0.024440 -0.124325 -0.042895
v 0.020002 -0.121340 -0.040567
v 0.020997 -0.120911 -0.040011
v 0.017999 -0.120751 -0.042263
v 0.027768 -0.126547 -0.044091
v 0.030528 -0.128046 -0.046048
v 0.023217 -0.121677 -0.049451
v 0.023749 -0.121178 -0.044723
v 0.029924 -0.127448 -0.048745
v 0.025445 -0.123350 -0.043461
v 0.029290 -0.127964 -0.050020
v 0.028822 -0.127000 -0.049700
v 0.017661 -0.121020 -0.046200
v 0.018003 -0.119767 -0.048821
v 0.019078 -0.119467 -0.049694
v 0.022052 -0.120962 -0.049501
v 0.033776 -0.129639 -0.051820
v 0.031092 -0.128065 -0.050751
v 0.029792 -0.127710 -0.049828
v 0.031725 -0.128808 -0.051394
v 0.032696 -0.128939 -0.051582
v 0.034277 -0.129547 -0.051377
v 0.032701 -0.128462 -0.051039
v 0.022709 -0.121271 -0.041053
v 0.025142 -0.123962 -0.042868
v 0.018440 -0.119941 -0.040670
v 0.020213 -0.119994 -0.039516
v 0.021345 -0.119317 -0.039583
v 0.016517 -0.119801 -0.044385
v 0.017325 -0.119998 -0.042567
v 0.022064 -0.120211 -0.049293
v 0.021276 -0.117629 -0.048342
v 0.021669 -0.117220 -0.041519
v 0.023495 -0.120827 -0.042094
v 0.016458 -0.119393 -0.046474
v 0.016657 -0.119386 -0.047116
v 0.018130 -0.118333 -0.049431
v 0.017253 -0.119041 -0.048201
v 0.019740 -0.118771 -0.049771
v 0.020539 -0.117974 -0.049287
v 0.022097 -0.118948 -0.040147
v 0.020261 -0.117256 -0.041229
v 0.019863 -0.118184 -0.039927
v 0.020279 -0.117730 -0.043343
v 0.019951 -0.118038 -0.044262
v 0.019631 -0.118983 -0.039364
v 0.018733 -0.119179 -0.044518
v 0.019406 -0.118800 -0.044248
v 0.020476 -0.119261 -0.039364
v 0.020730 -0.118559 -0.039505
v 0.018583 -0.119328 -0.045342
v 0.019499 -0.116860 -0.048670
v 0.019665 -0.116296 -0.047604
v 0.020246 -0.116158 -0.043152
v 0.021377 -0.117952 -0.040138
v 0.020539 -0.116478 -0.041844
v 0.020526 -0.116995 -0.040868
v 0.018057 -0.118925 -0.047232
v 0.018517 -0.117422 -0.049057
v 0.019428 -0.118141 -0.046511
v 0.020226 -0.117217 -0.040365
v 0.020110 -0.117601 -0.043979
v 0.019497 -0.118362 -0.044610
v 0.019880 -0.117122 -0.044489
v 0.019861 -0.118019 -0.044910
v 0.019309 -0.118838 -0.044923
vn -0.4829 -0.7479 0.4554
vn -0.6870 -0.7245 -0.0551
vn -0.0316 -0.9937 -0.1078
vn -0.5739 -0.5333 0.6215
vn -0.3906 -0.4762 0.7878
vn -0.6627 -0.6586 0.3564
vn 0.3712 -0.1413 0.9178
vn -0.3200 -0.7979 0.5109
vn -0.5538 -0.6969 -0.4556
vn -0.6944 -0.7126 -0.0998
vn 0.0854 -0.8704 0.4848
vn 0.1327 -0.9758 -0.1739
vn 0.8890 -0.4533 -0.0644
vn 0.8303 -0.5571 -0.0135
vn -0.6020 -0.6734 0.4291
vn -0.3730 -0.2110 0.9035
vn -0.2737 0.0685 0.9594
vn -0.6485 -0.7333 -0.2042
vn 0.4529 -0.6556 0.6042
vn 0.5035 -0.3970 0.7674
vn 0.1998 -0.0499 0.9786
vn -0.0728 0.0081 0.9973
vn 0.7815 0.4383 0.4441
vn 0.0898 -0.8425 -0.5312
vn -0.6904 -0.6182 -0.3758
vn -0.7212 -0.3806 -0.5788
vn -0.2371 -0.3167 -0.9184
vn 0.9235 0.3794 0.0560
vn 0.9994 0.0343 0.0079
vn 0.5590 -0.5428 -0.6268
vn 0.9705 0.0241 0.2400
vn 0.9593 0.2395 -0.1495
vn -0.5238 -0.8005 0.2913
vn -0.2697 -0.6367 0.7224
vn -0.2695 -0.4843 0.8324
vn 0.0969 0.6545 0.7498
vn 0.5077 0.4045 0.7607
vn 0.0292 0.8317 0.5545
vn -0.3783 -0.3507 -0.8567
vn -0.6248 -0.7767 -0.0798
vn -0.5727 -0.6879 -0.4459
vn -0.3150 -0.4447 -0.8385
vn 0.4438 0.6826 0.5807
vn 0.7841 0.6190 -0.0454
vn 0.5323 0.8463 0.0217
vn 0.2736 0.0578 -0.9601
vn -0.5515 -0.3188 -0.7708
vn -0.5501 0.0779 -0.8315
vn -0.3381 -0.0224 -0.9408
vn -0.4347 -0.2439 -0.8669
vn 0.7544 0.6518 0.0777
vn 0.5567 0.8305 0.0189
vn 0.8600 -0.0008 -0.5104
vn 0.8000 0.3944 -0.4521
vn -0.1357 -0.6360 0.7596
vn -0.3650 -0.7200 0.5902
vn 0.1289 -0.5249 0.8413
vn -0.6479 -0.6977 0.3058
vn 0.1990 -0.1505 0.9684
vn 0.2461 0.9463 0.2097
vn 0.4592 0.4197 -0.7829
vn 0.8184 0.5697 -0.0755
vn 0.4739 0.8782 -0.0645
vn 0.7719 0.5003 0.3921
vn -0.0420 0.3487 -0.9363
vn 0.3492 0.5529 -0.7566
vn -0.6512 -0.7460 -0.1394
vn -0.6363 -0.4727 -0.6097
vn -0.2992 -0.2444 -0.9224
vn 0.0792 0.0081 -0.9968
vn 0.1616 0.3652 -0.9168
vn -0.0906 0.8183 -0.5676
vn 0.1595 0.7921 -0.5891
vn -0.1922 0.3320 -0.9235
vn 0.0106 0.4297 -0.9029
vn 0.6581 0.6412 -0.3947
vn 0.3074 0.8836 -0.3532
vn 0.6232 -0.1194 0.7729
vn 0.4735 -0.0412 0.8798
vn -0.8579 0.0040 0.5139
vn -0.1531 -0.3983 0.9044
vn 0.4295 -0.0369 0.9023
vn -0.9416 0.2166 0.2577
vn -0.8708 0.2851 0.4006
vn 0.6366 0.4065 -0.6553
vn 0.6929 0.6174 -0.3723
vn 0.7006 0.6794 0.2180
vn 0.8720 0.3504 0.3419
vn -0.9309 0.3624 -0.0466
vn -0.9122 0.2375 -0.3339
vn -0.6882 0.3479 -0.6367
vn -0.8518 0.4214 -0.3112
vn 0.0520 0.1982 -0.9788
vn 0.3548 0.4950 -0.7931
vn 0.7500 0.2419 0.6157
vn -0.8626 0.5054 0.0207
vn -0.5223 0.5829 0.6225
vn -0.9378 0.3316 0.1024
vn -0.8938 0.4036 0.1955
vn -0.4278 0.2349 0.8728
vn -0.5005 0.8658 -0.0008
vn -0.7370 0.6692 0.0947
vn 0.0827 0.0225 0.9963
vn 0.0132 0.3691 0.9293
vn -0.4205 0.8896 0.1781
vn -0.2191 0.8809 -0.4196
vn -0.3632 0.9206 -0.1432
vn -0.3953 0.8998 0.1845
vn 0.4985 0.5690 0.6540
vn -0.3267 0.9140 0.2406
vn -0.1296 0.9130 0.3869
vn -0.4167 0.8840 0.2118
vn -0.6525 0.6868 -0.3201
vn -0.8086 0.5303 0.2551
vn -0.4404 0.7625 0.4740
vn -0.9433 0.0299 0.3307
vn -0.8102 0.5472 0.2099
vn -0.9808 0.0492 0.1886
vn -0.8972 0.4218 0.1310
vn -0.7823 0.6117 0.1171
vt 0.214634 0.098934
vt 0.174859 0.124498
vt 0.185625 0.012009
vt 0.226825 0.193681
vt 0.247133 0.183326
vt 0.209173 0.184085
vt 0.284843 0.064982
vt 0.220508 0.030272
vt 0.026115 0.039310
vt 0.156572 0.179521
vt 0.226671 0.012424
vt 0.113815 0.014434
vt 0.835971 0.821453
vt 0.901769 0.831846
vt 0.832325 0.895001
vt 0.899950 0.918798
vt 0.846543 0.934066
vt 0.207226 0.281543
vt 0.241430 0.225869
vt 0.845792 0.532341
vt 0.832325 0.499670
vt 0.861328 0.491792
vt 0.886866 0.372782
vt 0.089284 0.358036
vt 0.247391 0.001939
vt 0.267955 0.021651
vt 0.917650 0.458320
vt 0.916749 0.406677
vt 0.928689 0.508919
vt 0.928689 0.372782
vt 0.916749 0.378600
vt 0.888865 0.407837
vt 0.694951 0.753229
vt 0.712959 0.755624
vt 0.701873 0.801523
vt 0.023655 0.000000
vt 0.058708 0.189345
vt 0.024597 0.154137
vt 0.743326 0.783120
vt 0.719011 0.771616
vt 0.731933 0.656951
vt 0.734782 0.811117
vt 0.888936 0.946648
vt 0.848473 0.726767
vt 0.661249 0.839851
vt 0.573132 0.835525
vt 0.575758 0.787559
vt 0.520156 0.828256
vt 0.936906 0.776655
vt 0.888880 0.717433
vt 0.936906 0.943171
vt 0.683529 0.801478
vt 0.634698 0.786320
vt 0.212736 0.506888
vt 0.242900 0.411239
vt 0.231250 0.285418
vt 0.883369 0.529779
vt 0.885026 0.566383
vt 0.851691 0.582524
vt 0.901794 0.494311
vt 0.877446 0.452832
vt 0.037403 0.358813
vt 0.078423 0.543189
vt 0.050927 0.580131
vt 0.002702 0.650356
vt 0.913460 0.963902
vt 0.915515 0.423489
vt 0.640922 0.764871
vt 0.636273 0.700829
vt 0.698346 0.683849
vt 0.811778 0.785859
vt 0.774642 0.821973
vt 0.034740 0.216811
vt 0.230152 0.889196
vt 0.204061 0.859051
vt 0.230152 0.834168
vt 0.018918 0.186059
vt 0.768261 0.661933
vt 0.743155 0.689955
vt 0.760991 0.625406
vt 0.517620 0.773539
vt 0.570823 0.708005
vt 0.457068 0.835359
vt 0.454628 0.811407
vt 0.925291 0.714135
vt 0.816397 0.803221
vt 0.267437 0.509870
vt 0.320388 0.720599
vt 0.348199 0.706772
vt 0.242797 0.781331
vt 0.856622 0.666890
vt 0.877089 0.617060
vt 0.248067 0.355358
vt 0.651901 0.599530
vt 0.609736 0.601312
vt 0.650751 0.546263
vt 0.913163 0.552390
vt 0.395627 0.279067
vt 0.570034 0.236070
vt 0.503382 0.594745
vt 0.640531 0.325068
vt 0.916749 0.714135
vt 0.671272 0.619102
vt 0.734850 0.452110
vt 0.760325 0.566778
vt 0.742314 0.594216
vt 0.733460 0.161153
vt 0.775586 0.527993
vt 0.094692 0.761801
vt 0.000000 0.768687
vt 0.712959 0.042678
vt 0.749779 0.070765
vt 0.780160 0.189307
vt 0.788430 0.239087
vt 0.826900 0.744437
vt 0.432308 0.777711
vt 0.438762 0.819920
vt 0.803367 0.624122
vt 0.779549 0.573327
vt 0.799121 0.664099
vt 0.819717 0.695591
vt 0.451943 0.783777
vt 0.446427 0.712253
vt 0.154274 0.834168
vt 0.154274 0.933966
vt 0.122463 0.881268
vt 0.942513 0.641924
vt 0.942892 0.714135
vt 0.916749 0.656942
vt 0.942892 0.553930
vt 0.304833 0.798231
vt 0.360580 0.754169
vt 0.057073 0.836913
vt 0.082864 0.834168
vt 0.078104 0.882079
vt 0.106483 0.835161
vt 0.153210 0.834168
vt 0.226455 0.817081
vt 0.662970 0.328421
vt 0.652023 0.474347
vt 0.801421 0.169856
vt 0.457573 0.563862
vt 0.384887 0.209606
vt 0.400270 0.112282
vt 0.650623 0.049150
vt 0.662341 0.196423
vt 0.464109 0.608283
vt 0.696520 0.179118
vt 0.075408 0.834168
vt 0.053117 0.825189
vt 0.758159 0.014764
vt 0.713882 0.000000
vt 0.017291 0.811092
vt 0.786079 0.072590
vt 0.827499 0.072231
vt 0.428984 0.729801
vt 0.832325 0.680585
vt 0.442349 0.658724
vt 0.712959 0.093527
vt 0.082864 0.864232
vt 0.856421 0.287740
vt 0.965605 0.334089
vt 0.880440 0.344150
vt 0.893073 0.216696
vt 0.916687 0.186348
vt 0.905189 0.372782
vt 0.361738 0.796358
vt 0.204061 0.941237
vt 0.154274 0.882004
vt 0.204061 0.834168
vt 0.973448 0.187479
vt 0.949438 0.194236
vt 0.056921 0.861754
vt 0.028807 0.850699
vt 0.051105 0.888826
vt 0.082864 0.915671
vt 0.755045 0.883275
vt 0.768428 0.821973
vt 0.770238 0.941154
vt 0.832325 0.876041
vt 0.988470 0.159127
vt 1.000000 0.264373
vt 0.361738 0.111624
vt 0.370459 0.050216
vt 0.407831 0.029622
vt 0.574382 0.000000
vt 0.702563 0.048816
vt 0.626116 0.003987
vt 0.664333 0.008587
vt 0.248578 0.834168
vt 0.248578 0.875383
vt 0.230152 0.848206
vt 0.832325 0.938312
vt 0.713263 0.873636
vt 0.755045 0.876357
vt 0.751910 0.912853
vt 0.792888 0.000797
vt 0.755045 0.821973
vt 0.999699 0.085654
vt 0.948707 0.105455
vt 1.000000 0.000000
vt 0.960330 0.004209
vt 0.832325 0.011934
vt 0.048026 0.927563
vt 0.832325 0.257542
vt 0.840653 0.298367
vt 0.847084 0.318418
vt 0.012512 0.884781
vt 0.000000 0.925119
vt 0.896978 0.192058
vt 0.837803 0.206366
vt 0.936844 0.176553
vt 0.888432 0.168038
vt 0.923489 0.162613
vt 0.958542 0.170137
vt 0.893264 0.046296
vt 0.925056 0.013718
vt 0.361738 0.920388
vt 0.318722 0.915391
vt 0.361738 0.834168
vt 0.681510 0.002423
s 1
usemtl Material_with_Texture.134
f 1/1/1 2/2/2 3/3/3
f 4/4/4 1/1/1 5/5/5
f 1/1/1 6/6/6 2/2/2
f 7/7/7 1/1/1 8/8/8
f 5/5/5 1/1/1 7/7/7
f 3/3/3 8/8/8 1/1/1
f 6/6/6 1/1/1 4/4/4
f 3/3/3 2/2/2 9/9/9
f 9/9/9 2/2/2 10/10/10
f 6/6/6 10/10/10 2/2/2
f 3/3/3 11/11/11 8/8/8
f 12/12/12 3/3/3 9/9/9
f 12/13/12 13/14/13 3/15/3
f 13/14/13 14/16/14 3/15/3
f 14/16/14 11/17/11 3/15/3
f 15/18/15 4/4/4 16/19/16
f 5/5/5 16/19/16 4/4/4
f 6/6/6 4/4/4 15/18/15
f 16/20/16 5/21/5 17/22/17
f 17/22/17 5/21/5 7/23/7
f 18/24/18 10/10/10 6/6/6
f 6/6/6 15/18/15 18/24/18
f 8/8/8 11/11/11 7/7/7
f 11/11/11 19/25/19 7/7/7
f 19/25/19 20/26/20 7/7/7
f 21/27/21 22/28/22 7/29/7
f 22/28/22 17/30/17 7/29/7
f 7/23/7 23/31/23 21/32/21
f 23/33/23 7/34/7 20/35/20
f 9/9/9 24/36/24 12/12/12
f 10/10/10 25/37/25 9/9/9
f 26/38/26 9/9/9 25/37/25
f 27/39/27 9/40/9 26/41/26
f 27/39/27 24/42/24 9/40/9
f 18/24/18 25/37/25 10/10/10
f 14/16/14 19/43/19 11/17/11
f 13/14/13 12/13/12 24/44/24
f 14/45/14 13/46/13 28/47/28
f 13/46/13 29/48/29 28/47/28
f 29/49/29 13/14/13 30/50/30
f 13/14/13 24/44/24 30/50/30
f 31/51/31 19/43/19 14/16/14
f 31/52/31 14/45/14 32/53/32
f 32/53/32 14/45/14 28/47/28
f 33/54/33 15/18/15 34/55/34
f 33/54/33 18/24/18 15/18/15
f 16/19/16 35/56/35 15/18/15
f 35/56/35 34/55/34 15/18/15
f 36/57/36 37/58/37 16/20/16
f 35/59/35 16/20/16 37/58/37
f 17/22/17 36/57/36 16/20/16
f 38/60/38 17/22/17 22/61/22
f 36/57/36 17/22/17 38/60/38
f 25/37/25 18/24/18 39/62/39
f 18/24/18 33/54/33 40/63/40
f 41/64/41 18/24/18 40/63/40
f 39/62/39 18/24/18 42/65/42
f 18/24/18 41/64/41 42/65/42
f 31/51/31 20/66/20 19/43/19
f 31/52/31 23/33/23 20/35/20
f 22/61/22 21/32/21 43/67/43
f 21/32/21 23/31/23 43/67/43
f 22/61/22 43/67/43 38/60/38
f 44/68/44 45/69/45 23/33/23
f 23/33/23 31/52/31 44/68/44
f 43/70/43 23/33/23 45/69/45
f 24/42/24 46/71/46 30/72/30
f 27/39/27 46/71/46 24/42/24
f 39/62/39 47/73/47 25/37/25
f 48/74/48 26/75/26 25/76/25
f 25/37/25 47/73/47 48/77/48
f 49/78/49 50/79/50 26/41/26
f 49/78/49 26/41/26 48/80/48
f 50/79/50 27/39/27 26/41/26
f 50/79/50 46/71/46 27/39/27
f 29/48/29 51/81/51 28/47/28
f 28/47/28 51/81/51 52/82/52
f 44/68/44 28/47/28 45/69/45
f 28/47/28 52/82/52 45/69/45
f 44/68/44 32/53/32 28/47/28
f 53/83/53 54/84/54 29/48/29
f 29/48/29 54/84/54 51/81/51
f 53/85/53 29/49/29 30/50/30
f 53/86/53 30/72/30 46/71/46
f 32/53/32 44/68/44 31/52/31
f 55/87/55 33/54/33 34/55/34
f 56/88/56 33/54/33 57/89/57
f 57/89/57 33/54/33 55/87/55
f 33/54/33 56/88/56 58/90/58
f 40/63/40 33/54/33 58/90/58
f 34/91/34 35/59/35 59/92/59
f 34/55/34 59/93/59 55/87/55
f 37/58/37 59/92/59 35/59/35
f 36/94/36 60/95/60 37/96/37
f 36/57/36 38/60/38 60/97/60
f 37/96/37 61/98/61 62/99/62
f 63/100/63 61/98/61 37/96/37
f 37/96/37 60/95/60 63/100/63
f 37/96/37 62/99/62 64/101/64
f 64/102/64 59/92/59 37/58/37
f 63/100/63 38/103/38 43/70/43
f 63/100/63 60/95/60 38/103/38
f 39/104/39 65/105/65 47/106/47
f 42/107/42 66/108/66 39/104/39
f 39/104/39 66/108/66 65/105/65
f 67/109/67 41/64/41 40/63/40
f 58/90/58 67/109/67 40/63/40
f 68/110/68 41/64/41 67/109/67
f 42/65/42 41/64/41 68/110/68
f 42/107/42 68/111/68 69/112/69
f 42/107/42 69/112/69 70/113/70
f 42/107/42 70/113/70 61/114/61
f 61/114/61 66/108/66 42/107/42
f 43/70/43 45/69/45 63/100/63
f 45/69/45 52/82/52 63/100/63
f 46/71/46 50/79/50 71/115/71
f 71/116/71 54/84/54 46/117/46
f 53/83/53 46/117/46 54/84/54
f 65/105/65 48/80/48 47/106/47
f 72/118/72 49/78/49 48/80/48
f 73/119/73 72/118/72 48/80/48
f 73/119/73 48/80/48 65/105/65
f 49/78/49 72/118/72 74/120/74
f 50/79/50 49/78/49 74/120/74
f 75/121/75 50/79/50 74/120/74
f 71/115/71 50/79/50 75/121/75
f 51/81/51 54/84/54 76/122/76
f 76/122/76 77/123/77 51/81/51
f 77/123/77 52/82/52 51/81/51
f 63/100/63 52/82/52 77/123/77
f 71/116/71 76/122/76 54/84/54
f 57/124/57 55/125/55 78/126/78
f 79/127/79 78/128/78 55/129/55
f 59/130/59 79/127/79 55/129/55
f 80/131/80 58/90/58 56/88/56
f 80/131/80 56/88/56 81/132/81
f 56/88/56 57/89/57 81/132/81
f 81/133/81 57/134/57 82/135/82
f 57/124/57 78/126/78 82/136/82
f 67/109/67 58/90/58 83/137/83
f 58/90/58 84/138/84 83/137/83
f 84/138/84 58/90/58 80/131/80
f 64/101/64 79/139/79 59/140/59
f 85/141/85 61/114/61 70/113/70
f 66/142/66 61/98/61 63/100/63
f 61/98/61 85/143/85 62/99/62
f 62/99/62 85/143/85 86/144/86
f 87/145/87 62/99/62 86/144/86
f 62/99/62 88/146/88 64/101/64
f 87/145/87 88/146/88 62/99/62
f 63/100/63 77/123/77 73/147/73
f 73/147/73 66/142/66 63/100/63
f 78/148/78 79/139/79 64/101/64
f 64/101/64 88/146/88 78/148/78
f 66/108/66 73/119/73 65/105/65
f 67/109/67 83/137/83 89/149/89
f 90/150/90 68/110/68 67/109/67
f 90/150/90 67/109/67 89/149/89
f 91/151/91 68/111/68 92/152/92
f 90/150/90 92/153/92 68/110/68
f 91/151/91 69/112/69 68/111/68
f 69/112/69 91/151/91 93/154/93
f 70/113/70 69/112/69 93/154/93
f 70/113/70 94/155/94 85/141/85
f 70/113/70 93/154/93 94/155/94
f 71/116/71 75/156/75 76/122/76
f 72/118/72 77/157/77 74/120/74
f 72/158/72 73/147/73 77/123/77
f 77/157/77 75/121/75 74/120/74
f 77/123/77 76/122/76 75/156/75
f 95/159/95 78/148/78 88/146/88
f 82/136/82 78/126/78 95/160/95
f 96/161/96 80/162/80 97/163/97
f 80/162/80 98/164/98 99/165/99
f 97/163/97 80/162/80 100/166/100
f 80/131/80 81/132/81 100/167/100
f 101/168/101 84/169/84 80/170/80
f 98/164/98 80/162/80 96/161/96
f 101/171/101 80/162/80 102/172/102
f 99/165/99 102/172/102 80/162/80
f 103/173/103 100/174/100 81/133/81
f 81/133/81 82/135/82 103/173/103
f 103/173/103 82/135/82 104/175/104
f 104/175/104 82/135/82 95/176/95
f 83/177/83 84/178/84 89/179/89
f 84/178/84 105/180/105 89/179/89
f 101/171/101 105/181/105 84/182/84
f 86/144/86 85/143/85 94/183/94
f 106/184/106 86/144/86 94/183/94
f 86/144/86 106/184/106 107/185/107
f 107/185/107 108/186/108 86/144/86
f 86/144/86 108/186/108 87/145/87
f 87/145/87 109/187/109 95/159/95
f 110/188/110 87/145/87 108/186/108
f 95/159/95 88/146/88 87/145/87
f 109/187/109 87/145/87 111/189/111
f 110/188/110 111/189/111 87/145/87
f 89/190/89 112/191/112 90/192/90
f 105/180/105 112/193/112 89/179/89
f 112/194/112 92/195/92 90/196/90
f 93/154/93 91/151/91 113/197/113
f 112/194/112 91/198/91 92/195/92
f 112/199/112 114/200/114 91/201/91
f 114/200/114 113/202/113 91/201/91
f 113/197/113 94/155/94 93/154/93
f 106/203/106 94/155/94 113/197/113
f 104/175/104 95/176/95 109/204/109
f 110/205/110 98/164/98 96/161/96
f 110/205/110 96/161/96 111/206/111
f 115/207/115 111/206/111 96/161/96
f 96/161/96 97/163/97 115/207/115
f 100/174/100 103/173/103 97/208/97
f 103/173/103 115/209/115 97/208/97
f 98/164/98 116/210/116 99/165/99
f 110/205/110 108/211/108 98/164/98
f 116/210/116 98/164/98 108/211/108
f 102/172/102 99/165/99 117/212/117
f 116/210/116 118/213/118 99/165/99
f 119/214/119 99/165/99 118/213/118
f 99/165/99 119/214/119 117/212/117
f 105/181/105 101/171/101 102/172/102
f 102/172/102 120/215/120 105/181/105
f 120/215/120 102/172/102 117/212/117
f 103/173/103 104/175/104 115/209/115
f 104/175/104 109/204/109 115/209/115
f 114/200/114 112/199/112 105/181/105
f 114/200/114 105/181/105 120/215/120
f 107/216/107 106/217/106 114/200/114
f 106/218/106 113/219/113 114/220/114
f 108/211/108 107/216/107 118/213/118
f 107/216/107 114/200/114 119/214/119
f 118/213/118 107/216/107 119/214/119
f 116/210/116 108/211/108 118/213/118
f 111/189/111 115/221/115 109/187/109
f 114/200/114 120/215/120 117/212/117
f 119/214/119 114/200/114 117/212/117
