# Blender 4.3.0
# www.blender.org
mtllib lunate_rvs.mtl
o lunate_rvs
v 0.004990 -0.007899 -0.004332
v 0.004551 -0.009215 -0.007804
v 0.006942 -0.005752 -0.003262
v 0.006033 -0.004796 -0.000427
v 0.002158 -0.005212 -0.003514
v 0.004042 -0.004393 -0.001085
v 0.003113 -0.009773 -0.011046
v -0.000578 -0.007111 -0.009213
v 0.006404 -0.007793 -0.008042
v 0.007614 -0.002037 -0.003447
v 0.006342 -0.003671 0.000093
v 0.006544 -0.002501 0.001122
v 0.005858 -0.003116 0.000983
v -0.000299 -0.003177 -0.001685
v -0.001827 -0.005571 -0.004185
v -0.001032 -0.006029 -0.005978
v 0.004787 -0.001913 0.002186
v 0.005024 -0.008322 -0.010713
v 0.001146 -0.009880 -0.012837
v -0.006068 -0.008869 -0.005982
v -0.003959 -0.010357 -0.013294
v -0.001239 -0.009940 -0.013497
v 0.006156 -0.002218 -0.009622
v 0.007499 0.000208 -0.003468
v 0.005355 -0.001842 0.002250
v 0.005920 -0.000466 0.001626
v -0.000779 -0.001288 -0.000454
v 0.003712 -0.000111 0.003238
v -0.002451 -0.004004 -0.002572
v -0.003713 -0.006798 -0.004233
v 0.001071 -0.008110 -0.015063
v -0.001184 -0.008367 -0.015727
v -0.007919 -0.010191 -0.005715
v -0.008240 -0.010453 -0.001912
v -0.003415 -0.007365 -0.016033
v -0.006551 -0.006564 -0.014344
v -0.007614 -0.011666 -0.010857
v 0.005113 0.002271 -0.007105
v 0.001903 0.003545 -0.008247
v -0.000797 -0.003036 -0.015591
v 0.001456 0.001924 -0.011834
v -0.001790 -0.005907 -0.016647
v 0.005204 0.001387 0.000508
v 0.004310 0.003200 -0.005352
v -0.005242 0.000603 -0.007437
v -0.002935 -0.002121 -0.001354
v 0.000322 0.003815 -0.004819
v -0.006766 -0.005057 -0.000604
v -0.009550 -0.010868 -0.001413
v -0.010717 -0.009418 -0.001235
v -0.010224 -0.005679 -0.005620
v -0.008295 -0.008931 -0.009303
v -0.009415 -0.009672 -0.000114
v -0.003753 -0.005716 -0.016229
v -0.008908 -0.008834 -0.010165
v -0.008272 -0.005152 -0.011412
v -0.005538 -0.000838 -0.011710
v -0.003832 0.001584 -0.009732
v -0.002896 -0.002622 -0.015122
v -0.002234 0.000131 -0.013307
v -0.007745 -0.001415 -0.006820
v -0.007489 -0.001578 -0.009417
v -0.008141 -0.006093 0.000629
v -0.010560 -0.006233 -0.002709
v -0.010533 -0.007362 0.002683
v -0.011090 -0.007688 -0.000310
v -0.009761 -0.006815 -0.008669
v -0.009718 -0.006413 0.002336
vn 0.0953 -0.8861 0.4535
vn 0.1148 -0.9679 0.2234
vn 0.8499 -0.4746 0.2289
vn 0.2849 -0.6853 0.6702
vn -0.3133 -0.7833 0.5369
vn -0.3323 -0.7151 0.6150
vn 0.1790 -0.9797 -0.0897
vn 0.0137 -0.9064 0.4223
vn 0.8689 -0.4812 -0.1159
vn 0.9993 -0.0352 0.0155
vn 0.6774 -0.5057 0.5342
vn 0.7834 -0.2480 0.5699
vn 0.1493 -0.6961 0.7023
vn -0.1987 -0.6688 0.7164
vn 0.2345 -0.7971 0.5564
vn 0.2225 -0.9139 0.3395
vn -0.1644 -0.6503 0.7416
vn 0.7670 -0.4360 -0.4707
vn 0.1665 -0.9796 -0.1130
vn 0.5662 -0.7978 0.2070
vn 0.0005 -0.9420 -0.3356
vn 0.1090 -0.9910 -0.0772
vn 0.8310 0.2045 -0.5174
vn 0.9149 0.4033 0.0185
vn 0.3734 -0.3429 0.8620
vn 0.7521 0.3255 0.5731
vn -0.5713 0.0609 0.8185
vn -0.1124 0.2141 0.9703
vn 0.2056 -0.6066 0.7680
vn 0.5540 -0.7023 0.4471
vn 0.5302 -0.3263 -0.7826
vn 0.1142 -0.5738 -0.8110
vn -0.2113 -0.9757 -0.0582
vn 0.5611 -0.7585 0.3315
vn -0.3067 -0.4086 -0.8596
vn -0.6769 -0.0305 -0.7355
vn -0.3786 -0.9085 -0.1769
vn 0.6455 0.6462 -0.4071
vn 0.1750 0.9261 -0.3341
vn 0.2847 0.3520 -0.8917
vn 0.2958 0.7271 -0.6196
vn 0.1466 0.0467 -0.9881
vn 0.4337 0.7982 0.4182
vn 0.4291 0.9029 0.0266
vn -0.6016 0.7813 0.1663
vn -0.2913 0.2351 0.9273
vn -0.2733 0.9300 0.2458
vn 0.1141 0.3259 0.9385
vn -0.2518 -0.9501 0.1843
vn -0.8933 -0.4474 -0.0440
vn -0.9815 0.1106 -0.1565
vn -0.8625 -0.4605 0.2097
vn 0.4559 -0.5952 0.6617
vn -0.4112 0.1465 -0.8997
vn -0.9291 -0.3548 -0.1046
vn -0.8444 0.2454 -0.4762
vn -0.6212 0.6036 -0.4998
vn -0.4869 0.8360 -0.2531
vn -0.3240 0.4928 -0.8075
vn -0.2212 0.6842 -0.6949
vn -0.7008 0.6942 0.1641
vn -0.7628 0.5852 -0.2752
vn 0.3717 0.5070 0.7777
vn -0.8825 0.4510 0.1333
vn -0.3744 -0.0248 0.9269
vn -0.9664 0.2442 0.0797
vn -0.9767 -0.1405 -0.1624
vn 0.1370 0.6590 0.7396
vt 0.843101 0.381431
vt 0.858374 0.304447
vt 0.897013 0.433343
vt 0.157043 0.767517
vt 0.104133 0.726109
vt 0.141775 0.660703
vt 0.799916 0.698505
vt 0.710109 0.752763
vt 0.751073 0.630362
vt 0.695760 0.618477
vt 0.722437 0.846645
vt 0.765101 0.925765
vt 0.872625 0.853550
vt 0.915441 0.328754
vt 0.866267 0.214538
vt 0.082995 0.826404
vt 0.032890 0.655931
vt 0.125837 0.632955
vt 0.117640 0.596667
vt 0.708923 0.562054
vt 0.137152 0.605187
vt 0.871516 0.633633
vt 0.898867 0.728719
vt 0.881520 0.770779
vt 0.741296 0.520219
vt 0.917552 0.251502
vt 0.854240 0.145016
vt 0.819602 0.969196
vt 0.311760 0.756242
vt 0.177230 0.848213
vt 0.161209 0.784888
vt 0.311760 0.909671
vt 0.880987 0.989936
vt 0.944821 1.000000
vt 0.766778 0.325785
vt 0.716621 0.388756
vt 0.665775 0.276921
vt 0.762821 0.142792
vt 0.000000 0.607542
vt 0.728969 0.109647
vt 0.142593 0.557110
vt 0.103563 0.541233
vt 0.727464 0.516223
vt 0.894625 0.578150
vt 0.779182 0.471411
vt 0.921616 0.671251
vt 0.309616 0.705234
vt 0.301453 0.756242
vt 0.241416 0.750041
vt 0.428186 0.492456
vt 0.410620 0.549344
vt 0.352614 0.616453
vt 0.043212 0.826404
vt 0.043212 0.957721
vt 0.000000 0.932277
vt 0.586966 0.471411
vt 0.909790 0.095837
vt 0.876253 0.044831
vt 0.821663 0.091671
vt 0.343211 0.676368
vt 0.428186 0.714429
vt 0.959254 0.433343
vt 0.917552 0.256705
vt 0.959254 0.218937
vt 0.766778 0.050895
vt 0.858965 0.000000
vt 0.467302 0.940938
vt 0.428186 0.839765
vt 0.536754 0.886080
vt 0.462908 0.738002
vt 0.406707 0.751067
vt 0.406707 0.933859
vt 0.343211 0.845310
vt 0.611963 0.152884
vt 0.518913 0.151449
vt 0.473824 0.403257
vt 0.491462 0.252802
vt 0.482561 0.466642
vt 0.714108 0.000000
vt 0.766778 0.004768
vt 0.603727 0.098950
vt 0.157043 0.492456
vt 0.072881 0.509841
vt 0.125642 0.233912
vt 0.331895 0.319817
vt 0.428186 0.444068
vt 0.309484 0.258246
vt 0.944821 0.616144
vt 0.353235 0.492456
vt 0.180199 0.409244
vt 0.195971 0.634861
vt 0.181357 0.756242
vt 0.311760 0.540688
vt 0.917552 0.012730
vt 0.575208 0.525759
vt 0.623231 0.529325
vt 0.537785 0.641999
vt 0.667262 0.674939
vt 0.543632 0.731953
vt 0.425968 0.751067
vt 0.260393 0.510282
vt 0.301256 0.505455
vt 0.506613 0.962502
vt 0.474791 0.986813
vt 0.546990 0.746338
vt 0.611392 0.824507
vt 0.670737 0.908719
vt 0.336823 0.562549
vt 0.316916 0.638713
vt 0.311760 0.555904
vt 0.524222 0.068923
vt 0.066004 0.273869
vt 0.106057 0.431736
vt 0.033108 0.389519
vt 0.432895 0.381997
vt 0.446789 0.450122
vt 0.428186 0.303024
vt 0.000000 0.278855
vt 0.189508 0.486021
vt 0.150307 0.150762
vt 0.089904 0.147839
vt 0.034882 0.196050
vt 0.341014 0.132785
vt 0.375554 0.090283
vt 0.286071 0.027508
vt 0.188084 0.579373
vt 0.923570 0.141010
vt 0.917552 0.026456
vt 0.956892 0.000000
vt 0.956892 0.046896
vt 0.680890 0.601985
vt 0.673140 0.527274
vt 0.695760 0.471411
vt 0.695760 0.832382
vt 0.613551 0.731170
vt 0.211317 0.036221
vt 0.336823 0.492456
vt 0.157043 0.525799
vt 0.164439 0.492456
vt 0.572790 0.984368
vt 0.639121 0.984930
vt 0.356471 0.000000
vt 0.413737 0.055091
vt 0.428186 0.024034
s 1
usemtl Material_with_Texture.147
f 1/1/1 2/2/2 3/3/3
f 1/4/1 3/5/3 4/6/4
f 5/7/5 1/8/1 6/9/6
f 6/9/6 1/8/1 4/10/4
f 2/11/2 1/8/1 7/12/7
f 1/8/1 8/13/8 7/12/7
f 8/13/8 1/8/1 5/7/5
f 9/14/9 2/2/2 7/15/7
f 3/3/3 2/2/2 9/14/9
f 3/5/3 9/16/9 10/17/10
f 3/5/3 11/18/11 4/6/4
f 3/5/3 12/19/12 11/18/11
f 12/19/12 3/5/3 10/17/10
f 6/9/6 4/10/4 13/20/13
f 11/18/11 13/21/13 4/6/4
f 5/7/5 6/9/6 14/22/14
f 15/23/15 5/7/5 14/22/14
f 5/7/5 15/23/15 16/24/16
f 5/7/5 16/24/16 8/13/8
f 14/22/14 6/9/6 17/25/17
f 6/9/6 13/20/13 17/25/17
f 9/14/9 7/15/7 18/26/18
f 19/27/19 18/26/18 7/15/7
f 19/28/19 7/12/7 8/13/8
f 20/29/20 8/30/8 16/31/16
f 21/32/21 8/30/8 20/29/20
f 22/33/22 19/28/19 8/13/8
f 21/34/21 22/33/22 8/13/8
f 9/35/9 18/36/18 23/37/23
f 10/38/10 9/35/9 23/37/23
f 12/19/12 10/17/10 24/39/24
f 23/37/23 24/40/24 10/38/10
f 12/19/12 13/21/13 11/18/11
f 12/19/12 25/41/25 13/21/13
f 26/42/26 25/41/25 12/19/12
f 24/39/24 26/42/26 12/19/12
f 17/25/17 13/20/13 25/43/25
f 27/44/27 14/22/14 28/45/28
f 14/22/14 17/25/17 28/45/28
f 29/46/29 14/22/14 27/44/27
f 29/46/29 15/23/15 14/22/14
f 30/47/30 15/48/15 29/49/29
f 15/50/15 30/51/30 20/52/20
f 20/53/20 16/54/16 15/55/15
f 17/25/17 25/43/25 28/45/28
f 18/36/18 31/56/31 23/37/23
f 19/27/19 31/57/31 18/26/18
f 31/57/31 19/27/19 32/58/32
f 19/27/19 22/59/22 32/58/32
f 33/60/33 20/52/20 34/61/34
f 30/51/30 34/61/34 20/52/20
f 21/62/21 20/63/20 33/64/33
f 21/65/21 35/66/35 32/58/32
f 35/67/35 21/68/21 36/69/36
f 21/65/21 32/58/32 22/59/22
f 36/69/36 21/68/21 37/70/37
f 21/71/21 33/72/33 37/73/37
f 23/37/23 38/74/38 24/40/24
f 23/37/23 39/75/39 38/74/38
f 40/76/40 41/77/41 23/37/23
f 40/76/40 23/37/23 42/78/42
f 23/37/23 31/56/31 42/78/42
f 41/77/41 39/75/39 23/37/23
f 43/79/43 26/80/26 24/40/24
f 38/74/38 44/81/44 24/40/24
f 44/81/44 43/79/43 24/40/24
f 25/41/25 26/42/26 28/82/28
f 43/83/43 28/82/28 26/42/26
f 45/84/45 27/85/27 28/86/28
f 46/87/46 27/85/27 45/84/45
f 27/44/27 46/88/46 29/46/29
f 43/89/43 47/90/47 28/86/28
f 47/90/47 45/84/45 28/86/28
f 48/91/48 29/49/29 46/92/46
f 48/91/48 30/47/30 29/49/29
f 34/93/34 30/47/30 48/91/48
f 32/58/32 42/94/42 31/57/31
f 35/66/35 42/94/42 32/58/32
f 49/95/49 50/96/50 33/97/33
f 33/97/33 51/98/51 52/99/52
f 50/96/50 51/98/51 33/97/33
f 37/70/37 33/97/33 52/99/52
f 49/100/49 33/60/33 34/61/34
f 48/91/48 53/101/53 34/93/34
f 49/102/49 34/93/34 53/101/53
f 35/67/35 36/69/36 54/103/54
f 42/104/42 35/67/35 54/103/54
f 55/105/55 56/106/56 36/69/36
f 36/69/36 56/106/56 57/107/57
f 36/69/36 57/107/57 54/103/54
f 37/70/37 55/105/55 36/69/36
f 55/108/55 37/109/37 52/110/52
f 38/74/38 39/75/39 44/81/44
f 39/75/39 47/111/47 44/81/44
f 58/112/58 47/90/47 39/113/39
f 58/112/58 39/113/39 41/114/41
f 40/76/40 59/115/59 41/77/41
f 59/115/59 40/76/40 54/116/54
f 40/76/40 42/78/42 54/116/54
f 60/117/60 41/77/41 59/115/59
f 41/114/41 60/118/60 58/112/58
f 43/89/43 44/119/44 47/90/47
f 61/120/61 45/84/45 62/121/62
f 58/112/58 57/122/57 45/84/45
f 62/121/62 45/84/45 57/122/57
f 47/90/47 58/112/58 45/84/45
f 61/120/61 46/87/46 45/84/45
f 48/123/48 46/87/46 61/120/61
f 63/124/63 48/123/48 64/125/64
f 61/120/61 64/125/64 48/123/48
f 48/91/48 63/126/63 53/101/53
f 65/127/65 50/128/50 49/129/49
f 65/127/65 49/129/49 53/130/53
f 64/131/64 51/98/51 50/96/50
f 64/131/64 50/96/50 66/132/66
f 66/132/66 50/96/50 65/133/65
f 51/98/51 62/134/62 67/135/67
f 52/99/52 51/98/51 67/135/67
f 51/136/51 64/125/64 61/120/61
f 62/121/62 51/136/51 61/120/61
f 52/110/52 67/137/67 55/108/55
f 63/126/63 68/138/68 53/101/53
f 65/139/65 53/101/53 68/138/68
f 59/140/59 54/103/54 57/107/57
f 56/106/56 55/105/55 67/135/67
f 62/134/62 57/107/57 56/106/56
f 67/135/67 62/134/62 56/106/56
f 60/141/60 59/140/59 57/107/57
f 57/122/57 58/112/58 60/118/60
f 63/124/63 66/142/66 68/143/68
f 66/142/66 63/124/63 64/125/64
f 68/143/68 66/142/66 65/144/65
