# Blender v3.5.0 OBJ File: ''
# www.blender.org
mtllib lunate_lvs.mtl
o lunate_lvs
v 0.006942 -0.005752 0.003262
v 0.004551 -0.009215 0.007804
v 0.004990 -0.007899 0.004332
v 0.006033 -0.004796 0.000427
v 0.006404 -0.007793 0.008042
v 0.007614 -0.002037 0.003447
v 0.006342 -0.003671 -0.000093
v 0.006544 -0.002501 -0.001122
v 0.003113 -0.009773 0.011046
v 0.004042 -0.004393 0.001085
v 0.002158 -0.005212 0.003514
v -0.000578 -0.007111 0.009213
v 0.005858 -0.003116 -0.000983
v 0.005024 -0.008322 0.010713
v 0.006156 -0.002218 0.009622
v 0.007499 0.000208 0.003468
v 0.005355 -0.001842 -0.002250
v 0.005920 -0.000466 -0.001626
v 0.001146 -0.009880 0.012837
v -0.000299 -0.003177 0.001685
v 0.004787 -0.001913 -0.002186
v -0.001827 -0.005571 0.004185
v -0.001032 -0.006029 0.005978
v -0.006068 -0.008869 0.005982
v -0.003959 -0.010357 0.013294
v -0.001239 -0.009940 0.013497
v 0.001071 -0.008110 0.015063
v 0.005113 0.002271 0.007105
v 0.001903 0.003545 0.008247
v 0.001456 0.001924 0.011834
v -0.000797 -0.003036 0.015591
v -0.001790 -0.005907 0.016647
v 0.005204 0.001387 -0.000508
v 0.004310 0.003200 0.005352
v 0.003712 -0.000111 -0.003238
v -0.001184 -0.008367 0.015727
v -0.000779 -0.001288 0.000454
v -0.002451 -0.004004 0.002572
v -0.003713 -0.006798 0.004233
v -0.008240 -0.010453 0.001912
v -0.007919 -0.010191 0.005715
v -0.003415 -0.007365 0.016033
v -0.006551 -0.006564 0.014344
v -0.007614 -0.011666 0.010857
v 0.000322 0.003815 0.004819
v -0.003832 0.001584 0.009732
v -0.002896 -0.002622 0.015122
v -0.002234 0.000131 0.013307
v -0.003753 -0.005716 0.016229
v -0.005242 0.000603 0.007437
v -0.002935 -0.002121 0.001354
v -0.006766 -0.005057 0.000604
v -0.009550 -0.010868 0.001413
v -0.009415 -0.009672 0.000114
v -0.010717 -0.009418 0.001235
v -0.008295 -0.008931 0.009303
v -0.010224 -0.005679 0.005620
v -0.008272 -0.005152 0.011412
v -0.008908 -0.008834 0.010165
v -0.005538 -0.000838 0.011710
v -0.007489 -0.001578 0.009417
v -0.007745 -0.001415 0.006820
v -0.010560 -0.006233 0.002709
v -0.008141 -0.006093 -0.000629
v -0.010533 -0.007362 -0.002683
v -0.009718 -0.006413 -0.002336
v -0.011090 -0.007688 0.000310
v -0.009761 -0.006815 0.008669
vt 0.897013 0.000000
vt 0.858374 0.128896
vt 0.843101 0.051912
vt 0.141775 0.658157
vt 0.104133 0.592751
vt 0.157043 0.551343
vt 0.915441 0.104589
vt 0.032890 0.662929
vt 0.082995 0.492456
vt 0.125837 0.685905
vt 0.117640 0.722194
vt 0.765101 0.545646
vt 0.710109 0.718647
vt 0.722437 0.624766
vt 0.866267 0.218805
vt 0.751073 0.841049
vt 0.799916 0.772906
vt 0.695760 0.852934
vt 0.872625 0.617861
vt 0.708923 0.909357
vt 0.137152 0.713673
vt 0.917552 0.181841
vt 0.665775 0.194490
vt 0.716621 0.082654
vt 0.766778 0.145625
vt 0.762821 0.328618
vt 0.000000 0.711318
vt 0.728969 0.361764
vt 0.142593 0.761750
vt 0.103563 0.777628
vt 0.854240 0.288327
vt 0.819602 0.502215
vt 0.871516 0.837777
vt 0.741296 0.951192
vt 0.898867 0.742692
vt 0.881520 0.700632
vt 0.161209 0.881024
vt 0.177230 0.817700
vt 0.311760 0.909671
vt 0.311760 0.756242
vt 0.880987 0.481475
vt 0.944821 0.471411
vt 0.727464 0.955188
vt 0.586966 0.000000
vt 0.909790 0.337506
vt 0.611963 0.318527
vt 0.518913 0.319961
vt 0.491462 0.218609
vt 0.473824 0.068154
vt 0.482561 0.004769
vt 0.766778 0.466643
vt 0.714108 0.471411
vt 0.603727 0.372461
vt 0.779182 1.000000
vt 0.157043 0.826404
vt 0.072881 0.809020
vt 0.876253 0.388512
vt 0.821663 0.341671
vt 0.894625 0.893261
vt 0.921616 0.800159
vt 0.227387 0.750041
vt 0.167349 0.756242
vt 0.159187 0.705234
vt 0.352614 0.627070
vt 0.410620 0.694179
vt 0.428186 0.751067
vt 0.000000 0.851849
vt 0.043212 0.826404
vt 0.043212 0.957721
vt 0.428186 0.529093
vt 0.343211 0.567154
vt 0.959254 0.433343
vt 0.917552 0.395575
vt 0.959254 0.218937
vt 0.858965 0.433343
vt 0.766778 0.382448
vt 0.536754 0.572145
vt 0.428186 0.618459
vt 0.467302 0.517286
vt 0.462908 0.720223
vt 0.343211 0.839616
vt 0.406707 0.751067
vt 0.406707 0.933859
vt 0.917552 0.420613
vt 0.524222 0.402488
vt 0.106057 0.060720
vt 0.180199 0.083212
vt 0.066004 0.218587
vt 0.033108 0.102937
vt 0.432895 0.089414
vt 0.428186 0.168387
vt 0.000000 0.213601
vt 0.446789 0.021289
vt 0.506613 0.495722
vt 0.474791 0.471411
vt 0.428186 0.048388
vt 0.353235 0.000000
vt 0.189508 0.006435
vt 0.331895 0.172639
vt 0.125642 0.258544
vt 0.309484 0.234210
vt 0.944821 0.855267
vt 0.287446 0.756242
vt 0.272831 0.634861
vt 0.157043 0.540688
vt 0.425968 0.492456
vt 0.208410 0.510282
vt 0.167547 0.505455
vt 0.537785 0.816225
vt 0.623231 0.928899
vt 0.575208 0.932465
vt 0.543632 0.726271
vt 0.667262 0.783286
vt 0.611392 0.633717
vt 0.546990 0.711886
vt 0.670737 0.549505
vt 0.311760 0.575264
vt 0.316916 0.492456
vt 0.336823 0.568619
vt 0.034882 0.296406
vt 0.572790 0.473856
vt 0.639121 0.473294
vt 0.089904 0.344617
vt 0.150307 0.341694
vt 0.341014 0.359671
vt 0.286071 0.464948
vt 0.375554 0.402173
vt 0.280719 0.579373
vt 0.956892 0.141010
vt 0.917552 0.114554
vt 0.923570 0.000000
vt 0.956892 0.094114
vt 0.311760 0.525799
vt 0.304364 0.492456
vt 0.680890 0.856239
vt 0.673140 0.930951
vt 0.695760 0.986813
vt 0.613551 0.727054
vt 0.336823 0.638713
vt 0.695760 0.625842
vt 0.211317 0.456235
vt 0.356471 0.492456
vt 0.413737 0.437364
vt 0.428186 0.468422
vn 0.6803 -0.7097 -0.1830
vn 0.5573 -0.7161 -0.4202
vn 0.6093 -0.7517 -0.2524
vn 0.9832 -0.1795 0.0340
vn 0.8191 -0.4103 -0.4010
vn 0.7212 -0.5235 -0.4537
vn 0.9640 -0.1640 -0.2091
vn -0.5097 -0.7812 -0.3605
vn 0.5936 -0.7947 0.1265
vn -0.4635 -0.6663 -0.5841
vn -0.3498 -0.6857 -0.6383
vn -0.4263 -0.8334 -0.3518
vn -0.5242 -0.7001 -0.4849
vn -0.3563 -0.6222 -0.6971
vn 0.6255 -0.4623 -0.6285
vn 0.6145 -0.7715 0.1647
vn 0.8920 -0.0861 0.4438
vn 0.9732 -0.0217 0.2291
vn 0.9712 0.0519 -0.2327
vn 0.9718 0.0476 0.2309
vn 0.4402 -0.6346 -0.6352
vn 0.3703 -0.5775 -0.7276
vn 0.6986 0.0372 -0.7146
vn 0.9266 0.2062 -0.3145
vn 0.5560 -0.6004 0.5748
vn -0.3649 -0.8154 -0.4494
vn -0.2969 -0.8112 -0.5038
vn -0.2900 -0.7297 -0.6193
vn -0.1659 -0.7672 -0.6195
vn -0.0558 -0.7039 -0.7081
vn 0.0422 -0.9634 -0.2648
vn -0.0019 -0.9484 -0.3170
vn 0.4619 -0.8196 -0.3390
vn 0.4466 -0.8428 -0.3003
vn -0.1345 -0.8172 -0.5604
vn 0.1671 -0.8344 -0.5252
vn 0.0079 -0.7036 -0.7106
vn 0.7396 -0.0169 0.6729
vn 0.5499 -0.6446 0.5311
vn 0.8557 0.3897 0.3404
vn 0.4612 0.5131 0.7239
vn 0.6039 0.2885 0.7430
vn 0.6465 0.0562 0.7608
vn 0.5917 0.2085 0.7787
vn 0.7064 0.6078 0.3627
vn 0.8052 0.5018 -0.3160
vn 0.7006 0.7114 0.0561
vn 0.6326 0.7619 -0.1392
vn -0.0316 -0.5179 -0.8549
vn 0.5977 0.1144 -0.7935
vn 0.5398 0.5779 -0.6121
vn 0.2639 -0.7506 0.6057
vn 0.1765 -0.8064 0.5645
vn -0.4292 -0.5671 -0.7029
vn -0.3698 -0.6230 -0.6893
vn -0.1205 -0.5633 -0.8174
vn -0.0100 -0.7192 -0.6948
vn 0.3670 -0.5922 -0.7173
vn 0.5220 -0.8126 -0.2592
vn 0.4493 -0.7973 -0.4029
vn 0.5805 -0.8142 0.0071
vn 0.6411 -0.7662 -0.0440
vn 0.5808 -0.7486 -0.3199
vn -0.1878 -0.6444 0.7413
vn -0.5028 -0.5322 0.6812
vn 0.0822 -0.8153 0.5731
vn -0.3658 -0.4720 0.8021
vn 0.4783 -0.8362 -0.2682
vn 0.3001 -0.2684 0.9154
vn 0.4344 0.8629 0.2583
vn 0.1514 0.9884 0.0080
vn -0.2706 0.9419 0.1990
vn -0.2093 0.9006 0.3809
vn -0.0533 0.6182 0.7842
vn 0.0751 0.5362 0.8407
vn -0.2359 0.8589 0.4545
vn -0.1335 0.3664 0.9208
vn -0.1557 0.3880 0.9084
vn -0.0323 -0.3571 0.9335
vn -0.2204 -0.1596 0.9623
vn -0.0564 0.8880 -0.4564
vn 0.1815 0.9469 -0.2653
vn -0.6001 0.5876 -0.5427
vn -0.5967 0.5934 -0.5402
vn -0.4862 0.7138 -0.5040
vn -0.1247 -0.5613 -0.8182
vn 0.4593 -0.3962 -0.7950
vn 0.4488 -0.5977 -0.6643
vn 0.6322 -0.3413 -0.6956
vn 0.2873 -0.9569 0.0417
vn 0.7111 -0.3430 -0.6137
vn 0.4388 -0.6833 -0.5836
vn -0.7454 -0.5545 0.3699
vn -0.8892 -0.4528 0.0658
vn -0.8060 -0.4026 0.4339
vn -0.9684 -0.2491 -0.0140
vn -0.5040 -0.2031 0.8395
vn -0.8663 -0.0194 0.4991
vn -0.6942 0.3985 0.5994
vn -0.5911 0.4210 0.6880
vn -0.7922 -0.2232 0.5680
vn -0.7476 -0.4589 -0.4800
vn -0.5163 0.8550 -0.0483
vn -0.7346 0.6567 0.1706
vn -0.4580 0.7332 0.5027
vn -0.6038 0.4115 0.6827
vn -0.4880 0.5592 0.6702
vn -0.6402 0.7602 0.1108
vn -0.5675 0.7913 0.2275
vn -0.4641 0.7294 -0.5026
vn -0.4624 0.7314 -0.5013
vn -0.4168 0.8693 -0.2656
vn -0.4960 0.7128 -0.4958
vn 0.7596 -0.3800 -0.5278
vn -0.7067 -0.6123 -0.3545
vn 0.1385 -0.7357 -0.6630
vn 0.7145 -0.3767 -0.5895
vn 0.7027 -0.3846 -0.5985
vn -0.9933 -0.0045 0.1155
vn -0.9641 -0.0710 0.2560
vn -0.9279 -0.3105 -0.2065
vn -0.8045 -0.5862 -0.0962
vn -0.6831 -0.5986 -0.4184
vn -0.8974 0.3512 0.2671
vn -0.8650 0.5017 0.0044
vn -0.8725 0.4747 0.1158
vn -0.8757 -0.0122 0.4828
vn -0.7489 0.4404 0.4951
vn -0.8959 0.3495 0.2744
vn -0.5295 0.7721 -0.3513
vn -0.4112 0.8861 0.2138
vn -0.7449 0.6639 -0.0663
usemtl Material_with_Texture.146
s off
f 1/1/1 2/2/1 3/3/1
f 4/4/2 1/5/2 3/6/2
f 5/7/3 2/2/3 1/1/3
f 6/8/4 5/9/4 1/5/4
f 4/4/5 7/10/5 1/5/5
f 7/10/6 8/11/6 1/5/6
f 6/8/7 1/5/7 8/11/7
f 9/12/8 3/13/8 2/14/8
f 9/15/9 2/2/9 5/7/9
f 10/16/10 3/13/10 11/17/10
f 4/18/11 3/13/11 10/16/11
f 9/12/12 12/19/12 3/13/12
f 11/17/13 3/13/13 12/19/13
f 13/20/14 4/18/14 10/16/14
f 4/4/15 13/21/15 7/10/15
f 14/22/16 9/15/16 5/7/16
f 15/23/17 14/24/17 5/25/17
f 15/23/18 5/25/18 6/26/18
f 16/27/19 6/8/19 8/11/19
f 6/26/20 16/28/20 15/23/20
f 7/10/21 13/21/21 8/11/21
f 13/21/22 17/29/22 8/11/22
f 8/11/23 17/29/23 18/30/23
f 8/11/24 18/30/24 16/27/24
f 9/15/25 14/22/25 19/31/25
f 12/19/26 9/12/26 19/32/26
f 20/33/27 10/16/27 11/17/27
f 21/34/28 10/16/28 20/33/28
f 21/34/29 13/20/29 10/16/29
f 20/33/30 11/17/30 22/35/30
f 23/36/31 22/35/31 11/17/31
f 12/19/32 23/36/32 11/17/32
f 23/37/33 12/38/33 24/39/33
f 24/39/34 12/38/34 25/40/34
f 12/19/35 19/32/35 26/41/35
f 12/19/36 26/41/36 25/42/36
f 17/43/37 13/20/37 21/34/37
f 15/23/38 27/44/38 14/24/38
f 14/22/39 27/45/39 19/31/39
f 16/28/40 28/46/40 15/23/40
f 28/46/41 29/47/41 15/23/41
f 15/23/42 30/48/42 31/49/42
f 32/50/43 15/23/43 31/49/43
f 32/50/44 27/44/44 15/23/44
f 15/23/45 29/47/45 30/48/45
f 16/28/46 18/51/46 33/52/46
f 16/28/47 34/53/47 28/46/47
f 16/28/48 33/52/48 34/53/48
f 35/54/49 17/43/49 21/34/49
f 35/55/50 18/30/50 17/29/50
f 18/30/51 35/55/51 33/56/51
f 36/57/52 19/31/52 27/45/52
f 36/57/53 26/58/53 19/31/53
f 35/54/54 20/33/54 37/59/54
f 35/54/55 21/34/55 20/33/55
f 37/59/56 20/33/56 38/60/56
f 20/33/57 22/35/57 38/60/57
f 38/61/58 22/62/58 39/63/58
f 24/64/59 39/65/59 22/66/59
f 22/67/60 23/68/60 24/69/60
f 40/70/61 24/64/61 41/71/61
f 24/64/62 40/70/62 39/65/62
f 41/72/63 24/73/63 25/74/63
f 36/57/64 42/75/64 25/76/64
f 43/77/65 25/78/65 42/79/65
f 26/58/66 36/57/66 25/76/66
f 44/80/67 25/78/67 43/77/67
f 44/81/68 41/82/68 25/83/68
f 27/45/69 32/84/69 36/57/69
f 34/53/70 29/47/70 28/46/70
f 34/53/71 45/85/71 29/47/71
f 29/86/72 45/87/72 46/88/72
f 30/89/73 29/86/73 46/88/73
f 30/48/74 47/90/74 31/49/74
f 47/90/75 30/48/75 48/91/75
f 46/88/76 48/92/76 30/89/76
f 49/93/77 31/49/77 47/90/77
f 49/93/78 32/50/78 31/49/78
f 36/57/79 32/84/79 42/75/79
f 49/94/80 42/79/80 32/95/80
f 35/96/81 45/87/81 33/97/81
f 45/87/82 34/98/82 33/97/82
f 35/96/83 37/99/83 50/100/83
f 35/96/84 50/100/84 45/87/84
f 50/100/85 37/99/85 51/101/85
f 38/60/86 51/102/86 37/59/86
f 51/103/87 38/61/87 52/104/87
f 38/61/88 39/63/88 52/104/88
f 52/104/89 39/63/89 40/105/89
f 40/70/90 41/71/90 53/106/90
f 40/105/91 54/107/91 52/104/91
f 54/107/92 40/105/92 53/108/92
f 41/109/93 55/110/93 53/111/93
f 56/112/94 57/113/94 41/109/94
f 41/109/95 57/113/95 55/110/95
f 56/112/96 41/109/96 44/80/96
f 49/94/97 43/77/97 42/79/97
f 43/77/98 58/114/98 59/115/98
f 60/116/99 58/114/99 43/77/99
f 49/94/100 60/116/100 43/77/100
f 43/77/101 59/115/101 44/80/101
f 56/117/102 44/118/102 59/119/102
f 50/100/103 46/88/103 45/87/103
f 50/100/104 60/120/104 46/88/104
f 48/92/105 46/88/105 60/120/105
f 60/116/106 49/94/106 47/121/106
f 60/116/107 47/121/107 48/122/107
f 61/123/108 50/100/108 62/124/108
f 60/120/109 50/100/109 61/123/109
f 50/100/110 51/101/110 62/124/110
f 62/124/111 51/101/111 52/125/111
f 63/126/112 52/125/112 64/127/112
f 52/125/113 63/126/113 62/124/113
f 54/107/114 64/128/114 52/104/114
f 53/129/115 55/130/115 65/131/115
f 54/132/116 53/129/116 65/131/116
f 54/107/117 66/133/117 64/128/117
f 66/133/118 54/107/118 65/134/118
f 55/110/119 57/113/119 63/135/119
f 67/136/120 55/110/120 63/135/120
f 65/137/121 55/110/121 67/136/121
f 68/138/122 57/113/122 56/112/122
f 59/119/123 68/139/123 56/117/123
f 68/138/124 61/140/124 57/113/124
f 62/124/125 63/126/125 57/141/125
f 62/124/126 57/141/126 61/123/126
f 68/138/127 59/115/127 58/114/127
f 58/114/128 60/116/128 61/140/128
f 58/114/129 61/140/129 68/138/129
f 63/126/130 64/127/130 67/142/130
f 66/143/131 67/142/131 64/127/131
f 65/144/132 67/142/132 66/143/132
