# Blender v3.5.0 OBJ File: ''
# www.blender.org
mtllib metatarsal5_rv.mtl
o metatarsal5_rv
v 0.075870 0.012508 0.030152
v 0.077371 0.009442 0.031047
v 0.072996 0.012880 0.031839
v 0.078913 0.011216 0.029927
v 0.081532 0.012767 0.024906
v 0.072765 0.014965 0.032601
v 0.075317 0.009821 0.033651
v 0.072128 0.011844 0.033057
v 0.083675 0.008598 0.032455
v 0.080944 0.008407 0.033345
v 0.071819 0.014307 0.034763
v 0.084220 0.012351 0.024283
v 0.083168 0.014516 0.024014
v 0.077884 0.020515 0.031323
v 0.073493 0.016824 0.032994
v 0.071933 0.012969 0.035113
v 0.073342 0.013216 0.037023
v 0.076760 0.011222 0.037576
v 0.088684 0.010600 0.024990
v 0.091106 0.009012 0.032137
v 0.091900 0.010985 0.035395
v 0.087721 0.011890 0.035715
v 0.073329 0.014577 0.037342
v 0.076514 0.018874 0.033851
v 0.092819 0.012276 0.025238
v 0.083596 0.023714 0.029684
v 0.080211 0.018690 0.035634
v 0.076295 0.014315 0.038331
v 0.080550 0.014123 0.037504
v 0.095262 0.011521 0.026687
v 0.098795 0.008397 0.032605
v 0.103980 0.008537 0.031078
v 0.114149 0.006031 0.036430
v 0.087490 0.020606 0.033746
v 0.077796 0.015549 0.036946
v 0.092406 0.022838 0.029226
v 0.097794 0.015236 0.026563
v 0.088895 0.023199 0.031360
v 0.099383 0.013134 0.026988
v 0.118256 0.003512 0.035122
v 0.112854 0.008401 0.031158
v 0.121524 0.002986 0.034851
v 0.122751 0.002762 0.038191
v 0.110849 0.015649 0.034419
v 0.122594 0.009253 0.039084
v 0.127603 0.008559 0.040849
v 0.125691 0.003735 0.040073
v 0.125455 0.005300 0.040898
v 0.098012 0.020008 0.030553
v 0.099532 0.018231 0.028275
v 0.110741 0.015384 0.032517
v 0.125016 0.007692 0.033283
v 0.128364 0.000535 0.034117
v 0.129593 -0.000564 0.035699
v 0.128549 -0.000943 0.039390
v 0.117462 0.013578 0.034935
v 0.123101 0.011078 0.037696
v 0.128532 0.008257 0.043201
v 0.127212 0.005601 0.043207
v 0.128555 0.009457 0.038039
v 0.134111 0.008164 0.042451
v 0.131539 0.001557 0.043184
v 0.129267 0.003769 0.044199
v 0.128566 0.009363 0.035917
v 0.132793 0.004022 0.034216
v 0.130868 0.002854 0.034348
v 0.132334 -0.001175 0.036684
v 0.132580 -0.001876 0.040863
v 0.133493 -0.001774 0.041947
v 0.134196 0.005492 0.045842
v 0.140160 0.005525 0.040859
v 0.135480 0.006994 0.045383
v 0.137601 0.005182 0.046287
v 0.138118 0.001212 0.045227
v 0.135685 -0.000736 0.043949
v 0.133043 0.005432 0.034845
v 0.135142 0.003957 0.036546
v 0.135060 0.000984 0.035770
v 0.134356 -0.001564 0.040240
v 0.135535 -0.002224 0.039352
v 0.134256 -0.002169 0.041038
v 0.134998 -0.002628 0.041831
v 0.140245 0.002446 0.042635
v 0.140581 0.003764 0.039486
v 0.138129 -0.000435 0.043811
v 0.139099 -0.000962 0.041494
v 0.139081 0.000949 0.037961
v 0.138612 -0.000820 0.038539
v 0.137872 -0.001652 0.042399
v 0.139599 0.000349 0.038830
vt 0.770088 0.644332
vt 0.806138 0.606131
vt 0.784410 0.680408
vt 0.770940 0.596981
vt 0.087056 0.907022
vt 0.098232 0.955057
vt 0.014867 0.890822
vt 0.770088 0.183334
vt 0.807968 0.081365
vt 0.859441 0.047201
vt 0.826694 0.043782
vt 0.142183 0.940489
vt 0.143744 0.996252
vt 0.100395 0.916356
vt 0.787306 0.511126
vt 0.125908 0.856491
vt 0.109739 0.822026
vt 0.806138 0.683567
vt 0.867062 0.011806
vt 0.822537 0.017024
vt 0.000902 0.853161
vt 0.585332 0.893850
vt 0.611403 0.869562
vt 0.619442 0.907098
vt 0.919327 0.135470
vt 0.785414 0.216777
vt 0.886015 0.060332
vt 0.177128 1.000000
vt 0.203660 0.977466
vt 0.201269 0.918803
vt 0.852127 0.000000
vt 0.000000 0.781029
vt 0.096028 0.722790
vt 0.147950 0.714561
vt 0.440630 0.140907
vt 0.393453 0.301767
vt 0.389246 0.239300
vt 0.160970 0.775971
vt 0.825398 0.683568
vt 0.825398 0.778536
vt 0.800349 0.692262
vt 0.399014 0.004053
vt 0.383037 0.025509
vt 0.378779 0.000000
vt 0.839592 0.683568
vt 0.839592 0.781971
vt 0.825398 0.731124
vt 0.575736 0.745894
vt 0.617289 0.797823
vt 0.945689 0.216777
vt 0.469714 0.908359
vt 0.203660 0.153381
vt 0.265827 0.075917
vt 0.305576 0.118850
vt 0.917063 0.086442
vt 0.835550 0.599415
vt 0.835550 0.675867
vt 0.806138 0.650607
vt 0.400992 0.027167
vt 0.385686 0.071015
vt 0.425605 0.081163
vt 0.377538 0.132891
vt 0.578844 0.704334
vt 0.018219 0.691459
vt 0.090444 0.612810
vt 0.061475 0.545836
vt 0.118066 0.380519
vt 0.429165 0.638373
vt 0.257834 0.220883
vt 0.302008 0.061558
vt 0.359801 0.089480
vt 0.440630 0.782648
vt 0.515221 0.684212
vt 0.691989 0.122636
vt 0.728016 0.000000
vt 0.734603 0.080486
vt 0.208679 0.234619
vt 0.538368 0.652191
vt 0.591976 0.557145
vt 0.086161 0.313990
vt 0.553665 0.431946
vt 0.076197 0.266963
vt 0.599109 0.277657
vt 0.122426 0.241140
vt 0.290144 0.573359
vt 0.379751 0.762136
vt 0.388185 0.839472
vt 0.148512 0.201412
vt 0.438366 0.812437
vt 0.165313 0.210889
vt 0.234661 0.372456
vt 0.698279 0.427068
vt 0.689381 0.217468
vt 0.770088 0.082400
vt 0.649123 0.238978
vt 0.469950 0.666917
vt 0.469448 0.485796
vt 0.513605 0.252324
vt 0.049055 0.161886
vt 0.067214 0.135574
vt 0.121241 0.139338
vt 0.600239 0.174012
vt 0.800349 0.683568
vt 0.800349 0.787433
vt 0.770088 0.718213
vt 0.670739 0.420291
vt 0.681748 0.529058
vt 0.347207 0.765104
vt 0.700237 0.627701
vt 0.800349 0.793105
vt 0.820363 0.778536
vt 0.820363 0.831481
vt 0.685527 0.711101
vt 0.728012 0.712322
vt 0.729822 0.808417
vt 0.758662 0.734626
vt 0.440630 0.841167
vt 0.197320 0.182923
vt 0.179430 0.102423
vt 0.203660 0.142814
vt 0.654655 0.704339
vt 0.480896 0.201565
vt 0.531727 0.125717
vt 0.557109 0.147598
vt 0.612566 0.103899
vt 0.614011 0.147691
vt 0.134417 0.075634
vt 0.075999 0.092418
vt 0.149209 0.061088
vt 0.770088 0.274073
vt 0.829014 0.216777
vt 0.805126 0.313524
vt 0.870279 0.228815
vt 0.870279 0.272155
vt 0.683815 0.898197
vt 0.775088 0.310749
vt 0.766271 0.842993
vt 0.867077 0.314183
vt 0.773980 0.354271
vt 0.807144 0.394749
vt 0.849537 0.383368
vt 0.178260 0.031701
vt 0.619442 0.780879
vt 0.512548 0.126062
vt 0.527902 0.085675
vt 0.567722 0.077090
vt 0.123796 0.054303
vt 0.107366 0.036729
vt 0.619442 0.046941
vt 0.793402 0.787433
vt 0.800349 0.812417
vt 0.788905 0.812417
vt 0.133806 0.050663
vt 0.142997 0.036222
vt 0.494244 0.008985
vt 0.823812 0.439918
vt 0.773663 0.437097
vt 0.786826 0.408059
vt 0.815231 0.511126
vt 0.831642 0.599415
vt 0.806138 0.599415
vt 0.872730 0.394749
vt 0.770088 0.883914
vt 0.872730 0.451444
vt 0.860055 0.480769
vt 0.826659 0.495962
vt 0.173736 0.000000
vt 0.199055 0.005434
vt 0.513353 0.000000
vt 0.555510 0.014136
vt 0.583781 0.011864
vt 0.788905 0.818476
vt 0.781093 0.807166
vt 0.788905 0.787433
vt 0.095309 0.003652
vt 0.150077 0.000482
vt 0.782597 0.490106
vt 0.770088 0.488535
vt 0.846656 0.505349
vt 0.787209 0.511127
vt 0.563739 0.001895
vn -0.4934 -0.4575 -0.7397
vn -0.2249 -0.3729 -0.9002
vn -0.3774 -0.8109 -0.4473
vn -0.6717 -0.1203 -0.7309
vn -0.4640 0.2583 -0.8474
vn -0.4826 -0.8367 -0.2589
vn 0.0995 -0.5916 -0.8001
vn -0.2461 -0.9678 -0.0533
vn -0.0478 -0.9365 -0.3475
vn -0.4932 -0.4571 -0.7402
vn -0.9199 0.0407 -0.3901
vn -0.8706 0.2017 -0.4488
vn -0.2641 -0.8741 -0.4077
vn -0.2329 -0.8778 -0.4187
vn -0.2543 -0.2400 -0.9369
vn -0.5665 0.3508 -0.7456
vn -0.6646 0.2655 -0.6984
vn -0.8783 0.3995 -0.2627
vn -0.5912 0.3817 -0.7104
vn -0.5465 -0.7554 0.3615
vn -0.4912 -0.7408 0.4582
vn -0.5034 -0.7385 0.4487
vn -0.2037 -0.8960 0.3947
vn -0.9945 -0.0957 -0.0420
vn -0.2741 -0.8669 -0.4164
vn 0.0443 -0.9720 -0.2310
vn 0.0534 -0.9973 -0.0501
vn 0.1102 -0.8618 0.4951
vn -0.0430 -0.5035 0.8629
vn 0.1556 -0.7445 0.6492
vn -0.6354 0.7126 0.2974
vn -0.8642 0.0572 0.5000
vn -0.5878 0.6890 0.4240
vn 0.1085 -0.1217 -0.9866
vn 0.1095 -0.0700 -0.9915
vn -0.4786 0.4768 -0.7373
vn 0.2228 0.5040 -0.8345
vn -0.3061 0.8061 0.5065
vn -0.5877 0.7860 0.1917
vn -0.1809 0.8668 0.4646
vn -0.7866 -0.1480 0.5994
vn -0.3260 -0.2187 0.9197
vn -0.3047 -0.2688 0.9137
vn 0.1760 -0.2060 0.9626
vn 0.1776 -0.2081 0.9619
vn 0.2790 -0.5744 -0.7696
vn 0.2031 -0.9390 -0.2775
vn -0.0996 -0.8402 0.5331
vn -0.0706 -0.8846 -0.4610
vn -0.0589 -0.9559 -0.2878
vn -0.2203 -0.9240 0.3127
vn -0.0092 0.1648 0.9863
vn 0.1221 0.2218 0.9674
vn 0.1899 0.2211 0.9566
vn 0.3333 0.3783 0.8636
vn -0.1716 0.6947 0.6986
vn -0.3337 0.5701 0.7507
vn 0.0852 0.6963 0.7127
vn 0.0381 0.3543 -0.9344
vn 0.4124 -0.3097 -0.8567
vn -0.0136 0.3527 -0.9356
vn 0.0986 0.9951 -0.0061
vn -0.1137 0.7901 0.6024
vn 0.0090 0.3795 0.9252
vn 0.0148 0.6727 0.7398
vn 0.1751 0.6332 0.7539
vn 0.2526 -0.4898 -0.8344
vn 0.1159 -0.1119 -0.9869
vn -0.1376 -0.8282 -0.5433
vn -0.2665 -0.7493 0.6063
vn -0.0035 -0.6667 -0.7454
vn -0.1782 -0.8724 -0.4551
vn -0.0012 -0.5648 -0.8253
vn -0.3954 -0.8389 0.3741
vn -0.3279 0.0843 0.9410
vn 0.0164 0.2100 0.9776
vn -0.3230 0.0691 0.9439
vn -0.3495 -0.4893 0.7990
vn -0.3433 0.2399 0.9080
vn -0.3494 -0.4776 0.8061
vn 0.2681 0.5696 0.7769
vn 0.1772 0.8915 0.4169
vn 0.3338 0.8511 0.4052
vn 0.4860 0.8162 -0.3124
vn 0.1534 0.4218 -0.8936
vn 0.4910 0.1997 -0.8479
vn 0.3734 0.2848 -0.8829
vn 0.3929 0.2143 -0.8943
vn -0.1595 -0.9872 -0.0076
vn 0.1806 0.2403 -0.9537
vn 0.1348 -0.4018 -0.9057
vn -0.3495 -0.8746 -0.3361
vn -0.3770 -0.9045 -0.1995
vn -0.1730 -0.1934 -0.9657
vn -0.5541 -0.8191 0.1486
vn -0.4100 -0.3720 0.8328
vn 0.3061 0.9404 -0.1484
vn 0.3578 0.9219 -0.1488
vn 0.0118 0.6032 0.7975
vn 0.2652 0.9193 0.2907
vn -0.1803 0.6267 0.7581
vn -0.8280 0.4124 0.3800
vn -0.0158 0.9540 0.2995
vn 0.0320 0.9929 0.1149
vn -0.7251 0.4853 0.4885
vn 0.2434 0.8970 0.3691
vn -0.6978 -0.4135 0.5849
vn -0.5439 -0.4369 0.7165
vn -0.5118 -0.7320 0.4496
vn -0.6769 -0.4397 0.5903
vn 0.3667 0.8363 -0.4077
vn 0.3592 0.8639 -0.3531
vn 0.3286 0.5321 -0.7804
vn 0.3388 0.5182 -0.7853
vn 0.1381 -0.0506 -0.9891
vn 0.0369 -0.1721 -0.9844
vn 0.3994 -0.3467 -0.8487
vn 0.0300 -0.8098 -0.5859
vn -0.1619 -0.9747 -0.1540
vn -0.1712 -0.9740 -0.1484
vn -0.3340 -0.8698 0.3632
vn -0.4577 -0.5328 0.7118
vn 0.2524 0.9154 0.3135
vn 0.3577 0.9330 -0.0395
vn 0.0957 0.7830 0.6146
vn -0.3453 0.1737 0.9223
vn -0.3492 0.1120 0.9303
vn 0.2576 0.9654 -0.0414
vn 0.3646 0.9205 -0.1405
vn -0.5645 0.6414 0.5195
vn 0.4290 0.8899 0.1548
vn -0.1565 -0.4781 0.8642
vn -0.2995 -0.2329 0.9252
vn -0.2980 -0.2823 0.9119
vn -0.4258 -0.5238 0.7378
vn -0.1090 -0.5048 0.8563
vn 0.4658 0.6837 -0.5618
vn 0.1205 0.3865 -0.9144
vn 0.4367 -0.7720 -0.4618
vn 0.6944 0.1868 -0.6949
vn 0.0842 -0.4767 -0.8750
vn 0.4003 0.2211 -0.8893
vn -0.4065 -0.9040 0.1322
vn 0.1121 -0.9789 -0.1708
vn 0.3219 -0.6837 -0.6550
vn -0.0746 -0.7901 -0.6084
vn -0.1921 -0.9487 0.2510
vn -0.4954 -0.8678 -0.0387
vn -0.3179 -0.6535 0.6869
vn -0.0887 0.3596 0.9289
vn 0.6447 0.0369 -0.7635
vn 0.9815 0.1154 0.1530
vn 0.3891 0.6225 -0.6791
vn 0.8646 0.2688 0.4246
vn 0.5404 0.7844 0.3043
vn 0.7858 -0.0620 0.6153
vn 0.8271 -0.3632 0.4289
vn 0.7900 -0.4163 0.4501
vn 0.1222 -0.6466 0.7530
vn 0.1296 -0.7600 0.6369
vn 0.4706 0.2107 -0.8568
vn 0.4688 0.2144 -0.8569
vn 0.1540 -0.7258 -0.6704
vn 0.4396 -0.3821 -0.8129
vn -0.6776 -0.5427 -0.4963
vn -0.3310 -0.9173 -0.2212
vn 0.3848 -0.9147 -0.1234
vn 0.3347 -0.9389 -0.0805
vn 0.1339 -0.7626 0.6329
vn 0.9503 -0.3101 -0.0284
vn 0.9582 -0.2833 0.0404
vn 0.8123 -0.1241 -0.5699
vn 0.6596 -0.6245 0.4182
vn 0.7735 -0.6140 -0.1570
vn 0.4225 -0.8993 -0.1128
vn 0.6503 -0.3862 -0.6542
usemtl Material_with_Texture.182
s off
f 1/1/1 2/2/1 3/3/1
f 4/4/2 2/2/2 1/1/2
f 4/5/3 1/6/3 5/7/3
f 5/8/4 1/9/4 6/10/4
f 6/10/5 1/9/5 3/11/5
f 7/12/6 8/13/6 2/14/6
f 9/15/7 2/2/7 4/4/7
f 7/12/8 2/14/8 10/16/8
f 2/14/9 9/17/9 10/16/9
f 3/3/10 2/2/10 8/18/10
f 3/11/11 11/19/11 6/10/11
f 3/11/12 8/20/12 11/19/12
f 9/17/13 4/5/13 5/7/13
f 12/21/14 9/17/14 5/7/14
f 13/22/15 12/23/15 5/24/15
f 5/8/16 6/10/16 14/25/16
f 13/26/17 5/8/17 14/25/17
f 15/27/18 6/10/18 11/19/18
f 6/10/19 15/27/19 14/25/19
f 16/28/20 8/13/20 7/12/20
f 17/29/21 16/28/21 7/12/21
f 18/30/22 17/29/22 7/12/22
f 7/12/23 10/16/23 18/30/23
f 8/20/24 16/31/24 11/19/24
f 12/21/25 19/32/25 9/17/25
f 9/17/26 19/32/26 20/33/26
f 20/33/27 10/16/27 9/17/27
f 10/16/28 20/33/28 21/34/28
f 10/35/29 21/36/29 22/37/29
f 18/30/30 10/16/30 22/38/30
f 23/39/31 24/40/31 11/41/31
f 16/42/32 23/43/32 11/44/32
f 11/45/33 24/46/33 15/47/33
f 12/23/34 25/48/34 19/49/34
f 12/23/35 13/22/35 25/48/35
f 26/50/36 13/26/36 14/25/36
f 25/48/37 13/22/37 26/51/37
f 26/52/38 14/53/38 27/54/38
f 15/27/39 24/55/39 14/25/39
f 27/56/40 14/57/40 24/58/40
f 23/43/41 16/42/41 17/59/41
f 17/59/42 28/60/42 23/43/42
f 17/59/43 18/61/43 28/60/43
f 22/37/44 29/62/44 18/61/44
f 29/62/45 28/60/45 18/61/45
f 25/48/46 30/63/46 19/49/46
f 19/32/47 30/64/47 20/33/47
f 31/65/48 21/34/48 20/33/48
f 20/33/49 30/64/49 32/66/49
f 20/33/50 32/66/50 31/65/50
f 21/34/51 31/65/51 33/67/51
f 21/36/52 33/68/52 34/69/52
f 21/36/53 34/69/53 22/37/53
f 34/69/54 27/54/54 22/37/54
f 27/54/55 29/62/55 22/37/55
f 28/60/56 24/70/56 23/43/56
f 27/54/57 24/70/57 35/71/57
f 28/60/58 35/71/58 24/70/58
f 36/72/59 37/73/59 25/48/59
f 25/48/60 37/73/60 30/63/60
f 25/48/61 26/51/61 36/72/61
f 36/74/62 26/75/62 38/76/62
f 26/52/63 27/54/63 38/77/63
f 27/54/64 35/71/64 29/62/64
f 38/77/65 27/54/65 34/69/65
f 28/60/66 29/62/66 35/71/66
f 30/63/67 39/78/67 32/79/67
f 37/73/68 39/78/68 30/63/68
f 31/65/69 32/66/69 40/80/69
f 40/80/70 33/67/70 31/65/70
f 41/81/71 32/79/71 39/78/71
f 32/66/72 42/82/72 40/80/72
f 41/81/73 42/83/73 32/79/73
f 43/84/74 33/67/74 40/80/74
f 44/85/75 33/68/75 45/86/75
f 34/69/76 33/68/76 44/85/76
f 33/68/77 46/87/77 45/86/77
f 47/88/78 33/67/78 43/84/78
f 46/87/79 33/68/79 48/89/79
f 33/67/80 47/88/80 48/90/80
f 38/77/81 34/69/81 49/91/81
f 44/92/82 49/93/82 34/94/82
f 36/74/83 38/76/83 49/93/83
f 36/74/84 49/93/84 50/95/84
f 37/73/85 36/72/85 50/96/85
f 39/78/86 37/73/86 50/96/86
f 41/81/87 39/78/87 51/97/87
f 51/97/88 39/78/88 50/96/88
f 42/82/89 43/84/89 40/80/89
f 51/97/90 52/98/90 41/81/90
f 41/81/91 52/98/91 42/83/91
f 53/99/92 54/100/92 42/82/92
f 55/101/93 42/82/93 54/100/93
f 53/102/94 42/83/94 52/98/94
f 55/101/95 43/84/95 42/82/95
f 43/103/96 55/104/96 47/105/96
f 51/106/97 44/92/97 56/107/97
f 49/93/98 44/92/98 51/106/98
f 44/85/99 45/86/99 57/108/99
f 56/107/100 44/92/100 57/109/100
f 45/86/101 46/87/101 57/108/101
f 58/110/102 46/111/102 59/112/102
f 60/113/103 46/114/103 61/115/103
f 58/116/104 61/115/104 46/114/104
f 59/117/105 46/87/105 48/89/105
f 57/109/106 46/114/106 60/113/106
f 59/118/107 48/90/107 47/88/107
f 47/88/108 55/101/108 62/119/108
f 62/119/109 63/120/109 47/88/109
f 59/118/110 47/88/110 63/120/110
f 49/93/111 51/106/111 50/95/111
f 51/106/112 56/107/112 64/121/112
f 52/98/113 51/97/113 64/122/113
f 52/98/114 64/122/114 65/123/114
f 53/102/115 52/98/115 66/124/115
f 66/124/116 52/98/116 65/123/116
f 66/124/117 67/125/117 53/102/117
f 53/102/118 67/125/118 54/126/118
f 68/127/119 54/100/119 67/128/119
f 54/100/120 68/127/120 55/101/120
f 69/129/121 55/101/121 68/127/121
f 69/129/122 62/119/122 55/101/122
f 60/113/123 56/107/123 57/109/123
f 64/121/124 56/107/124 60/113/124
f 61/130/125 58/131/125 70/132/125
f 70/132/126 58/131/126 59/133/126
f 70/132/127 59/133/127 63/134/127
f 60/113/128 61/115/128 64/121/128
f 71/135/129 64/121/129 61/115/129
f 70/132/130 72/136/130 61/130/130
f 61/115/131 72/137/131 71/135/131
f 62/138/132 73/139/132 70/132/132
f 74/140/133 62/138/133 75/141/133
f 73/139/134 62/138/134 74/140/134
f 75/142/135 62/119/135 69/129/135
f 62/138/136 70/132/136 63/134/136
f 76/143/137 64/121/137 71/135/137
f 76/144/138 65/123/138 64/122/138
f 77/145/139 66/124/139 65/123/139
f 65/123/140 76/144/140 77/145/140
f 66/124/141 78/146/141 67/125/141
f 78/146/142 66/124/142 77/145/142
f 79/147/143 67/128/143 80/148/143
f 79/147/144 68/127/144 67/128/144
f 67/125/145 78/146/145 80/149/145
f 68/150/146 79/151/146 81/152/146
f 69/129/147 68/127/147 81/153/147
f 69/129/148 81/153/148 82/154/148
f 69/129/149 82/154/149 75/142/149
f 70/132/150 73/139/150 72/136/150
f 76/144/151 71/155/151 77/145/151
f 83/156/152 84/157/152 71/158/152
f 77/159/153 71/160/153 84/161/153
f 71/158/154 73/162/154 83/156/154
f 72/137/155 73/163/155 71/135/155
f 73/162/156 74/164/156 83/156/156
f 74/164/157 85/165/157 86/166/157
f 74/164/158 86/166/158 83/156/158
f 85/167/159 74/168/159 75/142/159
f 85/167/160 75/142/160 82/154/160
f 84/169/161 78/146/161 77/145/161
f 87/170/162 78/146/162 84/169/162
f 80/149/163 78/146/163 88/171/163
f 87/170/164 88/171/164 78/146/164
f 81/172/165 79/173/165 80/174/165
f 81/153/166 80/148/166 82/154/166
f 80/148/167 88/175/167 89/176/167
f 80/148/168 89/176/168 82/154/168
f 85/167/169 82/154/169 89/176/169
f 83/156/170 86/166/170 84/157/170
f 84/157/171 86/166/171 90/177/171
f 84/157/172 90/177/172 87/178/172
f 85/165/173 89/179/173 86/166/173
f 90/177/174 86/166/174 88/180/174
f 88/180/175 86/166/175 89/179/175
f 90/181/176 88/171/176 87/170/176
