# Blender 4.3.0
# www.blender.org
mtllib metatarsal5_rv.mtl
o metatarsal5_rv
v 0.075870 0.012508 0.030152
v 0.077371 0.009442 0.031047
v 0.072996 0.012880 0.031839
v 0.078913 0.011216 0.029927
v 0.081532 0.012767 0.024906
v 0.072765 0.014965 0.032601
v 0.075317 0.009821 0.033651
v 0.072128 0.011844 0.033057
v 0.083675 0.008598 0.032455
v 0.080944 0.008407 0.033345
v 0.071819 0.014307 0.034763
v 0.084220 0.012351 0.024283
v 0.083168 0.014516 0.024014
v 0.077884 0.020515 0.031323
v 0.073493 0.016824 0.032994
v 0.071933 0.012969 0.035113
v 0.073342 0.013216 0.037023
v 0.076760 0.011222 0.037576
v 0.088684 0.010600 0.024990
v 0.091106 0.009012 0.032137
v 0.091900 0.010985 0.035395
v 0.087721 0.011890 0.035715
v 0.073329 0.014577 0.037342
v 0.076514 0.018874 0.033851
v 0.092819 0.012276 0.025238
v 0.083596 0.023714 0.029684
v 0.080211 0.018690 0.035634
v 0.076295 0.014315 0.038331
v 0.080550 0.014123 0.037504
v 0.095262 0.011521 0.026687
v 0.098795 0.008397 0.032605
v 0.103980 0.008537 0.031078
v 0.114149 0.006031 0.036430
v 0.087490 0.020606 0.033746
v 0.077796 0.015549 0.036946
v 0.092406 0.022838 0.029226
v 0.097794 0.015236 0.026563
v 0.088895 0.023199 0.031360
v 0.099383 0.013134 0.026988
v 0.118256 0.003512 0.035122
v 0.112854 0.008401 0.031158
v 0.121524 0.002986 0.034851
v 0.122751 0.002762 0.038191
v 0.110849 0.015649 0.034419
v 0.122594 0.009253 0.039084
v 0.127603 0.008559 0.040849
v 0.125691 0.003735 0.040073
v 0.125455 0.005300 0.040898
v 0.098012 0.020008 0.030553
v 0.099532 0.018231 0.028275
v 0.110741 0.015384 0.032517
v 0.125016 0.007692 0.033283
v 0.128364 0.000535 0.034117
v 0.129593 -0.000564 0.035699
v 0.128549 -0.000943 0.039390
v 0.117462 0.013578 0.034935
v 0.123101 0.011078 0.037696
v 0.128532 0.008257 0.043201
v 0.127212 0.005601 0.043207
v 0.128555 0.009457 0.038039
v 0.134111 0.008164 0.042451
v 0.131539 0.001557 0.043184
v 0.129267 0.003769 0.044199
v 0.128566 0.009363 0.035917
v 0.132793 0.004022 0.034216
v 0.130868 0.002854 0.034348
v 0.132334 -0.001175 0.036684
v 0.132580 -0.001876 0.040863
v 0.133493 -0.001774 0.041947
v 0.134196 0.005492 0.045842
v 0.140160 0.005525 0.040859
v 0.135480 0.006994 0.045383
v 0.137601 0.005182 0.046287
v 0.138118 0.001212 0.045227
v 0.135685 -0.000736 0.043949
v 0.133043 0.005432 0.034845
v 0.135142 0.003957 0.036546
v 0.135060 0.000984 0.035770
v 0.134356 -0.001564 0.040240
v 0.135535 -0.002224 0.039352
v 0.134256 -0.002169 0.041038
v 0.134998 -0.002628 0.041831
v 0.140245 0.002446 0.042635
v 0.140581 0.003764 0.039486
v 0.138129 -0.000435 0.043811
v 0.139099 -0.000962 0.041494
v 0.139081 0.000949 0.037961
v 0.138612 -0.000820 0.038539
v 0.137872 -0.001652 0.042399
v 0.139599 0.000349 0.038830
vn -0.5463 -0.3253 -0.7719
vn -0.2522 -0.7765 -0.5774
vn -0.6636 -0.0568 -0.7459
vn -0.2149 -0.7310 -0.6477
vn -0.5113 -0.3876 -0.7670
vn -0.7942 0.2592 -0.5496
vn -0.4220 -0.8970 0.1313
vn -0.8432 -0.4762 -0.2496
vn -0.0328 -0.9675 -0.2508
vn -0.0178 -0.9820 0.1878
vn -0.9437 0.3127 0.1080
vn -0.1285 -0.5265 -0.8404
vn -0.2110 0.2293 -0.9502
vn -0.5661 0.8009 -0.1952
vn -0.7479 0.6410 -0.1723
vn -0.8603 -0.3695 0.3511
vn -0.5666 -0.4221 0.7076
vn -0.1465 -0.6045 0.7830
vn 0.0504 -0.6860 -0.7258
vn 0.0402 -0.9949 0.0924
vn -0.0052 -0.3927 0.9196
vn 0.1024 -0.1645 0.9811
vn -0.5764 0.3195 0.7521
vn -0.4043 0.7899 0.4610
vn 0.2304 -0.1265 -0.9648
vn -0.2216 0.9418 -0.2526
vn -0.0686 0.6018 0.7957
vn -0.0655 0.2308 0.9708
vn 0.2084 0.1404 0.9679
vn 0.2168 -0.6525 -0.7261
vn -0.1460 -0.9892 0.0125
vn -0.0502 -0.7620 -0.6456
vn -0.2976 -0.3942 0.8695
vn 0.1110 0.4964 0.8610
vn 0.0311 0.6019 0.7980
vn 0.2490 0.8838 -0.3961
vn 0.2499 0.1818 -0.9510
vn 0.1402 0.8771 0.4593
vn 0.2938 -0.1457 -0.9447
vn -0.2867 -0.9572 -0.0394
vn 0.1382 -0.2018 -0.9696
vn -0.1855 -0.7996 -0.5712
vn -0.4488 -0.7148 0.5364
vn 0.1854 0.8078 0.5595
vn -0.2348 0.3348 0.9126
vn -0.2534 0.8073 0.5330
vn -0.4865 -0.4618 0.7417
vn -0.5791 -0.0861 0.8107
vn 0.3599 0.9310 0.0604
vn 0.3685 0.5701 -0.7343
vn 0.3800 0.7075 -0.5959
vn 0.1973 0.1788 -0.9639
vn -0.0522 -0.5793 -0.8134
vn -0.1651 -0.9117 -0.3762
vn -0.4458 -0.8421 0.3037
vn 0.3292 0.9437 -0.0332
vn 0.1168 0.8207 0.5592
vn -0.3719 0.7172 0.5894
vn -0.6845 0.0356 0.7282
vn 0.2300 0.9646 0.1290
vn 0.2121 0.9528 0.2171
vn -0.3720 -0.5094 0.7760
vn -0.4371 -0.3841 0.8133
vn 0.3752 0.8010 -0.4664
vn 0.4529 -0.2171 -0.8648
vn 0.2178 -0.2441 -0.9450
vn 0.0688 -0.8411 -0.5364
vn -0.1871 -0.9801 0.0666
vn -0.3862 -0.7536 0.5319
vn -0.2235 0.0968 0.9699
vn 0.7806 0.6183 -0.0912
vn 0.0114 0.7949 0.6067
vn 0.3914 0.2497 0.8857
vn 0.3578 -0.3635 0.8601
vn -0.1529 -0.5602 0.8141
vn 0.4436 0.4359 -0.7831
vn 0.5584 0.1146 -0.8216
vn 0.3497 -0.2534 -0.9019
vn -0.3420 -0.8859 -0.3134
vn 0.0368 -0.9480 -0.3161
vn -0.3623 -0.8983 -0.2484
vn -0.1108 -0.9610 0.2536
vn 0.9387 -0.1159 0.3248
vn 0.8740 0.2129 -0.4368
vn 0.5054 -0.6094 0.6109
vn 0.7518 -0.6506 0.1070
vn 0.6051 -0.1136 -0.7880
vn 0.5163 -0.7015 -0.4913
vn 0.4055 -0.8593 0.3117
vn 0.8660 -0.3701 -0.3363
vt 0.770088 0.644332
vt 0.806138 0.606131
vt 0.784410 0.680408
vt 0.770940 0.596981
vt 0.087056 0.907022
vt 0.098232 0.955057
vt 0.014867 0.890822
vt 0.770088 0.183334
vt 0.807968 0.081365
vt 0.859441 0.047201
vt 0.826694 0.043782
vt 0.142183 0.940489
vt 0.143744 0.996252
vt 0.100395 0.916356
vt 0.787306 0.511126
vt 0.125908 0.856491
vt 0.109739 0.822026
vt 0.806138 0.683567
vt 0.867062 0.011806
vt 0.822537 0.017024
vt 0.000902 0.853161
vt 0.585332 0.893850
vt 0.611403 0.869562
vt 0.619442 0.907098
vt 0.919327 0.135470
vt 0.785414 0.216777
vt 0.886015 0.060332
vt 0.177128 1.000000
vt 0.203660 0.977466
vt 0.201269 0.918803
vt 0.852127 0.000000
vt 0.000000 0.781029
vt 0.096028 0.722790
vt 0.147950 0.714561
vt 0.440630 0.140907
vt 0.393453 0.301767
vt 0.389246 0.239300
vt 0.160970 0.775971
vt 0.825398 0.683568
vt 0.825398 0.778536
vt 0.800349 0.692262
vt 0.399014 0.004053
vt 0.383037 0.025509
vt 0.378779 0.000000
vt 0.839592 0.683568
vt 0.839592 0.781971
vt 0.825398 0.731124
vt 0.575736 0.745894
vt 0.617289 0.797823
vt 0.945689 0.216777
vt 0.469714 0.908359
vt 0.203660 0.153381
vt 0.265827 0.075917
vt 0.305576 0.118850
vt 0.917063 0.086442
vt 0.835550 0.599415
vt 0.835550 0.675867
vt 0.806138 0.650607
vt 0.400992 0.027167
vt 0.385686 0.071015
vt 0.425605 0.081163
vt 0.377538 0.132891
vt 0.578844 0.704334
vt 0.018219 0.691459
vt 0.090444 0.612810
vt 0.061475 0.545836
vt 0.118066 0.380519
vt 0.429165 0.638373
vt 0.257834 0.220883
vt 0.302008 0.061558
vt 0.359801 0.089480
vt 0.440630 0.782648
vt 0.515221 0.684212
vt 0.691989 0.122636
vt 0.728016 0.000000
vt 0.734603 0.080486
vt 0.208679 0.234619
vt 0.538368 0.652191
vt 0.591976 0.557145
vt 0.086161 0.313990
vt 0.553665 0.431946
vt 0.076197 0.266963
vt 0.599109 0.277657
vt 0.122426 0.241140
vt 0.290144 0.573359
vt 0.379751 0.762136
vt 0.388185 0.839472
vt 0.148512 0.201412
vt 0.438366 0.812437
vt 0.165313 0.210889
vt 0.234661 0.372456
vt 0.698279 0.427068
vt 0.689381 0.217468
vt 0.770088 0.082400
vt 0.649123 0.238978
vt 0.469950 0.666917
vt 0.469448 0.485796
vt 0.513605 0.252324
vt 0.049055 0.161886
vt 0.067214 0.135574
vt 0.121241 0.139338
vt 0.600239 0.174012
vt 0.800349 0.683568
vt 0.800349 0.787433
vt 0.770088 0.718213
vt 0.670739 0.420291
vt 0.681748 0.529058
vt 0.347207 0.765104
vt 0.700237 0.627701
vt 0.800349 0.793105
vt 0.820363 0.778536
vt 0.820363 0.831481
vt 0.685527 0.711101
vt 0.728012 0.712322
vt 0.729822 0.808417
vt 0.758662 0.734626
vt 0.440630 0.841167
vt 0.197320 0.182923
vt 0.179430 0.102423
vt 0.203660 0.142814
vt 0.654655 0.704339
vt 0.480896 0.201565
vt 0.531727 0.125717
vt 0.557109 0.147598
vt 0.612566 0.103899
vt 0.614011 0.147691
vt 0.134417 0.075634
vt 0.075999 0.092418
vt 0.149209 0.061088
vt 0.770088 0.274073
vt 0.829014 0.216777
vt 0.805126 0.313524
vt 0.870279 0.228815
vt 0.870279 0.272155
vt 0.683815 0.898197
vt 0.775088 0.310749
vt 0.766271 0.842993
vt 0.867077 0.314183
vt 0.773980 0.354271
vt 0.807144 0.394749
vt 0.849537 0.383368
vt 0.178260 0.031701
vt 0.619442 0.780879
vt 0.512548 0.126062
vt 0.527902 0.085675
vt 0.567722 0.077090
vt 0.123796 0.054303
vt 0.107366 0.036729
vt 0.619442 0.046941
vt 0.793402 0.787433
vt 0.800349 0.812417
vt 0.788905 0.812417
vt 0.133806 0.050663
vt 0.142997 0.036222
vt 0.494244 0.008985
vt 0.823812 0.439918
vt 0.773663 0.437097
vt 0.786826 0.408059
vt 0.815231 0.511126
vt 0.831642 0.599415
vt 0.806138 0.599415
vt 0.872730 0.394749
vt 0.770088 0.883914
vt 0.872730 0.451444
vt 0.860055 0.480769
vt 0.826659 0.495962
vt 0.173736 0.000000
vt 0.199055 0.005434
vt 0.513353 0.000000
vt 0.555510 0.014136
vt 0.583781 0.011864
vt 0.788905 0.818476
vt 0.781093 0.807166
vt 0.788905 0.787433
vt 0.095309 0.003652
vt 0.150077 0.000482
vt 0.782597 0.490106
vt 0.770088 0.488535
vt 0.846656 0.505349
vt 0.787209 0.511127
vt 0.563739 0.001895
s 1
usemtl Material_with_Texture.182
f 1/1/1 2/2/2 3/3/3
f 4/4/4 2/2/2 1/1/1
f 4/5/4 1/6/1 5/7/5
f 5/8/5 1/9/1 6/10/6
f 6/10/6 1/9/1 3/11/3
f 7/12/7 8/13/8 2/14/2
f 9/15/9 2/2/2 4/4/4
f 7/12/7 2/14/2 10/16/10
f 2/14/2 9/17/9 10/16/10
f 3/3/3 2/2/2 8/18/8
f 3/11/3 11/19/11 6/10/6
f 3/11/3 8/20/8 11/19/11
f 9/17/9 4/5/4 5/7/5
f 12/21/12 9/17/9 5/7/5
f 13/22/13 12/23/12 5/24/5
f 5/8/5 6/10/6 14/25/14
f 13/26/13 5/8/5 14/25/14
f 15/27/15 6/10/6 11/19/11
f 6/10/6 15/27/15 14/25/14
f 16/28/16 8/13/8 7/12/7
f 17/29/17 16/28/16 7/12/7
f 18/30/18 17/29/17 7/12/7
f 7/12/7 10/16/10 18/30/18
f 8/20/8 16/31/16 11/19/11
f 12/21/12 19/32/19 9/17/9
f 9/17/9 19/32/19 20/33/20
f 20/33/20 10/16/10 9/17/9
f 10/16/10 20/33/20 21/34/21
f 10/35/10 21/36/21 22/37/22
f 18/30/18 10/16/10 22/38/22
f 23/39/23 24/40/24 11/41/11
f 16/42/16 23/43/23 11/44/11
f 11/45/11 24/46/24 15/47/15
f 12/23/12 25/48/25 19/49/19
f 12/23/12 13/22/13 25/48/25
f 26/50/26 13/26/13 14/25/14
f 25/48/25 13/22/13 26/51/26
f 26/52/26 14/53/14 27/54/27
f 15/27/15 24/55/24 14/25/14
f 27/56/27 14/57/14 24/58/24
f 23/43/23 16/42/16 17/59/17
f 17/59/17 28/60/28 23/43/23
f 17/59/17 18/61/18 28/60/28
f 22/37/22 29/62/29 18/61/18
f 29/62/29 28/60/28 18/61/18
f 25/48/25 30/63/30 19/49/19
f 19/32/19 30/64/30 20/33/20
f 31/65/31 21/34/21 20/33/20
f 20/33/20 30/64/30 32/66/32
f 20/33/20 32/66/32 31/65/31
f 21/34/21 31/65/31 33/67/33
f 21/36/21 33/68/33 34/69/34
f 21/36/21 34/69/34 22/37/22
f 34/69/34 27/54/27 22/37/22
f 27/54/27 29/62/29 22/37/22
f 28/60/28 24/70/24 23/43/23
f 27/54/27 24/70/24 35/71/35
f 28/60/28 35/71/35 24/70/24
f 36/72/36 37/73/37 25/48/25
f 25/48/25 37/73/37 30/63/30
f 25/48/25 26/51/26 36/72/36
f 36/74/36 26/75/26 38/76/38
f 26/52/26 27/54/27 38/77/38
f 27/54/27 35/71/35 29/62/29
f 38/77/38 27/54/27 34/69/34
f 28/60/28 29/62/29 35/71/35
f 30/63/30 39/78/39 32/79/32
f 37/73/37 39/78/39 30/63/30
f 31/65/31 32/66/32 40/80/40
f 40/80/40 33/67/33 31/65/31
f 41/81/41 32/79/32 39/78/39
f 32/66/32 42/82/42 40/80/40
f 41/81/41 42/83/42 32/79/32
f 43/84/43 33/67/33 40/80/40
f 44/85/44 33/68/33 45/86/45
f 34/69/34 33/68/33 44/85/44
f 33/68/33 46/87/46 45/86/45
f 47/88/47 33/67/33 43/84/43
f 46/87/46 33/68/33 48/89/48
f 33/67/33 47/88/47 48/90/48
f 38/77/38 34/69/34 49/91/49
f 44/92/44 49/93/49 34/94/34
f 36/74/36 38/76/38 49/93/49
f 36/74/36 49/93/49 50/95/50
f 37/73/37 36/72/36 50/96/50
f 39/78/39 37/73/37 50/96/50
f 41/81/41 39/78/39 51/97/51
f 51/97/51 39/78/39 50/96/50
f 42/82/42 43/84/43 40/80/40
f 51/97/51 52/98/52 41/81/41
f 41/81/41 52/98/52 42/83/42
f 53/99/53 54/100/54 42/82/42
f 55/101/55 42/82/42 54/100/54
f 53/102/53 42/83/42 52/98/52
f 55/101/55 43/84/43 42/82/42
f 43/103/43 55/104/55 47/105/47
f 51/106/51 44/92/44 56/107/56
f 49/93/49 44/92/44 51/106/51
f 44/85/44 45/86/45 57/108/57
f 56/107/56 44/92/44 57/109/57
f 45/86/45 46/87/46 57/108/57
f 58/110/58 46/111/46 59/112/59
f 60/113/60 46/114/46 61/115/61
f 58/116/58 61/115/61 46/114/46
f 59/117/59 46/87/46 48/89/48
f 57/109/57 46/114/46 60/113/60
f 59/118/59 48/90/48 47/88/47
f 47/88/47 55/101/55 62/119/62
f 62/119/62 63/120/63 47/88/47
f 59/118/59 47/88/47 63/120/63
f 49/93/49 51/106/51 50/95/50
f 51/106/51 56/107/56 64/121/64
f 52/98/52 51/97/51 64/122/64
f 52/98/52 64/122/64 65/123/65
f 53/102/53 52/98/52 66/124/66
f 66/124/66 52/98/52 65/123/65
f 66/124/66 67/125/67 53/102/53
f 53/102/53 67/125/67 54/126/54
f 68/127/68 54/100/54 67/128/67
f 54/100/54 68/127/68 55/101/55
f 69/129/69 55/101/55 68/127/68
f 69/129/69 62/119/62 55/101/55
f 60/113/60 56/107/56 57/109/57
f 64/121/64 56/107/56 60/113/60
f 61/130/61 58/131/58 70/132/70
f 70/132/70 58/131/58 59/133/59
f 70/132/70 59/133/59 63/134/63
f 60/113/60 61/115/61 64/121/64
f 71/135/71 64/121/64 61/115/61
f 70/132/70 72/136/72 61/130/61
f 61/115/61 72/137/72 71/135/71
f 62/138/62 73/139/73 70/132/70
f 74/140/74 62/138/62 75/141/75
f 73/139/73 62/138/62 74/140/74
f 75/142/75 62/119/62 69/129/69
f 62/138/62 70/132/70 63/134/63
f 76/143/76 64/121/64 71/135/71
f 76/144/76 65/123/65 64/122/64
f 77/145/77 66/124/66 65/123/65
f 65/123/65 76/144/76 77/145/77
f 66/124/66 78/146/78 67/125/67
f 78/146/78 66/124/66 77/145/77
f 79/147/79 67/128/67 80/148/80
f 79/147/79 68/127/68 67/128/67
f 67/125/67 78/146/78 80/149/80
f 68/150/68 79/151/79 81/152/81
f 69/129/69 68/127/68 81/153/81
f 69/129/69 81/153/81 82/154/82
f 69/129/69 82/154/82 75/142/75
f 70/132/70 73/139/73 72/136/72
f 76/144/76 71/155/71 77/145/77
f 83/156/83 84/157/84 71/158/71
f 77/159/77 71/160/71 84/161/84
f 71/158/71 73/162/73 83/156/83
f 72/137/72 73/163/73 71/135/71
f 73/162/73 74/164/74 83/156/83
f 74/164/74 85/165/85 86/166/86
f 74/164/74 86/166/86 83/156/83
f 85/167/85 74/168/74 75/142/75
f 85/167/85 75/142/75 82/154/82
f 84/169/84 78/146/78 77/145/77
f 87/170/87 78/146/78 84/169/84
f 80/149/80 78/146/78 88/171/88
f 87/170/87 88/171/88 78/146/78
f 81/172/81 79/173/79 80/174/80
f 81/153/81 80/148/80 82/154/82
f 80/148/80 88/175/88 89/176/89
f 80/148/80 89/176/89 82/154/82
f 85/167/85 82/154/82 89/176/89
f 83/156/83 86/166/86 84/157/84
f 84/157/84 86/166/86 90/177/90
f 84/157/84 90/177/90 87/178/87
f 85/165/85 89/179/89 86/166/86
f 90/177/90 86/166/86 88/180/88
f 88/180/88 86/166/86 89/179/89
f 90/181/90 88/171/88 87/170/87
