# Blender 4.3.0
# www.blender.org
mtllib metatarsal5_lv.mtl
o metatarsal5_lv
v 0.072996 0.012880 -0.031839
v 0.077371 0.009442 -0.031047
v 0.075870 0.012508 -0.030152
v 0.078913 0.011216 -0.029927
v 0.081532 0.012767 -0.024906
v 0.072765 0.014965 -0.032601
v 0.072128 0.011844 -0.033057
v 0.075317 0.009821 -0.033651
v 0.083675 0.008598 -0.032455
v 0.080944 0.008407 -0.033345
v 0.071819 0.014307 -0.034763
v 0.084220 0.012351 -0.024283
v 0.083168 0.014516 -0.024014
v 0.077884 0.020515 -0.031323
v 0.073493 0.016824 -0.032994
v 0.071933 0.012969 -0.035113
v 0.073342 0.013216 -0.037023
v 0.076760 0.011222 -0.037576
v 0.088684 0.010600 -0.024990
v 0.091106 0.009012 -0.032137
v 0.091900 0.010985 -0.035395
v 0.087721 0.011890 -0.035715
v 0.076514 0.018874 -0.033851
v 0.073329 0.014577 -0.037342
v 0.092819 0.012276 -0.025238
v 0.083596 0.023714 -0.029684
v 0.080211 0.018690 -0.035634
v 0.076295 0.014315 -0.038331
v 0.080550 0.014123 -0.037504
v 0.095262 0.011521 -0.026687
v 0.098795 0.008397 -0.032605
v 0.103980 0.008537 -0.031078
v 0.114149 0.006031 -0.036430
v 0.087490 0.020606 -0.033746
v 0.077796 0.015549 -0.036946
v 0.097794 0.015236 -0.026563
v 0.092406 0.022838 -0.029226
v 0.088895 0.023199 -0.031360
v 0.099383 0.013134 -0.026988
v 0.118256 0.003512 -0.035122
v 0.112854 0.008401 -0.031158
v 0.121524 0.002986 -0.034851
v 0.122751 0.002762 -0.038191
v 0.122594 0.009253 -0.039084
v 0.110849 0.015649 -0.034419
v 0.127603 0.008559 -0.040849
v 0.125691 0.003735 -0.040073
v 0.125455 0.005300 -0.040898
v 0.098012 0.020008 -0.030553
v 0.099532 0.018231 -0.028275
v 0.110741 0.015384 -0.032517
v 0.125016 0.007692 -0.033283
v 0.129593 -0.000564 -0.035699
v 0.128364 0.000535 -0.034117
v 0.128549 -0.000943 -0.039390
v 0.117462 0.013578 -0.034935
v 0.123101 0.011078 -0.037696
v 0.127212 0.005601 -0.043207
v 0.128532 0.008257 -0.043201
v 0.134111 0.008164 -0.042451
v 0.128555 0.009457 -0.038039
v 0.131539 0.001557 -0.043184
v 0.129267 0.003769 -0.044199
v 0.128566 0.009363 -0.035917
v 0.132793 0.004022 -0.034216
v 0.130868 0.002854 -0.034348
v 0.132334 -0.001175 -0.036684
v 0.132580 -0.001876 -0.040863
v 0.133493 -0.001774 -0.041947
v 0.134196 0.005492 -0.045842
v 0.140160 0.005525 -0.040859
v 0.135480 0.006994 -0.045383
v 0.137601 0.005182 -0.046287
v 0.135685 -0.000736 -0.043949
v 0.138118 0.001212 -0.045227
v 0.133043 0.005432 -0.034845
v 0.135142 0.003957 -0.036546
v 0.135060 0.000984 -0.035770
v 0.135535 -0.002224 -0.039352
v 0.134356 -0.001564 -0.040240
v 0.134256 -0.002169 -0.041038
v 0.134998 -0.002628 -0.041831
v 0.140581 0.003764 -0.039486
v 0.140245 0.002446 -0.042635
v 0.139099 -0.000962 -0.041494
v 0.138129 -0.000435 -0.043811
v 0.139081 0.000949 -0.037961
v 0.138612 -0.000820 -0.038539
v 0.137872 -0.001652 -0.042399
v 0.139599 0.000349 -0.038830
vn -0.6633 -0.0568 0.7462
vn -0.2522 -0.7765 0.5774
vn -0.5463 -0.3253 0.7719
vn -0.2149 -0.7310 0.6477
vn -0.5113 -0.3876 0.7670
vn -0.7942 0.2592 0.5496
vn -0.8432 -0.4762 0.2496
vn -0.4220 -0.8970 -0.1313
vn -0.0328 -0.9675 0.2508
vn -0.0178 -0.9820 -0.1878
vn -0.9437 0.3127 -0.1080
vn -0.1285 -0.5265 0.8404
vn -0.2110 0.2293 0.9502
vn -0.5661 0.8009 0.1952
vn -0.7479 0.6410 0.1723
vn -0.8603 -0.3695 -0.3511
vn -0.5666 -0.4221 -0.7076
vn -0.1462 -0.6051 -0.7826
vn 0.0504 -0.6860 0.7258
vn 0.0402 -0.9949 -0.0924
vn -0.0052 -0.3927 -0.9196
vn 0.1024 -0.1645 -0.9811
vn -0.4043 0.7899 -0.4610
vn -0.5764 0.3195 -0.7521
vn 0.2304 -0.1265 0.9648
vn -0.2216 0.9418 0.2526
vn -0.0686 0.6018 -0.7957
vn -0.0655 0.2308 -0.9708
vn 0.2083 0.1402 -0.9680
vn 0.2168 -0.6525 0.7261
vn -0.1460 -0.9892 -0.0125
vn -0.0502 -0.7620 0.6456
vn -0.2976 -0.3944 -0.8694
vn 0.1110 0.4964 -0.8610
vn 0.0311 0.6019 -0.7980
vn 0.2499 0.1818 0.9510
vn 0.2490 0.8838 0.3961
vn 0.1402 0.8771 -0.4593
vn 0.2938 -0.1457 0.9447
vn -0.2867 -0.9572 0.0394
vn 0.1382 -0.2018 0.9696
vn -0.1855 -0.7996 0.5712
vn -0.4488 -0.7148 -0.5364
vn -0.2348 0.3348 -0.9126
vn 0.1854 0.8078 -0.5595
vn -0.2534 0.8073 -0.5330
vn -0.4862 -0.4627 -0.7412
vn -0.5791 -0.0861 -0.8107
vn 0.3599 0.9310 -0.0604
vn 0.3685 0.5701 0.7343
vn 0.3800 0.7075 0.5959
vn 0.1973 0.1788 0.9639
vn -0.1642 -0.9113 0.3775
vn -0.0522 -0.5793 0.8134
vn -0.4458 -0.8421 -0.3037
vn 0.3292 0.9437 0.0332
vn 0.1168 0.8207 -0.5592
vn -0.6845 0.0356 -0.7282
vn -0.3719 0.7172 -0.5894
vn 0.2121 0.9528 -0.2171
vn 0.2300 0.9646 -0.1290
vn -0.3720 -0.5094 -0.7760
vn -0.4371 -0.3841 -0.8133
vn 0.3752 0.8010 0.4664
vn 0.4529 -0.2171 0.8648
vn 0.2178 -0.2441 0.9450
vn 0.0688 -0.8411 0.5364
vn -0.1863 -0.9803 -0.0663
vn -0.3862 -0.7536 -0.5319
vn -0.2235 0.0968 -0.9699
vn 0.7806 0.6183 0.0912
vn 0.0114 0.7949 -0.6067
vn 0.3914 0.2497 -0.8857
vn -0.1529 -0.5602 -0.8141
vn 0.3578 -0.3635 -0.8601
vn 0.4436 0.4359 0.7831
vn 0.5584 0.1146 0.8216
vn 0.3496 -0.2526 0.9022
vn 0.0368 -0.9480 0.3161
vn -0.3420 -0.8859 0.3134
vn -0.3623 -0.8983 0.2484
vn -0.1105 -0.9613 -0.2525
vn 0.8743 0.2120 0.4366
vn 0.9387 -0.1159 -0.3248
vn 0.7518 -0.6506 -0.1070
vn 0.5054 -0.6094 -0.6109
vn 0.6051 -0.1136 0.7880
vn 0.5163 -0.7015 0.4913
vn 0.4055 -0.8593 -0.3117
vn 0.8660 -0.3701 0.3363
vt 0.784410 0.514286
vt 0.806138 0.588562
vt 0.770088 0.550362
vt 0.770940 0.597713
vt 0.014867 0.109178
vt 0.098232 0.044943
vt 0.087056 0.092978
vt 0.856337 0.047201
vt 0.907809 0.081365
vt 0.945689 0.183334
vt 0.889083 0.043782
vt 0.100395 0.083644
vt 0.143744 0.003748
vt 0.142183 0.059511
vt 0.787306 0.683567
vt 0.125908 0.143509
vt 0.109739 0.177974
vt 0.806138 0.511126
vt 0.848716 0.011806
vt 0.893241 0.017024
vt 0.000902 0.146839
vt 0.619442 0.001261
vt 0.611403 0.038797
vt 0.585332 0.014508
vt 0.796450 0.135470
vt 0.930364 0.216777
vt 0.829762 0.060332
vt 0.177128 0.000000
vt 0.203660 0.022534
vt 0.201269 0.081197
vt 0.863651 0.000000
vt 0.000000 0.218971
vt 0.096028 0.277210
vt 0.147950 0.285439
vt 0.389246 0.601867
vt 0.393453 0.539400
vt 0.440630 0.700261
vt 0.160970 0.224029
vt 0.800349 0.769841
vt 0.825398 0.683567
vt 0.825398 0.778536
vt 0.378779 0.841167
vt 0.383037 0.815658
vt 0.399014 0.837114
vt 0.825398 0.734415
vt 0.839592 0.683568
vt 0.839592 0.781971
vt 0.617289 0.110536
vt 0.575736 0.162465
vt 0.770088 0.216777
vt 0.469714 0.000000
vt 0.305576 0.722317
vt 0.265827 0.765250
vt 0.203660 0.687786
vt 0.798714 0.086442
vt 0.806138 0.624675
vt 0.835550 0.599415
vt 0.835550 0.675867
vt 0.400992 0.814000
vt 0.385686 0.770152
vt 0.425605 0.760004
vt 0.377538 0.708277
vt 0.578844 0.204025
vt 0.018219 0.308541
vt 0.090444 0.387190
vt 0.061475 0.454164
vt 0.118066 0.619481
vt 0.257834 0.620284
vt 0.429165 0.202794
vt 0.302008 0.779609
vt 0.359801 0.751687
vt 0.515221 0.224147
vt 0.440630 0.125711
vt 0.734603 0.817712
vt 0.728016 0.898197
vt 0.691989 0.775561
vt 0.208679 0.606548
vt 0.591976 0.351214
vt 0.538368 0.256168
vt 0.086161 0.686010
vt 0.553665 0.476413
vt 0.076197 0.733037
vt 0.599109 0.630702
vt 0.122426 0.758860
vt 0.379751 0.079031
vt 0.290144 0.267808
vt 0.388185 0.001695
vt 0.148512 0.798588
vt 0.438366 0.028730
vt 0.165313 0.789111
vt 0.234661 0.468711
vt 0.770088 0.815797
vt 0.689381 0.680729
vt 0.698279 0.471129
vt 0.649123 0.659219
vt 0.469950 0.241441
vt 0.469448 0.422563
vt 0.513605 0.656035
vt 0.067214 0.864425
vt 0.049055 0.838114
vt 0.121241 0.860662
vt 0.600239 0.734347
vt 0.770088 0.752788
vt 0.800349 0.683567
vt 0.800349 0.787433
vt 0.681748 0.369139
vt 0.670739 0.477906
vt 0.347207 0.076063
vt 0.700237 0.270496
vt 0.820363 0.778536
vt 0.820363 0.831481
vt 0.800349 0.816912
vt 0.729822 0.089780
vt 0.728012 0.185875
vt 0.685527 0.187096
vt 0.758662 0.163571
vt 0.440630 0.000000
vt 0.197320 0.817077
vt 0.179430 0.897577
vt 0.203660 0.857186
vt 0.654655 0.193858
vt 0.480896 0.706793
vt 0.531727 0.782642
vt 0.557109 0.760761
vt 0.612566 0.804460
vt 0.614011 0.760668
vt 0.075999 0.907582
vt 0.134417 0.924366
vt 0.149209 0.938912
vt 0.805126 0.298001
vt 0.829014 0.394749
vt 0.770088 0.337452
vt 0.870279 0.382711
vt 0.870279 0.339371
vt 0.683815 0.000000
vt 0.775088 0.300777
vt 0.766271 0.055204
vt 0.773980 0.257254
vt 0.867077 0.297342
vt 0.849537 0.228158
vt 0.807144 0.216777
vt 0.178260 0.968299
vt 0.619442 0.117318
vt 0.512548 0.782297
vt 0.527902 0.822684
vt 0.567722 0.831269
vt 0.107366 0.963271
vt 0.123796 0.945697
vt 0.619442 0.861418
vt 0.800349 0.812417
vt 0.788905 0.812417
vt 0.795852 0.787433
vt 0.133806 0.949337
vt 0.142997 0.963778
vt 0.494244 0.899374
vt 0.786826 0.497817
vt 0.773663 0.468778
vt 0.823812 0.465957
vt 0.831642 0.599415
vt 0.806138 0.599415
vt 0.822550 0.511126
vt 0.872730 0.511126
vt 0.770088 0.014283
vt 0.872730 0.454431
vt 0.826659 0.409913
vt 0.860055 0.425106
vt 0.199055 0.994566
vt 0.173736 1.000000
vt 0.513353 0.908359
vt 0.555510 0.894223
vt 0.583781 0.896495
vt 0.788905 0.818476
vt 0.781093 0.798743
vt 0.788905 0.787433
vt 0.150077 0.999518
vt 0.095309 0.996348
vt 0.782597 0.415769
vt 0.770088 0.417340
vt 0.846656 0.400527
vt 0.787209 0.394749
vt 0.563739 0.906463
s 1
usemtl Material_with_Texture.181
f 1/1/1 2/2/2 3/3/3
f 3/3/3 2/2/2 4/4/4
f 5/5/5 3/6/3 4/7/4
f 6/8/6 3/9/3 5/10/5
f 1/11/1 3/9/3 6/8/6
f 2/12/2 7/13/7 8/14/8
f 4/4/4 2/2/2 9/15/9
f 10/16/10 2/12/2 8/14/8
f 10/16/10 9/17/9 2/12/2
f 7/18/7 2/2/2 1/1/1
f 6/8/6 11/19/11 1/11/1
f 11/19/11 7/20/7 1/11/1
f 5/5/5 4/7/4 9/17/9
f 5/5/5 9/17/9 12/21/12
f 5/22/5 12/23/12 13/24/13
f 14/25/14 6/8/6 5/10/5
f 14/25/14 5/10/5 13/26/13
f 11/19/11 6/8/6 15/27/15
f 14/25/14 15/27/15 6/8/6
f 8/14/8 7/13/7 16/28/16
f 8/14/8 16/28/16 17/29/17
f 8/14/8 17/29/17 18/30/18
f 18/30/18 10/16/10 8/14/8
f 11/19/11 16/31/16 7/20/7
f 9/17/9 19/32/19 12/21/12
f 20/33/20 19/32/19 9/17/9
f 9/17/9 10/16/10 20/33/20
f 21/34/21 20/33/20 10/16/10
f 22/35/22 21/36/21 10/37/10
f 22/38/22 10/16/10 18/30/18
f 11/39/11 23/40/23 24/41/24
f 11/42/11 24/43/24 16/44/16
f 15/45/15 23/46/23 11/47/11
f 19/48/19 25/49/25 12/23/12
f 25/49/25 13/24/13 12/23/12
f 14/25/14 13/26/13 26/50/26
f 26/51/26 13/24/13 25/49/25
f 27/52/27 14/53/14 26/54/26
f 14/25/14 23/55/23 15/27/15
f 23/56/23 14/57/14 27/58/27
f 17/59/17 16/44/16 24/43/24
f 24/43/24 28/60/28 17/59/17
f 28/60/28 18/61/18 17/59/17
f 18/61/18 29/62/29 22/35/22
f 18/61/18 28/60/28 29/62/29
f 19/48/19 30/63/30 25/49/25
f 20/33/20 30/64/30 19/32/19
f 20/33/20 21/34/21 31/65/31
f 32/66/32 30/64/30 20/33/20
f 31/65/31 32/66/32 20/33/20
f 33/67/33 31/65/31 21/34/21
f 34/68/34 33/69/33 21/36/21
f 22/35/22 34/68/34 21/36/21
f 22/35/22 27/52/27 34/68/34
f 22/35/22 29/62/29 27/52/27
f 24/43/24 23/70/23 28/60/28
f 35/71/35 23/70/23 27/52/27
f 23/70/23 35/71/35 28/60/28
f 25/49/25 36/72/36 37/73/37
f 30/63/30 36/72/36 25/49/25
f 37/73/37 26/51/26 25/49/25
f 38/74/38 26/75/26 37/76/37
f 38/77/38 27/52/27 26/54/26
f 29/62/29 35/71/35 27/52/27
f 34/68/34 27/52/27 38/77/38
f 35/71/35 29/62/29 28/60/28
f 32/78/32 39/79/39 30/63/30
f 30/63/30 39/79/39 36/72/36
f 40/80/40 32/66/32 31/65/31
f 31/65/31 33/67/33 40/80/40
f 39/79/39 32/78/32 41/81/41
f 40/80/40 42/82/42 32/66/32
f 32/78/32 42/83/42 41/81/41
f 40/80/40 33/67/33 43/84/43
f 44/85/44 33/69/33 45/86/45
f 45/86/45 33/69/33 34/68/34
f 44/85/44 46/87/46 33/69/33
f 43/84/43 33/67/33 47/88/47
f 48/89/48 33/69/33 46/87/46
f 48/90/48 47/88/47 33/67/33
f 49/91/49 34/68/34 38/77/38
f 34/92/34 49/93/49 45/94/45
f 49/93/49 38/74/38 37/76/37
f 50/95/50 49/93/49 37/76/37
f 50/96/50 37/73/37 36/72/36
f 50/96/50 36/72/36 39/79/39
f 51/97/51 39/79/39 41/81/41
f 50/96/50 39/79/39 51/97/51
f 40/80/40 43/84/43 42/82/42
f 41/81/41 52/98/52 51/97/51
f 42/83/42 52/98/52 41/81/41
f 42/82/42 53/99/53 54/100/54
f 53/99/53 42/82/42 55/101/55
f 52/98/52 42/83/42 54/102/54
f 42/82/42 43/84/43 55/101/55
f 47/103/47 55/104/55 43/105/43
f 56/106/56 45/94/45 51/107/51
f 51/107/51 45/94/45 49/93/49
f 57/108/57 44/85/44 45/86/45
f 57/109/57 45/94/45 56/106/56
f 57/108/57 46/87/46 44/85/44
f 58/110/58 46/111/46 59/112/59
f 60/113/60 46/114/46 61/115/61
f 46/114/46 60/113/60 59/116/59
f 48/89/48 46/87/46 58/117/58
f 61/115/61 46/114/46 57/109/57
f 47/88/47 48/90/48 58/118/58
f 62/119/62 55/101/55 47/88/47
f 47/88/47 63/120/63 62/119/62
f 63/120/63 47/88/47 58/118/58
f 50/95/50 51/107/51 49/93/49
f 64/121/64 56/106/56 51/107/51
f 64/122/64 51/97/51 52/98/52
f 65/123/65 64/122/64 52/98/52
f 66/124/66 52/98/52 54/102/54
f 65/123/65 52/98/52 66/124/66
f 54/102/54 67/125/67 66/124/66
f 53/126/53 67/125/67 54/102/54
f 67/127/67 53/99/53 68/128/68
f 55/101/55 68/128/68 53/99/53
f 68/128/68 55/101/55 69/129/69
f 55/101/55 62/119/62 69/129/69
f 57/109/57 56/106/56 61/115/61
f 61/115/61 56/106/56 64/121/64
f 70/130/70 59/131/59 60/132/60
f 58/133/58 59/131/59 70/130/70
f 63/134/63 58/133/58 70/130/70
f 64/121/64 60/113/60 61/115/61
f 60/113/60 64/121/64 71/135/71
f 60/132/60 72/136/72 70/130/70
f 71/135/71 72/137/72 60/113/60
f 70/130/70 73/138/73 62/139/62
f 74/140/74 62/139/62 75/141/75
f 75/141/75 62/139/62 73/138/73
f 69/129/69 62/119/62 74/142/74
f 63/134/63 70/130/70 62/139/62
f 71/135/71 64/121/64 76/143/76
f 64/122/64 65/123/65 76/144/76
f 65/123/65 66/124/66 77/145/77
f 77/145/77 76/144/76 65/123/65
f 67/125/67 78/146/78 66/124/66
f 77/145/77 66/124/66 78/146/78
f 79/147/79 67/127/67 80/148/80
f 67/127/67 68/128/68 80/148/80
f 79/149/79 78/146/78 67/125/67
f 81/150/81 80/151/80 68/152/68
f 81/153/81 68/128/68 69/129/69
f 82/154/82 81/153/81 69/129/69
f 74/142/74 82/154/82 69/129/69
f 72/136/72 73/138/73 70/130/70
f 77/145/77 71/155/71 76/144/76
f 71/156/71 83/157/83 84/158/84
f 83/159/83 71/160/71 77/161/77
f 84/158/84 73/162/73 71/156/71
f 71/135/71 73/163/73 72/137/72
f 84/158/84 75/164/75 73/162/73
f 85/165/85 86/166/86 75/164/75
f 84/158/84 85/165/85 75/164/75
f 74/142/74 75/167/75 86/168/86
f 82/154/82 74/142/74 86/168/86
f 77/145/77 78/146/78 83/169/83
f 83/169/83 78/146/78 87/170/87
f 88/171/88 78/146/78 79/149/79
f 78/146/78 88/171/88 87/170/87
f 79/172/79 80/173/80 81/174/81
f 82/154/82 79/147/79 81/153/81
f 89/175/89 88/176/88 79/147/79
f 82/154/82 89/175/89 79/147/79
f 89/175/89 82/154/82 86/168/86
f 83/157/83 85/165/85 84/158/84
f 90/177/90 85/165/85 83/157/83
f 87/178/87 90/177/90 83/157/83
f 85/165/85 89/179/89 86/166/86
f 88/180/88 85/165/85 90/177/90
f 89/179/89 85/165/85 88/180/88
f 87/170/87 88/171/88 90/181/90
