# Blender 4.3.0
# www.blender.org
mtllib metatarsal4_lv.mtl
o metatarsal4_lv
v 0.148023 -0.003700 -0.029026
v 0.148330 -0.002228 -0.026773
v 0.144795 0.000027 -0.028074
v 0.141629 0.003059 -0.026440
v 0.141485 0.002893 -0.027130
v 0.148684 -0.002553 -0.030676
v 0.148390 -0.002330 -0.025689
v 0.146831 0.000161 -0.025594
v 0.151261 0.000304 -0.032210
v 0.150967 -0.004004 -0.028808
v 0.135923 0.005566 -0.024997
v 0.148727 0.002808 -0.025232
v 0.133238 0.010270 -0.021825
v 0.141903 0.010016 -0.023990
v 0.153303 -0.000572 -0.031819
v 0.152524 0.000197 -0.025079
v 0.152634 -0.003070 -0.026912
v 0.137927 0.006429 -0.026968
v 0.142520 0.007625 -0.028905
v 0.147057 0.008374 -0.030607
v 0.154493 0.001688 -0.031718
v 0.154007 0.004133 -0.031672
v 0.154640 -0.000003 -0.030096
v 0.130112 0.007728 -0.023264
v 0.135436 0.007234 -0.026499
v 0.129761 0.007713 -0.025484
v 0.151776 0.007701 -0.026416
v 0.149554 0.008792 -0.024808
v 0.142170 0.011374 -0.025743
v 0.135440 0.012784 -0.022903
v 0.113201 0.013667 -0.018328
v 0.110589 0.017727 -0.016540
v 0.154597 0.004996 -0.026649
v 0.154353 -0.000703 -0.027443
v 0.143250 0.009613 -0.028268
v 0.138879 0.009904 -0.027404
v 0.153170 0.006352 -0.030859
v 0.147833 0.009576 -0.029279
v 0.155000 0.001902 -0.030704
v 0.154682 0.005537 -0.029211
v 0.115993 0.011034 -0.023883
v 0.111902 0.011392 -0.020712
v 0.125126 0.017060 -0.023732
v 0.152897 0.007823 -0.028526
v 0.154157 0.006583 -0.026940
v 0.103605 0.023689 -0.018266
v 0.102785 0.012799 -0.015217
v 0.103168 0.021945 -0.015936
v 0.101594 0.018675 -0.014037
v 0.109963 0.011194 -0.022863
v 0.095223 0.012693 -0.015111
v 0.104709 0.012939 -0.024324
v 0.100731 0.018744 -0.023873
v 0.101353 0.023817 -0.021390
v 0.096922 0.025865 -0.018228
v 0.100810 0.016994 -0.014491
v 0.094809 0.025805 -0.016752
v 0.097083 0.022197 -0.014540
v 0.094729 0.018702 -0.013901
v 0.098459 0.017317 -0.014548
v 0.093156 0.013968 -0.015987
v 0.088229 0.018759 -0.022661
v 0.098693 0.016631 -0.014683
v 0.092609 0.018638 -0.023878
v 0.093330 0.017888 -0.014529
v 0.092928 0.020318 -0.024683
v 0.088725 0.022807 -0.023514
v 0.094678 0.026042 -0.017246
v 0.092717 0.026000 -0.016933
v 0.093017 0.024768 -0.015584
v 0.095096 0.019510 -0.014949
v 0.096181 0.022898 -0.015044
v 0.095823 0.022523 -0.015675
v 0.096310 0.021707 -0.014917
v 0.093498 0.018844 -0.014232
v 0.087653 0.020822 -0.023906
vn -0.4593 -0.8843 -0.0839
vn -0.5309 -0.8294 0.1742
vn -0.7289 -0.6410 -0.2404
vn -0.2913 -0.6618 0.6908
vn -0.5867 -0.7520 -0.3005
vn -0.3391 -0.4725 -0.8135
vn -0.3437 -0.6694 0.6586
vn -0.3675 -0.2910 0.8833
vn -0.1334 -0.1423 -0.9808
vn 0.1871 -0.9726 -0.1377
vn -0.2802 -0.9483 0.1491
vn 0.0073 -0.0411 0.9991
vn 0.1761 -0.2028 0.9633
vn 0.2340 0.2608 0.9366
vn 0.4323 -0.4840 -0.7608
vn 0.3642 -0.1541 0.9185
vn 0.5097 -0.7594 0.4043
vn -0.3977 -0.2993 -0.8673
vn -0.3403 0.1398 -0.9299
vn -0.1413 0.4401 -0.8867
vn 0.6344 -0.0699 -0.7698
vn 0.5068 0.2765 -0.8165
vn 0.8811 -0.4309 -0.1949
vn -0.1212 -0.8451 0.5208
vn -0.2560 -0.3462 -0.9025
vn -0.3043 -0.6368 -0.7084
vn 0.4609 0.6258 0.6293
vn 0.4557 0.5392 0.7083
vn 0.2027 0.9790 -0.0201
vn 0.3340 0.5976 0.7289
vn 0.1329 -0.5278 0.8389
vn 0.3101 0.2021 0.9290
vn 0.7881 0.1611 0.5941
vn 0.8850 -0.3536 0.3027
vn -0.1882 0.6331 -0.7509
vn -0.1410 0.3450 -0.9280
vn 0.4407 0.5838 -0.6819
vn 0.1906 0.9001 -0.3917
vn 0.9758 -0.0315 -0.2163
vn 0.9081 0.3778 -0.1807
vn -0.1190 -0.6399 -0.7592
vn 0.0197 -0.9342 0.3563
vn 0.2176 0.8134 -0.5395
vn 0.5136 0.8517 -0.1040
vn 0.7015 0.5341 0.4718
vn 0.3301 0.9012 0.2809
vn 0.1124 -0.6358 0.7636
vn 0.3104 0.5837 0.7503
vn 0.1458 0.0757 0.9864
vn -0.0959 -0.9683 -0.2308
vn -0.3250 -0.8283 0.4563
vn -0.2579 -0.5214 -0.8134
vn -0.1061 -0.0329 -0.9938
vn 0.1816 0.7888 -0.5872
vn 0.1778 0.9839 -0.0186
vn -0.0589 -0.1966 0.9787
vn 0.1616 0.7374 0.6558
vn -0.0791 0.3848 0.9196
vn -0.1992 0.0792 0.9768
vn -0.0168 -0.2910 0.9566
vn -0.6953 -0.6556 0.2945
vn -0.8330 -0.5302 -0.1580
vn -0.0503 -0.1223 0.9912
vn -0.0998 -0.6518 -0.7518
vn -0.9828 0.0882 0.1621
vn 0.0039 0.0521 -0.9986
vn -0.5785 0.6761 -0.4563
vn 0.0450 0.9971 0.0606
vn -0.4967 0.8195 0.2857
vn -0.4600 0.3332 0.8231
vn -0.3330 0.5802 0.7433
vn -0.5459 0.1970 0.8144
vn -0.5729 0.1398 0.8076
vn -0.6005 0.2272 0.7667
vn -0.4758 0.1059 0.8732
vn -0.8791 0.0074 -0.4766
vt 0.749398 0.037080
vt 0.788213 0.045184
vt 0.768490 0.105512
vt 0.791196 0.162946
vt 0.781014 0.164299
vt 0.625117 0.053849
vt 0.609955 0.121120
vt 0.594445 0.051877
vt 0.800738 0.040071
vt 0.810442 0.082566
vt 0.537371 0.034835
vt 0.604272 0.184064
vt 0.766512 0.008461
vt 0.616088 0.012207
vt 0.793608 0.235621
vt 0.622567 0.276409
vt 0.143950 0.885511
vt 0.114064 0.902488
vt 0.111294 0.802073
vt 0.086112 0.647034
vt 0.054527 0.776319
vt 0.849002 0.304365
vt 0.233029 0.639042
vt 0.233029 0.780562
vt 0.168977 0.693349
vt 0.540401 0.001797
vt 0.168977 0.917017
vt 0.139176 0.966054
vt 0.849002 0.034428
vt 0.805013 0.000000
vt 0.585430 0.254453
vt 0.532510 0.199637
vt 0.486789 0.142797
vt 0.511533 0.000000
vt 0.749398 0.009807
vt 0.706302 0.116804
vt 0.692814 0.000000
vt 0.488319 0.021996
vt 0.428627 0.624559
vt 0.454986 0.690512
vt 0.417989 0.704413
vt 0.396568 0.632504
vt 0.796468 0.304108
vt 0.593292 0.293253
vt 0.767965 0.313771
vt 0.625117 0.373093
vt 0.042059 0.930842
vt 0.048383 0.892003
vt 0.022031 0.778577
vt 0.043651 0.671605
vt 0.801053 0.499513
vt 0.835898 0.564249
vt 0.087553 0.285356
vt 0.409261 0.596645
vt 0.066181 0.981479
vt 0.124168 1.000000
vt 0.462039 0.647148
vt 0.486789 0.657681
vt 0.731713 0.179400
vt 0.704397 0.185119
vt 0.539828 0.263443
vt 0.728942 0.246484
vt 0.674672 0.027634
vt 0.677678 0.121651
vt 0.412684 0.568680
vt 0.426373 0.595266
vt 0.453204 0.557520
vt 0.652182 0.013930
vt 0.222218 0.428629
vt 0.175144 0.636600
vt 0.199660 0.358483
vt 0.194153 0.639042
vt 0.749467 0.490353
vt 0.564426 0.494956
vt 0.713921 0.494956
vt 0.713921 0.707008
vt 0.626129 0.591712
vt 0.631436 0.078833
vt 0.625117 0.122190
vt 0.018925 0.950474
vt 0.000000 0.872962
vt 0.046021 0.970006
vt 0.674622 0.223355
vt 0.003701 0.509859
vt 0.014481 0.166997
vt 0.749398 0.479977
vt 0.326567 0.730465
vt 0.286670 0.672361
vt 0.326567 0.639042
vt 0.168977 0.188670
vt 0.112807 0.340818
vt 0.057109 0.162597
vt 0.114938 0.148201
vt 0.483936 0.557602
vt 0.486789 0.576406
vt 0.642479 0.053031
vt 0.625865 0.039743
vt 0.216022 0.338319
vt 0.168977 0.097430
vt 0.747520 0.494956
vt 0.747520 0.631898
vt 0.713921 0.560888
vt 0.250414 0.263897
vt 0.293174 0.545614
vt 0.317528 0.192233
vt 0.471863 0.361242
vt 0.395332 0.366979
vt 0.423052 0.000000
vt 0.354841 0.338501
vt 0.000818 0.063245
vt 0.351644 0.441306
vt 0.233029 0.711615
vt 0.255414 0.722366
vt 0.286670 0.784733
vt 0.345143 0.665985
vt 0.358086 0.557520
vt 0.396568 0.601785
vt 0.018865 0.030362
vt 0.077274 0.071778
vt 0.127040 0.049390
vt 0.265434 0.698142
vt 0.265925 0.652608
vt 0.192260 0.067837
vt 0.308620 0.008734
vt 0.391209 0.630555
vt 0.317170 0.075940
vt 0.396568 0.712219
vt 0.512706 0.748286
vt 0.486789 0.692558
vt 0.512706 0.665435
vt 0.486789 0.477855
vt 0.344504 0.079435
vt 0.461374 0.546715
vt 0.011706 0.028566
vt 0.346325 0.505277
vt 0.344504 0.476122
vt 0.271184 0.707509
vt 0.018319 0.000000
vt 0.044641 0.006184
vt 0.107321 0.053728
vt 0.065970 0.057272
vt 0.736050 0.682606
vt 0.724160 0.680075
vt 0.744201 0.631898
vt 0.064875 0.054682
vt 0.713921 0.695498
vt 0.726236 0.696849
vt 0.737177 0.726631
vt 0.744201 0.718115
vt 0.286670 0.647400
vt 0.124287 0.031850
vt 0.274891 0.639042
vt 0.344504 0.000000
vt 0.551323 0.652648
vt 0.626129 0.525311
vt 0.626129 0.665435
vt 0.486789 0.573953
vt 0.611632 0.494956
vt 0.328072 0.705212
vt 0.326567 0.651541
vt 0.328072 0.639042
vt 0.486789 0.557520
vt 0.583480 0.496189
vt 0.490341 0.597048
s 1
usemtl Material_with_Texture.179
f 1/1/1 2/2/2 3/3/3
f 3/3/3 4/4/4 5/5/5
f 1/6/1 3/7/3 6/8/6
f 3/3/3 7/9/7 8/10/8
f 7/9/7 3/3/3 2/2/2
f 4/4/4 3/3/3 8/10/8
f 6/8/6 3/7/3 9/11/9
f 3/7/3 5/12/5 9/11/9
f 10/13/10 7/9/7 2/2/2
f 2/2/2 1/1/1 10/13/10
f 1/6/1 6/8/6 10/14/10
f 11/15/11 5/5/5 4/4/4
f 5/12/5 11/16/11 9/11/9
f 8/17/8 12/18/12 4/19/4
f 13/20/13 4/19/4 14/21/14
f 4/4/4 13/22/13 11/15/11
f 12/23/12 14/24/14 4/25/4
f 9/11/9 15/26/15 6/8/6
f 10/14/10 6/8/6 15/26/15
f 7/27/7 12/18/12 8/17/8
f 12/18/12 7/27/7 16/28/16
f 16/29/16 7/9/7 17/30/17
f 17/30/17 7/9/7 10/13/10
f 18/31/18 19/32/19 9/11/9
f 20/33/20 9/11/9 19/32/19
f 15/26/15 9/11/9 21/34/21
f 9/35/9 20/36/20 22/37/22
f 11/16/11 18/31/18 9/11/9
f 9/11/9 22/38/22 21/34/21
f 23/39/23 17/40/17 10/41/10
f 23/39/23 10/41/10 15/42/15
f 11/15/11 13/22/13 24/43/24
f 11/16/11 25/44/25 18/31/18
f 24/43/24 26/45/26 11/15/11
f 11/16/11 26/46/26 25/44/25
f 12/18/12 16/28/16 27/47/27
f 12/18/12 27/47/27 28/48/28
f 28/48/28 14/21/14 12/18/12
f 14/21/14 29/49/29 30/50/30
f 14/21/14 28/48/28 29/49/29
f 13/20/13 14/21/14 30/50/30
f 31/51/31 24/43/24 13/22/13
f 32/52/32 31/51/31 13/22/13
f 30/50/30 32/53/32 13/20/13
f 15/42/15 21/54/21 23/39/23
f 27/47/27 16/28/16 33/55/33
f 33/55/33 16/28/16 34/56/34
f 17/40/17 34/57/34 16/58/16
f 23/39/23 34/57/34 17/40/17
f 20/36/20 19/59/19 35/60/35
f 18/31/18 36/61/36 19/32/19
f 35/60/35 19/59/19 36/62/36
f 25/44/25 36/61/36 18/31/18
f 20/36/20 37/63/37 22/37/22
f 37/63/37 20/36/20 38/64/38
f 38/64/38 20/36/20 35/60/35
f 22/65/22 39/66/39 21/54/21
f 23/39/23 21/54/21 39/66/39
f 40/67/40 39/66/39 22/65/22
f 37/63/37 40/68/40 22/37/22
f 23/39/23 39/66/39 34/57/34
f 41/69/41 24/70/24 42/71/42
f 26/72/26 24/70/24 41/69/41
f 24/43/24 31/51/31 42/73/42
f 43/74/43 36/61/36 25/44/25
f 26/46/26 43/74/43 25/44/25
f 26/75/26 41/76/41 43/77/43
f 27/78/27 38/64/38 28/79/28
f 27/47/27 44/80/44 38/81/38
f 44/80/44 27/47/27 45/82/45
f 45/82/45 27/47/27 33/55/33
f 38/64/38 29/83/29 28/79/28
f 30/50/30 43/84/43 46/85/46
f 43/84/43 30/50/30 29/49/29
f 46/85/46 32/53/32 30/50/30
f 43/86/43 29/83/29 36/62/36
f 35/60/35 36/62/36 29/83/29
f 38/64/38 35/60/35 29/83/29
f 47/87/47 42/88/42 31/89/31
f 47/90/47 31/91/31 32/53/32
f 32/53/32 46/85/46 48/92/48
f 32/53/32 49/93/49 47/90/47
f 32/53/32 48/92/48 49/93/49
f 40/67/40 45/94/45 33/95/33
f 39/66/39 40/67/40 33/95/33
f 33/95/33 34/57/34 39/66/39
f 40/68/40 37/63/37 44/96/44
f 44/96/44 37/63/37 38/64/38
f 44/96/44 45/97/45 40/68/40
f 41/69/41 42/71/42 50/98/50
f 50/98/50 42/71/42 51/99/51
f 51/100/51 42/101/42 47/102/47
f 52/103/52 41/69/41 50/98/50
f 52/103/52 43/104/43 41/69/41
f 53/105/53 43/104/43 52/103/52
f 53/106/53 54/107/54 43/108/43
f 43/108/43 54/107/54 46/109/46
f 48/92/48 46/85/46 55/110/55
f 46/109/46 54/107/54 55/111/55
f 49/112/49 56/113/56 47/114/47
f 51/115/51 47/116/47 56/117/56
f 48/92/48 55/110/55 57/118/57
f 58/119/58 48/92/48 57/118/57
f 58/119/58 49/93/49 48/92/48
f 49/93/49 58/119/58 59/120/59
f 56/113/56 49/112/49 60/121/60
f 59/122/59 60/121/60 49/112/49
f 52/103/52 50/98/50 51/99/51
f 61/123/61 62/124/62 51/99/51
f 63/125/63 51/115/51 56/117/56
f 64/126/64 53/105/53 51/99/51
f 51/99/51 62/124/62 64/126/64
f 52/103/52 51/99/51 53/105/53
f 51/115/51 63/125/63 65/127/65
f 65/128/65 61/129/61 51/130/51
f 54/107/54 53/106/53 66/131/66
f 53/105/53 64/126/64 66/132/66
f 55/111/55 54/107/54 67/133/67
f 67/133/67 54/107/54 66/131/66
f 57/118/57 55/110/55 68/134/68
f 69/135/69 55/111/55 67/133/67
f 69/135/69 68/136/68 55/111/55
f 63/137/63 56/113/56 60/121/60
f 57/118/57 68/134/68 69/138/69
f 70/139/70 71/140/71 57/118/57
f 69/138/69 70/139/70 57/118/57
f 72/141/72 58/119/58 57/118/57
f 73/142/73 72/143/72 57/144/57
f 71/140/71 73/145/73 57/118/57
f 58/146/58 72/143/72 74/147/74
f 59/148/59 58/146/58 71/149/71
f 74/147/74 71/149/71 58/146/58
f 65/150/65 60/121/60 59/122/59
f 75/151/75 59/120/59 71/140/71
f 75/152/75 65/150/65 59/122/59
f 60/121/60 65/150/65 63/137/63
f 62/124/62 76/153/76 64/126/64
f 75/154/75 62/155/62 61/156/61
f 75/154/75 69/157/69 62/155/62
f 62/155/62 69/157/69 76/158/76
f 61/159/61 65/160/65 75/161/75
f 76/153/76 66/132/66 64/126/64
f 67/133/67 66/131/66 76/162/76
f 76/158/76 69/157/69 67/163/67
f 69/157/69 75/154/75 70/164/70
f 73/142/73 71/149/71 74/147/74
f 70/139/70 75/151/75 71/140/71
f 72/143/72 73/142/73 74/147/74
