# Blender v3.5.0 OBJ File: ''
# www.blender.org
mtllib mid_phalanx2_rvs.mtl
o mid_phalanx2_rvs
v 0.056591 -0.005602 0.006523
v 0.053893 -0.003291 0.006646
v 0.057278 -0.002792 0.006991
v 0.057610 -0.004584 0.006574
v 0.054952 -0.004558 0.006434
v 0.055442 -0.005935 0.009949
v 0.055465 -0.005636 0.006462
v 0.057660 -0.004940 0.010511
v 0.057597 -0.005117 0.006787
v 0.053895 -0.004213 0.006553
v 0.054203 -0.002355 0.007027
v 0.053383 -0.002645 0.007301
v 0.054590 -0.002041 0.007227
v 0.057075 -0.002013 0.007503
v 0.058161 -0.002504 0.007336
v 0.058617 -0.003786 0.007524
v 0.054266 -0.004441 0.006929
v 0.049664 -0.005477 0.012974
v 0.054151 -0.004714 0.007710
v 0.055314 -0.006169 0.013425
v 0.054134 -0.005514 0.012856
v 0.056408 -0.006092 0.013568
v 0.053370 -0.005107 0.013269
v 0.058050 -0.005022 0.011953
v 0.057833 -0.002864 0.011141
v 0.053412 -0.004296 0.007078
v 0.052713 -0.003288 0.007314
v 0.051644 -0.002757 0.007846
v 0.052153 -0.002293 0.008564
v 0.048396 -0.002310 0.012506
v 0.054153 -0.004255 0.013650
v 0.057246 -0.003307 0.013473
v 0.058131 -0.002400 0.008662
v 0.050198 -0.003697 0.013100
v 0.045798 -0.006617 0.012340
v 0.049042 -0.005526 0.007075
v 0.050987 -0.005014 0.007508
v 0.054280 -0.005387 0.013368
v 0.057436 -0.005556 0.013560
v 0.058217 -0.003982 0.013306
v 0.058291 -0.003340 0.012514
v 0.050340 -0.004716 0.007109
v 0.051554 -0.003759 0.007283
v 0.050413 -0.002164 0.009082
v 0.051130 -0.003242 0.007373
v 0.046679 -0.001381 0.008529
v 0.048474 -0.003462 0.006624
v 0.045470 -0.001239 0.009863
v 0.045211 -0.001544 0.011668
v 0.044996 -0.002902 0.012697
v 0.044549 -0.004504 0.012846
v 0.044364 -0.005782 0.012264
v 0.044566 -0.006366 0.011462
v 0.044560 -0.006489 0.010614
v 0.047068 -0.006420 0.008850
v 0.045819 -0.006632 0.006614
v 0.046924 -0.005785 0.005179
v 0.046835 -0.002289 0.005700
v 0.045089 -0.001414 0.008350
v 0.047527 -0.003562 0.005257
v 0.044578 -0.001528 0.009810
v 0.044024 -0.002326 0.011076
v 0.044242 -0.002694 0.011943
v 0.045209 -0.005842 0.009883
v 0.045311 -0.004266 0.009539
v 0.044512 -0.006715 0.009008
v 0.044519 -0.006372 0.009930
v 0.044988 -0.005975 0.009321
v 0.044970 -0.005742 0.006013
v 0.044643 -0.006582 0.008065
v 0.045750 -0.004749 0.004941
v 0.046646 -0.005114 0.004829
v 0.045308 -0.002661 0.006188
v 0.045879 -0.004015 0.004964
v 0.045334 -0.005498 0.009338
v 0.044541 -0.006460 0.008567
v 0.045262 -0.005800 0.008657
vt 0.468174 0.714722
vt 0.605812 0.641050
vt 0.572761 0.789383
vt 0.491966 0.772476
vt 0.535824 0.663326
vt 0.020413 0.084778
vt 0.177734 0.115574
vt 0.024197 0.133544
vt 0.185497 0.024407
vt 0.024184 0.043639
vt 0.484956 0.667775
vt 0.473373 0.765073
vt 0.568347 0.626242
vt 0.641685 0.670702
vt 0.646799 0.634476
vt 0.053960 0.661975
vt 0.027575 0.632647
vt 0.028997 0.592071
vt 0.649766 0.692686
vt 0.612370 0.796487
vt 0.573083 0.832182
vt 0.516799 0.832182
vt 0.467351 0.925320
vt 0.444591 0.936414
vt 0.401346 0.894770
vt 0.021133 0.164024
vt 0.046050 0.192225
vt 0.030727 0.211805
vt 0.557137 0.640321
vt 0.339991 0.354603
vt 0.081953 0.191398
vt 0.331094 0.102692
vt 0.310010 0.161434
vt 0.330877 0.055242
vt 0.330518 0.195595
vt 0.246574 0.000000
vt 0.448216 0.761883
vt 0.354571 0.740567
vt 0.445392 0.697206
vt 0.053960 0.589101
vt 0.056691 0.229566
vt 0.046000 0.710923
vt 0.037432 0.697748
vt 0.046000 0.661975
vt 0.727013 0.622366
vt 0.753292 0.652314
vt 0.722882 0.697876
vt 0.027575 0.589101
vt 0.027575 0.693986
vt 0.000000 0.642635
vt 0.559664 0.299784
vt 0.619959 0.250374
vt 0.584591 0.321621
vt 0.799862 0.622685
vt 0.634634 0.203678
vt 0.480739 0.036907
vt 0.638695 0.095343
vt 0.365011 0.441299
vt 0.339991 0.171204
vt 0.373294 0.046549
vt 0.592836 0.040656
vt 0.649766 0.045347
vt 0.348310 0.908376
vt 0.339991 0.850445
vt 0.805648 0.352310
vt 0.649766 0.529147
vt 0.724412 0.365195
vt 0.763123 0.204727
vt 0.806397 0.174415
vt 0.338937 0.516343
vt 0.086372 0.409415
vt 0.092145 0.327032
vt 0.728653 0.112886
vt 0.738911 0.065123
vt 0.330972 0.153622
vt 0.756567 0.162968
vt 0.322437 0.014839
vt 0.768169 0.023572
vt 0.467351 0.626242
vt 0.394962 0.640683
vt 0.368817 0.677464
vt 0.421251 0.006169
vt 0.813379 0.758433
vt 0.077057 0.359196
vt 0.772181 0.703833
vt 0.526968 0.373194
vt 0.748591 0.721994
vt 0.649766 0.914440
vt 0.763679 0.841110
vt 0.532018 0.543471
vt 0.853257 0.441489
vt 0.467469 0.589884
vt 0.385787 0.589236
vt 0.864792 0.588080
vt 0.864792 0.045888
vt 0.382480 0.000000
vt 0.840236 0.000000
vt 0.808680 0.585533
vt 0.736871 0.594734
vt 0.677609 0.597070
vt 0.339991 0.585075
vt 0.306431 0.575764
vt 0.270013 0.579158
vt 0.178742 0.479589
vt 0.089120 0.542755
vt 0.016645 0.508206
vt 0.821984 0.729130
vt 0.846518 0.816312
vt 0.877962 0.914440
vt 0.649766 0.543876
vt 0.612869 0.458807
vt 0.529429 0.612677
vt 0.105536 0.589101
vt 0.105536 0.718167
vt 0.056753 0.629932
vt 1.000000 0.609845
vt 0.956695 0.586438
vt 0.986623 0.526719
vt 0.462270 0.626242
vt 0.339991 0.646202
vt 0.334184 0.726544
vt 0.297892 0.668360
vt 0.284364 0.630251
vt 0.810225 0.622366
vt 0.208291 0.589101
vt 0.124809 0.648012
vt 0.150387 0.612805
vt 0.149161 0.719909
vt 0.218234 0.737180
vt 0.118118 0.685253
vt 0.201216 0.587222
vt 0.105536 0.755697
vt 0.121974 0.715451
vt 0.037432 0.661975
vt 0.037432 0.724343
vt 0.027575 0.691070
vt 0.141197 0.743974
vt 0.063762 0.589101
vt 0.158769 0.587076
vt 0.008300 0.567981
vt 0.000000 0.526983
vt 0.864792 0.622366
vt 0.876364 0.597267
vt 1.000000 0.427245
vt 0.939520 0.479177
vt 0.895023 0.541076
vt 0.283452 0.886834
vt 0.339991 0.792376
vt 0.164138 0.744667
vt 0.116208 0.775518
vt 0.110715 0.797777
vt 0.149474 0.774164
vt 0.146333 0.890094
vt 0.225705 0.940700
vt 0.192781 0.940528
vt 0.866542 0.555416
vn 0.0792 0.1449 -0.9863
vn -0.1491 0.1978 -0.9688
vn 0.2989 0.3951 -0.8686
vn 0.0347 -0.9958 -0.0852
vn 0.3994 -0.9157 0.0449
vn 0.4264 -0.9038 0.0357
vn 0.0541 -0.0002 -0.9985
vn 0.3919 -0.3496 -0.8510
vn -0.0791 0.0999 -0.9919
vn 0.0410 0.3650 -0.9301
vn -0.4232 0.4583 -0.7816
vn -0.7558 0.0641 -0.6517
vn 0.0850 0.5626 -0.8223
vn 0.1320 0.5682 -0.8122
vn 0.2744 0.2659 -0.9241
vn 0.0586 0.4840 -0.8731
vn 0.6331 0.1129 -0.7658
vn 0.7629 -0.2559 -0.5937
vn -0.3254 -0.9161 -0.2344
vn -0.5913 -0.3008 -0.7483
vn -0.2531 -0.9032 -0.3466
vn -0.4555 -0.8870 -0.0765
vn 0.0784 -0.9949 -0.0641
vn -0.5119 -0.8524 -0.1069
vn 0.0729 -0.9561 0.2839
vn 0.4368 -0.8861 -0.1550
vn -0.6174 -0.7834 -0.0712
vn -0.7285 -0.6062 -0.3192
vn 0.4200 -0.8925 -0.1643
vn 0.7894 -0.6137 0.0158
vn 0.9653 -0.0012 -0.2611
vn 0.9567 -0.1546 0.2468
vn -0.7398 0.0773 -0.6684
vn -0.2197 -0.9120 -0.3463
vn -0.2069 -0.9137 -0.3498
vn -0.4252 0.7971 -0.4288
vn -0.3029 0.2973 -0.9054
vn -0.3925 0.7131 -0.5809
vn -0.1924 0.8807 -0.4328
vn -0.1438 0.1300 -0.9810
vn -0.0370 0.9713 0.2349
vn -0.2034 0.9605 -0.1897
vn 0.2424 0.9120 0.3309
vn -0.2641 0.9172 0.2982
vn 0.0184 0.9814 0.1911
vn 0.4032 0.9130 -0.0625
vn 0.1381 0.9704 0.1982
vn 0.9424 0.3345 -0.0049
vn 0.9651 0.2108 0.1555
vn -0.1551 -0.0234 0.9876
vn -0.0356 -0.3805 0.9241
vn -0.1415 -0.0276 0.9896
vn 0.2861 -0.9579 -0.0222
vn 0.2817 -0.9594 -0.0131
vn 0.2585 -0.9658 -0.0192
vn -0.2335 -0.9141 -0.3315
vn -0.1146 -0.1843 0.9762
vn -0.5776 -0.7384 0.3479
vn -0.2483 -0.2603 0.9331
vn -0.3102 -0.8982 0.3113
vn 0.4584 -0.8809 -0.1176
vn 0.0189 -0.0214 0.9996
vn -0.1823 -0.2569 0.9491
vn 0.8896 -0.4085 0.2042
vn 0.9905 -0.1360 -0.0177
vn 0.9454 -0.0271 -0.3248
vn 0.2510 0.9374 0.2413
vn -0.0376 0.2030 -0.9785
vn 0.0916 -0.7209 -0.6870
vn -0.1780 0.4941 -0.8510
vn -0.0927 0.2907 -0.9523
vn -0.0843 0.8631 -0.4980
vn 0.3532 0.4340 -0.8288
vn 0.1048 0.7192 -0.6869
vn 0.1745 0.5865 -0.7909
vn 0.2316 0.9468 -0.2235
vn 0.1042 0.9892 0.1035
vn 0.1818 0.9720 0.1486
vn -0.0918 0.2889 0.9530
vn 0.1823 0.9649 0.1892
vn -0.2251 0.1215 0.9667
vn 0.2445 0.9623 0.1192
vn 0.0441 0.0423 0.9981
vn 0.5352 0.6310 0.5615
vn 0.2064 0.0552 0.9769
vn 0.0299 0.6007 0.7989
vn -0.0602 0.1091 0.9922
vn -0.0096 -0.2383 0.9712
vn -0.2618 -0.3684 0.8921
vn -0.4693 -0.7659 0.4395
vn -0.2921 -0.9462 0.1393
vn -0.0163 -0.9979 -0.0623
vn 0.5082 -0.8503 0.1369
vn 0.3356 -0.9368 -0.0986
vn 0.3466 -0.9000 -0.2643
vn 0.3060 -0.4552 -0.8362
vn 0.6655 0.0201 -0.7461
vn 0.1353 -0.1758 -0.9751
vn 0.2691 0.0282 -0.9627
vn 0.0036 0.1744 -0.9847
vn 0.6427 0.7391 -0.2018
vn -0.0079 0.9936 -0.1129
vn 0.0146 0.9523 -0.3048
vn 0.8121 -0.2011 -0.5479
vn 0.6722 0.5412 -0.5052
vn -0.3123 0.9430 0.1145
vn -0.3063 0.9514 -0.0329
vn -0.6096 0.7632 0.2143
vn -0.6364 0.6394 0.4314
vn -0.4949 0.5732 0.6531
vn -0.6499 0.2482 0.7184
vn -0.9736 -0.0546 0.2216
vn -0.8344 0.3239 -0.4460
vn -0.9270 0.2183 -0.3051
vn -0.8852 -0.4027 -0.2329
vn -0.9746 0.0143 -0.2235
vn -0.7519 0.6532 -0.0894
vn 0.1218 -0.9834 0.1347
vn -0.9945 -0.0959 0.0432
vn -0.4935 0.8519 0.1753
vn -0.6566 0.7499 0.0807
vn 0.1164 -0.9928 0.0291
vn -0.2897 -0.7099 -0.6420
vn -0.2492 -0.9536 -0.1691
vn -0.5178 -0.7596 -0.3935
vn -0.3366 -0.5560 -0.7600
vn -0.3170 -0.5385 -0.7807
vn 0.6240 -0.1423 -0.7684
vn -0.3516 0.7951 -0.4942
vn -0.3726 0.5309 -0.7611
vn 0.0665 0.3600 -0.9306
vn -0.8956 0.3401 -0.2869
vn 0.1175 0.2015 -0.9724
vn -0.9362 0.2343 -0.2620
vn -0.8823 -0.4248 -0.2027
vn -0.9768 0.0166 -0.2136
vn -0.7995 0.5735 0.1787
vn -0.9998 -0.0174 -0.0075
vn -0.9968 0.0770 -0.0211
vn -0.9739 -0.1630 -0.1583
vn -0.6877 0.7237 -0.0578
vn -0.7941 0.5822 -0.1742
vn -0.6675 0.7402 -0.0804
vn -0.8408 0.1222 -0.5274
vn -0.8644 0.1668 -0.4744
vn -0.9896 0.1028 0.1008
vn -0.8163 0.5685 0.1026
vn -0.9939 -0.0101 0.1095
vn -0.6229 0.7217 -0.3020
vn -0.1040 0.0494 -0.9933
usemtl Material_with_Texture.190
s off
f 1/1/1 2/2/1 3/3/1
f 1/1/2 3/3/2 4/4/2
f 5/5/3 2/2/3 1/1/3
f 1/6/4 6/7/4 7/8/4
f 1/6/5 8/9/5 6/7/5
f 8/9/6 1/6/6 9/10/6
f 5/5/7 1/1/7 7/11/7
f 4/4/8 9/12/8 1/1/8
f 10/13/9 2/2/9 5/5/9
f 11/14/10 3/3/10 2/2/10
f 12/15/11 11/14/11 2/2/11
f 12/16/12 2/17/12 10/18/12
f 3/3/13 13/19/13 14/20/13
f 14/20/14 15/21/14 3/3/14
f 15/21/15 4/4/15 3/3/15
f 11/14/16 13/19/16 3/3/16
f 16/22/17 4/4/17 15/21/17
f 9/23/18 4/24/18 16/25/18
f 5/26/19 17/27/19 10/28/19
f 7/11/20 17/29/20 5/5/20
f 6/7/21 18/30/21 19/31/21
f 20/32/22 21/33/22 6/7/22
f 22/34/23 20/32/23 6/7/23
f 6/7/24 21/33/24 23/35/24
f 23/35/25 18/30/25 6/7/25
f 22/34/26 6/7/26 8/9/26
f 7/8/27 6/7/27 19/31/27
f 17/27/28 7/8/28 19/31/28
f 24/36/29 22/34/29 8/9/29
f 9/23/30 16/25/30 8/37/30
f 8/37/31 25/38/31 24/39/31
f 25/38/32 8/37/32 16/25/32
f 10/18/33 26/40/33 12/16/33
f 19/31/34 26/41/34 10/28/34
f 17/27/35 19/31/35 10/28/35
f 13/42/36 11/43/36 12/44/36
f 12/45/37 27/46/37 28/47/37
f 29/48/38 13/49/38 12/50/38
f 29/51/39 12/52/39 28/53/39
f 27/46/40 12/45/40 26/54/40
f 13/55/41 25/56/41 14/57/41
f 13/55/42 29/51/42 30/58/42
f 31/59/43 13/55/43 30/58/43
f 13/55/44 31/59/44 32/60/44
f 32/60/45 25/56/45 13/55/45
f 14/57/46 33/61/46 15/62/46
f 33/61/47 14/57/47 25/56/47
f 16/25/48 15/63/48 33/64/48
f 25/38/49 16/25/49 33/64/49
f 34/65/50 35/66/50 18/67/50
f 18/67/51 23/68/51 31/69/51
f 31/69/52 34/65/52 18/67/52
f 35/70/53 36/71/53 18/30/53
f 18/30/54 37/72/54 26/41/54
f 36/71/55 37/72/55 18/30/55
f 18/30/56 26/41/56 19/31/56
f 20/73/57 22/74/57 31/69/57
f 20/32/58 38/75/58 21/33/58
f 38/76/59 20/73/59 31/69/59
f 38/75/60 23/35/60 21/33/60
f 39/77/61 22/34/61 24/36/61
f 39/78/62 31/69/62 22/74/62
f 23/68/63 38/76/63 31/69/63
f 39/79/64 24/39/64 40/80/64
f 24/39/65 41/81/65 40/80/65
f 24/39/66 25/38/66 41/81/66
f 32/60/67 41/82/67 25/56/67
f 27/46/68 26/54/68 42/83/68
f 42/84/69 26/41/69 37/72/69
f 27/46/70 43/85/70 28/47/70
f 43/85/71 27/46/71 42/83/71
f 29/51/72 28/53/72 44/86/72
f 43/85/73 45/87/73 28/47/73
f 46/88/74 28/47/74 47/89/74
f 45/87/75 47/89/75 28/47/75
f 28/53/76 46/90/76 44/86/76
f 30/58/77 29/51/77 44/86/77
f 30/58/78 44/86/78 46/90/78
f 34/65/79 31/69/79 30/91/79
f 48/92/80 49/93/80 30/58/80
f 34/65/81 30/91/81 49/94/81
f 46/90/82 48/92/82 30/58/82
f 39/78/83 32/95/83 31/69/83
f 32/60/84 40/96/84 41/82/84
f 32/95/85 39/78/85 40/97/85
f 49/94/86 50/98/86 34/65/86
f 51/99/87 34/65/87 50/98/87
f 35/66/88 34/65/88 51/99/88
f 52/100/89 35/66/89 51/99/89
f 35/70/90 52/101/90 53/102/90
f 53/102/91 54/103/91 35/70/91
f 35/70/92 54/103/92 55/104/92
f 55/104/93 36/71/93 35/70/93
f 55/104/94 56/105/94 36/71/94
f 57/106/95 36/71/95 56/105/95
f 37/107/96 36/108/96 42/83/96
f 36/108/97 57/109/97 47/89/97
f 42/83/98 36/108/98 47/89/98
f 42/83/99 47/89/99 45/87/99
f 45/87/100 43/85/100 42/83/100
f 58/110/101 46/90/101 47/111/101
f 59/112/102 48/92/102 46/90/102
f 59/112/103 46/90/103 58/110/103
f 47/113/104 57/114/104 60/115/104
f 47/116/105 60/117/105 58/118/105
f 49/93/106 48/92/106 61/119/106
f 61/119/107 48/92/107 59/112/107
f 49/120/108 61/121/108 62/122/108
f 63/123/109 49/120/109 62/122/109
f 50/98/110 49/94/110 63/124/110
f 51/99/111 50/98/111 63/124/111
f 63/123/112 62/122/112 51/125/112
f 53/126/113 52/127/113 51/125/113
f 51/125/114 64/128/114 53/126/114
f 51/125/115 62/122/115 65/129/115
f 65/129/116 64/128/116 51/125/116
f 54/130/117 53/126/117 64/128/117
f 66/131/118 55/104/118 54/103/118
f 66/132/119 54/130/119 67/133/119
f 54/134/120 68/135/120 67/136/120
f 68/137/121 54/130/121 64/128/121
f 55/104/122 66/131/122 56/105/122
f 56/105/123 69/138/123 57/106/123
f 56/105/124 66/131/124 70/139/124
f 70/139/125 69/138/125 56/105/125
f 71/140/126 57/106/126 69/138/126
f 71/140/127 72/141/127 57/106/127
f 57/142/128 72/143/128 60/117/128
f 59/144/129 58/118/129 73/145/129
f 74/146/130 73/145/130 58/118/130
f 60/117/131 74/146/131 58/118/131
f 73/147/132 61/121/132 59/148/132
f 72/143/133 74/146/133 60/117/133
f 61/121/134 73/147/134 62/122/134
f 73/147/135 65/129/135 62/122/135
f 65/129/136 75/149/136 64/128/136
f 68/137/137 64/128/137 75/149/137
f 73/147/138 75/149/138 65/129/138
f 67/133/139 76/150/139 66/132/139
f 70/151/140 66/132/140 76/150/140
f 67/133/141 68/137/141 76/150/141
f 77/152/142 68/137/142 75/149/142
f 77/152/143 76/150/143 68/137/143
f 69/153/144 73/147/144 74/154/144
f 69/153/145 74/154/145 71/155/145
f 75/149/146 73/147/146 69/153/146
f 77/152/147 69/153/147 70/151/147
f 75/149/148 69/153/148 77/152/148
f 70/151/149 76/150/149 77/152/149
f 74/146/150 72/143/150 71/156/150
