# Blender v3.5.0 OBJ File: ''
# www.blender.org
mtllib mid_phalanx3_rvs.mtl
o mid_phalanx3_rvs
v 0.038869 -0.003788 0.020512
v 0.036482 -0.001774 0.020738
v 0.039320 -0.003489 0.020646
v 0.037689 -0.002964 0.020532
v 0.039977 -0.003524 0.021245
v 0.037040 -0.002868 0.021025
v 0.038555 -0.004333 0.024069
v 0.035791 -0.003702 0.027065
v 0.034617 -0.000881 0.022616
v 0.036766 -0.000581 0.021304
v 0.036690 -0.002652 0.020651
v 0.036222 -0.002759 0.021074
v 0.034514 -0.002267 0.021419
v 0.039739 -0.001096 0.022064
v 0.039737 -0.003403 0.024620
v 0.040406 -0.002312 0.022200
v 0.034264 -0.003817 0.024057
v 0.038218 -0.004811 0.027837
v 0.037479 -0.004636 0.027930
v 0.039287 -0.004434 0.025946
v 0.031771 -0.004292 0.026364
v 0.032624 -0.002452 0.026527
v 0.037133 -0.004221 0.027840
v 0.031046 -0.000619 0.024712
v 0.035486 -0.001658 0.026688
v 0.031104 -0.000682 0.022369
v 0.039330 -0.001458 0.025225
v 0.035468 -0.003068 0.021286
v 0.033578 -0.003247 0.021191
v 0.031619 -0.002119 0.020692
v 0.040086 -0.002892 0.026038
v 0.034209 -0.003511 0.021588
v 0.031063 -0.004470 0.026442
v 0.032537 -0.004086 0.021147
v 0.039318 -0.004206 0.027430
v 0.038808 -0.004254 0.027839
v 0.037687 -0.003778 0.027657
v 0.039541 -0.003620 0.027348
v 0.031260 -0.003701 0.026398
v 0.032649 -0.001353 0.025996
v 0.035987 -0.003024 0.027718
v 0.032086 -0.001950 0.026300
v 0.036791 -0.003234 0.027762
v 0.029444 -0.000789 0.025429
v 0.028707 -0.000359 0.021523
v 0.036996 -0.001615 0.027404
v 0.036060 -0.001940 0.027518
v 0.029881 -0.001072 0.019751
v 0.039493 -0.002138 0.027225
v 0.032570 -0.003453 0.020991
v 0.031396 -0.003532 0.019399
v 0.032204 -0.003480 0.020589
v 0.031880 -0.004245 0.020686
v 0.029293 -0.005075 0.026927
v 0.029679 -0.005507 0.026385
v 0.029684 -0.005346 0.020657
v 0.038620 -0.002341 0.027621
v 0.027830 -0.004277 0.027111
v 0.028082 -0.000818 0.026303
v 0.028042 -0.001311 0.026616
v 0.027674 -0.001865 0.026819
v 0.027767 -0.003409 0.027252
v 0.027964 -0.000452 0.025744
v 0.027357 -0.000504 0.023854
v 0.027830 -0.000804 0.021984
v 0.028462 -0.001527 0.020216
v 0.029318 -0.002800 0.019001
v 0.030274 -0.003816 0.018879
v 0.030655 -0.004449 0.019234
v 0.028312 -0.005102 0.026800
v 0.028599 -0.005487 0.026101
v 0.028321 -0.005531 0.023189
v 0.028830 -0.004858 0.020375
v 0.028465 -0.005386 0.022162
v 0.028296 -0.002365 0.023263
v 0.027728 -0.002157 0.025312
v 0.028833 -0.004465 0.023571
v 0.028081 -0.005210 0.026323
v 0.027307 -0.001604 0.026390
v 0.027481 -0.000994 0.025876
v 0.027627 -0.002712 0.027024
v 0.027001 -0.001287 0.025409
v 0.027092 -0.001300 0.024011
v 0.028941 -0.004275 0.022956
v 0.029331 -0.003521 0.018976
v 0.028269 -0.005313 0.025006
v 0.028737 -0.003842 0.023250
vt 0.714206 0.512443
vt 0.803827 0.398202
vt 0.729809 0.533016
vt 0.749794 0.456078
vt 0.647557 0.692784
vt 0.658545 0.659755
vt 0.658545 0.714602
vt 0.306479 0.056164
vt 0.336070 0.140297
vt 0.309899 0.113336
vt 0.473679 0.045805
vt 0.624287 0.155834
vt 0.330311 0.001862
vt 0.861166 0.315805
vt 0.864091 0.410346
vt 0.763604 0.409562
vt 0.762541 0.389497
vt 0.785783 0.310504
vt 0.853457 0.551293
vt 0.735582 0.565324
vt 0.320045 0.159550
vt 0.929846 0.157934
vt 1.000000 0.175324
vt 0.951928 0.309916
vt 0.888569 0.277441
vt 0.801048 0.585338
vt 0.343177 0.177860
vt 0.499136 0.244330
vt 0.650153 0.035429
vt 0.658263 0.069361
vt 0.554467 0.000000
vt 0.970810 0.088493
vt 0.624148 0.341902
vt 0.774064 0.585338
vt 0.814295 0.710101
vt 0.724866 0.735347
vt 0.658263 0.585338
vt 0.658263 0.659755
vt 0.647557 0.641734
vt 0.620403 0.445690
vt 0.637062 0.373099
vt 0.637062 0.598540
vt 0.209605 0.175209
vt 0.271447 0.396187
vt 0.089059 0.323283
vt 0.862150 0.152226
vt 0.010400 0.410488
vt 0.104468 0.160427
vt 0.173256 0.559948
vt 0.025008 0.553612
vt 0.749690 0.356021
vt 0.360079 0.209789
vt 0.737713 0.268791
vt 0.780326 0.174109
vt 0.035974 0.589124
vt 0.864092 0.148892
vt 0.891410 0.097974
vt 0.375814 0.719821
vt 0.394466 0.813914
vt 0.306479 0.813914
vt 0.385446 0.263724
vt 0.633765 0.373099
vt 0.380851 0.340743
vt 0.950944 0.023175
vt 1.000000 0.000000
vt 0.037955 0.654026
vt 0.030889 0.682780
vt 0.000000 0.701958
vt 0.000914 0.735414
vt 0.041865 0.728669
vt 0.016474 0.751173
vt 0.923761 0.032161
vt 0.713212 0.765628
vt 0.749536 0.759385
vt 0.865832 0.597741
vt 0.863915 0.702206
vt 0.440634 0.719821
vt 0.440634 0.887136
vt 0.394466 0.842542
vt 0.834183 0.729577
vt 0.059934 0.805482
vt 0.054072 0.922526
vt 0.058036 0.771910
vt 0.256071 0.108057
vt 0.260565 0.260480
vt 0.082991 0.043583
vt 0.291126 0.470351
vt 0.646427 0.680709
vt 0.620403 0.636914
vt 0.646427 0.598540
vt 0.306479 0.429571
vt 0.000000 0.086196
vt 0.037104 0.176088
vt 0.267457 0.584707
vt 0.215736 0.605345
vt 0.369984 0.296175
vt 0.730972 0.299795
vt 0.697794 0.222473
vt 0.724755 0.222057
vt 0.702525 0.163026
vt 0.814940 0.088451
vt 0.718717 0.203953
vt 0.105040 0.605345
vt 0.133511 0.660375
vt 0.066682 0.648283
vt 0.365541 0.373099
vt 0.677316 0.846690
vt 0.658263 0.817995
vt 0.306479 0.873467
vt 0.206472 0.867344
vt 0.230337 0.605345
vt 0.306479 0.609493
vt 0.168873 0.873713
vt 0.182548 0.843980
vt 0.157732 0.853757
vt 0.115962 0.702292
vt 0.706963 0.914007
vt 0.306479 0.052572
vt 0.865832 0.899684
vt 0.109854 0.807664
vt 0.843583 0.905952
vt 0.816616 0.923330
vt 0.746904 0.922694
vt 0.279253 0.041760
vt 0.199696 0.000000
vt 0.114458 0.008508
vt 0.864091 0.038072
vt 0.797163 0.025366
vt 0.847553 0.000000
vt 0.133511 0.770045
vt 0.293942 0.548520
vt 0.728157 0.064069
vt 0.682482 0.110207
vt 0.193508 0.931710
vt 0.658263 0.130375
vt 0.248204 0.938541
vt 0.620403 0.729494
vt 0.604095 0.753561
vt 0.558489 0.754071
vt 0.670789 0.884630
vt 0.569180 0.723161
vt 0.540054 0.592857
vt 0.587454 0.468054
vt 0.544783 0.457200
vt 0.620403 0.391204
vt 0.540257 0.544296
vt 0.393306 0.550384
vt 0.484869 0.713861
vt 0.385286 0.633926
vt 0.490773 0.569924
vt 0.150077 0.652380
vt 0.150077 0.705819
vt 0.133511 0.687380
vt 0.637062 0.547035
vt 0.651241 0.497709
vt 0.651241 0.570848
vt 0.360528 0.676523
vt 0.444737 0.719821
vt 0.540054 0.678520
vt 0.331827 0.656399
vt 0.323826 0.683494
vt 0.306479 0.657322
vt 0.346923 0.696554
vt 0.133511 0.633195
vt 0.134796 0.605345
vt 0.156137 0.607391
vt 0.156137 0.652380
vt 0.412287 0.708261
vt 0.372851 0.700311
vt 0.777804 0.926375
vt 0.307672 0.565253
vt 0.345194 0.629069
vt 0.344762 0.568192
vt 0.320111 0.488335
vt 0.444975 0.719821
vt 0.489670 0.779445
vt 0.440634 0.821887
vt 0.352199 0.417807
vt 0.481491 0.544173
vt 0.506683 0.427708
vt 0.410136 0.374484
vt 0.695378 0.066250
vt 0.443548 0.373099
vt 0.554597 0.381344
vt 0.598444 0.373099
vt 0.545605 0.734570
vt 0.547145 0.674257
vt 0.637062 0.423120
vt 0.656308 0.373099
vt 0.656308 0.497709
vt 0.531275 0.625595
vt 0.532551 0.501866
vt 0.540054 0.545462
vt 0.489670 0.875872
vt 0.461676 0.554775
vn 0.1198 0.2499 -0.9608
vn 0.2998 0.4497 -0.8414
vn 0.5492 -0.5442 -0.6342
vn -0.4959 -0.6977 -0.5170
vn -0.3937 -0.9028 -0.1731
vn -0.4866 -0.8461 -0.2175
vn 0.3034 -0.9455 -0.1181
vn -0.5077 0.4650 -0.7253
vn -0.6580 -0.0817 -0.7486
vn -0.0945 0.0760 -0.9926
vn 0.2007 0.3805 -0.9027
vn -0.3909 0.6181 -0.6821
vn -0.2603 -0.2495 -0.9327
vn 0.2935 0.4488 -0.8441
vn 0.6516 0.2990 -0.6972
vn -0.3152 -0.9192 -0.2359
vn 0.5961 -0.7997 0.0711
vn 0.9185 -0.3875 0.0792
vn 0.6748 0.2944 -0.6768
vn -0.1445 -0.9094 -0.3900
vn 0.2387 -0.9674 -0.0842
vn -0.1446 -0.8989 -0.4137
vn -0.2451 -0.9588 -0.1436
vn -0.4027 -0.8969 -0.1826
vn 0.1497 -0.9825 -0.1112
vn 0.6722 -0.6775 -0.2986
vn 0.1518 -0.9876 -0.0393
vn -0.1706 -0.0082 0.9853
vn -0.5615 -0.3010 0.7708
vn -0.3697 -0.9290 0.0181
vn 0.1607 0.9753 0.1518
vn 0.0899 0.6471 -0.7571
vn -0.0201 0.9813 0.1915
vn 0.0583 0.9980 -0.0254
vn 0.0259 0.9790 0.2020
vn 0.1368 0.9820 0.1302
vn -0.2271 -0.1098 -0.9677
vn 0.3537 -0.9302 -0.0977
vn 0.2432 -0.0067 -0.9699
vn 0.1913 0.7736 -0.6041
vn 0.0304 0.1989 -0.9796
vn 0.8565 0.4885 0.1668
vn 0.8999 0.2897 -0.3259
vn 0.9460 0.1023 0.3076
vn 0.8879 -0.4569 -0.0539
vn 0.3028 -0.9450 -0.1239
vn 0.1859 -0.9824 -0.0195
vn 0.2507 -0.9654 0.0721
vn 0.3516 -0.9281 -0.1229
vn 0.5122 -0.8505 0.1200
vn 0.5431 -0.5775 0.6095
vn 0.0989 -0.1083 0.9892
vn 0.0899 0.2821 0.9552
vn -0.0235 0.3083 0.9510
vn 0.8799 -0.4624 0.1091
vn 0.9356 -0.3512 0.0344
vn 0.1018 0.0308 0.9943
vn -0.0233 -0.0775 0.9967
vn -0.1696 0.4319 0.8858
vn -0.1966 0.5433 0.8162
vn -0.2451 0.1690 0.9547
vn 0.0255 0.4344 0.9003
vn -0.3610 -0.2542 0.8973
vn -0.0374 0.0659 0.9971
vn 0.2025 0.1467 0.9682
vn 0.0872 0.9079 0.4101
vn 0.1415 0.9897 -0.0231
vn -0.0520 0.9915 0.1190
vn -0.0388 0.8458 0.5320
vn -0.0415 0.9988 0.0275
vn -0.7846 0.1632 0.5981
vn -0.2414 0.8557 0.4577
vn 0.6210 0.6792 -0.3913
vn 0.2125 0.9472 -0.2403
vn 0.2161 0.9296 0.2985
vn 0.8545 0.5091 0.1035
vn 0.1037 -0.7443 -0.6597
vn 0.3605 -0.4032 -0.8411
vn 0.2365 -0.2441 -0.9405
vn 0.2080 -0.0704 -0.9756
vn 0.6225 0.4726 -0.6238
vn 0.7618 0.3678 -0.5333
vn 0.6832 0.3425 -0.6450
vn 0.9084 0.0637 0.4133
vn 0.2380 -0.9713 -0.0042
vn 0.3918 -0.5629 0.7277
vn 0.2686 -0.0137 0.9632
vn 0.4477 -0.8937 0.0286
vn 0.6001 -0.7997 -0.0220
vn 0.5937 -0.3437 -0.7276
vn 0.7313 -0.1989 -0.6524
vn 0.6277 -0.1315 0.7673
vn -0.1175 0.1010 0.9879
vn 0.4610 0.1451 0.8755
vn 0.0945 -0.0364 0.9949
vn 0.3943 0.0887 0.9147
vn 0.1841 0.1124 0.9765
vn 0.2105 -0.0446 0.9766
vn 0.1286 0.9641 0.2323
vn 0.1054 0.3705 0.9228
vn -0.0110 0.1821 0.9832
vn -0.0087 0.1732 0.9848
vn 0.1481 0.5215 0.8403
vn 0.1176 0.2719 0.9551
vn 0.1176 0.2747 0.9543
vn 0.2571 -0.1367 0.9567
vn 0.2342 0.9702 0.0626
vn 0.2907 0.8275 0.4804
vn -0.5435 0.7964 -0.2652
vn -0.5840 0.6566 -0.4773
vn -0.4138 0.7160 -0.5623
vn -0.0992 0.9951 0.0045
vn 0.0097 0.3061 0.9519
vn 0.1878 0.6422 0.7432
vn -0.4075 0.4721 -0.7817
vn 0.3275 0.3284 -0.8859
vn 0.2276 0.3244 -0.9182
vn 0.7696 -0.3901 -0.5055
vn 0.4546 -0.2116 -0.8652
vn 0.7046 -0.4744 -0.5278
vn 0.4369 -0.8649 -0.2471
vn -0.0554 -0.7996 0.5979
vn -0.1064 -0.4046 0.9083
vn -0.1312 -0.8901 0.4364
vn -0.0231 -0.9996 0.0173
vn 0.0833 -0.9961 -0.0279
vn -0.2221 -0.7493 -0.6239
vn -0.1665 -0.9729 -0.1607
vn -0.3826 -0.8619 -0.3328
vn -0.9403 -0.2453 -0.2358
vn -0.9290 -0.2740 -0.2487
vn -0.6808 -0.5708 0.4590
vn 0.0205 0.6483 -0.7611
vn -0.9555 -0.1136 0.2721
vn -0.8971 -0.3746 -0.2343
vn -0.9387 -0.2482 -0.2393
vn -0.5633 0.6317 0.5325
vn -0.5994 0.4631 0.6528
vn -0.4381 0.5512 0.7101
vn -0.4477 0.6474 0.6168
vn -0.6769 0.2084 0.7059
vn -0.3058 0.2400 0.9214
vn -0.9383 -0.0783 0.3367
vn -0.6806 0.7050 0.1992
vn -0.6827 0.6760 0.2776
vn -0.9506 0.3037 -0.0647
vn -0.9271 0.2543 -0.2753
vn -0.7340 -0.5479 -0.4013
vn -0.9192 -0.3466 -0.1869
vn -0.9486 -0.3142 -0.0379
vn -0.9921 -0.1064 0.0667
vn -0.8661 -0.1189 -0.4856
vn -0.0921 0.0328 -0.9952
vn -0.9399 -0.0051 -0.3415
vn -0.2625 -0.5873 -0.7656
vn -0.3040 -0.6320 -0.7129
vn -0.3188 -0.8794 0.3535
vn -0.6438 -0.7617 0.0730
vn -0.5068 0.8146 0.2822
vn -0.9171 0.3919 -0.0733
vn -0.9020 0.4278 -0.0578
vn -0.9102 0.4130 -0.0322
vn -0.8828 0.4640 -0.0728
vn -0.6991 -0.7045 -0.1223
vn -0.9309 -0.2758 -0.2397
vn -0.9270 -0.2745 -0.2556
vn -0.7690 -0.6377 -0.0441
vn -0.7653 -0.6429 0.0310
vn -0.9304 -0.2707 -0.2470
vn -0.7302 0.5499 0.4055
usemtl Material_with_Texture.192
s off
f 1/1/1 2/2/1 3/3/1
f 4/4/2 2/2/2 1/1/2
f 3/5/3 5/6/3 1/7/3
f 1/8/4 6/9/4 4/10/4
f 7/11/5 8/12/5 1/8/5
f 8/12/6 6/9/6 1/8/6
f 1/8/7 5/13/7 7/11/7
f 9/14/8 10/15/8 2/2/8
f 11/16/9 12/17/9 2/2/9
f 11/16/10 2/2/10 4/4/10
f 10/15/11 3/3/11 2/2/11
f 2/2/12 13/18/12 9/14/12
f 13/18/13 2/2/13 12/17/13
f 10/15/14 14/19/14 3/3/14
f 14/19/15 5/20/15 3/3/15
f 4/10/16 6/9/16 11/21/16
f 15/22/17 7/23/17 5/24/17
f 5/24/18 16/25/18 15/22/18
f 5/20/19 14/19/19 16/26/19
f 6/9/20 12/27/20 11/21/20
f 6/9/21 8/12/21 17/28/21
f 17/28/22 12/27/22 6/9/22
f 7/11/23 18/29/23 19/30/23
f 7/11/24 19/30/24 8/12/24
f 20/31/25 18/29/25 7/11/25
f 7/23/26 15/22/26 20/32/26
f 8/12/27 21/33/27 17/28/27
f 8/34/28 22/35/28 21/36/28
f 8/37/29 19/38/29 23/39/29
f 8/40/30 23/41/30 22/42/30
f 24/43/31 25/44/31 9/45/31
f 13/18/32 26/46/32 9/14/32
f 10/47/33 9/45/33 25/44/33
f 9/45/34 26/48/34 24/43/34
f 27/49/35 10/47/35 25/44/35
f 14/50/36 10/47/36 27/49/36
f 13/18/37 12/17/37 28/51/37
f 12/27/38 17/28/38 28/52/38
f 29/53/39 30/54/39 13/18/39
f 13/18/40 30/54/40 26/46/40
f 28/51/41 29/53/41 13/18/41
f 27/49/42 16/55/42 14/50/42
f 15/22/43 27/56/43 31/57/43
f 27/58/44 15/59/44 16/60/44
f 31/57/45 20/32/45 15/22/45
f 28/52/46 17/28/46 32/61/46
f 17/28/47 33/62/47 34/63/47
f 17/28/48 21/33/48 33/62/48
f 34/63/49 32/61/49 17/28/49
f 35/64/50 18/65/50 20/32/50
f 35/66/51 36/67/51 18/68/51
f 18/68/52 36/67/52 19/69/52
f 19/69/53 37/70/53 23/71/53
f 36/67/54 37/70/54 19/69/54
f 20/32/55 31/57/55 38/72/55
f 35/64/56 20/32/56 38/72/56
f 33/73/57 21/36/57 39/74/57
f 22/35/58 39/74/58 21/36/58
f 22/35/59 25/75/59 40/76/59
f 22/77/60 41/78/60 25/79/60
f 42/80/61 39/74/61 22/35/61
f 42/80/62 22/35/62 40/76/62
f 23/71/63 41/81/63 22/82/63
f 43/83/64 41/81/64 23/71/64
f 37/70/65 43/83/65 23/71/65
f 44/84/66 40/85/66 24/43/66
f 45/86/67 24/43/67 26/48/67
f 45/86/68 44/84/68 24/43/68
f 40/85/69 25/44/69 24/43/69
f 46/87/70 27/49/70 25/44/70
f 41/88/71 47/89/71 25/90/71
f 25/44/72 47/91/72 46/87/72
f 48/92/73 26/48/73 30/93/73
f 26/48/74 48/92/74 45/86/74
f 46/87/75 49/94/75 27/49/75
f 27/49/76 49/94/76 31/95/76
f 32/61/77 29/96/77 28/52/77
f 32/97/78 34/98/78 29/53/78
f 50/99/79 29/53/79 34/98/79
f 29/53/80 50/99/80 30/54/80
f 30/54/81 51/100/81 48/101/81
f 52/102/82 51/100/82 30/54/82
f 50/99/83 52/102/83 30/54/83
f 31/103/84 49/104/84 38/105/84
f 53/106/85 34/63/85 33/62/85
f 54/107/86 55/108/86 33/73/86
f 33/73/87 39/74/87 54/107/87
f 56/109/88 53/110/88 33/111/88
f 56/109/89 33/111/89 55/112/89
f 52/113/90 34/114/90 53/110/90
f 50/115/91 34/114/91 52/113/91
f 36/67/92 35/66/92 38/105/92
f 36/67/93 57/116/93 37/70/93
f 36/67/94 38/105/94 57/116/94
f 37/70/95 57/116/95 43/83/95
f 49/104/96 57/116/96 38/105/96
f 54/107/97 39/74/97 58/117/97
f 58/117/98 39/74/98 42/80/98
f 59/118/99 40/85/99 44/84/99
f 42/80/100 40/76/100 59/119/100
f 41/81/101 57/116/101 47/120/101
f 57/116/102 41/81/102 43/83/102
f 59/119/103 60/121/103 42/80/103
f 60/121/104 61/122/104 42/80/104
f 62/123/105 42/80/105 61/122/105
f 42/80/106 62/123/106 58/117/106
f 44/84/107 45/86/107 63/124/107
f 59/118/108 44/84/108 63/124/108
f 64/125/109 45/86/109 65/126/109
f 45/127/110 66/128/110 65/129/110
f 66/128/111 45/127/111 48/101/111
f 64/125/112 63/124/112 45/86/112
f 57/116/113 46/130/113 47/120/113
f 57/131/114 49/94/114 46/87/114
f 67/132/115 66/128/115 48/101/115
f 51/100/116 68/133/116 48/101/116
f 68/133/117 67/132/117 48/101/117
f 53/110/118 51/134/118 52/113/118
f 68/133/119 51/100/119 69/135/119
f 51/134/120 53/110/120 69/136/120
f 69/136/121 53/110/121 56/109/121
f 55/137/122 54/138/122 70/139/122
f 70/140/123 54/107/123 58/117/123
f 55/137/124 70/139/124 71/141/124
f 71/141/125 72/142/125 55/137/125
f 56/143/126 55/137/126 72/142/126
f 56/143/127 73/144/127 69/145/127
f 72/142/128 74/146/128 56/143/128
f 74/146/129 73/144/129 56/143/129
f 75/147/130 58/148/130 76/149/130
f 75/147/131 77/150/131 58/148/131
f 58/151/132 78/152/132 70/153/132
f 78/154/133 58/155/133 71/156/133
f 79/157/134 58/148/134 62/158/134
f 58/148/135 77/150/135 71/159/135
f 76/149/136 58/148/136 79/157/136
f 80/160/137 59/161/137 63/162/137
f 60/163/138 59/161/138 80/160/138
f 79/164/139 61/165/139 60/166/139
f 60/166/140 80/167/140 79/164/140
f 81/168/141 61/169/141 79/157/141
f 62/123/142 61/122/142 81/170/142
f 79/157/143 62/158/143 81/168/143
f 63/162/144 64/171/144 82/172/144
f 80/160/145 63/162/145 82/172/145
f 64/171/146 83/173/146 82/172/146
f 64/171/147 65/174/147 83/173/147
f 65/175/148 75/176/148 83/177/148
f 65/174/149 66/178/149 84/179/149
f 65/174/150 84/179/150 75/147/150
f 84/179/151 66/178/151 73/180/151
f 73/180/152 66/178/152 67/181/152
f 67/132/153 68/133/153 85/182/153
f 73/180/154 67/181/154 85/183/154
f 85/184/155 68/185/155 69/145/155
f 85/184/156 69/145/156 73/144/156
f 78/186/157 71/141/157 70/139/157
f 72/142/158 71/141/158 86/187/158
f 86/188/159 71/189/159 77/190/159
f 86/191/160 74/192/160 72/193/160
f 74/192/161 84/179/161 73/180/161
f 84/179/162 74/192/162 77/150/162
f 74/192/163 86/191/163 77/150/163
f 75/176/164 76/194/164 83/177/164
f 75/147/165 84/179/165 87/195/165
f 77/150/166 75/147/166 87/195/166
f 82/172/167 83/173/167 76/149/167
f 82/172/168 76/149/168 79/157/168
f 84/179/169 77/150/169 87/195/169
f 79/157/170 80/160/170 82/172/170
