# Blender 4.3.0
# www.blender.org
mtllib middle_distal_lvs.mtl
o middle_distal_lvs
v 0.058993 -0.170264 0.009820
v 0.060256 -0.170253 0.010058
v 0.061452 -0.170771 0.012174
v 0.057861 -0.170777 0.012484
v 0.058681 -0.169426 0.009075
v 0.057091 -0.170229 0.010259
v 0.061592 -0.170769 0.010243
v 0.060613 -0.170055 0.008789
v 0.062248 -0.170902 0.011754
v 0.058004 -0.170592 0.013045
v 0.062414 -0.170597 0.013366
v 0.051142 -0.169351 0.010325
v 0.056759 -0.170268 0.012984
v 0.054495 -0.169765 0.012685
v 0.057646 -0.168431 0.007843
v 0.057148 -0.168632 0.008724
v 0.056768 -0.168307 0.008340
v 0.053678 -0.168291 0.008108
v 0.055754 -0.168515 0.008471
v 0.063367 -0.170386 0.011962
v 0.062950 -0.170104 0.010159
v 0.062078 -0.170120 0.009632
v 0.059883 -0.168560 0.007645
v 0.061945 -0.169477 0.008803
v 0.061803 -0.169829 0.009246
v 0.057770 -0.167831 0.007434
v 0.061869 -0.170381 0.014311
v 0.060831 -0.169963 0.014977
v 0.059028 -0.169498 0.015193
v 0.056958 -0.168994 0.014266
v 0.062661 -0.170272 0.013932
v 0.063165 -0.170362 0.012969
v 0.049910 -0.168094 0.006320
v 0.047070 -0.168727 0.008464
v 0.050987 -0.169244 0.012005
v 0.056464 -0.168631 0.014218
v 0.055247 -0.169172 0.013774
v 0.056033 -0.168990 0.014002
v 0.052914 -0.168450 0.014276
v 0.057251 -0.167732 0.007587
v 0.056824 -0.167770 0.007847
v 0.056553 -0.167918 0.008900
v 0.050504 -0.167408 0.006007
v 0.051761 -0.167180 0.006767
v 0.053906 -0.167153 0.008831
v 0.055898 -0.167904 0.009196
v 0.063064 -0.169825 0.012451
v 0.062648 -0.169908 0.009641
v 0.061568 -0.168652 0.008881
v 0.059102 -0.167910 0.007735
v 0.059784 -0.167912 0.008187
v 0.058114 -0.167352 0.007987
v 0.057368 -0.167240 0.007925
v 0.061287 -0.169793 0.015205
v 0.061736 -0.169347 0.014363
v 0.061371 -0.169286 0.015054
v 0.059878 -0.169063 0.015767
v 0.056373 -0.168340 0.015052
v 0.058490 -0.168581 0.015789
v 0.049600 -0.167790 0.005569
v 0.050015 -0.167211 0.005542
v 0.048073 -0.168560 0.005527
v 0.047590 -0.168820 0.006305
v 0.046138 -0.168728 0.007345
v 0.044665 -0.168404 0.009794
v 0.051017 -0.168606 0.013538
v 0.048819 -0.168241 0.013680
v 0.044838 -0.168384 0.012032
v 0.045753 -0.167978 0.013633
v 0.055943 -0.168023 0.014571
v 0.055811 -0.168353 0.014211
v 0.055084 -0.168601 0.014124
v 0.050412 -0.167374 0.014341
v 0.054712 -0.168195 0.013984
v 0.053153 -0.167726 0.014194
v 0.056941 -0.167673 0.009616
v 0.049107 -0.164891 0.004956
v 0.049566 -0.163561 0.008380
v 0.054308 -0.167386 0.012856
v 0.048661 -0.163684 0.006378
v 0.056174 -0.167574 0.011533
v 0.060006 -0.168551 0.015591
v 0.058477 -0.167697 0.011918
v 0.055753 -0.168034 0.015189
v 0.057043 -0.168082 0.015605
v 0.047917 -0.167276 0.004268
v 0.048271 -0.165753 0.004117
v 0.046996 -0.168133 0.005248
v 0.047665 -0.167854 0.004639
v 0.046415 -0.168372 0.006363
v 0.045068 -0.168441 0.008703
v 0.045597 -0.168415 0.007596
v 0.046812 -0.166777 0.010174
v 0.045087 -0.168103 0.011627
v 0.045977 -0.167297 0.013214
v 0.047429 -0.166272 0.015530
v 0.046000 -0.167088 0.014897
v 0.045935 -0.167568 0.014354
v 0.045824 -0.167420 0.013736
v 0.056445 -0.167396 0.015105
v 0.055349 -0.168014 0.013720
v 0.056483 -0.167794 0.013768
v 0.052320 -0.166609 0.014205
v 0.051337 -0.166020 0.014395
v 0.054191 -0.167712 0.013594
v 0.048633 -0.164701 0.004856
v 0.049106 -0.163342 0.014058
v 0.048922 -0.163289 0.009224
v 0.049021 -0.163260 0.008370
v 0.047631 -0.163818 0.006205
v 0.047556 -0.166264 0.004240
v 0.047307 -0.166944 0.004289
v 0.047465 -0.165381 0.004570
v 0.046878 -0.167294 0.004896
v 0.047348 -0.166280 0.008653
v 0.047142 -0.166374 0.010753
v 0.047321 -0.165575 0.010164
v 0.046132 -0.166954 0.013629
v 0.045566 -0.165515 0.015386
v 0.046926 -0.165397 0.015715
v 0.048790 -0.164868 0.015405
v 0.046021 -0.167017 0.014255
v 0.045716 -0.164988 0.014874
v 0.048966 -0.164189 0.015124
v 0.047473 -0.164790 0.005028
v 0.048308 -0.163910 0.015170
v 0.047371 -0.163055 0.013748
v 0.047244 -0.163073 0.010900
v 0.047371 -0.163212 0.010001
v 0.047095 -0.163494 0.008769
v 0.047690 -0.164699 0.007954
v 0.047651 -0.164614 0.009046
v 0.047580 -0.165044 0.009686
v 0.047152 -0.165368 0.012365
v 0.047248 -0.164184 0.009995
v 0.047547 -0.165006 0.010829
v 0.045820 -0.164494 0.015182
v 0.046342 -0.163713 0.013689
v 0.047445 -0.164629 0.011785
v 0.046325 -0.164043 0.014986
v 0.046925 -0.163341 0.014241
v 0.046962 -0.163506 0.010082
vn -0.0012 -0.8438 -0.5367
vn -0.1606 -0.9484 -0.2734
vn -0.0790 -0.9953 0.0561
vn -0.1134 -0.9889 0.0959
vn -0.2395 -0.8011 -0.5485
vn -0.1089 -0.8922 -0.4383
vn 0.0388 -0.9569 -0.2879
vn -0.0235 -0.8097 -0.5864
vn 0.1841 -0.9824 -0.0329
vn -0.1707 -0.8799 0.4434
vn 0.2192 -0.9469 0.2352
vn -0.1015 -0.9837 -0.1484
vn -0.2278 -0.8039 0.5494
vn -0.2292 -0.8943 0.3843
vn -0.2751 -0.6870 -0.6726
vn -0.1408 -0.7931 -0.5926
vn -0.5275 -0.3174 -0.7880
vn 0.2979 -0.3766 -0.8772
vn 0.0868 -0.0737 -0.9935
vn 0.9471 -0.3165 -0.0530
vn 0.8956 -0.2094 -0.3925
vn 0.3107 -0.7281 -0.6110
vn 0.2593 -0.0362 -0.9651
vn 0.6352 -0.1945 -0.7474
vn 0.3123 -0.7131 -0.6276
vn -0.0531 0.0860 -0.9949
vn 0.3257 -0.6960 0.6400
vn -0.0776 -0.8174 0.5708
vn -0.2387 -0.7394 0.6296
vn -0.4429 -0.7295 0.5213
vn 0.7436 -0.2268 0.6290
vn 0.8820 -0.3328 0.3338
vn 0.3026 -0.8445 -0.4420
vn -0.0427 -0.9990 -0.0153
vn -0.1488 -0.9646 0.2176
vn -0.4212 -0.6852 0.5941
vn -0.1242 -0.6820 0.7207
vn -0.0358 -0.5276 0.8487
vn -0.0535 -0.4493 0.8918
vn -0.5466 0.1375 -0.8260
vn -0.7544 0.6477 -0.1062
vn -0.4501 0.8178 -0.3585
vn 0.4375 -0.5188 -0.7345
vn 0.6133 0.0622 -0.7874
vn 0.5386 0.7234 -0.4319
vn 0.1029 0.9093 -0.4032
vn 0.7490 0.6495 0.1310
vn 0.7729 -0.2008 -0.6019
vn 0.6100 0.7080 -0.3558
vn 0.3018 0.6234 -0.7213
vn 0.4255 0.8459 -0.3216
vn 0.2286 0.9147 -0.3333
vn -0.3100 0.8775 -0.3660
vn 0.4378 -0.3779 0.8158
vn 0.7010 0.6109 0.3680
vn 0.6890 0.4544 0.5646
vn 0.1081 -0.2291 0.9674
vn -0.4383 -0.8056 0.3988
vn -0.1186 -0.0560 0.9914
vn 0.5132 -0.5890 -0.6243
vn 0.5722 -0.2695 -0.7745
vn 0.1432 -0.8728 -0.4666
vn -0.0022 -0.9854 -0.1701
vn -0.3427 -0.9174 -0.2023
vn -0.9641 -0.2235 -0.1433
vn -0.1323 -0.8082 0.5739
vn -0.0378 -0.7980 0.6014
vn -0.9077 -0.2855 0.3076
vn -0.7438 -0.5237 0.4154
vn -0.9321 0.1702 -0.3197
vn -0.3938 0.1559 0.9059
vn -0.0123 -0.0404 0.9991
vn 0.0696 -0.3983 0.9146
vn 0.1529 0.5374 0.8293
vn 0.2486 0.2213 0.9430
vn -0.2261 0.9741 0.0095
vn 0.5763 0.4715 -0.6675
vn 0.5613 0.8153 -0.1420
vn 0.4656 0.8425 0.2709
vn 0.2560 0.8893 -0.3790
vn 0.0888 0.9953 0.0397
vn 0.3561 0.7001 0.6190
vn 0.1938 0.9784 0.0724
vn -0.9134 -0.1160 0.3901
vn -0.0247 0.1984 0.9798
vn 0.1466 -0.3705 -0.9172
vn 0.1722 0.2096 -0.9625
vn -0.5278 -0.6299 -0.5698
vn -0.0737 -0.6386 -0.7660
vn -0.8461 -0.3171 -0.4285
vn -0.9363 -0.1543 -0.3156
vn -0.8771 -0.0399 -0.4787
vn -0.7570 0.6523 -0.0382
vn -0.7153 0.6942 0.0799
vn -0.8410 0.5392 -0.0437
vn 0.0590 -0.3853 0.9209
vn -0.6444 -0.4944 0.5833
vn -0.6890 -0.4933 0.5310
vn -0.9584 0.2844 -0.0223
vn -0.1673 0.9192 0.3565
vn -0.0180 0.8455 0.5338
vn -0.3197 0.9470 -0.0317
vn 0.3920 0.4682 0.7919
vn 0.4387 0.2390 0.8663
vn 0.3772 0.7709 0.5133
vn 0.1519 0.6872 -0.7104
vn 0.3943 0.8641 0.3129
vn 0.2364 0.9716 0.0137
vn 0.2246 0.9683 -0.1094
vn -0.6661 0.6795 -0.3074
vn -0.4057 0.1135 -0.9069
vn -0.5396 -0.1067 -0.8351
vn -0.6963 0.4379 -0.5686
vn -0.8989 -0.0486 -0.4354
vn -0.8985 0.4317 -0.0794
vn -0.8976 0.4403 -0.0201
vn -0.9671 0.2400 -0.0844
vn -0.9059 0.3496 -0.2392
vn -0.8579 -0.0823 0.5071
vn -0.0739 0.0437 0.9963
vn 0.2724 0.0982 0.9572
vn -0.9956 0.0839 -0.0428
vn -0.9583 0.1197 -0.2594
vn 0.4197 0.4915 0.7631
vn -0.8553 0.3938 -0.3368
vn 0.1000 0.6225 0.7762
vn -0.1733 0.9662 0.1906
vn -0.3456 0.9355 -0.0729
vn -0.3100 0.9396 -0.1452
vn -0.8700 0.4472 -0.2074
vn -0.9982 -0.0504 -0.0325
vn -0.9801 -0.1768 -0.0896
vn -0.9583 0.0224 -0.2848
vn -0.9186 0.1788 -0.3524
vn -0.9414 -0.3259 -0.0866
vn -0.9956 0.0890 0.0298
vn -0.7005 0.5016 0.5077
vn -0.8590 0.4966 -0.1246
vn -0.9537 -0.1974 -0.2270
vn -0.3504 0.7210 0.5979
vn -0.5748 0.8159 0.0621
vn -0.9664 0.2250 -0.1246
vt 0.305041 0.523539
vt 0.310498 0.569933
vt 0.245353 0.638933
vt 0.193869 0.516505
vt 0.169411 0.739506
vt 0.191535 0.701827
vt 0.191535 0.778819
vt 0.267830 0.460963
vt 0.330782 0.495219
vt 0.317433 0.624658
vt 0.361306 0.567466
vt 0.269273 0.664171
vt 0.175430 0.524856
vt 0.213003 0.682312
vt 0.201028 0.243086
vt 0.164520 0.476840
vt 0.151341 0.388689
vt 0.366601 0.434909
vt 0.328377 0.428634
vt 0.338936 0.407652
vt 0.312898 0.297106
vt 0.322313 0.375980
vt 0.135951 0.701827
vt 0.106564 0.796148
vt 0.103089 0.772287
vt 0.135951 0.808990
vt 0.275436 0.699192
vt 0.337291 0.663359
vt 0.333794 0.845883
vt 0.320286 0.776817
vt 0.359333 0.828072
vt 0.384372 0.857867
vt 0.337868 0.701827
vt 0.368483 0.792379
vt 0.358358 0.807074
vt 0.075298 0.761919
vt 0.103089 0.701827
vt 0.103089 0.843174
vt 0.451343 0.672600
vt 0.451343 0.814854
vt 0.432460 0.691100
vt 0.172925 0.670040
vt 0.138011 0.635348
vt 0.111088 0.568879
vt 0.123012 0.481273
vt 0.881556 0.881412
vt 0.936764 0.893564
vt 0.936133 0.941724
vt 0.195883 0.692674
vt 0.236464 0.701827
vt 0.336534 0.145257
vt 0.224963 0.074776
vt 0.138208 0.253044
vt 0.873340 0.860363
vt 0.121417 0.418692
vt 0.891821 0.849121
vt 0.907354 0.823358
vt 0.078747 0.333452
vt 0.373222 0.410198
vt 0.384372 0.428014
vt 0.358862 0.398299
vt 0.291745 0.776282
vt 0.291745 0.807726
vt 0.280146 0.795327
vt 0.269674 0.776282
vt 0.252604 0.740073
vt 0.268851 0.723016
vt 0.558256 0.719492
vt 0.531264 0.687968
vt 0.556801 0.680450
vt 0.731458 0.957234
vt 0.677473 0.809418
vt 0.710476 0.809642
vt 0.738866 0.858905
vt 0.775339 0.965402
vt 0.558256 0.798634
vt 0.507544 0.788085
vt 0.522622 0.712920
vt 0.536436 0.019973
vt 0.555354 0.000000
vt 0.622764 0.023655
vt 0.516306 0.004541
vt 0.205121 0.754614
vt 0.205121 0.791378
vt 0.194287 0.776167
vt 0.668263 0.100963
vt 0.641605 0.038678
vt 0.378949 0.835611
vt 0.384372 0.766965
vt 0.000000 0.804001
vt 0.006422 0.722361
vt 0.017501 0.772160
vt 0.031668 0.796514
vt 0.035454 0.864008
vt 0.218978 0.799482
vt 0.205121 0.767564
vt 0.218978 0.754614
vt 0.671432 0.072230
vt 0.035454 0.732152
vt 0.010773 0.701827
vt 0.033843 0.703699
vt 0.432461 0.924966
vt 0.414560 0.891260
vt 0.427447 0.878445
vt 0.218978 0.701827
vt 0.218978 0.754233
vt 0.194862 0.722866
vt 0.459317 0.067924
vt 0.431719 0.079268
vt 0.460241 0.042785
vt 0.396034 0.889345
vt 0.403515 0.828498
vt 0.432461 0.806990
vt 0.089351 0.460788
vt 0.403599 0.773003
vt 0.425013 0.699301
vt 0.120119 0.459181
vt 0.477870 0.020301
vt 0.682552 0.779561
vt 0.709249 0.782846
vt 0.631626 0.746491
vt 0.309388 0.072664
vt 0.343825 0.078730
vt 0.255400 0.031101
vt 0.150289 0.000000
vt 0.084108 0.261663
vt 0.055230 0.181844
vt 0.070551 0.028002
vt 0.023302 0.071018
vt 0.854352 0.833608
vt 0.869585 0.833982
vt 0.102873 0.437191
vt 0.886233 0.810081
vt 0.901161 0.728195
vt 0.885901 0.626439
vt 0.929239 0.664678
vt 0.875721 0.793704
vt 0.872721 0.731025
vt 0.291744 0.770141
vt 0.291744 0.701827
vt 0.506742 0.672600
vt 0.775339 0.714045
vt 0.642964 0.379409
vt 0.648866 0.593781
vt 0.491043 0.351755
vt 0.721357 0.625507
vt 0.775339 0.590109
vt 0.548264 0.290824
vt 0.635604 0.298825
vt 0.454912 0.701312
vt 0.407154 0.137015
vt 0.688922 0.175404
vt 0.542290 0.212859
vt 0.690955 0.241289
vt 0.690614 0.267853
vt 0.623989 0.268723
vt 0.384372 0.828267
vt 0.421210 0.672600
vt 0.404772 0.716575
vt 0.078156 0.436806
vt 0.672864 0.696386
vt 0.731408 0.682830
vt 0.343003 0.033194
vt 0.373395 0.047213
vt 0.649060 0.705531
vt 0.295215 0.026792
vt 0.194543 0.003717
vt 0.240943 0.010928
vt 1.000000 0.207087
vt 0.909118 0.225568
vt 0.992919 0.165650
vt 1.000000 0.292817
vt 0.985565 0.277918
vt 0.945611 0.340410
vt 0.936653 0.579921
vt 0.868618 0.499715
vt 0.915753 0.458580
vt 0.000000 0.079628
vt 0.936764 0.463903
vt 0.973459 0.355318
vt 0.953199 0.360076
vt 0.957455 0.383590
vt 0.246435 0.754614
vt 0.246435 0.810238
vt 0.242862 0.791348
vt 0.242862 0.787222
vt 0.218978 0.787222
vt 0.227024 0.754614
vt 0.864213 0.817118
vt 0.461229 0.303208
vt 0.443815 0.280176
vt 0.464098 0.270856
vt 0.252604 0.701827
vt 0.252604 0.754614
vt 0.218978 0.745793
vt 0.839900 0.690451
vt 0.826968 0.647952
vt 0.462025 0.347113
vt 0.435187 0.378938
vt 0.448462 0.319500
vt 0.865132 0.772755
vt 0.584308 0.728927
vt 0.577058 0.796074
vt 0.566702 0.724200
vt 0.602939 0.681567
vt 0.431432 0.599110
vt 0.614694 0.618055
vt 0.647606 0.617544
vt 0.433256 0.428512
vt 0.423139 0.471794
vt 0.617041 0.791724
vt 0.558256 0.856674
vt 0.395935 0.242368
vt 0.413694 0.276859
vt 0.291745 0.736661
vt 0.320287 0.701827
vt 0.320287 0.820742
vt 0.390029 0.690476
vt 0.702440 0.672600
vt 0.674852 0.675718
vt 0.631560 0.706568
vt 0.631626 0.672600
vt 0.356565 0.015543
vt 0.384372 0.020340
vt 0.880741 0.168528
vt 0.917529 0.023126
vt 0.964668 0.077366
vt 0.981565 0.123789
vt 0.890694 0.248521
vt 0.859245 0.227239
vt 0.931880 0.356870
vt 0.859864 0.425556
vt 0.840537 0.472301
vt 0.804506 0.537901
vt 0.940681 0.405059
vt 0.936870 0.380628
vt 0.872853 0.406823
vt 0.894317 0.425556
vt 0.779355 0.540078
vt 0.389059 0.583841
vt 0.628452 0.734969
vt 0.385201 0.610676
vt 0.436986 0.661836
vt 0.544810 0.672600
vt 0.579287 0.667889
vt 0.631626 0.867060
vt 0.617901 0.904910
vt 0.841338 0.013751
vt 0.787256 0.078531
vt 0.821537 0.032076
vt 0.819451 0.144241
vt 0.788951 0.176569
vt 0.897430 0.000743
vt 0.869789 0.000000
vt 0.818886 0.186075
vt 0.835903 0.209899
vt 0.858363 0.311535
vt 0.812180 0.222621
vt 0.836942 0.253623
vt 0.854581 0.419357
vt 0.821024 0.427058
vt 0.775339 0.513171
vt 0.816679 0.363765
vt 0.827122 0.290606
vt 0.800568 0.442796
vt 0.416083 0.669254
vt 0.384372 0.672600
vt 0.795118 0.385847
vt 0.777129 0.367748
vt 0.775339 0.258737
vt 0.793629 0.226644
vt 0.776624 0.224279
vt 0.169411 0.701827
vt 0.169411 0.742812
vt 0.135952 0.729014
vt 0.151939 0.778087
vt 0.830396 0.412887
vt 0.075298 0.701827
vt 0.075298 0.841951
vt 0.035454 0.777289
s 1
usemtl Material_with_Texture.183
f 1/1/1 2/2/2 3/3/3
f 1/1/1 3/3/3 4/4/4
f 1/5/1 5/6/5 2/7/2
f 6/8/6 1/1/1 4/4/4
f 6/8/6 5/9/5 1/1/1
f 3/3/3 2/2/2 7/10/7
f 2/2/2 5/9/5 8/11/8
f 2/2/2 8/11/8 7/10/7
f 3/3/3 7/10/7 9/12/9
f 3/3/3 10/13/10 4/4/4
f 3/3/3 11/14/11 10/13/10
f 11/14/11 3/3/3 9/12/9
f 6/8/6 4/4/4 12/15/12
f 4/4/4 10/13/10 13/16/13
f 4/4/4 13/16/13 14/17/14
f 12/15/12 4/4/4 14/17/14
f 8/11/8 5/9/5 15/18/15
f 16/19/16 5/9/5 6/8/6
f 5/9/5 17/20/17 15/18/15
f 5/9/5 16/19/16 17/20/17
f 18/21/18 6/8/6 12/15/12
f 19/22/19 6/8/6 18/21/18
f 6/23/6 17/24/17 16/25/16
f 6/23/6 19/26/19 17/24/17
f 9/12/9 7/10/7 20/27/20
f 20/27/20 7/10/7 21/28/21
f 7/29/7 8/30/8 22/31/22
f 7/29/7 22/31/22 21/32/21
f 8/30/8 23/33/23 24/34/24
f 25/35/25 8/30/8 24/34/24
f 23/36/23 8/37/8 26/38/26
f 26/39/26 8/40/8 15/41/15
f 22/31/22 8/30/8 25/35/25
f 9/12/9 20/27/20 11/14/11
f 10/13/10 27/42/27 28/43/28
f 10/13/10 28/43/28 29/44/29
f 30/45/30 10/13/10 29/44/29
f 30/46/30 13/47/13 10/48/10
f 10/13/10 11/14/11 27/42/27
f 31/49/31 11/14/11 32/50/32
f 27/42/27 11/14/11 31/49/31
f 32/50/32 11/14/11 20/27/20
f 33/51/33 18/21/18 12/15/12
f 34/52/34 33/51/33 12/15/12
f 12/15/12 14/17/14 35/53/35
f 34/52/34 12/15/12 35/53/35
f 36/54/36 13/47/13 30/46/30
f 37/55/37 14/17/14 13/16/13
f 13/47/13 36/54/36 38/56/38
f 13/47/13 38/56/38 37/57/37
f 39/58/39 35/53/35 14/17/14
f 14/17/14 37/55/37 39/58/39
f 15/18/15 40/59/40 26/60/26
f 15/18/15 41/61/41 40/59/40
f 17/20/17 41/61/41 15/18/15
f 17/62/17 40/63/40 41/64/41
f 40/65/40 17/66/17 42/67/42
f 19/68/19 42/69/42 17/70/17
f 18/71/18 33/72/33 43/73/43
f 18/71/18 43/73/43 44/74/44
f 45/75/45 18/71/18 44/74/44
f 19/68/19 18/76/18 45/77/45
f 46/78/46 19/68/19 45/77/45
f 19/68/19 46/78/46 42/69/42
f 47/79/47 20/80/20 21/81/21
f 47/79/47 32/82/32 20/80/20
f 21/83/21 22/84/22 48/85/48
f 49/86/49 47/79/47 21/81/21
f 49/86/49 21/81/21 48/87/48
f 48/88/48 22/31/22 25/35/25
f 49/89/49 24/34/24 23/33/23
f 23/90/23 26/91/26 50/92/50
f 51/93/51 49/94/49 23/90/23
f 50/92/50 51/93/51 23/90/23
f 48/95/48 25/96/25 24/97/24
f 48/87/48 24/98/24 49/86/49
f 50/92/50 26/91/26 52/99/52
f 40/100/40 53/101/53 26/91/26
f 52/99/52 26/91/26 53/101/53
f 27/102/27 54/103/54 28/104/28
f 31/105/31 55/106/55 27/107/27
f 55/108/55 56/109/56 27/110/27
f 27/102/27 56/111/56 54/103/54
f 28/104/28 54/103/54 57/112/57
f 28/104/28 57/112/57 29/113/29
f 29/44/29 58/114/58 30/45/30
f 57/112/57 59/115/59 29/113/29
f 59/115/59 58/116/58 29/113/29
f 36/117/36 30/45/30 58/114/58
f 47/79/47 31/118/31 32/82/32
f 31/118/31 47/79/47 55/108/55
f 33/72/33 60/119/60 61/120/61
f 62/121/62 60/119/60 33/72/33
f 61/120/61 43/73/43 33/72/33
f 63/122/63 62/123/62 33/51/33
f 34/52/34 63/122/63 33/51/33
f 63/122/63 34/52/34 64/124/64
f 34/52/34 35/53/35 65/125/65
f 64/124/64 34/52/34 65/125/65
f 35/53/35 39/58/39 66/126/66
f 35/53/35 66/126/66 67/127/67
f 35/53/35 68/128/68 65/125/65
f 35/53/35 69/129/69 68/128/68
f 35/53/35 67/127/67 69/129/69
f 70/130/70 71/131/71 36/54/36
f 36/117/36 58/114/58 70/132/70
f 38/56/38 36/54/36 71/131/71
f 72/133/72 37/57/37 38/56/38
f 72/133/72 39/134/39 37/57/37
f 72/133/72 38/56/38 71/131/71
f 73/135/73 66/136/66 39/134/39
f 74/137/74 39/134/39 72/133/72
f 75/138/75 73/135/73 39/134/39
f 74/137/74 75/138/75 39/134/39
f 53/139/53 40/65/40 42/67/42
f 53/139/53 42/67/42 76/140/76
f 46/78/46 76/141/76 42/69/42
f 61/120/61 44/74/44 43/73/43
f 45/75/45 44/74/44 77/142/77
f 77/142/77 44/74/44 61/120/61
f 45/143/45 78/144/78 79/145/79
f 80/146/80 45/143/45 77/147/77
f 80/146/80 78/144/78 45/143/45
f 45/143/45 81/148/81 46/149/46
f 45/143/45 79/145/79 81/148/81
f 76/141/76 46/78/46 81/150/81
f 55/108/55 47/79/47 49/86/49
f 82/151/82 55/108/55 49/86/49
f 49/86/49 51/152/51 83/153/83
f 82/151/82 49/86/49 83/153/83
f 52/99/52 51/93/51 50/92/50
f 83/153/83 51/152/51 52/154/52
f 83/153/83 52/154/52 53/155/53
f 53/155/53 76/156/76 83/153/83
f 54/103/54 82/157/82 57/112/57
f 82/157/82 54/103/54 56/111/56
f 55/108/55 82/151/82 56/109/56
f 82/157/82 59/115/59 57/112/57
f 84/158/84 58/116/58 85/159/85
f 59/115/59 85/159/85 58/116/58
f 70/132/70 58/114/58 84/160/84
f 85/159/85 59/115/59 82/157/82
f 61/120/61 60/119/60 86/161/86
f 86/161/86 60/119/60 62/121/62
f 61/120/61 86/161/86 87/162/87
f 61/120/61 87/162/87 77/142/77
f 62/123/62 88/163/88 89/164/89
f 88/163/88 62/123/62 63/122/63
f 62/121/62 89/165/89 86/161/86
f 90/166/90 63/122/63 64/124/64
f 90/166/90 88/163/88 63/122/63
f 65/125/65 91/167/91 64/124/64
f 64/124/64 92/168/92 90/166/90
f 91/167/91 92/168/92 64/124/64
f 65/169/65 93/170/93 91/171/91
f 65/169/65 68/172/68 94/173/94
f 95/174/95 65/169/65 94/173/94
f 65/169/65 95/174/95 93/170/93
f 73/135/73 67/175/67 66/136/66
f 96/176/96 97/177/97 67/175/67
f 67/127/67 98/178/98 69/129/69
f 67/175/67 97/177/97 98/179/98
f 96/176/96 67/175/67 73/135/73
f 68/172/68 69/180/69 94/173/94
f 95/174/95 94/173/94 69/180/69
f 99/181/99 95/174/95 69/180/69
f 98/182/98 99/181/99 69/180/69
f 100/183/100 71/184/71 70/185/70
f 70/186/70 84/187/84 100/188/100
f 71/131/71 101/189/101 72/133/72
f 101/190/101 71/191/71 102/192/102
f 100/193/100 102/194/102 71/195/71
f 74/137/74 72/133/72 101/189/101
f 73/135/73 75/138/75 103/196/103
f 104/197/104 96/176/96 73/135/73
f 103/196/103 104/197/104 73/135/73
f 105/198/105 75/199/75 74/200/74
f 101/190/101 105/198/105 74/200/74
f 75/138/75 105/201/105 103/196/103
f 81/148/81 83/153/83 76/156/76
f 106/202/106 80/203/80 77/204/77
f 87/205/87 106/202/106 77/204/77
f 79/145/79 78/144/78 107/206/107
f 108/207/108 107/206/107 78/144/78
f 109/208/109 108/207/108 78/144/78
f 80/146/80 109/208/109 78/144/78
f 79/145/79 103/209/103 105/198/105
f 79/145/79 104/210/104 103/209/103
f 104/210/104 79/145/79 107/206/107
f 81/148/81 79/145/79 105/198/105
f 110/211/110 109/212/109 80/203/80
f 80/203/80 106/202/106 110/211/110
f 83/153/83 81/148/81 102/192/102
f 101/190/101 102/192/102 81/148/81
f 105/198/105 101/190/101 81/148/81
f 82/151/82 83/153/83 85/213/85
f 83/153/83 100/214/100 85/213/85
f 102/215/102 100/216/100 83/217/83
f 85/159/85 100/218/100 84/158/84
f 111/219/111 87/162/87 86/161/86
f 86/161/86 112/220/112 111/219/111
f 112/220/112 86/161/86 89/165/89
f 113/221/113 87/205/87 111/222/111
f 87/205/87 113/221/113 106/202/106
f 114/223/114 89/164/89 88/163/88
f 88/163/88 90/166/90 114/223/114
f 114/223/114 112/224/112 89/164/89
f 115/225/115 114/226/114 90/227/90
f 115/225/115 90/227/90 92/228/92
f 115/225/115 92/228/92 91/171/91
f 91/171/91 93/170/93 115/225/115
f 95/174/95 116/229/116 93/170/93
f 117/230/117 115/225/115 93/170/93
f 117/230/117 93/170/93 116/229/116
f 118/231/118 95/174/95 99/181/99
f 95/174/95 118/231/118 116/229/116
f 96/176/96 119/232/119 97/177/97
f 120/233/120 119/232/119 96/176/96
f 96/176/96 104/197/104 121/234/121
f 120/233/120 96/176/96 121/234/121
f 98/182/98 97/235/97 122/236/122
f 123/237/123 122/236/122 97/235/97
f 123/237/123 97/235/97 119/238/119
f 99/181/99 98/182/98 122/236/122
f 99/181/99 122/236/122 118/231/118
f 121/234/121 104/197/104 124/239/124
f 104/210/104 107/206/107 124/240/124
f 106/202/106 125/241/125 110/211/110
f 106/202/106 113/221/113 125/241/125
f 124/240/124 107/206/107 126/242/126
f 127/243/127 126/242/126 107/206/107
f 107/206/107 128/244/128 127/243/127
f 128/244/128 107/206/107 108/207/108
f 109/208/109 129/245/129 108/207/108
f 128/244/128 108/207/108 129/245/129
f 130/246/130 109/212/109 110/211/110
f 129/247/129 109/212/109 130/246/130
f 113/248/113 110/249/110 125/250/125
f 131/251/131 110/249/110 113/248/113
f 130/252/130 110/249/110 131/251/131
f 112/253/112 113/248/113 111/254/111
f 112/253/112 114/226/114 113/248/113
f 113/248/113 114/226/114 131/251/131
f 115/225/115 131/251/131 114/226/114
f 132/255/132 115/225/115 133/256/133
f 115/225/115 132/255/132 131/251/131
f 117/230/117 133/256/133 115/225/115
f 118/231/118 134/257/134 116/229/116
f 134/257/134 117/230/117 116/229/116
f 117/230/117 135/258/135 133/256/133
f 136/259/136 135/258/135 117/230/117
f 117/230/117 134/257/134 136/259/136
f 123/237/123 118/231/118 122/236/122
f 118/231/118 123/237/123 134/257/134
f 119/238/119 137/260/137 123/237/123
f 119/232/119 120/233/120 137/261/137
f 120/233/120 121/234/121 126/262/126
f 120/233/120 126/262/126 137/261/137
f 126/262/126 121/234/121 124/239/124
f 137/260/137 138/263/138 123/237/123
f 123/237/123 138/263/138 139/264/139
f 134/257/134 123/237/123 139/264/139
f 140/265/140 137/261/137 126/262/126
f 126/242/126 141/266/141 140/267/140
f 127/243/127 141/266/141 126/242/126
f 141/268/141 127/269/127 137/260/137
f 137/260/137 127/269/127 138/263/138
f 138/263/138 127/269/127 128/270/128
f 128/270/128 142/271/142 138/263/138
f 129/272/129 142/271/142 128/270/128
f 129/272/129 130/252/130 142/271/142
f 131/273/131 132/274/132 130/275/130
f 130/275/130 132/274/132 135/276/135
f 130/252/130 135/258/135 142/271/142
f 133/256/133 135/258/135 132/255/132
f 134/257/134 139/264/139 136/259/136
f 139/264/139 142/271/142 135/258/135
f 136/259/136 139/264/139 135/258/135
f 137/260/137 140/277/140 141/268/141
f 138/278/138 142/279/142 139/280/139
