# Blender 4.3.0
# www.blender.org
mtllib middle_proximal_lvs.mtl
o middle_proximal_lvs
v 0.015985 -0.141798 0.003754
v 0.017121 -0.144953 0.000453
v 0.017779 -0.145721 0.000389
v 0.016845 -0.144163 0.003943
v 0.015066 -0.140363 0.001725
v 0.017397 -0.143157 0.007393
v 0.016305 -0.141223 0.006030
v 0.017818 -0.145253 0.005041
v 0.013588 -0.138396 0.001516
v 0.007036 -0.128181 0.003058
v 0.008507 -0.128673 0.005097
v 0.017952 -0.145679 -0.000405
v 0.016430 -0.143360 -0.000574
v 0.019801 -0.146668 -0.000574
v 0.019483 -0.146880 0.001213
v 0.015812 -0.141665 -0.000440
v 0.018669 -0.145332 0.007707
v 0.016825 -0.140499 0.007457
v 0.018297 -0.139077 0.008741
v 0.020041 -0.145167 0.008810
v 0.016468 -0.137826 0.007459
v 0.019665 -0.146304 0.004054
v 0.020116 -0.146729 0.006646
v 0.020199 -0.146407 0.008056
v 0.012632 -0.136178 0.000492
v 0.005501 -0.125594 0.002385
v 0.002736 -0.119519 0.002547
v 0.003030 -0.113122 0.006877
v -0.001185 -0.110648 0.005109
v 0.022023 -0.146271 -0.001032
v 0.016887 -0.140507 -0.001714
v 0.022612 -0.146487 0.000156
v 0.016543 -0.138781 -0.001519
v 0.017860 -0.138542 0.008407
v 0.023295 -0.143758 0.009506
v 0.020065 -0.138540 0.009158
v 0.023448 -0.141802 0.009646
v 0.018585 -0.137556 0.008170
v 0.021263 -0.146267 0.008138
v 0.018235 -0.136921 0.007155
v 0.017792 -0.137527 0.007635
v 0.022233 -0.145661 0.003825
v 0.021314 -0.146539 0.007380
v 0.022516 -0.146157 0.007047
v 0.010180 -0.124153 -0.003109
v 0.004254 -0.118890 -0.002662
v 0.002816 -0.119339 -0.000100
v -0.000168 -0.114811 -0.001487
v -0.002363 -0.111065 0.002191
v 0.007966 -0.114833 0.007327
v 0.004524 -0.111220 0.007529
v 0.002352 -0.107814 0.008618
v -0.001491 -0.106380 0.007048
v -0.002758 -0.105662 0.004103
v 0.022777 -0.141392 -0.002730
v 0.023021 -0.144813 -0.001692
v 0.019482 -0.138684 -0.002508
v 0.024145 -0.144254 -0.000873
v 0.024266 -0.144008 0.001537
v 0.023058 -0.144786 0.003760
v 0.018386 -0.138184 -0.002090
v 0.018564 -0.137650 -0.000946
v 0.023193 -0.145162 0.008501
v 0.024376 -0.141826 0.008887
v 0.023924 -0.144252 0.008764
v 0.020105 -0.137231 0.008235
v 0.023717 -0.140529 0.008807
v 0.020975 -0.137641 0.005969
v 0.019345 -0.136877 0.005588
v 0.009497 -0.115209 0.004434
v 0.024397 -0.144107 0.006185
v 0.007572 -0.117586 -0.004487
v 0.011379 -0.123796 -0.003041
v 0.008549 -0.117179 -0.004410
v 0.004552 -0.113036 -0.006609
v 0.000265 -0.114713 -0.002979
v -0.001015 -0.113155 -0.001906
v -0.003141 -0.106331 -0.001052
v 0.006757 -0.110634 0.007280
v 0.005816 -0.106220 0.008185
v 0.001474 -0.101935 0.008671
v -0.000151 -0.103393 0.008390
v -0.002150 -0.104198 0.005810
v -0.000828 -0.101933 0.007135
v 0.003199 -0.102253 -0.000879
v 0.024388 -0.141929 -0.001531
v 0.023290 -0.139503 -0.002022
v 0.020722 -0.137778 -0.001521
v 0.024696 -0.142017 0.000940
v 0.024078 -0.141931 0.003614
v 0.019345 -0.137149 0.000941
v 0.024749 -0.141630 0.006145
v 0.023129 -0.139051 0.006229
v 0.023211 -0.139812 0.003473
v 0.008568 -0.106940 0.000044
v 0.008948 -0.111220 -0.004396
v 0.007926 -0.115355 -0.005006
v 0.002937 -0.108787 -0.009369
v -0.000020 -0.107567 -0.008051
v 0.000129 -0.112720 -0.003852
v -0.001288 -0.110263 -0.005076
v -0.000822 -0.104739 -0.006790
v -0.000554 -0.103263 -0.005844
v 0.007313 -0.104176 0.006887
v 0.006040 -0.101879 0.006855
v 0.003944 -0.101579 0.008375
v 0.000789 -0.100738 0.007549
v 0.001903 -0.100435 0.007488
v 0.001236 -0.102209 -0.006900
v 0.003908 -0.100962 -0.006541
v 0.005749 -0.100690 -0.003734
v 0.004527 -0.101148 -0.004219
v 0.001615 -0.100461 0.006454
v 0.003606 -0.100265 0.004773
v 0.023683 -0.139703 0.000751
v 0.007806 -0.102128 -0.005023
v 0.006972 -0.105449 -0.007903
v 0.005353 -0.106912 -0.009019
v 0.002129 -0.106406 -0.009569
v 0.003918 -0.107279 -0.009424
v 0.002391 -0.102215 -0.008006
v 0.004454 -0.100553 0.005892
v 0.004835 -0.100487 0.002770
v 0.002916 -0.100299 0.007228
v 0.002701 -0.100260 0.006688
v 0.003406 -0.101164 -0.007454
v 0.005746 -0.100806 -0.004993
v 0.004284 -0.100921 -0.006927
v 0.006000 -0.102272 -0.008040
v 0.005482 -0.101428 -0.007212
v 0.004974 -0.102457 -0.008734
v 0.003948 -0.102803 -0.009025
v 0.004618 -0.101520 -0.007947
vn -0.8814 -0.4476 0.1511
vn -0.8125 -0.5820 0.0330
vn -0.6750 -0.7359 -0.0523
vn -0.8913 -0.4118 0.1898
vn -0.8371 -0.5469 0.0122
vn -0.7852 -0.2958 0.5441
vn -0.8692 -0.3373 0.3617
vn -0.7324 -0.6612 0.1623
vn -0.8480 -0.5254 -0.0698
vn -0.8550 -0.4825 0.1900
vn -0.6920 -0.3786 0.6146
vn -0.5013 -0.5876 -0.6352
vn -0.7189 -0.4027 -0.5665
vn -0.1954 -0.7550 -0.6259
vn -0.2187 -0.9751 0.0368
vn -0.8317 -0.2935 -0.4714
vn -0.6846 -0.5404 0.4891
vn -0.7693 -0.1415 0.6231
vn -0.4019 0.0749 0.9126
vn -0.2973 -0.3365 0.8935
vn -0.4254 0.0016 0.9050
vn -0.1355 -0.9886 0.0653
vn -0.2073 -0.9777 0.0347
vn -0.2629 -0.7974 0.5432
vn -0.7465 -0.4140 -0.5210
vn -0.8685 -0.4903 -0.0722
vn -0.8713 -0.4709 0.1383
vn -0.3454 -0.2546 0.9033
vn -0.7456 -0.3416 0.5722
vn 0.1768 -0.6978 -0.6941
vn -0.4496 -0.1421 -0.8819
vn 0.5133 -0.8550 -0.0734
vn -0.3641 -0.0020 -0.9314
vn -0.3999 0.3086 0.8630
vn 0.2675 -0.2633 0.9269
vn 0.0050 0.3352 0.9421
vn 0.2878 0.1136 0.9509
vn -0.2964 0.6171 0.7290
vn 0.1824 -0.7710 0.6102
vn 0.2321 0.6812 0.6943
vn -0.3150 0.6522 0.6895
vn 0.5089 -0.8603 0.0284
vn 0.2397 -0.9610 0.1382
vn 0.5087 -0.8588 0.0609
vn -0.2649 -0.3035 -0.9153
vn -0.5209 -0.5217 -0.6757
vn -0.7928 -0.5368 -0.2886
vn -0.8183 -0.5525 -0.1583
vn -0.9320 -0.3329 0.1431
vn 0.4521 0.1406 0.8808
vn 0.0289 -0.1905 0.9813
vn -0.1526 -0.2104 0.9656
vn -0.7312 -0.1850 0.6566
vn -0.9590 0.2714 0.0812
vn 0.1978 -0.0634 -0.9782
vn 0.3276 -0.4621 -0.8241
vn -0.0510 0.2824 -0.9580
vn 0.8482 -0.4022 -0.3448
vn 0.9093 -0.3842 0.1598
vn 0.8215 -0.5701 -0.0015
vn -0.2696 0.6088 -0.7461
vn 0.2269 0.7435 -0.6290
vn 0.5230 -0.7005 0.4855
vn 0.8786 0.1208 0.4621
vn 0.7772 -0.4379 0.4518
vn 0.2230 0.8569 0.4648
vn 0.6532 0.5529 0.5173
vn 0.4682 0.8774 -0.1046
vn 0.6757 0.7165 0.1731
vn 0.9293 0.3023 0.2123
vn 0.9064 -0.4153 -0.0771
vn -0.0483 -0.3269 -0.9438
vn 0.6100 0.1369 -0.7805
vn 0.2956 -0.1166 -0.9482
vn -0.2115 -0.5357 -0.8175
vn -0.6799 -0.5086 -0.5282
vn -0.8757 -0.4120 -0.2518
vn -0.9492 0.3006 -0.0927
vn 0.6089 0.0495 0.7917
vn 0.4047 -0.0005 0.9145
vn -0.1566 0.3225 0.9335
vn -0.5177 0.0954 0.8502
vn -0.9189 0.3689 0.1399
vn -0.7686 0.5922 0.2420
vn -0.5735 0.8162 -0.0699
vn 0.8733 0.0427 -0.4854
vn 0.6238 0.5560 -0.5493
vn 0.2993 0.8610 -0.4112
vn 0.9925 0.1118 0.0495
vn 0.9975 0.0648 -0.0271
vn 0.6081 0.7713 -0.1880
vn 0.9815 0.1866 -0.0429
vn 0.7047 0.7094 0.0122
vn 0.7651 0.6433 -0.0288
vn 0.9851 0.1501 0.0834
vn 0.9291 0.0378 -0.3680
vn 0.4659 -0.1764 -0.8671
vn -0.1374 -0.4015 -0.9055
vn -0.6891 -0.1968 -0.6975
vn -0.5869 -0.4991 -0.6376
vn -0.7815 -0.3800 -0.4949
vn -0.7998 0.2414 -0.5496
vn -0.7033 0.6856 -0.1880
vn 0.8245 0.2320 0.5161
vn 0.6819 0.5744 0.4528
vn 0.3262 0.4577 0.8271
vn -0.4707 0.8095 0.3509
vn -0.1386 0.8953 0.4233
vn -0.5864 0.7506 -0.3046
vn -0.2791 0.9591 0.0472
vn 0.1208 0.9927 0.0005
vn -0.3277 0.9375 0.1171
vn -0.4132 0.8984 -0.1487
vn -0.0498 0.9945 -0.0916
vn 0.7592 0.6488 0.0527
vn 0.8396 0.5077 -0.1930
vn 0.7486 0.0494 -0.6612
vn 0.4603 -0.0915 -0.8830
vn -0.3030 0.0666 -0.9507
vn 0.2101 -0.0746 -0.9748
vn -0.4561 0.5466 -0.7023
vn 0.4216 0.8870 0.1883
vn 0.4218 0.9059 0.0368
vn 0.1684 0.9120 0.3739
vn -0.0360 0.9992 0.0165
vn -0.2742 0.8735 -0.4022
vn 0.2158 0.9697 -0.1142
vn 0.0475 0.9669 -0.2505
vn 0.6020 0.4636 -0.6501
vn 0.4190 0.8174 -0.3953
vn 0.2981 0.4054 -0.8642
vn -0.0651 0.3725 -0.9257
vn 0.1402 0.7700 -0.6225
vt 0.190936 0.106556
vt 0.134876 0.051618
vt 0.133959 0.034919
vt 0.193417 0.065183
vt 0.157058 0.135174
vt 0.252245 0.074702
vt 0.229644 0.111945
vt 0.212017 0.041092
vt 0.153378 0.176171
vt 0.179266 0.379261
vt 0.214461 0.359411
vt 0.120892 0.034063
vt 0.118063 0.080490
vt 0.119251 0.003915
vt 0.148656 0.003539
vt 0.120785 0.110145
vt 0.257342 0.032493
vt 0.254462 0.117782
vt 0.535785 0.802224
vt 0.562418 0.824558
vt 0.562418 0.869477
vt 0.529130 0.905834
vt 0.550012 0.907624
vt 0.794863 0.231730
vt 0.850806 0.000000
vt 0.869164 0.057165
vt 0.255864 0.159225
vt 0.196669 0.010108
vt 0.240141 0.000000
vt 0.263986 0.003842
vt 0.136757 0.216300
vt 0.168177 0.429669
vt 0.172073 0.540715
vt 0.787448 0.508109
vt 0.216726 0.701759
vt 0.736381 0.561653
vt 0.669441 0.815918
vt 0.612012 0.780437
vt 0.605308 0.734631
vt 0.633021 0.807662
vt 0.632185 0.691938
vt 0.607971 0.705292
vt 0.277225 0.825102
vt 0.284901 0.795503
vt 0.313154 0.807991
vt 0.311757 0.788378
vt 0.284110 0.873243
vt 0.639240 0.664206
vt 0.598814 0.603471
vt 0.277225 0.022968
vt 0.558754 0.780273
vt 0.540386 0.793255
vt 0.472483 0.891196
vt 0.505888 0.797838
vt 0.463318 0.859665
vt 0.524665 0.780377
vt 0.529575 0.928722
vt 0.511922 0.929570
vt 0.902350 0.061670
vt 0.719933 0.891703
vt 0.709338 0.872093
vt 0.711237 0.859276
vt 0.536481 0.779082
vt 0.317398 0.870242
vt 0.279942 0.916065
vt 0.293127 0.928584
vt 0.283789 0.940000
vt 0.310049 0.923501
vt 0.295661 0.941563
vt 0.645951 0.396356
vt 0.081924 0.410200
vt 0.086948 0.536868
vt 0.128046 0.542725
vt 0.104852 0.633528
vt 0.166549 0.706074
vt 0.855899 0.458602
vt 0.820150 0.532747
vt 0.802098 0.600370
vt 0.751147 0.636457
vt 0.201580 0.786938
vt 0.251565 0.765565
vt 0.715046 0.743402
vt 0.694757 0.799207
vt 0.684287 0.680499
vt 0.341945 0.779082
vt 0.359448 0.793449
vt 0.361621 0.834003
vt 0.337318 0.870200
vt 0.671299 0.666521
vt 0.678054 0.662875
vt 0.687613 0.815918
vt 0.672000 0.852685
vt 0.659997 0.835320
vt 0.477278 0.916698
vt 0.446918 0.865375
vt 0.462644 0.903493
vt 0.498908 0.779735
vt 0.452894 0.842604
vt 0.697605 0.864270
vt 0.687613 0.840965
vt 0.328744 0.948973
vt 0.364524 0.126610
vt 0.384027 0.093691
vt 0.389735 0.119611
vt 0.368465 0.514459
vt 0.320608 0.529173
vt 0.719933 0.815918
vt 0.356927 0.911545
vt 0.347941 0.954449
vt 0.593426 0.277469
vt 0.652578 0.276026
vt 0.666689 0.399530
vt 0.670304 0.276932
vt 0.638488 0.181034
vt 0.562418 0.186250
vt 0.080416 0.631263
vt 0.098085 0.664624
vt 0.114652 0.780872
vt 0.858950 0.530152
vt 0.313113 0.599161
vt 0.865966 0.606920
vt 0.819090 0.696948
vt 0.786104 0.681140
vt 0.231638 0.802623
vt 0.256532 0.823657
vt 0.277225 0.796804
vt 0.861382 0.863412
vt 0.736381 0.855099
vt 0.756650 0.770617
vt 0.779715 0.741670
vt 0.735970 0.765927
vt 0.736381 0.720588
vt 0.715966 0.800880
vt 0.644363 0.839799
vt 0.642644 0.870271
vt 0.709755 0.678236
vt 0.393762 0.826364
vt 0.394501 0.785176
vt 0.386508 0.871121
vt 0.687613 0.884025
vt 0.509821 0.387858
vt 0.467445 0.122680
vt 0.500335 0.125428
vt 0.385592 0.959348
vt 0.394501 0.913777
vt 0.387309 0.003486
vt 0.341410 0.024274
vt 0.342458 0.000000
vt 0.346086 0.103892
vt 0.381387 0.054166
vt 0.428713 0.046813
vt 0.508791 0.105146
vt 0.424112 0.645657
vt 0.506774 0.588615
vt 0.673633 0.243634
vt 0.718580 0.190428
vt 0.394501 0.861829
vt 0.422892 0.779082
vt 0.422892 0.899735
vt 0.574267 0.153050
vt 0.569884 0.103028
vt 0.643432 0.098586
vt 0.607520 0.063326
vt 0.066980 0.661078
vt 0.046718 0.708625
vt 0.022097 0.783954
vt 0.788685 0.935303
vt 0.772022 0.952848
vt 0.902350 0.627289
vt 0.562418 0.866507
vt 0.642644 0.815918
vt 0.642644 0.954596
vt 0.894347 0.669407
vt 0.860500 0.689432
vt 0.816214 0.715329
vt 0.835533 0.714412
vt 0.784937 0.703160
vt 0.818632 0.719562
vt 0.852348 0.715329
vt 0.821197 0.955914
vt 0.870929 0.955656
vt 0.905633 0.914750
vt 0.883119 0.919897
vt 0.864671 0.735190
vt 0.892678 0.768302
vt 0.515577 0.013905
vt 0.473357 0.048158
vt 0.474561 0.006240
vt 0.519197 0.058609
vt 0.430387 0.009018
vt 0.498331 0.727717
vt 0.305384 0.685639
vt 0.553804 0.692731
vt 0.693458 0.088242
vt 0.728653 0.080619
vt 0.647994 0.056732
vt 0.668988 0.082657
vt 0.000000 0.736502
vt 0.615685 0.018798
vt 0.836316 0.977496
vt 0.682032 0.000000
vt 0.301775 0.729414
vt 0.315904 0.763711
vt 0.277225 0.750157
vt 0.367337 0.765860
vt 0.475141 0.764468
vt 0.852669 0.710712
vt 0.294156 0.779082
vt 0.882790 0.734240
vt 0.871087 0.719091
vt 0.886716 0.726129
vt 0.860247 0.969474
vt 0.902383 0.935563
vt 0.876120 0.963023
vt 0.905633 0.805202
vt 0.496288 0.764731
vt 0.905287 0.753111
vt 0.549853 0.746349
vt 0.534622 0.761637
vt 0.736381 0.025866
vt 0.719338 0.019609
vt 0.701249 0.016865
vt 0.853295 1.000000
vt 0.874775 0.981882
vt 0.529557 0.779082
vt 0.889712 0.972281
vt 0.547564 0.769174
vt 0.562418 0.753967
vt 0.871696 0.997654
s 1
usemtl Material_with_Texture.187
f 1/1/1 2/2/2 3/3/3
f 4/4/4 1/1/1 3/3/3
f 2/2/2 1/1/1 5/5/5
f 6/6/6 7/7/7 1/1/1
f 8/8/8 1/1/1 4/4/4
f 9/9/9 5/5/5 1/1/1
f 10/10/10 9/9/9 1/1/1
f 11/11/11 10/10/10 1/1/1
f 1/1/1 7/7/7 11/11/11
f 6/6/6 1/1/1 8/8/8
f 2/2/2 12/12/12 3/3/3
f 13/13/13 12/12/12 2/2/2
f 2/2/2 5/5/5 13/13/13
f 3/3/3 14/14/14 15/15/15
f 3/3/3 12/12/12 14/14/14
f 3/3/3 8/8/8 4/4/4
f 8/8/8 3/3/3 15/15/15
f 5/5/5 16/16/16 13/13/13
f 16/16/16 5/5/5 9/9/9
f 8/8/8 17/17/17 6/6/6
f 6/6/6 18/18/18 7/7/7
f 19/19/19 18/20/18 6/21/6
f 6/21/6 20/22/20 19/19/19
f 6/21/6 17/23/17 20/22/20
f 11/24/11 7/25/7 21/26/21
f 7/7/7 18/18/18 21/27/21
f 15/15/15 22/28/22 8/8/8
f 22/28/22 23/29/23 8/8/8
f 8/8/8 23/29/23 24/30/24
f 24/30/24 17/17/17 8/8/8
f 25/31/25 9/9/9 10/10/10
f 9/9/9 25/31/25 16/16/16
f 26/32/26 25/31/25 10/10/10
f 11/11/11 26/32/26 10/10/10
f 11/11/11 27/33/27 26/32/26
f 11/24/11 21/26/21 28/34/28
f 27/33/27 11/11/11 29/35/29
f 29/36/29 11/24/11 28/34/28
f 30/37/30 12/38/12 13/39/13
f 30/37/30 14/40/14 12/38/12
f 30/37/30 13/39/13 31/41/31
f 31/41/31 13/39/13 16/42/16
f 15/43/15 14/44/14 32/45/32
f 14/44/14 30/46/30 32/45/32
f 32/45/32 22/47/22 15/43/15
f 33/48/33 31/41/31 16/42/16
f 33/48/33 16/42/16 25/49/25
f 17/17/17 24/30/24 20/50/20
f 18/20/18 19/19/19 21/51/21
f 19/19/19 34/52/34 21/51/21
f 19/19/19 20/22/20 35/53/35
f 36/54/36 19/19/19 37/55/37
f 19/19/19 35/53/35 37/55/37
f 36/54/36 38/56/38 19/19/19
f 34/52/34 19/19/19 38/56/38
f 24/57/24 39/58/39 20/22/20
f 39/58/39 35/53/35 20/22/20
f 21/26/21 40/59/40 28/34/28
f 21/60/21 41/61/41 40/62/40
f 21/51/21 34/52/34 41/63/41
f 22/47/22 32/45/32 42/64/42
f 23/65/23 22/47/22 42/64/42
f 23/65/23 43/66/43 24/67/24
f 44/68/44 23/65/23 42/64/42
f 44/68/44 43/66/43 23/65/23
f 24/67/24 43/66/43 39/69/39
f 25/49/25 45/70/45 33/48/33
f 45/71/45 25/31/25 26/32/26
f 45/71/45 26/32/26 46/72/46
f 46/72/46 26/32/26 47/73/47
f 47/73/47 26/32/26 27/33/27
f 48/74/48 47/73/47 27/33/27
f 27/33/27 49/75/49 48/74/48
f 29/35/29 49/75/49 27/33/27
f 50/76/50 51/77/51 28/34/28
f 52/78/52 29/36/29 28/34/28
f 51/77/51 52/78/52 28/34/28
f 28/34/28 40/59/40 50/76/50
f 52/78/52 53/79/53 29/36/29
f 49/75/49 29/35/29 54/80/54
f 54/80/54 29/35/29 53/81/53
f 30/37/30 55/82/55 56/83/56
f 55/82/55 30/37/30 57/84/57
f 30/37/30 31/41/31 57/84/57
f 32/45/32 30/46/30 56/85/56
f 33/48/33 57/84/57 31/41/31
f 58/86/58 59/87/59 32/45/32
f 60/88/60 32/45/32 59/87/59
f 60/88/60 42/64/42 32/45/32
f 32/45/32 56/85/56 58/86/58
f 33/48/33 61/89/61 57/84/57
f 62/90/62 33/48/33 45/70/45
f 33/91/33 62/92/62 61/93/61
f 34/52/34 38/56/38 41/63/41
f 35/53/35 39/58/39 63/94/63
f 35/53/35 64/95/64 37/55/37
f 64/95/64 35/53/35 65/96/65
f 35/53/35 63/94/63 65/96/65
f 37/55/37 66/97/66 36/54/36
f 36/54/36 66/97/66 38/56/38
f 64/95/64 67/98/67 37/55/37
f 67/98/67 66/97/66 37/55/37
f 38/99/38 66/100/66 40/62/40
f 41/61/41 38/99/38 40/62/40
f 43/66/43 63/101/63 39/69/39
f 40/102/40 68/103/68 69/104/69
f 40/102/40 69/104/69 70/105/70
f 40/102/40 70/105/70 50/106/50
f 66/100/66 68/107/68 40/62/40
f 60/88/60 71/108/71 42/64/42
f 44/68/44 42/64/42 71/108/71
f 63/101/63 43/66/43 44/68/44
f 44/68/44 71/108/71 65/109/65
f 63/101/63 44/68/44 65/109/65
f 45/70/45 46/110/46 72/111/72
f 45/70/45 73/112/73 62/90/62
f 45/70/45 74/113/74 73/112/73
f 45/70/45 72/111/72 74/113/74
f 46/110/46 75/114/75 72/111/72
f 46/110/46 76/115/76 75/114/75
f 46/72/46 47/73/47 48/74/48
f 76/116/76 46/72/46 48/74/48
f 76/116/76 48/74/48 77/117/77
f 77/117/77 48/74/48 49/75/49
f 77/117/77 49/75/49 78/118/78
f 54/80/54 78/118/78 49/75/49
f 51/77/51 50/76/50 79/119/79
f 50/106/50 70/105/70 79/120/79
f 51/77/51 79/119/79 80/121/80
f 52/78/52 51/77/51 80/121/80
f 52/78/52 80/121/80 81/122/81
f 82/123/82 53/79/53 52/78/52
f 82/123/82 52/78/52 81/122/81
f 53/81/53 83/124/83 54/80/54
f 84/125/84 53/81/53 82/126/82
f 84/125/84 83/124/83 53/81/53
f 85/127/85 78/128/78 54/129/54
f 85/127/85 54/129/54 83/130/83
f 56/83/56 55/82/55 86/131/86
f 87/132/87 55/82/55 57/84/57
f 87/132/87 86/131/86 55/82/55
f 56/83/56 86/131/86 58/133/58
f 57/134/57 61/93/61 88/135/88
f 57/84/57 88/136/88 87/132/87
f 58/86/58 89/137/89 59/87/59
f 89/137/89 58/86/58 86/138/86
f 90/139/90 59/87/59 89/137/89
f 59/87/59 90/139/90 60/88/60
f 71/108/71 60/88/60 90/139/90
f 88/135/88 61/93/61 62/92/62
f 91/140/91 88/135/88 62/92/62
f 73/141/73 91/142/91 62/143/62
f 64/144/64 65/109/65 92/145/92
f 92/146/92 67/147/67 64/148/64
f 92/145/92 65/109/65 71/108/71
f 66/149/66 93/150/93 68/103/68
f 93/150/93 66/149/66 67/147/67
f 92/146/92 93/150/93 67/147/67
f 94/151/94 69/104/69 68/103/68
f 93/150/93 94/151/94 68/103/68
f 94/151/94 88/152/88 69/104/69
f 69/104/69 88/152/88 91/142/91
f 69/104/69 91/142/91 70/105/70
f 95/153/95 79/120/79 70/105/70
f 96/154/96 95/153/95 70/105/70
f 73/141/73 96/154/96 70/105/70
f 70/105/70 91/142/91 73/141/73
f 92/145/92 71/108/71 90/139/90
f 72/111/72 75/114/75 97/155/97
f 72/111/72 97/155/97 74/113/74
f 96/156/96 73/112/73 74/113/74
f 74/113/74 97/155/97 96/156/96
f 98/157/98 75/158/75 99/159/99
f 76/115/76 100/160/100 75/114/75
f 100/160/100 101/161/101 75/114/75
f 98/162/98 97/155/97 75/114/75
f 101/161/101 99/163/99 75/114/75
f 77/117/77 100/164/100 76/116/76
f 77/117/77 101/165/101 100/164/100
f 77/117/77 78/118/78 101/165/101
f 102/166/102 101/165/101 78/118/78
f 85/127/85 103/167/103 78/128/78
f 102/168/102 78/128/78 103/167/103
f 104/169/104 80/121/80 79/119/79
f 104/170/104 79/171/79 95/172/95
f 80/121/80 105/173/105 106/174/106
f 105/173/105 80/121/80 104/169/104
f 81/122/81 80/121/80 106/174/106
f 82/123/82 81/122/81 107/175/107
f 108/176/108 107/175/107 81/122/81
f 106/174/106 108/176/108 81/122/81
f 107/175/107 84/177/84 82/123/82
f 85/127/85 83/130/83 84/178/84
f 85/127/85 84/178/84 107/179/107
f 109/180/109 85/127/85 110/181/110
f 85/127/85 111/182/111 112/183/112
f 85/127/85 109/180/109 103/167/103
f 85/127/85 113/184/113 114/185/114
f 85/127/85 107/179/107 113/184/113
f 112/183/112 110/181/110 85/127/85
f 114/185/114 111/182/111 85/127/85
f 86/186/86 115/187/115 89/188/89
f 115/187/115 86/186/86 87/189/87
f 115/187/115 87/189/87 88/152/88
f 88/152/88 94/151/94 115/187/115
f 90/190/90 89/188/89 94/151/94
f 89/188/89 115/187/115 94/151/94
f 94/151/94 92/146/92 90/190/90
f 92/146/92 94/151/94 93/150/93
f 95/153/95 116/191/116 104/192/104
f 96/154/96 116/191/116 95/153/95
f 117/193/117 116/191/116 96/154/96
f 118/194/118 117/195/117 96/156/96
f 96/156/96 97/155/97 118/194/118
f 98/162/98 118/194/118 97/155/97
f 119/196/119 98/162/98 99/163/99
f 118/194/118 98/162/98 120/197/120
f 120/197/120 98/162/98 119/196/119
f 99/198/99 101/165/101 102/166/102
f 119/196/119 99/163/99 102/199/102
f 121/200/121 102/168/102 103/167/103
f 121/201/121 119/196/119 102/199/102
f 103/167/103 109/180/109 121/200/121
f 116/191/116 105/202/105 104/192/104
f 122/203/122 106/204/106 105/202/105
f 122/203/122 105/202/105 123/205/123
f 123/205/123 105/202/105 111/206/111
f 116/191/116 111/206/111 105/202/105
f 108/176/108 106/174/106 124/207/124
f 106/204/106 122/203/122 124/208/124
f 125/209/125 107/179/107 108/210/108
f 125/209/125 113/184/113 107/179/107
f 125/209/125 108/210/108 124/211/124
f 126/212/126 109/180/109 110/181/110
f 121/200/121 109/180/109 126/212/126
f 127/213/127 110/181/110 112/183/112
f 110/181/110 128/214/128 126/212/126
f 110/181/110 127/213/127 128/214/128
f 127/213/127 112/183/112 111/182/111
f 123/215/123 111/182/111 114/185/114
f 116/191/116 127/216/127 111/206/111
f 125/209/125 114/185/114 113/184/113
f 114/185/114 122/217/122 123/215/123
f 114/185/114 125/209/125 122/217/122
f 116/191/116 117/193/117 129/218/129
f 130/219/130 116/191/116 129/218/129
f 116/191/116 130/219/130 127/216/127
f 118/194/118 129/220/129 117/195/117
f 129/220/129 118/194/118 131/221/131
f 120/197/120 132/222/132 118/194/118
f 131/221/131 118/194/118 132/222/132
f 119/196/119 121/201/121 132/222/132
f 132/222/132 120/197/120 119/196/119
f 126/212/126 132/223/132 121/200/121
f 125/209/125 124/211/124 122/217/122
f 126/212/126 133/224/133 132/223/132
f 133/224/133 126/212/126 128/214/128
f 130/219/130 128/225/128 127/216/127
f 130/226/130 133/224/133 128/214/128
f 129/218/129 133/227/133 130/219/130
f 133/227/133 129/218/129 131/228/131
f 132/223/132 133/224/133 131/229/131
