# Blender v3.5.0 OBJ File: ''
# www.blender.org
mtllib patella_l.mtl
o patella_l
v 0.000000 0.052920 -0.000000
v 0.000000 0.050274 0.012600
v 0.005482 0.049127 0.007546
v 0.005758 0.047980 0.001871
v -0.004954 0.050979 0.006818
v 0.005758 0.047980 -0.001871
v 0.003895 0.049744 -0.005362
v 0.000000 0.051509 -0.007200
v -0.003367 0.051596 -0.004633
v -0.004046 0.051685 -0.001315
v -0.004046 0.051685 0.001315
v 0.000000 0.044982 0.021764
v -0.007935 0.043395 0.010922
v 0.010147 0.044365 0.013966
v 0.012139 0.043747 0.003944
v -0.004981 0.041807 0.001618
v 0.012139 0.043747 -0.003944
v 0.008993 0.046569 -0.012378
v 0.000000 0.049392 -0.017836
v -0.006781 0.045599 -0.009333
v -0.004981 0.041807 -0.001618
v 0.000000 0.035280 0.024709
v -0.008176 0.035015 0.011253
v -0.002957 0.034751 0.000961
v 0.012023 0.033957 0.016548
v 0.015407 0.032634 0.005006
v -0.002957 0.034751 -0.000961
v 0.015407 0.032634 -0.005006
v 0.012600 0.034927 -0.017343
v 0.000000 0.037220 -0.026673
v -0.008752 0.035986 -0.012047
v 0.000000 0.023814 0.021436
v -0.007358 0.025577 0.010128
v -0.003424 0.027342 0.001112
v -0.003424 0.027342 -0.001112
v 0.011013 0.023814 0.015158
v 0.015251 0.023814 0.004955
v -0.007935 0.025225 -0.010922
v 0.015251 0.023814 -0.004955
v 0.011590 0.023460 -0.015953
v 0.000000 0.023109 -0.023400
v 0.000000 0.018345 0.015546
v -0.007887 0.015435 0.010856
v -0.010738 0.012524 0.003489
v -0.010738 0.012524 -0.003489
v -0.008464 0.015171 -0.011650
v 0.008512 0.016493 0.011716
v 0.012761 0.014641 0.004146
v 0.000000 0.017816 -0.017509
v 0.012761 0.014641 -0.004146
v 0.009089 0.016229 -0.012511
v 0.000000 0.008643 0.013418
v -0.006925 0.007937 0.009531
v -0.009649 0.007232 0.003135
v -0.009649 0.007232 -0.003135
v -0.007551 0.007761 -0.010392
v 0.000000 0.008291 -0.015546
v 0.006925 0.008732 0.009531
v 0.009649 0.008820 0.003135
v 0.007551 0.008556 -0.010392
v 0.009649 0.008820 -0.003135
v 0.000000 0.004233 0.008182
v -0.004424 0.003616 0.006089
v -0.006536 0.002999 0.002124
v -0.006536 0.002999 -0.002124
v -0.005049 0.003087 -0.006950
v 0.000000 0.003174 -0.010309
v 0.004617 0.003440 -0.006355
v 0.003991 0.003969 0.005495
v 0.005135 0.003705 0.001669
v 0.005135 0.003705 -0.001669
v 0.000000 0.000000 0.000000
vt 0.797679 0.634833
vt 0.762766 0.763175
vt 0.722713 0.697688
vt 0.736734 0.640721
vt 0.828780 0.718673
vt 0.747461 0.603149
vt 0.775377 0.572157
vt 0.818964 0.563519
vt 0.845385 0.598775
vt 0.842653 0.633952
vt 0.835113 0.660358
vt 0.738911 0.858849
vt 0.850421 0.773578
vt 0.659625 0.752224
vt 0.050158 0.582803
vt 0.078903 0.519726
vt 0.078903 0.634868
vt 0.668629 0.646381
vt 0.179816 0.123168
vt 0.077235 0.128952
vt 0.111700 0.041976
vt 0.165264 0.021810
vt 0.691242 0.567182
vt 0.745732 0.489463
vt 0.850422 0.458195
vt 0.365686 0.000000
vt 0.265972 0.058782
vt 0.223719 0.008698
vt 0.189754 0.015616
vt 0.209949 0.115547
vt 0.916402 0.423973
vt 0.817125 0.458195
vt 0.910569 0.318051
vt 0.091231 0.215103
vt 0.000000 0.243946
vt 0.006468 0.138176
vt 0.209749 0.193465
vt 0.804721 0.343845
vt 0.898922 0.211846
vt 0.785525 0.218858
vt 0.893977 0.132287
vt 0.227646 0.188939
vt 0.779249 0.117876
vt 0.916402 0.054451
vt 0.793896 0.000000
vt 0.659625 0.509152
vt 0.643630 0.589296
vt 0.558948 0.458195
vt 0.491137 0.524545
vt 0.474263 0.103187
vt 0.303656 0.150354
vt 0.695565 0.430524
vt 0.125557 0.308585
vt 0.055242 0.353043
vt 0.222366 0.269304
vt 0.243075 0.264067
vt 0.697584 0.337293
vt 0.693479 0.222875
vt 0.319884 0.262612
vt 0.687267 0.122922
vt 0.674703 0.022103
vt 0.614896 0.701405
vt 0.474263 0.670084
vt 0.474263 0.254644
vt 0.351588 0.905947
vt 0.370058 0.824683
vt 0.474263 0.878486
vt 0.302003 0.750531
vt 0.138442 0.413626
vt 0.201249 0.425983
vt 0.266226 0.409551
vt 0.346136 0.363328
vt 0.466158 0.801152
vt 0.617768 0.312779
vt 0.596017 0.225750
vt 0.430840 0.322437
vt 0.590818 0.142117
vt 0.659625 0.841582
vt 0.591472 0.785649
vt 0.489232 0.748347
vt 0.389114 0.750059
vt 0.326016 0.697715
vt 0.220589 0.479040
vt 0.171050 0.486871
vt 0.278973 0.464275
vt 0.354294 0.441760
vt 0.433133 0.424091
vt 0.466010 0.733820
vt 0.534648 0.298666
vt 0.533028 0.226716
vt 0.569803 0.866944
vt 0.476717 0.845336
vt 0.529098 0.163477
vt 0.622699 0.900777
vt 0.302003 0.639554
vt 0.255266 0.590299
vt 0.302003 0.519726
vt 0.404810 0.680465
vt 0.364123 0.649313
vt 0.350102 0.607766
vt 0.309899 0.633946
vt 0.291891 0.509723
vt 0.252335 0.519726
vt 0.342939 0.497436
vt 0.395420 0.488550
vt 0.549912 0.935007
vt 0.489096 0.918671
vt 0.450368 0.665524
vt 0.480887 0.268145
vt 0.476356 0.226572
vt 0.104063 0.627073
vt 0.078903 0.588418
vt 0.104063 0.519726
vt 0.000000 0.571496
vt 0.050158 0.519726
vt 0.050158 0.609271
vt 0.474263 0.192905
vt 0.425075 0.587286
vt 0.357101 0.572265
vt 0.380079 0.535824
vt 0.436973 0.519726
vt 0.529021 1.000000
vt 0.576642 0.956227
vt 0.468763 0.634600
vt 0.474263 0.606703
vn 0.3668 0.9105 0.1912
vn 0.6682 0.7349 -0.1160
vn -0.1001 0.9737 0.2045
vn 0.6511 0.7590 0.0000
vn 0.6565 0.7537 0.0305
vn 0.4720 0.8651 -0.1695
vn -0.1204 0.9742 -0.1909
vn -0.2670 0.9603 -0.0804
vn -0.2919 0.9564 0.0000
vn -0.2674 0.9603 0.0791
vn 0.5404 0.7287 0.4208
vn -0.6505 0.6577 0.3798
vn -0.5998 0.5502 0.5810
vn 0.3466 0.8562 0.3832
vn 0.7696 0.6321 -0.0903
vn 0.5394 0.8402 0.0554
vn 0.5528 0.8333 0.0000
vn -0.9265 0.1877 -0.3262
vn -0.9845 0.0886 -0.1511
vn 0.5732 0.8127 0.1048
vn 0.5812 0.8119 0.0549
vn 0.4432 0.8927 -0.0819
vn 0.3922 0.9022 -0.1796
vn -0.1226 0.9734 -0.1937
vn -0.7170 0.6345 -0.2888
vn -0.7891 0.5881 -0.1773
vn -0.9607 0.0828 0.2649
vn -0.9956 0.0942 0.0000
vn 0.6015 0.2320 0.7644
vn -0.8456 0.1550 0.5108
vn -0.8093 0.0464 0.5855
vn -0.8918 0.0078 -0.4524
vn -0.9354 -0.2446 -0.2553
vn 0.5588 0.2932 0.7757
vn 0.9599 0.2170 0.1774
vn 0.9255 0.2949 0.2376
vn 0.9594 0.2821 0.0000
vn -0.9612 -0.2757 0.0000
vn 0.9234 0.2950 -0.2457
vn 0.9257 0.3490 -0.1458
vn 0.5614 0.4657 -0.6841
vn 0.5768 0.4799 -0.6610
vn -0.8021 0.3508 -0.4832
vn -0.8289 0.3028 -0.4704
vn -0.9530 0.1165 0.2796
vn -0.8758 -0.2108 0.4343
vn 0.5285 -0.2330 0.8163
vn -0.8393 -0.1492 0.5228
vn -0.8456 -0.1349 0.5165
vn -0.9139 -0.0310 -0.4048
vn -0.8904 0.0469 -0.4527
vn -0.9980 0.0629 0.0000
vn 0.4884 -0.1660 0.8567
vn 0.9466 -0.1344 0.2930
vn 0.9233 -0.0185 0.3835
vn 0.9998 -0.0177 0.0000
vn -0.9114 0.0491 0.4085
vn -0.8869 -0.0191 0.4615
vn 0.9742 -0.0185 -0.2251
vn 0.9430 -0.1206 -0.3100
vn 0.5710 -0.1482 -0.8075
vn 0.5347 -0.1909 -0.8232
vn -0.8474 -0.1200 -0.5172
vn -0.8469 -0.1185 -0.5184
vn 0.3616 -0.6832 0.6344
vn -0.1330 -0.7263 0.6744
vn -0.8293 0.0829 0.5526
vn -0.9395 0.0730 0.3347
vn -0.8723 0.3815 -0.3059
vn -0.8967 0.4426 0.0000
vn -0.8858 0.4532 -0.0998
vn -0.9099 0.0179 0.4145
vn 0.2695 -0.4836 0.8328
vn 0.8274 -0.4442 0.3437
vn 0.8113 -0.2661 0.5205
vn 0.9651 -0.2620 0.0000
vn -0.5856 0.0892 -0.8057
vn -0.7807 -0.4648 -0.4176
vn 0.9150 -0.2745 -0.2957
vn 0.7716 -0.4706 -0.4280
vn 0.4768 -0.5068 -0.7182
vn 0.2312 -0.7237 -0.6502
vn 0.3657 -0.1994 0.9091
vn -0.4658 -0.1896 0.8643
vn -0.4410 -0.2107 0.8724
vn -0.8964 -0.1861 0.4023
vn -0.8811 -0.2097 0.4238
vn -0.9795 -0.2016 0.0000
vn -0.9347 -0.2115 -0.2856
vn -0.9340 -0.1685 -0.3149
vn -0.5419 -0.2051 -0.8150
vn -0.5238 -0.1719 -0.8343
vn 0.4658 -0.3268 0.8224
vn 0.7949 -0.3095 0.5219
vn 0.8051 -0.4888 0.3361
vn 0.8819 -0.4715 0.0000
vn 0.5598 -0.1673 -0.8116
vn 0.4135 -0.3184 -0.8530
vn 0.7644 -0.4829 -0.4272
vn 0.9305 -0.2582 -0.2596
vn 0.3482 -0.7170 0.6039
vn -0.1943 -0.7503 0.6319
vn -0.2972 -0.6942 0.6556
vn -0.5959 -0.6823 0.4236
vn -0.7053 -0.6064 0.3672
vn -0.8056 -0.5925 0.0000
vn -0.7528 -0.6117 -0.2431
vn -0.7569 -0.5985 -0.2625
vn -0.4018 -0.6727 -0.6214
vn -0.3926 -0.6578 -0.6428
vn 0.5389 -0.6025 -0.5887
vn 0.4201 -0.6983 -0.5796
vn 0.3530 -0.7218 0.5952
vn 0.6896 -0.6659 0.2845
vn 0.6884 -0.6799 0.2527
vn 0.7498 -0.6617 0.0000
vn 0.8435 -0.5335 -0.0631
vn 0.7111 -0.6794 -0.1809
vn 0.2431 -0.8615 0.4457
vn -0.0931 -0.8843 0.4575
vn -0.3129 -0.8990 0.3065
vn -0.4170 -0.9089 0.0000
vn -0.3773 -0.9165 -0.1330
vn -0.1765 -0.9407 -0.2896
vn 0.2935 -0.9136 -0.2813
vn 0.5811 -0.8136 -0.0182
vn 0.5249 -0.8239 0.2138
vn 0.5851 -0.8109 0.0000
usemtl Material_with_Texture.200
s off
f 1/1/1 2/2/1 3/3/1
f 1/1/2 3/3/2 4/4/2
f 1/1/3 5/5/3 2/2/3
f 1/1/4 4/4/4 6/6/4
f 1/1/5 6/6/5 7/7/5
f 1/1/6 7/7/6 8/8/6
f 1/1/7 8/8/7 9/9/7
f 1/1/8 9/9/8 10/10/8
f 1/1/9 10/10/9 11/11/9
f 1/1/10 11/11/10 5/5/10
f 2/2/11 12/12/11 3/3/11
f 13/13/12 12/12/12 2/2/12
f 5/5/13 13/13/13 2/2/13
f 12/12/14 14/14/14 3/3/14
f 3/15/15 14/16/15 4/17/15
f 14/14/16 15/18/16 4/4/16
f 4/4/17 15/18/17 6/6/17
f 16/19/18 13/20/18 5/21/18
f 11/22/19 16/19/19 5/21/19
f 15/18/17 17/23/17 6/6/17
f 6/6/20 17/23/20 7/7/20
f 17/23/21 18/24/21 7/7/21
f 7/7/22 18/24/22 8/8/22
f 18/24/23 19/25/23 8/8/23
f 8/8/24 19/25/24 9/9/24
f 19/26/25 20/27/25 9/28/25
f 9/28/26 20/27/26 10/29/26
f 20/27/27 21/30/27 10/29/27
f 10/29/28 21/30/28 11/22/28
f 21/30/28 16/19/28 11/22/28
f 12/31/29 22/32/29 14/33/29
f 23/34/30 22/35/30 12/36/30
f 13/20/31 23/34/31 12/36/31
f 24/37/32 23/34/32 13/20/32
f 16/19/33 24/37/33 13/20/33
f 22/32/34 25/38/34 14/33/34
f 14/33/35 25/38/35 15/39/35
f 25/38/36 26/40/36 15/39/36
f 15/39/37 26/40/37 17/41/37
f 27/42/38 24/37/38 16/19/38
f 21/30/38 27/42/38 16/19/38
f 26/40/37 28/43/37 17/41/37
f 17/41/39 28/43/39 18/44/39
f 28/43/40 29/45/40 18/44/40
f 18/46/41 29/47/41 19/48/41
f 29/47/42 30/49/42 19/48/42
f 19/26/43 30/50/43 20/27/43
f 30/50/44 31/51/44 20/27/44
f 20/27/45 31/51/45 21/30/45
f 31/51/46 27/42/46 21/30/46
f 22/32/47 32/52/47 25/38/47
f 33/53/48 32/54/48 22/35/48
f 23/34/49 33/53/49 22/35/49
f 34/55/50 33/53/50 23/34/50
f 24/37/51 34/55/51 23/34/51
f 35/56/52 34/55/52 24/37/52
f 27/42/52 35/56/52 24/37/52
f 32/52/53 36/57/53 25/38/53
f 25/38/54 36/57/54 26/40/54
f 36/57/55 37/58/55 26/40/55
f 26/40/56 37/58/56 28/43/56
f 38/59/57 35/56/57 27/42/57
f 31/51/58 38/59/58 27/42/58
f 37/58/56 39/60/56 28/43/56
f 28/43/59 39/60/59 29/45/59
f 39/60/60 40/61/60 29/45/60
f 29/47/61 40/62/61 30/49/61
f 40/62/62 41/63/62 30/49/62
f 30/50/63 41/64/63 31/51/63
f 41/64/64 38/59/64 31/51/64
f 32/65/65 42/66/65 36/67/65
f 43/68/66 42/66/66 32/65/66
f 33/53/67 43/69/67 32/54/67
f 44/70/68 43/69/68 33/53/68
f 34/55/69 44/70/69 33/53/69
f 45/71/70 44/70/70 34/55/70
f 35/56/70 45/71/70 34/55/70
f 46/72/71 45/71/71 35/56/71
f 38/59/72 46/72/72 35/56/72
f 42/66/73 47/73/73 36/67/73
f 36/57/74 47/74/74 37/58/74
f 47/74/75 48/75/75 37/58/75
f 37/58/76 48/75/76 39/60/76
f 49/76/77 46/72/77 38/59/77
f 41/64/78 49/76/78 38/59/78
f 48/75/76 50/77/76 39/60/76
f 39/60/79 50/77/79 40/61/79
f 50/78/80 51/79/80 40/62/80
f 40/62/81 51/79/81 41/63/81
f 51/79/82 49/80/82 41/63/82
f 42/66/83 52/81/83 47/73/83
f 53/82/84 52/81/84 42/66/84
f 43/68/85 53/82/85 42/66/85
f 54/83/86 53/84/86 43/69/86
f 44/70/87 54/83/87 43/69/87
f 55/85/88 54/83/88 44/70/88
f 45/71/88 55/85/88 44/70/88
f 56/86/89 55/85/89 45/71/89
f 46/72/90 56/86/90 45/71/90
f 57/87/91 56/86/91 46/72/91
f 49/76/92 57/87/92 46/72/92
f 52/81/93 58/88/93 47/73/93
f 47/74/94 58/89/94 48/75/94
f 58/89/95 59/90/95 48/75/95
f 48/75/96 59/90/96 50/77/96
f 60/91/97 57/92/97 49/80/97
f 51/79/98 60/91/98 49/80/98
f 59/90/96 61/93/96 50/77/96
f 50/78/99 61/94/99 51/79/99
f 61/95/100 60/96/100 51/97/100
f 52/81/101 62/98/101 58/88/101
f 63/99/102 62/98/102 52/81/102
f 53/82/103 63/99/103 52/81/103
f 64/100/104 63/99/104 53/82/104
f 54/101/105 64/100/105 53/82/105
f 65/102/106 64/103/106 54/83/106
f 55/85/106 65/102/106 54/83/106
f 66/104/107 65/102/107 55/85/107
f 56/86/108 66/104/108 55/85/108
f 67/105/109 66/104/109 56/86/109
f 57/87/110 67/105/110 56/86/110
f 68/106/111 67/107/111 57/92/111
f 60/91/112 68/106/112 57/92/112
f 62/98/113 69/108/113 58/88/113
f 58/89/114 69/109/114 59/90/114
f 69/109/115 70/110/115 59/90/115
f 59/90/116 70/110/116 61/93/116
f 71/111/117 68/112/117 60/113/117
f 61/114/118 71/115/118 60/116/118
f 70/110/116 71/117/116 61/93/116
f 62/98/119 72/118/119 69/108/119
f 63/99/120 72/118/120 62/98/120
f 64/100/121 72/118/121 63/99/121
f 65/119/122 72/118/122 64/100/122
f 66/120/123 72/118/123 65/119/123
f 67/121/124 72/118/124 66/120/124
f 68/106/125 72/122/125 67/107/125
f 71/123/126 72/122/126 68/106/126
f 69/108/127 72/118/127 70/124/127
f 70/124/128 72/118/128 71/125/128
