# Blender 4.3.0
# www.blender.org
mtllib patella_l.mtl
o patella_l
v 0.000000 0.052920 -0.000000
v 0.000000 0.050274 0.012600
v 0.005482 0.049127 0.007546
v 0.005758 0.047980 0.001871
v -0.004954 0.050979 0.006818
v 0.005758 0.047980 -0.001871
v 0.003895 0.049744 -0.005362
v 0.000000 0.051509 -0.007200
v -0.003367 0.051596 -0.004633
v -0.004046 0.051685 -0.001315
v -0.004046 0.051685 0.001315
v 0.000000 0.044982 0.021764
v -0.007935 0.043395 0.010922
v 0.010147 0.044365 0.013966
v 0.012139 0.043747 0.003944
v -0.004981 0.041807 0.001618
v 0.012139 0.043747 -0.003944
v 0.008993 0.046569 -0.012378
v 0.000000 0.049392 -0.017836
v -0.006781 0.045599 -0.009333
v -0.004981 0.041807 -0.001618
v 0.000000 0.035280 0.024709
v -0.008176 0.035015 0.011253
v -0.002957 0.034751 0.000961
v 0.012023 0.033957 0.016548
v 0.015407 0.032634 0.005006
v -0.002957 0.034751 -0.000961
v 0.015407 0.032634 -0.005006
v 0.012600 0.034927 -0.017343
v 0.000000 0.037220 -0.026673
v -0.008752 0.035986 -0.012047
v 0.000000 0.023814 0.021436
v -0.007358 0.025577 0.010128
v -0.003424 0.027342 0.001112
v -0.003424 0.027342 -0.001112
v 0.011013 0.023814 0.015158
v 0.015251 0.023814 0.004955
v -0.007935 0.025225 -0.010922
v 0.015251 0.023814 -0.004955
v 0.011590 0.023460 -0.015953
v 0.000000 0.023109 -0.023400
v 0.000000 0.018345 0.015546
v -0.007887 0.015435 0.010856
v -0.010738 0.012524 0.003489
v -0.010738 0.012524 -0.003489
v -0.008464 0.015171 -0.011650
v 0.008512 0.016493 0.011716
v 0.012761 0.014641 0.004146
v 0.000000 0.017816 -0.017509
v 0.012761 0.014641 -0.004146
v 0.009089 0.016229 -0.012511
v 0.000000 0.008643 0.013418
v -0.006925 0.007937 0.009531
v -0.009649 0.007232 0.003135
v -0.009649 0.007232 -0.003135
v -0.007551 0.007761 -0.010392
v 0.000000 0.008291 -0.015546
v 0.006925 0.008732 0.009531
v 0.009649 0.008820 0.003135
v 0.007551 0.008556 -0.010392
v 0.009649 0.008820 -0.003135
v 0.000000 0.004233 0.008182
v -0.004424 0.003616 0.006089
v -0.006536 0.002999 0.002124
v -0.006536 0.002999 -0.002124
v -0.005049 0.003087 -0.006950
v 0.000000 0.003174 -0.010309
v 0.004617 0.003440 -0.006355
v 0.003991 0.003969 0.005495
v 0.005135 0.003705 0.001669
v 0.005135 0.003705 -0.001669
v 0.000000 0.000000 0.000000
vn 0.1844 0.9828 -0.0066
vn -0.0208 0.8897 0.4561
vn 0.5907 0.7998 0.1069
vn 0.6271 0.7783 -0.0317
vn -0.6986 0.7005 0.1458
vn 0.6010 0.7984 0.0381
vn 0.5394 0.8416 -0.0292
vn 0.1652 0.9702 -0.1773
vn -0.4936 0.8464 -0.2001
vn -0.7414 0.6710 -0.0070
vn -0.7466 0.6653 -0.0093
vn -0.1430 0.5592 0.8166
vn -0.9582 0.2355 0.1625
vn 0.7184 0.5600 0.4128
vn 0.8126 0.5782 0.0735
vn -0.9868 -0.0812 -0.1398
vn 0.8305 0.5535 -0.0625
vn 0.6847 0.6578 -0.3139
vn -0.1302 0.7811 -0.6107
vn -0.9283 0.3525 -0.1180
vn -0.9819 -0.0525 0.1817
vn -0.1818 0.0265 0.9830
vn -0.9967 -0.0123 0.0801
vn -0.9773 -0.0770 -0.1975
vn 0.8011 0.0571 0.5958
vn 0.9813 0.1162 0.1533
vn -0.9719 -0.1013 0.2122
vn 0.9849 0.1353 -0.1078
vn 0.8211 0.1557 -0.5491
vn -0.1612 0.1935 -0.9678
vn -0.9936 0.0437 -0.1043
vn -0.1752 -0.4119 0.8942
vn -0.9885 0.0722 0.1327
vn -0.9573 0.2196 -0.1879
vn -0.9668 0.2010 0.1576
vn 0.6997 -0.3351 0.6310
vn 0.9622 -0.1668 0.2153
vn -0.9951 -0.0611 -0.0775
vn 0.9773 -0.1552 -0.1445
vn 0.7476 -0.3013 -0.5918
vn -0.2178 -0.4364 -0.8730
vn 0.0537 -0.5443 0.8371
vn -0.7766 -0.1220 0.6181
vn -0.9881 0.0389 0.1486
vn -0.9878 0.0989 -0.1206
vn -0.8547 0.0331 -0.5181
vn 0.6128 -0.3739 0.6962
vn 0.8994 -0.3601 0.2476
vn -0.2207 -0.4714 -0.8539
vn 0.8933 -0.4014 -0.2020
vn 0.6403 -0.4580 -0.6167
vn -0.0004 -0.4816 0.8764
vn -0.6340 -0.4424 0.6342
vn -0.8866 -0.4139 0.2064
vn -0.8996 -0.4131 -0.1418
vn -0.7130 -0.4260 -0.5569
vn 0.0259 -0.4495 -0.8929
vn 0.6117 -0.5338 0.5838
vn 0.8016 -0.5769 0.1571
vn 0.7104 -0.4790 -0.5157
vn 0.8200 -0.5552 -0.1392
vn 0.0821 -0.8105 0.5800
vn -0.3473 -0.8033 0.4839
vn -0.5951 -0.7823 0.1839
vn -0.6244 -0.7748 -0.0987
vn -0.4829 -0.7988 -0.3589
vn 0.0742 -0.8193 -0.5686
vn 0.6021 -0.7536 -0.2637
vn 0.4800 -0.7812 0.3992
vn 0.6504 -0.7502 0.1186
vn 0.6817 -0.7308 -0.0357
vn 0.0857 -0.9937 0.0721
vt 0.797679 0.634833
vt 0.762766 0.763175
vt 0.722713 0.697688
vt 0.736734 0.640721
vt 0.828780 0.718673
vt 0.747461 0.603149
vt 0.775377 0.572157
vt 0.818964 0.563519
vt 0.845385 0.598775
vt 0.842653 0.633952
vt 0.835113 0.660358
vt 0.738911 0.858849
vt 0.850421 0.773578
vt 0.659625 0.752224
vt 0.050158 0.582803
vt 0.078903 0.519726
vt 0.078903 0.634868
vt 0.668629 0.646381
vt 0.179816 0.123168
vt 0.077235 0.128952
vt 0.111700 0.041976
vt 0.165264 0.021810
vt 0.691242 0.567182
vt 0.745732 0.489463
vt 0.850422 0.458195
vt 0.365686 0.000000
vt 0.265972 0.058782
vt 0.223719 0.008698
vt 0.189754 0.015616
vt 0.209949 0.115547
vt 0.916402 0.423973
vt 0.817125 0.458195
vt 0.910569 0.318051
vt 0.091231 0.215103
vt 0.000000 0.243946
vt 0.006468 0.138176
vt 0.209749 0.193465
vt 0.804721 0.343845
vt 0.898922 0.211846
vt 0.785525 0.218858
vt 0.893977 0.132287
vt 0.227646 0.188939
vt 0.779249 0.117876
vt 0.916402 0.054451
vt 0.793896 0.000000
vt 0.659625 0.509152
vt 0.643630 0.589296
vt 0.558948 0.458195
vt 0.491137 0.524545
vt 0.474263 0.103187
vt 0.303656 0.150354
vt 0.695565 0.430524
vt 0.125557 0.308585
vt 0.055242 0.353043
vt 0.222366 0.269304
vt 0.243075 0.264067
vt 0.697584 0.337293
vt 0.693479 0.222875
vt 0.319884 0.262612
vt 0.687267 0.122922
vt 0.674703 0.022103
vt 0.614896 0.701405
vt 0.474263 0.670084
vt 0.474263 0.254644
vt 0.351588 0.905947
vt 0.370058 0.824683
vt 0.474263 0.878486
vt 0.302003 0.750531
vt 0.138442 0.413626
vt 0.201249 0.425983
vt 0.266226 0.409551
vt 0.346136 0.363328
vt 0.466158 0.801152
vt 0.617768 0.312779
vt 0.596017 0.225750
vt 0.430840 0.322437
vt 0.590818 0.142117
vt 0.659625 0.841582
vt 0.591472 0.785649
vt 0.489232 0.748347
vt 0.389114 0.750059
vt 0.326016 0.697715
vt 0.220589 0.479040
vt 0.171050 0.486871
vt 0.278973 0.464275
vt 0.354294 0.441760
vt 0.433133 0.424091
vt 0.466010 0.733820
vt 0.534648 0.298666
vt 0.533028 0.226716
vt 0.569803 0.866944
vt 0.476717 0.845336
vt 0.529098 0.163477
vt 0.622699 0.900777
vt 0.302003 0.639554
vt 0.255266 0.590299
vt 0.302003 0.519726
vt 0.404810 0.680465
vt 0.364123 0.649313
vt 0.350102 0.607766
vt 0.309899 0.633946
vt 0.291891 0.509723
vt 0.252335 0.519726
vt 0.342939 0.497436
vt 0.395420 0.488550
vt 0.549912 0.935007
vt 0.489096 0.918671
vt 0.450368 0.665524
vt 0.480887 0.268145
vt 0.476356 0.226572
vt 0.104063 0.627073
vt 0.078903 0.588418
vt 0.104063 0.519726
vt 0.000000 0.571496
vt 0.050158 0.519726
vt 0.050158 0.609271
vt 0.474263 0.192905
vt 0.425075 0.587286
vt 0.357101 0.572265
vt 0.380079 0.535824
vt 0.436973 0.519726
vt 0.529021 1.000000
vt 0.576642 0.956227
vt 0.468763 0.634600
vt 0.474263 0.606703
s 1
usemtl Material_with_Texture.200
f 1/1/1 2/2/2 3/3/3
f 1/1/1 3/3/3 4/4/4
f 1/1/1 5/5/5 2/2/2
f 1/1/1 4/4/4 6/6/6
f 1/1/1 6/6/6 7/7/7
f 1/1/1 7/7/7 8/8/8
f 1/1/1 8/8/8 9/9/9
f 1/1/1 9/9/9 10/10/10
f 1/1/1 10/10/10 11/11/11
f 1/1/1 11/11/11 5/5/5
f 2/2/2 12/12/12 3/3/3
f 13/13/13 12/12/12 2/2/2
f 5/5/5 13/13/13 2/2/2
f 12/12/12 14/14/14 3/3/3
f 3/15/3 14/16/14 4/17/4
f 14/14/14 15/18/15 4/4/4
f 4/4/4 15/18/15 6/6/6
f 16/19/16 13/20/13 5/21/5
f 11/22/11 16/19/16 5/21/5
f 15/18/15 17/23/17 6/6/6
f 6/6/6 17/23/17 7/7/7
f 17/23/17 18/24/18 7/7/7
f 7/7/7 18/24/18 8/8/8
f 18/24/18 19/25/19 8/8/8
f 8/8/8 19/25/19 9/9/9
f 19/26/19 20/27/20 9/28/9
f 9/28/9 20/27/20 10/29/10
f 20/27/20 21/30/21 10/29/10
f 10/29/10 21/30/21 11/22/11
f 21/30/21 16/19/16 11/22/11
f 12/31/12 22/32/22 14/33/14
f 23/34/23 22/35/22 12/36/12
f 13/20/13 23/34/23 12/36/12
f 24/37/24 23/34/23 13/20/13
f 16/19/16 24/37/24 13/20/13
f 22/32/22 25/38/25 14/33/14
f 14/33/14 25/38/25 15/39/15
f 25/38/25 26/40/26 15/39/15
f 15/39/15 26/40/26 17/41/17
f 27/42/27 24/37/24 16/19/16
f 21/30/21 27/42/27 16/19/16
f 26/40/26 28/43/28 17/41/17
f 17/41/17 28/43/28 18/44/18
f 28/43/28 29/45/29 18/44/18
f 18/46/18 29/47/29 19/48/19
f 29/47/29 30/49/30 19/48/19
f 19/26/19 30/50/30 20/27/20
f 30/50/30 31/51/31 20/27/20
f 20/27/20 31/51/31 21/30/21
f 31/51/31 27/42/27 21/30/21
f 22/32/22 32/52/32 25/38/25
f 33/53/33 32/54/32 22/35/22
f 23/34/23 33/53/33 22/35/22
f 34/55/34 33/53/33 23/34/23
f 24/37/24 34/55/34 23/34/23
f 35/56/35 34/55/34 24/37/24
f 27/42/27 35/56/35 24/37/24
f 32/52/32 36/57/36 25/38/25
f 25/38/25 36/57/36 26/40/26
f 36/57/36 37/58/37 26/40/26
f 26/40/26 37/58/37 28/43/28
f 38/59/38 35/56/35 27/42/27
f 31/51/31 38/59/38 27/42/27
f 37/58/37 39/60/39 28/43/28
f 28/43/28 39/60/39 29/45/29
f 39/60/39 40/61/40 29/45/29
f 29/47/29 40/62/40 30/49/30
f 40/62/40 41/63/41 30/49/30
f 30/50/30 41/64/41 31/51/31
f 41/64/41 38/59/38 31/51/31
f 32/65/32 42/66/42 36/67/36
f 43/68/43 42/66/42 32/65/32
f 33/53/33 43/69/43 32/54/32
f 44/70/44 43/69/43 33/53/33
f 34/55/34 44/70/44 33/53/33
f 45/71/45 44/70/44 34/55/34
f 35/56/35 45/71/45 34/55/34
f 46/72/46 45/71/45 35/56/35
f 38/59/38 46/72/46 35/56/35
f 42/66/42 47/73/47 36/67/36
f 36/57/36 47/74/47 37/58/37
f 47/74/47 48/75/48 37/58/37
f 37/58/37 48/75/48 39/60/39
f 49/76/49 46/72/46 38/59/38
f 41/64/41 49/76/49 38/59/38
f 48/75/48 50/77/50 39/60/39
f 39/60/39 50/77/50 40/61/40
f 50/78/50 51/79/51 40/62/40
f 40/62/40 51/79/51 41/63/41
f 51/79/51 49/80/49 41/63/41
f 42/66/42 52/81/52 47/73/47
f 53/82/53 52/81/52 42/66/42
f 43/68/43 53/82/53 42/66/42
f 54/83/54 53/84/53 43/69/43
f 44/70/44 54/83/54 43/69/43
f 55/85/55 54/83/54 44/70/44
f 45/71/45 55/85/55 44/70/44
f 56/86/56 55/85/55 45/71/45
f 46/72/46 56/86/56 45/71/45
f 57/87/57 56/86/56 46/72/46
f 49/76/49 57/87/57 46/72/46
f 52/81/52 58/88/58 47/73/47
f 47/74/47 58/89/58 48/75/48
f 58/89/58 59/90/59 48/75/48
f 48/75/48 59/90/59 50/77/50
f 60/91/60 57/92/57 49/80/49
f 51/79/51 60/91/60 49/80/49
f 59/90/59 61/93/61 50/77/50
f 50/78/50 61/94/61 51/79/51
f 61/95/61 60/96/60 51/97/51
f 52/81/52 62/98/62 58/88/58
f 63/99/63 62/98/62 52/81/52
f 53/82/53 63/99/63 52/81/52
f 64/100/64 63/99/63 53/82/53
f 54/101/54 64/100/64 53/82/53
f 65/102/65 64/103/64 54/83/54
f 55/85/55 65/102/65 54/83/54
f 66/104/66 65/102/65 55/85/55
f 56/86/56 66/104/66 55/85/55
f 67/105/67 66/104/66 56/86/56
f 57/87/57 67/105/67 56/86/56
f 68/106/68 67/107/67 57/92/57
f 60/91/60 68/106/68 57/92/57
f 62/98/62 69/108/69 58/88/58
f 58/89/58 69/109/69 59/90/59
f 69/109/69 70/110/70 59/90/59
f 59/90/59 70/110/70 61/93/61
f 71/111/71 68/112/68 60/113/60
f 61/114/61 71/115/71 60/116/60
f 70/110/70 71/117/71 61/93/61
f 62/98/62 72/118/72 69/108/69
f 63/99/63 72/118/72 62/98/62
f 64/100/64 72/118/72 63/99/63
f 65/119/65 72/118/72 64/100/64
f 66/120/66 72/118/72 65/119/65
f 67/121/67 72/118/72 66/120/66
f 68/106/68 72/122/72 67/107/67
f 71/123/71 72/122/72 68/106/68
f 69/108/69 72/118/72 70/124/70
f 70/124/70 72/118/72 71/125/71
