# Blender v3.5.0 OBJ File: ''
# www.blender.org
mtllib pelvis.mtl
o pelvis
v -0.045919 -0.070017 0.069408
v -0.062417 -0.062953 0.055540
v -0.062448 -0.071901 0.057002
v -0.047413 -0.050859 0.081192
v -0.057682 -0.053884 0.064535
v -0.080483 -0.072644 0.062249
v -0.087329 -0.064967 0.065912
v -0.084750 -0.081351 0.070701
v -0.076977 -0.066999 0.055770
v -0.094784 -0.078564 0.080703
v -0.075725 -0.050801 0.059263
v -0.077690 -0.044275 0.065884
v -0.084509 -0.048300 0.064622
v -0.070202 -0.044831 0.065144
v -0.089862 -0.054217 0.072831
v -0.091591 -0.050185 0.089785
v -0.085142 -0.053865 0.060240
v -0.078795 -0.058398 0.056620
v -0.071624 -0.058301 0.055727
v -0.067026 -0.053924 0.056784
v -0.097661 -0.060940 0.092403
v -0.048881 -0.048842 0.096234
v -0.061698 -0.040081 0.089113
v -0.061428 -0.046106 0.069411
v -0.065351 -0.049490 0.061383
v -0.072428 -0.040380 0.077771
v -0.088044 -0.048933 0.100261
v -0.045061 0.043864 0.123584
v -0.028267 -0.009664 0.112591
v -0.018107 0.019491 0.132935
v -0.063048 -0.006570 0.099770
v -0.008839 -0.013896 0.121746
v -0.001073 0.011410 0.128095
v -0.016222 0.038473 0.132645
v -0.042118 0.051224 0.132586
v -0.042675 0.072014 0.119140
v -0.065829 0.083022 0.103489
v -0.077514 0.027034 0.079831
v -0.063704 0.089931 0.100713
v -0.105118 0.082413 0.073602
v -0.086810 0.093832 0.076345
v -0.097580 0.072126 0.071741
v -0.127064 0.049844 0.068258
v -0.101925 -0.005538 0.073290
v -0.140045 0.047838 0.057869
v -0.132189 0.020569 0.063785
v -0.135709 0.025433 0.056811
v -0.142756 0.037853 0.055989
v -0.140283 0.027057 0.051667
v -0.121831 0.074797 0.061410
v -0.134095 0.010597 0.055875
v -0.120259 -0.006688 0.063216
v -0.130339 -0.000991 0.057141
v -0.058937 -0.031863 0.062129
v -0.083712 0.011709 0.060801
v -0.036015 -0.018197 0.095127
v -0.029562 -0.031117 0.096830
v -0.045607 -0.037891 0.078833
v -0.095264 -0.012132 0.070120
v -0.104359 0.010080 0.050771
v -0.097172 0.024295 0.055110
v -0.134140 0.009515 0.055856
v -0.118896 0.021691 0.059151
v -0.068605 0.091887 0.085194
v -0.056939 0.031117 0.098576
v -0.082516 0.044380 0.066276
v -0.023835 -0.009300 0.106864
v 0.000000 0.000000 0.118718
v -0.001184 0.011484 0.127749
v -0.008366 0.022010 0.122779
v -0.026130 0.046823 0.120518
v -0.084245 0.065990 0.059553
v -0.080521 0.089270 0.070947
v -0.099933 0.080171 0.058907
v -0.110783 0.041488 0.052254
v -0.142567 0.036860 0.050538
v -0.130442 0.036093 0.043881
v -0.137764 0.052955 0.051671
v -0.135777 0.025181 0.056779
v -0.101184 0.087329 0.067624
v -0.121330 0.055186 0.048853
v -0.065047 -0.095889 0.019016
v -0.106712 -0.111791 0.036161
v -0.096303 -0.102807 0.040325
v -0.046878 -0.072892 0.002407
v -0.026301 -0.071631 0.004815
v -0.025062 -0.079029 0.002221
v -0.055663 -0.097839 -0.000351
v -0.055379 -0.082850 0.001799
v -0.062757 -0.090507 0.019243
v -0.055601 -0.064625 0.037258
v -0.072771 -0.117347 0.025230
v -0.092129 -0.120870 0.035677
v -0.131818 -0.075844 0.069124
v -0.135738 -0.096931 0.060259
v -0.119191 -0.101490 0.069475
v -0.135611 -0.084397 0.054166
v -0.098898 -0.090770 0.050130
v -0.114308 -0.115077 0.052030
v -0.118362 -0.066696 0.067764
v -0.111746 -0.086624 0.072478
v -0.126944 -0.070428 0.061559
v -0.110855 -0.059933 0.067604
v -0.125353 -0.054405 0.052960
v -0.089373 -0.030293 0.066890
v -0.102557 -0.079412 0.071675
v -0.105344 -0.063815 0.075543
v -0.080788 -0.075604 0.049913
v -0.100969 -0.048285 0.084058
v -0.054641 -0.074427 0.051754
v -0.062492 -0.055190 0.052861
v -0.052625 -0.067426 0.044255
v -0.059916 -0.027590 0.099000
v -0.041877 -0.045942 0.088833
v -0.088158 -0.031197 0.092581
v -0.071333 -0.042764 0.104575
v -0.031563 -0.083550 0.016874
v -0.041830 -0.065559 0.060295
v -0.043487 -0.047599 0.064706
v -0.043358 -0.059739 0.041738
v -0.021941 -0.075541 0.023867
v -0.054177 -0.102026 0.005631
v -0.036276 -0.072749 0.036449
v -0.052737 -0.076823 0.059980
v -0.059231 -0.032040 0.061986
vt 0.852227 0.585061
vt 0.925457 0.604847
vt 0.906980 0.626067
vt 0.871032 0.513224
vt 0.916301 0.560234
vt 0.052783 0.879991
vt 0.087626 0.875617
vt 0.056120 0.922882
vt 0.047817 0.849367
vt 0.096227 0.946743
vt 0.122909 0.815457
vt 0.132426 0.786702
vt 0.151456 0.803887
vt 0.113586 0.783965
vt 0.187758 0.801680
vt 0.219947 0.753771
vt 0.000000 0.850912
vt 0.014067 0.826323
vt 0.151381 0.827174
vt 0.181552 0.840119
vt 0.068159 0.832248
vt 0.096227 0.834858
vt 0.115457 0.837423
vt 0.134642 0.841009
vt 0.950309 0.582044
vt 0.954674 0.599309
vt 0.253115 0.776167
vt 0.245328 0.841009
vt 0.951936 0.677674
vt 0.966928 0.635887
vt 0.966928 0.717065
vt 0.374356 0.725280
vt 0.374356 0.839417
vt 0.355326 0.793925
vt 0.910344 0.480982
vt 0.853500 0.481122
vt 0.930987 0.533366
vt 0.100344 0.799561
vt 0.100954 0.821641
vt 0.946972 0.560363
vt 0.138023 0.745776
vt 0.133829 0.709970
vt 0.230232 0.723397
vt 0.952922 0.511226
vt 0.960378 0.544761
vt 0.047724 0.823744
vt 0.971859 0.575945
vt 0.242245 0.460910
vt 0.418907 0.389542
vt 0.360422 0.498453
vt 0.348290 0.299297
vt 0.466583 0.441247
vt 0.396160 0.904405
vt 0.436205 0.886838
vt 0.436205 0.980732
vt 0.954544 0.052281
vt 0.993212 0.000000
vt 0.981566 0.099885
vt 0.939943 0.184144
vt 0.229963 0.498453
vt 0.993212 0.247573
vt 0.085818 0.429512
vt 0.218087 0.271967
vt 0.990481 0.329266
vt 0.162241 0.494198
vt 0.067815 0.436417
vt 0.010463 0.284501
vt 0.007845 0.340702
vt 0.051404 0.279274
vt 0.067365 0.185540
vt 0.270488 0.165599
vt 0.047452 0.133840
vt 0.141934 0.124078
vt 0.118828 0.107621
vt 0.071180 0.110258
vt 0.104331 0.089099
vt 0.000000 0.213707
vt 0.163975 0.087391
vt 0.239718 0.106083
vt 0.204183 0.080986
vt 0.578124 0.364539
vt 0.628390 0.205020
vt 0.712721 0.408760
vt 0.699548 0.455560
vt 0.622565 0.422658
vt 0.348773 0.638156
vt 0.260955 0.632099
vt 0.348773 0.498453
vt 0.573482 0.157912
vt 0.622041 0.141113
vt 0.261338 0.689651
vt 0.342274 0.719447
vt 0.324130 0.755905
vt 0.299044 0.781208
vt 0.548838 0.927062
vt 0.591571 0.899522
vt 0.591571 0.961716
vt 0.345135 0.668311
vt 0.866617 0.059307
vt 0.790804 0.247325
vt 0.708387 0.131333
vt 0.774353 0.422483
vt 0.853324 0.458635
vt 0.819861 0.478574
vt 0.895370 0.436508
vt 0.895268 0.391008
vt 0.396160 0.972589
vt 0.369998 0.925315
vt 0.396160 0.886838
vt 0.915370 0.291374
vt 0.939943 0.343937
vt 0.939943 0.194104
vt 0.904812 0.089243
vt 0.734253 0.067383
vt 0.812306 0.027987
vt 0.739488 0.000000
vt 0.631220 0.068204
vt 0.652393 0.921080
vt 0.591571 0.882153
vt 0.652393 0.847769
vt 0.292323 0.957303
vt 0.260955 0.957303
vt 0.268641 0.911927
vt 0.892140 0.938825
vt 0.889475 0.992008
vt 0.870828 0.951463
vt 0.928469 0.978622
vt 0.595673 0.108111
vt 0.573867 0.034091
vt 0.870828 0.956290
vt 0.815801 0.903684
vt 0.870828 0.897460
vt 0.784551 0.956485
vt 0.771555 0.907789
vt 0.784551 0.897460
vt 0.353988 0.961807
vt 0.307578 0.935350
vt 0.353988 0.911927
vt 0.900125 0.767813
vt 0.886707 0.843249
vt 0.876798 0.782973
vt 0.928469 0.792553
vt 0.896790 0.717605
vt 0.923163 0.723661
vt 0.815801 0.964621
vt 0.792506 0.939354
vt 0.815801 0.897460
vt 0.825009 0.009334
vt 0.636387 0.009603
vt 0.926429 0.906488
vt 0.553958 0.847770
vt 0.620589 0.626340
vt 0.658285 0.775118
vt 0.618767 0.750993
vt 0.100344 0.935360
vt 0.130942 0.890144
vt 0.153299 0.904363
vt 0.157302 0.992372
vt 0.369998 0.886838
vt 0.369998 0.949810
vt 0.354096 0.915395
vt 0.658285 0.564676
vt 0.604921 0.615586
vt 0.497270 0.610082
vt 0.616490 0.551610
vt 0.583594 0.522680
vt 0.034678 0.619360
vt 0.014150 0.738292
vt 0.000000 0.665141
vt 0.284100 0.911927
vt 0.290744 0.834977
vt 0.353504 0.846393
vt 0.260955 0.860519
vt 0.055083 0.498453
vt 0.100344 0.506488
vt 0.576631 0.847769
vt 0.718345 0.865988
vt 0.770275 0.939780
vt 0.736198 0.976352
vt 0.003639 0.575508
vt 0.353988 0.781208
vt 0.895379 0.693728
vt 0.852227 0.696392
vt 0.872787 0.626067
vt 0.951802 0.626067
vt 0.951936 0.656877
vt 0.920250 0.668922
vt 0.418996 0.035966
vt 0.411263 0.058834
vt 0.365014 0.004683
vt 0.497270 0.561575
vt 0.388389 0.637926
vt 0.483199 0.498452
vt 0.920250 0.696392
vt 0.903222 0.626744
vt 0.435161 0.082650
vt 0.482958 0.056396
vt 0.718345 0.840194
vt 0.718345 1.000000
vt 0.658285 0.994269
vt 0.447258 0.141554
vt 0.497270 0.093650
vt 0.401228 0.133149
vt 0.497270 0.725280
vt 0.497270 0.956395
vt 0.436205 0.929116
vt 0.497270 0.886838
vt 0.830531 0.598389
vt 0.771555 0.619972
vt 0.800872 0.580319
vt 0.591571 0.969598
vt 0.607666 0.921080
vt 0.616150 0.969598
vt 0.471403 0.318786
vt 0.413871 0.273527
vt 0.490894 0.256021
vt 0.422128 0.384295
vt 0.376219 0.201283
vt 0.210601 0.924795
vt 0.157301 0.950794
vt 0.180011 0.841009
vt 0.298684 0.160806
vt 0.431575 0.195078
vt 0.442402 0.244761
vt 0.382298 0.885719
vt 0.395151 0.859324
vt 0.428293 0.886838
vt 0.770275 0.840194
vt 0.548838 0.970048
vt 0.497270 0.911650
vt 0.548838 0.847769
vt 0.658285 0.811846
vt 0.696054 0.773738
vt 0.771555 0.840194
vt 0.529879 0.480982
vt 0.573814 0.437221
vt 0.634283 0.460024
vt 0.230544 0.589344
vt 0.199770 0.565512
vt 0.260955 0.498453
vt 0.981235 0.471158
vt 0.939943 0.351644
vt 0.981235 0.329266
vt 0.558469 0.480982
vt 0.077384 0.820686
vt 0.100344 0.823744
vt 0.433592 0.725280
vt 0.464009 0.814290
vt 0.374356 0.769338
vt 0.497270 0.778013
vt 0.986645 0.845813
vt 0.963218 0.922430
vt 0.933456 0.834005
vt 0.928469 0.760615
vt 0.661315 0.743314
vt 0.702216 0.697958
vt 0.721399 0.614886
vt 0.771555 0.630234
vt 0.779033 0.578869
vt 0.821159 0.480982
vt 0.852227 0.604743
vt 0.157302 0.841009
vt 0.377598 0.824484
vt 0.494623 0.886838
vt 0.838079 0.836193
vt 0.870828 0.897460
vt 0.781237 0.848241
vt 0.834290 0.818060
vt 0.986645 0.717605
vt 0.771555 0.746910
vt 0.981235 0.341600
vt 0.997742 0.329266
vt 0.997742 0.435086
vt 0.178889 0.626780
vt 0.248628 0.686617
vt 0.100344 0.610599
vt 0.497270 0.445175
vt 0.210601 0.871846
vt 0.253391 0.841009
vt 0.248417 0.900950
vt 0.253391 0.964161
vt 0.577031 0.364251
vt 0.388389 0.498453
vt 0.388389 0.637544
vt 0.356133 0.541923
vt 0.108019 0.686617
vt 0.870828 0.717605
vt 0.353988 0.897750
vt 0.951936 0.717065
vt 0.210601 0.995171
vt 0.388389 0.637544
vt 0.388389 0.719768
vt 0.350760 0.677475
vt 0.190579 0.686617
vt 0.157637 0.868418
vt 0.748356 0.593709
vt 0.705306 0.500281
vt 0.735014 0.480982
vt 0.870955 0.626067
vt 0.806439 0.675077
vt 0.852227 0.717605
vt 0.413132 0.000000
vt 0.971859 0.531092
vt 0.996594 0.480982
vt 0.990187 0.544021
vt 0.996594 0.650024
vt 0.873061 0.984990
vt 0.071711 0.096011
vn -0.6046 0.1305 0.7858
vn -0.7519 -0.3870 0.5338
vn 0.6899 0.3010 0.6584
vn 0.6955 0.3113 0.6476
vn 0.7142 0.2976 0.6335
vn 0.2516 -0.6509 0.7162
vn 0.0169 -0.7096 0.7044
vn 0.5260 -0.8147 -0.2442
vn 0.6915 -0.6837 0.2331
vn -0.0292 0.1613 0.9865
vn 0.9364 -0.0052 0.3509
vn 0.6121 0.2608 0.7465
vn 0.7055 0.0795 0.7042
vn 0.1198 -0.3690 0.9217
vn -0.0653 -0.1689 0.9835
vn 0.9220 -0.0981 0.3745
vn 0.9791 0.1965 0.0531
vn 0.8405 -0.3805 0.3857
vn -0.9953 -0.0195 -0.0945
vn -0.5830 -0.8108 0.0518
vn -0.6213 -0.6086 0.4935
vn -0.4918 -0.8345 0.2484
vn -0.0541 -0.7089 0.7032
vn -0.5561 -0.4879 0.6729
vn 0.2359 -0.9514 -0.1980
vn -0.2685 -0.9222 0.2783
vn -0.5852 -0.3962 0.7075
vn -0.5744 -0.6152 0.5400
vn -0.3601 -0.7836 0.5063
vn -0.2690 -0.9222 0.2777
vn 0.0174 -0.0058 0.9998
vn 0.1242 -0.0716 0.9897
vn 0.2764 -0.6138 0.7395
vn 0.2222 -0.3992 0.8895
vn 0.4883 -0.8699 0.0689
vn 0.4352 -0.8994 -0.0399
vn 0.8263 -0.5194 -0.2177
vn 0.1328 -0.3623 0.9225
vn -0.0670 -0.6680 0.7411
vn 0.8796 -0.3520 0.3199
vn -0.5628 -0.3320 0.7569
vn -0.3535 -0.2933 0.8882
vn -0.4606 -0.3944 0.7952
vn 0.1369 -0.2804 0.9501
vn 0.2681 -0.0119 0.9633
vn 0.0050 0.0148 0.9999
vn -0.6408 -0.4783 0.6005
vn 0.2589 0.5294 0.8079
vn -0.7810 -0.0977 0.6169
vn -0.8599 -0.2196 0.4607
vn -0.3003 0.5123 0.8046
vn -0.3499 0.4399 0.8271
vn -0.4804 0.6215 0.6188
vn -0.5178 -0.5044 0.6910
vn -0.6111 0.4497 0.6514
vn -0.1857 0.0929 0.9782
vn -0.6679 -0.1671 0.7253
vn -0.8043 0.0063 0.5942
vn -0.5415 0.2442 0.8045
vn -0.2355 -0.0186 0.9717
vn -0.6239 -0.0102 0.7815
vn -0.8683 -0.4861 0.0992
vn -0.7462 -0.3876 0.5412
vn -0.5865 0.0067 0.8099
vn -0.6495 0.3249 0.6874
vn 0.0118 -0.1696 0.9854
vn -0.6209 0.3259 0.7129
vn -0.9179 -0.1236 0.3771
vn -0.7313 -0.3325 0.5954
vn -0.5500 -0.0875 0.8305
vn -0.4707 -0.1344 0.8720
vn -0.2091 -0.1118 0.9715
vn 0.6842 0.3699 -0.6285
vn 0.6757 0.2459 -0.6950
vn 0.7955 0.1061 -0.5966
vn -0.3167 -0.2083 -0.9254
vn 0.4327 0.0559 -0.8998
vn 0.3376 -0.7461 -0.5739
vn 0.0903 -0.6473 -0.7568
vn -0.1624 -0.1775 -0.9706
vn -0.2131 0.3822 -0.8992
vn -0.5016 -0.0932 -0.8601
vn 0.3477 -0.7624 -0.5458
vn 0.7869 0.0152 -0.6169
vn 0.7961 0.0716 -0.6010
vn 0.6012 0.1982 -0.7741
vn 0.5339 -0.4898 -0.6892
vn 0.8368 0.3891 -0.3851
vn 0.7521 -0.3578 0.5535
vn 0.6795 0.3340 -0.6532
vn 0.5475 0.2873 -0.7859
vn 0.3969 0.1391 -0.9072
vn 0.4692 0.2590 -0.8442
vn 0.5994 -0.0607 -0.7982
vn 0.8491 0.5026 -0.1626
vn 0.7936 0.5431 -0.2744
vn 0.8037 0.5112 -0.3047
vn 0.8013 0.5091 -0.3141
vn 0.7092 0.6917 -0.1368
vn 0.8828 -0.0737 -0.4640
vn 0.3628 0.3622 -0.8586
vn 0.4512 -0.2320 -0.8617
vn 0.4213 0.1861 -0.8876
vn -0.1443 -0.2723 -0.9513
vn -0.4807 -0.2100 -0.8514
vn -0.9504 0.2913 -0.1093
vn -0.4620 0.1987 -0.8643
vn 0.4517 -0.4529 -0.7687
vn -0.0622 -0.7491 -0.6595
vn -0.2909 0.7864 0.5450
vn 0.1538 0.0741 -0.9853
vn -0.5581 0.7825 0.2762
vn -0.2518 0.7299 -0.6355
vn 0.0275 0.7791 -0.6263
vn -0.5370 0.7899 0.2961
vn 0.0534 0.9927 0.1082
vn 0.2875 0.8701 -0.4003
vn -0.8288 0.5413 0.1419
vn 0.2181 0.1978 -0.9557
vn 0.2827 -0.0205 -0.9590
vn -0.2125 0.5231 -0.8254
vn -0.2033 0.3365 -0.9195
vn -0.1593 0.4388 -0.8844
vn 0.3770 0.0608 -0.9242
vn 0.4848 0.1273 -0.8653
vn 0.7330 0.2009 -0.6499
vn 0.0289 0.7745 -0.6319
vn 0.4698 0.3297 -0.8189
vn -0.4739 0.7573 -0.4493
vn 0.0884 0.3427 -0.9353
vn 0.0204 0.1028 -0.9945
vn -0.0972 0.1431 -0.9849
vn -0.7242 0.5175 -0.4558
vn -0.9996 0.0214 -0.0173
vn -0.7091 0.6253 -0.3258
vn -0.3385 -0.5013 -0.7963
vn -0.5225 -0.2461 0.8164
vn -0.9766 0.1019 0.1894
vn -0.6961 -0.3082 -0.6484
vn -0.0760 0.4904 -0.8682
vn 0.0253 0.6346 -0.7724
vn -0.6721 -0.5923 -0.4444
vn -0.4645 -0.7570 0.4596
vn -0.0475 0.2150 0.9755
vn -0.5287 0.8136 0.2419
vn -0.4806 0.5496 0.6833
vn 0.2089 0.2365 -0.9489
vn -0.1436 0.1824 0.9727
vn -0.0564 0.1812 0.9818
vn -0.8480 -0.2653 0.4589
vn -0.2658 -0.4352 -0.8602
vn -0.7973 -0.4188 0.4347
vn -0.9116 0.0320 0.4099
vn 0.1115 0.3671 -0.9235
vn 0.0662 0.0842 -0.9942
vn -0.8113 -0.3023 -0.5004
vn -0.7558 -0.6520 0.0605
vn 0.0071 -0.4793 0.8776
vn 0.0159 -0.4212 0.9068
vn -0.1819 -0.0631 0.9813
vn -0.2129 -0.0674 0.9747
vn 0.4688 -0.0283 0.8829
vn -0.6390 0.4748 0.6052
vn -0.4151 -0.6992 0.5821
vn -0.7608 0.2068 0.6152
vn -0.7501 0.2587 0.6087
vn -0.3577 0.3691 0.8578
vn -0.7854 0.3266 0.5257
vn -0.8976 0.2746 0.3449
vn -0.0971 -0.9797 0.1756
vn -0.0144 0.4747 -0.8801
vn -0.2121 0.2398 -0.9474
vn 0.5252 -0.8505 -0.0294
vn 0.9912 0.1095 -0.0737
vn -0.0381 0.7255 -0.6872
vn 0.3465 0.9313 0.1118
vn -0.0316 0.9707 -0.2382
vn 0.0554 -0.8115 -0.5818
vn -0.3294 -0.6315 -0.7019
vn 0.7323 -0.4225 0.5341
vn 0.6713 -0.3757 0.6389
vn 0.5790 -0.0751 0.8119
vn 0.4875 -0.1102 0.8661
vn 0.2954 -0.8046 0.5151
vn 0.9755 0.0306 0.2180
vn 0.6470 -0.6381 0.4174
vn -0.6374 -0.7697 -0.0370
vn -0.8335 -0.2739 -0.4798
vn -0.5222 -0.8436 -0.1249
vn 0.6238 -0.7808 0.0359
vn 0.9594 0.2217 -0.1741
vn 0.7270 -0.4660 0.5044
vn 0.6388 -0.7641 -0.0895
vn -0.0717 -0.8873 0.4556
vn 0.5738 -0.6803 0.4561
vn 0.7546 -0.0831 0.6509
vn 0.6630 -0.3108 0.6810
vn 0.5568 0.0398 0.8297
vn 0.2051 -0.6796 0.7043
vn 0.6794 -0.5111 -0.5265
vn -0.2896 0.3860 -0.8759
vn 0.9934 0.1037 -0.0493
vn 0.8878 0.4550 0.0696
vn 0.6650 0.0593 0.7445
vn 0.9403 0.3296 -0.0854
vn 0.6907 0.6402 -0.3363
vn -0.1260 0.8233 -0.5535
vn 0.7625 -0.3346 -0.5538
vn -0.1523 0.1250 -0.9804
vn -0.1334 0.3255 -0.9361
vn -0.3939 0.3846 -0.8348
vn 0.6910 0.6407 -0.3348
vn 0.1921 -0.5959 0.7798
vn -0.4946 -0.7732 -0.3969
vn -0.4456 0.8432 -0.3008
vn -0.2114 -0.0907 0.9732
vn -0.6647 0.1786 0.7255
vn -0.8145 0.5679 -0.1182
vn -0.7127 -0.2862 0.6405
vn -0.2522 0.4952 0.8314
vn -0.0379 -0.9445 0.3263
vn -0.6858 -0.2997 0.6632
vn 0.1920 0.6335 0.7495
vn 0.1747 0.6936 0.6989
vn -0.3701 -0.8486 -0.3779
vn 0.3355 -0.9409 0.0458
vn 0.4135 0.6440 0.6436
vn 0.7164 -0.5070 0.4793
vn 0.9078 -0.3449 0.2386
vn -0.4780 -0.5109 0.7145
vn 0.7185 -0.6953 -0.0177
vn 0.0504 -0.9650 -0.2572
vn 0.0636 -0.9541 -0.2926
vn -0.6447 0.4102 0.6450
vn -0.8344 -0.0651 0.5474
vn -0.1345 -0.9769 -0.1662
vn -0.0507 -0.9935 -0.1023
vn -0.2222 0.5217 -0.8237
vn -0.8217 0.3680 -0.4352
vn -0.9576 0.2757 -0.0834
vn -0.9741 -0.2261 0.0074
usemtl Material_with_Texture.202
s off
f 1/1/1 2/2/1 3/3/1
f 4/4/2 5/5/2 1/1/2
f 6/6/3 7/7/3 8/8/3
f 9/9/4 7/7/4 6/6/4
f 8/8/5 7/7/5 10/10/5
f 11/11/6 12/12/6 13/13/6
f 12/12/7 11/11/7 14/14/7
f 12/12/8 15/15/8 13/13/8
f 15/15/9 12/12/9 16/16/9
f 3/17/10 2/18/10 9/9/10
f 17/19/11 15/15/11 7/20/11
f 18/21/12 17/22/12 7/7/12
f 18/21/13 7/7/13 9/9/13
f 19/23/14 11/11/14 18/24/14
f 20/25/15 19/26/15 2/2/15
f 7/20/16 21/27/16 10/28/16
f 15/29/17 16/30/17 7/31/17
f 7/20/18 16/16/18 21/27/18
f 1/32/19 22/33/19 4/34/19
f 23/35/20 4/4/20 22/36/20
f 24/37/21 5/5/21 4/4/21
f 24/37/22 4/4/22 23/35/22
f 25/38/23 11/11/23 20/39/23
f 25/40/24 20/25/24 5/5/24
f 26/41/25 23/42/25 27/43/25
f 26/44/26 24/37/26 23/35/26
f 20/25/27 2/2/27 5/5/27
f 25/40/28 5/5/28 24/37/28
f 14/45/29 25/40/29 24/37/29
f 14/45/30 24/37/30 26/44/30
f 19/46/31 9/9/31 2/18/31
f 19/46/32 18/21/32 9/9/32
f 17/19/33 11/11/33 13/13/33
f 18/24/34 11/11/34 17/19/34
f 16/16/35 12/12/35 26/41/35
f 26/41/36 27/43/36 16/16/36
f 16/16/37 27/43/37 21/27/37
f 20/39/38 11/11/38 19/23/38
f 14/45/39 11/47/39 25/40/39
f 13/13/40 15/15/40 17/19/40
f 28/48/41 29/49/41 30/50/41
f 31/51/42 29/49/42 28/48/42
f 32/52/43 30/50/43 29/49/43
f 33/53/44 30/54/44 32/55/44
f 30/56/45 33/57/45 34/58/45
f 35/59/46 30/56/46 34/58/46
f 35/60/47 28/48/47 30/50/47
f 35/59/48 34/58/48 36/61/48
f 37/62/49 38/63/49 28/48/49
f 35/60/50 37/62/50 28/48/50
f 37/64/51 35/59/51 36/61/51
f 37/62/52 36/65/52 39/66/52
f 40/67/53 37/62/53 41/68/53
f 40/67/54 42/69/54 37/62/54
f 41/68/55 37/62/55 39/66/55
f 42/69/56 43/70/56 38/63/56
f 37/62/57 42/69/57 38/63/57
f 31/51/58 28/48/58 38/63/58
f 44/71/59 31/51/59 38/63/59
f 44/71/60 38/63/60 43/70/60
f 45/72/61 46/73/61 43/70/61
f 47/74/62 46/73/62 48/75/62
f 49/76/63 47/74/63 48/75/63
f 48/75/64 46/73/64 45/72/64
f 50/77/65 43/70/65 40/67/65
f 40/67/66 43/70/66 42/69/66
f 50/77/67 45/72/67 43/70/67
f 51/78/68 46/73/68 47/74/68
f 51/78/69 52/79/69 46/73/69
f 53/80/70 52/79/70 51/78/70
f 52/79/71 44/71/71 43/70/71
f 43/70/72 46/73/72 52/79/72
f 54/81/73 55/82/73 56/83/73
f 56/83/74 57/84/74 58/85/74
f 56/83/75 58/85/75 54/81/75
f 59/86/76 55/87/76 54/88/76
f 60/89/77 61/90/77 55/82/77
f 60/91/78 55/87/78 52/92/78
f 60/91/79 52/92/79 53/93/79
f 62/94/80 60/91/80 53/93/80
f 60/95/81 63/96/81 61/97/81
f 44/98/82 55/87/82 59/86/82
f 52/92/83 55/87/83 44/98/83
f 64/99/84 65/100/84 66/101/84
f 65/100/85 55/82/85 66/101/85
f 57/84/86 56/83/86 67/102/86
f 68/103/87 32/104/87 67/102/87
f 69/105/88 68/103/88 70/106/88
f 32/107/89 68/108/89 69/109/89
f 55/82/90 65/100/90 56/83/90
f 56/83/91 65/100/91 67/102/91
f 67/102/92 65/100/92 68/103/92
f 70/106/93 65/100/93 71/110/93
f 71/110/94 65/100/94 64/99/94
f 69/105/95 70/106/95 34/111/95
f 34/111/96 70/106/96 71/110/96
f 36/112/97 34/111/97 71/110/97
f 36/112/98 71/110/98 64/99/98
f 36/112/99 64/99/99 39/113/99
f 66/101/100 72/114/100 64/99/100
f 73/115/101 72/114/101 74/116/101
f 75/117/102 72/114/102 66/101/102
f 61/90/103 75/117/103 66/101/103
f 61/118/104 63/119/104 75/120/104
f 49/121/105 76/122/105 77/123/105
f 78/124/106 76/125/106 45/126/106
f 76/125/107 78/124/107 77/127/107
f 75/117/108 63/128/108 77/129/108
f 77/130/109 63/131/109 79/132/109
f 77/133/110 49/134/110 79/135/110
f 63/136/111 62/137/111 79/138/111
f 80/139/112 50/140/112 40/141/112
f 80/139/113 74/142/113 50/140/113
f 41/143/114 73/144/114 80/139/114
f 41/143/115 80/139/115 40/141/115
f 39/145/116 64/146/116 41/147/116
f 73/115/117 41/148/117 64/99/117
f 78/124/118 45/126/118 50/140/118
f 74/116/119 72/114/119 81/149/119
f 75/117/120 81/149/120 72/114/120
f 81/150/121 78/124/121 50/140/121
f 77/127/122 78/124/122 81/150/122
f 62/151/123 63/96/123 60/95/123
f 77/129/124 81/149/124 75/117/124
f 61/90/125 66/101/125 55/82/125
f 64/99/126 72/114/126 73/115/126
f 80/139/127 73/144/127 74/142/127
f 70/106/128 68/103/128 65/100/128
f 82/152/129 83/153/129 84/154/129
f 85/155/130 86/156/130 87/157/130
f 88/158/131 85/155/131 87/157/131
f 85/159/132 88/160/132 89/161/132
f 88/162/133 90/163/133 91/164/133
f 89/165/134 88/162/134 91/164/134
f 91/164/135 85/166/135 89/165/135
f 83/167/136 92/168/136 93/169/136
f 94/170/137 95/171/137 96/172/137
f 97/173/138 95/171/138 94/170/138
f 83/167/139 95/174/139 97/175/139
f 83/153/140 97/176/140 84/154/140
f 97/177/141 98/178/141 84/179/141
f 95/174/142 83/167/142 99/180/142
f 95/171/143 99/181/143 96/172/143
f 100/182/144 94/183/144 101/184/144
f 100/185/145 102/186/145 94/187/145
f 100/188/146 103/189/146 104/190/146
f 105/191/147 104/192/147 59/193/147
f 100/182/148 101/184/148 103/194/148
f 103/194/149 101/184/149 106/195/149
f 107/196/150 103/189/150 106/197/150
f 108/198/151 102/199/151 104/200/151
f 21/201/152 107/196/152 10/202/152
f 109/203/153 107/196/153 21/201/153
f 105/191/154 108/204/154 104/192/154
f 110/205/155 108/206/155 111/207/155
f 110/208/156 111/209/156 112/210/156
f 112/211/157 111/212/157 91/213/157
f 57/214/158 113/215/158 114/216/158
f 67/217/159 113/215/159 57/214/159
f 31/51/160 113/215/160 67/217/160
f 115/218/161 113/215/161 31/51/161
f 113/219/162 116/220/162 114/221/162
f 115/218/163 31/51/163 59/222/163
f 31/51/164 44/71/164 59/222/164
f 109/203/165 21/201/165 27/223/165
f 115/218/166 109/203/166 27/223/166
f 115/218/167 27/223/167 116/224/167
f 109/203/168 115/218/168 59/222/168
f 109/203/169 59/222/169 103/189/169
f 10/225/170 106/226/170 8/227/170
f 98/178/171 97/177/171 102/228/171
f 108/229/172 98/230/172 102/231/172
f 87/232/173 117/233/173 88/234/173
f 118/235/174 119/236/174 114/237/174
f 91/238/175 120/239/175 121/240/175
f 91/241/176 121/242/176 86/243/176
f 91/164/177 86/244/177 85/166/177
f 122/245/178 92/168/178 88/246/178
f 83/167/179 88/246/179 92/168/179
f 99/247/180 98/248/180 96/249/180
f 84/250/181 98/248/181 99/247/181
f 84/251/182 99/252/182 93/253/182
f 93/253/183 92/254/183 84/251/183
f 121/255/184 123/256/184 117/233/184
f 117/233/185 123/256/185 118/257/185
f 118/257/186 124/258/186 117/233/186
f 91/259/187 117/260/187 112/210/187
f 112/210/188 117/260/188 110/208/188
f 110/208/189 117/260/189 124/261/189
f 121/255/190 117/233/190 87/232/190
f 121/262/191 87/157/191 86/156/191
f 96/249/192 98/248/192 101/263/192
f 98/248/193 108/264/193 8/227/193
f 98/248/194 8/227/194 106/226/194
f 101/263/195 98/248/195 106/226/195
f 82/265/196 92/266/196 122/267/196
f 90/268/197 82/265/197 122/267/197
f 82/269/198 84/251/198 92/254/198
f 90/268/199 122/267/199 117/270/199
f 122/271/200 88/272/200 117/273/200
f 111/274/201 108/275/201 125/276/201
f 120/277/202 119/236/202 118/235/202
f 120/278/203 118/279/203 123/280/203
f 120/278/204 123/280/204 121/281/204
f 114/237/205 119/236/205 58/85/205
f 58/85/206 119/236/206 125/282/206
f 111/274/207 120/239/207 91/238/207
f 114/237/208 58/85/208 57/84/208
f 59/283/209 125/284/209 105/285/209
f 125/276/210 108/275/210 105/286/210
f 111/274/211 125/276/211 120/239/211
f 125/282/212 119/236/212 120/277/212
f 91/287/213 90/268/213 117/270/213
f 99/180/214 83/167/214 93/169/214
f 88/162/215 83/153/215 82/152/215
f 94/170/216 96/172/216 101/288/216
f 103/189/217 59/222/217 104/190/217
f 94/187/218 102/186/218 97/289/218
f 107/196/219 106/197/219 10/202/219
f 113/219/220 115/290/220 116/220/220
f 14/14/221 26/41/221 12/12/221
f 1/1/222 5/5/222 2/2/222
f 3/17/223 6/6/223 8/8/223
f 6/6/224 3/17/224 9/9/224
f 22/291/225 116/292/225 23/293/225
f 27/43/226 23/42/226 116/294/226
f 114/221/227 116/220/227 22/295/227
f 1/296/228 114/297/228 22/298/228
f 114/297/229 1/296/229 118/257/229
f 3/3/230 124/299/230 1/1/230
f 1/296/231 124/258/231 118/257/231
f 108/300/232 124/261/232 8/301/232
f 110/208/233 124/261/233 108/300/233
f 104/190/234 102/302/234 100/188/234
f 107/196/235 109/203/235 103/189/235
f 67/303/236 32/304/236 29/305/236
f 31/306/237 67/303/237 29/305/237
f 50/140/238 74/142/238 81/150/238
f 90/163/239 88/162/239 82/152/239
f 45/126/240 76/125/240 48/307/240
f 48/75/241 76/308/241 49/76/241
