# Blender 4.3.0
# www.blender.org
mtllib pendulum.mtl
o pendulum
v -0.100000 0.015000 -0.000000
v 0.100000 0.015000 -0.000000
v 0.100000 0.007500 -0.012990
v -0.100000 0.007500 -0.012990
v 0.100000 -0.007500 -0.012990
v -0.100000 -0.007500 -0.012990
v 0.100000 -0.015000 0.000000
v -0.100000 -0.015000 0.000000
v 0.100000 -0.007500 0.012990
v -0.100000 -0.007500 0.012990
v 0.100000 0.007500 0.012990
v -0.100000 0.007500 0.012990
v -0.100000 0.015000 -0.000000
v -0.100000 0.007500 -0.012990
v -0.100000 -0.007500 -0.012990
v -0.100000 -0.015000 0.000000
v -0.100000 -0.007500 0.012990
v -0.100000 0.007500 0.012990
v 0.100000 0.007500 0.012990
v 0.100000 -0.007500 0.012990
v 0.100000 -0.015000 0.000000
v 0.100000 -0.007500 -0.012990
v 0.100000 0.007500 -0.012990
v 0.100000 0.015000 -0.000000
v 0.015000 0.000000 0.100000
v 0.015000 -0.000000 -0.100000
v 0.007500 0.012990 -0.100000
v 0.007500 0.012990 0.100000
v -0.007500 0.012990 -0.100000
v -0.007500 0.012990 0.100000
v -0.015000 -0.000000 -0.100000
v -0.015000 0.000000 0.100000
v -0.007500 -0.012990 -0.100000
v -0.007500 -0.012990 0.100000
v 0.007500 -0.012990 -0.100000
v 0.007500 -0.012990 0.100000
v 0.015000 0.000000 0.100000
v 0.007500 0.012990 0.100000
v -0.007500 0.012990 0.100000
v -0.015000 0.000000 0.100000
v -0.007500 -0.012990 0.100000
v 0.007500 -0.012990 0.100000
v 0.007500 -0.012990 -0.100000
v -0.007500 -0.012990 -0.100000
v -0.015000 -0.000000 -0.100000
v -0.007500 0.012990 -0.100000
v 0.007500 0.012990 -0.100000
v 0.015000 -0.000000 -0.100000
v 0.020000 0.500000 -0.000000
v 0.020000 0.000000 0.000000
v 0.010000 -0.000000 -0.017321
v 0.010000 0.500000 -0.017321
v -0.010000 -0.000000 -0.017321
v -0.010000 0.500000 -0.017321
v -0.020000 0.000000 0.000000
v -0.020000 0.500000 -0.000000
v -0.010000 0.000000 0.017321
v -0.010000 0.500000 0.017320
v 0.010000 0.000000 0.017321
v 0.010000 0.500000 0.017320
v 0.020000 0.500000 -0.000000
v 0.010000 0.500000 -0.017321
v -0.010000 0.500000 -0.017321
v -0.020000 0.500000 -0.000000
v -0.010000 0.500000 0.017320
v 0.010000 0.500000 0.017320
v 0.010000 0.000000 0.017321
v -0.010000 0.000000 0.017321
v -0.020000 0.000000 0.000000
v -0.010000 -0.000000 -0.017321
v 0.010000 -0.000000 -0.017321
v 0.020000 0.000000 0.000000
v 0.032541 0.000000 0.067573
v 0.026326 0.019127 0.067573
v 0.000000 0.000000 0.075000
v 0.010056 0.030949 0.067573
v -0.010056 0.030949 0.067573
v -0.026326 0.019127 0.067573
v -0.032541 0.000000 0.067573
v -0.026326 -0.019127 0.067573
v -0.010056 -0.030949 0.067573
v 0.010056 -0.030949 0.067573
v 0.026326 -0.019127 0.067573
v 0.032541 -0.000000 -0.067573
v 0.000000 -0.000000 -0.075000
v 0.026326 0.019127 -0.067573
v 0.010056 0.030949 -0.067573
v -0.010056 0.030949 -0.067573
v -0.026326 0.019127 -0.067573
v -0.032541 -0.000000 -0.067573
v -0.026326 -0.019127 -0.067573
v -0.010056 -0.030949 -0.067573
v 0.010056 -0.030949 -0.067573
v 0.026326 -0.019127 -0.067573
v 0.058637 0.000000 0.046762
v 0.047439 0.034466 0.046762
v 0.073120 0.000000 0.016689
v 0.059155 0.042979 0.016689
v 0.073120 -0.000000 -0.016689
v 0.059155 0.042979 -0.016689
v 0.058637 -0.000000 -0.046762
v 0.047439 0.034466 -0.046762
v 0.018120 0.055767 0.046762
v 0.022595 0.069541 0.016689
v 0.022595 0.069541 -0.016689
v 0.018120 0.055767 -0.046762
v -0.018120 0.055767 0.046762
v -0.022595 0.069541 0.016689
v -0.022595 0.069541 -0.016689
v -0.018120 0.055767 -0.046762
v -0.047439 0.034466 0.046762
v -0.059155 0.042979 0.016689
v -0.059155 0.042979 -0.016689
v -0.047439 0.034466 -0.046762
v -0.058637 0.000000 0.046762
v -0.073120 0.000000 0.016689
v -0.073120 -0.000000 -0.016689
v -0.058637 -0.000000 -0.046762
v -0.047439 -0.034466 0.046762
v -0.059155 -0.042979 0.016689
v -0.059155 -0.042979 -0.016689
v -0.047439 -0.034466 -0.046762
v -0.018120 -0.055767 0.046762
v -0.022595 -0.069541 0.016689
v -0.022595 -0.069541 -0.016689
v -0.018120 -0.055767 -0.046762
v 0.018120 -0.055767 0.046762
v 0.022595 -0.069541 0.016689
v 0.022595 -0.069541 -0.016689
v 0.018120 -0.055767 -0.046762
v 0.047439 -0.034466 0.046762
v 0.059155 -0.042979 0.016689
v 0.059155 -0.042979 -0.016689
v 0.047439 -0.034466 -0.046762
vn -0.0000 1.0000 -0.0000
vn -0.0000 0.5000 -0.8660
vn -0.0000 -0.5000 -0.8660
vn -0.0000 -1.0000 -0.0000
vn -0.0000 -0.5000 0.8660
vn -0.0000 0.5000 0.8660
vn -1.0000 -0.0000 -0.0000
vn 1.0000 -0.0000 -0.0000
vn 0.5000 0.8660 -0.0000
vn -0.5000 0.8660 -0.0000
vn -0.5000 -0.8660 -0.0000
vn 0.5000 -0.8660 -0.0000
vn -0.0000 -0.0000 1.0000
vn -0.0000 -0.0000 -1.0000
vn 0.5000 -0.0000 -0.8660
vn -0.5000 -0.0000 -0.8660
vn -0.5000 -0.0000 0.8660
vn 0.5000 -0.0000 0.8660
vn 0.4685 -0.0000 0.8835
vn 0.3790 0.2754 0.8835
vn 0.1448 0.4456 0.8834
vn -0.1448 0.4456 0.8835
vn -0.3790 0.2754 0.8835
vn -0.4685 -0.0000 0.8835
vn -0.3790 -0.2754 0.8835
vn -0.1448 -0.4456 0.8834
vn 0.1448 -0.4456 0.8835
vn 0.3790 -0.2754 0.8835
vn 0.4685 -0.0000 -0.8835
vn 0.3790 0.2754 -0.8835
vn 0.1448 0.4456 -0.8835
vn -0.1448 0.4456 -0.8834
vn -0.3790 0.2754 -0.8835
vn -0.4685 -0.0000 -0.8835
vn -0.3790 -0.2754 -0.8835
vn -0.1448 -0.4456 -0.8835
vn 0.1448 -0.4456 -0.8834
vn 0.3790 -0.2754 -0.8835
vn 0.7978 -0.0000 0.6029
vn 0.6455 0.4690 0.6029
vn 0.9769 -0.0000 0.2136
vn 0.7903 0.5742 0.2136
vn 0.9769 -0.0000 -0.2136
vn 0.7903 0.5742 -0.2136
vn 0.7978 -0.0000 -0.6029
vn 0.6455 0.4690 -0.6029
vn 0.2465 0.7588 0.6029
vn 0.3019 0.9291 0.2136
vn 0.3019 0.9291 -0.2136
vn 0.2465 0.7588 -0.6029
vn -0.2465 0.7588 0.6029
vn -0.3019 0.9291 0.2136
vn -0.3019 0.9291 -0.2136
vn -0.2465 0.7588 -0.6029
vn -0.6455 0.4690 0.6029
vn -0.7903 0.5742 0.2136
vn -0.7903 0.5742 -0.2136
vn -0.6455 0.4690 -0.6029
vn -0.7978 -0.0000 0.6029
vn -0.9769 -0.0000 0.2136
vn -0.9769 -0.0000 -0.2136
vn -0.7978 -0.0000 -0.6029
vn -0.6455 -0.4690 0.6029
vn -0.7903 -0.5742 0.2136
vn -0.7903 -0.5742 -0.2136
vn -0.6455 -0.4690 -0.6029
vn -0.2465 -0.7588 0.6029
vn -0.3019 -0.9291 0.2136
vn -0.3019 -0.9291 -0.2136
vn -0.2465 -0.7588 -0.6029
vn 0.2465 -0.7588 0.6029
vn 0.3019 -0.9291 0.2136
vn 0.3019 -0.9291 -0.2136
vn 0.2465 -0.7588 -0.6029
vn 0.6455 -0.4690 0.6029
vn 0.7903 -0.5742 0.2136
vn 0.7903 -0.5742 -0.2136
vn 0.6455 -0.4690 -0.6029
vt 0.706623 0.800000
vt 0.706623 0.400000
vt 0.732604 0.400000
vt 0.732604 0.800000
vt 0.792604 0.400000
vt 0.792604 0.800000
vt 0.762604 0.800000
vt 0.762604 0.400000
vt 0.784566 0.000000
vt 0.784566 0.400000
vt 0.758585 0.400000
vt 0.758585 0.000000
vt 0.732604 0.000000
vt 0.814566 0.000000
vt 0.814566 0.400000
vt 0.680643 0.800000
vt 0.680643 0.400000
vt 0.303109 0.716146
vt 0.277128 0.701146
vt 0.277128 0.671146
vt 0.303109 0.656146
vt 0.329090 0.671146
vt 0.329090 0.701146
vt 0.465557 0.675287
vt 0.465557 0.705287
vt 0.439576 0.720287
vt 0.413595 0.705287
vt 0.413595 0.675287
vt 0.439576 0.660287
vt 0.654662 0.400000
vt 0.654662 0.000000
vt 0.680643 0.000000
vt 0.706623 0.000000
vt 0.650643 0.800000
vt 0.650643 0.400000
vt 0.628681 0.400000
vt 0.628681 0.000000
vt 0.491538 0.720287
vt 0.491538 0.660287
vt 0.517518 0.675287
vt 0.517518 0.705287
vt 0.387615 0.720287
vt 0.361634 0.705287
vt 0.361634 0.675287
vt 0.387615 0.660287
vt 0.103923 1.000000
vt 0.103923 0.000000
vt 0.138564 0.000000
vt 0.138564 1.000000
vt 0.588681 0.000000
vt 0.588681 1.000000
vt 0.548681 1.000000
vt 0.548681 0.000000
vt 0.069282 0.000000
vt 0.069282 1.000000
vt 0.034641 1.000000
vt 0.034641 0.000000
vt 0.000000 1.000000
vt 0.000000 0.000000
vt 0.628681 1.000000
vt 0.207846 0.716146
vt 0.173205 0.736146
vt 0.138564 0.716146
vt 0.138564 0.676146
vt 0.173205 0.656146
vt 0.207846 0.676146
vt 0.277128 0.716146
vt 0.242487 0.736146
vt 0.242487 0.656146
vt 0.277128 0.676146
vt 0.211844 0.064622
vt 0.250099 0.052192
vt 0.250099 0.117275
vt 0.288354 0.064622
vt 0.311996 0.097163
vt 0.311996 0.137386
vt 0.288354 0.169928
vt 0.250099 0.182357
vt 0.211844 0.169928
vt 0.188202 0.137386
vt 0.188202 0.097163
vt 0.211844 0.299171
vt 0.250099 0.351824
vt 0.188202 0.331713
vt 0.188202 0.371936
vt 0.211844 0.404477
vt 0.250099 0.416907
vt 0.288354 0.404477
vt 0.311996 0.371936
vt 0.311996 0.331713
vt 0.288354 0.299171
vt 0.250099 0.286742
vt 0.181167 0.022397
vt 0.250099 0.000000
vt 0.447591 0.660287
vt 0.447591 0.600142
vt 0.533548 0.600142
vt 0.516523 0.660287
vt 0.447591 0.533385
vt 0.533548 0.533385
vt 0.447591 0.473240
vt 0.516523 0.473240
vt 0.181167 0.256947
vt 0.138564 0.315584
vt 0.319031 0.022397
vt 0.548681 0.213187
vt 0.488535 0.236620
vt 0.488535 0.163500
vt 0.548681 0.154550
vt 0.421779 0.236620
vt 0.421779 0.163500
vt 0.361634 0.213187
vt 0.361634 0.154550
vt 0.138564 0.388064
vt 0.361634 0.081035
vt 0.488535 0.073120
vt 0.548681 0.082070
vt 0.421779 0.073120
vt 0.361634 0.082070
vt 0.181167 0.446701
vt 0.361634 0.153515
vt 0.488535 0.000000
vt 0.548681 0.023433
vt 0.421779 0.000000
vt 0.361634 0.023433
vt 0.250099 0.469099
vt 0.319031 0.212152
vt 0.155589 0.656146
vt 0.138564 0.596000
vt 0.224521 0.596000
vt 0.224521 0.656146
vt 0.138564 0.529244
vt 0.224521 0.529244
vt 0.155589 0.469099
vt 0.224521 0.469099
vt 0.319031 0.446701
vt 0.250099 0.234549
vt 0.310479 0.596000
vt 0.293454 0.656146
vt 0.310479 0.529244
vt 0.293454 0.469099
vt 0.361634 0.388064
vt 0.181167 0.212152
vt 0.548681 0.449807
vt 0.488535 0.473240
vt 0.488535 0.400120
vt 0.548681 0.391170
vt 0.421779 0.473240
vt 0.421779 0.400120
vt 0.361634 0.449807
vt 0.361634 0.391170
vt 0.361634 0.315584
vt 0.138564 0.153515
vt 0.488535 0.309740
vt 0.548681 0.318690
vt 0.421779 0.309740
vt 0.361634 0.318690
vt 0.319031 0.256947
vt 0.138564 0.081035
vt 0.548681 0.260053
vt 0.361634 0.260053
vt 0.378659 0.660287
vt 0.361634 0.600142
vt 0.361634 0.533385
vt 0.378659 0.473240
s 1
usemtl Material_with_Texture.207
f 1/1/1 2/2/1 3/3/2 4/4/2
f 4/5/2 3/6/2 5/7/3 6/8/3
f 6/9/3 5/10/3 7/11/4 8/12/4
f 8/12/4 7/11/4 9/3/5 10/13/5
f 10/10/5 9/9/5 11/14/6 12/15/6
f 12/16/6 11/17/6 2/2/1 1/1/1
f 13/18/7 14/19/7 15/20/7 16/21/7 17/22/7 18/23/7
f 19/24/8 20/25/8 21/26/8 22/27/8 23/28/8 24/29/8
f 25/30/8 26/31/8 27/32/9 28/17/9
f 28/4/9 27/3/9 29/8/10 30/7/10
f 30/17/10 29/32/10 31/33/7 32/2/7
f 32/2/7 31/33/7 33/13/11 34/3/11
f 34/34/11 33/35/11 35/17/12 36/16/12
f 36/36/12 35/37/12 26/31/8 25/30/8
f 37/38/13 38/25/13 39/24/13 40/39/13 41/40/13 42/41/13
f 43/28/14 44/27/14 45/42/14 46/43/14 47/44/14 48/45/14
f 49/46/8 50/47/8 51/48/15 52/49/15
f 52/50/15 51/51/15 53/52/16 54/53/16
f 54/54/16 53/55/16 55/56/7 56/57/7
f 56/57/7 55/56/7 57/58/17 58/59/17
f 58/37/17 57/60/17 59/51/18 60/50/18
f 60/55/18 59/54/18 50/47/8 49/46/8
f 61/61/1 62/62/1 63/63/1 64/64/1 65/65/1 66/66/1
f 67/67/4 68/68/4 69/61/4 70/66/4 71/69/4 72/70/4
f 73/71/19 74/72/20 75/73/13
f 74/72/20 76/74/21 75/73/13
f 76/74/21 77/75/22 75/73/13
f 77/75/22 78/76/23 75/73/13
f 78/76/23 79/77/24 75/73/13
f 79/77/24 80/78/25 75/73/13
f 80/78/25 81/79/26 75/73/13
f 81/79/26 82/80/27 75/73/13
f 82/80/27 83/81/28 75/73/13
f 83/81/28 73/71/19 75/73/13
f 84/82/29 85/83/14 86/84/30
f 86/84/30 85/83/14 87/85/31
f 87/85/31 85/83/14 88/86/32
f 88/86/32 85/83/14 89/87/33
f 89/87/33 85/83/14 90/88/34
f 90/88/34 85/83/14 91/89/35
f 91/89/35 85/83/14 92/90/36
f 92/90/36 85/83/14 93/91/37
f 93/91/37 85/83/14 94/92/38
f 94/92/38 85/83/14 84/82/29
f 73/71/19 95/93/39 96/94/40
f 73/71/19 96/94/40 74/72/20
f 95/95/39 97/96/41 98/97/42
f 95/95/39 98/97/42 96/98/40
f 97/96/41 99/99/43 100/100/44
f 97/96/41 100/100/44 98/97/42
f 99/99/43 101/101/45 102/102/46
f 99/99/43 102/102/46 100/100/44
f 101/103/45 84/82/29 86/84/30
f 101/103/45 86/84/30 102/104/46
f 74/72/20 96/94/40 103/105/47
f 74/72/20 103/105/47 76/74/21
f 96/106/40 98/107/42 104/108/48
f 96/106/40 104/108/48 103/109/47
f 98/107/42 100/110/44 105/111/49
f 98/107/42 105/111/49 104/108/48
f 100/110/44 102/112/46 106/113/50
f 100/110/44 106/113/50 105/111/49
f 102/104/46 86/84/30 87/85/31
f 102/104/46 87/85/31 106/114/50
f 76/74/21 103/105/47 107/115/51
f 76/74/21 107/115/51 77/75/22
f 103/109/47 104/108/48 108/116/52
f 103/109/47 108/116/52 107/117/51
f 104/108/48 105/111/49 109/118/53
f 104/108/48 109/118/53 108/116/52
f 105/111/49 106/113/50 110/119/54
f 105/111/49 110/119/54 109/118/53
f 106/114/50 87/85/31 88/86/32
f 106/114/50 88/86/32 110/120/54
f 77/75/22 107/115/51 111/121/55
f 77/75/22 111/121/55 78/76/23
f 107/117/51 108/116/52 112/122/56
f 107/117/51 112/122/56 111/123/55
f 108/116/52 109/118/53 113/124/57
f 108/116/52 113/124/57 112/122/56
f 109/118/53 110/119/54 114/125/58
f 109/118/53 114/125/58 113/124/57
f 110/120/54 88/86/32 89/87/33
f 110/120/54 89/87/33 114/126/58
f 78/76/23 111/121/55 115/127/59
f 78/76/23 115/127/59 79/77/24
f 111/128/55 112/129/56 116/130/60
f 111/128/55 116/130/60 115/131/59
f 112/129/56 113/132/57 117/133/61
f 112/129/56 117/133/61 116/130/60
f 113/132/57 114/134/58 118/135/62
f 113/132/57 118/135/62 117/133/61
f 114/126/58 89/87/33 90/88/34
f 114/126/58 90/88/34 118/136/62
f 79/77/24 115/127/59 119/137/63
f 79/77/24 119/137/63 80/78/25
f 115/131/59 116/130/60 120/138/64
f 115/131/59 120/138/64 119/139/63
f 116/130/60 117/133/61 121/140/65
f 116/130/60 121/140/65 120/138/64
f 117/133/61 118/135/62 122/141/66
f 117/133/61 122/141/66 121/140/65
f 118/136/62 90/88/34 91/89/35
f 118/136/62 91/89/35 122/142/66
f 80/78/25 119/137/63 123/143/67
f 80/78/25 123/143/67 81/79/26
f 119/144/63 120/145/64 124/146/68
f 119/144/63 124/146/68 123/147/67
f 120/145/64 121/148/65 125/149/69
f 120/145/64 125/149/69 124/146/68
f 121/148/65 122/150/66 126/151/70
f 121/148/65 126/151/70 125/149/69
f 122/142/66 91/89/35 92/90/36
f 122/142/66 92/90/36 126/152/70
f 81/79/26 123/143/67 127/153/71
f 81/79/26 127/153/71 82/80/27
f 123/147/67 124/146/68 128/154/72
f 123/147/67 128/154/72 127/155/71
f 124/146/68 125/149/69 129/156/73
f 124/146/68 129/156/73 128/154/72
f 125/149/69 126/151/70 130/157/74
f 125/149/69 130/157/74 129/156/73
f 126/152/70 92/90/36 93/91/37
f 126/152/70 93/91/37 130/158/74
f 82/80/27 127/153/71 131/159/75
f 82/80/27 131/159/75 83/81/28
f 127/155/71 128/154/72 132/107/76
f 127/155/71 132/107/76 131/160/75
f 128/154/72 129/156/73 133/110/77
f 128/154/72 133/110/77 132/107/76
f 129/156/73 130/157/74 134/161/78
f 129/156/73 134/161/78 133/110/77
f 130/158/74 93/91/37 94/92/38
f 130/158/74 94/92/38 134/137/78
f 83/81/28 131/159/75 95/93/39
f 83/81/28 95/93/39 73/71/19
f 131/162/75 132/163/76 97/96/41
f 131/162/75 97/96/41 95/95/39
f 132/163/76 133/164/77 99/99/43
f 132/163/76 99/99/43 97/96/41
f 133/164/77 134/165/78 101/101/45
f 133/164/77 101/101/45 99/99/43
f 134/137/78 94/92/38 84/82/29
f 134/137/78 84/82/29 101/103/45
