# Blender 4.3.0
# www.blender.org
mtllib pisiform_rvs.mtl
o pisiform_rvs
v 0.006025 -0.011087 -0.026877
v 0.004025 -0.010821 -0.025805
v 0.006563 -0.008432 -0.026074
v 0.002976 -0.012780 -0.025374
v 0.008373 -0.009841 -0.026966
v 0.006856 -0.013298 -0.026956
v 0.002161 -0.009758 -0.025320
v 0.007672 -0.006837 -0.025205
v 0.001440 -0.007377 -0.023499
v 0.004647 -0.017995 -0.024424
v 0.003715 -0.015198 -0.020397
v 0.005401 -0.018710 -0.024596
v 0.008917 -0.007862 -0.025656
v 0.009679 -0.013579 -0.026831
v 0.010479 -0.010566 -0.026051
v 0.008430 -0.007049 -0.025186
v 0.006499 -0.005626 -0.022297
v 0.001767 -0.006394 -0.020584
v 0.005385 -0.018720 -0.022524
v 0.005959 -0.014570 -0.017626
v 0.003537 -0.009196 -0.018351
v 0.006032 -0.018178 -0.020312
v 0.007194 -0.019645 -0.023202
v 0.011129 -0.011699 -0.023587
v 0.012078 -0.014729 -0.024456
v 0.009118 -0.008541 -0.021620
v 0.007386 -0.008732 -0.019803
v 0.010038 -0.012272 -0.020017
v 0.006931 -0.016271 -0.018140
v 0.007783 -0.019071 -0.020933
v 0.010719 -0.017318 -0.021035
v 0.012292 -0.014974 -0.022050
v 0.011253 -0.012746 -0.021015
v 0.010497 -0.016841 -0.020255
vn -0.2881 0.1182 -0.9503
vn -0.3382 0.0835 -0.9374
vn -0.2077 0.4586 -0.8640
vn -0.7933 -0.2420 -0.5587
vn 0.1539 0.2779 -0.9482
vn -0.1561 -0.1989 -0.9675
vn -0.7519 0.0466 -0.6577
vn 0.0339 0.7863 -0.6169
vn -0.8339 0.4313 -0.3445
vn -0.7840 -0.4921 -0.3785
vn -0.8567 -0.3700 0.3595
vn -0.3271 -0.7396 -0.5882
vn 0.6145 0.5929 -0.5205
vn 0.3715 -0.2332 -0.8987
vn 0.7809 0.3327 -0.5287
vn 0.5598 0.7411 -0.3705
vn 0.2191 0.9639 0.1512
vn -0.6597 0.6353 0.4015
vn -0.6254 -0.7556 0.1946
vn -0.1520 -0.1520 0.9766
vn -0.3645 0.2276 0.9030
vn -0.4612 -0.7098 0.5324
vn 0.1148 -0.9667 -0.2285
vn 0.9113 0.4112 0.0203
vn 0.8726 -0.2412 -0.4247
vn 0.7418 0.5604 0.3683
vn 0.4136 0.4836 0.7714
vn 0.5792 0.2315 0.7816
vn 0.0420 -0.4115 0.9104
vn 0.1460 -0.8912 0.4294
vn 0.7042 -0.6807 0.2019
vn 0.9668 -0.1293 0.2202
vn 0.8254 0.2766 0.4921
vn 0.6020 -0.3598 0.7129
vt 0.846683 0.376869
vt 0.930256 0.404621
vt 0.800492 0.466256
vt 0.997643 0.338885
vt 0.739102 0.395214
vt 0.839258 0.280933
vt 0.994770 0.466256
vt 0.789898 0.522374
vt 0.857272 0.556242
vt 0.796941 0.791134
vt 0.893056 0.740299
vt 0.893056 0.472274
vt 0.661946 0.470606
vt 0.483578 0.369476
vt 0.669312 0.239563
vt 0.977417 0.070987
vt 1.000000 0.107164
vt 0.648145 0.111119
vt 0.809197 0.466256
vt 0.732448 0.232135
vt 0.671595 0.332164
vt 0.704372 0.454202
vt 0.560462 0.017867
vt 0.784556 0.491743
vt 0.674485 0.601513
vt 0.669312 0.809553
vt 0.432693 0.000000
vt 0.669312 0.508718
vt 0.586120 0.519515
vt 0.350693 0.393709
vt 0.353115 0.146273
vt 0.487965 0.519878
vt 0.928260 0.000000
vt 0.607966 0.579165
vt 0.032756 0.164085
vt 0.095021 0.357944
vt 0.000000 0.291138
vt 0.057195 0.127378
vt 0.669312 0.136937
vt 0.043810 0.482798
vt 0.196264 0.213814
vt 0.189620 0.053264
vt 0.275968 0.000000
vt 0.350693 0.148270
vt 0.277419 0.197190
vt 0.350693 0.395589
vt 0.244703 0.376689
vt 0.319149 0.473932
vt 0.378366 0.471331
vt 0.507672 0.577706
vt 0.227197 0.551968
vt 0.251579 0.588883
vt 0.122125 0.614504
vt 0.350693 0.571581
vt 0.232708 0.728568
vt 0.350693 0.863791
vt 0.141526 0.508375
vt 0.196888 0.412110
vt 0.252795 0.846876
vt 0.215613 0.551969
vt 0.198485 0.728296
s 1
usemtl Material_with_Texture.209
f 1/1/1 2/2/2 3/3/3
f 1/1/1 4/4/4 2/2/2
f 3/3/3 5/5/5 1/1/1
f 1/1/1 6/6/6 4/4/4
f 1/1/1 5/5/5 6/6/6
f 7/7/7 2/2/2 4/4/4
f 3/3/3 2/2/2 7/7/7
f 8/8/8 3/9/3 9/10/9
f 7/11/7 9/10/9 3/9/3
f 5/12/5 3/9/3 8/8/8
f 10/13/10 11/14/11 4/15/4
f 12/16/12 10/17/10 4/4/4
f 12/16/12 4/4/4 6/6/6
f 11/14/11 7/18/7 4/15/4
f 8/8/8 13/19/13 5/12/5
f 14/20/14 6/6/6 5/5/5
f 15/21/15 14/20/14 5/5/5
f 15/21/15 5/5/5 13/22/13
f 6/6/6 14/20/14 12/16/12
f 9/23/9 7/18/7 11/14/11
f 13/19/13 8/8/8 16/24/16
f 8/8/8 9/10/9 17/25/17
f 17/25/17 16/24/16 8/8/8
f 18/26/18 17/25/17 9/10/9
f 11/14/11 18/27/18 9/23/9
f 10/13/10 12/28/12 19/29/19
f 10/13/10 19/29/19 11/14/11
f 11/14/11 20/30/20 21/31/21
f 19/29/19 22/32/22 11/14/11
f 11/14/11 22/32/22 20/30/20
f 21/31/21 18/27/18 11/14/11
f 12/16/12 14/20/14 23/33/23
f 12/28/12 23/34/23 19/29/19
f 13/35/13 24/36/24 15/37/15
f 16/38/16 24/36/24 13/35/13
f 14/20/14 25/39/25 23/33/23
f 15/21/15 25/39/25 14/20/14
f 25/40/25 15/37/15 24/36/24
f 26/41/26 24/36/24 16/38/16
f 16/38/16 17/42/17 26/41/26
f 18/43/18 21/44/21 17/42/17
f 27/45/27 17/42/17 21/44/21
f 26/41/26 17/42/17 27/45/27
f 19/29/19 23/34/23 22/32/22
f 27/45/27 20/46/20 28/47/28
f 21/44/21 20/46/20 27/45/27
f 20/46/20 29/48/29 28/47/28
f 22/32/22 29/49/29 20/30/20
f 23/34/23 30/50/30 22/32/22
f 22/51/22 30/52/30 29/53/29
f 23/54/23 31/55/31 30/52/30
f 23/54/23 25/56/25 31/55/31
f 25/40/25 24/36/24 32/57/32
f 33/58/33 32/57/32 24/36/24
f 33/58/33 24/36/24 26/41/26
f 32/59/32 31/55/31 25/56/25
f 27/45/27 28/47/28 26/41/26
f 33/58/33 26/41/26 28/47/28
f 34/60/34 28/47/28 29/48/29
f 33/58/33 28/47/28 34/60/34
f 30/52/30 34/61/34 29/53/29
f 34/61/34 30/52/30 31/55/31
f 32/59/32 34/61/34 31/55/31
f 32/57/32 33/58/33 34/60/34
