# Blender v3.5.0 OBJ File: ''
# www.blender.org
mtllib pisiform_rvs.mtl
o pisiform_rvs
v 0.006025 -0.011087 -0.026877
v 0.004025 -0.010821 -0.025805
v 0.006563 -0.008432 -0.026074
v 0.002976 -0.012780 -0.025374
v 0.008373 -0.009841 -0.026966
v 0.006856 -0.013298 -0.026956
v 0.002161 -0.009758 -0.025320
v 0.007672 -0.006837 -0.025205
v 0.001440 -0.007377 -0.023499
v 0.004647 -0.017995 -0.024424
v 0.003715 -0.015198 -0.020397
v 0.005401 -0.018710 -0.024596
v 0.008917 -0.007862 -0.025656
v 0.009679 -0.013579 -0.026831
v 0.010479 -0.010566 -0.026051
v 0.008430 -0.007049 -0.025186
v 0.006499 -0.005626 -0.022297
v 0.001767 -0.006394 -0.020584
v 0.005385 -0.018720 -0.022524
v 0.005959 -0.014570 -0.017626
v 0.003537 -0.009196 -0.018351
v 0.006032 -0.018178 -0.020312
v 0.007194 -0.019645 -0.023202
v 0.011129 -0.011699 -0.023587
v 0.012078 -0.014729 -0.024456
v 0.009118 -0.008541 -0.021620
v 0.007386 -0.008732 -0.019803
v 0.010038 -0.012272 -0.020017
v 0.006931 -0.016271 -0.018140
v 0.007783 -0.019071 -0.020933
v 0.010719 -0.017318 -0.021035
v 0.012292 -0.014974 -0.022050
v 0.011253 -0.012746 -0.021015
v 0.010497 -0.016841 -0.020255
vt 0.846683 0.376869
vt 0.930256 0.404621
vt 0.800492 0.466256
vt 0.997643 0.338885
vt 0.739102 0.395214
vt 0.839258 0.280933
vt 0.994770 0.466256
vt 0.789898 0.522374
vt 0.857272 0.556242
vt 0.796941 0.791134
vt 0.893056 0.740299
vt 0.893056 0.472274
vt 0.661946 0.470606
vt 0.483578 0.369476
vt 0.669312 0.239563
vt 0.977417 0.070987
vt 1.000000 0.107164
vt 0.648145 0.111119
vt 0.809197 0.466256
vt 0.732448 0.232135
vt 0.671595 0.332164
vt 0.704372 0.454202
vt 0.560462 0.017867
vt 0.784556 0.491743
vt 0.674485 0.601513
vt 0.669312 0.809553
vt 0.432693 0.000000
vt 0.669312 0.508718
vt 0.586120 0.519515
vt 0.350693 0.393709
vt 0.353115 0.146273
vt 0.487965 0.519878
vt 0.928260 0.000000
vt 0.607966 0.579165
vt 0.032756 0.164085
vt 0.095021 0.357944
vt 0.000000 0.291138
vt 0.057195 0.127378
vt 0.669312 0.136937
vt 0.043810 0.482798
vt 0.196264 0.213814
vt 0.189620 0.053264
vt 0.275968 0.000000
vt 0.350693 0.148270
vt 0.277419 0.197190
vt 0.350693 0.395589
vt 0.244703 0.376689
vt 0.319149 0.473932
vt 0.378366 0.471331
vt 0.507672 0.577706
vt 0.227197 0.551968
vt 0.251579 0.588883
vt 0.122125 0.614504
vt 0.350693 0.571581
vt 0.232708 0.728568
vt 0.350693 0.863791
vt 0.141526 0.508375
vt 0.196888 0.412110
vt 0.252795 0.846876
vt 0.215613 0.551969
vt 0.198485 0.728296
vn -0.4090 0.3391 -0.8472
vn -0.4660 0.0552 -0.8831
vn -0.2055 0.3212 -0.9244
vn -0.3880 -0.1132 -0.9147
vn -0.0473 0.0179 -0.9987
vn -0.2828 -0.0592 -0.9573
vn -0.1970 0.0995 -0.9753
vn -0.2598 0.5950 -0.7606
vn -0.2945 0.5227 -0.8000
vn -0.0386 0.4986 -0.8660
vn -0.9519 -0.3064 -0.0075
vn -0.4756 -0.3028 -0.8259
vn -0.3943 -0.2762 -0.8765
vn -0.9653 -0.2606 0.0167
vn 0.1256 0.5234 -0.8428
vn 0.0421 -0.0214 -0.9989
vn 0.4295 0.1177 -0.8953
vn 0.4766 0.3904 -0.7877
vn 0.0008 -0.3999 -0.9166
vn -0.9591 -0.2829 -0.0099
vn 0.1797 0.5708 -0.8012
vn -0.1972 0.8743 -0.4436
vn 0.2652 0.9234 -0.2776
vn -0.2528 0.9250 -0.2836
vn -0.9615 -0.2090 0.1783
vn -0.6891 -0.7246 -0.0088
vn -0.8574 -0.4939 0.1446
vn -0.7269 -0.2408 0.6432
vn -0.7426 -0.5672 0.3562
vn -0.6297 -0.4720 0.6169
vn -0.8690 -0.1825 0.4598
vn 0.2927 -0.5764 -0.7630
vn -0.4576 -0.8891 -0.0078
vn 0.8660 0.5000 0.0015
vn 0.8621 0.5064 0.0174
vn 0.4106 -0.5861 -0.6985
vn 0.7029 -0.0025 -0.7113
vn 0.9410 0.3233 -0.0996
vn 0.8562 0.5142 0.0499
vn 0.7189 0.6797 0.1457
vn 0.1527 0.6731 0.7236
vn 0.1994 0.6475 0.7355
vn 0.5368 0.6161 0.5764
vn -0.3355 -0.8876 0.3156
vn 0.3884 0.2371 0.8905
vn 0.3124 0.2639 0.9125
vn 0.4965 0.0215 0.8678
vn -0.5382 -0.5103 0.6708
vn -0.3411 -0.8864 0.3128
vn -0.1246 -0.7195 0.6833
vn 0.5130 -0.8544 0.0830
vn 0.6434 -0.7114 -0.2828
vn 0.9486 0.3122 -0.0526
vn 0.9194 0.3779 0.1095
vn 0.8733 0.4645 0.1470
vn 0.7960 -0.5909 -0.1310
vn 0.6295 0.4325 0.6455
vn 0.6676 0.4267 0.6101
vn 0.5109 0.0065 0.8596
vn 0.6402 0.0243 0.7678
vn 0.3268 -0.6157 0.7170
vn 0.4402 -0.7048 0.5563
vn 0.8194 -0.3549 0.4502
vn 0.7067 0.0009 0.7076
usemtl Material_with_Texture.209
s off
f 1/1/1 2/2/1 3/3/1
f 1/1/2 4/4/2 2/2/2
f 3/3/3 5/5/3 1/1/3
f 1/1/4 6/6/4 4/4/4
f 1/1/5 5/5/5 6/6/5
f 7/7/6 2/2/6 4/4/6
f 3/3/7 2/2/7 7/7/7
f 8/8/8 3/9/8 9/10/8
f 7/11/9 9/10/9 3/9/9
f 5/12/10 3/9/10 8/8/10
f 10/13/11 11/14/11 4/15/11
f 12/16/12 10/17/12 4/4/12
f 12/16/13 4/4/13 6/6/13
f 11/14/14 7/18/14 4/15/14
f 8/8/15 13/19/15 5/12/15
f 14/20/16 6/6/16 5/5/16
f 15/21/17 14/20/17 5/5/17
f 15/21/18 5/5/18 13/22/18
f 6/6/19 14/20/19 12/16/19
f 9/23/20 7/18/20 11/14/20
f 13/19/21 8/8/21 16/24/21
f 8/8/22 9/10/22 17/25/22
f 17/25/23 16/24/23 8/8/23
f 18/26/24 17/25/24 9/10/24
f 11/14/25 18/27/25 9/23/25
f 10/13/26 12/28/26 19/29/26
f 10/13/27 19/29/27 11/14/27
f 11/14/28 20/30/28 21/31/28
f 19/29/29 22/32/29 11/14/29
f 11/14/30 22/32/30 20/30/30
f 21/31/31 18/27/31 11/14/31
f 12/16/32 14/20/32 23/33/32
f 12/28/33 23/34/33 19/29/33
f 13/35/34 24/36/34 15/37/34
f 16/38/35 24/36/35 13/35/35
f 14/20/36 25/39/36 23/33/36
f 15/21/37 25/39/37 14/20/37
f 25/40/38 15/37/38 24/36/38
f 26/41/39 24/36/39 16/38/39
f 16/38/40 17/42/40 26/41/40
f 18/43/41 21/44/41 17/42/41
f 27/45/42 17/42/42 21/44/42
f 26/41/43 17/42/43 27/45/43
f 19/29/44 23/34/44 22/32/44
f 27/45/45 20/46/45 28/47/45
f 21/44/46 20/46/46 27/45/46
f 20/46/47 29/48/47 28/47/47
f 22/32/48 29/49/48 20/30/48
f 23/34/49 30/50/49 22/32/49
f 22/51/50 30/52/50 29/53/50
f 23/54/51 31/55/51 30/52/51
f 23/54/52 25/56/52 31/55/52
f 25/40/53 24/36/53 32/57/53
f 33/58/54 32/57/54 24/36/54
f 33/58/55 24/36/55 26/41/55
f 32/59/56 31/55/56 25/56/56
f 27/45/57 28/47/57 26/41/57
f 33/58/58 26/41/58 28/47/58
f 34/60/59 28/47/59 29/48/59
f 33/58/60 28/47/60 34/60/60
f 30/52/61 34/61/61 29/53/61
f 34/61/62 30/52/62 31/55/62
f 32/59/63 34/61/63 31/55/63
f 32/57/64 33/58/64 34/60/64
