# Blender v3.5.0 OBJ File: ''
# www.blender.org
mtllib prox_phalanx3_lvs.mtl
o prox_phalanx3_lvs
v 0.021139 -0.002866 -0.018304
v 0.021644 -0.000653 -0.018681
v 0.020884 -0.000023 -0.018418
v 0.019622 0.000260 -0.017757
v 0.021616 -0.000518 -0.020782
v 0.019707 -0.000627 -0.025341
v 0.011755 0.001261 -0.021267
v 0.017538 -0.000546 -0.025261
v 0.021673 -0.002524 -0.019061
v 0.021991 -0.002211 -0.020123
v 0.019049 -0.004381 -0.017585
v 0.020797 -0.003826 -0.018193
v 0.017717 -0.003891 -0.017406
v 0.017470 -0.000081 -0.017945
v 0.017167 0.000458 -0.018379
v 0.020366 -0.001842 -0.026446
v 0.021017 -0.002260 -0.023723
v 0.010950 0.000426 -0.017732
v 0.004900 0.002078 -0.020571
v 0.011069 -0.002483 -0.022812
v 0.018181 -0.002541 -0.026465
v 0.014516 -0.003464 -0.023919
v 0.021788 -0.002909 -0.019798
v 0.020379 -0.004971 -0.019091
v 0.018456 -0.005388 -0.018304
v 0.017517 -0.005200 -0.018065
v 0.017024 -0.001091 -0.017778
v 0.016301 -0.001237 -0.017618
v 0.016961 -0.004607 -0.018118
v 0.015792 -0.000235 -0.017744
v 0.020328 -0.003577 -0.026288
v 0.018502 -0.006152 -0.023662
v 0.020087 -0.005087 -0.024464
v 0.018888 -0.004489 -0.022577
v 0.020865 -0.004603 -0.020580
v 0.002981 0.001540 -0.016315
v 0.011062 -0.000325 -0.017458
v 0.001185 0.002768 -0.016986
v 0.000745 0.002919 -0.018870
v -0.001534 -0.003837 -0.018011
v 0.015427 -0.004015 -0.022902
v 0.018228 -0.004574 -0.022312
v -0.002864 -0.004225 -0.014395
v 0.011225 -0.001575 -0.017829
v 0.016499 -0.003389 -0.020043
v 0.016299 -0.005392 -0.023079
v 0.014962 -0.004645 -0.023876
v 0.019764 -0.005330 -0.025617
v 0.018074 -0.006276 -0.024763
v 0.017045 -0.006133 -0.024397
v 0.019458 -0.005549 -0.019644
v 0.017726 -0.005391 -0.018963
v 0.015706 -0.001378 -0.018024
v 0.016176 -0.002486 -0.018282
v 0.017527 -0.006110 -0.023380
v 0.018278 -0.004706 -0.021334
v 0.000664 -0.001389 -0.015113
v -0.002595 0.003477 -0.016652
v -0.003310 0.003648 -0.018017
v -0.003707 0.003234 -0.018581
v -0.006276 -0.000796 -0.019372
v -0.006599 -0.003571 -0.018959
v -0.005824 -0.004144 -0.018343
v -0.007350 -0.004885 -0.017984
v -0.008412 -0.005706 -0.017473
v -0.005751 -0.005273 -0.014706
v -0.005758 -0.004052 -0.011649
v -0.005803 0.000645 -0.011412
v -0.003515 0.000516 -0.013689
v -0.005422 -0.005018 -0.012666
v -0.005210 -0.004271 -0.012306
v -0.005164 0.004649 -0.016074
v -0.006016 0.004966 -0.016068
v -0.007255 0.004459 -0.018549
v -0.007754 0.003958 -0.019364
v -0.007777 0.000627 -0.020323
v -0.007521 -0.003769 -0.019483
v -0.007692 -0.004743 -0.018606
v -0.008159 -0.004940 -0.018209
v -0.009824 -0.005016 -0.018754
v -0.010163 -0.005423 -0.017199
v -0.010381 -0.005179 -0.016391
v -0.010400 -0.005358 -0.017894
v -0.007963 -0.005627 -0.014071
v -0.007801 -0.004911 -0.013037
v -0.008146 -0.003650 -0.011294
v -0.006463 0.002457 -0.012357
v -0.005594 0.002841 -0.012282
v -0.006985 -0.004652 -0.012304
v -0.008369 -0.004622 -0.012269
v -0.005386 0.004460 -0.014190
v -0.006236 0.004335 -0.013859
v -0.009792 -0.001292 -0.019609
v -0.008586 0.002765 -0.020063
v -0.008906 0.001991 -0.020239
v -0.009495 -0.004070 -0.019455
v -0.010567 -0.004758 -0.018517
v -0.010620 -0.003948 -0.019048
v -0.010827 -0.004752 -0.016934
v -0.010464 -0.004728 -0.014267
v -0.008412 -0.005516 -0.013200
v -0.009699 -0.004940 -0.013317
v -0.009391 -0.004662 -0.012746
vt 0.426549 0.003268
vt 0.483480 0.000000
vt 0.494273 0.022198
vt 0.492729 0.056320
vt 0.708666 0.045026
vt 0.760691 0.011161
vt 0.881415 0.028403
vt 0.709690 0.022298
vt 0.831860 0.249609
vt 0.700429 0.080131
vt 0.892110 0.080347
vt 0.706786 0.738268
vt 0.752552 0.749781
vt 0.742983 0.773890
vt 0.762590 0.734103
vt 0.700429 0.789480
vt 0.378470 0.049235
vt 0.401661 0.007463
vt 0.786830 0.734121
vt 0.384171 0.084283
vt 0.477339 0.105985
vt 0.491391 0.114243
vt 0.729865 0.135240
vt 0.902448 0.000000
vt 0.233090 0.748794
vt 0.208319 0.774522
vt 0.228078 0.695930
vt 0.739853 0.866084
vt 0.726138 0.934864
vt 0.750061 0.285240
vt 0.855810 0.419331
vt 0.240418 0.359153
vt 0.243689 0.530455
vt 0.153948 0.535140
vt 0.184419 0.724579
vt 0.143631 0.627097
vt 0.760921 0.767742
vt 0.814261 0.759326
vt 0.551796 0.713433
vt 0.561229 0.765049
vt 0.534483 0.774967
vt 0.528990 0.727923
vt 0.355546 0.080681
vt 0.549661 0.690356
vt 0.450560 0.112658
vt 0.443454 0.129995
vt 0.054260 0.779083
vt 0.000229 0.830580
vt 0.002267 0.800035
vt 0.367907 0.096656
vt 0.274762 0.746289
vt 0.282990 0.731214
vt 0.282990 0.772462
vt 0.466177 0.146472
vt 0.463453 0.266398
vt 0.165299 0.779083
vt 0.769373 0.933375
vt 0.108116 0.779083
vt 0.108116 0.890775
vt 0.088453 0.843829
vt 0.243689 0.878859
vt 0.219557 0.823033
vt 0.243689 0.779083
vt 0.594222 0.785263
vt 0.651181 0.747687
vt 0.663526 0.812600
vt 0.802564 0.793042
vt 0.809624 0.891850
vt 0.763496 0.487014
vt 0.444441 0.261192
vt 0.452192 0.468888
vt 0.791841 0.531679
vt 0.840010 0.531613
vt 0.243523 0.247719
vt 0.068697 0.213008
vt 0.673177 0.667638
vt 0.686232 0.567849
vt 0.700429 0.652606
vt 0.647911 0.730208
vt 0.548536 0.185461
vt 0.629359 0.236312
vt 0.562124 0.550926
vt 0.597319 0.681970
vt 0.132619 0.821286
vt 0.108116 0.779083
vt 0.132619 0.788943
vt 0.109822 0.809950
vt 0.115994 0.641873
vt 0.118838 0.768507
vt 0.088132 0.727024
vt 0.087449 0.699938
vt 0.580306 0.743426
vt 0.571047 0.699016
vt 0.551820 0.679385
vt 0.286764 0.772462
vt 0.286764 0.800520
vt 0.274762 0.790538
vt 0.439955 0.142245
vt 0.416579 0.124845
vt 0.041892 0.810158
vt 0.054260 0.850208
vt 0.000000 0.848671
vt 0.417090 0.250136
vt 0.814261 0.921714
vt 0.244623 0.852367
vt 0.243689 0.805481
vt 0.274762 0.854846
vt 0.273338 0.779011
vt 0.273163 0.805450
vt 0.245654 0.780737
vt 0.187104 0.824749
vt 0.167642 0.808927
vt 0.187104 0.779083
vt 0.681097 0.712868
vt 0.624304 0.726222
vt 0.366819 0.515500
vt 0.479076 0.611192
vt 0.478301 0.515514
vt 0.281614 0.590030
vt 0.806632 0.626316
vt 0.843906 0.635914
vt 0.859174 0.639748
vt 0.131925 0.094730
vt 0.236550 0.138055
vt 0.061874 0.094921
vt 0.048640 0.112570
vt 0.024774 0.076753
vt 0.000000 0.051630
vt 0.651913 0.061282
vt 0.571746 0.113617
vt 0.088453 0.779083
vt 0.088453 0.847391
vt 0.062234 0.816990
vt 0.054260 0.782152
vt 0.260154 0.670469
vt 0.371227 0.694185
vt 0.388941 0.630247
vt 0.520073 0.112647
vt 0.243689 0.654247
vt 0.260483 0.653883
vt 0.553570 0.669007
vt 0.187104 0.787464
vt 0.219557 0.779083
vt 0.219557 0.836457
vt 0.247164 0.752124
vt 0.274762 0.731214
vt 0.494273 0.680673
vt 0.809247 0.696312
vt 0.814483 0.718049
vt 0.880671 0.729813
vt 0.902448 0.734103
vt 0.243689 0.041983
vt 0.865443 0.815166
vt 0.893376 0.734103
vt 0.893376 0.850533
vt 0.055526 0.076061
vt 0.164586 0.058215
vt 0.150317 0.779083
vt 0.150317 0.811381
vt 0.132619 0.799186
vt 0.028825 0.071104
vt 0.657316 0.133487
vt 0.657383 0.092309
vt 0.673619 0.087586
vt 0.666589 0.073711
vt 0.687426 0.035964
vt 0.652281 0.018830
vt 0.632978 0.010580
vt 0.670031 0.016706
vt 0.567118 0.056003
vt 0.539366 0.057537
vt 0.258781 0.731214
vt 0.417114 0.715134
vt 0.429233 0.696217
vt 0.517246 0.074602
vt 0.508377 0.118743
vt 0.494273 0.103183
vt 0.522467 0.041215
vt 0.495186 0.045436
vt 0.865443 0.854596
vt 0.830489 0.825645
vt 0.865443 0.734103
vt 0.814261 0.766580
vt 0.244568 0.694947
vt 0.764838 0.711761
vt 0.761574 0.733085
vt 0.346749 0.990224
vt 0.322708 0.978516
vt 0.415796 1.000000
vt 0.464439 0.974761
vt 0.494273 0.922808
vt 0.290780 0.842398
vt 0.213721 0.029748
vt 0.297393 0.947863
vt 0.194233 0.025718
vt 0.109409 0.013121
vt 0.041908 0.029524
vt 0.700429 0.050711
vt 0.021492 0.058609
vt 0.015863 0.021540
vt 0.019231 0.001559
vt 0.040302 0.000000
vt 0.003416 0.004645
vt 0.646990 0.004012
vt 0.580569 0.000000
vt 0.354099 0.733678
vt 0.403829 0.735260
vt 0.338515 0.743176
vt 0.684279 0.017872
vt 0.156690 0.816848
vt 0.150317 0.796225
vt 0.156690 0.779083
vt 0.547670 0.041402
vt 0.554678 0.013075
vt 0.538698 0.018756
vt 0.448299 0.737427
vt 0.494273 0.763351
vt 0.470921 0.712997
vt 0.478915 0.691887
vt 0.289259 0.928237
vt 0.292295 0.772046
vt 0.303676 0.751058
vt 0.431930 0.731214
vn 0.3782 0.0709 0.9230
vn 0.4762 0.0778 0.8759
vn 0.2448 0.9614 -0.1255
vn 0.6459 0.7623 0.0404
vn 0.1686 0.9808 -0.0981
vn 0.0337 0.9951 -0.0926
vn 0.1879 0.9681 -0.1659
vn 0.9604 -0.0411 0.2755
vn 0.8335 -0.0975 0.5439
vn 0.9763 0.2166 0.0009
vn 0.3310 -0.0088 0.9436
vn 0.8410 -0.2437 0.4831
vn 0.1973 0.1847 0.9628
vn 0.2648 -0.0401 0.9635
vn -0.1071 0.1325 0.9854
vn -0.1600 0.5629 0.8109
vn 0.0189 0.9719 0.2348
vn 0.6925 0.6535 -0.3056
vn -0.0022 0.6722 -0.7404
vn 0.9590 0.1108 -0.2610
vn 0.9731 0.0462 -0.2256
vn 0.0194 0.9720 0.2340
vn 0.1401 0.9560 0.2577
vn -0.0471 0.3884 -0.9203
vn -0.4278 0.4107 -0.8052
vn -0.5943 0.2664 -0.7589
vn -0.3282 -0.0924 -0.9401
vn -0.1449 0.4766 -0.8671
vn 0.8974 -0.3717 -0.2377
vn 0.9569 -0.1679 0.2370
vn 0.8680 -0.4612 0.1841
vn 0.8235 -0.4399 0.3583
vn 0.4041 -0.6513 0.6423
vn 0.4241 -0.6782 0.6001
vn -0.0431 -0.4440 0.8950
vn 0.0787 -0.6096 0.7888
vn 0.1794 0.1731 0.9684
vn 0.0466 0.1429 0.9886
vn -0.5454 -0.2265 0.8070
vn -0.4481 -0.3464 0.8241
vn -0.5030 0.3526 0.7891
vn 0.0813 0.5808 0.8099
vn 0.2540 0.3294 0.9094
vn 0.0379 -0.0914 -0.9951
vn 0.9702 -0.0430 -0.2385
vn 0.6087 -0.3825 0.6951
vn 0.7476 -0.4758 0.4633
vn 0.4749 -0.7164 -0.5111
vn 0.8948 -0.3776 -0.2382
vn 0.9524 -0.2845 -0.1097
vn 0.1703 0.9651 0.1988
vn 0.0499 0.3489 0.9358
vn 0.2121 0.3627 0.9075
vn 0.4547 0.8347 0.3105
vn 0.2098 0.9773 0.0293
vn -0.3913 -0.0788 -0.9169
vn -0.3561 0.0013 -0.9344
vn -0.3283 -0.9220 -0.2054
vn -0.2718 -0.8043 0.5284
vn 0.0769 -0.9940 -0.0784
vn 0.2216 -0.9605 0.1681
vn -0.2874 -0.9212 0.2621
vn -0.2510 -0.9509 0.1811
vn -0.7545 -0.5279 0.3899
vn -0.5788 -0.1897 0.7931
vn -0.5170 -0.2253 -0.8258
vn -0.0831 -0.3328 -0.9393
vn -0.2261 -0.3986 -0.8888
vn -0.4472 -0.3358 -0.8290
vn -0.3564 -0.3790 -0.8540
vn 0.8394 -0.5240 0.1445
vn 0.5441 -0.8385 -0.0297
vn 0.3346 -0.8729 0.3551
vn -0.1512 -0.9735 0.1719
vn -0.0620 -0.9954 0.0732
vn -0.7282 -0.6849 -0.0238
vn -0.5292 -0.1641 0.8325
vn 0.1711 0.2080 0.9630
vn -0.4577 -0.3812 0.8032
vn -0.7687 -0.2386 0.5935
vn -0.9380 -0.3467 0.0057
vn -0.7933 -0.5822 -0.1780
vn 0.0632 -0.2764 0.9590
vn 0.0528 -0.2413 0.9690
vn 0.9143 -0.3629 -0.1796
vn 0.5633 -0.8261 0.0163
vn -0.0857 -0.9858 0.1443
vn -0.0321 -0.9988 0.0378
vn 0.4568 -0.8862 -0.0778
vn 0.2061 -0.5678 0.7970
vn 0.3564 -0.6376 0.6830
vn 0.0722 -0.9879 -0.1370
vn 0.0784 -0.9879 -0.1340
vn 0.1904 -0.8189 -0.5414
vn 0.0605 0.3376 0.9393
vn 0.1890 0.6691 0.7187
vn 0.1901 0.2403 0.9519
vn 0.2724 -0.2410 0.9315
vn 0.2229 -0.0306 0.9744
vn 0.1872 0.9817 0.0350
vn 0.1825 0.9828 0.0275
vn 0.0177 0.8000 -0.5997
vn -0.0476 0.2215 -0.9740
vn 0.1639 -0.1786 -0.9702
vn 0.1731 -0.1647 -0.9710
vn 0.1043 -0.5993 -0.7937
vn 0.1048 -0.6590 -0.7448
vn 0.1086 -0.6228 -0.7748
vn 0.2542 -0.9626 -0.0939
vn 0.3389 -0.9405 0.0237
vn -0.2508 -0.2780 0.9273
vn -0.1069 -0.5343 0.8385
vn -0.6269 -0.7757 -0.0726
vn 0.6871 -0.0300 0.7260
vn 0.7051 -0.0088 0.7090
vn 0.3345 -0.9403 0.0636
vn 0.5885 -0.4804 0.6503
vn 0.2780 -0.1040 0.9549
vn 0.5890 -0.4789 0.6509
vn -0.1244 -0.8920 0.4346
vn 0.0516 -0.2057 0.9773
vn -0.7069 -0.6184 -0.3432
vn -0.4480 -0.8634 0.2319
vn -0.5493 -0.8219 0.1512
vn -0.2087 -0.9255 -0.3160
vn 0.4199 0.5735 0.7034
vn 0.3959 0.9136 -0.0929
vn 0.4815 0.5407 0.6898
vn 0.3439 0.9270 -0.1495
vn 0.2347 0.6974 -0.6771
vn 0.2310 0.9242 -0.3042
vn 0.2526 0.7476 -0.6142
vn 0.2006 0.0640 -0.9776
vn 0.6550 0.2049 -0.7273
vn 0.5153 -0.1845 -0.8369
vn 0.4273 -0.1456 -0.8923
vn 0.4811 -0.6317 -0.6078
vn 0.2769 -0.5046 -0.8178
vn 0.3305 -0.8643 -0.3791
vn 0.2325 -0.7127 -0.6618
vn 0.1465 -0.9439 -0.2960
vn 0.2474 -0.7126 -0.6565
vn -0.1145 -0.9591 0.2587
vn -0.1649 -0.9857 -0.0359
vn -0.0723 -0.9092 -0.4100
vn 0.1586 -0.9873 0.0020
vn -0.2309 -0.9715 0.0530
vn -0.0654 -0.9888 0.1341
vn 0.2780 -0.8096 0.5170
vn 0.1389 -0.0486 0.9891
vn -0.2438 0.3772 0.8935
vn -0.4590 0.2736 0.8452
vn 0.6961 0.2062 0.6877
vn 0.1881 -0.8739 0.4482
vn 0.0011 -0.7384 0.6744
vn -0.0138 -0.7066 0.7075
vn 0.8860 0.4392 0.1485
vn 0.7837 0.4289 0.4493
vn -0.1082 -0.8934 0.4361
vn 0.0986 -0.4546 0.8852
vn 0.3464 0.9285 0.1340
vn -0.0358 0.9619 0.2712
vn -0.8866 0.2439 0.3929
vn -0.9951 0.0532 -0.0839
vn -0.8842 0.4295 0.1839
vn -0.8744 0.3225 0.3624
vn 0.3834 0.2531 -0.8882
vn -0.8278 0.2992 0.4746
vn 0.1305 0.1682 -0.9771
vn -0.2232 -0.1253 -0.9667
vn -0.1581 -0.1942 -0.9681
vn -0.0056 -0.0559 -0.9984
vn 0.0926 -0.6752 -0.7318
vn -0.0767 -0.8542 -0.5142
vn 0.2670 -0.6320 -0.7275
vn -0.4178 -0.5171 -0.7470
vn -0.4257 -0.7061 -0.5659
vn -0.3441 -0.4788 -0.8077
vn -0.7060 -0.7078 0.0233
vn -0.3452 -0.9207 0.1820
vn -0.7531 -0.6489 0.1083
vn -0.7287 -0.6748 -0.1171
vn -0.9412 0.0790 0.3284
vn -0.4000 -0.9121 -0.0900
vn 0.5913 -0.7034 0.3944
vn -0.3421 -0.9373 0.0663
vn -0.0116 -0.9387 0.3446
vn 0.4787 -0.6442 0.5965
vn -0.3047 -0.6388 0.7065
vn -0.8177 0.3098 0.4852
vn -0.3328 0.6132 0.7164
vn 0.1430 0.7469 0.6494
vn -0.7870 0.2940 0.5424
vn -0.8793 0.4432 0.1745
vn -0.2862 -0.6845 0.6705
vn -0.9017 0.3026 0.3087
vn -0.3474 -0.0889 -0.9335
vn -0.7140 0.3506 0.6061
vn -0.9728 0.1670 -0.1604
vn -0.9210 0.3699 0.1220
vn -0.7759 -0.2905 0.5600
vn -0.3798 -0.7344 0.5624
usemtl Material_with_Texture.215
s off
f 1/1/1 2/2/1 3/3/1
f 3/3/2 4/4/2 1/1/2
f 3/5/3 5/6/3 6/7/3
f 5/6/4 3/5/4 2/8/4
f 3/5/5 7/9/5 4/10/5
f 3/5/6 6/7/6 8/11/6
f 3/5/7 8/11/7 7/9/7
f 2/12/8 9/13/8 10/14/8
f 2/12/9 1/15/9 9/13/9
f 5/16/10 2/12/10 10/14/10
f 1/1/11 11/17/11 12/18/11
f 1/15/12 12/19/12 9/13/12
f 1/1/13 13/20/13 11/17/13
f 1/1/14 4/4/14 13/20/14
f 4/4/15 14/21/15 13/20/15
f 4/4/16 15/22/16 14/21/16
f 15/23/17 4/10/17 7/9/17
f 5/6/18 16/24/18 6/7/18
f 6/25/19 16/26/19 8/27/19
f 5/16/20 10/14/20 17/28/20
f 5/16/21 17/28/21 16/29/21
f 18/30/22 15/23/22 7/9/22
f 7/9/23 19/31/23 18/30/23
f 19/32/24 7/33/24 20/34/24
f 20/34/25 7/33/25 8/27/25
f 8/27/26 21/35/26 22/36/26
f 8/27/27 22/36/27 20/34/27
f 8/27/28 16/26/28 21/35/28
f 17/28/29 10/14/29 23/37/29
f 23/37/30 10/14/30 9/13/30
f 12/19/31 24/38/31 9/13/31
f 23/37/32 9/13/32 24/38/32
f 25/39/33 24/40/33 12/41/33
f 12/41/34 11/42/34 25/39/34
f 26/43/35 11/17/35 13/20/35
f 26/44/36 25/39/36 11/42/36
f 27/45/37 28/46/37 13/20/37
f 27/45/38 13/20/38 14/21/38
f 28/47/39 29/48/39 13/49/39
f 29/50/40 26/43/40 13/20/40
f 14/51/41 15/52/41 27/53/41
f 30/54/42 15/22/42 18/55/42
f 30/54/43 27/45/43 15/22/43
f 16/26/44 31/56/44 21/35/44
f 16/29/45 17/28/45 31/57/45
f 17/58/46 32/59/46 33/60/46
f 17/61/47 34/62/47 32/63/47
f 35/64/48 34/65/48 17/66/48
f 35/67/49 17/28/49 23/37/49
f 31/57/50 17/28/50 33/68/50
f 19/31/51 36/69/51 18/30/51
f 37/70/52 30/54/52 18/55/52
f 36/71/53 37/70/53 18/55/53
f 38/72/54 36/69/54 19/31/54
f 39/73/55 38/72/55 19/31/55
f 19/32/56 20/34/56 39/74/56
f 39/74/57 20/34/57 40/75/57
f 41/76/58 20/77/58 22/78/58
f 42/79/59 20/77/59 41/76/59
f 43/80/60 40/81/60 20/77/60
f 44/82/61 43/80/61 20/77/61
f 45/83/62 20/77/62 42/79/62
f 45/83/63 44/82/63 20/77/63
f 22/84/64 46/85/64 41/86/64
f 47/87/65 46/85/65 22/84/65
f 47/88/66 22/36/66 21/35/66
f 21/35/67 31/56/67 48/89/67
f 21/35/68 48/89/68 49/90/68
f 47/88/69 21/35/69 50/91/69
f 21/35/70 49/90/70 50/91/70
f 35/67/71 23/37/71 24/38/71
f 24/40/72 51/92/72 35/64/72
f 51/92/73 24/40/73 25/39/73
f 52/93/74 25/39/74 26/44/74
f 52/93/75 51/92/75 25/39/75
f 26/44/76 29/94/76 52/93/76
f 30/95/77 53/96/77 28/97/77
f 30/54/78 28/46/78 27/45/78
f 28/46/79 53/98/79 54/99/79
f 28/47/80 54/100/80 29/48/80
f 45/101/81 29/48/81 54/100/81
f 29/48/82 45/101/82 52/102/82
f 30/54/83 37/70/83 44/103/83
f 53/98/84 30/54/84 44/103/84
f 48/104/85 31/57/85 33/68/85
f 33/105/86 32/106/86 48/107/86
f 32/106/87 50/108/87 49/109/87
f 32/106/88 55/110/88 50/108/88
f 32/106/89 49/109/89 48/107/89
f 55/111/90 32/112/90 34/113/90
f 42/79/91 55/114/91 34/65/91
f 34/65/92 56/115/92 42/79/92
f 56/115/93 34/65/93 35/64/93
f 51/92/94 56/115/94 35/64/94
f 57/116/95 36/71/95 58/117/95
f 58/117/96 36/71/96 38/118/96
f 36/71/97 57/116/97 37/70/97
f 44/103/98 37/70/98 43/119/98
f 43/119/99 37/70/99 57/116/99
f 38/72/100 39/73/100 58/120/100
f 58/120/101 39/73/101 59/121/101
f 60/122/102 59/121/102 39/73/102
f 61/123/103 60/124/103 39/74/103
f 40/75/104 61/123/104 39/74/104
f 61/123/105 40/75/105 62/125/105
f 63/126/106 40/75/106 64/127/106
f 63/126/107 62/125/107 40/75/107
f 65/128/108 64/127/108 40/75/108
f 65/129/109 40/81/109 66/130/109
f 66/130/110 40/81/110 43/80/110
f 42/131/111 41/132/111 46/133/111
f 46/133/112 55/134/112 42/131/112
f 42/79/113 56/115/113 45/83/113
f 67/135/114 43/119/114 68/136/114
f 69/137/115 68/136/115 43/119/115
f 66/130/116 43/80/116 70/138/116
f 70/139/117 43/119/117 71/140/117
f 43/119/118 57/116/118 69/137/118
f 71/140/119 43/119/119 67/135/119
f 44/82/120 45/83/120 54/141/120
f 53/98/121 44/103/121 54/99/121
f 56/142/122 52/143/122 45/144/122
f 50/108/123 55/110/123 46/145/123
f 46/145/124 47/146/124 50/108/124
f 52/93/125 56/115/125 51/92/125
f 72/147/126 69/137/126 58/117/126
f 72/148/127 58/120/127 59/121/127
f 58/117/128 69/137/128 57/116/128
f 73/149/129 72/148/129 59/121/129
f 60/122/130 74/150/130 59/121/130
f 59/121/131 74/150/131 73/149/131
f 74/150/132 60/122/132 75/151/132
f 61/123/133 75/152/133 60/124/133
f 76/153/134 75/154/134 61/155/134
f 61/123/135 62/125/135 77/156/135
f 61/123/136 77/156/136 76/157/136
f 62/158/137 78/159/137 77/160/137
f 62/125/138 63/126/138 78/161/138
f 63/162/139 64/163/139 78/164/139
f 64/163/140 65/129/140 79/165/140
f 78/164/141 64/163/141 79/165/141
f 65/129/142 80/166/142 79/165/142
f 81/167/143 65/129/143 82/168/143
f 83/169/144 65/129/144 81/167/144
f 83/169/145 80/166/145 65/129/145
f 65/129/146 66/130/146 84/170/146
f 82/168/147 65/129/147 84/170/147
f 85/171/148 66/130/148 70/138/148
f 85/171/149 84/170/149 66/130/149
f 68/136/150 86/172/150 67/135/150
f 87/173/151 68/136/151 88/174/151
f 87/173/152 86/172/152 68/136/152
f 88/174/153 68/136/153 69/137/153
f 89/175/154 71/176/154 67/177/154
f 67/177/155 90/178/155 89/175/155
f 67/177/156 86/179/156 90/178/156
f 72/180/157 91/181/157 69/182/157
f 91/181/158 88/183/158 69/182/158
f 70/138/159 89/175/159 85/171/159
f 89/184/160 70/139/160 71/140/160
f 72/148/161 73/149/161 91/185/161
f 91/185/162 73/149/162 92/186/162
f 74/187/163 75/188/163 73/189/163
f 92/190/164 73/189/164 87/191/164
f 87/191/165 73/189/165 93/192/165
f 93/192/166 73/189/166 75/188/166
f 76/157/167 94/193/167 75/152/167
f 93/192/168 75/188/168 94/194/168
f 76/157/169 95/195/169 94/193/169
f 76/157/170 93/196/170 95/195/170
f 77/156/171 93/196/171 76/157/171
f 96/197/172 93/196/172 77/156/172
f 77/156/173 78/161/173 96/197/173
f 78/164/174 79/165/174 96/198/174
f 79/199/175 80/200/175 96/197/175
f 97/201/176 98/202/176 80/200/176
f 97/201/177 80/200/177 83/203/177
f 98/202/178 96/197/178 80/200/178
f 82/168/179 99/204/179 81/167/179
f 84/170/180 100/205/180 82/168/180
f 82/206/181 100/207/181 99/208/181
f 97/209/182 81/167/182 99/204/182
f 97/210/183 83/211/183 81/212/183
f 84/170/184 101/213/184 102/214/184
f 101/213/185 84/170/185 85/171/185
f 102/214/186 100/205/186 84/170/186
f 85/171/187 89/175/187 90/178/187
f 90/178/188 101/213/188 85/171/188
f 86/179/189 103/215/189 90/178/189
f 87/191/190 103/216/190 86/217/190
f 87/173/191 88/174/191 92/218/191
f 88/174/192 91/219/192 92/218/192
f 103/216/193 87/191/193 100/207/193
f 93/192/194 100/207/194 87/191/194
f 103/215/195 101/213/195 90/178/195
f 95/220/196 93/192/196 94/194/196
f 93/196/197 96/197/197 98/202/197
f 93/192/198 98/221/198 97/222/198
f 97/222/199 99/208/199 93/192/199
f 93/192/200 99/208/200 100/207/200
f 100/207/201 102/223/201 103/216/201
f 101/213/202 103/215/202 102/214/202
