# Blender 4.3.0
# www.blender.org
mtllib prox_phalanx1_lvs.mtl
o prox_phalanx1_lvs
v 0.040697 -0.000231 0.028597
v 0.045127 -0.001220 0.026918
v 0.043004 0.000629 0.026990
v 0.038619 0.001414 0.026463
v 0.043571 -0.006189 0.029232
v 0.039869 -0.006501 0.030718
v 0.038561 -0.004894 0.030387
v 0.038310 -0.001106 0.028425
v 0.038958 0.000524 0.027520
v 0.041969 0.001464 0.024542
v 0.045603 -0.005070 0.026796
v 0.045516 -0.004230 0.021138
v 0.045295 -0.003764 0.016557
v 0.036849 0.000657 0.029098
v 0.023902 0.004469 0.018076
v 0.043059 -0.008089 0.028333
v 0.040134 -0.008412 0.029577
v 0.038846 -0.008014 0.029869
v 0.037174 -0.003493 0.028099
v 0.044175 -0.007783 0.026102
v 0.042461 -0.007414 0.021858
v 0.043823 -0.009096 0.019470
v 0.044109 -0.008539 0.016251
v 0.041473 -0.004788 0.014623
v 0.025538 0.002967 0.028451
v 0.025679 -0.000036 0.029192
v 0.023653 0.000138 0.017155
v 0.021124 0.005229 0.017791
v 0.035951 -0.003704 0.015086
v 0.021416 0.006330 0.024432
v 0.021248 0.005965 0.019257
v 0.041720 -0.009024 0.027407
v 0.039174 -0.008554 0.028136
v 0.037674 -0.005628 0.023587
v 0.025838 -0.001880 0.028292
v 0.040296 -0.007748 0.022018
v 0.040850 -0.010732 0.019652
v 0.043570 -0.009720 0.016889
v 0.041758 -0.010121 0.015746
v 0.039000 -0.010253 0.015473
v 0.037246 -0.008948 0.015207
v 0.018263 0.004468 0.030535
v 0.017747 -0.000892 0.032678
v 0.015970 0.000262 0.015155
v 0.031021 -0.004273 0.016860
v 0.019954 -0.004450 0.017508
v 0.018566 0.005311 0.017998
v 0.035347 -0.006115 0.016245
v 0.016791 0.007188 0.027217
v 0.017083 0.006859 0.019353
v 0.038576 -0.006670 0.021877
v 0.016927 -0.004654 0.018604
v 0.015620 -0.003428 0.033710
v 0.011138 -0.007091 0.031705
v 0.038117 -0.010138 0.019203
v 0.040403 -0.011181 0.016811
v 0.038760 -0.010906 0.016635
v 0.036450 -0.009464 0.016440
v 0.014616 -0.001583 0.036544
v 0.015046 0.003877 0.035478
v 0.012619 0.008442 0.033915
v 0.014190 0.006519 0.014719
v 0.015093 -0.005050 0.015810
v 0.007259 0.005362 0.013356
v 0.015700 0.009190 0.025160
v 0.013274 0.011013 0.029644
v 0.014892 0.008643 0.018753
v 0.010826 -0.007497 0.028663
v 0.009116 -0.008509 0.018042
v 0.010525 -0.007560 0.024631
v 0.010834 -0.005195 0.036687
v 0.008882 -0.006789 0.034148
v 0.010034 -0.006445 0.031321
v 0.012191 0.004171 0.036317
v 0.010536 0.009508 0.031687
v 0.010087 0.008996 0.015942
v 0.006296 0.001042 0.013351
v 0.008709 -0.007566 0.016577
v 0.007752 0.007871 0.016280
v 0.004382 -0.002263 0.016312
v 0.010185 0.010745 0.026651
v 0.008695 -0.007155 0.028917
v 0.007185 -0.007498 0.016466
v 0.008837 -0.007146 0.026688
v 0.007959 -0.007990 0.019129
v 0.005373 -0.005271 0.034437
v 0.006824 -0.007262 0.032056
v 0.004568 -0.004498 0.019417
v 0.005900 -0.006877 0.015607
v 0.003777 -0.006011 0.017356
v 0.003683 -0.005323 0.019507
v 0.004182 -0.009191 0.022193
v 0.007313 -0.009294 0.023245
v 0.001589 -0.006656 0.028597
v 0.004844 -0.008607 0.018012
v 0.006459 -0.009544 0.020155
v 0.003093 -0.006868 0.020520
v 0.001813 -0.007025 0.024268
v 0.004214 -0.008243 0.018476
v 0.003562 -0.006847 0.019810
v 0.005492 -0.008981 0.020688
v 0.003547 -0.008677 0.020630
vn 0.0988 0.5545 0.8263
vn 0.7994 0.4517 0.3961
vn 0.4477 0.7772 0.4421
vn 0.1143 0.9119 0.3942
vn 0.5913 -0.1465 0.7930
vn 0.0498 -0.1311 0.9901
vn -0.4660 0.0799 0.8812
vn 0.2926 0.4888 0.8218
vn -0.3001 0.6495 0.6987
vn 0.3911 0.9172 -0.0758
vn 0.9433 -0.1682 0.2862
vn 0.9879 -0.1548 -0.0009
vn 0.7752 0.3275 -0.5402
vn 0.2406 0.5139 0.8234
vn 0.2729 0.7299 -0.6267
vn 0.5527 -0.6785 0.4839
vn 0.0826 -0.7959 0.5997
vn -0.5732 -0.6042 0.5535
vn -0.6647 -0.4962 0.5586
vn 0.6856 -0.7278 -0.0135
vn 0.4907 -0.8292 0.2675
vn 0.7115 -0.6123 0.3449
vn 0.7632 -0.3357 -0.5522
vn 0.2016 0.2123 -0.9562
vn 0.3061 0.7179 0.6253
vn 0.2107 -0.0775 0.9745
vn 0.0388 0.0580 -0.9976
vn 0.1449 0.6491 -0.7468
vn -0.1731 0.0343 -0.9843
vn 0.3925 0.9121 0.1184
vn 0.2691 0.9236 -0.2730
vn 0.1525 -0.9862 0.0647
vn -0.5421 -0.8402 0.0114
vn -0.5503 -0.8262 0.1208
vn 0.1352 -0.7970 0.5886
vn -0.2541 -0.8880 0.3834
vn 0.1047 -0.8730 0.4763
vn 0.6711 -0.7133 -0.2020
vn 0.3068 -0.5819 -0.7532
vn -0.1287 -0.5874 -0.7990
vn -0.3890 -0.3685 -0.8443
vn 0.5672 0.5704 0.5940
vn 0.5934 0.0436 0.8037
vn 0.2613 -0.0319 -0.9647
vn -0.2829 -0.8107 -0.5125
vn 0.1269 -0.7554 -0.6429
vn 0.2424 0.6411 -0.7282
vn -0.7133 -0.5714 -0.4057
vn 0.6283 0.7378 0.2467
vn 0.4796 0.8294 -0.2863
vn -0.5594 -0.7294 0.3937
vn 0.2525 -0.9673 0.0258
vn 0.5601 -0.6001 0.5711
vn 0.0760 -0.9851 0.1542
vn -0.5709 -0.6719 0.4719
vn 0.1060 -0.9748 -0.1963
vn -0.3286 -0.9261 -0.1853
vn -0.8116 -0.5711 -0.1233
vn 0.4928 -0.1662 0.8541
vn 0.5993 0.2894 0.7464
vn 0.1150 0.6835 0.7208
vn 0.3965 0.4355 -0.8082
vn 0.3110 -0.6168 -0.7231
vn -0.4898 0.3398 -0.8029
vn 0.6225 0.7817 -0.0367
vn 0.3211 0.9162 0.2399
vn 0.4483 0.8452 -0.2908
vn 0.1489 -0.9827 0.1105
vn 0.0382 -0.9824 -0.1831
vn 0.1801 -0.9819 0.0587
vn 0.0694 -0.5105 0.8571
vn -0.0359 -0.9222 0.3850
vn -0.1718 -0.9844 0.0387
vn -0.1829 0.3360 0.9239
vn -0.6130 0.6659 0.4253
vn -0.0797 0.8673 -0.4913
vn -0.4536 0.0018 -0.8912
vn 0.1155 -0.6573 -0.7447
vn -0.7516 0.6323 -0.1881
vn -0.9685 0.1791 -0.1731
vn -0.5162 0.8564 0.0097
vn 0.0088 -0.9874 0.1582
vn 0.0166 -0.8745 -0.4848
vn 0.3024 -0.9526 0.0316
vn 0.0715 -0.9902 -0.1196
vn -0.7477 -0.1958 0.6345
vn -0.1093 -0.9685 0.2239
vn -0.8000 0.5406 0.2602
vn -0.2371 -0.4756 -0.8471
vn -0.8991 -0.1484 -0.4119
vn -0.8551 0.4271 0.2938
vn -0.3097 -0.9501 0.0372
vn 0.3776 -0.9169 0.1290
vn -0.9266 -0.1031 0.3617
vn -0.3375 -0.8337 -0.4370
vn 0.1008 -0.9807 -0.1676
vn -0.9210 0.0415 -0.3875
vn -0.9925 -0.0758 -0.0962
vn -0.7385 -0.5952 -0.3167
vn -0.9210 -0.1231 -0.3695
vn -0.2776 -0.9588 -0.0608
vn -0.6470 -0.7061 -0.2877
vt 0.932215 0.758094
vt 0.862371 0.784711
vt 0.889008 0.748806
vt 0.951560 0.718143
vt 0.909679 0.861201
vt 0.971980 0.856394
vt 0.985651 0.825979
vt 0.970832 0.761414
vt 0.952737 0.736376
vt 0.116366 0.070742
vt 0.083492 0.048269
vt 0.092535 0.006448
vt 0.948786 0.684526
vt 0.979295 0.600045
vt 1.000000 0.700665
vt 0.260563 0.000000
vt 1.000000 0.530857
vt 0.867100 0.844195
vt 0.091791 0.118391
vt 0.058801 0.137889
vt 0.215679 0.362624
vt 0.989638 0.731372
vt 0.911749 0.718143
vt 0.884565 0.697210
vt 0.970332 0.882458
vt 0.920632 0.884872
vt 0.989638 0.872405
vt 0.451309 0.886090
vt 0.456187 0.839629
vt 0.494177 0.836238
vt 0.496060 0.772745
vt 0.903547 0.663780
vt 0.912247 0.599483
vt 0.905104 0.556264
vt 0.925716 0.508485
vt 0.447189 0.063526
vt 0.433309 0.000000
vt 0.507967 0.016280
vt 0.299249 0.053047
vt 0.068027 0.319653
vt 0.871861 0.326306
vt 0.871547 0.502115
vt 0.822585 0.326997
vt 0.931944 0.508485
vt 0.331635 0.339709
vt 0.396514 0.342724
vt 0.321755 0.384593
vt 0.437384 0.150406
vt 0.113558 0.403699
vt 0.192708 0.409278
vt 0.218744 0.408465
vt 0.865915 0.679447
vt 0.604397 0.474765
vt 0.587421 0.490478
vt 0.570231 0.447291
vt 0.593920 0.433694
vt 0.565908 0.425772
vt 0.662632 0.398049
vt 0.554652 0.886090
vt 0.588374 0.379349
vt 0.590770 0.199428
vt 0.896948 0.330556
vt 0.689344 0.479621
vt 0.621515 0.506477
vt 0.554652 0.916997
vt 0.564516 0.878368
vt 0.589358 0.916997
vt 0.862371 0.553096
vt 0.688805 0.448272
vt 0.903368 0.514006
vt 0.533456 0.053375
vt 0.528891 0.022750
vt 0.537490 0.097350
vt 0.518131 0.126388
vt 0.800529 0.207841
vt 0.890917 0.192415
vt 0.036711 0.434174
vt 0.396256 0.468027
vt 0.456782 0.224261
vt 0.472868 0.397447
vt 0.218036 0.446765
vt 0.291340 0.460020
vt 0.479150 0.156072
vt 0.049186 0.874911
vt 0.103968 0.813375
vt 0.103968 0.893268
vt 0.072482 0.474523
vt 0.190894 0.476120
vt 0.690627 0.417065
vt 0.771726 0.292028
vt 0.754438 0.079303
vt 0.931944 0.155512
vt 0.554652 0.000000
vt 0.114902 0.813375
vt 0.057478 0.695393
vt 0.114902 0.631260
vt 0.730312 0.471341
vt 0.738430 0.427102
vt 0.776266 0.467301
vt 0.770669 0.508485
vt 0.779781 0.441074
vt 0.606130 0.919493
vt 0.589358 0.894584
vt 0.606130 0.878368
vt 0.554652 0.071939
vt 0.800529 0.409112
vt 0.797042 0.441884
vt 0.782326 0.399190
vt 0.873464 0.108830
vt 0.860097 0.089916
vt 0.905386 0.087900
vt 0.913511 0.132947
vt 0.349026 0.772864
vt 0.299249 0.725974
vt 0.408393 0.711780
vt 0.821450 0.000000
vt 0.854452 0.117704
vt 0.800529 0.117704
vt 0.049186 0.960838
vt 0.005743 0.885180
vt 0.049186 0.813375
vt 0.054142 0.748710
vt 0.005743 0.696000
vt 0.299249 0.500974
vt 0.323736 0.424586
vt 0.481937 0.477161
vt 0.320149 0.612318
vt 0.769391 0.124571
vt 0.781203 0.366615
vt 0.800529 0.053927
vt 0.264873 0.521834
vt 0.905386 0.000000
vt 0.093093 0.503953
vt 0.018946 0.545774
vt 0.408255 0.651973
vt 0.332636 0.678822
vt 0.192279 0.519254
vt 0.854452 0.047397
vt 0.988961 0.132947
vt 0.988961 0.358764
vt 0.966252 0.315736
vt 0.554652 0.772745
vt 0.509360 0.770300
vt 0.554652 0.675611
vt 0.451853 0.651973
vt 0.269797 0.797307
vt 0.246256 0.737552
vt 0.299249 0.628460
vt 0.030715 0.623591
vt 0.264889 0.890196
vt 0.287360 0.843080
vt 0.299249 0.925016
vt 0.266764 0.843759
vt 0.394096 0.786486
vt 0.327005 0.858652
vt 0.364126 0.930041
vt 0.443054 0.696477
vt 0.237404 0.595471
vt 0.299249 0.619817
vt 0.388422 0.624766
vt 0.548846 0.564772
vt 0.530039 0.574735
vt 0.833211 0.814661
vt 0.800588 0.867089
vt 0.665232 0.840645
vt 0.241238 0.623591
vt 0.731365 0.878368
vt 0.068346 0.593183
vt 0.000000 0.576082
vt 0.238467 0.810997
vt 0.157875 0.628453
vt 0.180978 0.623591
vt 0.197770 0.641254
vt 0.229789 0.776808
vt 0.183984 0.663974
vt 0.443054 0.947735
vt 0.208839 0.913567
vt 0.226621 0.865821
vt 0.833136 0.567921
vt 0.580224 0.563393
vt 0.750151 0.508485
vt 0.625081 0.797532
vt 0.862371 0.643946
vt 0.862371 0.816659
vt 0.519178 0.621437
vt 0.603709 0.833918
vt 0.513270 0.651973
vt 0.530196 0.599044
vt 0.608174 0.798390
vt 0.148290 0.722411
vt 0.199570 0.724959
vt 0.130961 0.837178
vt 0.966252 0.253335
vt 0.959995 0.288304
vt 0.933713 0.194157
vt 0.554652 0.632167
vt 0.135520 0.658285
vt 0.966252 0.132947
vt 0.931944 0.145426
vt 0.930115 0.051841
vt 0.905386 0.026351
vt 0.930115 0.000000
vt 0.555369 0.659387
vt 0.000000 0.653023
vt 0.005027 0.623591
vt 0.005027 0.671216
vt 0.579685 0.786528
vt 0.561716 0.728292
vt 0.551061 0.641408
vt 0.584077 0.797540
vt 0.569771 0.821933
vt 0.159373 0.694870
vt 0.129417 0.702970
vt 0.114902 0.769869
vt 0.173221 0.681170
vt 0.127071 0.668965
vt 0.554652 0.789328
s 1
usemtl Material_with_Texture.211
f 1/1/1 2/2/2 3/3/3
f 1/1/1 3/3/3 4/4/4
f 2/2/2 1/1/1 5/5/5
f 1/1/1 6/6/6 5/5/5
f 1/1/1 7/7/7 6/6/6
f 7/7/7 1/1/1 8/8/8
f 4/4/4 9/9/9 1/1/1
f 8/8/8 1/1/1 9/9/9
f 10/10/10 3/11/3 2/12/2
f 11/13/11 12/14/12 2/15/2
f 10/10/10 2/12/2 13/16/13
f 13/17/13 2/15/2 12/14/12
f 11/18/11 2/2/2 5/5/5
f 4/19/4 3/11/3 10/10/10
f 14/20/14 4/19/4 15/21/15
f 9/9/9 4/4/4 8/8/8
f 4/19/4 10/10/10 15/21/15
f 14/22/14 8/8/8 4/4/4
f 11/13/11 5/23/5 16/24/16
f 17/25/17 16/26/16 5/5/5
f 5/5/5 6/6/6 17/25/17
f 18/27/18 6/6/6 7/7/7
f 18/27/18 17/25/17 6/6/6
f 18/28/18 7/29/7 19/30/19
f 14/31/14 19/30/19 7/29/7
f 8/8/8 14/22/14 7/7/7
f 15/21/15 10/10/10 13/16/13
f 20/32/20 12/14/12 11/13/11
f 20/32/20 11/13/11 16/24/16
f 21/33/21 12/14/12 20/32/20
f 12/14/12 21/33/21 22/34/22
f 23/35/23 12/14/12 22/34/22
f 23/35/23 13/17/13 12/14/12
f 24/36/24 13/37/13 23/38/23
f 13/16/13 24/39/24 15/21/15
f 14/20/14 15/21/15 25/40/25
f 26/41/26 14/42/14 25/43/25
f 14/42/14 26/41/26 19/44/19
f 15/45/15 27/46/27 28/47/28
f 15/45/15 24/36/24 29/48/29
f 25/40/25 15/21/15 30/49/30
f 30/49/30 15/21/15 31/50/31
f 28/51/28 31/50/31 15/21/15
f 15/45/15 29/48/29 27/46/27
f 32/52/32 20/32/20 16/24/16
f 32/53/32 16/54/16 17/55/17
f 17/55/17 33/56/33 32/53/32
f 33/56/33 17/55/17 18/57/18
f 33/56/33 18/57/18 34/58/34
f 34/59/34 18/28/18 19/30/19
f 34/58/34 19/60/19 35/61/35
f 19/44/19 26/41/26 35/62/35
f 21/63/21 20/64/20 32/53/32
f 36/65/36 37/66/37 21/67/21
f 21/33/21 37/68/37 22/34/22
f 32/53/32 36/69/36 21/63/21
f 37/68/37 38/70/38 22/34/22
f 23/35/23 22/34/22 38/70/38
f 24/36/24 23/38/23 39/71/39
f 23/38/23 38/72/38 39/71/39
f 40/73/40 41/74/41 24/36/24
f 24/36/24 39/71/39 40/73/40
f 41/74/41 29/48/29 24/36/24
f 42/75/42 43/76/43 25/43/25
f 30/49/30 42/77/42 25/40/25
f 25/43/25 43/76/43 26/41/26
f 35/62/35 26/41/26 43/76/43
f 28/47/28 27/46/27 44/78/44
f 29/48/29 45/79/45 27/46/27
f 27/46/27 45/79/45 46/80/46
f 27/46/27 46/80/46 44/78/44
f 28/51/28 47/81/47 31/50/31
f 44/82/44 47/81/47 28/51/28
f 29/48/29 48/83/48 45/79/45
f 29/48/29 41/74/41 48/83/48
f 42/84/42 30/85/30 49/86/49
f 49/87/49 30/49/30 50/88/50
f 30/49/30 31/50/31 50/88/50
f 47/81/47 50/88/50 31/50/31
f 32/53/32 33/56/33 36/69/36
f 36/69/36 33/56/33 34/58/34
f 51/89/51 36/69/36 34/58/34
f 51/89/51 34/58/34 45/90/45
f 34/58/34 35/61/35 45/90/45
f 52/91/52 45/90/45 35/61/35
f 43/76/43 53/92/53 35/62/35
f 52/91/52 35/61/35 54/93/54
f 35/94/35 53/95/53 54/96/54
f 37/97/37 36/69/36 55/98/55
f 51/89/51 55/98/55 36/69/36
f 56/99/56 38/100/38 37/97/37
f 37/97/37 57/101/57 56/99/56
f 37/97/37 55/98/55 57/101/57
f 56/102/56 39/103/39 38/104/38
f 39/71/39 56/105/56 40/73/40
f 57/101/57 41/106/41 40/107/40
f 56/99/56 57/101/57 40/107/40
f 41/106/41 57/101/57 58/108/58
f 41/109/41 58/110/58 48/111/48
f 59/112/59 43/76/43 42/75/42
f 60/113/60 42/114/42 61/115/61
f 61/116/61 42/117/42 49/118/49
f 42/119/42 60/120/60 59/121/59
f 53/95/53 43/122/43 59/123/59
f 44/78/44 62/124/62 47/125/47
f 46/80/46 63/126/63 44/78/44
f 64/127/64 62/124/62 44/78/44
f 64/127/64 44/78/44 63/126/63
f 46/128/46 45/90/45 52/91/52
f 51/89/51 45/90/45 48/129/48
f 52/91/52 63/130/63 46/128/46
f 50/88/50 47/81/47 62/131/62
f 51/132/51 48/111/48 58/110/58
f 49/87/49 50/88/50 65/133/65
f 49/87/49 65/133/65 66/134/66
f 66/135/66 61/115/61 49/136/49
f 50/88/50 62/131/62 67/137/67
f 67/137/67 65/133/65 50/88/50
f 55/138/55 51/132/51 58/110/58
f 52/139/52 54/140/54 68/141/68
f 63/142/63 52/143/52 69/144/69
f 70/145/70 69/144/69 52/143/52
f 68/146/68 70/147/70 52/148/52
f 54/96/54 53/95/53 71/149/71
f 71/149/71 53/95/53 59/123/59
f 72/150/72 54/151/54 71/152/71
f 54/151/54 72/150/72 73/153/73
f 68/146/68 54/151/54 73/153/73
f 55/98/55 58/108/58 57/101/57
f 74/154/74 59/155/59 60/113/60
f 74/154/74 71/156/71 59/155/59
f 74/154/74 60/113/60 61/115/61
f 75/157/75 61/115/61 66/135/66
f 75/157/75 74/154/74 61/115/61
f 76/158/76 62/131/62 64/159/64
f 76/158/76 67/137/67 62/131/62
f 63/126/63 77/160/77 64/127/64
f 69/161/69 78/162/78 63/126/63
f 78/162/78 77/160/77 63/126/63
f 79/163/79 64/164/64 80/165/80
f 79/166/79 76/158/76 64/159/64
f 80/165/80 64/164/64 77/167/77
f 81/168/81 65/133/65 67/137/67
f 65/133/65 81/168/81 66/134/66
f 66/134/66 81/168/81 75/169/75
f 67/137/67 76/158/76 81/168/81
f 82/170/82 70/147/70 68/146/68
f 68/146/68 73/153/73 82/170/82
f 83/171/83 78/172/78 69/173/69
f 84/174/84 69/173/69 70/147/70
f 69/173/69 85/175/85 83/171/83
f 69/173/69 84/174/84 85/175/85
f 70/147/70 82/170/82 84/174/84
f 86/176/86 71/156/71 74/154/74
f 72/150/72 71/152/71 86/177/86
f 73/153/73 72/150/72 87/178/87
f 86/177/86 87/178/87 72/150/72
f 87/178/87 82/170/82 73/153/73
f 75/179/75 86/180/86 74/181/74
f 75/179/75 88/182/88 86/180/86
f 81/183/81 88/182/88 75/179/75
f 79/163/79 81/183/81 76/184/76
f 89/185/89 77/160/77 78/162/78
f 77/167/77 90/186/90 80/165/80
f 77/160/77 89/185/89 90/187/90
f 78/162/78 83/188/83 89/185/89
f 88/182/88 79/163/79 80/165/80
f 79/163/79 88/182/88 81/183/81
f 80/165/80 90/186/90 91/189/91
f 91/189/91 88/182/88 80/165/80
f 82/170/82 92/190/92 93/191/93
f 92/190/92 82/170/82 94/192/94
f 84/193/84 82/194/82 93/195/93
f 94/192/94 82/170/82 87/178/87
f 95/196/95 89/185/89 83/188/83
f 85/175/85 95/197/95 83/171/83
f 84/193/84 93/195/93 85/198/85
f 96/199/96 85/198/85 93/195/93
f 85/200/85 96/201/96 95/202/95
f 87/178/87 86/177/86 94/192/94
f 88/182/88 94/203/94 86/180/86
f 91/204/91 97/205/97 88/206/88
f 97/207/97 98/208/98 88/182/88
f 88/182/88 98/208/98 94/203/94
f 90/187/90 89/185/89 95/196/95
f 99/209/99 90/187/90 95/196/95
f 91/189/91 90/186/90 100/210/100
f 100/210/100 90/186/90 99/211/99
f 100/210/100 97/207/97 91/189/91
f 101/212/101 93/191/93 92/190/92
f 92/190/92 102/213/102 101/212/101
f 92/190/92 98/214/98 102/213/102
f 98/214/98 92/190/92 94/192/94
f 101/212/101 96/215/96 93/191/93
f 95/197/95 96/215/96 101/212/101
f 101/212/101 99/216/99 95/197/95
f 97/207/97 100/210/100 102/217/102
f 97/207/97 102/217/102 98/208/98
f 102/217/102 100/210/100 99/211/99
f 101/212/101 102/213/102 99/216/99
