# Blender v3.5.0 OBJ File: ''
# www.blender.org
mtllib prox_phalanx4_rvs.mtl
o prox_phalanx4_rvs
v -0.017121 0.003830 0.028959
v -0.014654 0.001585 0.028375
v -0.016806 0.000541 0.026927
v -0.016406 0.004653 0.031215
v -0.018974 0.006239 0.031010
v -0.019436 0.006493 0.028799
v -0.019067 0.004956 0.026457
v -0.019121 0.005904 0.027653
v -0.011225 0.001385 0.029250
v -0.006872 0.002166 0.031475
v -0.013114 -0.001366 0.028101
v -0.016462 -0.003317 0.026823
v -0.018713 -0.000585 0.024209
v -0.015474 0.003812 0.032928
v -0.011339 0.002530 0.034307
v -0.019242 0.005055 0.033053
v -0.019780 0.006605 0.031120
v -0.019770 0.005551 0.027568
v -0.020976 0.005396 0.033652
v -0.021344 -0.001683 0.023938
v -0.019682 0.004565 0.026568
v -0.011236 -0.001156 0.028699
v -0.003699 0.001496 0.035227
v -0.002824 0.000100 0.031363
v 0.000398 0.000861 0.034379
v -0.013374 -0.002110 0.028268
v -0.019965 -0.004470 0.026792
v -0.017982 -0.004436 0.030106
v -0.018933 -0.003647 0.024882
v -0.018672 -0.002772 0.024688
v -0.019154 -0.002344 0.024080
v -0.017560 0.003927 0.033226
v -0.016197 0.002449 0.033374
v -0.017537 -0.003732 0.031446
v -0.012136 -0.002611 0.033010
v -0.001884 -0.003860 0.036562
v -0.016748 0.000012 0.032846
v -0.021713 0.003849 0.034782
v -0.020116 0.002020 0.033924
v -0.023065 -0.001625 0.033667
v -0.019460 -0.002869 0.024430
v -0.021796 -0.004146 0.025466
v -0.022951 -0.003480 0.025814
v -0.012095 -0.002777 0.031623
v -0.000939 -0.001376 0.031683
v 0.003083 -0.001883 0.038809
v 0.000083 -0.001204 0.038203
v 0.001649 0.000058 0.031871
v 0.006156 0.000446 0.032630
v 0.005806 0.000109 0.035299
v -0.021990 -0.005471 0.029909
v -0.019480 -0.004167 0.031112
v -0.020216 -0.003685 0.031943
v -0.020961 -0.004794 0.030607
v 0.003626 -0.005569 0.035079
v 0.000438 -0.005253 0.036101
v -0.000499 -0.004795 0.036899
v 0.002177 -0.004114 0.034091
v -0.021426 -0.002398 0.033499
v -0.022331 0.002144 0.034863
v -0.021831 0.001553 0.034786
v -0.023972 -0.004603 0.031376
v -0.022980 -0.004191 0.032481
v -0.023829 -0.005086 0.030555
v 0.002095 -0.002440 0.031792
v 0.001609 -0.001207 0.031824
v 0.007457 -0.000986 0.035383
v 0.006485 -0.003263 0.039116
v 0.002778 -0.003171 0.038796
v 0.002166 -0.000989 0.031525
v 0.006744 -0.003900 0.031606
v 0.007545 -0.000642 0.032924
v 0.003470 -0.005285 0.030928
v -0.021735 -0.004868 0.030871
v -0.023313 -0.004989 0.031515
v -0.021120 -0.003990 0.032487
v 0.005037 -0.005337 0.035561
v 0.001577 -0.007220 0.035783
v 0.005359 -0.005979 0.032300
v -0.000137 -0.006053 0.036562
v 0.000837 -0.007319 0.036401
v 0.006813 -0.004863 0.038458
v 0.007395 -0.003058 0.036321
v 0.008043 -0.002520 0.033677
v 0.002970 -0.007879 0.036705
v 0.006330 -0.005920 0.038001
v 0.004332 -0.007472 0.037135
v 0.006358 -0.005255 0.031992
v 0.005437 -0.005604 0.031490
v 0.007661 -0.003868 0.033382
v 0.006215 -0.004470 0.036139
v 0.003542 -0.007570 0.035938
v 0.007478 -0.003938 0.034326
v 0.006835 -0.005146 0.033396
v 0.005800 -0.006448 0.036735
vt 0.474767 0.081453
vt 0.430441 0.152459
vt 0.383657 0.103261
vt 0.531283 0.102964
vt 0.549997 0.030652
vt 0.512147 0.007209
vt 0.443777 0.015707
vt 0.481511 0.013268
vt 0.447881 0.237692
vt 0.507703 0.343658
vt 0.379281 0.208760
vt 0.319436 0.139435
vt 0.312069 0.054120
vt 0.862588 0.141469
vt 0.881567 0.252308
vt 0.821893 0.108213
vt 0.795974 0.351534
vt 0.817579 0.035553
vt 0.875589 0.044084
vt 0.821323 0.014239
vt 0.768348 0.016155
vt 0.473367 0.000441
vt 0.339720 0.720010
vt 0.413898 0.705717
vt 0.468899 0.724944
vt 0.488868 0.758351
vt 0.515623 0.961217
vt 0.506257 0.788191
vt 0.515623 0.776359
vt 0.285844 0.000000
vt 0.493740 0.745567
vt 0.438728 0.004912
vt 0.396250 0.253646
vt 0.868094 0.442409
vt 0.477110 0.452279
vt 0.549997 0.536069
vt 0.831526 0.540898
vt 0.604539 0.515058
vt 0.606890 0.470191
vt 0.614686 0.515364
vt 0.536356 0.764540
vt 0.546247 0.705717
vt 0.546247 0.781919
vt 0.631509 0.659225
vt 0.605646 0.584726
vt 0.697803 0.601019
vt 0.575971 0.647477
vt 0.100427 0.762759
vt 0.100427 0.808195
vt 0.077406 0.764990
vt 0.285543 0.073697
vt 0.115377 0.806232
vt 0.127075 0.762759
vt 0.127075 0.814698
vt 0.280510 0.056360
vt 0.267153 0.599044
vt 0.280510 0.696022
vt 0.262657 0.648980
vt 0.264736 0.488631
vt 0.235011 0.607802
vt 0.070945 0.612418
vt 0.131765 0.483935
vt 0.171949 0.220181
vt 0.280510 0.296566
vt 0.171804 0.609490
vt 0.253054 0.743934
vt 0.211362 0.698177
vt 0.895796 0.002595
vt 0.939282 0.000000
vt 0.280510 0.891683
vt 0.298854 0.750427
vt 0.563243 0.666951
vt 0.554327 0.721387
vt 0.549997 0.664674
vt 0.608446 0.709317
vt 0.618535 0.739956
vt 0.449893 0.996735
vt 0.690329 0.468667
vt 0.621814 0.215601
vt 0.756944 0.203110
vt 0.461479 0.508511
vt 0.940342 0.637536
vt 0.937682 0.560150
vt 0.254128 0.182352
vt 0.491557 0.558727
vt 0.517736 0.663993
vt 0.828196 0.676419
vt 0.763332 0.674137
vt 0.721779 0.688826
vt 0.049877 0.657801
vt 0.043343 0.623251
vt 0.063586 0.675675
vt 0.722069 0.590732
vt 0.025182 0.691535
vt 0.747964 0.652382
vt 0.000000 0.714689
vt 0.564337 0.648163
vt 0.721837 0.465880
vt 0.703409 0.066624
vt 0.742580 0.140287
vt 0.763332 0.162737
vt 0.158427 0.180843
vt 0.678802 0.114464
vt 0.099020 0.707166
vt 0.210868 0.749392
vt 0.198688 0.734408
vt 0.281914 0.792190
vt 0.307966 0.983323
vt 0.111055 0.750267
vt 0.043155 0.737881
vt 0.021585 0.762759
vt 0.744376 0.732542
vt 0.324792 1.000000
vt 0.614731 0.136302
vt 0.450037 0.587265
vt 0.470066 0.566984
vt 0.830578 0.723541
vt 0.940342 0.728616
vt 0.223925 0.105196
vt 0.240332 0.014578
vt 0.255582 0.104750
vt 0.779180 0.830557
vt 0.783483 0.817663
vt 0.799182 0.843296
vt 0.468710 0.576801
vt 0.428663 0.704938
vt 0.507301 0.705717
vt 0.389345 0.636059
vt 0.771848 0.715677
vt 0.021821 0.708988
vt 0.016387 0.744421
vt 0.763332 0.717669
vt 0.272544 0.813059
vt 0.265699 0.794288
vt 0.272544 0.762759
vt 0.536356 0.747934
vt 0.515623 0.753262
vt 0.522270 0.705717
vt 0.536356 0.794390
vt 0.705456 0.033319
vt 0.741731 0.100783
vt 0.605560 0.087011
vt 0.000000 0.810713
vt 0.024294 0.762759
vt 0.024294 0.836793
vt 0.631784 0.032793
vt 0.100427 0.799734
vt 0.115377 0.762759
vt 0.115377 0.819305
vt 0.272544 0.792550
vt 0.280510 0.762759
vt 0.280510 0.846492
vt 0.101725 0.136575
vt 0.128219 0.166350
vt 0.768225 0.797527
vt 0.715559 0.761823
vt 0.799182 0.739956
vt 0.056135 0.694194
vt 0.761173 0.736389
vt 0.054018 0.762759
vt 0.077406 0.805813
vt 0.045499 0.805813
vt 0.572341 0.740125
vt 0.611852 0.744578
vt 0.549997 0.848805
vt 0.587768 0.810856
vt 0.596054 0.879208
vt 0.564395 0.908153
vt 0.199764 0.000000
vt 0.100084 0.081355
vt 0.169719 0.007269
vt 0.118580 0.049519
vt 0.653840 0.908153
vt 0.682790 0.886513
vt 0.700912 0.889880
vt 0.397153 0.686767
vt 0.631079 0.873197
vt 0.610023 0.036462
vt 0.660095 0.796671
vt 0.628169 0.797110
vt 0.715559 0.761916
vt 0.045499 0.834745
vt 0.024294 0.806819
vt 0.045499 0.762759
vt 0.625108 0.850028
vt 0.664490 0.858087
vt 0.643899 0.000000
vt 0.839379 0.739956
vt 0.841654 0.789848
vt 0.829006 0.769450
vt 0.810123 0.821366
vt 0.828565 0.837599
vt 0.702285 0.868003
vt 0.614448 0.015445
vt 0.642536 0.743947
vt 0.799182 0.850091
vt 0.697446 0.739956
vt 0.669202 0.765644
vt 0.812322 0.882903
vt 0.841654 0.887444
vn 0.2862 0.5233 -0.8026
vn 0.4986 0.7514 -0.4321
vn 0.7546 0.6510 -0.0829
vn 0.8075 0.3641 -0.4642
vn 0.5478 0.7150 -0.4344
vn 0.7525 0.6466 -0.1255
vn 0.7741 0.5126 -0.3714
vn 0.2115 0.7161 -0.6651
vn 0.2072 0.7257 -0.6561
vn 0.2381 0.2123 -0.9478
vn 0.5332 0.0703 -0.8431
vn 0.2532 0.2196 -0.9421
vn 0.7177 0.3007 -0.6281
vn 0.7981 0.0872 -0.5961
vn 0.1641 0.9179 0.3614
vn 0.2376 0.9375 0.2543
vn 0.5125 0.8476 0.1373
vn 0.2849 0.8126 0.5083
vn 0.4142 0.7629 0.4965
vn 0.4154 0.9095 0.0177
vn -0.3612 0.7852 -0.5029
vn -0.8416 0.5189 -0.1498
vn -0.8494 0.5044 -0.1555
vn -0.4251 0.4449 -0.7883
vn -0.0598 0.3720 -0.9263
vn -0.5175 0.6590 -0.5458
vn -0.2757 0.6722 -0.6871
vn 0.4195 0.1906 -0.8875
vn 0.2765 0.2025 -0.9394
vn 0.1254 0.9896 0.0706
vn 0.3605 0.7374 -0.5712
vn 0.1611 0.9861 0.0399
vn 0.2071 0.4527 -0.8673
vn 0.3198 -0.3125 -0.8945
vn 0.5063 -0.3535 -0.7866
vn 0.3092 -0.9347 -0.1754
vn 0.4092 -0.9047 -0.1189
vn 0.3059 -0.9232 -0.2325
vn 0.6085 -0.3404 -0.7168
vn 0.6682 -0.1472 -0.7293
vn 0.7287 -0.1334 -0.6717
vn 0.0805 0.0528 -0.9954
vn 0.1513 0.3665 0.9180
vn -0.1799 0.3908 0.9027
vn 0.1501 0.2346 0.9604
vn -0.2331 -0.2038 0.9509
vn -0.3415 -0.1798 0.9225
vn -0.0884 0.2126 0.9731
vn -0.1832 -0.1684 0.9685
vn -0.0999 -0.3299 0.9387
vn 0.5438 0.0831 0.8351
vn 0.0724 0.2558 0.9640
vn 0.3363 0.7782 0.5304
vn 0.3691 0.4271 0.8254
vn -0.9759 0.1063 -0.1907
vn -0.9384 0.2788 -0.2041
vn -0.9331 0.2771 -0.2292
vn -0.0990 -0.5114 -0.8536
vn -0.3972 -0.7451 -0.5357
vn 0.4333 -0.5312 -0.7281
vn -0.4688 -0.4019 -0.7866
vn -0.1474 -0.5696 -0.8086
vn -0.9331 0.3185 -0.1670
vn -0.8084 0.5701 -0.1464
vn 0.4394 -0.8341 -0.3333
vn 0.1068 -0.8943 -0.4346
vn 0.1253 -0.8829 -0.4526
vn 0.2782 0.1495 -0.9488
vn 0.2223 0.8834 0.4125
vn 0.0445 0.7674 0.6397
vn -0.6261 -0.0179 0.7795
vn 0.0415 0.9574 -0.2859
vn 0.1119 -0.0720 -0.9911
vn -0.0281 0.9478 -0.3175
vn 0.1131 0.9838 0.1391
vn 0.0322 0.8583 0.5121
vn 0.3301 -0.8938 -0.3035
vn 0.2540 -0.9567 -0.1422
vn 0.0362 -0.9581 -0.2841
vn 0.3381 -0.6526 0.6780
vn 0.1433 -0.8949 0.4226
vn 0.1860 -0.8442 0.5027
vn 0.0672 -0.8923 0.4465
vn 0.1882 -0.8290 0.5266
vn 0.3299 -0.2971 -0.8960
vn 0.3082 -0.6455 -0.6988
vn 0.2865 -0.0335 0.9575
vn -0.2631 -0.1471 0.9535
vn 0.1627 -0.3755 0.9124
vn 0.1677 -0.9783 0.1220
vn -0.1586 -0.9809 0.1127
vn -0.3176 -0.2245 -0.9213
vn -0.5298 -0.8361 -0.1422
vn -0.3893 -0.2580 0.8842
vn -0.3415 -0.8092 -0.4781
vn -0.3787 -0.7476 -0.5456
vn 0.2152 -0.1565 0.9639
vn 0.3838 -0.5425 0.7472
vn 0.1456 -0.0058 0.9893
vn 0.4537 -0.0218 0.8909
vn -0.8680 0.2957 -0.3990
vn 0.4858 -0.2253 0.8445
vn -0.9285 0.3582 -0.0981
vn -0.0412 -0.2949 0.9546
vn -0.1057 -0.4201 0.9013
vn -0.6322 -0.3422 0.6951
vn -0.2913 -0.9132 -0.2850
vn -0.5450 -0.7582 -0.3578
vn -0.9839 0.0117 -0.1783
vn -0.2554 -0.7859 -0.5631
vn 0.0521 0.0464 -0.9976
vn 0.0529 0.0354 -0.9980
vn 0.3894 0.6381 0.6642
vn 0.2703 0.7891 0.5517
vn -0.0857 0.0102 0.9963
vn -0.1902 0.0351 0.9811
vn -0.3843 -0.2594 0.8860
vn -0.4869 0.0478 -0.8722
vn 0.1238 0.3660 -0.9224
vn 0.3912 0.2609 -0.8826
vn 0.0981 0.2408 -0.9656
vn 0.1967 0.1933 -0.9612
vn 0.5937 0.7937 0.1323
vn 0.5380 0.8246 0.1747
vn 0.2545 -0.8483 0.4643
vn -0.1425 -0.9742 0.1750
vn 0.2411 -0.8498 0.4687
vn 0.2278 -0.8776 0.4217
vn 0.1763 -0.7756 0.6061
vn 0.5673 -0.3614 0.7400
vn 0.4558 -0.8433 0.2847
vn 0.3333 -0.6883 -0.6443
vn -0.7007 -0.7131 -0.0225
vn -0.3074 -0.0242 -0.9513
vn 0.0917 -0.9753 0.2011
vn -0.3100 -0.9492 -0.0533
vn -0.6993 -0.3000 -0.6489
vn -0.3164 0.1594 -0.9351
vn -0.3337 -0.3494 0.8755
vn -0.2657 -0.3201 0.9094
vn -0.9014 -0.3647 -0.2334
vn 0.0543 -0.5282 0.8474
vn -0.2406 -0.3228 0.9154
vn -0.5269 -0.7695 0.3609
vn -0.4812 -0.5871 0.6509
vn 0.0947 -0.8894 0.4472
vn 0.2848 -0.7849 0.5503
vn -0.4238 -0.1438 -0.8943
vn -0.6721 -0.1021 -0.7334
vn 0.9530 0.0746 0.2936
vn 0.9195 0.1390 0.3678
vn 0.9562 0.2832 0.0738
vn 0.9635 0.0860 0.2536
vn -0.0887 -0.3943 0.9147
vn -0.2319 -0.4027 0.8855
vn -0.0759 -0.3663 0.9274
vn -0.0955 -0.3885 0.9165
vn -0.1626 -0.4060 0.8993
vn 0.5488 -0.3699 -0.7497
vn 0.8444 0.0091 -0.5357
vn 0.2531 -0.1288 -0.9588
vn 0.8795 -0.1505 -0.4514
vn 0.8324 -0.3577 -0.4233
vn -0.0264 -0.9062 -0.4221
vn 0.6545 -0.5293 -0.5399
vn 0.0427 -0.1941 -0.9801
vn 0.5433 -0.8285 0.1354
vn 0.6039 -0.6626 0.4431
vn 0.3546 -0.9102 0.2142
vn -0.5735 -0.3468 -0.7422
vn -0.1864 -0.9105 -0.3691
vn -0.1224 -0.8856 -0.4481
vn 0.5566 -0.8213 -0.1253
vn 0.4859 -0.8101 -0.3282
vn 0.7517 -0.5903 -0.2939
vn 0.9124 -0.2937 -0.2851
vn 0.7099 -0.6330 0.3088
vn 0.9397 -0.2967 0.1700
vn 0.9400 -0.3014 0.1599
vn 0.3229 -0.9365 -0.1365
vn 0.5862 -0.8051 0.0904
vn 0.9223 -0.2753 -0.2713
vn 0.5023 -0.8233 -0.2641
vn 0.8150 -0.5293 -0.2358
vn 0.8342 -0.5378 0.1218
vn 0.4597 -0.3432 -0.8191
usemtl Material_with_Texture.218
s off
f 1/1/1 2/2/1 3/3/1
f 4/4/2 1/1/2 5/5/2
f 1/1/3 6/6/3 5/5/3
f 3/3/4 7/7/4 1/1/4
f 1/1/5 4/4/5 2/2/5
f 8/8/6 6/6/6 1/1/6
f 8/8/7 1/1/7 7/7/7
f 9/9/8 2/2/8 10/10/8
f 4/4/9 10/10/9 2/2/9
f 2/2/10 11/11/10 12/12/10
f 2/2/11 12/12/11 3/3/11
f 11/11/12 2/2/12 9/9/12
f 3/3/13 13/13/13 7/7/13
f 13/13/14 3/3/14 12/12/14
f 14/14/15 15/15/15 4/16/15
f 4/16/16 15/15/16 10/17/16
f 4/16/17 5/18/17 14/14/17
f 14/14/18 5/18/18 16/19/18
f 16/19/19 5/18/19 17/20/19
f 6/21/20 17/20/20 5/18/20
f 6/6/21 8/8/21 18/22/21
f 19/23/22 17/24/22 6/25/22
f 18/26/23 19/23/23 6/25/23
f 20/27/24 21/28/24 7/29/24
f 13/13/25 20/30/25 7/7/25
f 8/31/26 7/29/26 21/28/26
f 8/8/27 21/32/27 18/22/27
f 22/33/28 9/9/28 10/10/28
f 9/9/29 22/33/29 11/11/29
f 15/15/30 23/34/30 10/17/30
f 24/35/31 10/10/31 25/36/31
f 25/37/32 10/17/32 23/34/32
f 10/10/33 24/35/33 22/33/33
f 11/38/34 22/39/34 26/40/34
f 26/41/35 12/42/35 11/43/35
f 27/44/36 12/45/36 28/46/36
f 12/45/37 26/40/37 28/46/37
f 29/47/38 12/45/38 27/44/38
f 30/48/39 12/49/39 29/50/39
f 13/13/40 12/12/40 30/51/40
f 31/52/41 13/53/41 30/54/41
f 31/55/42 20/30/42 13/13/42
f 14/56/43 16/57/43 32/58/43
f 15/59/44 14/56/44 33/60/44
f 14/56/45 32/58/45 33/60/45
f 34/61/46 35/62/46 15/59/46
f 15/59/47 35/62/47 36/63/47
f 36/63/48 23/64/48 15/59/48
f 37/65/49 15/59/49 33/60/49
f 15/59/50 37/65/50 34/61/50
f 38/66/51 39/67/51 16/57/51
f 39/67/52 32/58/52 16/57/52
f 17/20/53 19/68/53 16/19/53
f 38/69/54 16/19/54 19/68/54
f 19/23/55 18/26/55 21/28/55
f 21/28/56 40/70/56 19/23/56
f 38/71/57 19/23/57 40/70/57
f 41/72/58 20/73/58 31/74/58
f 29/47/59 27/44/59 20/73/59
f 27/44/60 42/75/60 20/73/60
f 43/76/61 20/73/61 42/75/61
f 29/47/62 20/73/62 41/72/62
f 21/28/63 20/27/63 40/70/63
f 20/27/64 43/77/64 40/70/64
f 22/39/65 44/78/65 26/40/65
f 22/39/66 45/79/66 36/80/66
f 22/39/67 36/80/67 44/78/67
f 45/81/68 22/33/68 24/35/68
f 23/34/69 46/82/69 25/37/69
f 47/83/70 46/82/70 23/34/70
f 36/63/71 47/84/71 23/64/71
f 48/85/72 24/35/72 25/36/72
f 45/81/73 24/35/73 48/85/73
f 48/85/74 25/36/74 49/86/74
f 25/37/75 50/87/75 49/88/75
f 50/87/76 25/37/76 46/82/76
f 26/40/77 44/78/77 28/46/77
f 28/46/78 51/89/78 27/44/78
f 27/44/79 51/89/79 42/75/79
f 52/90/80 28/91/80 53/92/80
f 34/93/81 28/46/81 44/78/81
f 54/94/82 28/91/82 52/90/82
f 34/93/83 53/95/83 28/46/83
f 28/91/84 54/94/84 51/96/84
f 30/97/85 29/47/85 41/72/85
f 31/74/86 30/97/86 41/72/86
f 39/67/87 37/65/87 32/58/87
f 33/60/88 32/58/88 37/65/88
f 53/92/89 34/61/89 37/65/89
f 35/98/90 34/93/90 44/78/90
f 35/98/91 44/78/91 36/80/91
f 36/80/92 55/99/92 56/100/92
f 57/101/93 36/80/93 56/100/93
f 36/63/94 57/102/94 47/84/94
f 45/79/95 58/103/95 36/80/95
f 58/103/96 55/99/96 36/80/96
f 37/65/97 39/67/97 59/104/97
f 37/65/98 59/104/98 53/92/98
f 60/105/99 61/106/99 38/66/99
f 39/67/100 38/66/100 61/106/100
f 60/107/101 38/71/101 40/70/101
f 39/67/102 61/106/102 59/104/102
f 40/70/103 43/77/103 62/108/103
f 60/105/104 40/109/104 59/104/104
f 40/109/105 63/110/105 59/104/105
f 62/111/106 63/110/106 40/109/106
f 51/89/107 64/112/107 42/75/107
f 43/76/108 42/75/108 64/112/108
f 62/108/109 43/77/109 64/113/109
f 65/114/110 58/103/110 45/79/110
f 65/115/111 45/81/111 66/116/111
f 45/81/112 48/85/112 66/116/112
f 67/117/113 50/87/113 46/82/113
f 68/118/114 67/117/114 46/82/114
f 69/119/115 68/120/115 46/121/115
f 47/84/116 69/119/116 46/121/116
f 69/119/117 47/84/117 57/102/117
f 70/122/118 66/123/118 48/124/118
f 70/125/119 48/85/119 49/86/119
f 71/126/120 49/86/120 72/127/120
f 73/128/121 49/86/121 71/126/121
f 73/128/122 70/125/122 49/86/122
f 67/117/123 72/129/123 49/88/123
f 50/87/124 67/117/124 49/88/124
f 74/130/125 75/131/125 51/96/125
f 51/89/126 75/132/126 64/112/126
f 74/130/127 51/96/127 54/94/127
f 74/133/128 54/134/128 52/135/128
f 74/130/129 52/90/129 53/92/129
f 76/136/130 53/137/130 59/138/130
f 76/136/131 74/139/131 53/137/131
f 77/140/132 78/141/132 55/99/132
f 58/103/133 73/142/133 55/99/133
f 78/143/134 56/144/134 55/145/134
f 77/140/135 55/99/135 79/146/135
f 55/99/136 73/142/136 79/146/136
f 56/147/137 78/148/137 57/149/137
f 80/150/138 57/151/138 78/152/138
f 81/153/139 69/119/139 57/102/139
f 57/102/140 80/154/140 81/153/140
f 65/155/141 73/156/141 58/157/141
f 76/158/142 59/104/142 63/110/142
f 61/106/143 60/105/143 59/104/143
f 75/132/144 62/159/144 64/112/144
f 75/131/145 63/110/145 62/111/145
f 63/160/146 74/161/146 76/162/146
f 63/110/147 75/131/147 74/130/147
f 65/155/148 66/123/148 70/122/148
f 73/156/149 65/155/149 70/122/149
f 68/163/150 82/164/150 67/165/150
f 82/164/151 83/166/151 67/165/151
f 84/167/152 72/168/152 67/165/152
f 67/165/153 83/166/153 84/167/153
f 69/119/154 82/169/154 68/120/154
f 85/170/155 69/119/155 81/153/155
f 86/171/156 82/169/156 69/119/156
f 87/172/157 86/171/157 69/119/157
f 85/170/158 87/172/158 69/119/158
f 71/173/159 88/174/159 89/175/159
f 84/167/160 71/173/160 72/168/160
f 71/126/161 89/176/161 73/128/161
f 71/173/162 84/167/162 90/177/162
f 88/174/163 71/173/163 90/177/163
f 79/146/164 73/142/164 89/178/164
f 77/179/165 91/180/165 92/181/165
f 77/182/166 92/183/166 78/184/166
f 91/180/167 77/179/167 93/185/167
f 93/185/168 77/179/168 94/186/168
f 77/140/169 79/146/169 94/187/169
f 80/188/170 78/189/170 81/190/170
f 85/191/171 81/190/171 78/189/171
f 85/191/172 78/189/172 92/192/172
f 94/186/173 79/193/173 88/174/173
f 89/178/174 88/194/174 79/146/174
f 82/164/175 91/180/175 83/166/175
f 82/164/176 86/195/176 91/180/176
f 93/185/177 83/166/177 91/180/177
f 93/185/178 84/167/178 83/166/178
f 90/177/179 84/167/179 93/185/179
f 92/192/180 87/196/180 85/191/180
f 87/197/181 95/198/181 86/195/181
f 91/180/182 86/195/182 95/198/182
f 95/199/183 87/196/183 92/192/183
f 88/174/184 90/177/184 94/186/184
f 90/177/185 93/185/185 94/186/185
f 95/199/186 92/192/186 91/200/186
