# Blender v3.5.0 OBJ File: ''
# www.blender.org
mtllib prox_phalanx2_rvs.mtl
o prox_phalanx2_rvs
v 0.036491 -0.000792 0.002177
v 0.038608 -0.001898 0.003232
v 0.035569 -0.005690 0.001857
v 0.037485 -0.000718 0.003899
v 0.033429 -0.003932 0.001772
v 0.033792 -0.000513 0.002980
v 0.038914 -0.003618 0.004832
v 0.037496 -0.005160 0.002583
v 0.038613 -0.001863 0.005640
v 0.033802 -0.006620 0.002434
v 0.034821 -0.006809 0.002702
v 0.032954 -0.002010 0.010901
v 0.037212 -0.001909 0.009229
v 0.027470 0.000375 0.006841
v 0.032483 -0.003664 0.002806
v 0.032261 -0.001171 0.002214
v 0.033220 -0.005987 0.002526
v 0.037933 -0.003795 0.008894
v 0.036957 -0.006397 0.003608
v 0.033968 -0.006855 0.003504
v 0.035880 -0.007023 0.004255
v 0.024581 -0.001997 0.008585
v 0.031431 -0.004288 0.010966
v 0.034744 -0.004126 0.012281
v 0.037322 -0.003463 0.012024
v 0.037676 -0.004907 0.010978
v 0.010398 0.003357 0.004811
v 0.022576 0.001086 0.002331
v 0.032565 -0.004879 0.005872
v 0.027009 -0.002615 0.002437
v 0.022064 -0.001571 0.001049
v 0.035998 -0.005836 0.007947
v 0.034718 -0.007821 0.008897
v 0.036696 -0.006750 0.009706
v 0.034470 -0.006096 0.007417
v 0.015922 -0.003834 0.005863
v 0.026428 -0.003894 0.008718
v 0.030293 -0.004991 0.009665
v 0.031237 -0.007009 0.009507
v 0.035135 -0.007293 0.011144
v 0.036364 -0.007047 0.011038
v 0.037172 -0.005266 0.011797
v 0.008891 0.005122 0.001545
v 0.007379 0.005308 0.001815
v 0.013486 0.003292 0.002548
v 0.006444 0.004832 0.005018
v 0.005872 0.004269 0.006132
v 0.004876 0.002990 0.007106
v 0.005080 0.001570 0.007420
v 0.008750 -0.000165 0.005527
v 0.009813 0.003885 0.000048
v 0.019703 0.000199 0.000617
v 0.032403 -0.004973 0.006830
v 0.015877 -0.004447 0.004187
v 0.010956 -0.003928 -0.001050
v 0.034268 -0.007998 0.010201
v 0.033058 -0.007858 0.009883
v 0.032655 -0.007501 0.008503
v 0.032229 -0.005569 0.007798
v 0.009756 -0.003562 0.004798
v 0.031252 -0.005546 0.008342
v 0.031761 -0.006472 0.008428
v 0.008722 0.005076 -0.000972
v 0.007448 0.004160 -0.002389
v 0.007718 0.005003 -0.001321
v 0.004841 -0.002586 -0.003804
v 0.003536 -0.002651 0.001200
v 0.002094 -0.003934 0.005784
v 0.004466 0.002160 0.007358
v 0.003621 -0.000551 0.007253
v 0.005806 -0.003708 0.006251
v 0.006801 -0.003437 0.005496
v 0.010640 0.000614 -0.001941
v 0.008501 0.003491 -0.003546
v 0.010089 -0.003137 -0.001953
v 0.007565 -0.003958 0.004612
v 0.008899 -0.004227 -0.002257
v 0.008146 0.001113 -0.004756
v 0.005048 -0.003151 -0.004638
v 0.004300 -0.003615 -0.003960
v 0.003964 -0.003490 -0.003279
v 0.003331 -0.003895 -0.002798
v 0.002066 -0.004135 0.000634
v 0.002254 -0.004254 -0.001385
v 0.001902 -0.004683 0.004989
v 0.001507 -0.004496 0.001182
v 0.002726 -0.004647 0.005758
v 0.005335 -0.004708 0.005020
v 0.008239 -0.002761 -0.004706
v 0.003655 -0.005022 -0.002206
v 0.007842 -0.003529 -0.004437
v 0.007023 -0.003423 -0.004773
v 0.001874 -0.004337 -0.000548
vt 0.439503 0.960375
vt 0.390340 0.923134
vt 0.487261 0.846873
vt 0.269503 0.757935
vt 0.250604 0.790228
vt 0.233395 0.728533
vt 0.529732 0.900201
vt 0.499035 0.981112
vt 0.265734 0.667477
vt 0.260441 0.944762
vt 0.319069 0.991582
vt 0.237089 0.983490
vt 0.435781 0.849981
vt 0.308306 0.799962
vt 0.228114 0.925211
vt 0.531593 0.833624
vt 0.507194 0.823920
vt 0.390340 0.975250
vt 0.360424 1.000000
vt 0.463750 0.692322
vt 0.401707 0.782781
vt 0.388459 0.530778
vt 0.495642 0.776736
vt 0.511313 0.749872
vt 0.542332 0.787034
vt 0.541896 0.972881
vt 0.471972 0.736440
vt 0.541896 0.851892
vt 0.256707 0.634161
vt 0.264561 0.841774
vt 0.347557 0.963328
vt 0.394515 0.812653
vt 0.701559 0.063206
vt 0.679264 0.091886
vt 0.676202 0.073178
vt 0.677630 0.047494
vt 0.685809 0.000000
vt 0.709440 0.015846
vt 0.450707 0.489782
vt 0.139496 0.736830
vt 0.123564 0.821296
vt 0.082323 0.768308
vt 0.107476 0.557084
vt 0.471972 0.808855
vt 0.104485 0.881634
vt 0.448518 0.823920
vt 0.916899 0.353890
vt 0.870953 0.311975
vt 0.940628 0.325684
vt 0.419420 0.105936
vt 0.303374 0.393971
vt 0.681398 0.129338
vt 0.758235 0.104489
vt 0.699024 0.263599
vt 0.542332 0.683592
vt 0.609188 0.546368
vt 0.669509 0.663234
vt 0.611685 0.683592
vt 0.607263 0.418059
vt 0.676202 0.421179
vt 0.336093 0.854314
vt 0.390340 0.823920
vt 0.863137 0.239096
vt 0.886636 0.186105
vt 0.886636 0.311975
vt 0.896215 0.410253
vt 0.863137 0.339669
vt 0.373471 0.942271
vt 0.788886 0.044390
vt 0.792060 0.010530
vt 0.179698 0.341954
vt 0.149440 0.606926
vt 0.020807 0.187201
vt 0.164729 0.706607
vt 0.212559 0.733826
vt 0.204817 0.834615
vt 0.197330 0.863598
vt 0.149316 0.881504
vt 0.940130 0.363800
vt 0.930590 0.413791
vt 0.344448 0.044101
vt 0.358175 0.008928
vt 0.349538 0.168297
vt 0.440969 0.004235
vt 0.471972 0.000000
vt 0.000000 0.079176
vt 0.027752 0.061093
vt 0.060106 0.070415
vt 0.104997 0.157710
vt 0.676202 0.094213
vt 0.637402 0.351055
vt 0.306781 0.068795
vt 0.856098 0.240952
vt 0.782224 0.103638
vt 0.808897 0.489770
vt 0.709841 0.624903
vt 0.491621 0.157900
vt 0.917356 0.257017
vt 0.917356 0.311975
vt 0.886636 0.282410
vt 0.890491 0.463729
vt 0.924593 0.466806
vt 0.863137 0.020490
vt 0.861759 0.050189
vt 0.829033 0.016956
vt 0.829901 0.067802
vt 0.890521 0.102303
vt 0.863137 0.057679
vt 0.890521 0.017386
vt 0.808374 0.098277
vt 0.846176 0.488250
vt 0.853975 0.633331
vt 0.188761 0.187849
vt 0.826607 0.118395
vt 0.861270 0.140207
vt 0.829258 0.097889
vt 0.859760 0.100529
vt 0.228114 0.781347
vt 0.940628 0.435739
vt 0.227890 0.812144
vt 0.284989 0.030225
vt 0.676202 0.855457
vt 0.720001 0.962104
vt 0.700146 0.934798
vt 0.696977 0.750297
vt 0.676463 0.777663
vt 0.281892 0.006224
vt 0.870279 0.704250
vt 0.891657 0.829911
vt 0.939669 0.941789
vt 0.760279 0.985441
vt 0.047222 0.053885
vt 0.850061 0.982074
vt 0.783008 0.990396
vt 0.114520 0.039377
vt 0.191843 0.096759
vt 0.876847 0.655675
vt 0.903265 0.644001
vt 0.989330 0.679505
vt 0.187323 0.117900
vt 0.597762 0.123602
vt 0.262657 0.105063
vt 0.228114 0.026859
vt 0.504680 0.129850
vt 0.202917 0.134872
vt 0.202750 0.336907
vt 0.863137 0.679505
vt 0.471972 0.106027
vt 0.693661 0.672822
vt 0.868363 0.024431
vt 0.877599 0.000000
vt 0.748742 0.679505
vt 0.695705 0.715362
vt 0.878645 0.681300
vt 0.898709 0.699316
vt 0.901057 0.717620
vt 0.918251 0.730600
vt 0.941998 0.817781
vt 0.940999 0.768111
vt 0.957302 0.920943
vt 0.957302 0.832184
vt 0.205843 0.005466
vt 0.222093 0.022441
vt 0.228113 0.000000
vt 0.222768 0.083692
vt 0.863137 0.617326
vt 0.913571 0.621736
vt 0.653445 0.051877
vt 0.592138 0.051317
vt 0.499394 0.073775
vt 0.898207 0.103285
vt 0.898207 0.168906
vt 0.863137 0.149977
vt 0.989330 0.466806
vt 0.577318 0.780053
vt 0.676202 0.721394
vt 0.605377 0.957798
vt 0.676202 0.921539
vt 0.559947 0.732419
vt 0.627131 0.683593
vt 0.876449 0.102303
vt 0.474354 0.000000
vt 0.564245 0.708740
vt 0.606152 0.684835
vt 0.477313 0.047981
vt 0.553804 0.768953
vt 0.548595 0.812312
vt 0.948274 0.789613
vt 0.549486 0.835047
vt 0.629084 0.965902
vt 0.559768 0.877514
vt 0.479443 0.069272
vn 0.4361 -0.0233 -0.8996
vn 0.5664 0.7419 -0.3588
vn 0.0805 0.0499 -0.9955
vn -0.2345 0.3459 -0.9085
vn 0.0768 0.9932 -0.0870
vn 0.8862 -0.2211 -0.4072
vn 0.3339 0.0731 -0.9398
vn 0.7211 0.6928 -0.0116
vn 0.9852 0.1711 -0.0045
vn -0.1744 -0.2582 -0.9502
vn 0.0839 -0.6356 -0.7674
vn 0.4110 -0.7082 -0.5740
vn 0.0636 0.9733 0.2207
vn 0.5156 0.8302 0.2119
vn 0.0795 0.9920 -0.0980
vn 0.1889 0.9366 0.2951
vn -0.7476 -0.2157 -0.6281
vn 0.3289 0.2834 -0.9008
vn -0.7486 -0.1599 -0.6434
vn -0.4315 -0.2717 -0.8602
vn -0.1521 0.8793 -0.4513
vn 0.9699 0.0574 0.2367
vn 0.7726 -0.6145 0.1598
vn 0.8397 -0.5131 -0.1777
vn 0.3931 -0.6822 -0.6165
vn 0.8934 0.2789 0.3523
vn -0.7381 -0.6738 -0.0335
vn -0.1295 -0.9725 -0.1935
vn 0.3139 -0.8878 -0.3364
vn -0.0458 -0.9933 -0.1057
vn -0.1845 0.7181 0.6710
vn -0.3666 0.2705 0.8902
vn -0.2608 0.2013 0.9442
vn 0.1657 0.8647 0.4742
vn -0.0478 0.5170 0.8547
vn 0.9137 0.3008 0.2732
vn 0.9792 0.1910 0.0677
vn 0.1761 0.9837 -0.0360
vn 0.0064 0.5873 0.8093
vn 0.2250 0.9701 -0.0912
vn -0.1520 -0.9202 -0.3606
vn -0.9524 -0.2913 -0.0900
vn 0.0217 -0.2292 -0.9731
vn 0.1161 -0.5499 -0.8271
vn 0.0868 0.4193 -0.9037
vn -0.7843 -0.6182 0.0512
vn 0.7578 -0.6053 -0.2438
vn 0.5299 -0.4237 -0.7347
vn 0.6478 -0.7241 0.2368
vn 0.9065 -0.4087 -0.1063
vn 0.5887 -0.7748 0.2303
vn -0.6473 -0.7285 0.2243
vn -0.2018 -0.9305 0.3056
vn 0.1054 -0.9787 0.1763
vn -0.2587 -0.1854 0.9480
vn -0.4078 -0.3376 0.8484
vn -0.2838 -0.0782 0.9557
vn -0.3502 -0.6611 0.6636
vn -0.3776 -0.4165 0.8270
vn -0.6086 -0.3408 0.7165
vn -0.3299 -0.3548 0.8748
vn -0.0006 -0.3918 0.9200
vn 0.1446 -0.3185 0.9368
vn 0.1325 -0.1347 0.9820
vn 0.8690 -0.1323 0.4768
vn 0.8200 -0.4947 0.2878
vn 0.8498 -0.5183 0.0962
vn 0.1821 0.8977 0.4011
vn 0.2322 0.9284 0.2902
vn 0.2783 0.8928 0.3541
vn 0.3504 0.9061 0.2370
vn 0.3166 0.7712 0.5523
vn 0.3299 0.3958 0.8571
vn 0.3573 0.2503 0.8998
vn 0.4478 -0.0279 0.8937
vn 0.0453 0.1786 0.9829
vn 0.2664 0.5980 -0.7559
vn 0.2319 0.9663 -0.1114
vn 0.4053 0.3328 -0.8515
vn -0.2513 -0.9436 -0.2154
vn -0.2163 -0.9674 -0.1315
vn -0.4356 -0.8857 -0.1606
vn 0.1310 -0.9737 -0.1862
vn 0.1257 -0.9687 -0.2142
vn 0.2238 -0.2064 -0.9525
vn 0.1844 0.0061 -0.9828
vn 0.3533 -0.5794 -0.7345
vn 0.4076 -0.9130 0.0167
vn -0.0723 -0.9847 -0.1586
vn -0.1086 -0.9696 -0.2191
vn 0.4967 -0.8652 -0.0691
vn 0.1308 -0.3143 -0.9403
vn -0.2733 -0.6487 -0.7103
vn -0.2786 -0.7947 -0.5394
vn -0.1006 -0.9335 0.3441
vn -0.0989 -0.9337 0.3442
vn -0.1755 -0.2560 0.9506
vn -0.3119 -0.7908 -0.5267
vn -0.3074 -0.9363 0.1700
vn -0.3115 -0.7832 -0.5382
vn -0.7958 -0.4726 -0.3786
vn -0.7787 -0.3221 -0.5385
vn -0.3745 -0.4423 0.8150
vn -0.5989 -0.5619 -0.5705
vn -0.3994 -0.9091 -0.1186
vn 0.2124 -0.8662 0.4523
vn -0.2637 -0.6405 0.7213
vn 0.4134 0.8104 -0.4151
vn 0.7622 0.6443 -0.0630
vn 0.1175 0.9927 -0.0260
vn -0.8376 0.5201 -0.1672
vn -0.8780 0.4579 -0.1394
vn -0.0373 0.9942 -0.1007
vn -0.8802 0.4283 -0.2042
vn -0.9176 0.3795 -0.1187
vn -0.8933 0.4184 -0.1639
vn -0.8499 0.4057 -0.3363
vn -0.8660 0.4491 -0.2200
vn 0.1248 0.2313 0.9648
vn -0.8470 0.2815 -0.4510
vn -0.9232 0.3350 0.1882
vn -0.1057 -0.0056 0.9944
vn 0.1673 -0.1912 0.9672
vn 0.3982 -0.1458 0.9056
vn 0.6228 -0.3775 0.6853
vn 0.2219 -0.1413 0.9648
vn 0.2503 0.5484 -0.7979
vn 0.8345 0.4245 -0.3512
vn 0.8205 0.4526 -0.3491
vn 0.2699 -0.0366 -0.9622
vn 0.3789 -0.4847 -0.7884
vn 0.0154 -0.4937 0.8695
vn -0.0608 -0.9973 -0.0417
vn 0.5123 -0.3392 -0.7890
vn 0.1090 -0.9922 0.0600
vn -0.3782 -0.3898 -0.8397
vn -0.4649 -0.3318 -0.8209
vn 0.0995 -0.8172 0.5677
vn 0.1224 0.8404 -0.5280
vn -0.6256 0.3842 -0.6790
vn -0.1442 0.7941 -0.5904
vn -0.5167 0.4483 -0.7294
vn -0.7023 0.4962 -0.5104
vn -0.7356 0.4619 -0.4955
vn -0.7560 0.4670 -0.4587
vn -0.6874 0.2769 -0.6714
vn -0.6052 0.7894 -0.1029
vn -0.7377 0.5205 -0.4300
vn -0.6685 0.7251 -0.1649
vn -0.8973 0.4083 -0.1680
vn -0.6695 0.7353 0.1056
vn -0.6591 0.7267 -0.1936
vn -0.0948 -0.3602 0.9280
vn -0.1153 -0.1381 0.9837
vn -0.5677 -0.5263 0.6330
vn 0.1480 -0.7946 0.5889
vn 0.5169 -0.7505 0.4119
vn 0.3426 -0.6494 0.6789
vn 0.7502 0.2075 -0.6278
vn 0.7493 0.0094 -0.6622
vn 0.8166 -0.1182 -0.5649
vn 0.6476 -0.5641 -0.5122
vn 0.3338 -0.9372 0.1015
vn 0.1502 -0.9852 0.0830
vn -0.0066 -0.9976 -0.0692
vn 0.1147 -0.7951 -0.5956
vn -0.0169 -0.9546 -0.2975
vn 0.6844 -0.5294 -0.5013
vn -0.0197 -0.0134 -0.9997
vn -0.1464 -0.7336 -0.6636
vn -0.0427 0.1779 -0.9831
vn -0.6020 -0.5001 -0.6225
vn -0.0132 -0.9624 -0.2714
vn -0.6978 0.5597 -0.4470
vn -0.6251 -0.4962 -0.6025
vn -0.3996 0.9122 -0.0910
vn -0.5737 0.8177 -0.0466
vn -0.5982 -0.7241 -0.3434
vn -0.0078 -0.9985 0.0551
vn -0.2669 -0.9635 -0.0196
vn -0.4969 -0.8482 -0.1834
vn 0.2896 -0.4463 -0.8467
usemtl Material_with_Texture.214
s off
f 1/1/1 2/2/1 3/3/1
f 4/4/2 2/5/2 1/6/2
f 5/7/3 1/1/3 3/3/3
f 5/7/4 6/8/4 1/1/4
f 4/4/5 1/6/5 6/9/5
f 7/10/6 8/11/6 2/12/6
f 8/13/7 3/3/7 2/2/7
f 2/5/8 4/4/8 9/14/8
f 7/10/9 2/12/9 9/15/9
f 5/7/10 3/3/10 10/16/10
f 3/3/11 11/17/11 10/16/11
f 11/18/12 3/19/12 8/11/12
f 4/4/13 12/20/13 13/21/13
f 4/4/14 13/21/14 9/14/14
f 4/4/15 6/9/15 14/22/15
f 14/22/16 12/20/16 4/4/16
f 5/23/17 15/24/17 16/25/17
f 6/8/18 5/7/18 16/26/18
f 17/27/19 15/24/19 5/23/19
f 10/16/20 17/28/20 5/7/20
f 14/22/21 6/9/21 16/29/21
f 9/15/22 18/30/22 7/10/22
f 7/10/23 18/30/23 19/31/23
f 19/31/24 8/11/24 7/10/24
f 8/11/25 19/31/25 11/18/25
f 13/21/26 18/32/26 9/14/26
f 20/33/27 17/34/27 10/35/27
f 10/35/28 11/36/28 20/33/28
f 11/36/29 19/37/29 21/38/29
f 11/36/30 21/38/30 20/33/30
f 12/20/31 14/22/31 22/39/31
f 23/40/32 24/41/32 12/42/32
f 22/43/33 23/40/33 12/42/33
f 12/20/34 25/44/34 13/21/34
f 24/41/35 25/45/35 12/42/35
f 18/32/36 13/21/36 26/46/36
f 26/47/37 13/48/37 25/49/37
f 27/50/38 14/22/38 28/51/38
f 22/39/39 14/22/39 27/50/39
f 28/51/40 14/22/40 16/29/40
f 15/52/41 29/53/41 30/54/41
f 15/24/42 17/27/42 29/55/42
f 30/56/43 16/57/43 15/58/43
f 16/57/44 30/56/44 31/59/44
f 16/57/45 31/59/45 28/60/45
f 20/33/46 29/53/46 17/34/46
f 32/61/47 18/30/47 33/62/47
f 34/63/48 33/64/48 18/65/48
f 18/30/49 32/61/49 19/31/49
f 34/66/50 18/67/50 26/47/50
f 32/61/51 21/68/51 19/31/51
f 29/53/52 20/33/52 35/69/52
f 21/38/53 32/70/53 20/33/53
f 32/70/54 35/69/54 20/33/54
f 22/43/55 36/71/55 37/72/55
f 37/72/56 23/40/56 22/43/56
f 22/43/57 27/73/57 36/71/57
f 37/72/58 38/74/58 23/40/58
f 23/40/59 39/75/59 40/76/59
f 38/74/60 39/75/60 23/40/60
f 24/41/61 23/40/61 40/76/61
f 41/77/62 42/78/62 24/41/62
f 40/76/63 41/77/63 24/41/63
f 24/41/64 42/78/64 25/45/64
f 26/47/65 25/49/65 42/79/65
f 41/80/66 26/47/66 42/79/66
f 41/80/67 34/66/67 26/47/67
f 27/50/68 43/81/68 44/82/68
f 28/51/69 45/83/69 27/50/69
f 45/83/70 43/81/70 27/50/70
f 44/82/71 46/84/71 27/50/71
f 27/50/72 46/84/72 47/85/72
f 47/86/73 48/87/73 27/73/73
f 48/87/74 49/88/74 27/73/74
f 50/89/75 27/73/75 49/88/75
f 27/73/76 50/89/76 36/71/76
f 51/90/77 28/60/77 52/91/77
f 28/51/78 51/92/78 45/83/78
f 52/91/79 28/60/79 31/59/79
f 30/54/80 29/53/80 37/93/80
f 53/94/81 37/93/81 29/53/81
f 35/69/82 53/94/82 29/53/82
f 54/95/83 30/54/83 37/93/83
f 30/54/84 54/95/84 55/96/84
f 55/97/85 31/59/85 30/56/85
f 52/91/86 31/59/86 55/97/86
f 32/98/87 33/99/87 35/100/87
f 33/101/88 41/80/88 56/102/88
f 56/103/89 57/104/89 33/105/89
f 57/104/90 58/106/90 33/105/90
f 34/66/91 41/80/91 33/101/91
f 33/107/92 58/108/92 59/109/92
f 33/105/93 59/110/93 35/69/93
f 53/94/94 35/69/94 59/110/94
f 36/111/95 60/112/95 54/95/95
f 36/111/96 54/95/96 37/93/96
f 50/89/97 60/113/97 36/71/97
f 37/93/98 59/110/98 61/114/98
f 38/115/99 37/93/99 61/114/99
f 53/94/100 59/110/100 37/93/100
f 61/114/101 62/116/101 38/115/101
f 38/115/102 62/116/102 39/117/102
f 39/75/103 57/118/103 40/76/103
f 62/116/104 58/106/104 39/117/104
f 57/104/105 39/117/105 58/106/105
f 41/80/106 40/119/106 56/102/106
f 40/76/107 57/118/107 56/120/107
f 45/83/108 51/92/108 43/81/108
f 51/92/109 63/121/109 43/81/109
f 63/121/110 44/82/110 43/81/110
f 44/122/111 47/123/111 46/124/111
f 64/125/112 44/122/112 65/126/112
f 65/127/113 44/82/113 63/121/113
f 47/123/114 44/122/114 66/128/114
f 44/122/115 64/125/115 66/128/115
f 47/123/116 67/129/116 68/130/116
f 68/130/117 48/131/117 47/123/117
f 47/123/118 66/128/118 67/129/118
f 48/87/119 69/132/119 49/88/119
f 70/133/120 69/134/120 48/131/120
f 70/133/121 48/131/121 68/130/121
f 70/135/122 49/88/122 69/132/122
f 49/88/123 70/135/123 71/136/123
f 49/88/124 71/136/124 50/89/124
f 71/137/125 72/138/125 50/139/125
f 50/89/126 72/140/126 60/113/126
f 52/91/127 73/141/127 51/90/127
f 73/142/128 74/143/128 51/92/128
f 74/143/129 63/121/129 51/92/129
f 73/141/130 52/91/130 75/144/130
f 52/91/131 55/97/131 75/144/131
f 76/145/132 54/146/132 60/113/132
f 54/95/133 76/147/133 55/96/133
f 75/144/134 55/97/134 77/148/134
f 77/149/135 55/96/135 76/147/135
f 62/150/136 59/109/136 58/108/136
f 62/150/137 61/151/137 59/109/137
f 72/140/138 76/145/138 60/113/138
f 65/127/139 63/121/139 74/143/139
f 64/125/140 78/152/140 66/128/140
f 65/126/141 74/153/141 64/125/141
f 74/153/142 78/152/142 64/125/142
f 79/154/143 66/128/143 78/152/143
f 79/154/144 80/155/144 66/128/144
f 80/155/145 81/156/145 66/128/145
f 82/157/146 66/128/146 81/156/146
f 83/158/147 66/128/147 84/159/147
f 82/157/148 84/159/148 66/128/148
f 66/128/149 83/158/149 67/129/149
f 85/160/150 68/130/150 67/129/150
f 67/129/151 86/161/151 85/160/151
f 83/158/152 86/161/152 67/129/152
f 68/162/153 71/136/153 70/135/153
f 68/162/154 87/163/154 71/136/154
f 87/163/155 68/162/155 85/164/155
f 87/163/156 88/165/156 71/136/156
f 71/137/157 88/166/157 72/138/157
f 88/166/158 76/167/158 72/138/158
f 74/168/159 73/141/159 78/169/159
f 78/169/160 73/141/160 89/170/160
f 89/170/161 73/141/161 75/144/161
f 89/171/162 75/172/162 77/173/162
f 76/167/163 88/166/163 77/174/163
f 90/175/164 77/176/164 85/177/164
f 88/178/165 85/177/165 77/176/165
f 77/176/166 90/175/166 80/179/166
f 77/176/167 80/179/167 91/180/167
f 91/181/168 89/171/168 77/173/168
f 78/169/169 89/170/169 79/182/169
f 79/183/170 92/184/170 80/179/170
f 89/170/171 92/185/171 79/182/171
f 80/179/172 90/175/172 82/186/172
f 92/184/173 91/180/173 80/179/173
f 80/155/174 82/157/174 81/156/174
f 84/187/175 82/186/175 90/175/175
f 84/159/176 93/188/176 83/158/176
f 83/158/177 93/188/177 86/161/177
f 90/175/178 93/189/178 84/187/178
f 85/177/179 88/178/179 87/190/179
f 90/175/180 85/177/180 86/191/180
f 93/189/181 90/175/181 86/191/181
f 91/192/182 92/185/182 89/170/182
