# Blender 4.3.0
# www.blender.org
mtllib prox_phalanx3_lvs.mtl
o prox_phalanx3_lvs
v 0.021139 -0.002866 -0.018304
v 0.021644 -0.000653 -0.018681
v 0.020884 -0.000023 -0.018418
v 0.019622 0.000260 -0.017757
v 0.021616 -0.000518 -0.020782
v 0.019707 -0.000627 -0.025341
v 0.011755 0.001261 -0.021267
v 0.017538 -0.000546 -0.025261
v 0.021673 -0.002524 -0.019061
v 0.021991 -0.002211 -0.020123
v 0.019049 -0.004381 -0.017585
v 0.020797 -0.003826 -0.018193
v 0.017717 -0.003891 -0.017406
v 0.017470 -0.000081 -0.017945
v 0.017167 0.000458 -0.018379
v 0.020366 -0.001842 -0.026446
v 0.021017 -0.002260 -0.023723
v 0.010950 0.000426 -0.017732
v 0.004900 0.002078 -0.020571
v 0.011069 -0.002483 -0.022812
v 0.018181 -0.002541 -0.026465
v 0.014516 -0.003464 -0.023919
v 0.021788 -0.002909 -0.019798
v 0.020379 -0.004971 -0.019091
v 0.018456 -0.005388 -0.018304
v 0.017517 -0.005200 -0.018065
v 0.017024 -0.001091 -0.017778
v 0.016301 -0.001237 -0.017618
v 0.016961 -0.004607 -0.018118
v 0.015792 -0.000235 -0.017744
v 0.020328 -0.003577 -0.026288
v 0.018502 -0.006152 -0.023662
v 0.020087 -0.005087 -0.024464
v 0.018888 -0.004489 -0.022577
v 0.020865 -0.004603 -0.020580
v 0.002981 0.001540 -0.016315
v 0.011062 -0.000325 -0.017458
v 0.001185 0.002768 -0.016986
v 0.000745 0.002919 -0.018870
v -0.001534 -0.003837 -0.018011
v 0.015427 -0.004015 -0.022902
v 0.018228 -0.004574 -0.022312
v -0.002864 -0.004225 -0.014395
v 0.011225 -0.001575 -0.017829
v 0.016499 -0.003389 -0.020043
v 0.016299 -0.005392 -0.023079
v 0.014962 -0.004645 -0.023876
v 0.019764 -0.005330 -0.025617
v 0.018074 -0.006276 -0.024763
v 0.017045 -0.006133 -0.024397
v 0.019458 -0.005549 -0.019644
v 0.017726 -0.005391 -0.018963
v 0.015706 -0.001378 -0.018024
v 0.016176 -0.002486 -0.018282
v 0.017527 -0.006110 -0.023380
v 0.018278 -0.004706 -0.021334
v 0.000664 -0.001389 -0.015113
v -0.002595 0.003477 -0.016652
v -0.003310 0.003648 -0.018017
v -0.003707 0.003234 -0.018581
v -0.006276 -0.000796 -0.019372
v -0.006599 -0.003571 -0.018959
v -0.005824 -0.004144 -0.018343
v -0.007350 -0.004885 -0.017984
v -0.008412 -0.005706 -0.017473
v -0.005751 -0.005273 -0.014706
v -0.005758 -0.004052 -0.011649
v -0.005803 0.000645 -0.011412
v -0.003515 0.000516 -0.013689
v -0.005422 -0.005018 -0.012666
v -0.005210 -0.004271 -0.012306
v -0.005164 0.004649 -0.016074
v -0.006016 0.004966 -0.016068
v -0.007255 0.004459 -0.018549
v -0.007754 0.003958 -0.019364
v -0.007777 0.000627 -0.020323
v -0.007521 -0.003769 -0.019483
v -0.007692 -0.004743 -0.018606
v -0.008159 -0.004940 -0.018209
v -0.009824 -0.005016 -0.018754
v -0.010163 -0.005423 -0.017199
v -0.010381 -0.005179 -0.016391
v -0.010400 -0.005358 -0.017894
v -0.007963 -0.005627 -0.014071
v -0.007801 -0.004911 -0.013037
v -0.008146 -0.003650 -0.011294
v -0.006463 0.002457 -0.012357
v -0.005594 0.002841 -0.012282
v -0.006985 -0.004652 -0.012304
v -0.008369 -0.004622 -0.012269
v -0.005386 0.004460 -0.014190
v -0.006236 0.004335 -0.013859
v -0.009792 -0.001292 -0.019609
v -0.008586 0.002765 -0.020063
v -0.008906 0.001991 -0.020239
v -0.009495 -0.004070 -0.019455
v -0.010567 -0.004758 -0.018517
v -0.010620 -0.003948 -0.019048
v -0.010827 -0.004752 -0.016934
v -0.010464 -0.004728 -0.014267
v -0.008412 -0.005516 -0.013200
v -0.009699 -0.004940 -0.013317
v -0.009391 -0.004662 -0.012746
vn 0.6241 -0.0995 0.7750
vn 0.7955 0.3516 0.4935
vn 0.4972 0.7273 0.4731
vn 0.2297 0.6882 0.6882
vn 0.7543 0.6367 -0.1601
vn 0.2838 0.8580 -0.4282
vn -0.0434 0.9208 -0.3877
vn -0.1976 0.7386 -0.6446
vn 0.9019 -0.2062 0.3796
vn 0.9949 -0.0898 -0.0458
vn 0.2601 -0.3233 0.9098
vn 0.6470 -0.3639 0.6701
vn -0.1642 -0.1736 0.9710
vn -0.2603 0.3563 0.8974
vn -0.0166 0.8193 0.5731
vn 0.5498 0.3057 -0.7773
vn 0.9626 -0.2058 -0.1765
vn 0.1345 0.7460 0.6522
vn -0.1275 0.7469 -0.6526
vn -0.3542 -0.5788 -0.7345
vn -0.3024 0.0430 -0.9522
vn -0.5799 -0.4889 -0.6517
vn 0.9249 -0.3711 0.0830
vn 0.6067 -0.7301 0.3144
vn 0.1094 -0.8749 0.4717
vn -0.4051 -0.7528 0.5189
vn 0.1006 0.2074 0.9731
vn -0.2079 -0.0357 0.9775
vn -0.7820 -0.4880 0.3877
vn 0.0542 0.2528 0.9660
vn 0.6097 -0.2867 -0.7390
vn 0.3636 -0.8419 0.3987
vn 0.8027 -0.5447 0.2429
vn 0.4951 -0.8486 0.1866
vn 0.6606 -0.7170 -0.2225
vn 0.2560 0.6187 0.7427
vn 0.1571 0.0592 0.9858
vn 0.2575 0.8815 0.3959
vn 0.0308 0.7543 -0.6558
vn 0.0882 -0.7584 -0.6458
vn -0.4761 -0.7285 0.4925
vn -0.0527 -0.9103 0.4106
vn 0.4789 -0.7015 0.5278
vn 0.1056 -0.7054 0.7009
vn -0.5505 -0.8293 0.0954
vn -0.4432 -0.6397 0.6280
vn -0.8655 -0.4995 -0.0380
vn 0.4390 -0.6637 -0.6056
vn -0.0415 -0.8829 -0.4677
vn -0.4278 -0.8232 -0.3734
vn 0.1946 -0.9745 -0.1122
vn -0.4594 -0.8807 -0.1151
vn -0.1894 -0.2616 0.9464
vn -0.5763 -0.5250 0.6263
vn -0.0939 -0.8589 0.5034
vn -0.3139 -0.9175 -0.2444
vn 0.2379 0.1332 0.9621
vn 0.3520 0.8376 0.4178
vn 0.2096 0.9103 -0.3570
vn 0.1088 0.4863 -0.8670
vn 0.3092 -0.0641 -0.9488
vn 0.3437 -0.3853 -0.8564
vn 0.1459 -0.6289 -0.7637
vn 0.1976 -0.7680 -0.6093
vn 0.0653 -0.9540 -0.2927
vn 0.2185 -0.9743 0.0545
vn 0.3559 -0.4582 0.8145
vn 0.1807 0.1997 0.9630
vn 0.6264 0.2607 0.7346
vn 0.2443 -0.8122 0.5298
vn 0.4607 -0.5588 0.6896
vn 0.4884 0.8656 0.1108
vn -0.3082 0.9490 0.0661
vn -0.4803 0.8675 -0.1293
vn -0.4938 0.6883 -0.5314
vn 0.2538 0.0190 -0.9671
vn 0.2651 -0.4123 -0.8716
vn 0.1803 -0.8152 -0.5504
vn 0.1551 -0.7933 -0.5887
vn -0.1090 -0.7196 -0.6858
vn -0.4297 -0.8997 0.0771
vn -0.5270 -0.8420 0.1154
vn -0.7538 -0.6547 -0.0554
vn 0.0481 -0.9749 0.2176
vn 0.2341 -0.8637 0.4464
vn -0.4192 -0.1655 0.8927
vn -0.6320 0.4603 0.6234
vn 0.2787 0.5333 0.7987
vn -0.0143 -0.8234 0.5673
vn -0.1050 -0.7422 0.6619
vn 0.4905 0.7874 0.3734
vn -0.6300 0.6824 0.3707
vn -0.7923 0.1734 -0.5849
vn -0.5784 0.6086 -0.5432
vn -0.7150 0.3112 -0.6261
vn -0.1044 -0.3805 -0.9189
vn -0.8304 -0.3633 -0.4224
vn -0.9553 0.0014 -0.2956
vn -0.9785 -0.2055 0.0168
vn -0.8906 -0.3160 0.3272
vn 0.0159 -0.9243 0.3814
vn -0.5937 -0.6978 0.4008
vn -0.6701 -0.2785 0.6880
vt 0.426549 0.003268
vt 0.483480 0.000000
vt 0.494273 0.022198
vt 0.492729 0.056320
vt 0.708666 0.045026
vt 0.760691 0.011161
vt 0.881415 0.028403
vt 0.709690 0.022298
vt 0.831860 0.249609
vt 0.700429 0.080131
vt 0.892110 0.080347
vt 0.706786 0.738268
vt 0.752552 0.749781
vt 0.742983 0.773890
vt 0.762590 0.734103
vt 0.700429 0.789480
vt 0.378470 0.049235
vt 0.401661 0.007463
vt 0.786830 0.734121
vt 0.384171 0.084283
vt 0.477339 0.105985
vt 0.491391 0.114243
vt 0.729865 0.135240
vt 0.902448 0.000000
vt 0.233090 0.748794
vt 0.208319 0.774522
vt 0.228078 0.695930
vt 0.739853 0.866084
vt 0.726138 0.934864
vt 0.750061 0.285240
vt 0.855810 0.419331
vt 0.240418 0.359153
vt 0.243689 0.530455
vt 0.153948 0.535140
vt 0.184419 0.724579
vt 0.143631 0.627097
vt 0.760921 0.767742
vt 0.814261 0.759326
vt 0.551796 0.713433
vt 0.561229 0.765049
vt 0.534483 0.774967
vt 0.528990 0.727923
vt 0.355546 0.080681
vt 0.549661 0.690356
vt 0.450560 0.112658
vt 0.443454 0.129995
vt 0.054260 0.779083
vt 0.000229 0.830580
vt 0.002267 0.800035
vt 0.367907 0.096656
vt 0.274762 0.746289
vt 0.282990 0.731214
vt 0.282990 0.772462
vt 0.466177 0.146472
vt 0.463453 0.266398
vt 0.165299 0.779083
vt 0.769373 0.933375
vt 0.108116 0.779083
vt 0.108116 0.890775
vt 0.088453 0.843829
vt 0.243689 0.878859
vt 0.219557 0.823033
vt 0.243689 0.779083
vt 0.594222 0.785263
vt 0.651181 0.747687
vt 0.663526 0.812600
vt 0.802564 0.793042
vt 0.809624 0.891850
vt 0.763496 0.487014
vt 0.444441 0.261192
vt 0.452192 0.468888
vt 0.791841 0.531679
vt 0.840010 0.531613
vt 0.243523 0.247719
vt 0.068697 0.213008
vt 0.673177 0.667638
vt 0.686232 0.567849
vt 0.700429 0.652606
vt 0.647911 0.730208
vt 0.548536 0.185461
vt 0.629359 0.236312
vt 0.562124 0.550926
vt 0.597319 0.681970
vt 0.132619 0.821286
vt 0.132619 0.788943
vt 0.109822 0.809950
vt 0.115994 0.641873
vt 0.118838 0.768507
vt 0.088132 0.727024
vt 0.087449 0.699938
vt 0.580306 0.743426
vt 0.571047 0.699016
vt 0.551820 0.679385
vt 0.286764 0.772462
vt 0.286764 0.800520
vt 0.274762 0.790538
vt 0.439955 0.142245
vt 0.416579 0.124845
vt 0.041892 0.810158
vt 0.054260 0.850208
vt 0.000000 0.848671
vt 0.417090 0.250136
vt 0.814261 0.921714
vt 0.244623 0.852367
vt 0.243689 0.805481
vt 0.274762 0.854846
vt 0.273338 0.779011
vt 0.273163 0.805450
vt 0.245654 0.780737
vt 0.187104 0.824749
vt 0.167642 0.808927
vt 0.187104 0.779083
vt 0.681097 0.712868
vt 0.624304 0.726222
vt 0.366819 0.515500
vt 0.479076 0.611192
vt 0.478301 0.515514
vt 0.281614 0.590030
vt 0.806632 0.626316
vt 0.843906 0.635914
vt 0.859174 0.639748
vt 0.131925 0.094730
vt 0.236550 0.138055
vt 0.061874 0.094921
vt 0.048640 0.112570
vt 0.024774 0.076753
vt 0.000000 0.051630
vt 0.651913 0.061282
vt 0.571746 0.113617
vt 0.088453 0.779083
vt 0.088453 0.847391
vt 0.062234 0.816990
vt 0.054260 0.782152
vt 0.260154 0.670469
vt 0.371227 0.694185
vt 0.388941 0.630247
vt 0.520073 0.112647
vt 0.243689 0.654247
vt 0.260483 0.653883
vt 0.553570 0.669007
vt 0.187104 0.787464
vt 0.219557 0.779083
vt 0.219557 0.836457
vt 0.247164 0.752124
vt 0.274762 0.731214
vt 0.494273 0.680673
vt 0.809247 0.696312
vt 0.814483 0.718049
vt 0.880671 0.729813
vt 0.902448 0.734103
vt 0.243689 0.041983
vt 0.865443 0.815166
vt 0.893376 0.734103
vt 0.893376 0.850533
vt 0.055526 0.076061
vt 0.164586 0.058215
vt 0.150317 0.779083
vt 0.150317 0.811381
vt 0.132619 0.799186
vt 0.028825 0.071104
vt 0.657316 0.133487
vt 0.657383 0.092309
vt 0.673619 0.087586
vt 0.666589 0.073711
vt 0.687426 0.035964
vt 0.652281 0.018830
vt 0.632978 0.010580
vt 0.670031 0.016706
vt 0.567118 0.056003
vt 0.539366 0.057537
vt 0.258781 0.731214
vt 0.417114 0.715134
vt 0.429233 0.696217
vt 0.517246 0.074602
vt 0.508377 0.118743
vt 0.494273 0.103183
vt 0.522467 0.041215
vt 0.495186 0.045436
vt 0.865443 0.854596
vt 0.830489 0.825645
vt 0.865443 0.734103
vt 0.814261 0.766580
vt 0.244568 0.694947
vt 0.764838 0.711761
vt 0.761574 0.733085
vt 0.346749 0.990224
vt 0.322708 0.978516
vt 0.415796 1.000000
vt 0.464439 0.974761
vt 0.494273 0.922808
vt 0.290780 0.842398
vt 0.213721 0.029748
vt 0.297393 0.947863
vt 0.194233 0.025718
vt 0.109409 0.013121
vt 0.041908 0.029524
vt 0.700429 0.050711
vt 0.021492 0.058609
vt 0.015863 0.021540
vt 0.019231 0.001559
vt 0.040302 0.000000
vt 0.003416 0.004645
vt 0.646990 0.004012
vt 0.580569 0.000000
vt 0.354099 0.733678
vt 0.403829 0.735260
vt 0.338515 0.743176
vt 0.684279 0.017872
vt 0.156690 0.816848
vt 0.150317 0.796225
vt 0.156690 0.779083
vt 0.547670 0.041402
vt 0.554678 0.013075
vt 0.538698 0.018756
vt 0.448299 0.737427
vt 0.494273 0.763351
vt 0.470921 0.712997
vt 0.478915 0.691887
vt 0.289259 0.928237
vt 0.292295 0.772046
vt 0.303676 0.751058
vt 0.431930 0.731214
s 1
usemtl Material_with_Texture.215
f 1/1/1 2/2/2 3/3/3
f 3/3/3 4/4/4 1/1/1
f 3/5/3 5/6/5 6/7/6
f 5/6/5 3/5/3 2/8/2
f 3/5/3 7/9/7 4/10/4
f 3/5/3 6/7/6 8/11/8
f 3/5/3 8/11/8 7/9/7
f 2/12/2 9/13/9 10/14/10
f 2/12/2 1/15/1 9/13/9
f 5/16/5 2/12/2 10/14/10
f 1/1/1 11/17/11 12/18/12
f 1/15/1 12/19/12 9/13/9
f 1/1/1 13/20/13 11/17/11
f 1/1/1 4/4/4 13/20/13
f 4/4/4 14/21/14 13/20/13
f 4/4/4 15/22/15 14/21/14
f 15/23/15 4/10/4 7/9/7
f 5/6/5 16/24/16 6/7/6
f 6/25/6 16/26/16 8/27/8
f 5/16/5 10/14/10 17/28/17
f 5/16/5 17/28/17 16/29/16
f 18/30/18 15/23/15 7/9/7
f 7/9/7 19/31/19 18/30/18
f 19/32/19 7/33/7 20/34/20
f 20/34/20 7/33/7 8/27/8
f 8/27/8 21/35/21 22/36/22
f 8/27/8 22/36/22 20/34/20
f 8/27/8 16/26/16 21/35/21
f 17/28/17 10/14/10 23/37/23
f 23/37/23 10/14/10 9/13/9
f 12/19/12 24/38/24 9/13/9
f 23/37/23 9/13/9 24/38/24
f 25/39/25 24/40/24 12/41/12
f 12/41/12 11/42/11 25/39/25
f 26/43/26 11/17/11 13/20/13
f 26/44/26 25/39/25 11/42/11
f 27/45/27 28/46/28 13/20/13
f 27/45/27 13/20/13 14/21/14
f 28/47/28 29/48/29 13/49/13
f 29/50/29 26/43/26 13/20/13
f 14/51/14 15/52/15 27/53/27
f 30/54/30 15/22/15 18/55/18
f 30/54/30 27/45/27 15/22/15
f 16/26/16 31/56/31 21/35/21
f 16/29/16 17/28/17 31/57/31
f 17/58/17 32/59/32 33/60/33
f 17/61/17 34/62/34 32/63/32
f 35/64/35 34/65/34 17/66/17
f 35/67/35 17/28/17 23/37/23
f 31/57/31 17/28/17 33/68/33
f 19/31/19 36/69/36 18/30/18
f 37/70/37 30/54/30 18/55/18
f 36/71/36 37/70/37 18/55/18
f 38/72/38 36/69/36 19/31/19
f 39/73/39 38/72/38 19/31/19
f 19/32/19 20/34/20 39/74/39
f 39/74/39 20/34/20 40/75/40
f 41/76/41 20/77/20 22/78/22
f 42/79/42 20/77/20 41/76/41
f 43/80/43 40/81/40 20/77/20
f 44/82/44 43/80/43 20/77/20
f 45/83/45 20/77/20 42/79/42
f 45/83/45 44/82/44 20/77/20
f 22/84/22 46/58/46 41/85/41
f 47/86/47 46/58/46 22/84/22
f 47/87/47 22/36/22 21/35/21
f 21/35/21 31/56/31 48/88/48
f 21/35/21 48/88/48 49/89/49
f 47/87/47 21/35/21 50/90/50
f 21/35/21 49/89/49 50/90/50
f 35/67/35 23/37/23 24/38/24
f 24/40/24 51/91/51 35/64/35
f 51/91/51 24/40/24 25/39/25
f 52/92/52 25/39/25 26/44/26
f 52/92/52 51/91/51 25/39/25
f 26/44/26 29/93/29 52/92/52
f 30/94/30 53/95/53 28/96/28
f 30/54/30 28/46/28 27/45/27
f 28/46/28 53/97/53 54/98/54
f 28/47/28 54/99/54 29/48/29
f 45/100/45 29/48/29 54/99/54
f 29/48/29 45/100/45 52/101/52
f 30/54/30 37/70/37 44/102/44
f 53/97/53 30/54/30 44/102/44
f 48/103/48 31/57/31 33/68/33
f 33/104/33 32/105/32 48/106/48
f 32/105/32 50/107/50 49/108/49
f 32/105/32 55/109/55 50/107/50
f 32/105/32 49/108/49 48/106/48
f 55/110/55 32/111/32 34/112/34
f 42/79/42 55/113/55 34/65/34
f 34/65/34 56/114/56 42/79/42
f 56/114/56 34/65/34 35/64/35
f 51/91/51 56/114/56 35/64/35
f 57/115/57 36/71/36 58/116/58
f 58/116/58 36/71/36 38/117/38
f 36/71/36 57/115/57 37/70/37
f 44/102/44 37/70/37 43/118/43
f 43/118/43 37/70/37 57/115/57
f 38/72/38 39/73/39 58/119/58
f 58/119/58 39/73/39 59/120/59
f 60/121/60 59/120/59 39/73/39
f 61/122/61 60/123/60 39/74/39
f 40/75/40 61/122/61 39/74/39
f 61/122/61 40/75/40 62/124/62
f 63/125/63 40/75/40 64/126/64
f 63/125/63 62/124/62 40/75/40
f 65/127/65 64/126/64 40/75/40
f 65/128/65 40/81/40 66/129/66
f 66/129/66 40/81/40 43/80/43
f 42/130/42 41/131/41 46/132/46
f 46/132/46 55/133/55 42/130/42
f 42/79/42 56/114/56 45/83/45
f 67/134/67 43/118/43 68/135/68
f 69/136/69 68/135/68 43/118/43
f 66/129/66 43/80/43 70/137/70
f 70/138/70 43/118/43 71/139/71
f 43/118/43 57/115/57 69/136/69
f 71/139/71 43/118/43 67/134/67
f 44/82/44 45/83/45 54/140/54
f 53/97/53 44/102/44 54/98/54
f 56/141/56 52/142/52 45/143/45
f 50/107/50 55/109/55 46/144/46
f 46/144/46 47/145/47 50/107/50
f 52/92/52 56/114/56 51/91/51
f 72/146/72 69/136/69 58/116/58
f 72/147/72 58/119/58 59/120/59
f 58/116/58 69/136/69 57/115/57
f 73/148/73 72/147/72 59/120/59
f 60/121/60 74/149/74 59/120/59
f 59/120/59 74/149/74 73/148/73
f 74/149/74 60/121/60 75/150/75
f 61/122/61 75/151/75 60/123/60
f 76/152/76 75/153/75 61/154/61
f 61/122/61 62/124/62 77/155/77
f 61/122/61 77/155/77 76/156/76
f 62/157/62 78/158/78 77/159/77
f 62/124/62 63/125/63 78/160/78
f 63/161/63 64/162/64 78/163/78
f 64/162/64 65/128/65 79/164/79
f 78/163/78 64/162/64 79/164/79
f 65/128/65 80/165/80 79/164/79
f 81/166/81 65/128/65 82/167/82
f 83/168/83 65/128/65 81/166/81
f 83/168/83 80/165/80 65/128/65
f 65/128/65 66/129/66 84/169/84
f 82/167/82 65/128/65 84/169/84
f 85/170/85 66/129/66 70/137/70
f 85/170/85 84/169/84 66/129/66
f 68/135/68 86/171/86 67/134/67
f 87/172/87 68/135/68 88/173/88
f 87/172/87 86/171/86 68/135/68
f 88/173/88 68/135/68 69/136/69
f 89/174/89 71/175/71 67/176/67
f 67/176/67 90/177/90 89/174/89
f 67/176/67 86/178/86 90/177/90
f 72/179/72 91/180/91 69/181/69
f 91/180/91 88/182/88 69/181/69
f 70/137/70 89/174/89 85/170/85
f 89/183/89 70/138/70 71/139/71
f 72/147/72 73/148/73 91/184/91
f 91/184/91 73/148/73 92/185/92
f 74/186/74 75/187/75 73/188/73
f 92/189/92 73/188/73 87/190/87
f 87/190/87 73/188/73 93/191/93
f 93/191/93 73/188/73 75/187/75
f 76/156/76 94/192/94 75/151/75
f 93/191/93 75/187/75 94/193/94
f 76/156/76 95/194/95 94/192/94
f 76/156/76 93/195/93 95/194/95
f 77/155/77 93/195/93 76/156/76
f 96/196/96 93/195/93 77/155/77
f 77/155/77 78/160/78 96/196/96
f 78/163/78 79/164/79 96/197/96
f 79/198/79 80/199/80 96/196/96
f 97/200/97 98/201/98 80/199/80
f 97/200/97 80/199/80 83/202/83
f 98/201/98 96/196/96 80/199/80
f 82/167/82 99/203/99 81/166/81
f 84/169/84 100/204/100 82/167/82
f 82/205/82 100/206/100 99/207/99
f 97/208/97 81/166/81 99/203/99
f 97/209/97 83/210/83 81/211/81
f 84/169/84 101/212/101 102/213/102
f 101/212/101 84/169/84 85/170/85
f 102/213/102 100/204/100 84/169/84
f 85/170/85 89/174/89 90/177/90
f 90/177/90 101/212/101 85/170/85
f 86/178/86 103/214/103 90/177/90
f 87/190/87 103/215/103 86/216/86
f 87/172/87 88/173/88 92/217/92
f 88/173/88 91/218/91 92/217/92
f 103/215/103 87/190/87 100/206/100
f 93/191/93 100/206/100 87/190/87
f 103/214/103 101/212/101 90/177/90
f 95/219/95 93/191/93 94/193/94
f 93/195/93 96/196/96 98/201/98
f 93/191/93 98/220/98 97/221/97
f 97/221/97 99/207/99 93/191/93
f 93/191/93 99/207/99 100/206/100
f 100/206/100 102/222/102 103/215/103
f 101/212/101 103/214/103 102/213/102
