# Blender v3.5.0 OBJ File: ''
# www.blender.org
mtllib prox_phalanx1_rvs.mtl
o prox_phalanx1_rvs
v 0.043004 0.000629 -0.026990
v 0.045127 -0.001220 -0.026918
v 0.040697 -0.000231 -0.028597
v 0.038619 0.001414 -0.026463
v 0.041969 0.001464 -0.024542
v 0.045516 -0.004230 -0.021138
v 0.045603 -0.005070 -0.026796
v 0.043571 -0.006189 -0.029232
v 0.045295 -0.003764 -0.016557
v 0.039869 -0.006501 -0.030718
v 0.038561 -0.004894 -0.030387
v 0.038310 -0.001106 -0.028425
v 0.038958 0.000524 -0.027520
v 0.023902 0.004469 -0.018076
v 0.036849 0.000657 -0.029098
v 0.044175 -0.007783 -0.026102
v 0.042461 -0.007414 -0.021858
v 0.043823 -0.009096 -0.019470
v 0.044109 -0.008539 -0.016251
v 0.043059 -0.008089 -0.028333
v 0.040134 -0.008412 -0.029577
v 0.041473 -0.004788 -0.014623
v 0.038846 -0.008014 -0.029869
v 0.037174 -0.003493 -0.028099
v 0.021124 0.005229 -0.017791
v 0.023653 0.000138 -0.017155
v 0.035951 -0.003704 -0.015086
v 0.025538 0.002967 -0.028451
v 0.021416 0.006330 -0.024432
v 0.021248 0.005965 -0.019257
v 0.025679 -0.000036 -0.029192
v 0.041720 -0.009024 -0.027407
v 0.040850 -0.010732 -0.019652
v 0.040296 -0.007748 -0.022018
v 0.043570 -0.009720 -0.016889
v 0.041758 -0.010121 -0.015746
v 0.039174 -0.008554 -0.028136
v 0.037246 -0.008948 -0.015207
v 0.039000 -0.010253 -0.015473
v 0.037674 -0.005628 -0.023587
v 0.025838 -0.001880 -0.028292
v 0.018566 0.005311 -0.017998
v 0.015970 0.000262 -0.015155
v 0.031021 -0.004273 -0.016860
v 0.019954 -0.004450 -0.017508
v 0.035347 -0.006115 -0.016245
v 0.017747 -0.000892 -0.032678
v 0.018263 0.004468 -0.030535
v 0.016791 0.007188 -0.027217
v 0.017083 0.006859 -0.019353
v 0.040403 -0.011181 -0.016811
v 0.038760 -0.010906 -0.016635
v 0.038117 -0.010138 -0.019203
v 0.038576 -0.006670 -0.021877
v 0.036450 -0.009464 -0.016440
v 0.016927 -0.004654 -0.018604
v 0.015620 -0.003428 -0.033710
v 0.011138 -0.007091 -0.031705
v 0.014190 0.006519 -0.014719
v 0.015093 -0.005050 -0.015810
v 0.007259 0.005362 -0.013356
v 0.014616 -0.001583 -0.036544
v 0.012619 0.008442 -0.033915
v 0.015046 0.003877 -0.035478
v 0.015700 0.009190 -0.025160
v 0.013274 0.011013 -0.029644
v 0.014892 0.008643 -0.018753
v 0.010826 -0.007497 -0.028663
v 0.009116 -0.008509 -0.018042
v 0.010525 -0.007560 -0.024631
v 0.010834 -0.005195 -0.036687
v 0.008882 -0.006789 -0.034148
v 0.010034 -0.006445 -0.031321
v 0.010087 0.008996 -0.015942
v 0.006296 0.001042 -0.013351
v 0.008709 -0.007566 -0.016577
v 0.004382 -0.002263 -0.016312
v 0.007752 0.007871 -0.016280
v 0.012191 0.004171 -0.036317
v 0.010536 0.009508 -0.031687
v 0.010185 0.010745 -0.026651
v 0.008695 -0.007155 -0.028917
v 0.007185 -0.007498 -0.016466
v 0.008837 -0.007146 -0.026688
v 0.007959 -0.007990 -0.019129
v 0.005373 -0.005271 -0.034437
v 0.006824 -0.007262 -0.032056
v 0.005900 -0.006877 -0.015607
v 0.003777 -0.006011 -0.017356
v 0.003683 -0.005323 -0.019507
v 0.004568 -0.004498 -0.019417
v 0.007313 -0.009294 -0.023245
v 0.004182 -0.009191 -0.022193
v 0.001589 -0.006656 -0.028597
v 0.004844 -0.008607 -0.018012
v 0.006459 -0.009544 -0.020155
v 0.004214 -0.008243 -0.018476
v 0.003562 -0.006847 -0.019810
v 0.003093 -0.006868 -0.020520
v 0.001813 -0.007025 -0.024268
v 0.005492 -0.008981 -0.020688
v 0.003547 -0.008677 -0.020630
vt 0.889008 0.854210
vt 0.862371 0.818304
vt 0.932215 0.844921
vt 0.951560 0.884872
vt 0.092535 0.617143
vt 0.083492 0.575322
vt 0.116366 0.552849
vt 0.091791 0.505200
vt 1.000000 0.525963
vt 0.979295 0.626583
vt 0.948786 0.542102
vt 0.909679 0.741814
vt 0.260563 0.623591
vt 1.000000 0.695772
vt 0.867100 0.758821
vt 0.971980 0.746622
vt 0.985651 0.777036
vt 0.970832 0.841602
vt 0.952737 0.866640
vt 0.215679 0.260967
vt 0.058801 0.485702
vt 0.989638 0.871643
vt 0.903547 0.562849
vt 0.912247 0.627146
vt 0.905104 0.670365
vt 0.925716 0.718143
vt 0.884565 0.529418
vt 0.911749 0.508485
vt 0.920632 0.718143
vt 0.970332 0.720558
vt 0.507967 0.635693
vt 0.433309 0.651973
vt 0.447189 0.588447
vt 0.299249 0.570544
vt 0.989638 0.730610
vt 0.511784 0.836238
vt 0.549774 0.839629
vt 0.554652 0.886090
vt 0.509900 0.772745
vt 0.321755 0.267380
vt 0.396514 0.309249
vt 0.331635 0.312264
vt 0.437384 0.501567
vt 0.068027 0.303937
vt 0.113558 0.219892
vt 0.192708 0.214313
vt 0.218744 0.215126
vt 0.822585 0.314435
vt 0.871547 0.139318
vt 0.871861 0.315127
vt 0.931944 0.132947
vt 0.604397 0.033721
vt 0.621515 0.002008
vt 0.689344 0.028864
vt 0.865915 0.547182
vt 0.554652 0.916997
vt 0.579494 0.878368
vt 0.589358 0.916997
vt 0.862371 0.673532
vt 0.688805 0.060213
vt 0.903368 0.712623
vt 0.533456 0.598598
vt 0.528891 0.629223
vt 0.570231 0.061194
vt 0.587421 0.018007
vt 0.593920 0.074791
vt 0.565908 0.082713
vt 0.518131 0.525585
vt 0.537490 0.554623
vt 0.662632 0.110436
vt 0.451309 0.886090
vt 0.590770 0.309057
vt 0.588374 0.129136
vt 0.896948 0.310876
vt 0.218036 0.176826
vt 0.291340 0.163571
vt 0.396256 0.183946
vt 0.456782 0.427712
vt 0.472868 0.254526
vt 0.479150 0.495901
vt 0.890917 0.449018
vt 0.800529 0.433591
vt 0.036711 0.189417
vt 0.103968 0.813375
vt 0.103968 0.893268
vt 0.049186 0.831732
vt 0.190894 0.147471
vt 0.072482 0.149068
vt 0.730312 0.037144
vt 0.770669 0.000000
vt 0.776266 0.041184
vt 0.779781 0.067411
vt 0.738430 0.081383
vt 0.690627 0.091420
vt 0.606130 0.919493
vt 0.589358 0.903278
vt 0.606130 0.878368
vt 0.554652 0.580034
vt 0.797042 0.066601
vt 0.800529 0.099373
vt 0.782326 0.109295
vt 0.905386 0.020930
vt 0.860097 0.018914
vt 0.873464 0.000000
vt 0.771726 0.216457
vt 0.754438 0.429182
vt 0.931944 0.485920
vt 0.554652 0.508485
vt 0.114902 0.805706
vt 0.057478 0.741573
vt 0.114902 0.623591
vt 0.264873 0.101757
vt 0.323736 0.227387
vt 0.299249 0.150999
vt 0.481937 0.174812
vt 0.320149 0.039655
vt 0.769391 0.383915
vt 0.781203 0.141870
vt 0.800529 0.454558
vt 0.905386 0.108830
vt 0.913511 0.508485
vt 0.005743 0.740965
vt 0.054142 0.688255
vt 0.408393 0.887928
vt 0.299249 0.873734
vt 0.349026 0.826844
vt 0.854452 0.117704
vt 0.800529 0.117704
vt 0.833531 0.000000
vt 0.049186 0.960838
vt 0.005743 0.889032
vt 0.049186 0.813375
vt 0.093093 0.119638
vt 0.018946 0.077817
vt 0.332636 0.920886
vt 0.408255 0.947735
vt 0.192279 0.104337
vt 0.854452 0.061433
vt 0.966252 0.175976
vt 0.988961 0.132947
vt 0.988961 0.358764
vt 0.554652 0.749107
vt 0.509360 0.654417
vt 0.554652 0.651973
vt 0.451853 0.772745
vt 0.299249 0.920147
vt 0.246256 0.811055
vt 0.269797 0.751300
vt 0.030715 0.813375
vt 0.299249 0.623591
vt 0.287360 0.705527
vt 0.264889 0.658411
vt 0.266764 0.704848
vt 0.299249 0.003774
vt 0.237404 0.028120
vt 0.388422 0.027207
vt 0.530039 0.077238
vt 0.548846 0.087200
vt 0.665232 0.546209
vt 0.800588 0.519765
vt 0.833211 0.572192
vt 0.241238 0.000000
vt 0.731365 0.508485
vt 0.327005 0.741056
vt 0.394096 0.813221
vt 0.364126 0.669667
vt 0.443054 0.903230
vt 0.068346 0.030408
vt 0.000000 0.047509
vt 0.238467 0.737609
vt 0.197770 0.907352
vt 0.180978 0.925016
vt 0.157875 0.920154
vt 0.229789 0.771799
vt 0.183984 0.884632
vt 0.443054 0.651973
vt 0.208839 0.635040
vt 0.226621 0.682786
vt 0.862371 0.570194
vt 0.862371 0.742907
vt 0.519178 0.030536
vt 0.603709 0.552935
vt 0.513270 0.000000
vt 0.530196 0.052929
vt 0.608174 0.588464
vt 0.625081 0.589322
vt 0.750151 0.878368
vt 0.580224 0.823460
vt 0.833136 0.818932
vt 0.199570 0.823648
vt 0.148290 0.826195
vt 0.130961 0.711428
vt 0.933713 0.227095
vt 0.959995 0.132947
vt 0.966252 0.167917
vt 0.554652 0.019805
vt 0.135520 0.890321
vt 0.966252 0.288304
vt 0.931944 0.275826
vt 0.930115 0.051841
vt 0.905386 0.025490
vt 0.930115 0.000000
vt 0.555369 0.727467
vt 0.551061 0.010565
vt 0.584077 0.589314
vt 0.569771 0.564920
vt 0.579685 0.600325
vt 0.005027 0.623591
vt 0.005027 0.671216
vt 0.000000 0.641784
vt 0.561716 0.658561
vt 0.159373 0.853737
vt 0.173221 0.867437
vt 0.129417 0.845637
vt 0.114902 0.778738
vt 0.127071 0.879642
vt 0.554652 0.597525
vn 0.4023 0.4305 -0.8080
vn 0.0808 0.8259 -0.5580
vn 0.6562 0.7543 0.0202
vn 0.1387 0.9538 -0.2667
vn 0.9925 0.1226 -0.0029
vn 0.3946 0.2835 -0.8740
vn 0.7058 0.6905 0.1581
vn 0.9828 0.1824 0.0289
vn 0.7495 0.0718 -0.6581
vn 0.3406 0.2606 -0.9034
vn 0.1320 0.3019 -0.9441
vn -0.2229 0.4367 -0.8716
vn -0.0816 0.7493 -0.6571
vn -0.2574 0.5453 -0.7978
vn 0.0303 0.9551 -0.2947
vn -0.5210 0.5632 -0.6413
vn 0.0945 0.9772 -0.1902
vn 0.7183 0.3704 -0.5889
vn 0.2967 0.8509 0.4335
vn 0.6460 -0.6925 0.3211
vn 0.8904 -0.4481 0.0802
vn 0.6121 -0.4385 -0.6580
vn 0.9414 -0.3363 -0.0255
vn 0.9691 -0.2362 0.0708
vn 0.7979 -0.5044 -0.3300
vn 0.7813 -0.4263 -0.4559
vn 0.3880 -0.4775 -0.7883
vn 0.3663 -0.4390 -0.8204
vn 0.4631 -0.0584 0.8844
vn 0.1977 0.6492 0.7345
vn -0.4497 -0.1861 -0.8736
vn 0.0379 -0.5084 -0.8603
vn -0.8839 -0.1540 -0.4415
vn -0.8856 -0.1731 -0.4309
vn 0.7119 0.3596 -0.6033
vn 0.1533 0.1971 0.9683
vn -0.0160 0.3226 0.9464
vn 0.1928 0.9750 -0.1107
vn 0.6233 0.7818 -0.0149
vn 0.4632 0.8829 0.0773
vn 0.2783 0.8487 0.4496
vn -0.0972 0.2124 0.9723
vn -0.0067 0.2393 -0.9709
vn 0.0226 -0.2323 -0.9724
vn 0.3451 -0.9127 0.2187
vn 0.5031 -0.8537 -0.1346
vn 0.1503 -0.5969 -0.7881
vn 0.3896 -0.6336 -0.6684
vn 0.1284 -0.9569 0.2605
vn 0.4834 -0.8605 -0.1607
vn 0.9117 -0.4107 -0.0099
vn 0.3202 -0.1788 0.9303
vn 0.5232 -0.5774 0.6268
vn 0.2837 -0.8486 -0.4466
vn -0.1281 -0.9750 -0.1814
vn -0.2341 -0.9399 -0.2486
vn 0.0265 -0.1653 0.9859
vn 0.1060 -0.1995 0.9742
vn -0.0924 -0.0458 0.9947
vn -0.8785 -0.4775 0.0175
vn -0.9430 -0.3288 -0.0511
vn -0.1214 -0.9024 -0.4135
vn -0.0476 -0.4414 -0.8960
vn -0.0076 0.8939 0.4481
vn -0.0531 0.5105 0.8582
vn 0.2482 0.2405 0.9384
vn -0.2707 -0.3935 0.8786
vn -0.0579 -0.0301 0.9979
vn 0.2389 -0.2645 0.9343
vn -0.2792 -0.3583 0.8909
vn -0.6658 -0.1811 0.7238
vn 0.3218 0.3246 -0.8894
vn 0.2965 0.8599 -0.4155
vn 0.3690 0.2390 -0.8982
vn 0.4203 0.7842 -0.4564
vn 0.1617 0.9862 0.0353
vn 0.2076 0.9753 0.0755
vn 0.1400 0.7247 0.6747
vn 0.4068 -0.3721 -0.8343
vn -0.2252 -0.9598 0.1677
vn 0.4160 -0.9060 -0.0777
vn -0.1812 -0.9666 -0.1813
vn -0.2418 -0.9446 -0.2220
vn -0.2573 -0.6293 -0.7334
vn -0.6891 -0.6913 0.2174
vn -0.3928 -0.5284 -0.7527
vn -0.5310 -0.8186 -0.2187
vn 0.4012 -0.8517 0.3372
vn 0.0995 -0.7657 0.6354
vn -0.4647 -0.7275 0.5048
vn -0.4032 -0.7219 0.5624
vn -0.7482 -0.2814 0.6008
vn -0.0902 -0.8602 0.5020
vn -0.4530 -0.8473 -0.2773
vn -0.2731 -0.9589 -0.0769
vn 0.0545 -0.9721 -0.2282
vn 0.4726 -0.0381 -0.8804
vn 0.3276 -0.9443 0.0309
vn 0.3901 -0.7610 -0.5183
vn 0.4917 0.7906 0.3650
vn 0.6164 0.1211 0.7780
vn 0.3436 -0.1706 0.9235
vn 0.1950 -0.0129 0.9807
vn 0.1204 -0.1410 0.9827
vn 0.0060 -0.9859 0.1670
vn -0.3738 -0.9192 -0.1237
vn 0.0952 -0.9924 -0.0782
vn -0.8499 -0.2530 -0.4623
vn 0.7477 0.1832 -0.6383
vn 0.7437 -0.4084 -0.5293
vn 0.6783 0.5336 -0.5052
vn 0.6591 0.6981 -0.2798
vn 0.8351 0.0413 -0.5485
vn 0.8728 0.4880 -0.0120
vn 0.7776 0.6038 -0.1752
vn 0.7868 0.4681 -0.4024
vn 0.6358 0.6318 0.4433
vn 0.6483 0.7473 0.1456
vn -0.5330 -0.8380 -0.1172
vn -0.8560 -0.2398 -0.4580
vn 0.5051 -0.8608 -0.0631
vn 0.4460 -0.8791 0.1681
vn 0.4403 -0.8972 -0.0351
vn 0.4010 -0.9159 0.0156
vn 0.5023 -0.7975 -0.3342
vn 0.5741 -0.5782 -0.5798
vn 0.2667 -0.8952 -0.3570
vn -0.4129 -0.8686 0.2740
vn -0.5403 -0.8250 -0.1655
vn 0.0751 0.5387 0.8391
vn 0.3422 0.8056 0.4837
vn 0.2357 -0.0514 0.9705
vn 0.2405 -0.7844 0.5717
vn 0.0233 -0.3451 0.9383
vn -0.9433 0.3133 0.1098
vn -0.4264 0.7207 0.5466
vn -0.9100 0.2033 0.3613
vn 0.2935 0.1609 -0.9423
vn 0.0001 0.0395 -0.9992
vn 0.2943 0.4459 -0.8453
vn -0.0975 0.8592 -0.5023
vn -0.5314 0.4551 -0.7145
vn 0.2413 0.9639 0.1127
vn 0.1896 0.9411 0.2800
vn -0.3187 0.9151 -0.2470
vn 0.1653 0.9731 0.1604
vn -0.1553 -0.9875 -0.0270
vn -0.1098 -0.9350 -0.3373
vn 0.0019 -0.8406 0.5416
vn -0.0546 -0.9866 -0.1538
vn -0.4388 -0.8978 0.0383
vn -0.2931 -0.9458 -0.1396
vn -0.2617 -0.9649 0.0206
vn -0.3804 0.0915 -0.9203
vn -0.2569 -0.7172 -0.6478
vn 0.2425 -0.9700 0.0192
vn -0.3116 -0.8138 -0.4906
vn 0.2724 -0.9534 -0.1299
vn -0.4462 0.8839 0.1403
vn 0.2523 -0.2768 0.9272
vn -0.8280 -0.0224 0.5602
vn -0.6673 -0.1730 0.7244
vn 0.0073 -0.8052 0.5930
vn -0.9870 0.1353 0.0864
vn -0.5601 0.6561 -0.5058
vn -0.9124 0.3043 -0.2737
vn -0.9488 0.2809 -0.1447
vn -0.6717 0.3556 -0.6500
vn -0.9379 0.3403 -0.0678
vn -0.9488 0.2850 -0.1361
vn -0.1583 -0.9105 -0.3819
vn -0.0811 -0.9375 -0.3383
vn 0.7776 -0.6270 -0.0470
vn -0.0666 -0.9951 0.0736
vn -0.0015 -0.8115 0.5844
vn 0.2739 -0.9284 0.2511
vn 0.8427 -0.5371 0.0379
vn 0.6708 -0.7308 0.1263
vn 0.3544 -0.7289 0.5858
vn -0.3858 -0.8098 -0.4420
vn -0.4358 0.8974 -0.0695
vn -0.6722 -0.4288 0.6036
vn -0.6832 -0.4300 0.5903
vn -0.9957 0.0662 0.0647
vn -0.9456 -0.2735 0.1760
vn -0.8330 -0.0435 0.5515
vn -0.4961 0.6006 -0.6271
vn -0.8681 0.4103 0.2793
vn -0.7580 0.6454 0.0942
vn 0.0107 -0.9916 0.1290
vn -0.4154 -0.8903 -0.1868
vn -0.1418 -0.9560 0.2568
vn -0.6633 -0.7480 -0.0235
vn -0.6601 -0.7506 -0.0298
vn -0.5028 -0.8644 -0.0009
vn -0.5002 -0.8659 -0.0001
vn -0.9386 -0.1347 0.3178
vn -0.1431 -0.9607 0.2379
vn -0.8077 -0.2356 0.5405
vn -0.9133 -0.2488 0.3223
usemtl Material_with_Texture.212
s off
f 1/1/1 2/2/1 3/3/1
f 4/4/2 1/1/2 3/3/2
f 2/5/3 1/6/3 5/7/3
f 5/7/4 1/6/4 4/8/4
f 2/9/5 6/10/5 7/11/5
f 8/12/6 3/3/6 2/2/6
f 9/13/7 2/5/7 5/7/7
f 6/10/8 2/9/8 9/14/8
f 8/12/9 2/2/9 7/15/9
f 8/12/10 10/16/10 3/3/10
f 10/16/11 11/17/11 3/3/11
f 12/18/12 3/3/12 11/17/12
f 3/3/13 13/19/13 4/4/13
f 13/19/14 3/3/14 12/18/14
f 14/20/15 4/8/15 15/21/15
f 12/18/16 4/4/16 13/19/16
f 14/20/17 5/7/17 4/8/17
f 4/4/18 12/18/18 15/22/18
f 9/13/19 5/7/19 14/20/19
f 16/23/20 6/10/20 17/24/20
f 7/11/21 6/10/21 16/23/21
f 18/25/22 17/24/22 6/10/22
f 18/25/23 6/10/23 19/26/23
f 6/10/24 9/14/24 19/26/24
f 20/27/25 7/11/25 16/23/25
f 20/27/26 8/28/26 7/11/26
f 8/12/27 20/29/27 21/30/27
f 21/30/28 10/16/28 8/12/28
f 19/31/29 9/32/29 22/33/29
f 14/20/30 22/34/30 9/13/30
f 11/17/31 10/16/31 23/35/31
f 10/16/32 21/30/32 23/35/32
f 24/36/33 11/37/33 23/38/33
f 11/37/34 24/36/34 15/39/34
f 11/17/35 15/22/35 12/18/35
f 25/40/36 26/41/36 14/42/36
f 27/43/37 22/33/37 14/42/37
f 28/44/38 14/20/38 15/21/38
f 29/45/39 14/20/39 28/44/39
f 30/46/40 14/20/40 29/45/40
f 14/20/41 30/46/41 25/47/41
f 26/41/42 27/43/42 14/42/42
f 28/48/43 15/49/43 31/50/43
f 24/51/44 31/50/44 15/49/44
f 32/52/45 16/53/45 17/54/45
f 20/27/46 16/23/46 32/55/46
f 17/56/47 33/57/47 34/58/47
f 18/25/48 33/59/48 17/24/48
f 17/54/49 34/60/49 32/52/49
f 18/25/50 35/61/50 33/59/50
f 35/61/51 18/25/51 19/26/51
f 36/62/52 19/31/52 22/33/52
f 36/62/53 35/63/53 19/31/53
f 21/64/54 20/65/54 32/52/54
f 32/52/55 37/66/55 21/64/55
f 23/67/56 21/64/56 37/66/56
f 22/33/57 38/68/57 39/69/57
f 39/69/58 36/62/58 22/33/58
f 22/33/59 27/43/59 38/68/59
f 40/70/60 23/67/60 37/66/60
f 24/36/61 23/38/61 40/71/61
f 41/72/62 24/73/62 40/70/62
f 41/74/63 31/50/63 24/51/63
f 30/46/64 42/75/64 25/47/64
f 25/47/65 42/75/65 43/76/65
f 43/77/66 26/41/66 25/40/66
f 26/41/67 44/78/67 27/43/67
f 45/79/68 44/78/68 26/41/68
f 43/77/69 45/79/69 26/41/69
f 44/78/70 46/80/70 27/43/70
f 46/80/71 38/68/71 27/43/71
f 28/48/72 47/81/72 48/82/72
f 28/44/73 48/83/73 29/45/73
f 31/50/74 47/81/74 28/48/74
f 49/84/75 29/85/75 48/86/75
f 50/87/76 29/45/76 49/88/76
f 50/87/77 30/46/77 29/45/77
f 30/46/78 50/87/78 42/75/78
f 47/81/79 31/50/79 41/74/79
f 34/60/80 37/66/80 32/52/80
f 33/89/81 35/90/81 51/91/81
f 51/91/82 52/92/82 33/89/82
f 52/92/83 53/93/83 33/89/83
f 53/93/84 34/60/84 33/89/84
f 40/70/85 37/66/85 34/60/85
f 34/60/86 53/93/86 54/94/86
f 40/70/87 34/60/87 54/94/87
f 35/95/88 36/96/88 51/97/88
f 39/69/89 51/98/89 36/62/89
f 39/99/90 38/100/90 52/92/90
f 55/101/91 52/92/91 38/100/91
f 46/102/92 55/103/92 38/104/92
f 39/99/93 52/92/93 51/91/93
f 44/105/94 40/70/94 54/94/94
f 44/105/95 41/72/95 40/70/95
f 41/72/96 44/105/96 56/106/96
f 41/74/97 57/107/97 47/81/97
f 58/108/98 41/72/98 56/106/98
f 58/109/99 57/110/99 41/111/99
f 59/112/100 42/75/100 50/87/100
f 42/113/101 59/114/101 43/77/101
f 43/77/102 60/115/102 45/79/102
f 43/77/103 59/114/103 61/116/103
f 60/115/104 43/77/104 61/116/104
f 56/106/105 44/105/105 45/117/105
f 46/118/106 44/105/106 54/94/106
f 45/117/107 60/119/107 56/106/107
f 55/103/108 46/102/108 54/120/108
f 48/82/109 47/81/109 62/121/109
f 62/122/110 47/123/110 57/110/110
f 63/124/111 48/125/111 64/126/111
f 49/127/112 48/128/112 63/129/112
f 62/130/113 64/131/113 48/132/113
f 65/133/114 50/87/114 49/88/114
f 66/134/115 65/133/115 49/88/115
f 49/135/116 63/124/116 66/136/116
f 67/137/117 59/112/117 50/87/117
f 50/87/118 65/133/118 67/137/118
f 52/92/119 55/101/119 53/93/119
f 55/103/120 54/120/120 53/138/120
f 68/139/121 58/140/121 56/141/121
f 69/142/122 56/143/122 60/144/122
f 56/143/123 69/142/123 70/145/123
f 56/146/124 70/147/124 68/148/124
f 71/149/125 57/110/125 58/109/125
f 62/122/126 57/110/126 71/149/126
f 71/150/127 58/151/127 72/152/127
f 73/153/128 72/152/128 58/151/128
f 73/153/129 58/151/129 68/148/129
f 61/154/130 59/112/130 74/155/130
f 59/112/131 67/137/131 74/155/131
f 61/116/132 75/156/132 60/115/132
f 60/115/133 76/157/133 69/158/133
f 60/115/134 75/156/134 76/157/134
f 77/159/135 61/160/135 78/161/135
f 61/154/136 74/155/136 78/162/136
f 75/163/137 61/160/137 77/159/137
f 64/126/138 62/164/138 79/165/138
f 62/164/139 71/166/139 79/165/139
f 63/124/140 64/126/140 79/165/140
f 66/136/141 63/124/141 80/167/141
f 63/124/142 79/165/142 80/167/142
f 67/137/143 65/133/143 81/168/143
f 66/134/144 81/168/144 65/133/144
f 80/169/145 81/168/145 66/134/145
f 81/168/146 74/155/146 67/137/146
f 68/148/147 70/147/147 82/170/147
f 82/170/148 73/153/148 68/148/148
f 69/171/149 76/172/149 83/173/149
f 70/147/150 69/171/150 84/174/150
f 83/173/151 85/175/151 69/171/151
f 85/175/152 84/174/152 69/171/152
f 84/174/153 82/170/153 70/147/153
f 79/165/154 71/166/154 86/176/154
f 86/177/155 71/150/155 72/152/155
f 87/178/156 72/152/156 73/153/156
f 72/152/157 87/178/157 86/177/157
f 73/153/158 82/170/158 87/178/158
f 74/179/159 81/180/159 78/161/159
f 76/157/160 75/156/160 88/181/160
f 77/159/161 89/182/161 75/163/161
f 89/183/162 88/181/162 75/156/162
f 88/181/163 83/184/163 76/157/163
f 90/185/164 89/182/164 77/159/164
f 77/159/165 91/186/165 90/185/165
f 77/159/166 78/161/166 91/186/166
f 81/180/167 91/186/167 78/161/167
f 79/187/168 86/188/168 80/189/168
f 86/188/169 91/186/169 80/189/169
f 80/189/170 91/186/170 81/180/170
f 92/190/171 93/191/171 82/170/171
f 94/192/172 82/170/172 93/191/172
f 92/193/173 82/194/173 84/195/173
f 87/178/174 82/170/174 94/192/174
f 83/184/175 88/181/175 95/196/175
f 83/173/176 95/197/176 85/175/176
f 85/198/177 92/193/177 84/195/177
f 92/193/178 85/198/178 96/199/178
f 95/200/179 96/201/179 85/202/179
f 94/192/180 86/177/180 87/178/180
f 86/188/181 94/203/181 91/186/181
f 95/196/182 88/181/182 89/183/182
f 95/196/183 89/183/183 97/204/183
f 98/205/184 89/182/184 90/185/184
f 97/206/185 89/182/185 98/205/185
f 90/185/186 99/207/186 98/205/186
f 91/208/187 99/209/187 90/210/187
f 91/186/188 100/211/188 99/207/188
f 94/203/189 100/211/189 91/186/189
f 93/191/190 92/190/190 101/212/190
f 92/190/191 96/213/191 101/212/191
f 101/212/192 102/214/192 93/191/192
f 102/214/193 100/215/193 93/191/193
f 94/192/194 93/191/194 100/215/194
f 101/212/195 96/213/195 95/197/195
f 95/197/196 97/216/196 101/212/196
f 97/206/197 98/205/197 102/217/197
f 97/216/198 102/214/198 101/212/198
f 102/217/199 98/205/199 99/207/199
f 100/211/200 102/217/200 99/207/200
