# Blender 4.3.0
# www.blender.org
mtllib r_cap.mtl
o r_cap
v 0.013842 0.004139 0.012170
v 0.014669 0.003599 0.011627
v 0.014595 0.010687 0.009675
v 0.012582 0.016993 0.008759
v 0.004262 0.004231 0.010638
v 0.006614 0.013044 0.008999
v -0.001332 -0.005896 0.008342
v 0.010806 -0.006431 0.011461
v 0.014066 -0.005981 0.012678
v 0.015798 0.003232 0.010196
v 0.015193 0.006519 0.009187
v 0.015102 -0.003777 0.010893
v 0.015728 0.006434 0.007402
v 0.015448 0.010752 0.006705
v 0.014471 0.016239 0.003715
v 0.004774 0.014314 0.003524
v 0.004156 0.004000 0.008516
v 0.004308 0.008712 0.008434
v -0.001125 -0.006148 0.004394
v 0.003945 0.010435 0.004138
v -0.000601 -0.007465 0.002338
v -0.000566 -0.009448 0.002000
v 0.013957 -0.007964 0.007566
v 0.015065 -0.007013 0.008834
v 0.014668 -0.005034 0.008769
v 0.015692 0.001447 0.007803
v 0.016668 0.005421 0.004458
v 0.016343 0.008446 0.001961
v 0.016841 0.012970 -0.003882
v 0.007742 0.009496 -0.005940
v 0.004832 0.007674 -0.001193
v 0.003473 0.003622 0.005144
v 0.003520 0.005551 0.004812
v -0.000304 -0.002150 0.003219
v 0.003338 0.006405 0.002664
v 0.000860 -0.001340 0.002168
v 0.004021 0.006087 0.001512
v 0.001006 -0.001285 0.000851
v -0.000616 -0.006789 -0.000281
v 0.002940 -0.010443 -0.002368
v 0.009907 -0.008192 0.000053
v 0.014823 -0.005522 0.005467
v 0.015444 -0.002996 0.007269
v 0.015453 0.000005 0.006306
v 0.017176 0.003222 0.005749
v 0.016066 0.002890 0.002361
v 0.015247 0.003614 -0.000136
v 0.005427 0.003704 -0.004399
v 0.004043 0.002835 -0.001448
v 0.004003 0.002942 0.000793
v 0.002384 0.002263 0.002168
v 0.002085 0.000121 0.000337
v 0.002513 -0.000631 -0.001182
v 0.004093 -0.001499 -0.003789
v 0.013536 -0.001549 -0.000147
v 0.015048 -0.001271 0.003578
vn 0.0596 0.1475 0.9873
vn 0.5537 0.1242 0.8234
vn 0.7826 0.2465 0.5716
vn 0.2112 0.8006 0.5608
vn -0.5996 0.2236 0.7685
vn -0.5375 0.5660 0.6251
vn -0.8069 -0.2476 0.5363
vn -0.1240 -0.5846 0.8018
vn 0.4356 -0.4061 0.8034
vn 0.9730 0.0712 0.2193
vn 0.9465 0.1216 0.2989
vn 0.9653 -0.0814 0.2483
vn 0.9638 0.0816 0.2538
vn 0.9505 0.2083 0.2305
vn 0.4953 0.8681 -0.0319
vn -0.6840 0.7127 -0.1553
vn -0.9366 0.2965 0.1866
vn -0.9287 0.2019 0.3110
vn -0.9760 0.1382 -0.1685
vn -0.9693 0.2453 -0.0144
vn -0.9708 -0.0579 -0.2328
vn -0.6013 -0.7977 -0.0459
vn 0.4043 -0.9143 0.0255
vn 0.7574 -0.6383 0.1378
vn 0.9920 -0.1005 0.0758
vn 0.9843 -0.1014 0.1447
vn 0.9963 0.0760 0.0409
vn 0.9993 0.0349 0.0146
vn 0.6420 0.4167 -0.6436
vn -0.2841 0.2316 -0.9304
vn -0.9205 0.2020 -0.3344
vn -0.9415 0.2310 0.2454
vn -0.9788 0.0990 0.1792
vn -0.9377 0.3170 -0.1423
vn -0.9701 0.1854 -0.1568
vn -0.9003 0.3038 -0.3117
vn -0.9181 0.1760 -0.3552
vn -0.8966 0.3572 -0.2616
vn -0.8944 0.0044 -0.4473
vn -0.1686 -0.7374 -0.6541
vn 0.4700 -0.7153 -0.5172
vn 0.8998 -0.3439 -0.2684
vn 0.9924 -0.0868 0.0874
vn 0.9741 -0.2148 -0.0701
vn 0.9311 0.1018 0.3503
vn 0.9450 -0.2269 -0.2356
vn 0.7664 -0.2789 -0.5787
vn -0.3904 -0.0191 -0.9205
vn -0.9086 0.2654 -0.3224
vn -0.8617 0.3011 -0.4085
vn -0.8663 0.4279 -0.2577
vn -0.8065 0.4498 -0.3836
vn -0.8117 0.2844 -0.5101
vn -0.2579 -0.0191 -0.9660
vn 0.6574 -0.2824 -0.6986
vn 0.9129 -0.2911 -0.2861
vt 0.341989 0.275609
vt 0.326146 0.285231
vt 0.342275 0.132352
vt 0.394321 0.000000
vt 0.548295 0.283906
vt 0.514262 0.091761
vt 0.663484 0.502612
vt 0.397272 0.502612
vt 0.324972 0.490555
vt 0.953093 0.789562
vt 0.918930 0.790776
vt 0.912854 0.718499
vt 0.941330 0.633740
vt 0.937977 0.994363
vt 0.907063 0.940506
vt 0.874079 0.712828
vt 0.877744 0.620016
vt 0.953093 0.499712
vt 0.840448 0.494165
vt 0.002416 0.131094
vt 0.019497 0.013000
vt 0.134198 0.000000
vt 0.096260 0.099981
vt 0.043087 0.326603
vt 0.000000 0.328042
vt 0.022633 0.230895
vt 0.147164 0.550721
vt 0.065733 0.559548
vt 0.098435 0.185007
vt 0.197528 0.567238
vt 0.214122 0.605698
vt 0.436238 0.865268
vt 0.474417 0.535429
vt 0.577511 0.576778
vt 0.586119 0.840359
vt 0.498816 0.503957
vt 0.586119 0.502612
vt 0.851473 1.000000
vt 0.859147 0.958658
vt 0.862437 0.818669
vt 0.806464 0.721677
vt 0.767741 0.648783
vt 0.663484 0.530725
vt 0.314818 0.026231
vt 0.324972 0.147508
vt 0.223359 0.217740
vt 0.108896 0.327824
vt 0.106423 0.287791
vt 0.155610 0.461576
vt 0.144358 0.265001
vt 0.178871 0.434552
vt 0.172589 0.263346
vt 0.205766 0.428327
vt 0.246646 0.545451
vt 0.324972 0.589343
vt 0.324972 0.817674
vt 0.347292 0.656887
vt 0.825461 0.450300
vt 0.969784 0.432269
vt 0.994773 0.483271
vt 0.960897 0.494165
vt 0.788327 0.955659
vt 0.834169 0.909580
vt 0.826250 0.843037
vt 0.823021 0.772400
vt 0.605859 0.592861
vt 0.586119 0.549567
vt 0.605859 0.502612
vt 0.754436 0.766678
vt 0.707786 0.742216
vt 0.789722 0.051759
vt 0.994773 0.000000
vt 0.963633 0.212321
vt 0.738494 0.177519
vt 0.310034 0.283338
vt 0.247825 0.318994
vt 0.202186 0.324232
vt 0.169396 0.352569
vt 0.214921 0.391604
vt 0.251272 0.399114
vt 0.316062 0.398126
vt 0.701610 0.286331
vt 0.914887 0.316277
vt 0.663484 0.476464
vt 0.972689 0.334304
vt 0.765661 0.859171
vt 0.691386 0.851263
s 1
usemtl Material_with_Texture.234
f 1/1/1 2/2/2 3/3/3 4/4/4
f 5/5/5 1/1/1 4/4/4 6/6/6
f 7/7/7 8/8/8 1/1/1 5/5/5
f 8/8/8 9/9/9 2/2/2 1/1/1
f 2/10/2 10/11/10 11/12/11 3/13/3
f 9/14/9 12/15/12 10/11/10 2/10/2
f 3/13/3 11/12/11 13/16/13 14/17/14
f 4/18/4 3/13/3 14/17/14 15/19/15
f 6/20/6 4/21/4 15/22/15 16/23/16
f 17/24/17 5/25/5 6/20/6 18/26/18
f 19/27/19 7/28/7 5/25/5 17/24/17
f 18/26/18 6/20/6 16/23/16 20/29/20
f 21/30/21 22/31/22 7/28/7 19/27/19
f 22/32/22 23/33/23 8/34/8 7/35/7
f 23/33/23 24/36/24 9/37/9 8/34/8
f 24/38/24 25/39/25 12/15/12 9/14/9
f 26/40/26 11/12/11 10/11/10
f 26/40/26 10/11/10 12/15/12
f 26/40/26 13/16/13 11/12/11
f 26/40/26 12/15/12 25/39/25
f 14/17/14 13/16/13 27/41/27 28/42/28
f 26/40/26 27/41/27 13/16/13
f 15/19/15 14/17/14 28/42/28 29/43/29
f 16/23/16 15/22/15 29/44/29 30/45/30
f 20/29/20 16/23/16 30/45/30 31/46/31
f 32/47/32 17/24/17 18/26/18 33/48/33
f 34/49/34 19/27/19 17/24/17 32/47/32
f 33/48/33 18/26/18 20/29/20 35/50/35
f 36/51/36 21/30/21 19/27/19 34/49/34
f 35/50/35 20/29/20 31/46/31 37/52/37
f 38/53/38 39/54/39 21/30/21 36/51/36
f 39/54/39 40/55/40 22/31/22 21/30/21
f 40/56/40 41/57/41 23/33/23 22/32/22
f 41/58/41 42/59/42 24/60/24 23/61/23
f 42/62/42 43/63/43 25/39/25 24/38/24
f 26/40/26 25/39/25 43/63/43
f 26/40/26 43/63/43 44/64/44
f 26/40/26 44/64/44 45/65/45
f 26/66/26 45/67/45 27/68/27
f 28/42/28 27/41/27 45/65/45 46/69/46
f 29/43/29 28/42/28 46/69/46 47/70/47
f 30/71/30 29/72/29 47/73/47 48/74/48
f 31/46/31 30/45/30 48/75/48 49/76/49
f 37/52/37 31/46/31 49/76/49 50/77/50
f 32/47/32 33/48/33 51/78/51
f 34/49/34 32/47/32 51/78/51
f 33/48/33 35/50/35 51/78/51
f 36/51/36 34/49/34 51/78/51
f 35/50/35 37/52/37 51/78/51
f 38/53/38 36/51/36 51/78/51
f 37/52/37 50/77/50 51/78/51
f 52/79/52 53/80/53 39/54/39 38/53/38
f 52/79/52 38/53/38 51/78/51
f 53/80/53 54/81/54 40/55/40 39/54/39
f 54/82/54 55/83/55 41/58/41 40/84/40
f 55/83/55 56/85/56 42/59/42 41/58/41
f 56/86/56 44/64/44 43/63/43 42/62/42
f 46/69/46 45/65/45 44/64/44 56/86/56
f 47/70/47 46/69/46 56/86/56 55/87/55
f 48/74/48 47/73/47 55/83/55 54/82/54
f 49/76/49 48/75/48 54/81/54 53/80/53
f 50/77/50 49/76/49 53/80/53 52/79/52
f 50/77/50 52/79/52 51/78/51
