# Blender v3.5.0 OBJ File: ''
# www.blender.org
mtllib r_cap.mtl
o r_cap
v 0.013842 0.004139 0.012170
v 0.014669 0.003599 0.011627
v 0.014595 0.010687 0.009675
v 0.012582 0.016993 0.008759
v 0.004262 0.004231 0.010638
v 0.006614 0.013044 0.008999
v -0.001332 -0.005896 0.008342
v 0.010806 -0.006431 0.011461
v 0.014066 -0.005981 0.012678
v 0.015798 0.003232 0.010196
v 0.015193 0.006519 0.009187
v 0.015102 -0.003777 0.010893
v 0.015728 0.006434 0.007402
v 0.015448 0.010752 0.006705
v 0.014471 0.016239 0.003715
v 0.004774 0.014314 0.003524
v 0.004156 0.004000 0.008516
v 0.004308 0.008712 0.008434
v -0.001125 -0.006148 0.004394
v 0.003945 0.010435 0.004138
v -0.000601 -0.007465 0.002338
v -0.000566 -0.009448 0.002000
v 0.013957 -0.007964 0.007566
v 0.015065 -0.007013 0.008834
v 0.014668 -0.005034 0.008769
v 0.015692 0.001447 0.007803
v 0.016668 0.005421 0.004458
v 0.016343 0.008446 0.001961
v 0.016841 0.012970 -0.003882
v 0.007742 0.009496 -0.005940
v 0.004832 0.007674 -0.001193
v 0.003473 0.003622 0.005144
v 0.003520 0.005551 0.004812
v -0.000304 -0.002150 0.003219
v 0.003338 0.006405 0.002664
v 0.000860 -0.001340 0.002168
v 0.004021 0.006087 0.001512
v 0.001006 -0.001285 0.000851
v -0.000616 -0.006789 -0.000281
v 0.002940 -0.010443 -0.002368
v 0.009907 -0.008192 0.000053
v 0.014823 -0.005522 0.005467
v 0.015444 -0.002996 0.007269
v 0.015453 0.000005 0.006306
v 0.017176 0.003222 0.005749
v 0.016066 0.002890 0.002361
v 0.015247 0.003614 -0.000136
v 0.005427 0.003704 -0.004399
v 0.004043 0.002835 -0.001448
v 0.004003 0.002942 0.000793
v 0.002384 0.002263 0.002168
v 0.002085 0.000121 0.000337
v 0.002513 -0.000631 -0.001182
v 0.004093 -0.001499 -0.003789
v 0.013536 -0.001549 -0.000147
v 0.015048 -0.001271 0.003578
vt 0.341989 0.275609
vt 0.326146 0.285231
vt 0.342275 0.132352
vt 0.394321 0.000000
vt 0.548295 0.283906
vt 0.514262 0.091761
vt 0.663484 0.502612
vt 0.397272 0.502612
vt 0.324972 0.490555
vt 0.953093 0.789562
vt 0.918930 0.790776
vt 0.912854 0.718499
vt 0.941330 0.633740
vt 0.937977 0.994363
vt 0.907063 0.940506
vt 0.874079 0.712828
vt 0.877744 0.620016
vt 0.953093 0.499712
vt 0.840448 0.494165
vt 0.002416 0.131094
vt 0.019497 0.013000
vt 0.134198 0.000000
vt 0.096260 0.099981
vt 0.043087 0.326603
vt 0.000000 0.328042
vt 0.022633 0.230895
vt 0.147164 0.550721
vt 0.065733 0.559548
vt 0.098435 0.185007
vt 0.197528 0.567238
vt 0.214122 0.605698
vt 0.436238 0.865268
vt 0.474417 0.535429
vt 0.577511 0.576778
vt 0.586119 0.840359
vt 0.498816 0.503957
vt 0.586119 0.502612
vt 0.851473 1.000000
vt 0.859147 0.958658
vt 0.862437 0.818669
vt 0.806464 0.721677
vt 0.767741 0.648783
vt 0.663484 0.530725
vt 0.314818 0.026231
vt 0.324972 0.147508
vt 0.223359 0.217740
vt 0.108896 0.327824
vt 0.106423 0.287791
vt 0.155610 0.461576
vt 0.144358 0.265001
vt 0.178871 0.434552
vt 0.172589 0.263346
vt 0.205766 0.428327
vt 0.246646 0.545451
vt 0.324972 0.589343
vt 0.324972 0.817674
vt 0.347292 0.656887
vt 0.825461 0.450300
vt 0.969784 0.432269
vt 0.994773 0.483271
vt 0.960897 0.494165
vt 0.788327 0.955659
vt 0.834169 0.909580
vt 0.826250 0.843037
vt 0.823021 0.772400
vt 0.605859 0.592861
vt 0.586119 0.549567
vt 0.605859 0.502612
vt 0.754436 0.766678
vt 0.707786 0.742216
vt 0.789722 0.051759
vt 0.994773 0.000000
vt 0.963633 0.212321
vt 0.738494 0.177519
vt 0.310034 0.283338
vt 0.247825 0.318994
vt 0.202186 0.324232
vt 0.169396 0.352569
vt 0.214921 0.391604
vt 0.251272 0.399114
vt 0.316062 0.398126
vt 0.701610 0.286331
vt 0.914887 0.316277
vt 0.663484 0.476464
vt 0.972689 0.334304
vt 0.765661 0.859171
vt 0.691386 0.851263
vn 0.5073 0.2553 0.8231
vn -0.1374 0.2314 0.9631
vn -0.2106 -0.0539 0.9761
vn -0.1616 0.0459 0.9858
vn 0.8998 0.1732 0.4005
vn 0.8312 -0.0065 0.5559
vn 0.9547 0.1056 0.2782
vn 0.9038 0.3224 0.2815
vn -0.3506 0.9355 0.0443
vn -0.8802 0.2167 0.4222
vn -0.8729 0.4850 -0.0531
vn -0.8891 0.3413 0.3050
vn -0.9906 -0.0991 -0.0947
vn -0.1017 -0.9059 0.4111
vn 0.0941 -0.9289 0.3583
vn 0.9872 -0.0936 0.1294
vn 0.9801 0.1359 -0.1448
vn 0.9950 -0.0961 0.0276
vn 0.9580 0.0161 0.2864
vn 0.9804 -0.1698 -0.0998
vn 0.9741 0.1527 0.1666
vn 0.9542 0.0171 0.2988
vn 0.9665 0.1944 0.1679
vn -0.1916 0.8623 -0.4687
vn -0.8984 0.2491 -0.3617
vn -0.9817 0.0410 0.1857
vn -0.8757 0.3903 0.2842
vn -0.9868 0.1031 0.1247
vn -0.8623 0.1293 -0.4896
vn -0.9365 0.1691 -0.3071
vn -0.9668 0.2551 0.0152
vn -0.8404 -0.3619 -0.4034
vn 0.1360 -0.9861 0.0953
vn 0.7396 -0.5699 -0.3579
vn 0.9958 -0.0716 0.0573
vn 0.9308 -0.0944 0.3532
vn 0.9921 -0.0411 -0.1188
vn 0.8683 -0.4192 0.2651
vn 0.3993 0.5310 0.7474
vn 0.9685 -0.0252 -0.2477
vn 0.9771 -0.1613 -0.1391
vn 0.3538 -0.3883 -0.8509
vn -0.8834 0.2071 -0.4204
vn -0.9841 0.1159 -0.1346
vn -0.9471 0.0767 0.3116
vn -0.8450 0.5306 0.0669
vn -0.9656 0.2029 0.1625
vn -0.7475 0.3162 -0.5842
vn -0.8012 0.2497 -0.5439
vn -0.9176 0.3881 -0.0855
vn -0.6781 0.1675 -0.7157
vn -0.8018 0.3563 -0.4797
vn -0.7905 0.4580 -0.4067
vn -0.6417 0.0644 -0.7642
vn 0.3633 -0.2060 -0.9086
vn 0.8112 -0.3733 -0.4501
vn 0.9849 -0.0899 -0.1477
vn 0.9189 -0.3726 -0.1297
vn 0.8846 -0.3046 -0.3532
vn 0.3736 -0.1625 -0.9132
vn -0.8572 0.2370 -0.4571
vn -0.8536 0.4746 -0.2147
vn -0.6656 0.5364 -0.5188
usemtl Material_with_Texture.234
s off
f 1/1/1 2/2/1 3/3/1 4/4/1
f 5/5/2 1/1/2 4/4/2 6/6/2
f 7/7/3 8/8/3 1/1/3 5/5/3
f 8/8/4 9/9/4 2/2/4 1/1/4
f 2/10/5 10/11/5 11/12/5 3/13/5
f 9/14/6 12/15/6 10/11/6 2/10/6
f 3/13/7 11/12/7 13/16/7 14/17/7
f 4/18/8 3/13/8 14/17/8 15/19/8
f 6/20/9 4/21/9 15/22/9 16/23/9
f 17/24/10 5/25/10 6/20/10 18/26/10
f 19/27/11 7/28/11 5/25/11 17/24/11
f 18/26/12 6/20/12 16/23/12 20/29/12
f 21/30/13 22/31/13 7/28/13 19/27/13
f 22/32/14 23/33/14 8/34/14 7/35/14
f 23/33/15 24/36/15 9/37/15 8/34/15
f 24/38/16 25/39/16 12/15/16 9/14/16
f 26/40/17 11/12/17 10/11/17
f 26/40/18 10/11/18 12/15/18
f 26/40/19 13/16/19 11/12/19
f 26/40/20 12/15/20 25/39/20
f 14/17/21 13/16/21 27/41/21 28/42/21
f 26/40/22 27/41/22 13/16/22
f 15/19/23 14/17/23 28/42/23 29/43/23
f 16/23/24 15/22/24 29/44/24 30/45/24
f 20/29/25 16/23/25 30/45/25 31/46/25
f 32/47/26 17/24/26 18/26/26 33/48/26
f 34/49/27 19/27/27 17/24/27 32/47/27
f 33/48/28 18/26/28 20/29/28 35/50/28
f 36/51/29 21/30/29 19/27/29 34/49/29
f 35/50/30 20/29/30 31/46/30 37/52/30
f 38/53/31 39/54/31 21/30/31 36/51/31
f 39/54/32 40/55/32 22/31/32 21/30/32
f 40/56/33 41/57/33 23/33/33 22/32/33
f 41/58/34 42/59/34 24/60/34 23/61/34
f 42/62/35 43/63/35 25/39/35 24/38/35
f 26/40/36 25/39/36 43/63/36
f 26/40/37 43/63/37 44/64/37
f 26/40/38 44/64/38 45/65/38
f 26/66/39 45/67/39 27/68/39
f 28/42/40 27/41/40 45/65/40 46/69/40
f 29/43/41 28/42/41 46/69/41 47/70/41
f 30/71/42 29/72/42 47/73/42 48/74/42
f 31/46/43 30/45/43 48/75/43 49/76/43
f 37/52/44 31/46/44 49/76/44 50/77/44
f 32/47/45 33/48/45 51/78/45
f 34/49/46 32/47/46 51/78/46
f 33/48/47 35/50/47 51/78/47
f 36/51/48 34/49/48 51/78/48
f 35/50/49 37/52/49 51/78/49
f 38/53/50 36/51/50 51/78/50
f 37/52/51 50/77/51 51/78/51
f 52/79/52 53/80/52 39/54/52 38/53/52
f 52/79/53 38/53/53 51/78/53
f 53/80/54 54/81/54 40/55/54 39/54/54
f 54/82/55 55/83/55 41/58/55 40/84/55
f 55/83/56 56/85/56 42/59/56 41/58/56
f 56/86/57 44/64/57 43/63/57 42/62/57
f 46/69/58 45/65/58 44/64/58 56/86/58
f 47/70/59 46/69/59 56/86/59 55/87/59
f 48/74/60 47/73/60 55/83/60 54/82/60
f 49/76/61 48/75/61 54/81/61 53/80/61
f 50/77/62 49/76/62 53/80/62 52/79/62
f 50/77/63 52/79/63 51/78/63
