# Blender 4.3.0
# www.blender.org
mtllib r_femur.mtl
o r_femur
v -0.013114 0.003311 -0.020568
v -0.000085 0.009028 -0.020875
v -0.014411 -0.013599 -0.016180
v -0.002784 0.019901 -0.012436
v -0.004822 0.015113 -0.017986
v -0.015467 0.015633 -0.008531
v 0.005878 0.016242 -0.016682
v 0.003556 -0.019732 -0.016088
v -0.007062 0.022360 0.000327
v 0.007823 0.021768 0.005335
v -0.005579 0.016913 0.016052
v -0.023660 0.000967 -0.006164
v -0.019055 0.012640 0.007551
v -0.014759 0.010038 0.016963
v -0.023220 -0.006689 0.005091
v 0.001598 0.010357 0.022321
v 0.021216 -0.015083 -0.004167
v 0.015349 -0.020967 -0.003978
v 0.023795 0.002147 -0.007742
v 0.020854 0.012847 0.002001
v 0.024599 -0.004204 0.008415
v 0.014600 0.010018 0.018402
v 0.016198 -0.004698 0.020099
v 0.020209 -0.015490 0.007689
v 0.010503 0.019403 -0.007659
v 0.013223 0.008363 -0.016910
v 0.015148 0.014049 -0.012575
v 0.003569 0.021949 -0.007794
v -0.008366 -0.019571 -0.014054
v -0.019784 -0.021302 0.028702
v -0.038873 -0.035552 0.036553
v -0.023914 -0.020013 0.040535
v -0.012644 -0.006672 0.034800
v -0.021400 -0.006447 0.037326
v -0.006106 0.000178 0.052153
v -0.000296 -0.003930 0.046573
v -0.027703 -0.000529 0.033084
v -0.011075 -0.021155 0.001915
v -0.000799 -0.022939 0.003413
v -0.014970 -0.036348 0.011294
v 0.006804 -0.007788 0.026210
v 0.007199 -0.012994 0.040921
v 0.006727 -0.021807 0.031446
v 0.009922 -0.017790 0.017339
v -0.006907 -0.001849 0.023130
v 0.001064 -0.037655 0.016995
v -0.016721 -0.005802 0.015672
v -0.017036 -0.015848 0.008164
v 0.007431 -0.021097 0.009590
v -0.008677 -0.038008 0.012070
v -0.020884 -0.012612 -0.006464
v -0.009739 -0.033800 0.063565
v -0.000133 -0.017752 0.052621
v -0.032658 -0.019884 0.057844
v -0.038101 -0.020758 0.036682
v -0.021799 0.002975 0.045035
v -0.034625 -0.000166 0.034015
v -0.030773 -0.003437 0.051281
v -0.020019 -0.065406 0.016430
v 0.001888 -0.050437 0.023684
v -0.021987 -0.068660 0.022683
v -0.026600 -0.063557 0.027570
v -0.028167 -0.055362 0.049683
v -0.009061 -0.053777 0.053565
v -0.004804 -0.033083 0.057768
v 0.001828 -0.052047 0.040406
v -0.010321 -0.052184 0.017045
v -0.018704 -0.059084 0.009752
v -0.021112 -0.052592 0.006843
v -0.029304 -0.050557 0.014592
v -0.009861 -0.122673 0.038411
v -0.009102 -0.122405 0.046093
v -0.012222 -0.089393 0.052363
v 0.001741 -0.122401 0.050699
v 0.010553 -0.116796 0.021375
v 0.005040 -0.211145 0.023398
v -0.015962 -0.076564 0.025905
v 0.017877 -0.118250 0.032993
v 0.024022 -0.208574 0.013659
v 0.028598 -0.338751 -0.004223
v 0.013099 -0.337486 -0.002011
v 0.031584 -0.209816 0.030582
v 0.019687 -0.211943 0.041596
v 0.034582 -0.340055 0.018527
v 0.007690 -0.336543 0.018517
v 0.022141 -0.339969 0.025315
v -0.018817 -0.396660 -0.017185
v -0.025855 -0.405832 -0.025819
v -0.019174 -0.406372 -0.013821
v -0.006637 -0.423938 -0.016572
v -0.013248 -0.426032 -0.025707
v -0.010709 -0.421015 -0.040216
v -0.012680 -0.392909 -0.023438
v -0.004223 -0.407482 -0.013366
v -0.008109 -0.395588 -0.015360
v -0.003592 -0.395753 -0.006723
v 0.003231 -0.389068 -0.020041
v 0.008299 -0.418658 -0.001633
v 0.011538 -0.429623 -0.015637
v 0.022330 -0.416680 0.000253
v 0.029416 -0.422512 -0.014000
v 0.007325 -0.375443 0.003419
v 0.013559 -0.372458 -0.019040
v 0.030000 -0.379072 -0.002339
v 0.035330 -0.410738 -0.011388
v 0.032574 -0.401500 0.002409
v 0.001941 -0.429016 -0.033663
v 0.016776 -0.427124 -0.027836
v 0.008835 -0.401997 -0.041705
v -0.006762 -0.395785 -0.039972
v 0.005616 -0.387013 -0.035951
v -0.017644 -0.397568 -0.037915
v 0.011653 -0.388739 -0.032537
v -0.022800 -0.402803 0.015179
v -0.023009 -0.413686 0.017612
v -0.023440 -0.401921 0.027443
v -0.017429 -0.411801 0.006657
v -0.014682 -0.391722 0.014773
v 0.008596 -0.425185 0.015568
v -0.007208 -0.423603 0.033145
v -0.015598 -0.394929 0.028678
v -0.001075 -0.386388 0.013885
v 0.005931 -0.376971 0.024925
v -0.006980 -0.396154 0.002524
v 0.032032 -0.380506 0.019659
v 0.014189 -0.404597 0.033742
v 0.038085 -0.403247 0.021679
v 0.026238 -0.422484 0.024092
v 0.033575 -0.411492 0.012062
v -0.003949 -0.390844 0.036919
v -0.020617 -0.415872 0.030533
v -0.004249 -0.405188 0.037892
vn -0.4415 0.0779 -0.8939
vn 0.0875 0.1415 -0.9861
vn -0.6412 -0.5390 -0.5462
vn -0.1696 0.8692 -0.4645
vn -0.2394 0.5991 -0.7640
vn -0.6743 0.6567 -0.3376
vn 0.2495 0.6296 -0.7358
vn 0.1890 -0.6629 -0.7245
vn -0.3096 0.9496 0.0488
vn 0.2961 0.9221 0.2490
vn -0.1949 0.7804 0.5941
vn -0.9563 0.1092 -0.2714
vn -0.8044 0.5371 0.2539
vn -0.6234 0.3815 0.6825
vn -0.9499 -0.1807 0.2551
vn 0.0452 0.4827 0.8746
vn 0.8154 -0.4523 -0.3613
vn 0.4583 -0.8655 -0.2022
vn 0.8910 0.0527 -0.4510
vn 0.8147 0.5736 0.0847
vn 0.9559 -0.0538 0.2888
vn 0.5430 0.4731 0.6937
vn 0.6643 -0.0798 0.7432
vn 0.7339 -0.6086 0.3016
vn 0.4650 0.8481 -0.2538
vn 0.5052 0.1068 -0.8564
vn 0.6381 0.5714 -0.5161
vn 0.1350 0.9551 -0.2638
vn -0.3257 -0.7953 -0.5112
vn -0.8621 0.4210 -0.2820
vn -0.9955 0.0406 -0.0862
vn -0.3418 0.2774 -0.8979
vn -0.5029 0.8420 -0.1951
vn 0.2518 0.0684 -0.9653
vn 0.4040 0.7965 0.4499
vn 0.6493 0.7250 0.2298
vn 0.2137 0.4422 -0.8711
vn -0.3359 -0.8723 -0.3554
vn 0.1759 -0.8956 -0.4085
vn -0.3596 -0.0449 -0.9320
vn 0.6726 0.3303 0.6622
vn 0.9428 0.2237 0.2473
vn 0.9707 -0.1920 0.1447
vn 0.8273 -0.4694 0.3086
vn -0.3136 0.6477 0.6943
vn 0.7417 -0.3625 -0.5644
vn -0.9007 0.1554 0.4057
vn -0.9313 -0.3581 0.0672
vn 0.5684 -0.8196 -0.0720
vn 0.2132 -0.4366 -0.8740
vn -0.7973 -0.4470 -0.4055
vn 0.1806 -0.1335 0.9745
vn 0.6668 0.1776 0.7238
vn -0.6327 -0.0022 0.7744
vn -0.7449 0.0082 -0.6671
vn -0.0027 0.9965 0.0836
vn -0.6469 0.5628 -0.5145
vn -0.5693 0.5544 0.6070
vn -0.0007 -0.8054 -0.5928
vn 0.8646 -0.1315 -0.4850
vn -0.4753 -0.7490 -0.4615
vn -0.8047 -0.5937 0.0036
vn -0.7451 -0.2539 0.6168
vn 0.3575 -0.1991 0.9125
vn 0.8345 -0.1492 0.5305
vn 0.9415 0.1608 0.2961
vn 0.5515 -0.2947 -0.7804
vn 0.3582 -0.5177 -0.7769
vn 0.2366 0.1695 -0.9567
vn -0.8347 0.0141 -0.5506
vn 0.6582 0.4974 0.5652
vn -0.9149 -0.1995 -0.3510
vn -0.7714 -0.2451 0.5873
vn -0.2862 -0.1232 0.9502
vn 0.2137 -0.0565 0.9753
vn 0.2187 0.0312 -0.9753
vn -0.9720 -0.0588 -0.2275
vn -0.5884 -0.2742 -0.7606
vn 0.9818 0.1539 0.1109
vn 0.3561 0.1415 -0.9237
vn 0.6095 0.1754 -0.7731
vn -0.6767 0.1973 -0.7093
vn 0.9740 0.0733 0.2144
vn -0.0130 -0.1057 0.9943
vn 0.9257 -0.0185 0.3778
vn -0.9177 0.0275 0.3963
vn 0.0625 -0.0314 0.9976
vn -0.5884 0.6584 0.4694
vn -0.9997 0.0019 -0.0252
vn -0.5636 -0.1199 0.8173
vn -0.4740 -0.6027 0.6420
vn -0.6231 -0.7745 0.1096
vn -0.3993 -0.4930 -0.7730
vn -0.4212 0.9043 0.0694
vn -0.5172 -0.1352 0.8451
vn -0.4302 0.6292 0.6473
vn -0.9747 0.2178 0.0494
vn -0.6512 0.7586 0.0223
vn -0.3615 -0.9248 0.1189
vn 0.0533 -0.9578 0.2824
vn 0.5075 -0.8436 0.1754
vn 0.7403 -0.6722 -0.0090
vn -0.9318 0.3310 -0.1491
vn -0.1372 0.5692 -0.8106
vn 0.9230 0.1053 -0.3700
vn 0.9762 -0.1834 -0.1158
vn 0.9935 -0.0986 -0.0571
vn -0.1521 -0.9821 -0.1110
vn 0.5116 -0.7041 -0.4925
vn 0.3986 0.0625 -0.9150
vn -0.2426 0.5219 -0.8178
vn -0.0222 0.7566 -0.6535
vn -0.5930 0.5019 -0.6296
vn 0.6630 0.3834 -0.6430
vn -0.3780 0.1505 0.9135
vn -0.8730 0.2910 -0.3913
vn -0.8244 -0.5240 -0.2139
vn -0.8513 0.3065 0.4258
vn -0.6203 -0.3549 -0.6995
vn -0.5960 0.7632 -0.2498
vn 0.0024 -0.9843 -0.1762
vn -0.1984 -0.7975 0.5697
vn -0.6122 0.6224 0.4877
vn -0.6749 0.7194 -0.1644
vn -0.4690 0.5081 0.7224
vn -0.7355 0.3483 -0.5811
vn 0.8272 0.1217 0.5486
vn 0.3339 -0.0026 0.9426
vn 0.9199 -0.0466 0.3893
vn 0.5390 -0.7758 0.3280
vn 0.8024 -0.5365 -0.2615
vn -0.1955 0.4547 0.8689
vn -0.7121 -0.4680 0.5234
vn -0.1087 -0.0437 0.9931
vn 0.7812 0.1704 0.6005
vt 0.533498 0.620855
vt 0.557619 0.598666
vt 0.541244 0.660857
vt 0.522231 0.521833
vt 0.509400 0.511247
vt 0.538282 0.493886
vt 0.504940 0.536382
vt 0.584935 0.661753
vt 0.554597 0.521703
vt 0.554507 0.557509
vt 0.585865 0.531933
vt 0.541743 0.133548
vt 0.564770 0.159275
vt 0.521084 0.162804
vt 0.575109 0.494429
vt 0.591616 0.508458
vt 0.558285 0.190404
vt 0.507997 0.183834
vt 0.652193 0.004922
vt 0.678923 0.000000
vt 0.653376 0.022905
vt 0.584094 0.389215
vt 0.623237 0.375767
vt 0.620537 0.389215
vt 0.612936 0.336503
vt 0.629455 0.308411
vt 0.650988 0.346762
vt 0.639678 0.092688
vt 0.632599 0.047396
vt 0.656027 0.071988
vt 0.666191 0.103636
vt 0.573308 0.574398
vt 0.522841 0.554005
vt 0.533755 0.579473
vt 0.602694 0.491561
vt 0.629804 0.484887
vt 0.609632 0.502947
vt 0.661578 0.309965
vt 0.582696 0.324023
vt 0.592359 0.309522
vt 0.506275 0.558319
vt 0.591616 0.548238
vt 0.562830 0.579473
vt 0.584935 0.591776
vt 0.528717 0.539931
vt 0.504659 0.637769
vt 0.557808 0.670500
vt 0.714554 0.471357
vt 0.725371 0.459036
vt 0.725371 0.508974
vt 0.648810 0.373230
vt 0.541130 0.589274
vt 0.512536 0.598435
vt 0.622765 0.627431
vt 0.651882 0.670007
vt 0.610435 0.654468
vt 0.591616 0.628190
vt 0.699617 0.587799
vt 0.699205 0.630986
vt 0.683272 0.601849
vt 0.689977 0.331516
vt 0.708868 0.374181
vt 0.689297 0.372033
vt 0.708868 0.309764
vt 0.723409 0.295288
vt 0.723409 0.354691
vt 0.663456 0.404526
vt 0.685855 0.398935
vt 0.666211 0.443926
vt 0.067878 0.000000
vt 0.101934 0.008696
vt 0.082339 0.031692
vt 0.052697 0.025893
vt 0.534943 0.691563
vt 0.555856 0.670500
vt 0.555856 0.714190
vt 0.049057 0.072083
vt 0.688309 0.123707
vt 0.700024 0.067266
vt 0.712003 0.123707
vt 0.661578 0.325697
vt 0.536730 0.208158
vt 0.541383 0.254191
vt 0.504659 0.241549
vt 0.565787 0.213332
vt 0.697979 0.389215
vt 0.697979 0.433224
vt 0.680577 0.441662
vt 0.683962 0.511028
vt 0.663456 0.511028
vt 0.676791 0.475193
vt 0.665045 0.295288
vt 0.593233 0.254191
vt 0.629462 0.587799
vt 0.605307 0.563686
vt 0.643218 0.557440
vt 0.659874 0.567491
vt 0.586391 0.183115
vt 0.514156 0.216980
vt 0.688309 0.027519
vt 0.677454 0.057374
vt 0.688309 0.083996
vt 0.591616 0.538571
vt 0.639150 0.532941
vt 0.659874 0.500046
vt 0.645794 0.510485
vt 0.242226 0.000000
vt 0.260821 0.075778
vt 0.226037 0.011566
vt 0.230687 0.041963
vt 0.308392 0.044605
vt 0.677486 0.651930
vt 0.664693 0.598987
vt 0.722497 0.238857
vt 0.694101 0.222890
vt 0.697559 0.206989
vt 0.651882 0.587799
vt 0.298483 0.008268
vt 0.734739 0.215704
vt 0.734739 0.274677
vt 0.626322 0.065826
vt 0.580019 0.088847
vt 0.562593 0.058513
vt 0.599618 0.133548
vt 0.651882 0.609264
vt 0.708868 0.321419
vt 0.710396 0.560712
vt 0.725810 0.512478
vt 0.725810 0.566508
vt 0.518228 0.006958
vt 0.571557 0.000000
vt 0.723604 0.715768
vt 0.715025 0.667994
vt 0.723604 0.655707
vt 0.206459 0.034797
vt 0.255361 0.125863
vt 0.246008 0.076095
vt 0.222441 0.126338
vt 0.067199 0.100575
vt 0.134042 0.051020
vt 0.104620 0.100294
vt 0.043202 0.105455
vt 0.689156 0.475193
vt 0.036928 0.136031
vt 0.021828 0.122876
vt 0.012132 0.108149
vt 0.023501 0.069289
vt 0.697979 0.447651
vt 0.702233 0.424265
vt 0.735769 0.459036
vt 0.638517 0.292742
vt 0.629492 0.281222
vt 0.638517 0.258642
vt 0.584935 0.670500
vt 0.584935 0.715854
vt 0.574811 0.676303
vt 0.505504 0.048980
vt 0.296899 0.130472
vt 0.504659 0.000496
vt 0.563965 0.689483
vt 0.390108 0.000000
vt 0.380928 0.160186
vt 0.363152 0.156685
vt 0.362857 0.077475
vt 0.265527 0.209621
vt 0.235993 0.287759
vt 0.504659 0.591781
vt 0.446142 0.598193
vt 0.492975 0.379715
vt 0.374174 0.371391
vt 0.443800 0.756412
vt 0.494651 0.701868
vt 0.503528 0.722569
vt 0.429807 0.057486
vt 0.443282 0.040597
vt 0.188117 0.284156
vt 0.443282 0.378863
vt 0.467834 0.073141
vt 0.503744 0.081747
vt 0.114456 0.258896
vt 0.082587 0.257795
vt 0.094997 0.476439
vt 0.164731 0.499699
vt 0.138790 0.475769
vt 0.085751 0.787245
vt 0.324708 0.365620
vt 0.258043 0.289064
vt 0.198718 0.500838
vt 0.164054 0.808780
vt 0.141255 0.785197
vt 0.337109 0.665899
vt 0.196539 0.806109
vt 0.225180 0.800028
vt 0.380578 0.675308
vt 0.703212 0.512478
vt 0.710396 0.543688
vt 0.683945 0.527057
vt 0.659874 0.561252
vt 0.677332 0.579226
vt 0.710396 0.587799
vt 0.697178 0.169941
vt 0.706929 0.133548
vt 0.716518 0.163581
vt 0.699617 0.635534
vt 0.717582 0.587799
vt 0.731872 0.625055
vt 0.731872 0.653097
vt 0.688544 0.067119
vt 0.695957 0.039103
vt 0.710863 0.067266
vt 0.683374 0.206989
vt 0.705948 0.186971
vt 0.716518 0.206205
vt 0.688309 0.000000
vt 0.730374 0.013369
vt 0.605619 0.295288
vt 0.575388 0.270661
vt 0.605619 0.261608
vt 0.649988 0.207026
vt 0.623015 0.172374
vt 0.649988 0.159739
vt 0.595234 0.141966
vt 0.629908 0.133548
vt 0.378430 0.814201
vt 0.357139 0.762333
vt 0.407593 0.803050
vt 0.406027 0.763225
vt 0.099359 0.881710
vt 0.047959 0.869079
vt 0.089995 0.958747
vt 0.116559 0.933479
vt 0.534943 0.713652
vt 0.509200 0.684953
vt 0.534943 0.670500
vt 0.504659 0.715854
vt 0.645650 0.232069
vt 0.607906 0.217708
vt 0.593233 0.183832
vt 0.569690 0.427411
vt 0.509550 0.448657
vt 0.526253 0.389215
vt 0.536591 0.477640
vt 0.504659 0.484887
vt 0.649988 0.193115
vt 0.656574 0.158872
vt 0.615856 0.252768
vt 0.674689 0.139511
vt 0.019843 0.910516
vt 0.007152 0.906870
vt 0.042238 1.000000
vt 0.081967 0.986663
vt 0.504659 0.000000
vt 0.000000 0.943729
vt 0.712003 0.096165
vt 0.723856 0.067266
vt 0.723856 0.123162
vt 0.443282 0.803951
vt 0.617898 0.715717
vt 0.596369 0.700602
vt 0.630798 0.690867
vt 0.591616 0.722768
vt 0.662931 0.295110
vt 0.694101 0.260471
vt 0.694101 0.287402
vt 0.643196 0.722768
vt 0.533810 0.330473
vt 0.504659 0.283380
vt 0.553394 0.256752
vt 0.575388 0.276275
vt 0.642431 0.474015
vt 0.655713 0.446686
vt 0.663456 0.480222
vt 0.627308 0.428261
vt 0.594283 0.442805
vt 0.658842 0.411539
vt 0.663456 0.389215
vt 0.649988 0.271765
vt 0.655730 0.206989
vt 0.333711 0.784584
vt 0.308392 0.758078
vt 0.174710 0.903111
vt 0.237170 0.892591
vt 0.575388 0.340355
vt 0.563433 0.371116
vt 0.150109 0.879877
vt 0.226376 0.954574
vt 0.164405 0.955836
vt 0.505054 0.365294
vt 0.164054 0.933285
vt 0.140846 0.954701
vt 0.106837 0.968996
vt 0.532263 0.389215
vt 0.268334 0.920961
vt 0.607358 0.475562
vt 0.603763 0.670007
vt 0.605619 0.271107
vt 0.629492 0.258642
vt 0.629492 0.295288
vt 0.271071 0.954236
vt 0.290479 0.933002
vt 0.308392 0.949630
vt 0.305210 0.981352
vt 0.276898 0.998868
vt 0.521993 0.254191
vt 0.164054 0.977123
vt 0.194908 0.999873
vt 0.575388 0.305083
vt 0.598213 0.295288
vt 0.715025 0.655707
vt 0.715025 0.718126
vt 0.699617 0.684649
vt 0.632599 0.106663
vt 0.632599 0.024356
vt 0.714554 0.506076
vt 0.697979 0.473901
vt 0.714554 0.459036
vt 0.034209 0.035381
vt 0.735769 0.389215
vt 0.699617 0.679003
vt 0.562036 0.484887
vt 0.594283 0.477238
vt 0.708330 0.655707
vt 0.730374 0.066945
s 1
usemtl Material_with_Texture.236
f 1/1/1 2/2/2 3/3/3
f 4/4/4 5/5/5 6/6/6
f 4/4/4 7/7/7 5/5/5
f 2/2/2 8/8/8 3/3/3
f 4/4/4 6/6/6 9/9/9
f 10/10/10 9/9/9 11/11/11
f 6/12/6 12/13/12 13/14/13
f 9/9/9 13/15/13 11/11/11
f 13/15/13 14/16/14 11/11/11
f 13/14/13 15/17/15 14/18/14
f 11/19/11 14/20/14 16/21/16
f 8/22/8 17/23/17 18/24/18
f 19/25/19 20/26/20 21/27/21
f 21/28/21 22/29/22 23/30/23
f 21/28/21 23/30/23 24/31/24
f 10/10/10 11/11/11 22/32/22
f 25/33/25 10/10/10 20/34/20
f 17/35/17 24/36/24 18/37/18
f 20/26/20 22/38/22 21/27/21
f 20/34/20 10/10/10 22/32/22
f 26/39/26 27/40/27 19/25/19
f 26/39/26 19/25/19 17/23/17
f 27/41/27 7/7/7 25/33/25
f 22/32/22 11/11/11 16/42/16
f 23/30/23 22/29/22 16/21/16
f 7/43/7 26/44/26 2/2/2
f 7/7/7 4/4/4 28/45/28
f 28/45/28 9/9/9 10/10/10
f 4/4/4 9/9/9 28/45/28
f 13/14/13 12/13/12 15/17/15
f 27/40/27 20/26/20 19/25/19
f 25/33/25 28/45/28 10/10/10
f 1/1/1 3/3/3 12/46/12
f 8/8/8 29/47/29 3/3/3
f 3/48/3 29/49/29 12/50/12
f 26/39/26 17/23/17 8/22/8
f 19/25/19 21/27/21 17/23/17
f 17/23/17 21/27/21 24/51/24
f 5/52/5 2/2/2 1/1/1
f 6/53/6 1/1/1 12/46/12
f 30/54/30 31/55/31 32/56/32
f 33/57/33 30/54/30 32/56/32
f 33/58/33 32/59/32 34/60/34
f 33/61/33 35/62/35 36/63/36
f 34/64/34 37/65/37 35/66/35
f 38/67/38 39/68/39 40/69/40
f 41/70/41 42/71/42 43/72/43
f 44/73/44 41/70/41 43/72/43
f 41/74/41 45/75/45 42/76/42
f 44/73/44 43/72/43 46/77/46
f 42/78/42 45/79/45 36/80/36
f 45/81/45 33/61/33 36/63/36
f 47/82/47 30/83/30 33/84/33
f 47/82/47 48/85/48 30/83/30
f 49/86/49 46/87/46 50/88/50
f 39/89/39 49/90/49 50/91/50
f 45/81/45 47/92/47 33/61/33
f 39/68/39 50/88/50 40/69/40
f 48/85/48 40/93/40 30/83/30
f 51/94/51 29/95/29 38/96/38
f 51/94/51 38/96/38 48/97/48
f 15/17/15 51/98/51 48/85/48
f 45/99/45 14/18/14 47/82/47
f 16/21/16 14/20/14 45/100/45
f 15/17/15 48/85/48 47/82/47
f 14/18/14 15/17/15 47/82/47
f 16/21/16 45/100/45 41/101/41
f 23/30/23 16/21/16 41/101/41
f 23/30/23 41/101/41 44/102/44
f 24/31/24 23/30/23 44/102/44
f 8/103/8 18/37/18 39/104/39
f 8/103/8 39/104/39 29/95/29
f 29/95/29 39/104/39 38/96/38
f 24/36/24 44/105/44 49/106/49
f 18/37/18 24/36/24 49/106/49
f 18/37/18 49/106/49 39/104/39
f 35/107/35 52/108/52 36/109/36
f 52/108/52 53/110/53 36/109/36
f 35/107/35 54/111/54 52/108/52
f 55/112/55 37/113/37 34/60/34
f 56/114/56 37/115/37 57/116/57
f 30/54/30 40/117/40 31/55/31
f 34/60/34 32/59/32 55/112/55
f 58/118/58 54/111/54 35/107/35
f 56/114/56 58/119/58 35/120/35
f 54/121/54 55/122/55 31/123/31
f 54/121/54 57/124/57 55/122/55
f 56/114/56 57/116/57 58/119/58
f 55/112/55 57/125/57 37/113/37
f 35/120/35 37/115/37 56/114/56
f 33/61/33 34/126/34 35/62/35
f 59/127/59 60/128/60 61/129/61
f 31/123/31 62/130/62 63/131/63
f 63/132/63 62/133/62 61/134/61
f 53/110/53 42/135/42 36/109/36
f 52/108/52 64/136/64 65/137/65
f 65/137/65 64/136/64 66/138/66
f 60/139/60 65/140/65 66/141/66
f 42/71/42 65/140/65 43/72/43
f 60/139/60 67/142/67 46/77/46
f 50/88/50 46/87/46 67/143/67
f 67/142/67 60/139/60 59/144/59
f 68/145/68 67/142/67 59/144/59
f 69/146/69 40/147/40 67/142/67
f 50/88/50 67/143/67 40/69/40
f 69/148/69 70/149/70 40/150/40
f 68/151/71 69/152/71 70/153/71
f 61/154/61 70/155/70 59/156/59
f 70/157/70 62/130/62 31/123/31
f 63/158/63 64/136/64 52/108/52
f 53/110/53 65/137/65 42/135/42
f 62/130/62 70/157/70 61/159/61
f 70/155/70 68/160/68 59/156/59
f 63/161/63 71/162/72 72/163/73
f 73/164/74 63/161/63 72/163/73
f 64/136/64 63/158/63 73/165/74
f 64/136/64 73/165/74 74/166/75
f 71/167/72 75/168/76 76/169/77
f 71/162/72 76/170/77 72/163/73
f 60/171/60 77/172/78 61/173/61
f 77/172/78 75/168/76 71/167/72
f 63/161/63 77/174/78 71/162/72
f 61/175/61 77/174/78 63/161/63
f 64/136/64 78/176/79 66/138/66
f 74/166/75 78/176/79 64/136/64
f 79/177/80 80/178/81 81/179/82
f 76/169/77 79/177/80 81/179/82
f 66/141/66 78/180/79 60/139/60
f 60/139/60 78/180/79 75/181/76
f 75/181/76 78/180/79 79/182/80
f 75/168/76 79/177/80 76/169/77
f 74/166/75 82/183/83 78/176/79
f 78/180/79 82/184/83 79/182/80
f 79/182/80 82/184/83 80/185/81
f 72/163/73 76/170/77 83/186/84
f 74/166/75 72/187/73 83/188/84
f 74/166/75 83/188/84 82/183/83
f 84/189/85 82/183/83 83/188/84
f 80/185/81 82/184/83 84/190/85
f 83/186/84 76/170/77 85/191/86
f 84/189/85 83/188/84 86/192/87
f 83/188/84 85/193/86 86/192/87
f 76/170/77 81/194/82 85/191/86
f 73/165/74 72/187/73 74/166/75
f 87/195/88 88/196/89 89/197/90
f 89/197/90 88/196/89 90/198/91
f 91/199/92 88/196/89 92/200/93
f 93/201/94 88/202/89 87/203/88
f 89/204/90 90/205/91 94/206/95
f 89/204/90 94/206/95 95/207/96
f 95/208/96 94/209/95 96/210/97
f 97/211/98 95/212/96 96/213/97
f 90/214/91 98/215/99 94/209/95
f 94/209/95 98/215/99 96/210/97
f 99/216/100 100/217/101 98/218/99
f 90/219/91 99/220/100 98/221/99
f 101/222/102 100/223/101 99/220/100
f 96/224/97 102/225/103 97/226/98
f 103/227/104 102/225/103 81/194/82
f 81/194/82 102/225/103 85/191/86
f 97/226/98 102/225/103 103/227/104
f 80/185/81 104/228/105 103/229/104
f 103/229/104 104/228/105 105/230/106
f 105/230/106 104/228/105 106/231/107
f 100/232/101 105/233/106 106/234/107
f 101/235/102 105/233/106 100/232/101
f 91/236/92 99/220/100 90/219/91
f 95/212/96 93/201/94 87/203/88
f 107/237/108 108/238/109 99/220/100
f 97/211/98 93/201/94 95/212/96
f 92/239/93 109/240/110 108/241/109
f 92/239/93 110/242/111 109/240/110
f 111/243/112 109/240/110 110/242/111
f 93/201/94 111/244/112 110/245/111
f 107/237/108 91/236/92 92/246/93
f 93/201/94 112/247/113 88/202/89
f 110/245/111 112/247/113 93/201/94
f 113/248/114 111/249/112 103/229/104
f 108/250/109 105/230/106 101/251/102
f 99/220/100 108/238/109 101/222/102
f 103/252/104 81/179/82 80/178/81
f 108/250/109 109/253/110 105/230/106
f 107/254/115 108/255/115 92/256/115
f 105/230/106 113/248/114 103/229/104
f 97/211/98 111/244/112 93/201/94
f 111/257/112 97/226/98 103/227/104
f 109/253/110 111/249/112 113/248/114
f 114/258/116 115/259/117 116/260/118
f 117/261/119 115/259/117 114/258/116
f 118/262/120 117/263/119 114/264/116
f 118/265/120 114/258/116 116/260/118
f 119/266/121 120/267/122 115/268/117
f 119/266/121 115/268/117 117/269/119
f 121/270/123 118/271/120 116/272/118
f 121/270/123 122/273/124 118/271/120
f 123/274/125 122/273/124 121/270/123
f 124/275/126 122/273/124 96/276/97
f 124/277/126 117/263/119 118/262/120
f 124/275/126 118/271/120 122/273/124
f 124/277/126 98/278/99 117/263/119
f 122/279/124 102/225/103 96/224/97
f 123/280/125 102/225/103 122/279/124
f 102/225/103 123/280/125 85/191/86
f 125/281/127 86/192/87 123/282/125
f 119/266/121 98/283/99 100/284/101
f 85/193/86 123/282/125 86/192/87
f 80/185/81 84/190/85 104/228/105
f 84/190/85 125/285/127 104/228/105
f 104/228/105 125/285/127 106/231/107
f 84/189/85 86/192/87 125/281/127
f 125/281/127 123/282/125 126/286/128
f 127/287/129 125/281/127 126/286/128
f 128/288/130 120/267/122 119/266/121
f 106/231/107 127/289/129 129/290/131
f 100/291/101 106/231/107 129/290/131
f 100/284/101 129/292/131 119/266/121
f 129/292/131 128/288/130 119/266/121
f 123/282/125 130/293/132 126/286/128
f 130/294/132 123/274/125 121/270/123
f 115/259/117 131/295/133 116/260/118
f 130/296/132 121/297/123 132/298/134
f 132/299/134 121/300/123 116/301/118
f 131/302/133 120/303/122 132/299/134
f 131/302/133 132/299/134 116/301/118
f 126/286/128 132/299/134 120/303/122
f 130/293/132 132/299/134 126/286/128
f 106/231/107 125/285/127 127/289/129
f 120/267/122 131/304/133 115/268/117
f 129/290/131 127/289/129 128/305/130
f 128/306/130 127/287/129 126/286/128
f 128/306/130 126/286/128 120/303/122
f 119/266/121 117/269/119 98/283/99
f 26/44/26 8/8/8 2/2/2
f 7/307/7 27/40/27 26/39/26
f 2/2/2 5/52/5 7/43/7
f 1/243/1 6/6/6 5/5/5
f 28/45/28 25/33/25 7/7/7
f 27/40/27 25/308/25 20/26/20
f 6/6/6 13/15/13 9/9/9
f 12/309/12 29/310/29 51/311/51
f 51/98/51 15/17/15 12/13/12
f 58/312/58 57/124/57 54/121/54
f 52/313/52 31/123/31 63/131/63
f 31/123/31 52/313/52 54/121/54
f 53/110/53 52/108/52 65/137/65
f 65/140/65 60/139/60 43/72/43
f 60/139/60 46/77/46 43/72/43
f 40/314/135 38/315/135 48/316/135
f 46/77/46 49/317/49 44/73/44
f 40/150/40 70/149/70 31/318/31
f 31/319/31 55/112/55 32/59/32
f 67/142/67 68/145/68 69/146/69
f 77/172/78 60/171/60 75/168/76
f 110/242/111 92/239/93 112/320/113
f 112/320/113 92/239/93 88/321/89
f 87/322/88 89/204/90 95/207/96
f 88/196/89 91/199/92 90/198/91
f 105/230/106 109/253/110 113/248/114
f 107/237/108 99/220/100 91/236/92
f 96/210/97 98/215/99 124/323/126
