# Blender v3.5.0 OBJ File: ''
# www.blender.org
mtllib r_ham.mtl
o r_ham
v -0.004229 -0.004829 -0.005349
v -0.002865 -0.007088 -0.004374
v -0.006566 -0.006003 0.001573
v -0.006273 -0.003629 -0.001097
v -0.001082 -0.000770 -0.008076
v 0.001133 -0.004455 -0.009774
v -0.005474 0.001047 -0.003700
v 0.006614 -0.007032 -0.004328
v 0.004773 -0.005536 0.003206
v 0.007106 -0.004001 -0.005876
v -0.007561 -0.005966 0.005753
v -0.006931 -0.001877 0.000275
v 0.002732 -0.004935 0.007020
v -0.001528 0.003581 -0.006518
v 0.003826 0.001652 -0.006397
v 0.007887 0.001949 -0.005346
v -0.004954 0.002921 -0.003695
v -0.006088 0.003721 -0.001201
v -0.006753 0.002577 0.001461
v -0.006897 0.000436 0.001051
v 0.009807 -0.005806 0.000598
v 0.008344 -0.003842 0.003358
v 0.010636 -0.001410 -0.002988
v 0.005246 -0.002068 0.007247
v 0.010477 0.003011 -0.002384
v -0.007569 -0.000588 0.007151
v 0.002160 0.004144 0.008958
v 0.005470 0.001128 0.007857
v -0.004845 0.006917 -0.002285
v 0.006546 0.005541 -0.000405
v 0.007782 0.005262 0.000603
v -0.004775 0.010536 0.008602
v -0.008121 0.004454 0.007296
v 0.013667 -0.001136 -0.001493
v 0.012193 -0.006238 0.002040
v 0.011771 -0.005209 0.002616
v 0.011350 -0.004180 0.003193
v 0.010140 -0.001575 0.002953
v 0.014586 0.002657 -0.000236
v 0.009727 0.000306 0.003070
v 0.011797 0.003819 0.000077
v 0.003770 0.006495 0.009073
v 0.006820 0.004151 0.007665
v 0.010089 0.002058 0.002748
v 0.004564 0.012108 0.006199
v 0.007044 0.007240 0.004831
v 0.011672 0.002899 0.001768
v 0.017491 0.000246 0.002915
v 0.017426 -0.002605 0.002670
v 0.017281 0.000042 0.004455
v 0.016891 -0.003481 0.002721
v 0.016356 -0.004358 0.002772
v 0.015488 -0.005207 0.003968
v 0.015638 -0.004558 0.004542
v 0.016712 -0.001315 0.005509
v 0.015786 -0.003907 0.005117
v 0.016303 -0.002997 0.005534
v 0.016537 -0.002814 0.004020
vt 0.334351 0.628775
vt 0.382374 0.634561
vt 0.374636 0.782934
vt 0.318847 0.731618
vt 0.238180 0.560265
vt 0.310973 0.502975
vt 0.213125 0.682974
vt 0.487003 0.464451
vt 0.382374 0.290936
vt 0.528252 0.238474
vt 0.626166 0.464451
vt 0.781727 0.934680
vt 0.796722 0.788193
vt 0.869661 0.793735
vt 0.911592 0.934651
vt 0.382374 0.874723
vt 0.284612 0.767622
vt 0.612691 0.232848
vt 0.697655 0.438509
vt 0.040841 0.315681
vt 0.120761 0.406175
vt 0.000000 0.479006
vt 0.004746 0.388095
vt 0.148285 0.603985
vt 0.203100 0.443613
vt 0.150631 0.502975
vt 0.172233 0.683403
vt 0.160984 0.743480
vt 0.190964 0.799729
vt 0.236336 0.787948
vt 0.431479 0.175356
vt 0.510072 0.163999
vt 0.773544 0.677817
vt 0.896650 0.668534
vt 0.620935 0.171457
vt 0.699099 0.729407
vt 0.706884 0.642066
vt 0.269570 0.914326
vt 0.751646 0.181168
vt 0.779854 0.399239
vt 0.699099 0.674233
vt 0.655654 0.734620
vt 0.604327 0.746439
vt 0.552349 0.681758
vt 0.015535 0.239667
vt 0.057050 0.180381
vt 0.262449 0.322768
vt 0.294080 0.329021
vt 0.289105 0.428153
vt 0.029671 0.947744
vt 0.088874 0.719583
vt 0.162642 0.931504
vt 0.774357 0.610045
vt 0.911592 0.615748
vt 0.420507 0.118706
vt 0.445358 0.115615
vt 0.470211 0.112496
vt 0.510354 0.125093
vt 0.382374 0.458693
vt 0.330421 0.502975
vt 0.259787 0.484924
vt 0.612429 0.845173
vt 0.578125 0.840756
vt 0.346315 0.404951
vt 0.593595 0.464451
vt 0.514750 0.721707
vt 0.501261 0.464659
vt 0.550347 0.782795
vt 0.543418 0.853077
vt 0.214418 0.000000
vt 0.348367 0.140053
vt 0.345627 0.242673
vt 0.360316 0.390771
vt 0.382374 0.755417
vt 0.412893 0.549381
vt 0.789440 0.481839
vt 0.834974 0.505316
vt 0.721803 0.553314
vt 0.813129 0.464451
vt 0.412984 0.000000
vt 0.409585 0.013244
vt 0.406175 0.026492
vt 0.423229 0.033654
vt 0.437273 0.021907
vt 0.538354 0.122742
vt 0.486328 0.896799
vt 0.653073 0.983393
vt 0.618125 1.000000
vt 0.511574 0.953943
vt 0.699099 0.953694
vt 0.693860 0.957788
vt 0.521425 0.890025
vt 0.683113 0.970567
vt 0.463193 0.798191
vt 0.029671 0.574811
vt 0.017033 0.551422
vt 0.029671 0.502975
vt 0.859342 0.500678
vt 0.852806 0.518339
vt 0.851839 0.466957
vt 0.870655 0.531368
vt 0.903847 0.532880
vt 0.899387 0.518187
vt 0.894915 0.503497
vt 0.882453 0.483873
vn -0.8117 -0.4653 -0.3530
vn -0.6014 -0.2707 -0.7517
vn -0.9069 -0.0758 -0.4145
vn -0.6933 0.0548 -0.7186
vn 0.0092 -0.9814 0.1917
vn 0.1686 -0.8145 -0.5551
vn -0.9591 -0.1586 -0.2344
vn 0.0553 -0.9934 0.1003
vn -0.9247 -0.0519 -0.3771
vn 0.1109 0.4045 -0.9078
vn -0.6502 0.1962 -0.7340
vn 0.4263 0.1654 -0.8894
vn -0.6459 0.1812 -0.7416
vn -0.8531 0.2380 -0.4642
vn -0.9705 0.0027 -0.2413
vn -0.9555 0.1162 -0.2712
vn -0.9562 0.1056 -0.2728
vn 0.1338 -0.9256 0.3541
vn 0.7743 -0.4472 -0.4477
vn 0.4846 -0.6910 0.5363
vn 0.6780 0.0396 -0.7340
vn -0.9947 0.0311 -0.0981
vn -0.0836 -0.2272 0.9702
vn 0.1405 -0.1974 0.9702
vn -0.0961 0.7438 -0.6615
vn 0.1669 0.7907 -0.5890
vn 0.3057 0.8341 -0.4591
vn -0.9362 0.3047 -0.1751
vn -0.8665 0.4350 -0.2448
vn -0.9853 -0.0432 -0.1653
vn 0.3624 -0.6137 -0.7015
vn -0.2525 -0.7452 0.6171
vn 0.4817 -0.2306 0.8454
vn 0.4502 0.1575 -0.8789
vn 0.7010 -0.0755 0.7091
vn 0.2760 0.8595 -0.4302
vn -0.1599 -0.0118 0.9871
vn 0.2652 -0.1324 0.9551
vn 0.7447 -0.1984 0.6372
vn -0.0209 0.8630 -0.5048
vn 0.7740 0.5770 -0.2608
vn 0.5336 0.8426 -0.0728
vn 0.0070 0.1304 0.9914
vn 0.6048 -0.4014 -0.6878
vn 0.8011 0.2614 -0.5385
vn 0.3135 -0.6942 0.6479
vn 0.1492 -0.8849 0.4413
vn -0.2956 -0.7023 0.6476
vn -0.4036 -0.2799 0.8711
vn 0.1628 0.8387 0.5196
vn -0.3371 -0.0275 0.9411
vn -0.1327 0.5645 0.8147
vn 0.7227 0.3180 0.6136
vn 0.7758 0.2179 0.5921
vn -0.0864 0.3973 0.9136
vn 0.8380 -0.0657 0.5417
vn 0.9596 -0.2646 0.0958
vn 0.7767 -0.4486 0.4420
vn 0.9486 -0.2718 0.1621
vn 0.7770 -0.4483 0.4419
vn 0.8554 -0.3826 0.3492
vn 0.8928 -0.3960 0.2145
vn 0.8926 -0.3950 0.2175
vn 0.9650 -0.2328 0.1210
vn 0.8534 -0.5167 0.0694
usemtl Material_with_Texture.239
s off
f 1/1/1 2/2/1 3/3/1 4/4/1
f 5/5/2 6/6/2 2/2/2 1/1/2
f 1/1/3 4/4/3 7/7/3
f 5/5/4 1/1/4 7/7/4
f 2/8/5 8/9/5 9/10/5 3/11/5
f 6/12/6 10/13/6 8/14/6 2/15/6
f 4/4/7 3/3/7 11/16/7 12/17/7
f 3/11/8 9/10/8 13/18/8 11/19/8
f 4/4/9 12/17/9 7/7/9
f 14/20/10 15/21/10 6/22/10 5/23/10
f 14/24/11 5/5/11 7/7/11
f 15/21/12 16/25/12 10/26/12 6/22/12
f 17/27/13 14/24/13 7/7/13
f 18/28/14 17/27/14 7/7/14
f 19/29/15 18/28/15 7/7/15
f 20/30/16 19/29/16 7/7/16
f 12/17/17 20/30/17 7/7/17
f 8/9/18 21/31/18 22/32/18 9/10/18
f 10/13/19 23/33/19 21/34/19 8/14/19
f 9/10/20 22/32/20 24/35/20 13/18/20
f 16/36/21 25/37/21 23/33/21 10/13/21
f 12/17/22 11/16/22 26/38/22 20/30/22
f 11/19/23 13/18/23 27/39/23 26/40/23
f 13/41/24 24/42/24 28/43/24 27/44/24
f 17/45/25 29/46/25 15/21/25 14/20/25
f 29/46/26 30/47/26 16/25/26 15/21/26
f 30/47/27 31/48/27 25/49/27 16/25/27
f 18/28/28 32/50/28 29/51/28 17/27/28
f 19/29/29 33/52/29 32/50/29 18/28/29
f 20/30/30 26/38/30 33/52/30 19/29/30
f 23/33/31 34/53/31 35/54/31 21/34/31
f 35/55/32 36/56/32 37/57/32 22/32/32 21/31/32
f 22/32/33 37/57/33 38/58/33 24/35/33
f 25/49/34 39/59/34 34/60/34 23/61/34
f 24/42/35 38/62/35 40/63/35 28/43/35
f 31/48/36 41/64/36 39/59/36 25/49/36
f 26/65/37 27/44/37 42/66/37 33/67/37
f 27/44/38 28/43/38 43/68/38 42/66/38
f 28/43/39 40/63/39 44/69/39 43/68/39
f 32/70/40 45/71/40 30/47/40 29/46/40
f 45/71/41 46/72/41 31/48/41 30/47/41
f 46/72/42 47/73/42 41/64/42 31/48/42
f 33/67/43 42/66/43 45/74/43 32/75/43
f 34/53/44 48/76/44 49/77/44 35/54/44
f 39/78/45 50/79/45 48/76/45 34/53/45
f 35/55/46 49/80/46 51/81/46 36/56/46
f 36/56/47 51/81/47 52/82/47 37/57/47
f 37/57/48 52/82/48 53/83/48 38/58/48
f 38/58/49 53/83/49 54/84/49 40/85/49
f 41/86/50 55/87/50 50/88/50 39/89/50
f 40/63/51 54/90/51 56/91/51 44/69/51
f 47/92/52 57/93/52 55/87/52 41/86/52
f 42/66/53 43/68/53 46/94/53 45/74/53
f 43/68/54 44/69/54 47/92/54 46/94/54
f 44/69/55 56/91/55 57/93/55 47/92/55
f 58/95/56 49/96/56 48/97/56
f 58/98/57 48/76/57 50/79/57
f 58/98/58 51/99/58 49/77/58
f 58/98/59 50/79/59 55/100/59
f 58/98/60 52/101/60 51/99/60
f 58/98/61 53/102/61 52/101/61
f 58/98/62 54/103/62 53/102/62
f 58/98/63 56/104/63 54/103/63
f 58/98/64 55/100/64 57/105/64
f 58/98/65 57/105/65 56/104/65
