# Blender 4.3.0
# www.blender.org
mtllib r_lun.mtl
o r_lun
v 0.006891 -0.001473 0.000660
v 0.003890 -0.005518 0.001042
v 0.004963 -0.002539 -0.006517
v 0.006978 -0.000139 -0.003091
v 0.005750 0.000954 0.005476
v 0.004261 -0.001703 0.007048
v 0.007134 0.000763 0.002405
v 0.007075 0.000940 0.001030
v 0.007015 0.001340 0.002984
v -0.009871 -0.008856 0.002006
v -0.006400 -0.006064 -0.004010
v -0.012155 -0.004439 0.005003
v 0.001373 -0.002229 -0.013051
v 0.006504 0.000655 -0.006021
v -0.002047 -0.002706 -0.007593
v 0.007251 0.002019 0.000307
v 0.005318 0.003624 0.005716
v 0.002826 0.004696 0.007004
v 0.006897 0.001917 0.003563
v -0.011221 0.001353 0.001211
v 0.007057 0.002069 0.002076
v -0.010294 -0.003841 -0.001900
v -0.008812 -0.002522 -0.004577
v -0.011567 -0.003583 0.000183
v -0.007220 -0.001695 -0.006724
v -0.011552 -0.000480 -0.001346
v 0.001564 0.002100 -0.013089
v 0.005885 0.002215 -0.006998
v -0.003730 0.000832 -0.004866
v 0.007316 0.003033 0.000571
v -0.007727 0.000076 -0.006474
v 0.004915 0.006044 0.003451
v 0.003122 0.007898 0.001641
v 0.006801 0.003035 0.003444
v -0.005395 0.005758 0.000901
v -0.009972 0.000443 -0.003212
v 0.006965 0.003506 0.002304
v -0.009488 -0.001386 -0.003562
v 0.003263 0.006091 -0.007377
v 0.006087 0.004093 -0.003166
v -0.004290 0.004267 -0.002670
v -0.008758 0.000516 -0.004444
vn 0.9193 -0.3845 0.0837
vn 0.5076 -0.8461 0.1624
vn 0.6216 -0.6941 -0.3630
vn 0.9545 -0.2608 -0.1448
vn 0.7855 -0.1344 0.6041
vn 0.3804 -0.2987 0.8752
vn 0.9638 -0.1681 0.2068
vn 0.9991 -0.0432 -0.0049
vn 0.9539 -0.0867 0.2873
vn -0.3535 -0.9340 0.0524
vn -0.1952 -0.7999 -0.5675
vn -0.6997 -0.3336 0.6318
vn -0.0034 -0.4740 -0.8805
vn 0.9291 -0.0980 -0.3567
vn -0.4116 -0.5049 -0.7587
vn 0.9990 0.0185 -0.0416
vn 0.6779 0.3447 0.6493
vn 0.0443 0.5511 0.8333
vn 0.9235 0.1152 0.3658
vn -0.7842 0.5592 0.2690
vn 0.9935 0.0247 0.1110
vn -0.7935 -0.3128 -0.5220
vn -0.7033 -0.2672 -0.6588
vn -0.9480 -0.1818 -0.2614
vn -0.4008 -0.0679 -0.9137
vn -0.8946 0.1918 -0.4035
vn -0.0271 0.3517 -0.9357
vn 0.8622 0.2406 -0.4457
vn -0.3770 0.5868 -0.7166
vn 0.9717 0.2275 -0.0632
vn -0.3990 0.4166 -0.8168
vn 0.6565 0.6957 0.2916
vn 0.1829 0.9725 0.1443
vn 0.9028 0.3516 0.2478
vn -0.4382 0.8917 0.1136
vn -0.7032 0.4119 -0.5796
vn 0.9257 0.3716 0.0713
vn -0.8086 -0.0703 -0.5841
vn 0.1997 0.8426 -0.5002
vn 0.8108 0.5582 -0.1762
vn -0.3991 0.8019 -0.4447
vn -0.6044 0.4889 -0.6290
vt 0.033638 0.374689
vt 0.086069 0.289100
vt 0.174524 0.481369
vt 0.086896 0.462675
vt 0.530093 0.481968
vt 0.471332 0.520834
vt 0.378354 0.364352
vt 0.463296 0.357550
vt 0.517953 0.403448
vt 0.497061 0.261171
vt 0.522984 0.367967
vt 0.533066 0.418506
vt 0.363706 0.050767
vt 0.378354 0.243520
vt 0.000000 0.209390
vt 0.378354 0.000000
vt 0.448624 0.170758
vt 0.477946 0.000000
vt 0.520263 0.185485
vt 0.340665 0.405105
vt 0.344578 0.564981
vt 0.549296 0.349742
vt 0.599777 0.488739
vt 0.640714 0.520834
vt 0.548174 0.433565
vt 0.524538 0.954049
vt 0.486214 0.556253
vt 0.662983 0.520834
vt 0.662983 0.949347
vt 0.551352 0.395315
vt 0.344505 0.917372
vt 0.276493 0.779822
vt 0.289413 0.694776
vt 0.378354 0.727036
vt 0.196337 0.938892
vt 0.237424 0.829757
vt 0.307825 0.625227
vt 0.378354 0.564981
vt 0.120067 0.777721
vt 0.187179 0.758299
vt 0.585940 0.000484
vt 0.563251 0.160375
vt 0.720635 0.493416
vt 0.744530 0.328344
vt 0.851609 0.267240
vt 0.829000 0.520834
vt 0.574429 0.356913
vt 0.662983 0.724511
vt 0.728842 0.603271
vt 0.770626 0.600487
vt 0.785448 0.710413
vt 0.447253 0.991335
vt 0.378354 0.948170
vt 0.532472 1.000000
vt 0.576908 0.430783
vt 0.663429 0.430772
vt 0.398321 0.723337
vt 0.982462 0.715073
vt 0.842849 0.558191
vt 0.863824 0.520834
vt 0.937585 0.547904
vt 0.588041 0.401595
vt 0.247838 0.705902
vt 0.262402 0.611357
vt 0.200165 0.692867
vt 0.675862 0.150227
vt 0.608760 0.260021
vt 0.950018 0.231633
vt 0.950018 0.441681
vt 0.817419 0.584412
vt 0.890552 0.721958
vt 0.221754 0.655102
vt 0.720635 0.383543
vt 0.805360 0.903002
vt 0.982462 0.942044
s 1
usemtl Material_with_Texture.242
f 1/1/1 2/2/2 3/3/3 4/4/4
f 5/5/5 6/6/6 2/7/2 1/8/1
f 7/9/7 1/8/1 4/10/4 8/11/8
f 9/12/9 5/5/5 1/8/1 7/9/7
f 2/2/2 10/13/10 11/14/11 3/3/3
f 6/15/6 12/16/12 10/13/10 2/2/2
f 4/10/4 3/17/3 13/18/13 14/19/14
f 3/3/3 11/14/11 15/20/15 13/21/13
f 8/11/8 4/10/4 14/19/14 16/22/16
f 17/23/17 18/24/18 6/6/6 5/5/5
f 19/25/19 17/23/17 5/5/5 9/12/9
f 18/26/18 20/27/20 12/28/12 6/29/6
f 21/30/21 7/9/7 8/11/8
f 21/30/21 9/12/9 7/9/7
f 21/30/21 8/11/8 16/22/16
f 21/30/21 19/25/19 9/12/9
f 10/31/10 22/32/22 23/33/23 11/34/11
f 12/35/12 24/36/24 22/32/22 10/31/10
f 11/34/11 23/33/23 25/37/25 15/38/15
f 20/39/20 26/40/26 24/36/24 12/35/12
f 14/19/14 13/18/13 27/41/27 28/42/28
f 13/43/13 15/44/15 29/45/29 27/46/27
f 16/22/16 14/19/14 28/42/28 30/47/30
f 15/48/15 25/49/25 31/50/31 29/51/29
f 21/30/21 16/22/16 30/47/30
f 32/52/32 33/53/33 18/26/18 17/54/17
f 34/55/34 32/56/32 17/23/17 19/25/19
f 33/53/33 35/57/35 20/27/20 18/26/18
f 21/30/21 34/55/34 19/25/19
f 35/58/35 36/59/36 26/60/26 20/61/20
f 21/30/21 30/47/30 37/62/37
f 21/30/21 37/62/37 34/55/34
f 23/33/23 22/32/22 38/63/38
f 22/32/22 24/36/24 38/63/38
f 25/37/25 23/33/23 38/63/38
f 24/36/24 26/40/26 38/63/38
f 31/64/31 25/37/25 38/63/38
f 26/40/26 36/65/36 38/63/38
f 28/42/28 27/41/27 39/66/39 40/67/40
f 27/46/27 29/45/29 41/68/41 39/69/39
f 30/47/30 28/42/28 40/67/40 37/62/37
f 29/51/29 31/50/31 42/70/42 41/71/41
f 42/72/42 31/64/31 38/63/38
f 40/67/40 39/66/39 33/73/33 32/56/32
f 37/62/37 40/67/40 32/56/32 34/55/34
f 39/74/39 41/71/41 35/58/35 33/75/33
f 41/71/41 42/70/42 36/59/36 35/58/35
f 36/65/36 42/72/42 38/63/38
