# Blender 4.3.0
# www.blender.org
mtllib r_patella.mtl
o r_patella
v 0.005482 0.049127 -0.007546
v 0.000000 0.050274 -0.012600
v 0.000000 0.052920 -0.000000
v 0.010147 0.044365 -0.013966
v 0.000000 0.044982 -0.021764
v 0.012023 0.033957 -0.016548
v 0.000000 0.035280 -0.024709
v 0.011013 0.023814 -0.015158
v 0.000000 0.023814 -0.021436
v 0.008512 0.016493 -0.011716
v 0.000000 0.018345 -0.015546
v 0.006925 0.008732 -0.009531
v 0.000000 0.008643 -0.013418
v 0.003991 0.003969 -0.005495
v 0.000000 0.004233 -0.008182
v 0.000000 0.000000 0.000000
v 0.005758 0.047980 -0.001871
v 0.012139 0.043747 -0.003944
v 0.015407 0.032634 -0.005006
v 0.015251 0.023814 -0.004955
v 0.012761 0.014641 -0.004146
v 0.009649 0.008820 -0.003135
v 0.005135 0.003705 -0.001669
v 0.005758 0.047980 0.001871
v 0.012139 0.043747 0.003944
v 0.015407 0.032634 0.005006
v 0.015251 0.023814 0.004955
v 0.012761 0.014641 0.004146
v 0.009649 0.008820 0.003135
v 0.005135 0.003705 0.001669
v 0.003895 0.049744 0.005362
v 0.008993 0.046569 0.012378
v 0.012600 0.034927 0.017343
v 0.011590 0.023460 0.015953
v 0.009089 0.016229 0.012511
v 0.007551 0.008556 0.010392
v 0.004617 0.003440 0.006355
v 0.000000 0.051509 0.007200
v 0.000000 0.049392 0.017836
v 0.000000 0.037220 0.026673
v 0.000000 0.023109 0.023400
v 0.000000 0.017816 0.017509
v 0.000000 0.008291 0.015546
v 0.000000 0.003174 0.010309
v -0.003367 0.051596 0.004633
v -0.006781 0.045599 0.009333
v -0.008752 0.035986 0.012047
v -0.007935 0.025225 0.010922
v -0.008464 0.015171 0.011650
v -0.007551 0.007761 0.010392
v -0.005049 0.003087 0.006950
v -0.004046 0.051685 0.001315
v -0.004981 0.041807 0.001618
v -0.002957 0.034751 0.000961
v -0.003424 0.027342 0.001112
v -0.010738 0.012524 0.003489
v -0.009649 0.007232 0.003135
v -0.006536 0.002999 0.002124
v -0.004046 0.051685 -0.001315
v -0.004981 0.041807 -0.001618
v -0.002957 0.034751 -0.000961
v -0.003424 0.027342 -0.001112
v -0.010738 0.012524 -0.003489
v -0.009649 0.007232 -0.003135
v -0.006536 0.002999 -0.002124
v -0.004954 0.050979 -0.006818
v -0.007935 0.043395 -0.010922
v -0.008176 0.035015 -0.011253
v -0.007358 0.025577 -0.010128
v -0.007887 0.015435 -0.010856
v -0.006925 0.007937 -0.009531
v -0.004424 0.003616 -0.006089
vn 0.5286 0.8376 -0.1380
vn -0.0675 0.9002 -0.4303
vn 0.1844 0.9828 0.0066
vn 0.7210 0.5504 -0.4209
vn -0.1469 0.5486 -0.8231
vn 0.7986 0.0605 -0.5989
vn -0.1815 0.0229 -0.9831
vn 0.7011 -0.3277 -0.6332
vn -0.2043 -0.3557 -0.9120
vn 0.6270 -0.4152 -0.6591
vn -0.1549 -0.3918 -0.9069
vn 0.6021 -0.5215 -0.6046
vn 0.0018 -0.4821 -0.8761
vn 0.4794 -0.7800 -0.4022
vn 0.0592 -0.8060 -0.5889
vn 0.0857 -0.9937 -0.0721
vn 0.6238 0.7810 0.0297
vn 0.8296 0.5553 -0.0586
vn 0.9839 0.1050 -0.1444
vn 0.9623 -0.1849 -0.1994
vn 0.8975 -0.3775 -0.2281
vn 0.8100 -0.5550 -0.1894
vn 0.6512 -0.7488 -0.1235
vn 0.6024 0.7977 -0.0271
vn 0.8267 0.5611 0.0427
vn 0.9853 0.1198 0.1218
vn 0.9706 -0.1786 0.1611
vn 0.9117 -0.3697 0.1792
vn 0.8329 -0.5389 0.1261
vn 0.6787 -0.7334 0.0380
vn 0.5303 0.8462 0.0527
vn 0.6863 0.6609 0.3035
vn 0.8152 0.1440 0.5610
vn 0.7454 -0.3166 0.5866
vn 0.6929 -0.4101 0.5931
vn 0.6870 -0.4941 0.5328
vn 0.5627 -0.7755 0.2861
vn -0.0067 0.9725 0.2327
vn -0.1335 0.7820 0.6089
vn -0.1628 0.1909 0.9680
vn -0.1841 -0.3445 0.9205
vn -0.1444 -0.4001 0.9050
vn -0.0007 -0.4697 0.8828
vn 0.0458 -0.8287 0.5578
vn -0.6371 0.7660 0.0859
vn -0.9253 0.3656 0.1003
vn -0.9926 0.0525 0.1093
vn -0.9875 0.0113 0.1570
vn -0.8839 -0.0546 0.4645
vn -0.7119 -0.4231 0.5605
vn -0.4820 -0.7973 0.3632
vn -0.7618 0.6474 -0.0241
vn -0.9871 -0.0191 -0.1587
vn -0.9778 -0.0685 -0.1979
vn -0.9674 0.1980 -0.1581
vn -0.9957 0.0614 0.0693
vn -0.9014 -0.4072 0.1470
vn -0.6257 -0.7734 0.1019
vn -0.7344 0.6777 0.0377
vn -0.9838 -0.0373 0.1756
vn -0.9773 -0.0807 0.1958
vn -0.9691 0.1995 0.1447
vn -0.9912 0.0548 -0.1201
vn -0.8798 -0.4245 -0.2137
vn -0.5959 -0.7818 -0.1834
vn -0.6918 0.7154 -0.0981
vn -0.9573 0.2412 -0.1594
vn -0.9945 -0.0380 -0.0976
vn -0.9837 0.0036 -0.1800
vn -0.8503 -0.0566 -0.5232
vn -0.6234 -0.4535 -0.6370
vn -0.3737 -0.7953 -0.4774
vt 0.105184 0.675091
vt 0.157192 0.618980
vt 0.163123 0.752111
vt 0.057736 0.608871
vt 0.156948 0.520632
vt 0.861847 0.128504
vt 0.754816 0.090011
vt 0.789979 0.000000
vt 0.887386 0.042447
vt 0.648816 0.091637
vt 0.667047 0.020193
vt 0.480555 0.880771
vt 0.496894 0.812900
vt 0.589113 0.850560
vt 0.597474 0.931028
vt 0.503590 0.755608
vt 0.576985 0.786233
vt 0.527269 0.693461
vt 0.570085 0.716761
vt 0.562436 0.620330
vt 0.714223 0.612558
vt 0.674096 0.658299
vt 0.672631 0.570338
vt 0.107809 0.734184
vt 0.045011 0.714881
vt 0.841845 0.233256
vt 0.724343 0.210507
vt 0.632789 0.200256
vt 0.539014 0.196195
vt 0.571250 0.117246
vt 0.480456 0.197961
vt 0.489656 0.129727
vt 0.473201 0.697932
vt 0.513781 0.657122
vt 0.733621 0.578467
vt 0.110520 0.773367
vt 0.050725 0.797478
vt 0.832717 0.315433
vt 0.712757 0.314812
vt 0.621321 0.303499
vt 0.529419 0.282581
vt 0.473201 0.263282
vt 0.328087 0.898163
vt 0.375296 0.954134
vt 0.360586 0.974872
vt 0.300455 0.937117
vt 0.424057 1.000000
vt 0.733621 0.537651
vt 0.130307 0.809458
vt 0.086168 0.884938
vt 0.855413 0.404996
vt 0.725103 0.444581
vt 0.608561 0.415639
vt 0.332438 0.693541
vt 0.357276 0.777943
vt 0.290182 0.840237
vt 0.249306 0.755836
vt 0.380076 0.857050
vt 0.401354 0.927686
vt 0.170044 0.826866
vt 0.180308 0.937281
vt 0.887386 0.460349
vt 0.750679 0.537651
vt 0.454664 0.520632
vt 0.473201 0.659882
vt 0.302444 0.587430
vt 0.459603 0.741085
vt 0.473201 0.833549
vt 0.462074 0.909206
vt 0.203122 0.797749
vt 0.249306 0.841945
vt 0.264218 0.463014
vt 0.301480 0.372826
vt 0.473201 0.419213
vt 0.364867 0.520632
vt 0.317811 0.260076
vt 0.473201 0.267204
vt 0.343914 0.159773
vt 0.429875 0.198307
vt 0.352210 0.080765
vt 0.432163 0.096327
vt 0.341308 0.023427
vt 0.394534 0.030888
vt 0.616484 0.564827
vt 0.562828 0.537651
vt 0.207678 0.762586
vt 0.188637 0.503482
vt 0.208627 0.404047
vt 0.222642 0.510761
vt 0.226630 0.329739
vt 0.241946 0.254871
vt 0.263795 0.112926
vt 0.276700 0.057716
vt 0.290120 0.010821
vt 0.633460 0.608707
vt 0.205773 0.735047
vt 0.164203 0.496782
vt 0.178562 0.395804
vt 0.208773 0.324843
vt 0.221283 0.249206
vt 0.198963 0.095151
vt 0.218446 0.041745
vt 0.250652 0.000000
vt 0.634840 0.648744
vt 0.212089 0.676491
vt 0.110603 0.475933
vt 0.075706 0.389431
vt 0.089630 0.303361
vt 0.124018 0.209813
vt 0.136784 0.104905
vt 0.169483 0.031561
vt 0.647126 0.740772
vt 0.614825 0.690639
vt 0.672631 0.675069
vt 0.249306 0.628076
vt 0.006454 0.374858
vt 0.000000 0.268575
vt 0.055118 0.160171
vt 0.666430 0.786696
vt 0.672631 0.826541
s 1
usemtl Material_with_Texture.243
f 1/1/1 2/2/2 3/3/3
f 1/1/1 4/4/4 5/5/5 2/2/2
f 4/6/4 6/7/6 7/8/7 5/9/5
f 6/7/6 8/10/8 9/11/9 7/8/7
f 8/12/8 10/13/10 11/14/11 9/15/9
f 10/13/10 12/16/12 13/17/13 11/14/11
f 12/16/12 14/18/14 15/19/15 13/17/13
f 14/18/14 16/20/16 15/19/15
f 17/21/17 1/22/1 3/23/3
f 17/24/17 18/25/18 4/4/4 1/1/1
f 18/26/18 19/27/19 6/7/6 4/6/4
f 19/27/19 20/28/20 8/10/8 6/7/6
f 20/28/20 21/29/21 10/30/10 8/10/8
f 21/29/21 22/31/22 12/32/12 10/30/10
f 22/33/22 23/34/23 14/18/14 12/16/12
f 23/34/23 16/20/16 14/18/14
f 24/35/24 17/21/17 3/23/3
f 24/36/24 25/37/25 18/25/18 17/24/17
f 25/38/25 26/39/26 19/27/19 18/26/18
f 26/39/26 27/40/27 20/28/20 19/27/19
f 27/40/27 28/41/28 21/29/21 20/28/20
f 28/41/28 29/42/29 22/31/22 21/29/21
f 29/43/29 30/44/30 23/45/23 22/46/22
f 30/44/30 16/47/16 23/45/23
f 31/48/31 24/35/24 3/23/3
f 31/49/31 32/50/32 25/37/25 24/36/24
f 32/51/32 33/52/33 26/39/26 25/38/25
f 33/52/33 34/53/34 27/40/27 26/39/26
f 34/54/34 35/55/35 28/56/28 27/57/27
f 35/55/35 36/58/36 29/43/29 28/56/28
f 36/58/36 37/59/37 30/44/30 29/43/29
f 37/59/37 16/47/16 30/44/30
f 38/60/38 31/49/31 3/3/3
f 38/60/38 39/61/39 32/50/32 31/49/31
f 39/62/39 40/63/40 33/52/33 32/51/32
f 40/64/40 41/65/41 34/54/34 33/66/33
f 41/65/41 42/67/42 35/55/35 34/54/34
f 42/67/42 43/68/43 36/58/36 35/55/35
f 43/68/43 44/69/44 37/59/37 36/58/36
f 44/69/44 16/47/16 37/59/37
f 45/70/45 38/60/38 3/3/3
f 45/70/45 46/71/46 39/61/39 38/60/38
f 46/72/46 47/73/47 40/74/40 39/75/39
f 47/73/47 48/76/48 41/77/41 40/74/40
f 48/76/48 49/78/49 42/79/42 41/77/41
f 49/78/49 50/80/50 43/81/43 42/79/42
f 50/80/50 51/82/51 44/83/44 43/81/43
f 51/84/51 16/20/16 44/85/44
f 52/86/52 45/70/45 3/3/3
f 52/87/52 53/88/53 46/72/46 45/89/45
f 53/88/53 54/90/54 47/73/47 46/72/46
f 54/90/54 55/91/55 48/76/48 47/73/47
f 55/91/55 56/92/56 49/78/49 48/76/48
f 56/92/56 57/93/57 50/80/50 49/78/49
f 57/93/57 58/94/58 51/82/51 50/80/50
f 58/95/58 16/20/16 51/84/51
f 59/96/59 52/86/52 3/3/3
f 59/97/59 60/98/60 53/88/53 52/87/52
f 60/98/60 61/99/61 54/90/54 53/88/53
f 61/99/61 62/100/62 55/91/55 54/90/54
f 62/100/62 63/101/63 56/92/56 55/91/55
f 63/101/63 64/102/64 57/93/57 56/92/56
f 64/102/64 65/103/65 58/94/58 57/93/57
f 65/104/65 16/20/16 58/95/58
f 66/105/66 59/96/59 3/3/3
f 66/106/66 67/107/67 60/98/60 59/97/59
f 67/107/67 68/108/68 61/99/61 60/98/60
f 68/108/68 69/109/69 62/100/62 61/99/61
f 69/109/69 70/110/70 63/101/63 62/100/62
f 70/110/70 71/111/71 64/102/64 63/101/63
f 71/112/71 72/113/72 65/104/65 64/114/64
f 72/113/72 16/20/16 65/104/65
f 2/2/2 66/105/66 3/3/3
f 2/2/2 5/5/5 67/115/67 66/105/66
f 5/116/5 7/117/7 68/108/68 67/107/67
f 7/117/7 9/118/9 69/109/69 68/108/68
f 9/15/9 11/14/11 70/119/70 69/120/69
f 11/14/11 13/17/13 71/112/71 70/119/70
f 13/17/13 15/19/15 72/113/72 71/112/71
f 15/19/15 16/20/16 72/113/72
