# Blender v3.5.0 OBJ File: ''
# www.blender.org
mtllib r_patella.mtl
o r_patella
v 0.005482 0.049127 -0.007546
v 0.000000 0.050274 -0.012600
v 0.000000 0.052920 -0.000000
v 0.010147 0.044365 -0.013966
v 0.000000 0.044982 -0.021764
v 0.012023 0.033957 -0.016548
v 0.000000 0.035280 -0.024709
v 0.011013 0.023814 -0.015158
v 0.000000 0.023814 -0.021436
v 0.008512 0.016493 -0.011716
v 0.000000 0.018345 -0.015546
v 0.006925 0.008732 -0.009531
v 0.000000 0.008643 -0.013418
v 0.003991 0.003969 -0.005495
v 0.000000 0.004233 -0.008182
v 0.000000 0.000000 0.000000
v 0.005758 0.047980 -0.001871
v 0.012139 0.043747 -0.003944
v 0.015407 0.032634 -0.005006
v 0.015251 0.023814 -0.004955
v 0.012761 0.014641 -0.004146
v 0.009649 0.008820 -0.003135
v 0.005135 0.003705 -0.001669
v 0.005758 0.047980 0.001871
v 0.012139 0.043747 0.003944
v 0.015407 0.032634 0.005006
v 0.015251 0.023814 0.004955
v 0.012761 0.014641 0.004146
v 0.009649 0.008820 0.003135
v 0.005135 0.003705 0.001669
v 0.003895 0.049744 0.005362
v 0.008993 0.046569 0.012378
v 0.012600 0.034927 0.017343
v 0.011590 0.023460 0.015953
v 0.009089 0.016229 0.012511
v 0.007551 0.008556 0.010392
v 0.004617 0.003440 0.006355
v 0.000000 0.051509 0.007200
v 0.000000 0.049392 0.017836
v 0.000000 0.037220 0.026673
v 0.000000 0.023109 0.023400
v 0.000000 0.017816 0.017509
v 0.000000 0.008291 0.015546
v 0.000000 0.003174 0.010309
v -0.003367 0.051596 0.004633
v -0.006781 0.045599 0.009333
v -0.008752 0.035986 0.012047
v -0.007935 0.025225 0.010922
v -0.008464 0.015171 0.011650
v -0.007551 0.007761 0.010392
v -0.005049 0.003087 0.006950
v -0.004046 0.051685 0.001315
v -0.004981 0.041807 0.001618
v -0.002957 0.034751 0.000961
v -0.003424 0.027342 0.001112
v -0.010738 0.012524 0.003489
v -0.009649 0.007232 0.003135
v -0.006536 0.002999 0.002124
v -0.004046 0.051685 -0.001315
v -0.004981 0.041807 -0.001618
v -0.002957 0.034751 -0.000961
v -0.003424 0.027342 -0.001112
v -0.010738 0.012524 -0.003489
v -0.009649 0.007232 -0.003135
v -0.006536 0.002999 -0.002124
v -0.004954 0.050979 -0.006818
v -0.007935 0.043395 -0.010922
v -0.008176 0.035015 -0.011253
v -0.007358 0.025577 -0.010128
v -0.007887 0.015435 -0.010856
v -0.006925 0.007937 -0.009531
v -0.004424 0.003616 -0.006089
vt 0.105184 0.675091
vt 0.157192 0.618980
vt 0.163123 0.752111
vt 0.057736 0.608871
vt 0.156948 0.520632
vt 0.861847 0.128504
vt 0.754816 0.090011
vt 0.789979 0.000000
vt 0.887386 0.042447
vt 0.648816 0.091637
vt 0.667047 0.020193
vt 0.480555 0.880771
vt 0.496894 0.812900
vt 0.589113 0.850560
vt 0.597474 0.931028
vt 0.503590 0.755608
vt 0.576985 0.786233
vt 0.527269 0.693461
vt 0.570085 0.716761
vt 0.562436 0.620330
vt 0.714223 0.612558
vt 0.674096 0.658299
vt 0.672631 0.570338
vt 0.107809 0.734184
vt 0.045011 0.714881
vt 0.841845 0.233256
vt 0.724343 0.210507
vt 0.632789 0.200256
vt 0.539014 0.196195
vt 0.571250 0.117246
vt 0.480456 0.197961
vt 0.489656 0.129727
vt 0.473201 0.697932
vt 0.513781 0.657122
vt 0.733621 0.578467
vt 0.110520 0.773367
vt 0.050725 0.797478
vt 0.832717 0.315433
vt 0.712757 0.314812
vt 0.621321 0.303499
vt 0.529419 0.282581
vt 0.473201 0.263282
vt 0.328087 0.898163
vt 0.375296 0.954134
vt 0.360586 0.974872
vt 0.300455 0.937117
vt 0.424057 1.000000
vt 0.733621 0.537651
vt 0.130307 0.809458
vt 0.086168 0.884938
vt 0.855413 0.404996
vt 0.725103 0.444581
vt 0.608561 0.415639
vt 0.332438 0.693541
vt 0.357276 0.777943
vt 0.290182 0.840237
vt 0.249306 0.755836
vt 0.380076 0.857050
vt 0.401354 0.927686
vt 0.170044 0.826866
vt 0.180308 0.937281
vt 0.887386 0.460349
vt 0.750679 0.537651
vt 0.454664 0.520632
vt 0.473201 0.659882
vt 0.302444 0.587430
vt 0.459603 0.741085
vt 0.473201 0.833549
vt 0.462074 0.909206
vt 0.203122 0.797749
vt 0.249306 0.841945
vt 0.264218 0.463014
vt 0.301480 0.372826
vt 0.473201 0.419213
vt 0.364867 0.520632
vt 0.317811 0.260076
vt 0.473201 0.267204
vt 0.343914 0.159773
vt 0.429875 0.198307
vt 0.352210 0.080765
vt 0.432163 0.096327
vt 0.341308 0.023427
vt 0.394534 0.030888
vt 0.616484 0.564827
vt 0.562828 0.537651
vt 0.207678 0.762586
vt 0.188637 0.503482
vt 0.208627 0.404047
vt 0.222642 0.510761
vt 0.226630 0.329739
vt 0.241946 0.254871
vt 0.263795 0.112926
vt 0.276700 0.057716
vt 0.290120 0.010821
vt 0.633460 0.608707
vt 0.205773 0.735047
vt 0.164203 0.496782
vt 0.178562 0.395804
vt 0.208773 0.324843
vt 0.221283 0.249206
vt 0.198963 0.095151
vt 0.218446 0.041745
vt 0.250652 0.000000
vt 0.634840 0.648744
vt 0.212089 0.676491
vt 0.110603 0.475933
vt 0.075706 0.389431
vt 0.089630 0.303361
vt 0.124018 0.209813
vt 0.136784 0.104905
vt 0.169483 0.031561
vt 0.647126 0.740772
vt 0.614825 0.690639
vt 0.672631 0.675069
vt 0.249306 0.628076
vt 0.006454 0.374858
vt 0.000000 0.268575
vt 0.055118 0.160171
vt 0.666430 0.786696
vt 0.672631 0.826541
vn 0.3668 0.9105 -0.1912
vn 0.4205 0.8145 -0.3996
vn 0.5784 0.2659 -0.7712
vn 0.5115 -0.2040 -0.8347
vn 0.3229 -0.5982 -0.7334
vn 0.4092 -0.2537 -0.8765
vn 0.3501 -0.7189 -0.6005
vn 0.2431 -0.8615 -0.4457
vn 0.6682 0.7349 0.1160
vn 0.6298 0.7768 -0.0036
vn 0.9419 0.2609 -0.2113
vn 0.9389 -0.0831 -0.3341
vn 0.8262 -0.3614 -0.4322
vn 0.8055 -0.3847 -0.4508
vn 0.6892 -0.6714 -0.2724
vn 0.5249 -0.8239 -0.2138
vn 0.6511 0.7590 0.0000
vn 0.5528 0.8333 0.0000
vn 0.9594 0.2821 0.0000
vn 0.9998 -0.0177 0.0000
vn 0.9651 -0.2620 0.0000
vn 0.8819 -0.4715 0.0000
vn 0.7498 -0.6617 0.0000
vn 0.5851 -0.8109 0.0000
vn 0.6565 0.7537 -0.0305
vn 0.5790 0.8124 -0.0692
vn 0.9262 0.3287 0.1845
vn 0.9594 -0.0745 0.2721
vn 0.8667 -0.3546 0.3508
vn 0.8582 -0.3766 0.3489
vn 0.7634 -0.6307 0.1393
vn 0.5811 -0.8136 0.0182
vn 0.4720 0.8651 0.1695
vn 0.4069 0.9006 0.1525
vn 0.5711 0.4747 0.6697
vn 0.5523 -0.1706 0.8160
vn 0.3861 -0.5995 0.7011
vn 0.4912 -0.2425 0.8366
vn 0.4666 -0.6637 0.5847
vn 0.2935 -0.9136 0.2813
vn -0.1204 0.9742 0.1909
vn -0.5807 0.7659 0.2759
vn -0.8159 0.3267 0.4770
vn -0.8472 -0.1194 0.5177
vn -0.7281 -0.1959 0.6568
vn -0.5315 -0.1858 0.8264
vn -0.3962 -0.6637 0.6345
vn -0.1765 -0.9407 0.2896
vn -0.2670 0.9603 0.0804
vn -0.9629 0.2107 -0.1685
vn -0.9305 -0.0478 -0.3631
vn -0.8969 0.0064 -0.4421
vn -0.9504 0.2839 -0.1267
vn -0.9346 -0.1858 0.3033
vn -0.7554 -0.6037 0.2549
vn -0.3773 -0.9165 0.1330
vn -0.2919 0.9564 0.0000
vn -0.9956 0.0942 0.0000
vn -0.9612 -0.2757 0.0000
vn -0.9980 0.0629 0.0000
vn -0.8967 0.4426 0.0000
vn -0.9795 -0.2016 0.0000
vn -0.8056 -0.5925 0.0000
vn -0.4170 -0.9089 0.0000
vn -0.2674 0.9603 -0.0791
vn -0.9546 0.1490 0.2579
vn -0.9217 -0.0985 0.3751
vn -0.9038 0.0059 0.4280
vn -0.9536 0.2893 0.0833
vn -0.8897 -0.1968 -0.4121
vn -0.6629 -0.6386 -0.3909
vn -0.3129 -0.8990 -0.3065
vn -0.1001 0.9737 -0.2045
vn -0.6353 0.6207 -0.4596
vn -0.8322 0.1096 -0.5435
vn -0.8424 -0.1423 -0.5198
vn -0.7017 -0.2021 -0.6832
vn -0.4540 -0.1997 -0.8683
vn -0.2575 -0.7173 -0.6474
vn -0.0931 -0.8843 -0.4575
usemtl Material_with_Texture.243
s off
f 1/1/1 2/2/1 3/3/1
f 1/1/2 4/4/2 5/5/2 2/2/2
f 4/6/3 6/7/3 7/8/3 5/9/3
f 6/7/4 8/10/4 9/11/4 7/8/4
f 8/12/5 10/13/5 11/14/5 9/15/5
f 10/13/6 12/16/6 13/17/6 11/14/6
f 12/16/7 14/18/7 15/19/7 13/17/7
f 14/18/8 16/20/8 15/19/8
f 17/21/9 1/22/9 3/23/9
f 17/24/10 18/25/10 4/4/10 1/1/10
f 18/26/11 19/27/11 6/7/11 4/6/11
f 19/27/12 20/28/12 8/10/12 6/7/12
f 20/28/13 21/29/13 10/30/13 8/10/13
f 21/29/14 22/31/14 12/32/14 10/30/14
f 22/33/15 23/34/15 14/18/15 12/16/15
f 23/34/16 16/20/16 14/18/16
f 24/35/17 17/21/17 3/23/17
f 24/36/18 25/37/18 18/25/18 17/24/18
f 25/38/19 26/39/19 19/27/19 18/26/19
f 26/39/20 27/40/20 20/28/20 19/27/20
f 27/40/21 28/41/21 21/29/21 20/28/21
f 28/41/22 29/42/22 22/31/22 21/29/22
f 29/43/23 30/44/23 23/45/23 22/46/23
f 30/44/24 16/47/24 23/45/24
f 31/48/25 24/35/25 3/23/25
f 31/49/26 32/50/26 25/37/26 24/36/26
f 32/51/27 33/52/27 26/39/27 25/38/27
f 33/52/28 34/53/28 27/40/28 26/39/28
f 34/54/29 35/55/29 28/56/29 27/57/29
f 35/55/30 36/58/30 29/43/30 28/56/30
f 36/58/31 37/59/31 30/44/31 29/43/31
f 37/59/32 16/47/32 30/44/32
f 38/60/33 31/49/33 3/3/33
f 38/60/34 39/61/34 32/50/34 31/49/34
f 39/62/35 40/63/35 33/52/35 32/51/35
f 40/64/36 41/65/36 34/54/36 33/66/36
f 41/65/37 42/67/37 35/55/37 34/54/37
f 42/67/38 43/68/38 36/58/38 35/55/38
f 43/68/39 44/69/39 37/59/39 36/58/39
f 44/69/40 16/47/40 37/59/40
f 45/70/41 38/60/41 3/3/41
f 45/70/42 46/71/42 39/61/42 38/60/42
f 46/72/43 47/73/43 40/74/43 39/75/43
f 47/73/44 48/76/44 41/77/44 40/74/44
f 48/76/45 49/78/45 42/79/45 41/77/45
f 49/78/46 50/80/46 43/81/46 42/79/46
f 50/80/47 51/82/47 44/83/47 43/81/47
f 51/84/48 16/20/48 44/85/48
f 52/86/49 45/70/49 3/3/49
f 52/87/50 53/88/50 46/72/50 45/89/50
f 53/88/51 54/90/51 47/73/51 46/72/51
f 54/90/52 55/91/52 48/76/52 47/73/52
f 55/91/53 56/92/53 49/78/53 48/76/53
f 56/92/54 57/93/54 50/80/54 49/78/54
f 57/93/55 58/94/55 51/82/55 50/80/55
f 58/95/56 16/20/56 51/84/56
f 59/96/57 52/86/57 3/3/57
f 59/97/58 60/98/58 53/88/58 52/87/58
f 60/98/59 61/99/59 54/90/59 53/88/59
f 61/99/60 62/100/60 55/91/60 54/90/60
f 62/100/61 63/101/61 56/92/61 55/91/61
f 63/101/62 64/102/62 57/93/62 56/92/62
f 64/102/63 65/103/63 58/94/63 57/93/63
f 65/104/64 16/20/64 58/95/64
f 66/105/65 59/96/65 3/3/65
f 66/106/66 67/107/66 60/98/66 59/97/66
f 67/107/67 68/108/67 61/99/67 60/98/67
f 68/108/68 69/109/68 62/100/68 61/99/68
f 69/109/69 70/110/69 63/101/69 62/100/69
f 70/110/70 71/111/70 64/102/70 63/101/70
f 71/112/71 72/113/71 65/104/71 64/114/71
f 72/113/72 16/20/72 65/104/72
f 2/2/73 66/105/73 3/3/73
f 2/2/74 5/5/74 67/115/74 66/105/74
f 5/116/75 7/117/75 68/108/75 67/107/75
f 7/117/76 9/118/76 69/109/76 68/108/76
f 9/15/77 11/14/77 70/119/77 69/120/77
f 11/14/78 13/17/78 71/112/78 70/119/78
f 13/17/79 15/19/79 72/113/79 71/112/79
f 15/19/80 16/20/80 72/113/80
