# Blender 4.3.0
# www.blender.org
mtllib r_trpzm.mtl
o r_trpzm
v 0.006112 0.000757 -0.004990
v 0.000049 -0.000897 -0.003804
v 0.001738 0.001923 -0.004982
v 0.005966 0.002566 -0.005646
v 0.005180 -0.000002 -0.004641
v 0.000253 -0.001675 -0.002801
v 0.007084 0.003842 -0.004619
v -0.005262 -0.007952 -0.001032
v -0.001724 -0.001652 -0.005202
v -0.003992 -0.009062 0.001853
v 0.002309 0.006030 -0.004736
v 0.006252 0.005973 -0.005894
v -0.000650 0.005944 -0.007958
v 0.006971 0.000070 -0.004145
v 0.004318 -0.001295 -0.003181
v 0.003108 -0.002699 -0.002660
v 0.007754 0.009266 -0.005205
v 0.008842 0.009428 -0.003486
v 0.008634 0.004748 -0.003695
v 0.008049 0.001775 -0.003876
v -0.011698 -0.005972 0.003154
v -0.013204 -0.001065 0.001618
v -0.007328 -0.007547 0.004660
v -0.008571 0.006571 -0.000084
v -0.002097 -0.001590 0.006169
v 0.004914 0.010337 -0.004684
v 0.004472 0.011772 -0.002740
v -0.002155 0.010294 0.002639
v 0.007006 0.000945 -0.000552
v 0.006834 0.001841 0.005749
v 0.002726 0.005162 0.009395
v 0.008312 0.010950 -0.001812
v 0.008172 0.005733 -0.000909
v -0.010222 -0.000823 0.005471
v -0.010503 0.001663 0.004084
v -0.008295 0.000144 0.005908
v -0.007999 0.004386 0.003301
v -0.005162 0.002518 0.005813
v -0.004699 0.006627 0.004426
v -0.001981 0.003905 0.007671
v 0.005868 0.011114 0.000927
v -0.000213 0.010961 0.005935
v -0.003516 0.008725 0.004799
v 0.007365 0.006611 0.000938
v -0.000882 0.008401 0.008560
v -0.003185 0.005640 0.006631
v -0.006174 0.003643 0.005345
vn 0.6801 -0.7131 -0.1703
vn 0.3925 -0.6517 -0.6491
vn 0.2030 -0.2773 -0.9391
vn 0.3052 -0.1652 -0.9378
vn 0.1203 -0.6768 -0.7263
vn 0.1962 -0.6272 -0.7538
vn 0.6417 -0.1080 -0.7593
vn -0.0981 -0.7656 -0.6358
vn 0.0895 -0.4645 -0.8810
vn 0.3459 -0.9341 0.0879
vn 0.1779 0.0397 -0.9832
vn 0.2208 0.0031 -0.9753
vn -0.0953 0.2853 -0.9537
vn 0.5646 -0.6485 -0.5105
vn 0.3859 -0.8475 -0.3645
vn 0.3380 -0.8639 -0.3734
vn 0.4585 0.3596 -0.8127
vn 0.8961 0.3358 -0.2901
vn 0.9228 -0.0892 -0.3749
vn 0.8422 -0.3676 -0.3945
vn -0.8205 -0.5577 0.1252
vn -0.9844 0.0309 -0.1730
vn -0.0778 -0.7629 0.6419
vn -0.7715 0.5868 -0.2459
vn 0.1895 -0.4748 0.8595
vn 0.2117 0.5137 -0.8314
vn 0.0351 0.9444 -0.3270
vn -0.4637 0.8852 -0.0374
vn 0.8402 -0.5204 0.1528
vn 0.7951 -0.2970 0.5287
vn 0.3892 0.0330 0.9206
vn 0.7432 0.6669 0.0541
vn 0.9596 -0.0449 0.2779
vn -0.5447 0.0143 0.8385
vn -0.6658 0.4404 0.6023
vn -0.2573 0.0862 0.9625
vn -0.6063 0.5996 0.5224
vn -0.2827 -0.0384 0.9584
vn -0.7445 0.5767 0.3365
vn -0.3985 -0.1187 0.9095
vn 0.4878 0.7837 0.3845
vn -0.0301 0.8168 0.5761
vn -0.7296 0.5998 0.3285
vn 0.8627 0.2041 0.4627
vn -0.1506 0.4128 0.8983
vn -0.5574 0.2360 0.7960
vn -0.4676 0.3544 0.8098
vt 0.659324 0.102170
vt 0.779709 0.019371
vt 0.757123 0.097570
vt 0.670626 0.143455
vt 0.675359 0.077700
vt 0.778308 0.000000
vt 0.817389 0.207836
vt 0.799405 0.281418
vt 0.783789 0.239031
vt 0.702531 0.337673
vt 0.702531 0.437790
vt 0.688390 0.412120
vt 0.793445 0.780715
vt 0.772336 0.977424
vt 0.743771 0.806007
vt 0.793523 0.704625
vt 0.815527 0.798853
vt 0.843613 1.000000
vt 0.779709 0.191306
vt 0.689202 0.221541
vt 0.692797 0.623214
vt 0.793813 0.609100
vt 0.779709 0.159547
vt 0.661377 0.470240
vt 0.659324 0.417971
vt 0.688390 0.337673
vt 0.688390 0.441468
vt 0.828565 0.295467
vt 0.790160 0.304251
vt 0.054732 0.552301
vt 0.062003 0.596782
vt 0.062003 0.842395
vt 0.006029 0.629207
vt 0.811514 0.079660
vt 0.857272 0.076043
vt 0.857272 0.182622
vt 0.848765 0.252374
vt 0.621010 0.829684
vt 0.437770 0.832560
vt 0.390014 0.725458
vt 0.692797 0.655763
vt 0.853219 0.651019
vt 0.843613 0.543641
vt 0.930954 0.470240
vt 0.930954 0.655742
vt 0.453981 0.522707
vt 0.692797 0.470240
vt 0.059276 0.337529
vt 0.289681 0.368426
vt 0.294616 0.552301
vt 0.187524 0.545745
vt 0.760932 0.304251
vt 0.690463 0.302165
vt 0.843613 0.470240
vt 0.824223 0.496194
vt 0.390014 0.623515
vt 0.390014 0.879572
vt 0.236393 0.842400
vt 0.215045 0.659726
vt 0.002059 0.189733
vt 0.065512 0.215486
vt 0.044024 0.295364
vt 0.000000 0.237181
vt 0.178786 0.193069
vt 0.325259 0.171686
vt 0.203302 0.552301
vt 0.240902 0.612944
vt 0.136736 0.607441
vt 0.156722 0.562972
vt 0.057213 0.025979
vt 0.104542 0.000000
vt 0.080299 0.105641
vt 0.019906 0.122777
vt 0.583645 0.000000
vt 0.574572 0.114949
vt 0.516285 0.143004
vt 0.485303 0.044286
vt 0.659324 0.056071
vt 0.583471 0.164566
vt 0.484421 0.224595
vt 0.390014 0.234597
vt 0.361206 0.322850
vt 0.390014 0.407951
vt 0.499706 0.320255
vt 0.437592 0.412977
vt 0.659324 0.444530
vt 0.611720 0.337756
vt 0.572925 0.254313
vt 0.649166 0.243960
vt 0.131626 0.691159
vt 0.149229 0.867395
vt 0.488899 0.374561
vt 0.504473 0.470240
vt 0.129459 0.095745
vt 0.131626 0.552301
vt 0.131626 0.816991
vt 0.062482 0.749629
vt 0.062003 0.605059
vt 0.581063 0.430120
vt 0.563219 0.339913
vt 0.186768 0.023122
vt 0.543910 0.252653
vt 0.357198 0.093786
vt 0.390014 0.150567
s 1
usemtl Material_with_Texture.253
f 1/1/1 2/2/2 3/3/3 4/4/4
f 5/5/5 6/6/6 2/2/2 1/1/1
f 7/7/7 1/8/1 4/9/4
f 7/10/7 5/11/5 1/12/1
f 2/13/2 8/14/8 9/15/9 3/16/3
f 6/17/6 10/18/10 8/14/8 2/13/2
f 4/4/4 3/3/3 11/19/11 12/20/12
f 3/16/3 9/15/9 13/21/13 11/22/11
f 7/7/7 4/9/4 12/23/12
f 14/24/14 15/25/15 6/26/6 5/27/5
f 7/7/7 14/28/14 5/29/5
f 15/30/15 16/31/16 10/32/10 6/33/6
f 7/7/7 12/23/12 17/34/17
f 7/7/7 17/34/17 18/35/18
f 7/7/7 18/35/18 19/36/19
f 7/7/7 19/36/19 20/37/20
f 7/7/7 20/37/20 14/28/14
f 8/38/8 21/39/21 22/40/22 9/41/9
f 10/42/10 23/43/23 21/44/21 8/45/8
f 9/41/9 22/40/22 24/46/24 13/47/13
f 16/48/16 25/49/25 23/50/23 10/51/10
f 12/20/12 11/19/11 26/52/26 17/53/17
f 11/22/11 13/21/13 27/54/27 26/55/26
f 13/56/13 24/57/24 28/58/28 27/59/27
f 20/60/20 29/61/29 15/62/15 14/63/14
f 29/61/29 30/64/30 16/48/16 15/62/15
f 30/64/30 31/65/31 25/49/25 16/48/16
f 17/66/17 26/67/26 32/68/32 18/69/18
f 18/70/18 32/71/32 33/72/33 19/73/19
f 19/73/19 33/72/33 29/61/29 20/60/20
f 21/74/21 34/75/34 35/76/35 22/77/22
f 23/78/23 36/79/36 34/75/34 21/74/21
f 22/77/22 35/76/35 37/80/37 24/81/24
f 25/49/25 38/82/38 36/83/36 23/50/23
f 24/81/24 37/80/37 39/84/39 28/85/28
f 31/86/31 40/87/40 38/88/38 25/89/25
f 26/67/26 27/59/27 41/90/41 32/68/32
f 27/59/27 28/58/28 42/91/42 41/90/41
f 28/85/28 39/84/39 43/92/43 42/93/42
f 33/72/33 44/94/44 30/64/30 29/61/29
f 44/95/44 45/96/45 31/97/31 30/98/30
f 45/99/45 46/100/46 40/87/40 31/86/31
f 32/71/32 41/101/41 44/94/44 33/72/33
f 35/76/35 34/75/34 47/102/47
f 34/75/34 36/79/36 47/102/47
f 37/80/37 35/76/35 47/102/47
f 36/79/36 38/88/38 47/102/47
f 39/84/39 37/80/37 47/102/47
f 38/88/38 40/87/40 47/102/47
f 43/92/43 39/84/39 47/102/47
f 40/87/40 46/100/46 47/102/47
f 41/101/41 42/103/42 45/104/45 44/94/44
f 42/93/42 43/92/43 46/100/46 45/99/45
f 46/100/46 43/92/43 47/102/47
