# Blender 4.3.0
# www.blender.org
mtllib r_triq.mtl
o r_triq
v 0.002205 -0.004038 -0.002226
v 0.004687 -0.003927 -0.003013
v 0.003588 -0.007448 -0.003112
v 0.000517 -0.008841 -0.002963
v 0.003111 -0.000525 -0.002527
v 0.005283 0.000430 -0.002684
v -0.000256 -0.001902 -0.003423
v -0.000327 -0.000111 -0.002942
v 0.000254 0.002987 -0.002101
v 0.004635 -0.004116 0.000134
v 0.004411 -0.009022 -0.000146
v 0.004893 -0.000750 0.000888
v 0.002761 -0.010225 0.000477
v -0.001679 -0.009610 -0.000876
v 0.004343 -0.009787 0.002295
v -0.001816 -0.003047 -0.003568
v 0.003591 0.004617 -0.000234
v 0.007370 0.004761 -0.002008
v -0.003025 0.003660 -0.001170
v 0.007440 0.003404 -0.000726
v -0.002544 -0.000317 -0.002534
v 0.005562 -0.002601 0.002259
v 0.005334 -0.004896 0.005050
v 0.002147 -0.004204 0.005698
v -0.006387 0.003016 0.006286
v -0.004910 -0.004854 -0.001727
v -0.003376 -0.004192 -0.003711
v -0.000338 0.006948 0.001944
v 0.007452 0.005249 0.004251
v -0.005951 0.002568 -0.000629
v 0.007624 0.003489 0.003491
v -0.005849 -0.002496 -0.002728
v 0.005817 0.000863 0.007084
v 0.003854 0.001693 0.008777
vn 0.0818 0.0883 -0.9927
vn 0.6195 -0.0311 -0.7844
vn 0.4569 -0.3172 -0.8310
vn -0.0344 -0.5166 -0.8555
vn -0.0706 0.1751 -0.9820
vn 0.4610 -0.0230 -0.8871
vn 0.1066 0.0920 -0.9900
vn -0.0102 0.1735 -0.9848
vn 0.0515 0.3879 -0.9202
vn 0.9724 -0.0741 -0.2212
vn 0.8023 -0.5212 -0.2910
vn 0.8018 -0.3573 -0.4789
vn 0.0529 -0.9933 0.1024
vn -0.4717 -0.8706 -0.1397
vn 0.5214 -0.7339 0.4354
vn -0.2383 -0.0044 -0.9712
vn -0.0040 0.7735 -0.6338
vn 0.6135 0.4595 -0.6423
vn -0.1568 0.5426 -0.8252
vn 0.9551 -0.2617 -0.1387
vn -0.1902 0.3115 -0.9310
vn 0.9643 -0.1739 -0.1995
vn 0.6851 -0.4554 0.5685
vn -0.1725 -0.5251 0.8334
vn -0.7587 0.2352 0.6075
vn -0.8276 -0.5458 -0.1314
vn -0.4023 -0.2138 -0.8902
vn -0.2229 0.9740 -0.0415
vn 0.6356 0.6827 0.3606
vn -0.6072 0.5598 -0.5638
vn 0.9760 -0.0860 0.2001
vn -0.8048 0.0786 -0.5883
vn 0.7555 -0.2193 0.6173
vn 0.1515 0.1280 0.9801
vt 0.723599 0.314016
vt 0.799794 0.291552
vt 0.799794 0.401439
vt 0.722488 0.471385
vt 0.720986 0.210038
vt 0.776298 0.161869
vt 0.642527 0.292176
vt 0.621278 0.239113
vt 0.604735 0.139722
vt 0.186732 0.819837
vt 0.274479 0.778234
vt 0.341557 0.913675
vt 0.237470 0.921104
vt 0.129392 0.695992
vt 0.243629 0.676310
vt 0.866018 0.182217
vt 0.799794 0.101335
vt 0.938902 0.069811
vt 0.949086 0.210799
vt 0.882991 0.034537
vt 0.949086 0.000000
vt 0.650966 0.497184
vt 0.608690 0.341787
vt 0.673120 0.042118
vt 0.793493 0.013823
vt 0.497649 0.147747
vt 0.082049 0.558792
vt 0.137291 0.575202
vt 0.556279 0.264802
vt 0.308887 0.700913
vt 0.419026 0.897948
vt 0.840278 0.415395
vt 0.799794 0.358268
vt 0.840278 0.210799
vt 0.332274 0.003889
vt 0.394420 0.045912
vt 0.419055 0.217459
vt 0.333466 0.250201
vt 0.188872 0.000000
vt 0.051857 0.452065
vt 0.000000 0.544995
vt 0.028685 0.478612
vt 0.080644 0.452065
vt 0.080644 0.644676
vt 0.054912 0.107878
vt 0.419055 0.721441
vt 0.574838 0.391380
vt 0.531872 0.631033
vt 0.554490 0.887039
vt 0.419055 0.843029
vt 0.493484 0.743094
vt 0.419055 0.204278
vt 0.523763 0.000000
vt 0.243449 0.452065
vt 0.249765 0.508986
vt 0.481608 0.362066
vt 0.386345 0.535717
vt 0.414811 0.398387
vt 0.374479 0.452065
vt 0.755623 0.497184
vt 0.755623 0.826114
vt 0.755623 0.772659
vt 0.912537 0.618289
vt 1.000000 0.497184
vt 1.000000 0.814725
vt 0.000000 0.150148
vt 0.069122 0.086939
vt 0.419055 0.500173
s 1
usemtl Material_with_Texture.251
f 1/1/1 2/2/2 3/3/3 4/4/4
f 5/5/5 6/6/6 2/2/2 1/1/1
f 4/4/4 7/7/7 8/8/8 1/1/1
f 1/1/1 8/8/8 9/9/9 5/5/5
f 2/10/2 10/11/10 11/12/11 3/13/3
f 6/14/6 12/15/12 10/11/10 2/10/2
f 4/16/4 3/17/3 13/18/13 14/19/14
f 3/17/3 11/20/11 15/21/15 13/18/13
f 14/22/14 16/23/16 7/7/7 4/4/4
f 17/24/17 18/25/18 6/6/6 5/5/5
f 5/5/5 9/9/9 19/26/19 17/24/17
f 18/27/18 20/28/20 12/15/12 6/14/6
f 8/8/8 7/7/7 21/29/21
f 7/7/7 16/23/16 21/29/21
f 9/9/9 8/8/8 21/29/21
f 19/26/19 9/9/9 21/29/21
f 22/30/22 11/12/11 10/11/10
f 22/30/22 10/11/10 12/15/12
f 22/30/22 15/31/15 11/12/11
f 22/32/22 12/33/12 20/34/20
f 13/35/13 15/36/15 23/37/23 24/38/24
f 14/39/14 13/35/13 24/38/24 25/40/25
f 26/41/26 27/42/27 16/43/16 14/44/14
f 14/39/14 25/40/25 26/45/26
f 22/30/22 23/46/23 15/31/15
f 16/23/16 27/47/27 21/29/21
f 28/48/28 29/49/29 18/50/18 17/51/17
f 17/24/17 19/26/19 30/52/30 28/53/28
f 29/54/29 31/55/31 20/28/20 18/27/18
f 30/52/30 19/26/19 21/29/21
f 22/30/22 20/28/20 31/55/31
f 32/56/32 30/52/30 21/29/21
f 27/47/27 32/56/32 21/29/21
f 22/30/22 31/55/31 33/57/33
f 22/30/22 33/57/33 23/46/23
f 24/38/24 23/37/23 33/58/33 34/59/34
f 34/59/34 25/40/25 24/38/24
f 25/60/25 34/61/34 29/49/29 28/48/28
f 28/62/28 30/63/30 32/64/32 25/65/25
f 25/40/25 32/66/32 27/67/27 26/45/26
f 34/68/34 33/57/33 31/55/31 29/54/29
