# Blender v3.5.0 OBJ File: ''
# www.blender.org
mtllib ring_proximal_rvs.mtl
o ring_proximal_rvs
v 0.021265 -0.141519 -0.022207
v 0.025034 -0.139125 -0.020639
v 0.022458 -0.138517 -0.021596
v 0.019282 -0.139529 -0.022141
v 0.022149 -0.141916 -0.022124
v 0.024638 -0.140979 -0.021391
v 0.020107 -0.141010 -0.023920
v 0.021880 -0.142144 -0.023804
v 0.026131 -0.138686 -0.021472
v 0.026101 -0.137579 -0.021157
v 0.021487 -0.134385 -0.020179
v 0.024622 -0.137040 -0.020013
v 0.019237 -0.136079 -0.020938
v 0.019741 -0.134191 -0.020685
v 0.018020 -0.136276 -0.022307
v 0.017849 -0.135059 -0.028388
v 0.024661 -0.141766 -0.022827
v 0.025439 -0.140850 -0.022311
v 0.020951 -0.140513 -0.029832
v 0.021985 -0.141572 -0.026450
v 0.024672 -0.141700 -0.023711
v 0.026071 -0.139533 -0.024088
v 0.026346 -0.137626 -0.023487
v 0.024960 -0.135212 -0.020659
v 0.020474 -0.133904 -0.020560
v 0.022549 -0.133536 -0.021099
v 0.018857 -0.134441 -0.021095
v 0.016815 -0.130866 -0.020821
v 0.013779 -0.129479 -0.025319
v 0.012740 -0.127234 -0.022320
v 0.014818 -0.125887 -0.028232
v 0.018592 -0.133175 -0.029488
v 0.013227 -0.127168 -0.026861
v 0.020019 -0.134342 -0.030413
v 0.020080 -0.136661 -0.030335
v 0.020495 -0.134957 -0.030732
v 0.022421 -0.141624 -0.030204
v 0.022374 -0.141935 -0.028884
v 0.022151 -0.140333 -0.030864
v 0.024291 -0.141039 -0.026249
v 0.024420 -0.141374 -0.030391
v 0.024986 -0.140214 -0.026178
v 0.025728 -0.137459 -0.025992
v 0.024846 -0.135452 -0.025825
v 0.020600 -0.133397 -0.021627
v 0.021264 -0.132925 -0.023394
v 0.009961 -0.117323 -0.018846
v 0.002104 -0.109936 -0.020569
v 0.013471 -0.120273 -0.019564
v 0.016795 -0.125353 -0.020981
v 0.007032 -0.118814 -0.024936
v 0.008414 -0.114314 -0.027148
v 0.007330 -0.118646 -0.025990
v 0.018774 -0.129593 -0.028922
v 0.009490 -0.111167 -0.027440
v 0.020115 -0.132449 -0.029181
v 0.019791 -0.133107 -0.029651
v 0.020576 -0.133326 -0.030153
v 0.025041 -0.139101 -0.031531
v 0.024458 -0.136236 -0.031511
v 0.022052 -0.134453 -0.031080
v 0.025044 -0.137185 -0.031613
v 0.025660 -0.139621 -0.030856
v 0.026097 -0.139498 -0.028436
v 0.026295 -0.137167 -0.028366
v 0.022635 -0.133231 -0.028088
v 0.025559 -0.135869 -0.028411
v 0.020632 -0.132420 -0.028487
v 0.007294 -0.111250 -0.017456
v 0.009330 -0.110873 -0.017564
v 0.005533 -0.116082 -0.024518
v 0.002686 -0.110957 -0.025105
v -0.000034 -0.105851 -0.020776
v 0.000557 -0.105481 -0.026281
v 0.001356 -0.107346 -0.018258
v 0.014386 -0.119624 -0.020604
v 0.010823 -0.110735 -0.018941
v 0.005984 -0.115719 -0.025445
v 0.002660 -0.102577 -0.028845
v 0.011004 -0.112349 -0.025443
v 0.008276 -0.108342 -0.027474
v 0.008510 -0.107439 -0.026743
v 0.010003 -0.110776 -0.026308
v 0.020955 -0.132649 -0.029700
v 0.025929 -0.137302 -0.030931
v 0.023118 -0.133775 -0.030436
v 0.024343 -0.134752 -0.030646
v 0.008170 -0.107274 -0.015829
v 0.004401 -0.104010 -0.014096
v 0.001016 -0.103641 -0.027754
v -0.000401 -0.103559 -0.022298
v 0.000887 -0.103063 -0.016860
v -0.000207 -0.102877 -0.025420
v 0.001612 -0.102240 -0.015848
v 0.009747 -0.105433 -0.017170
v 0.008804 -0.103296 -0.015315
v 0.009725 -0.109909 -0.025522
v 0.002443 -0.101502 -0.028778
v 0.003836 -0.100113 -0.028737
v 0.007888 -0.105701 -0.027877
v 0.007947 -0.101925 -0.028293
v 0.004818 -0.099708 -0.028635
v 0.009138 -0.105837 -0.026441
v 0.009574 -0.106012 -0.025089
v 0.009300 -0.107684 -0.025276
v 0.006174 -0.101189 -0.014445
v 0.003765 -0.101454 -0.014775
v 0.001528 -0.099713 -0.027893
v 0.000473 -0.101372 -0.026470
v 0.001080 -0.101456 -0.017848
v 0.000826 -0.102131 -0.024598
v 0.000669 -0.102672 -0.021366
v 0.003247 -0.099667 -0.015444
v 0.009457 -0.106047 -0.024064
v 0.009163 -0.103094 -0.023999
v 0.009299 -0.099955 -0.017378
v 0.007153 -0.101021 -0.014824
v 0.003103 -0.098899 -0.027981
v 0.003599 -0.099690 -0.028295
v 0.008599 -0.101702 -0.027831
v 0.005920 -0.099566 -0.028379
v 0.007679 -0.099670 -0.027561
v 0.004505 -0.099158 -0.028165
v 0.004685 -0.100510 -0.015285
v 0.005469 -0.099357 -0.015524
v 0.002130 -0.100784 -0.025881
v 0.007707 -0.098457 -0.018271
v 0.004737 -0.099911 -0.023549
v 0.006281 -0.098554 -0.026561
v 0.006560 -0.098252 -0.023328
v 0.005022 -0.098517 -0.027429
v 0.004566 -0.098544 -0.026740
vt 0.760392 0.933873
vt 0.685456 0.888086
vt 0.732490 0.876266
vt 0.794936 0.892649
vt 0.744221 0.942487
vt 0.695498 0.925695
vt 0.409440 0.043630
vt 0.442478 0.027105
vt 0.441396 0.079223
vt 0.905507 0.255424
vt 0.921011 0.255499
vt 0.915963 0.286783
vt 0.412357 0.008434
vt 0.662059 0.884793
vt 0.660994 0.862450
vt 0.745500 0.790548
vt 0.690371 0.845311
vt 0.791037 0.822211
vt 0.778034 0.786114
vt 0.432274 0.146374
vt 0.457034 0.140995
vt 0.312206 0.159759
vt 0.859262 0.275310
vt 0.852932 0.248821
vt 0.839758 0.268697
vt 0.678282 0.928173
vt 0.293181 0.035798
vt 0.359831 0.013394
vt 0.861188 0.292474
vt 0.918981 0.338922
vt 0.176482 0.882682
vt 0.185240 0.848699
vt 0.225558 0.861479
vt 0.229594 0.840522
vt 0.211800 0.897794
vt 0.232598 0.788692
vt 0.679236 0.813671
vt 0.763517 0.781320
vt 0.794936 0.797396
vt 0.814019 0.832307
vt 0.796724 0.829331
vt 0.721840 0.779753
vt 0.450756 0.172422
vt 0.794936 0.791100
vt 0.843471 0.850671
vt 0.825742 0.842446
vt 0.777017 0.110475
vt 0.760605 0.000000
vt 0.788414 0.031873
vt 0.363368 0.296961
vt 0.730004 0.196582
vt 0.417432 0.349486
vt 0.868787 0.448134
vt 0.857181 0.609490
vt 0.827709 0.629666
vt 0.329003 0.339456
vt 0.541192 0.727157
vt 0.528241 0.548484
vt 0.565240 0.548375
vt 0.868787 0.645816
vt 0.275809 0.109301
vt 0.564508 0.783663
vt 0.585615 0.761079
vt 0.582817 0.745034
vt 0.827709 0.306543
vt 0.286929 0.002964
vt 0.313184 0.000000
vt 0.271585 0.026665
vt 0.872794 0.341490
vt 0.882727 0.421087
vt 0.919498 0.386196
vt 0.856395 0.343107
vt 0.135333 0.847468
vt 0.135124 0.892529
vt 0.133134 0.804729
vt 0.216100 0.742825
vt 0.826960 0.813229
vt 0.168063 0.728457
vt 0.843471 0.779753
vt 0.827709 0.036013
vt 0.749394 0.406140
vt 0.660994 0.583954
vt 0.423920 0.745491
vt 0.450236 0.252742
vt 0.792056 0.326540
vt 0.816350 0.207531
vt 0.354100 0.541755
vt 0.551414 0.296117
vt 0.497428 0.352434
vt 0.602670 0.647059
vt 0.568710 0.708369
vt 0.596359 0.254456
vt 0.601893 0.707261
vt 0.590114 0.718201
vt 0.333044 0.540416
vt 0.601435 0.731297
vt 0.629583 0.872607
vt 0.569356 0.865094
vt 0.643440 0.819969
vt 0.616735 0.767718
vt 0.645626 0.841239
vt 0.564051 0.885023
vt 0.600987 0.898655
vt 0.921011 0.412234
vt 0.854023 0.435815
vt 0.865646 0.448134
vt 0.838783 0.390440
vt 0.092598 0.892743
vt 0.090195 0.851857
vt 0.080911 0.754812
vt 0.085476 0.823441
vt 0.191785 0.555006
vt 0.201612 0.728115
vt 0.067599 0.727283
vt 0.050291 0.664446
vt 0.744144 0.538065
vt 0.783764 0.530180
vt 0.357671 0.602902
vt 0.337903 0.715856
vt 0.413069 0.834747
vt 0.305223 0.827588
vt 0.481614 0.681262
vt 0.463616 0.800344
vt 0.813745 0.327248
vt 0.812393 0.516398
vt 0.183810 0.433999
vt 0.338478 0.603757
vt 0.546990 0.062578
vt 0.499060 0.289363
vt 0.070429 0.290963
vt 0.026644 0.263981
vt 0.053187 0.725910
vt 0.018415 0.204663
vt 0.031390 0.188210
vt 0.048850 0.257732
vt 0.598748 0.197518
vt 0.844732 0.738077
vt 0.858178 0.732652
vt 0.858178 0.779753
vt 0.614317 0.720598
vt 0.660994 0.846658
vt 0.045225 0.897794
vt 0.029987 0.885757
vt 0.040194 0.857966
vt 0.641908 0.761647
vt 0.654935 0.789347
vt 0.037836 0.800269
vt 0.024041 0.829949
vt 0.024988 0.851383
vt 0.037594 0.773651
vt 0.045280 0.736584
vt 0.787865 0.609347
vt 0.665049 0.644867
vt 0.742323 0.700639
vt 0.481614 0.180633
vt 0.510543 0.060247
vt 0.247025 0.855135
vt 0.272187 0.853050
vt 0.378941 0.875295
vt 0.481614 0.880567
vt 0.316877 0.880645
vt 0.705321 0.743795
vt 0.686725 0.729917
vt 0.192596 0.244848
vt 0.215048 0.137397
vt 0.245053 0.087807
vt 0.061885 0.238255
vt 0.827709 0.677580
vt 0.552292 0.042499
vt 0.588439 0.030809
vt 0.613631 0.152671
vt 0.645870 0.092760
vt 0.609189 0.031696
vt 0.005115 0.155271
vt 0.035660 0.162897
vt 0.062960 0.165803
vt 0.061770 0.194549
vt 0.794853 0.736813
vt 0.749479 0.747390
vt 0.260243 0.916095
vt 0.292531 0.898991
vt 0.552340 0.000000
vt 0.458747 0.905106
vt 0.846807 0.202285
vt 0.827709 0.143177
vt 0.868757 0.183994
vt 0.851301 0.123064
vt 0.859333 0.059075
vt 0.837744 0.036990
vt 0.854724 0.016925
vt 0.875732 0.222795
vt 0.753238 0.779753
vt 0.905500 0.008708
vt 0.082552 0.163147
vt 0.077918 0.107640
vt 0.200316 0.035896
vt 0.247025 0.034128
vt 0.813952 0.731388
vt 0.586695 0.000137
vt 0.588371 0.019247
vt 0.659739 0.091843
vt 0.000336 0.087873
vt 0.630021 0.037074
vt 0.660994 0.048801
vt 0.608888 0.017226
vt 0.844732 0.734500
vt 0.844732 0.779753
vt 0.827709 0.755507
vt 0.795732 0.769514
vt 0.773145 0.755552
vt 0.913508 0.248821
vt 0.907278 0.205266
vt 0.947874 0.244955
vt 1.000000 0.042554
vt 0.952217 0.151384
vt 0.945807 0.000000
vt 0.000000 0.044170
vt 0.014389 0.011936
vt 0.076796 0.000595
vt 0.177101 0.000000
vt 0.867110 0.861508
vt 0.843471 0.798943
vt 0.867110 0.779753
vt 0.854889 0.723624
vt 0.827709 0.681314
vt 0.854889 0.645816
vt 0.624233 0.006651
vt 0.972000 0.215586
vt 0.981927 0.226208
vt 0.647059 0.012795
vt 0.997908 0.142982
vt 1.000000 0.203661
vn -0.3577 -0.0477 0.9326
vn -0.1199 -0.1520 0.9811
vn -0.1935 -0.2317 0.9534
vn -0.1696 -0.3391 0.9253
vn -0.6805 -0.6866 0.2560
vn -0.4170 -0.8894 0.1875
vn -0.5405 -0.8330 0.1179
vn 0.6413 -0.1939 0.7424
vn -0.3996 -0.3800 0.8342
vn -0.3267 -0.3304 0.8855
vn 0.5772 -0.1281 0.8065
vn 0.6504 -0.4007 0.6453
vn -0.0568 -0.3294 0.9425
vn -0.2963 -0.3714 0.8799
vn 0.0842 -0.1544 0.9844
vn -0.7079 -0.2408 0.6640
vn -0.9096 -0.4073 -0.0828
vn -0.9305 -0.3634 -0.0466
vn 0.0924 -0.9885 0.1193
vn 0.1842 -0.8607 0.4746
vn 0.5748 -0.7137 0.4003
vn 0.7067 -0.4406 0.5535
vn -0.8755 -0.4548 -0.1632
vn -0.4505 -0.8820 -0.1385
vn -0.5186 -0.8313 -0.2003
vn 0.1604 -0.9661 -0.2025
vn 0.1590 -0.9847 -0.0715
vn 0.9882 -0.1507 0.0261
vn 0.9945 -0.0028 0.1046
vn 0.9387 -0.3337 0.0865
vn 0.9044 0.4177 0.0867
vn 0.6384 0.1488 0.7552
vn -0.2483 0.2236 0.9425
vn 0.0621 0.6968 0.7146
vn 0.2425 0.5573 0.7941
vn 0.1991 0.2936 0.9350
vn -0.7355 -0.1065 0.6691
vn -0.4184 -0.0100 0.9082
vn -0.3922 0.8625 0.3199
vn -0.4665 -0.3294 0.8209
vn -0.8272 -0.5550 -0.0878
vn -0.5726 -0.3333 0.7490
vn -0.8610 -0.5026 0.0780
vn -0.6261 -0.1940 -0.7552
vn -0.8391 -0.4261 -0.3381
vn -0.5603 -0.1714 -0.8104
vn -0.6369 -0.1857 -0.7483
vn -0.7320 -0.2484 -0.6344
vn -0.6628 -0.0130 -0.7487
vn -0.6556 -0.1208 -0.7454
vn 0.7720 -0.6345 -0.0378
vn 0.8251 -0.5529 -0.1163
vn -0.6225 -0.7565 -0.2004
vn -0.7046 -0.7096 -0.0068
vn -0.6128 -0.2370 -0.7539
vn -0.5336 -0.4708 -0.7026
vn 0.2173 -0.9724 0.0854
vn 0.3913 -0.8990 0.1966
vn 0.2393 -0.9303 -0.2782
vn 0.7980 -0.5557 -0.2332
vn 0.7477 -0.6066 -0.2702
vn 0.9680 -0.0630 -0.2430
vn 0.8937 -0.2141 -0.3942
vn 0.8923 0.4082 -0.1929
vn 0.8436 0.5353 -0.0435
vn 0.5763 0.8157 -0.0506
vn -0.0503 0.9044 0.4238
vn -0.3983 0.8458 0.3549
vn 0.5387 0.8389 -0.0783
vn -0.0009 0.9662 0.2577
vn 0.2525 0.0702 0.9650
vn -0.5211 -0.3755 0.7664
vn -0.6344 -0.4535 0.6260
vn 0.1409 -0.0727 0.9874
vn 0.4276 0.0278 0.9035
vn 0.2267 0.0291 0.9735
vn -0.8425 -0.5286 0.1038
vn -0.8342 -0.5329 0.1419
vn -0.7695 -0.4713 -0.4309
vn -0.4057 -0.1399 -0.9032
vn -0.5003 -0.2619 -0.8253
vn -0.0249 0.1573 -0.9872
vn -0.1844 -0.0139 -0.9828
vn -0.2038 -0.0211 -0.9788
vn 0.1269 0.1485 -0.9807
vn -0.1401 0.6202 -0.7718
vn -0.1444 0.5002 -0.8538
vn -0.7968 -0.5198 -0.3081
vn -0.3997 0.4267 -0.8112
vn -0.1835 0.3369 -0.9235
vn -0.2293 0.0109 -0.9733
vn -0.2487 -0.1028 -0.9631
vn -0.2542 -0.0532 -0.9657
vn -0.2532 -0.0410 -0.9666
vn -0.1559 -0.1880 -0.9697
vn -0.3068 0.3319 -0.8920
vn -0.0286 -0.4419 -0.8966
vn 0.1002 -0.9692 -0.2248
vn -0.0105 -0.4569 -0.8895
vn 0.7594 -0.6462 0.0759
vn 0.4151 -0.4959 -0.7627
vn 0.6832 -0.7223 0.1071
vn 0.7966 -0.5937 -0.1137
vn 0.8958 -0.2653 0.3566
vn 0.8921 0.3705 0.2586
vn 0.9712 -0.0891 0.2210
vn 0.6724 0.7372 0.0665
vn 0.8568 0.4912 0.1570
vn 0.6305 0.7645 0.1343
vn 0.8364 0.3626 0.4111
vn 0.8381 0.5431 -0.0502
vn 0.8497 0.5230 -0.0675
vn 0.3669 0.9291 0.0466
vn 0.0864 -0.1861 0.9787
vn -0.5434 -0.4067 0.7343
vn 0.0401 -0.1910 0.9808
vn -0.8777 -0.4790 -0.0166
vn -0.8740 -0.4859 -0.0028
vn -0.8764 -0.4650 -0.1253
vn -0.9288 -0.3689 -0.0361
vn -0.5047 -0.6513 0.5666
vn -0.8695 -0.4441 0.2163
vn 0.6558 0.2284 0.7195
vn 0.6953 0.1471 0.7035
vn 0.6648 0.1366 0.7345
vn 0.9221 0.3862 0.0236
vn -0.7813 -0.3496 -0.5170
vn -0.8853 -0.3501 -0.3061
vn 0.0617 -0.1131 -0.9917
vn -0.5361 -0.0902 -0.8393
vn -0.4100 -0.3243 -0.8525
vn 0.8210 0.4427 -0.3604
vn 0.7294 0.3932 -0.5598
vn 0.9105 0.4133 -0.0150
vn 0.7295 0.3061 -0.6117
vn 0.8230 0.3058 -0.4786
vn 0.3786 0.1517 -0.9130
vn 0.8375 0.2725 -0.4737
vn 0.4104 0.8457 -0.3411
vn 0.2695 0.9607 0.0660
vn -0.2840 0.6460 -0.7086
vn -0.2810 0.6374 -0.7175
vn -0.0666 0.5804 -0.8116
vn 0.6071 -0.0349 -0.7938
vn 0.6921 -0.1034 -0.7143
vn 0.2583 0.5013 -0.8258
vn 0.5872 0.4411 -0.6787
vn 0.5850 0.4348 -0.6846
vn 0.2061 0.4838 -0.8506
vn 0.0655 0.6311 -0.7729
vn 0.9839 -0.1185 -0.1341
vn 0.9818 -0.0782 -0.1733
vn 0.8624 0.4839 -0.1485
vn 0.4259 0.8967 -0.1201
vn 0.6673 0.7440 -0.0351
vn 0.6277 0.7770 0.0468
vn 0.8256 0.5339 -0.1824
vn 0.1221 -0.3988 0.9089
vn -0.4389 -0.5166 0.7352
vn 0.0811 -0.3927 0.9161
vn 0.6787 -0.1297 0.7229
vn -0.7156 -0.4579 -0.5275
vn -0.3231 -0.3865 -0.8638
vn -0.5652 -0.3377 -0.7527
vn -0.6232 -0.3881 -0.6790
vn -0.9650 -0.2337 -0.1193
vn -0.9730 -0.0026 0.2307
vn -0.9034 -0.2192 0.3685
vn -0.9629 -0.2450 -0.1134
vn -0.8950 -0.1206 -0.4295
vn -0.6427 -0.3004 0.7048
vn -0.6373 -0.3026 0.7088
vn 0.9214 0.3823 -0.0692
vn 0.9121 0.0491 0.4071
vn 0.9622 0.2389 -0.1306
vn 0.8833 0.4601 -0.0896
vn 0.6268 -0.1973 0.7538
vn -0.5278 -0.0537 -0.8477
vn -0.0272 0.0567 -0.9980
vn 0.1015 -0.1355 -0.9856
vn 0.1167 -0.1106 -0.9870
vn 0.1046 -0.0059 -0.9945
vn 0.1062 -0.0071 -0.9943
vn 0.8722 0.4511 -0.1891
vn 0.9187 0.0758 -0.3877
vn 0.8990 -0.2907 -0.3275
vn 0.7362 -0.1648 -0.6564
vn 0.9124 0.3937 -0.1115
vn 0.8707 -0.0886 -0.4837
vn 0.8744 0.2151 -0.4349
vn 0.2882 -0.1677 0.9428
vn -0.1559 0.2172 0.9636
vn -0.4760 0.1132 0.8721
vn 0.2745 -0.0538 0.9601
vn -0.8483 0.0921 -0.5215
vn -0.8757 0.0615 -0.4790
vn -0.6358 0.0556 -0.7698
vn -0.9496 0.2389 0.2031
vn -0.6442 0.7546 0.1248
vn -0.6804 0.7275 0.0887
vn -0.4928 0.8386 -0.2323
vn -0.8738 0.3265 0.3604
vn -0.7197 0.5855 0.3731
vn -0.4901 0.1774 0.8534
vn -0.8037 0.4495 0.3900
vn 0.9937 0.1000 -0.0507
vn 0.9970 -0.0691 -0.0358
vn 0.9741 0.1981 -0.1087
vn 0.9952 0.0792 -0.0580
vn 0.9258 0.0897 0.3673
vn 0.6524 0.3258 0.6842
vn 0.3524 0.0541 0.9343
vn -0.2253 0.3370 -0.9142
vn -0.4730 0.4959 -0.7282
vn -0.0974 0.3139 -0.9445
vn -0.1941 0.6546 -0.7306
vn 0.5973 -0.0970 -0.7961
vn 0.7425 -0.1244 -0.6581
vn 0.4145 0.3252 -0.8500
vn 0.4714 0.3225 -0.8209
vn 0.2066 0.1422 -0.9680
vn 0.0835 0.6744 -0.7336
vn -0.2147 0.5610 -0.7995
vn 0.9523 0.0219 -0.3043
vn 0.9793 -0.1723 0.1059
vn 0.9821 0.1693 -0.0830
vn 0.9886 0.0959 0.1161
vn -0.1730 0.5933 0.7862
vn -0.3106 0.3908 0.8665
vn 0.2154 0.5558 0.8029
vn 0.1204 0.3785 0.9177
vn -0.4439 0.7291 0.5209
vn -0.3690 0.7701 0.5203
vn -0.4306 0.8052 0.4077
vn -0.4108 0.8689 -0.2763
vn -0.4122 0.8749 -0.2543
vn -0.5022 0.8636 0.0447
vn -0.5464 0.8299 0.1124
vn -0.5303 0.7947 0.2953
vn 0.0077 0.1980 0.9802
vn -0.1274 0.9686 0.2135
vn 0.9847 0.1489 -0.0908
vn 0.5906 0.8038 -0.0715
vn 0.8965 0.4233 -0.1308
vn 0.7067 0.6962 -0.1260
vn 0.7182 0.6826 -0.1352
vn 0.3481 0.7245 0.5949
vn 0.4370 0.6867 0.5810
vn 0.0475 0.7365 -0.6748
vn -0.0616 0.3347 -0.9403
vn -0.5318 0.7378 0.4158
vn -0.1735 0.9819 -0.0763
vn 0.1011 0.7140 -0.6928
vn 0.3061 0.7696 -0.5604
vn 0.3361 0.8262 -0.4522
vn -0.5639 0.7477 0.3505
vn -0.6738 0.7162 0.1819
vn -0.6576 0.6791 0.3262
vn 0.0016 0.9992 0.0402
vn 0.0156 0.9954 -0.0943
usemtl Material_with_Texture.232
s off
f 1/1/1 2/2/1 3/3/1
f 3/3/2 4/4/2 1/1/2
f 5/5/3 6/6/3 1/1/3
f 6/6/4 2/2/4 1/1/4
f 7/7/5 1/8/5 4/9/5
f 5/10/6 1/11/6 8/12/6
f 1/8/7 7/7/7 8/13/7
f 2/2/8 9/14/8 10/15/8
f 11/16/9 3/3/9 2/2/9
f 11/16/10 2/2/10 12/17/10
f 10/15/11 12/17/11 2/2/11
f 6/6/12 9/14/12 2/2/12
f 13/18/13 4/4/13 3/3/13
f 11/16/14 14/19/14 3/3/14
f 14/19/15 13/18/15 3/3/15
f 15/20/16 4/9/16 13/21/16
f 16/22/17 7/7/17 4/9/17
f 4/9/18 15/20/18 16/22/18
f 17/23/19 5/10/19 8/12/19
f 17/23/20 6/24/20 5/10/20
f 6/24/21 17/23/21 18/25/21
f 9/14/22 6/6/22 18/26/22
f 19/27/23 7/7/23 16/22/23
f 20/28/24 7/7/24 19/27/24
f 8/13/25 7/7/25 20/28/25
f 21/29/26 8/12/26 20/30/26
f 8/12/27 21/29/27 17/23/27
f 22/31/28 23/32/28 9/33/28
f 10/34/29 9/33/29 23/32/29
f 9/33/30 18/35/30 22/31/30
f 23/32/31 24/36/31 10/34/31
f 12/17/32 10/15/32 24/37/32
f 11/16/33 25/38/33 14/19/33
f 26/39/34 25/40/34 11/41/34
f 24/37/35 26/42/35 11/16/35
f 11/16/36 12/17/36 24/37/36
f 13/21/37 27/43/37 15/20/37
f 27/44/38 13/18/38 14/19/38
f 25/40/39 27/45/39 14/46/39
f 28/47/40 15/48/40 27/49/40
f 29/50/41 16/22/41 15/20/41
f 30/51/42 15/48/42 28/47/42
f 15/20/43 30/52/43 29/50/43
f 31/53/44 32/54/44 16/55/44
f 16/22/45 29/50/45 33/56/45
f 16/57/46 33/58/46 31/59/46
f 16/55/47 32/54/47 34/60/47
f 35/61/48 19/27/48 16/22/48
f 35/62/49 16/57/49 36/63/49
f 16/57/50 34/64/50 36/63/50
f 18/25/51 17/23/51 21/29/51
f 22/65/52 18/25/52 21/29/52
f 19/27/53 37/66/53 38/67/53
f 20/28/54 19/27/54 38/67/54
f 35/61/55 39/68/55 19/27/55
f 39/68/56 37/66/56 19/27/56
f 40/69/57 20/30/57 41/70/57
f 41/70/58 20/30/58 38/71/58
f 20/30/59 40/69/59 21/29/59
f 21/29/60 42/72/60 22/65/60
f 21/29/61 40/69/61 42/72/61
f 23/32/62 22/31/62 43/73/62
f 42/74/63 43/73/63 22/31/63
f 44/75/64 23/32/64 43/73/64
f 44/75/65 24/36/65 23/32/65
f 24/36/66 44/75/66 26/76/66
f 45/77/67 25/40/67 26/39/67
f 25/40/68 45/77/68 27/45/68
f 46/78/69 26/76/69 44/75/69
f 45/77/70 26/39/70 46/79/70
f 45/80/71 28/47/71 27/49/71
f 28/47/72 47/81/72 48/82/72
f 48/83/73 30/52/73 28/84/73
f 49/85/74 47/81/74 28/47/74
f 50/86/75 49/85/75 28/47/75
f 45/80/76 50/86/76 28/47/76
f 30/52/77 48/83/77 29/50/77
f 29/50/78 48/83/78 51/87/78
f 29/50/79 51/87/79 33/56/79
f 52/88/80 31/59/80 53/89/80
f 31/59/81 33/58/81 53/89/81
f 31/59/82 54/90/82 32/91/82
f 55/92/83 54/90/83 31/59/83
f 31/59/84 52/88/84 55/92/84
f 54/90/85 56/93/85 32/91/85
f 56/93/86 57/94/86 32/91/86
f 57/94/87 34/64/87 32/91/87
f 53/95/88 33/56/88 51/87/88
f 57/94/89 58/96/89 34/64/89
f 58/96/90 36/63/90 34/64/90
f 59/97/91 39/98/91 35/62/91
f 60/99/92 35/62/92 61/100/92
f 62/101/93 35/62/93 60/99/93
f 62/101/94 59/97/94 35/62/94
f 36/63/95 61/100/95 35/62/95
f 36/63/96 58/96/96 61/100/96
f 37/102/97 59/97/97 41/103/97
f 37/104/98 41/70/98 38/71/98
f 39/98/99 59/97/99 37/102/99
f 40/69/100 41/70/100 42/72/100
f 63/105/101 41/70/101 59/106/101
f 41/70/102 64/107/102 42/72/102
f 63/105/103 64/107/103 41/70/103
f 64/108/104 43/73/104 42/74/104
f 43/73/105 65/109/105 44/75/105
f 64/108/106 65/109/106 43/73/106
f 66/110/107 44/75/107 67/111/107
f 67/111/108 44/75/108 65/109/108
f 66/110/109 46/78/109 44/75/109
f 50/112/110 45/113/110 46/78/110
f 68/114/111 54/115/111 46/78/111
f 54/115/112 50/112/112 46/78/112
f 66/110/113 68/114/113 46/78/113
f 69/116/114 47/81/114 70/117/114
f 47/81/115 69/116/115 48/82/115
f 49/85/116 70/117/116 47/81/116
f 71/118/117 51/87/117 48/83/117
f 72/119/118 71/118/118 48/83/118
f 73/120/119 74/121/119 48/83/119
f 74/121/120 72/119/120 48/83/120
f 69/122/121 75/123/121 48/83/121
f 75/123/122 73/120/122 48/83/122
f 76/124/123 49/85/123 50/86/123
f 76/124/124 77/125/124 49/85/124
f 70/117/125 49/85/125 77/125/125
f 54/115/126 76/126/126 50/112/126
f 51/87/127 71/118/127 78/127/127
f 51/87/128 78/127/128 53/95/128
f 52/88/129 79/128/129 55/92/129
f 53/89/130 78/129/130 52/88/130
f 79/128/131 52/88/131 78/129/131
f 80/130/132 54/115/132 55/131/132
f 56/132/133 54/115/133 68/114/133
f 76/126/134 54/115/134 80/130/134
f 81/133/135 82/134/135 55/131/135
f 82/134/136 83/135/136 55/131/136
f 81/136/137 55/92/137 79/128/137
f 55/131/138 83/135/138 80/130/138
f 68/114/139 66/110/139 56/132/139
f 84/137/140 56/138/140 66/139/140
f 56/93/141 84/140/141 57/94/141
f 84/140/142 58/96/142 57/94/142
f 58/96/143 84/140/143 61/100/143
f 62/101/144 85/141/144 59/97/144
f 63/142/145 59/143/145 85/144/145
f 60/99/146 86/145/146 87/146/146
f 87/147/147 85/144/147 60/148/147
f 60/148/148 85/144/148 62/149/148
f 61/100/149 86/145/149 60/99/149
f 84/140/150 86/145/150 61/100/150
f 65/109/151 63/142/151 85/144/151
f 64/108/152 63/142/152 65/109/152
f 85/144/153 67/111/153 65/109/153
f 86/150/154 84/151/154 66/110/154
f 86/150/155 66/110/155 67/111/155
f 87/147/156 86/150/156 67/111/156
f 85/144/157 87/147/157 67/111/157
f 69/116/158 70/117/158 88/152/158
f 75/153/159 69/116/159 89/154/159
f 88/152/160 89/154/160 69/116/160
f 77/125/161 88/152/161 70/117/161
f 71/118/162 72/119/162 78/127/162
f 79/128/163 72/155/163 90/156/163
f 79/157/164 78/127/164 72/119/164
f 74/121/165 90/158/165 72/119/165
f 74/121/166 73/120/166 91/159/166
f 73/120/167 92/160/167 91/159/167
f 92/160/168 73/120/168 75/123/168
f 74/121/169 91/159/169 93/161/169
f 74/121/170 93/161/170 90/158/170
f 75/153/171 94/162/171 92/163/171
f 89/154/172 94/162/172 75/153/172
f 77/164/173 76/126/173 80/130/173
f 95/165/174 96/166/174 77/164/174
f 97/167/175 95/165/175 77/164/175
f 97/167/176 77/164/176 80/130/176
f 88/152/177 77/125/177 96/168/177
f 90/156/178 98/169/178 79/128/178
f 99/170/179 79/128/179 98/169/179
f 100/171/180 81/136/180 79/128/180
f 101/172/181 100/171/181 79/128/181
f 102/173/182 101/172/182 79/128/182
f 99/170/183 102/173/183 79/128/183
f 97/167/184 80/130/184 83/135/184
f 100/174/185 82/134/185 81/133/185
f 103/175/186 104/176/186 82/134/186
f 82/134/187 100/174/187 103/175/187
f 97/167/188 83/135/188 82/134/188
f 105/177/189 82/134/189 104/176/189
f 97/167/190 82/134/190 105/177/190
f 88/152/191 96/168/191 89/154/191
f 106/178/192 107/179/192 89/154/192
f 94/162/193 89/154/193 107/179/193
f 89/154/194 96/168/194 106/178/194
f 108/180/195 90/158/195 109/181/195
f 93/161/196 109/181/196 90/158/196
f 98/169/197 90/156/197 108/182/197
f 92/160/198 110/183/198 91/159/198
f 93/184/199 91/185/199 111/186/199
f 91/185/200 112/187/200 111/186/200
f 110/188/201 112/187/201 91/185/201
f 110/188/202 92/189/202 94/190/202
f 109/191/203 93/184/203 111/186/203
f 107/179/204 113/192/204 94/162/204
f 113/193/205 110/188/205 94/190/205
f 95/165/206 114/194/206 115/195/206
f 105/177/207 114/194/207 95/165/207
f 105/177/208 95/165/208 97/167/208
f 95/165/209 115/195/209 116/196/209
f 95/165/210 116/196/210 96/166/210
f 116/196/211 117/197/211 96/166/211
f 106/178/212 96/168/212 117/198/212
f 98/169/213 108/182/213 118/199/213
f 119/200/214 99/170/214 98/169/214
f 118/199/215 119/200/215 98/169/215
f 99/170/216 119/200/216 102/173/216
f 101/172/217 120/201/217 100/171/217
f 103/175/218 100/174/218 120/202/218
f 121/203/219 122/204/219 101/172/219
f 120/201/220 101/172/220 122/204/220
f 121/203/221 101/172/221 102/173/221
f 102/173/222 123/205/222 121/203/222
f 119/200/223 123/205/223 102/173/223
f 120/202/224 104/176/224 103/175/224
f 104/176/225 114/194/225 105/177/225
f 120/202/226 115/195/226 104/176/226
f 115/195/227 114/194/227 104/176/227
f 107/206/228 106/207/228 124/208/228
f 106/178/229 125/209/229 124/210/229
f 106/178/230 117/198/230 125/209/230
f 124/210/231 113/192/231 107/179/231
f 108/211/232 109/191/232 126/212/232
f 118/213/233 108/211/233 126/212/233
f 111/186/234 126/212/234 109/191/234
f 113/193/235 127/214/235 110/188/235
f 112/187/236 110/188/236 127/214/236
f 127/214/237 128/215/237 111/186/237
f 127/214/238 111/186/238 112/187/238
f 128/215/239 126/212/239 111/186/239
f 125/209/240 113/192/240 124/210/240
f 113/193/241 125/216/241 127/214/241
f 120/202/242 116/196/242 115/195/242
f 122/217/243 129/218/243 116/196/243
f 120/202/244 122/217/244 116/196/244
f 116/196/245 129/218/245 130/219/245
f 127/220/246 116/196/246 130/219/246
f 117/221/247 116/222/247 127/223/247
f 127/224/248 125/225/248 117/226/248
f 131/227/249 123/205/249 118/199/249
f 119/200/250 118/199/250 123/205/250
f 118/213/251 126/212/251 132/228/251
f 132/228/252 131/229/252 118/213/252
f 121/203/253 123/205/253 131/227/253
f 122/204/254 121/203/254 131/227/254
f 122/204/255 131/227/255 129/230/255
f 132/228/256 126/212/256 128/215/256
f 127/214/257 130/231/257 128/215/257
f 128/215/258 130/231/258 132/228/258
f 129/232/259 131/229/259 132/228/259
f 132/228/260 130/231/260 129/232/260
