# Blender v3.5.0 OBJ File: ''
# www.blender.org
mtllib second_cuneiform_lv.mtl
o second_cuneiform_lv
v 0.099289 0.030901 0.005076
v 0.094254 0.032434 0.008425
v 0.104206 0.031725 0.005107
v 0.104931 0.032459 0.005840
v 0.103284 0.030233 0.004159
v 0.104764 0.031082 0.004819
v 0.090986 0.033628 0.010423
v 0.090819 0.032656 0.009148
v 0.093655 0.034344 0.016305
v 0.103168 0.034745 0.011724
v 0.105496 0.034111 0.010511
v 0.091721 0.034225 0.013110
v 0.095424 0.031254 0.007127
v 0.093935 0.031780 0.008157
v 0.098303 0.028897 0.005653
v 0.100951 0.028829 0.004731
v 0.099267 0.028799 0.005102
v 0.105473 0.031822 0.005576
v 0.105538 0.033074 0.007935
v 0.104249 0.029180 0.004805
v 0.102476 0.028904 0.004566
v 0.103311 0.028998 0.004649
v 0.105004 0.029876 0.005319
v 0.090649 0.032193 0.008939
v 0.090178 0.032011 0.009480
v 0.090791 0.033497 0.013387
v 0.090286 0.032736 0.011641
v 0.106886 0.033265 0.013747
v 0.107376 0.032185 0.015960
v 0.106372 0.032409 0.016955
v 0.102683 0.031983 0.018942
v 0.094759 0.032687 0.018511
v 0.093447 0.031404 0.019062
v 0.091703 0.033324 0.014994
v 0.092601 0.032954 0.016527
v 0.093057 0.032216 0.017810
v 0.106045 0.033337 0.010371
v 0.106708 0.032964 0.012159
v 0.090670 0.031010 0.009208
v 0.092298 0.030714 0.008850
v 0.095646 0.029845 0.007327
v 0.097166 0.029235 0.006326
v 0.097518 0.027667 0.006659
v 0.096230 0.019392 0.009107
v 0.107262 0.031847 0.014001
v 0.104425 0.027898 0.005385
v 0.097917 0.019096 0.008654
v 0.099616 0.018934 0.008341
v 0.101798 0.019667 0.007798
v 0.102523 0.019675 0.007883
v 0.103913 0.020452 0.008512
v 0.106418 0.025845 0.015460
v 0.104965 0.022249 0.012238
v 0.090090 0.030881 0.010578
v 0.090244 0.030764 0.009823
v 0.107398 0.032120 0.014826
v 0.107138 0.032616 0.013875
v 0.107456 0.032015 0.016468
v 0.107933 0.030348 0.017174
v 0.107672 0.031439 0.015832
v 0.107751 0.031231 0.016409
v 0.094543 0.030964 0.021067
v 0.094781 0.030366 0.021491
v 0.103982 0.029801 0.018620
v 0.102072 0.029837 0.019350
v 0.099815 0.029675 0.019999
v 0.093629 0.030580 0.020123
v 0.093482 0.029056 0.019856
v 0.093311 0.021424 0.016663
v 0.092544 0.020440 0.010428
v 0.098339 0.018332 0.008926
v 0.095133 0.018829 0.009813
v 0.092921 0.019575 0.010460
v 0.093956 0.019200 0.010144
v 0.107837 0.030432 0.016186
v 0.100879 0.019038 0.008158
v 0.101449 0.018767 0.008520
v 0.102281 0.019252 0.008195
v 0.102965 0.019621 0.008460
v 0.103531 0.019954 0.008718
v 0.103977 0.020567 0.009268
v 0.106824 0.029438 0.017416
v 0.100538 0.020575 0.015508
v 0.104475 0.021624 0.014004
v 0.107549 0.029177 0.017064
v 0.103667 0.020390 0.009733
v 0.103692 0.020812 0.012259
v 0.104099 0.021201 0.013116
v 0.103900 0.020905 0.011154
v 0.103786 0.020654 0.010456
v 0.103796 0.020856 0.011700
v 0.092144 0.022444 0.013235
v 0.092841 0.020962 0.015942
v 0.105838 0.029627 0.017871
v 0.094241 0.030178 0.021268
v 0.094813 0.028996 0.021106
v 0.097647 0.029459 0.020402
v 0.096008 0.029201 0.020794
v 0.093832 0.029976 0.020959
v 0.093707 0.028448 0.020730
v 0.093397 0.021790 0.017598
v 0.093609 0.026764 0.020459
v 0.093585 0.019623 0.016185
v 0.093200 0.020273 0.016115
v 0.092623 0.020109 0.010928
v 0.094090 0.018918 0.010629
v 0.099587 0.017884 0.011669
v 0.093098 0.019335 0.010932
v 0.103423 0.019986 0.009271
v 0.100287 0.019793 0.014843
v 0.101167 0.020089 0.014608
v 0.096880 0.019287 0.015151
v 0.098591 0.019526 0.015036
v 0.102066 0.020364 0.014340
v 0.095700 0.019166 0.015284
v 0.094794 0.019770 0.016160
v 0.102635 0.020527 0.014106
v 0.103540 0.020892 0.013601
v 0.092776 0.019903 0.014536
v 0.092782 0.020373 0.015227
v 0.092887 0.019814 0.011398
v 0.092550 0.020641 0.013151
v 0.092676 0.020269 0.013871
v 0.094145 0.019640 0.016187
v 0.095601 0.018616 0.014134
v 0.093366 0.019203 0.014826
v 0.093661 0.018882 0.012330
v 0.093038 0.019744 0.011915
v 0.094210 0.018825 0.013547
v 0.093097 0.019725 0.012712
vt 0.111061 0.649464
vt 0.175376 0.507499
vt 0.145103 0.768820
vt 0.172475 0.782074
vt 0.104460 0.752552
vt 0.135201 0.784548
vt 0.215129 0.416090
vt 0.176127 0.419521
vt 0.367854 0.450103
vt 0.317871 0.706259
vt 0.296395 0.770085
vt 0.285055 0.419540
vt 0.140688 0.543938
vt 0.161309 0.501683
vt 0.709554 0.103356
vt 0.694517 0.099582
vt 0.706535 0.015799
vt 0.689026 0.143953
vt 0.696300 0.251722
vt 0.642980 0.229837
vt 0.690187 0.355277
vt 0.649714 0.299677
vt 0.644755 0.257031
vt 0.932998 0.676551
vt 0.924016 0.692587
vt 0.867846 0.690834
vt 0.163088 0.797280
vt 0.228636 0.785459
vt 0.709554 0.383265
vt 0.662429 0.376566
vt 0.654490 0.336923
vt 0.657502 0.355910
vt 0.974134 0.624784
vt 0.958599 0.667283
vt 0.954467 0.634340
vt 0.166023 0.416869
vt 0.173958 0.402697
vt 0.696066 0.014595
vt 0.962563 0.072052
vt 0.932563 0.070705
vt 0.948757 0.013567
vt 0.979963 0.038033
vt 0.988455 0.000000
vt 0.367854 0.788000
vt 0.069090 0.649949
vt 0.104460 0.531406
vt 0.104460 0.654453
vt 0.709554 0.336590
vt 0.713234 0.172388
vt 0.788839 0.337154
vt 0.918687 0.229039
vt 0.904279 0.156516
vt 0.069090 0.531406
vt 0.069090 0.690798
vt 0.045781 0.633179
vt 0.965823 0.236513
vt 0.953418 0.116641
vt 0.947696 0.161389
vt 0.955573 0.199310
vt 0.799417 0.699151
vt 0.806401 0.679042
vt 0.764344 0.655561
vt 0.723879 0.651684
vt 0.665787 0.016536
vt 0.662633 0.058690
vt 0.653855 0.151821
vt 0.646204 0.196960
vt 0.606636 0.207411
vt 0.389939 0.182765
vt 0.726642 0.614629
vt 0.968853 0.589838
vt 0.628333 0.380226
vt 0.387357 0.227009
vt 0.387344 0.270143
vt 0.411058 0.323864
vt 0.411807 0.340466
vt 0.949042 0.395840
vt 0.737339 0.467127
vt 0.844248 0.409523
vt 0.688174 0.000000
vt 0.659628 0.408795
vt 0.637167 0.437616
vt 0.604528 0.395660
vt 0.656009 0.002659
vt 0.654892 0.440032
vt 0.513577 0.395678
vt 0.557068 0.383265
vt 0.704647 0.615168
vt 0.677312 0.609567
vt 0.724598 0.634262
vt 0.073960 0.658862
vt 0.230015 0.402697
vt 0.367854 0.362731
vt 0.333347 0.402697
vt 0.362725 0.391921
vt 0.684655 0.591269
vt 0.672155 0.582269
vt 0.666178 0.601903
vt 0.959005 0.293715
vt 0.966092 0.310526
vt 0.262415 0.353709
vt 0.211342 0.356471
vt 0.021551 0.369298
vt 0.152548 0.352920
vt 0.979516 0.267548
vt 0.387307 0.482639
vt 0.411382 0.459711
vt 0.399396 0.518260
vt 0.441299 0.435508
vt 0.501534 0.696711
vt 0.472575 0.412656
vt 0.403674 0.082545
vt 0.367854 0.237265
vt 0.371023 0.153180
vt 0.382881 0.093757
vt 0.376767 0.121731
vt 0.682832 0.564339
vt 0.974134 0.388175
vt 0.392563 0.301205
vt 0.384847 0.312916
vt 0.399523 0.333665
vt 0.785131 0.976940
vt 0.802067 0.970188
vt 0.779884 1.000000
vt 0.795020 0.961981
vt 0.776101 0.989078
vt 0.930047 0.393424
vt 0.948951 0.384569
vt 0.343003 0.238816
vt 0.339180 0.341383
vt 0.200320 0.102928
vt 0.306103 0.122693
vt 0.659628 0.555568
vt 0.671825 0.530375
vt 0.359033 0.333964
vt 0.808346 0.385794
vt 0.098244 0.518478
vt 0.104460 0.531406
vt 0.032993 0.516107
vt 0.045583 0.486649
vt 0.023113 0.484692
vt 0.066456 0.505636
vt 0.082069 0.511956
vt 0.056150 0.496223
vt 0.833701 0.383265
vt 0.659628 0.705054
vt 0.587803 0.659040
vt 0.523093 0.703869
vt 0.312288 0.347469
vt 0.010342 0.361204
vt 0.024664 0.334414
vt 0.978452 0.301437
vt 0.097749 0.345888
vt 0.055603 0.339319
vt 0.988455 0.292285
vt 0.367854 0.499960
vt 0.378912 0.535875
vt 0.477304 0.689991
vt 0.391321 0.575659
vt 0.517184 0.741164
vt 0.519030 0.723004
vt 0.659422 0.728314
vt 0.648141 0.714429
vt 0.803192 0.778592
vt 0.790938 0.748051
vt 0.804252 0.748259
vt 0.801422 0.861461
vt 0.804727 0.928295
vt 0.791454 0.939425
vt 0.726102 0.872867
vt 0.647764 0.736012
vt 0.791555 0.722396
vt 0.804727 0.721453
vt 0.761691 0.996558
vt 0.763685 0.982794
vt 0.041550 0.531406
vt 0.045781 0.541617
vt 0.033352 0.549607
vt 0.199132 0.077692
vt 0.222023 0.084537
vt 0.115456 0.059546
vt 0.157165 0.068721
vt 0.014806 0.131211
vt 0.000000 0.273755
vt 0.245611 0.090624
vt 0.086296 0.054759
vt 0.058242 0.074780
vt 0.261033 0.093569
vt 0.019406 0.466010
vt 0.000483 0.481720
vt 0.019676 0.439617
vt 0.104460 0.402697
vt 0.045781 0.664873
vt 0.002541 0.544537
vt 0.004508 0.531406
vt 0.004508 0.575669
vt 0.000483 0.557335
vt 0.560762 0.726689
vt 0.542557 0.716545
vt 0.636207 0.723971
vt 0.593186 0.705016
vt 0.576245 0.716050
vt 0.002907 0.352291
vt 0.001006 0.314966
vt 0.042532 0.070238
vt 0.029215 0.068218
vt 0.696030 0.760792
vt 0.669418 0.755848
vt 0.663396 0.699151
vt 0.552586 0.747661
vt 0.659628 0.712646
vt 0.696190 0.702690
vt 0.753016 0.726297
vt 0.206147 0.000000
vt 0.665006 0.785259
vt 0.623075 0.727472
vt 0.612201 0.752787
vt 0.025921 0.547560
vt 0.033352 0.531406
vt 0.033352 0.563398
vt 0.579843 0.759556
vt 0.603545 0.729686
vt 0.720036 0.731340
vn -0.1323 0.8109 -0.5701
vn -0.1520 0.7695 -0.6203
vn -0.0910 0.5735 -0.8141
vn 0.1096 0.4840 -0.8682
vn 0.2357 0.5602 -0.7941
vn -0.0744 0.7977 -0.5984
vn -0.1578 0.9569 -0.2439
vn -0.0806 0.9427 -0.3237
vn -0.0330 0.8583 -0.5120
vn 0.1862 0.9471 -0.2614
vn 0.2821 0.9371 -0.2057
vn -0.3661 0.5002 -0.7847
vn -0.3714 0.4955 -0.7852
vn -0.1577 0.4393 -0.8844
vn -0.4702 -0.0227 -0.8822
vn -0.2268 -0.0198 -0.9737
vn -0.2150 -0.0098 -0.9766
vn -0.4967 -0.0055 -0.8679
vn 0.6203 0.6856 -0.3810
vn 0.2656 0.5532 -0.7896
vn 0.3143 0.8824 -0.3501
vn 0.4602 -0.1181 -0.8799
vn -0.0928 -0.2396 -0.9664
vn 0.1325 -0.3630 -0.9223
vn 0.2201 -0.3556 -0.9084
vn 0.6582 -0.1728 -0.7328
vn 0.7747 -0.1044 -0.6236
vn -0.7340 0.4844 -0.4761
vn -0.7488 0.5707 -0.3370
vn -0.1522 0.4525 -0.8787
vn -0.6175 0.7866 -0.0059
vn -0.8037 0.5944 -0.0266
vn -0.8564 0.5010 -0.1253
vn 0.3147 0.9426 0.1113
vn 0.3768 0.9095 0.1754
vn 0.0873 0.9284 0.3611
vn 0.2136 0.8294 0.5161
vn 0.0631 0.9307 0.3604
vn 0.1359 0.9019 0.4101
vn -0.3570 0.6523 0.6686
vn -0.6422 0.5690 0.5136
vn -0.6044 0.7209 0.3390
vn -0.6098 0.5647 0.5562
vn -0.6244 0.5603 0.5442
vn 0.7750 0.5905 -0.2251
vn 0.8017 0.5644 -0.1968
vn 0.7891 0.5904 -0.1694
vn -0.5022 0.7820 0.3692
vn -0.2518 -0.2188 -0.9427
vn -0.2487 -0.2298 -0.9409
vn -0.6047 -0.2045 -0.7697
vn -0.4070 0.0316 -0.9129
vn -0.5331 -0.1282 -0.8363
vn -0.5942 -0.2041 -0.7780
vn -0.5498 -0.2898 -0.7834
vn -0.4924 -0.3408 -0.8009
vn -0.0805 -0.3859 -0.9190
vn -0.1975 -0.3293 -0.9233
vn -0.6078 -0.1368 -0.7822
vn 0.8955 0.3825 -0.2277
vn 0.8760 0.4200 -0.2372
vn 0.9684 0.1405 -0.2061
vn 0.9577 -0.2040 -0.2028
vn 0.6804 -0.2225 -0.6982
vn 0.2226 -0.3763 -0.8994
vn -0.2917 -0.2493 -0.9234
vn 0.1384 -0.4501 -0.8822
vn -0.2003 -0.2962 -0.9339
vn -0.1264 -0.3193 -0.9392
vn 0.1133 -0.3355 -0.9352
vn 0.2163 -0.3292 -0.9191
vn 0.8354 -0.2607 -0.4839
vn 0.9604 -0.1855 -0.2077
vn 0.9663 -0.1756 -0.1881
vn 0.9572 -0.1970 -0.2118
vn -0.7151 -0.1670 -0.6788
vn -0.9953 0.0949 0.0179
vn -0.7629 -0.2087 -0.6119
vn -0.9777 -0.1023 -0.1836
vn -0.8514 -0.2606 0.4551
vn -0.9485 -0.0760 0.3075
vn 0.9148 0.4039 -0.0054
vn 0.9345 0.3483 -0.0738
vn 0.9298 0.3282 -0.1664
vn 0.4213 0.8779 0.2275
vn 0.4009 0.3916 0.8282
vn 0.4973 0.4551 0.7386
vn 0.9293 0.3693 -0.0031
vn 0.9348 0.3539 -0.0288
vn 0.9298 0.3680 0.0054
vn 0.1287 0.6072 0.7841
vn 0.0429 0.8267 0.5609
vn 0.3356 0.0611 0.9400
vn 0.3572 0.0753 0.9310
vn 0.2926 0.0730 0.9534
vn 0.2678 0.1058 0.9577
vn -0.5233 0.7264 0.4455
vn -0.7188 0.4839 0.4991
vn -0.9757 0.0570 0.2117
vn -0.9624 -0.0510 0.2667
vn -0.9988 0.0018 0.0493
vn -0.8619 -0.2392 0.4471
vn -0.9274 0.0670 0.3681
vn -0.9192 -0.0629 0.3887
vn 0.9684 0.1204 -0.2183
vn -0.7639 -0.2060 -0.6115
vn -0.2387 -0.1530 -0.9590
vn -0.4409 -0.1466 -0.8855
vn -0.3761 -0.1759 -0.9097
vn -0.5028 -0.1723 -0.8471
vn -0.6051 -0.2930 -0.7403
vn -0.3023 -0.4588 -0.8356
vn -0.3048 -0.4644 -0.8315
vn -0.3803 -0.1992 -0.9032
vn -0.3585 -0.3741 -0.8553
vn -0.3755 -0.2963 -0.8782
vn 0.9717 0.1237 -0.2011
vn 0.9760 0.0902 -0.1984
vn 0.9752 0.1040 -0.1952
vn 0.8996 -0.2184 -0.3782
vn 0.5433 -0.3566 -0.7601
vn -0.2030 -0.4260 -0.8816
vn -0.0611 -0.6259 -0.7775
vn -0.1023 -0.3773 -0.9204
vn 0.0960 -0.6452 -0.7579
vn 0.1584 -0.6545 -0.7393
vn 0.0467 -0.6101 -0.7910
vn 0.5839 -0.6344 -0.5066
vn 0.5533 -0.6758 -0.4871
vn 0.5968 -0.6515 -0.4683
vn 0.7980 -0.6022 0.0240
vn 0.8579 -0.5137 0.0055
vn 0.4268 -0.4691 0.7732
vn 0.4213 -0.4629 0.7799
vn 0.9506 -0.3091 -0.0282
vn 0.2344 -0.4851 0.8425
vn 0.9539 -0.2767 -0.1162
vn 0.8923 -0.4422 0.0911
vn 0.6767 -0.7141 0.1793
vn 0.7470 -0.6626 -0.0540
vn 0.7264 -0.6759 0.1244
vn 0.7233 -0.6784 0.1287
vn 0.7463 -0.6599 0.0869
vn 0.7473 -0.6593 0.0832
vn 0.7640 -0.6450 -0.0163
vn -0.9731 -0.2291 0.0249
vn -0.8504 0.0475 0.5239
vn -0.9708 -0.1905 0.1457
vn -0.9612 -0.2236 -0.1614
vn 0.9268 0.3361 0.1675
vn 0.3580 -0.1492 0.9217
vn 0.3745 -0.2166 0.9016
vn 0.3666 -0.2055 0.9074
vn 0.9879 0.1300 -0.0849
vn 0.9875 0.1309 -0.0880
vn -0.2877 -0.2653 0.9202
vn -0.4633 0.3824 0.7994
vn 0.2061 -0.4136 0.8868
vn 0.2643 -0.2747 0.9245
vn 0.2848 -0.2532 0.9245
vn -0.7231 0.4645 0.5112
vn -0.6700 0.4149 0.6156
vn 0.3091 -0.4056 0.8602
vn 0.3193 -0.4077 0.8555
vn 0.2793 -0.4070 0.8697
vn 0.2061 -0.4198 0.8839
vn -0.9641 0.0395 0.2626
vn -0.9597 0.0439 0.2776
vn -0.9929 -0.0245 0.1161
vn -0.9949 -0.0191 0.0990
vn -0.9658 0.0146 0.2588
vn -0.9679 -0.1907 0.1637
vn -0.6192 -0.2881 0.7305
vn -0.7421 -0.2285 0.6301
vn -0.9083 -0.4004 -0.1215
vn -0.9769 -0.2133 0.0131
vn -0.3744 -0.8428 -0.3866
vn -0.1879 -0.9730 -0.1341
vn 0.0272 -0.7792 -0.6262
vn 0.1088 -0.9720 -0.2082
vn -0.1689 -0.9821 -0.0835
vn -0.8512 -0.5221 0.0537
vn -0.4420 -0.8556 -0.2693
vn -0.4142 -0.8319 -0.3693
vn 0.4888 -0.8711 -0.0487
vn 0.4917 -0.8695 0.0469
vn 0.4909 -0.8700 0.0459
vn 0.7126 -0.6785 0.1784
vn 0.5473 -0.8226 0.1545
vn 0.7073 -0.6733 0.2152
vn 0.3933 -0.6656 0.6343
vn 0.1374 -0.6072 0.7826
vn 0.2720 -0.3949 0.8775
vn 0.1648 -0.4970 0.8519
vn 0.4184 -0.6239 0.6601
vn 0.3928 -0.6660 0.6342
vn 0.1873 -0.6705 0.7178
vn 0.1770 -0.7152 0.6762
vn 0.1505 -0.6371 0.7560
vn 0.3166 -0.4088 0.8559
vn 0.2694 -0.3994 0.8763
vn 0.2943 -0.3822 0.8760
vn 0.1660 -0.4931 0.8540
vn 0.4372 -0.6784 0.5905
vn 0.5711 -0.8083 0.1432
vn 0.4994 -0.8088 0.3104
vn 0.5786 -0.7922 0.1940
vn 0.6017 -0.7311 0.3216
vn 0.5533 -0.8254 0.1119
vn 0.7755 -0.6242 0.0951
vn 0.4144 -0.9045 0.1008
vn 0.5687 -0.8156 0.1062
vn 0.7822 -0.6159 0.0937
vn -0.9758 -0.1768 0.1287
vn -0.8799 -0.4128 0.2351
vn -0.9728 -0.2151 -0.0856
vn -0.9752 -0.1244 0.1830
vn -0.9735 -0.2218 0.0558
vn -0.9724 -0.2325 0.0183
vn -0.8601 -0.3566 0.3647
vn -0.4574 -0.3343 0.8240
vn -0.2649 -0.1217 0.9566
vn -0.2563 -0.1390 0.9565
vn 0.1374 -0.5096 0.8494
vn 0.0136 -0.5453 0.8381
vn -0.0107 -0.9017 0.4322
vn -0.8390 -0.4669 0.2795
vn 0.0245 -0.8671 0.4975
vn -0.1491 -0.9377 0.3138
vn -0.7997 -0.5086 0.3192
vn -0.8431 -0.5166 0.1493
vn -0.1839 -0.9829 -0.0054
vn -0.0946 -0.9945 -0.0449
vn -0.4165 -0.9006 -0.1241
vn 0.3773 -0.8267 0.4174
vn 0.1893 -0.8593 0.4751
vn 0.3873 -0.8253 0.4109
vn 0.1530 -0.8696 0.4694
vn 0.4900 -0.8249 0.2818
vn 0.3998 -0.8265 0.3964
vn 0.1121 -0.8884 0.4451
vn -0.8355 -0.5235 0.1668
vn -0.8298 -0.5314 0.1704
vn 0.1391 -0.8980 0.4175
vn 0.1720 -0.7189 0.6735
vn -0.7821 -0.5121 0.3551
vn -0.6762 -0.6836 -0.2746
vn -0.7738 -0.6172 0.1424
vn -0.7311 -0.5959 0.3323
vn -0.6923 -0.6834 -0.2319
vn -0.8468 -0.5296 0.0501
vn -0.6907 -0.6763 -0.2559
vn -0.1591 -0.9869 0.0255
vn -0.2079 -0.9668 0.1485
vn -0.7254 -0.6204 0.2982
vn -0.8202 -0.5701 0.0471
usemtl Material_with_Texture.263
s off
f 1/1/1 2/2/1 3/3/1
f 3/3/2 2/2/2 4/4/2
f 3/3/3 5/5/3 1/1/3
f 3/3/4 6/6/4 5/5/4
f 3/3/5 4/4/5 6/6/5
f 7/7/6 2/2/6 8/8/6
f 2/2/7 9/9/7 10/10/7
f 11/11/8 4/4/8 2/2/8
f 10/10/9 11/11/9 2/2/9
f 12/12/10 2/2/10 7/7/10
f 9/9/11 2/2/11 12/12/11
f 2/2/12 13/13/12 14/14/12
f 2/2/13 1/1/13 13/13/13
f 2/15/14 14/16/14 8/17/14
f 13/18/15 1/19/15 15/20/15
f 1/19/16 5/21/16 16/22/16
f 17/23/17 1/19/17 16/22/17
f 15/20/18 1/19/18 17/23/18
f 18/24/19 4/25/19 19/26/19
f 4/4/20 18/27/20 6/6/20
f 19/28/21 4/4/21 11/11/21
f 5/21/22 6/29/22 20/30/22
f 16/22/23 5/21/23 21/31/23
f 21/31/24 5/21/24 22/32/24
f 22/32/25 5/21/25 20/30/25
f 20/33/26 6/34/26 23/35/26
f 6/34/27 18/24/27 23/35/27
f 24/36/28 25/37/28 8/8/28
f 25/37/29 7/7/29 8/8/29
f 14/16/30 24/38/30 8/17/30
f 26/39/31 12/40/31 7/41/31
f 7/41/32 27/42/32 26/39/32
f 7/41/33 25/43/33 27/42/33
f 11/11/34 10/10/34 28/44/34
f 29/45/35 10/46/35 30/47/35
f 30/48/36 10/49/36 31/50/36
f 32/51/37 10/49/37 9/52/37
f 31/50/38 10/49/38 32/51/38
f 10/53/39 29/54/39 28/55/39
f 33/56/40 32/51/40 9/52/40
f 9/52/41 34/57/41 35/58/41
f 9/52/42 12/40/42 34/57/42
f 9/52/43 36/59/43 33/56/43
f 9/52/44 35/58/44 36/59/44
f 11/60/45 37/61/45 19/26/45
f 38/62/46 11/60/46 28/63/46
f 38/62/47 37/61/47 11/60/47
f 12/40/48 26/39/48 34/57/48
f 24/38/49 14/16/49 39/64/49
f 39/64/50 14/16/50 40/65/50
f 14/16/51 13/18/51 41/66/51
f 40/65/52 14/16/52 41/66/52
f 42/67/53 13/18/53 15/20/53
f 41/66/54 13/18/54 42/67/54
f 42/67/55 15/20/55 43/68/55
f 43/68/56 15/20/56 17/23/56
f 21/31/57 44/69/57 16/22/57
f 17/23/58 16/22/58 44/69/58
f 43/68/59 17/23/59 44/69/59
f 19/26/60 37/61/60 18/24/60
f 18/24/61 37/61/61 38/62/61
f 38/62/62 45/70/62 18/24/62
f 23/35/63 18/24/63 45/70/63
f 20/33/64 23/35/64 46/71/64
f 22/32/65 20/30/65 46/72/65
f 21/31/66 47/73/66 44/69/66
f 21/31/67 22/32/67 46/72/67
f 21/31/68 48/74/68 47/73/68
f 49/75/69 48/74/69 21/31/69
f 50/76/70 49/75/70 21/31/70
f 46/72/71 50/76/71 21/31/71
f 51/77/72 46/71/72 23/35/72
f 23/35/73 45/70/73 52/78/73
f 53/79/74 51/77/74 23/35/74
f 23/35/75 52/78/75 53/79/75
f 24/38/76 39/64/76 25/80/76
f 25/81/77 54/82/77 27/83/77
f 25/80/78 39/64/78 55/84/78
f 55/85/79 54/82/79 25/81/79
f 34/86/80 26/87/80 54/82/80
f 27/83/81 54/82/81 26/87/81
f 56/88/82 28/63/82 29/89/82
f 56/88/83 57/90/83 28/63/83
f 28/63/84 57/90/84 38/62/84
f 29/45/85 30/47/85 58/91/85
f 31/92/86 59/93/86 30/94/86
f 59/93/87 58/95/87 30/94/87
f 29/89/88 60/96/88 56/88/88
f 61/97/89 29/89/89 58/98/89
f 61/97/90 60/96/90 29/89/90
f 62/99/91 63/100/91 31/50/91
f 31/50/92 32/51/92 62/99/92
f 59/93/93 31/92/93 64/101/93
f 64/101/94 31/92/94 65/102/94
f 31/92/95 63/103/95 66/104/95
f 65/102/96 31/92/96 66/104/96
f 33/56/97 62/99/97 32/51/97
f 33/56/98 67/105/98 62/99/98
f 67/106/99 33/107/99 68/108/99
f 33/107/100 36/109/100 69/110/100
f 68/108/101 33/107/101 69/110/101
f 35/111/102 34/86/102 54/82/102
f 36/109/103 35/111/103 54/82/103
f 54/82/104 69/110/104 36/109/104
f 38/62/105 57/90/105 45/70/105
f 39/64/106 70/112/106 55/84/106
f 39/64/107 40/65/107 70/112/107
f 70/112/108 40/65/108 41/66/108
f 70/112/109 41/66/109 44/69/109
f 44/69/110 41/66/110 43/68/110
f 43/68/111 41/66/111 42/67/111
f 44/69/112 71/113/112 72/114/112
f 44/69/113 47/73/113 71/113/113
f 73/115/114 70/112/114 44/69/114
f 44/69/115 72/114/115 74/116/115
f 44/69/116 74/116/116 73/115/116
f 45/70/117 57/90/117 56/88/117
f 60/96/118 75/117/118 45/70/118
f 56/88/119 60/96/119 45/70/119
f 45/70/120 75/117/120 52/78/120
f 51/77/121 50/118/121 46/71/121
f 71/113/122 47/73/122 48/74/122
f 48/74/123 76/119/123 71/113/123
f 76/119/124 48/74/124 49/75/124
f 77/120/125 49/75/125 50/76/125
f 77/120/126 76/119/126 49/75/126
f 78/121/127 77/120/127 50/76/127
f 79/122/128 50/123/128 51/124/128
f 79/122/129 78/125/129 50/123/129
f 80/126/130 79/122/130 51/124/130
f 81/127/131 80/128/131 51/77/131
f 81/127/132 51/77/132 53/79/132
f 52/129/133 82/130/133 83/131/133
f 83/131/134 84/132/134 52/129/134
f 52/78/135 59/133/135 85/134/135
f 85/135/136 82/130/136 52/129/136
f 75/117/137 59/133/137 52/78/137
f 52/78/138 84/136/138 53/79/138
f 86/137/139 81/138/139 53/139/139
f 87/140/140 53/139/140 88/141/140
f 53/139/141 89/142/141 90/143/141
f 53/139/142 90/143/142 86/137/142
f 53/139/143 87/140/143 91/144/143
f 89/142/144 53/139/144 91/144/144
f 88/145/145 53/79/145 84/136/145
f 70/146/146 92/147/146 54/82/146
f 54/82/147 93/148/147 69/110/147
f 54/82/148 92/147/148 93/148/148
f 55/85/149 70/146/149 54/82/149
f 59/133/150 61/97/150 58/98/150
f 94/149/151 59/93/151 64/101/151
f 82/130/152 59/93/152 94/149/152
f 85/135/153 59/93/153 82/130/153
f 59/133/154 75/117/154 61/97/154
f 75/117/155 60/96/155 61/97/155
f 63/103/156 95/150/156 96/151/156
f 62/99/157 95/152/157 63/100/157
f 66/104/158 63/103/158 97/153/158
f 97/153/159 63/103/159 98/154/159
f 98/154/160 63/103/160 96/151/160
f 67/105/161 99/155/161 62/99/161
f 62/99/162 99/155/162 95/152/162
f 94/149/163 64/101/163 83/131/163
f 83/131/164 64/101/164 65/102/164
f 65/102/165 66/104/165 83/131/165
f 83/131/166 66/104/166 97/153/166
f 99/156/167 67/106/167 100/157/167
f 100/157/168 67/106/168 68/108/168
f 101/158/169 102/159/169 68/108/169
f 101/158/170 68/108/170 69/110/170
f 100/157/171 68/108/171 102/159/171
f 101/158/172 69/110/172 103/160/172
f 104/161/173 103/160/173 69/110/173
f 93/148/174 104/161/174 69/110/174
f 70/146/175 73/162/175 105/163/175
f 92/147/176 70/146/176 105/163/176
f 72/164/177 106/165/177 74/166/177
f 71/167/178 106/165/178 72/164/178
f 76/168/179 77/169/179 71/167/179
f 107/170/180 71/167/180 77/169/180
f 71/167/181 107/170/181 106/165/181
f 73/162/182 108/171/182 105/163/182
f 106/165/183 108/172/183 73/173/183
f 74/166/184 106/165/184 73/173/184
f 77/169/185 78/125/185 79/122/185
f 79/122/186 107/170/186 77/169/186
f 80/126/187 107/170/187 79/122/187
f 81/174/188 109/175/188 80/126/188
f 107/170/189 80/126/189 109/175/189
f 81/176/190 86/177/190 109/178/190
f 83/131/191 110/179/191 111/180/191
f 83/131/192 112/181/192 113/182/192
f 97/153/193 98/154/193 83/131/193
f 101/183/194 83/131/194 102/184/194
f 114/185/195 84/132/195 83/131/195
f 111/180/196 114/185/196 83/131/196
f 113/182/197 110/179/197 83/131/197
f 115/186/198 83/131/198 116/187/198
f 115/186/199 112/181/199 83/131/199
f 83/131/200 82/130/200 94/149/200
f 83/131/201 96/151/201 102/184/201
f 83/131/202 98/154/202 96/151/202
f 101/183/203 116/187/203 83/131/203
f 84/132/204 114/185/204 117/188/204
f 118/189/205 88/141/205 84/190/205
f 117/191/206 118/189/206 84/190/206
f 90/143/207 107/192/207 86/137/207
f 107/193/208 109/178/208 86/177/208
f 87/140/209 88/141/209 118/189/209
f 91/194/210 87/195/210 90/196/210
f 87/140/211 118/189/211 90/143/211
f 118/189/212 107/192/212 90/143/212
f 90/196/213 89/197/213 91/194/213
f 119/198/214 120/199/214 92/147/214
f 92/147/215 105/163/215 121/200/215
f 92/147/216 121/200/216 122/201/216
f 92/147/217 120/199/217 93/148/217
f 92/147/218 122/201/218 123/202/218
f 92/147/219 123/202/219 119/198/219
f 120/199/220 104/161/220 93/148/220
f 95/150/221 99/203/221 96/151/221
f 96/151/222 99/203/222 100/204/222
f 102/184/223 96/151/223 100/204/223
f 124/205/224 116/187/224 101/183/224
f 103/206/225 124/205/225 101/183/225
f 125/207/226 115/208/226 103/209/226
f 126/210/227 103/160/227 104/161/227
f 103/209/228 115/208/228 124/211/228
f 103/209/229 126/212/229 125/207/229
f 120/199/230 126/210/230 104/161/230
f 105/163/231 108/171/231 121/200/231
f 107/170/232 125/207/232 106/165/232
f 127/213/233 106/165/233 125/207/233
f 127/213/234 108/172/234 106/165/234
f 107/214/235 114/185/235 111/180/235
f 107/214/236 110/179/236 113/182/236
f 111/180/237 110/179/237 107/214/237
f 113/182/238 112/181/238 107/214/238
f 117/191/239 107/192/239 118/189/239
f 117/188/240 114/185/240 107/214/240
f 107/170/241 112/215/241 125/207/241
f 128/216/242 108/171/242 127/217/242
f 128/216/243 121/200/243 108/171/243
f 115/208/244 125/207/244 112/215/244
f 115/186/245 116/187/245 124/205/245
f 120/199/246 119/198/246 126/210/246
f 119/218/247 123/219/247 126/220/247
f 122/201/248 121/200/248 128/216/248
f 129/221/249 122/201/249 130/222/249
f 123/202/250 122/201/250 129/221/250
f 130/222/251 122/201/251 128/216/251
f 126/210/252 123/202/252 129/221/252
f 127/213/253 125/207/253 129/223/253
f 125/207/254 126/212/254 129/223/254
f 127/217/255 129/221/255 130/222/255
f 130/222/256 128/216/256 127/217/256
