# Blender 4.3.0
# www.blender.org
mtllib second_cuneiform_lv.mtl
o second_cuneiform_lv
v 0.099289 0.030901 0.005076
v 0.094254 0.032434 0.008425
v 0.104206 0.031725 0.005107
v 0.104931 0.032459 0.005840
v 0.103284 0.030233 0.004159
v 0.104764 0.031082 0.004819
v 0.090986 0.033628 0.010423
v 0.090819 0.032656 0.009148
v 0.093655 0.034344 0.016305
v 0.103168 0.034745 0.011724
v 0.105496 0.034111 0.010511
v 0.091721 0.034225 0.013110
v 0.095424 0.031254 0.007127
v 0.093935 0.031780 0.008157
v 0.098303 0.028897 0.005653
v 0.100951 0.028829 0.004731
v 0.099267 0.028799 0.005102
v 0.105473 0.031822 0.005576
v 0.105538 0.033074 0.007935
v 0.104249 0.029180 0.004805
v 0.102476 0.028904 0.004566
v 0.103311 0.028998 0.004649
v 0.105004 0.029876 0.005319
v 0.090649 0.032193 0.008939
v 0.090178 0.032011 0.009480
v 0.090791 0.033497 0.013387
v 0.090286 0.032736 0.011641
v 0.106886 0.033265 0.013747
v 0.107376 0.032185 0.015960
v 0.106372 0.032409 0.016955
v 0.102683 0.031983 0.018942
v 0.094759 0.032687 0.018511
v 0.093447 0.031404 0.019062
v 0.091703 0.033324 0.014994
v 0.092601 0.032954 0.016527
v 0.093057 0.032216 0.017810
v 0.106045 0.033337 0.010371
v 0.106708 0.032964 0.012159
v 0.090670 0.031010 0.009208
v 0.092298 0.030714 0.008850
v 0.095646 0.029845 0.007327
v 0.097166 0.029235 0.006326
v 0.097518 0.027667 0.006659
v 0.096230 0.019392 0.009107
v 0.107262 0.031847 0.014001
v 0.104425 0.027898 0.005385
v 0.097917 0.019096 0.008654
v 0.099616 0.018934 0.008341
v 0.101798 0.019667 0.007798
v 0.102523 0.019675 0.007883
v 0.103913 0.020452 0.008512
v 0.106418 0.025845 0.015460
v 0.104965 0.022249 0.012238
v 0.090090 0.030881 0.010578
v 0.090244 0.030764 0.009823
v 0.107398 0.032120 0.014826
v 0.107138 0.032616 0.013875
v 0.107456 0.032015 0.016468
v 0.107933 0.030348 0.017174
v 0.107672 0.031439 0.015832
v 0.107751 0.031231 0.016409
v 0.094543 0.030964 0.021067
v 0.094781 0.030366 0.021491
v 0.103982 0.029801 0.018620
v 0.102072 0.029837 0.019350
v 0.099815 0.029675 0.019999
v 0.093629 0.030580 0.020123
v 0.093482 0.029056 0.019856
v 0.093311 0.021424 0.016663
v 0.092544 0.020440 0.010428
v 0.098339 0.018332 0.008926
v 0.095133 0.018829 0.009813
v 0.092921 0.019575 0.010460
v 0.093956 0.019200 0.010144
v 0.107837 0.030432 0.016186
v 0.100879 0.019038 0.008158
v 0.101449 0.018767 0.008520
v 0.102281 0.019252 0.008195
v 0.102965 0.019621 0.008460
v 0.103531 0.019954 0.008718
v 0.103977 0.020567 0.009268
v 0.106824 0.029438 0.017416
v 0.100538 0.020575 0.015508
v 0.104475 0.021624 0.014004
v 0.107549 0.029177 0.017064
v 0.103667 0.020390 0.009733
v 0.103692 0.020812 0.012259
v 0.104099 0.021201 0.013116
v 0.103900 0.020905 0.011154
v 0.103786 0.020654 0.010456
v 0.103796 0.020856 0.011700
v 0.092144 0.022444 0.013235
v 0.092841 0.020962 0.015942
v 0.105838 0.029627 0.017871
v 0.094241 0.030178 0.021268
v 0.094813 0.028996 0.021106
v 0.097647 0.029459 0.020402
v 0.096008 0.029201 0.020794
v 0.093832 0.029976 0.020959
v 0.093707 0.028448 0.020730
v 0.093397 0.021790 0.017598
v 0.093609 0.026764 0.020459
v 0.093585 0.019623 0.016185
v 0.093200 0.020273 0.016115
v 0.092623 0.020109 0.010928
v 0.094090 0.018918 0.010629
v 0.099587 0.017884 0.011669
v 0.093098 0.019335 0.010932
v 0.103423 0.019986 0.009271
v 0.100287 0.019793 0.014843
v 0.101167 0.020089 0.014608
v 0.096880 0.019287 0.015151
v 0.098591 0.019526 0.015036
v 0.102066 0.020364 0.014340
v 0.095700 0.019166 0.015284
v 0.094794 0.019770 0.016160
v 0.102635 0.020527 0.014106
v 0.103540 0.020892 0.013601
v 0.092776 0.019903 0.014536
v 0.092782 0.020373 0.015227
v 0.092887 0.019814 0.011398
v 0.092550 0.020641 0.013151
v 0.092676 0.020269 0.013871
v 0.094145 0.019640 0.016187
v 0.095601 0.018616 0.014134
v 0.093366 0.019203 0.014826
v 0.093661 0.018882 0.012330
v 0.093038 0.019744 0.011915
v 0.094210 0.018825 0.013547
v 0.093097 0.019725 0.012712
vn -0.2820 0.4140 -0.8655
vn -0.1476 0.7820 -0.6056
vn 0.0211 0.6451 -0.7638
vn 0.2306 0.8053 -0.5462
vn 0.0902 0.1043 -0.9905
vn 0.4857 0.1970 -0.8516
vn -0.4044 0.8651 -0.2969
vn -0.4243 0.6408 -0.6398
vn -0.2314 0.9069 0.3520
vn 0.0676 0.9948 -0.0761
vn 0.4199 0.8830 -0.2096
vn -0.2179 0.9760 0.0021
vn -0.5149 0.1543 -0.8433
vn -0.3442 0.2327 -0.9096
vn -0.5067 -0.1865 -0.8417
vn -0.1636 -0.2132 -0.9632
vn -0.3534 -0.1574 -0.9222
vn 0.7769 0.2874 -0.5601
vn 0.6565 0.6862 -0.3134
vn 0.4634 -0.2680 -0.8446
vn 0.0116 -0.3254 -0.9455
vn 0.1693 -0.3949 -0.9030
vn 0.8454 -0.1941 -0.4976
vn -0.5209 0.1872 -0.8329
vn -0.9081 0.1645 -0.3851
vn -0.8627 0.3758 0.3385
vn -0.9580 0.2672 0.1037
vn 0.6395 0.7590 0.1220
vn 0.7144 0.6897 0.1181
vn 0.3583 0.7508 0.5549
vn 0.2343 0.5914 0.7716
vn -0.1211 0.8122 0.5707
vn -0.8293 0.3695 0.4191
vn -0.8323 0.2784 0.4793
vn -0.8051 0.3327 0.4910
vn -0.8268 0.2915 0.4811
vn 0.8293 0.5157 -0.2155
vn 0.9094 0.3617 -0.2053
vn -0.5402 -0.2037 -0.8165
vn -0.3099 -0.1594 -0.9373
vn -0.5269 -0.1725 -0.8322
vn -0.5662 -0.2186 -0.7948
vn -0.5601 -0.1972 -0.8046
vn -0.3367 -0.3254 -0.8836
vn 0.9728 -0.0115 -0.2316
vn 0.5735 -0.3227 -0.7530
vn -0.2652 -0.3629 -0.8933
vn -0.1273 -0.4652 -0.8760
vn 0.0264 -0.4638 -0.8856
vn 0.3579 -0.5381 -0.7631
vn 0.8015 -0.4568 -0.3860
vn 0.8431 -0.4219 0.3336
vn 0.9045 -0.4220 -0.0608
vn -0.9919 -0.0972 0.0818
vn -0.9026 -0.1901 -0.3862
vn 0.9605 0.2586 -0.1027
vn 0.9575 0.2429 -0.1553
vn 0.7219 0.5995 0.3457
vn 0.8495 0.0150 0.5274
vn 0.9690 0.2286 -0.0934
vn 0.9656 0.2590 0.0249
vn -0.3186 0.6514 0.6886
vn -0.0610 0.1560 0.9859
vn 0.3369 -0.1761 0.9249
vn 0.3119 -0.1543 0.9375
vn 0.2714 -0.1873 0.9441
vn -0.8838 0.2717 0.3809
vn -0.9860 0.0184 0.1659
vn -0.9316 -0.1056 0.3479
vn -0.8038 -0.2695 -0.5303
vn -0.1497 -0.8236 -0.5471
vn -0.3128 -0.7654 -0.5624
vn -0.6750 -0.5441 -0.4983
vn -0.4132 -0.6152 -0.6714
vn 0.9754 -0.0914 -0.2006
vn -0.0029 -0.5966 -0.8025
vn 0.2854 -0.8847 -0.3686
vn 0.3446 -0.8036 -0.4852
vn 0.5595 -0.7918 -0.2450
vn 0.6568 -0.7438 -0.1240
vn 0.7872 -0.6099 0.0909
vn 0.3435 -0.3299 0.8793
vn 0.3012 -0.5598 0.7720
vn 0.6753 -0.6173 0.4036
vn 0.7263 -0.4061 0.5546
vn 0.6505 -0.7279 0.2167
vn 0.5783 -0.8123 0.0757
vn 0.6669 -0.7438 0.0458
vn 0.7540 -0.6485 0.1040
vn 0.6641 -0.7344 0.1398
vn 0.7643 -0.6383 0.0912
vn -0.9740 -0.2115 0.0810
vn -0.8861 -0.1627 0.4339
vn 0.3429 -0.2815 0.8962
vn -0.5324 0.0627 0.8441
vn 0.0390 -0.2830 0.9583
vn 0.2314 -0.3997 0.8870
vn 0.2786 -0.3284 0.9025
vn -0.7619 0.0799 0.6427
vn -0.7076 -0.0626 0.7038
vn -0.6118 -0.3944 0.6857
vn -0.5540 -0.3099 0.7727
vn -0.4246 -0.6910 0.5850
vn -0.7635 -0.3650 0.5328
vn -0.9206 -0.3864 0.0565
vn -0.3129 -0.9284 -0.2005
vn 0.1920 -0.9725 0.1317
vn -0.6691 -0.7417 -0.0465
vn 0.6265 -0.7487 0.2168
vn 0.2893 -0.7673 0.5723
vn 0.3931 -0.7524 0.5286
vn 0.1430 -0.7782 0.6115
vn 0.1594 -0.7549 0.6361
vn 0.4095 -0.7379 0.5364
vn 0.1079 -0.8329 0.5428
vn 0.1671 -0.6125 0.7726
vn 0.4591 -0.7703 0.4425
vn 0.5323 -0.8193 0.2132
vn -0.8631 -0.5042 0.0298
vn -0.9124 -0.3189 0.2566
vn -0.8582 -0.4882 0.1584
vn -0.9267 -0.3757 -0.0060
vn -0.8717 -0.4768 -0.1131
vn 0.0709 -0.7057 0.7049
vn -0.0551 -0.9680 0.2447
vn -0.5644 -0.8141 0.1364
vn -0.5089 -0.8573 0.0782
vn -0.8135 -0.5679 0.1255
vn -0.3902 -0.9186 0.0630
vn -0.7925 -0.5809 0.1859
vt 0.111061 0.649464
vt 0.175376 0.507499
vt 0.145103 0.768820
vt 0.172475 0.782074
vt 0.104460 0.752552
vt 0.135201 0.784548
vt 0.215129 0.416090
vt 0.176127 0.419521
vt 0.367854 0.450103
vt 0.317871 0.706259
vt 0.296395 0.770085
vt 0.285055 0.419540
vt 0.140688 0.543938
vt 0.161309 0.501683
vt 0.709554 0.103356
vt 0.694517 0.099582
vt 0.706535 0.015799
vt 0.689026 0.143953
vt 0.696300 0.251722
vt 0.642980 0.229837
vt 0.690187 0.355277
vt 0.649714 0.299677
vt 0.644755 0.257031
vt 0.932998 0.676551
vt 0.924016 0.692587
vt 0.867846 0.690834
vt 0.163088 0.797280
vt 0.228636 0.785459
vt 0.709554 0.383265
vt 0.662429 0.376566
vt 0.654490 0.336923
vt 0.657502 0.355910
vt 0.974134 0.624784
vt 0.958599 0.667283
vt 0.954467 0.634340
vt 0.166023 0.416869
vt 0.173958 0.402697
vt 0.696066 0.014595
vt 0.962563 0.072052
vt 0.932563 0.070705
vt 0.948757 0.013567
vt 0.979963 0.038033
vt 0.988455 0.000000
vt 0.367854 0.788000
vt 0.069090 0.649949
vt 0.104460 0.531406
vt 0.104460 0.654453
vt 0.709554 0.336590
vt 0.713234 0.172388
vt 0.788839 0.337154
vt 0.918687 0.229039
vt 0.904279 0.156516
vt 0.069090 0.531406
vt 0.069090 0.690798
vt 0.045781 0.633179
vt 0.965823 0.236513
vt 0.953418 0.116641
vt 0.947696 0.161389
vt 0.955573 0.199310
vt 0.799417 0.699151
vt 0.806401 0.679042
vt 0.764344 0.655561
vt 0.723879 0.651684
vt 0.665787 0.016536
vt 0.662633 0.058690
vt 0.653855 0.151821
vt 0.646204 0.196960
vt 0.606636 0.207411
vt 0.389939 0.182765
vt 0.726642 0.614629
vt 0.968853 0.589838
vt 0.628333 0.380226
vt 0.387357 0.227009
vt 0.387344 0.270143
vt 0.411058 0.323864
vt 0.411807 0.340466
vt 0.949042 0.395840
vt 0.737339 0.467127
vt 0.844248 0.409523
vt 0.688174 0.000000
vt 0.659628 0.408795
vt 0.637167 0.437616
vt 0.604528 0.395660
vt 0.656009 0.002659
vt 0.654892 0.440032
vt 0.513577 0.395678
vt 0.557068 0.383265
vt 0.704647 0.615168
vt 0.677312 0.609567
vt 0.724598 0.634262
vt 0.073960 0.658862
vt 0.230015 0.402697
vt 0.367854 0.362731
vt 0.333347 0.402697
vt 0.362725 0.391921
vt 0.684655 0.591269
vt 0.672155 0.582269
vt 0.666178 0.601903
vt 0.959005 0.293715
vt 0.966092 0.310526
vt 0.262415 0.353709
vt 0.211342 0.356471
vt 0.021551 0.369298
vt 0.152548 0.352920
vt 0.979516 0.267548
vt 0.387307 0.482639
vt 0.411382 0.459711
vt 0.399396 0.518260
vt 0.441299 0.435508
vt 0.501534 0.696711
vt 0.472575 0.412656
vt 0.403674 0.082545
vt 0.367854 0.237265
vt 0.371023 0.153180
vt 0.382881 0.093757
vt 0.376767 0.121731
vt 0.682832 0.564339
vt 0.974134 0.388175
vt 0.392563 0.301205
vt 0.384847 0.312916
vt 0.399523 0.333665
vt 0.785131 0.976940
vt 0.802067 0.970188
vt 0.779884 1.000000
vt 0.795020 0.961981
vt 0.776101 0.989078
vt 0.930047 0.393424
vt 0.948951 0.384569
vt 0.343003 0.238816
vt 0.339180 0.341383
vt 0.200320 0.102928
vt 0.306103 0.122693
vt 0.659628 0.555568
vt 0.671825 0.530375
vt 0.359033 0.333964
vt 0.808346 0.385794
vt 0.098244 0.518478
vt 0.032993 0.516107
vt 0.045583 0.486649
vt 0.023113 0.484692
vt 0.066456 0.505636
vt 0.082069 0.511956
vt 0.056150 0.496223
vt 0.833701 0.383265
vt 0.659628 0.705054
vt 0.587803 0.659040
vt 0.523093 0.703869
vt 0.312288 0.347469
vt 0.010342 0.361204
vt 0.024664 0.334414
vt 0.978452 0.301437
vt 0.097749 0.345888
vt 0.055603 0.339319
vt 0.988455 0.292285
vt 0.367854 0.499960
vt 0.378912 0.535875
vt 0.477304 0.689991
vt 0.391321 0.575659
vt 0.517184 0.741164
vt 0.519030 0.723004
vt 0.659422 0.728314
vt 0.648141 0.714429
vt 0.803192 0.778592
vt 0.790938 0.748051
vt 0.804252 0.748259
vt 0.801422 0.861461
vt 0.804727 0.928295
vt 0.791454 0.939425
vt 0.726102 0.872867
vt 0.647764 0.736012
vt 0.791555 0.722396
vt 0.804727 0.721453
vt 0.761691 0.996558
vt 0.763685 0.982794
vt 0.041550 0.531406
vt 0.045781 0.541617
vt 0.033352 0.549607
vt 0.199132 0.077692
vt 0.222023 0.084537
vt 0.115456 0.059546
vt 0.157165 0.068721
vt 0.014806 0.131211
vt 0.000000 0.273755
vt 0.245611 0.090624
vt 0.086296 0.054759
vt 0.058242 0.074780
vt 0.261033 0.093569
vt 0.019406 0.466010
vt 0.000483 0.481720
vt 0.019676 0.439617
vt 0.104460 0.402697
vt 0.045781 0.664873
vt 0.002541 0.544537
vt 0.004508 0.531406
vt 0.004508 0.575669
vt 0.000483 0.557335
vt 0.560762 0.726689
vt 0.542557 0.716545
vt 0.636207 0.723971
vt 0.593186 0.705016
vt 0.576245 0.716050
vt 0.002907 0.352291
vt 0.001006 0.314966
vt 0.042532 0.070238
vt 0.029215 0.068218
vt 0.696030 0.760792
vt 0.669418 0.755848
vt 0.663396 0.699151
vt 0.552586 0.747661
vt 0.659628 0.712646
vt 0.696190 0.702690
vt 0.753016 0.726297
vt 0.206147 0.000000
vt 0.665006 0.785259
vt 0.623075 0.727472
vt 0.612201 0.752787
vt 0.025921 0.547560
vt 0.033352 0.531406
vt 0.033352 0.563398
vt 0.579843 0.759556
vt 0.603545 0.729686
vt 0.720036 0.731340
s 1
usemtl Material_with_Texture.263
f 1/1/1 2/2/2 3/3/3
f 3/3/3 2/2/2 4/4/4
f 3/3/3 5/5/5 1/1/1
f 3/3/3 6/6/6 5/5/5
f 3/3/3 4/4/4 6/6/6
f 7/7/7 2/2/2 8/8/8
f 2/2/2 9/9/9 10/10/10
f 11/11/11 4/4/4 2/2/2
f 10/10/10 11/11/11 2/2/2
f 12/12/12 2/2/2 7/7/7
f 9/9/9 2/2/2 12/12/12
f 2/2/2 13/13/13 14/14/14
f 2/2/2 1/1/1 13/13/13
f 2/15/2 14/16/14 8/17/8
f 13/18/13 1/19/1 15/20/15
f 1/19/1 5/21/5 16/22/16
f 17/23/17 1/19/1 16/22/16
f 15/20/15 1/19/1 17/23/17
f 18/24/18 4/25/4 19/26/19
f 4/4/4 18/27/18 6/6/6
f 19/28/19 4/4/4 11/11/11
f 5/21/5 6/29/6 20/30/20
f 16/22/16 5/21/5 21/31/21
f 21/31/21 5/21/5 22/32/22
f 22/32/22 5/21/5 20/30/20
f 20/33/20 6/34/6 23/35/23
f 6/34/6 18/24/18 23/35/23
f 24/36/24 25/37/25 8/8/8
f 25/37/25 7/7/7 8/8/8
f 14/16/14 24/38/24 8/17/8
f 26/39/26 12/40/12 7/41/7
f 7/41/7 27/42/27 26/39/26
f 7/41/7 25/43/25 27/42/27
f 11/11/11 10/10/10 28/44/28
f 29/45/29 10/46/10 30/47/30
f 30/48/30 10/49/10 31/50/31
f 32/51/32 10/49/10 9/52/9
f 31/50/31 10/49/10 32/51/32
f 10/53/10 29/54/29 28/55/28
f 33/56/33 32/51/32 9/52/9
f 9/52/9 34/57/34 35/58/35
f 9/52/9 12/40/12 34/57/34
f 9/52/9 36/59/36 33/56/33
f 9/52/9 35/58/35 36/59/36
f 11/60/11 37/61/37 19/26/19
f 38/62/38 11/60/11 28/63/28
f 38/62/38 37/61/37 11/60/11
f 12/40/12 26/39/26 34/57/34
f 24/38/24 14/16/14 39/64/39
f 39/64/39 14/16/14 40/65/40
f 14/16/14 13/18/13 41/66/41
f 40/65/40 14/16/14 41/66/41
f 42/67/42 13/18/13 15/20/15
f 41/66/41 13/18/13 42/67/42
f 42/67/42 15/20/15 43/68/43
f 43/68/43 15/20/15 17/23/17
f 21/31/21 44/69/44 16/22/16
f 17/23/17 16/22/16 44/69/44
f 43/68/43 17/23/17 44/69/44
f 19/26/19 37/61/37 18/24/18
f 18/24/18 37/61/37 38/62/38
f 38/62/38 45/70/45 18/24/18
f 23/35/23 18/24/18 45/70/45
f 20/33/20 23/35/23 46/71/46
f 22/32/22 20/30/20 46/72/46
f 21/31/21 47/73/47 44/69/44
f 21/31/21 22/32/22 46/72/46
f 21/31/21 48/74/48 47/73/47
f 49/75/49 48/74/48 21/31/21
f 50/76/50 49/75/49 21/31/21
f 46/72/46 50/76/50 21/31/21
f 51/77/51 46/71/46 23/35/23
f 23/35/23 45/70/45 52/78/52
f 53/79/53 51/77/51 23/35/23
f 23/35/23 52/78/52 53/79/53
f 24/38/24 39/64/39 25/80/25
f 25/81/25 54/82/54 27/83/27
f 25/80/25 39/64/39 55/84/55
f 55/85/55 54/82/54 25/81/25
f 34/86/34 26/87/26 54/82/54
f 27/83/27 54/82/54 26/87/26
f 56/88/56 28/63/28 29/89/29
f 56/88/56 57/90/57 28/63/28
f 28/63/28 57/90/57 38/62/38
f 29/45/29 30/47/30 58/91/58
f 31/92/31 59/93/59 30/94/30
f 59/93/59 58/95/58 30/94/30
f 29/89/29 60/96/60 56/88/56
f 61/97/61 29/89/29 58/98/58
f 61/97/61 60/96/60 29/89/29
f 62/99/62 63/100/63 31/50/31
f 31/50/31 32/51/32 62/99/62
f 59/93/59 31/92/31 64/101/64
f 64/101/64 31/92/31 65/102/65
f 31/92/31 63/103/63 66/104/66
f 65/102/65 31/92/31 66/104/66
f 33/56/33 62/99/62 32/51/32
f 33/56/33 67/105/67 62/99/62
f 67/106/67 33/107/33 68/108/68
f 33/107/33 36/109/36 69/110/69
f 68/108/68 33/107/33 69/110/69
f 35/111/35 34/86/34 54/82/54
f 36/109/36 35/111/35 54/82/54
f 54/82/54 69/110/69 36/109/36
f 38/62/38 57/90/57 45/70/45
f 39/64/39 70/112/70 55/84/55
f 39/64/39 40/65/40 70/112/70
f 70/112/70 40/65/40 41/66/41
f 70/112/70 41/66/41 44/69/44
f 44/69/44 41/66/41 43/68/43
f 43/68/43 41/66/41 42/67/42
f 44/69/44 71/113/71 72/114/72
f 44/69/44 47/73/47 71/113/71
f 73/115/73 70/112/70 44/69/44
f 44/69/44 72/114/72 74/116/74
f 44/69/44 74/116/74 73/115/73
f 45/70/45 57/90/57 56/88/56
f 60/96/60 75/117/75 45/70/45
f 56/88/56 60/96/60 45/70/45
f 45/70/45 75/117/75 52/78/52
f 51/77/51 50/118/50 46/71/46
f 71/113/71 47/73/47 48/74/48
f 48/74/48 76/119/76 71/113/71
f 76/119/76 48/74/48 49/75/49
f 77/120/77 49/75/49 50/76/50
f 77/120/77 76/119/76 49/75/49
f 78/121/78 77/120/77 50/76/50
f 79/122/79 50/123/50 51/124/51
f 79/122/79 78/125/78 50/123/50
f 80/126/80 79/122/79 51/124/51
f 81/127/81 80/128/80 51/77/51
f 81/127/81 51/77/51 53/79/53
f 52/129/52 82/130/82 83/131/83
f 83/131/83 84/132/84 52/129/52
f 52/78/52 59/133/59 85/134/85
f 85/135/85 82/130/82 52/129/52
f 75/117/75 59/133/59 52/78/52
f 52/78/52 84/136/84 53/79/53
f 86/137/86 81/46/81 53/138/53
f 87/139/87 53/138/53 88/140/88
f 53/138/53 89/141/89 90/142/90
f 53/138/53 90/142/90 86/137/86
f 53/138/53 87/139/87 91/143/91
f 89/141/89 53/138/53 91/143/91
f 88/144/88 53/79/53 84/136/84
f 70/145/70 92/146/92 54/82/54
f 54/82/54 93/147/93 69/110/69
f 54/82/54 92/146/92 93/147/93
f 55/85/55 70/145/70 54/82/54
f 59/133/59 61/97/61 58/98/58
f 94/148/94 59/93/59 64/101/64
f 82/130/82 59/93/59 94/148/94
f 85/135/85 59/93/59 82/130/82
f 59/133/59 75/117/75 61/97/61
f 75/117/75 60/96/60 61/97/61
f 63/103/63 95/149/95 96/150/96
f 62/99/62 95/151/95 63/100/63
f 66/104/66 63/103/63 97/152/97
f 97/152/97 63/103/63 98/153/98
f 98/153/98 63/103/63 96/150/96
f 67/105/67 99/154/99 62/99/62
f 62/99/62 99/154/99 95/151/95
f 94/148/94 64/101/64 83/131/83
f 83/131/83 64/101/64 65/102/65
f 65/102/65 66/104/66 83/131/83
f 83/131/83 66/104/66 97/152/97
f 99/155/99 67/106/67 100/156/100
f 100/156/100 67/106/67 68/108/68
f 101/157/101 102/158/102 68/108/68
f 101/157/101 68/108/68 69/110/69
f 100/156/100 68/108/68 102/158/102
f 101/157/101 69/110/69 103/159/103
f 104/160/104 103/159/103 69/110/69
f 93/147/93 104/160/104 69/110/69
f 70/145/70 73/161/73 105/162/105
f 92/146/92 70/145/70 105/162/105
f 72/163/72 106/164/106 74/165/74
f 71/166/71 106/164/106 72/163/72
f 76/167/76 77/168/77 71/166/71
f 107/169/107 71/166/71 77/168/77
f 71/166/71 107/169/107 106/164/106
f 73/161/73 108/170/108 105/162/105
f 106/164/106 108/171/108 73/172/73
f 74/165/74 106/164/106 73/172/73
f 77/168/77 78/125/78 79/122/79
f 79/122/79 107/169/107 77/168/77
f 80/126/80 107/169/107 79/122/79
f 81/173/81 109/174/109 80/126/80
f 107/169/107 80/126/80 109/174/109
f 81/175/81 86/176/86 109/177/109
f 83/131/83 110/178/110 111/179/111
f 83/131/83 112/180/112 113/181/113
f 97/152/97 98/153/98 83/131/83
f 101/182/101 83/131/83 102/183/102
f 114/184/114 84/132/84 83/131/83
f 111/179/111 114/184/114 83/131/83
f 113/181/113 110/178/110 83/131/83
f 115/185/115 83/131/83 116/186/116
f 115/185/115 112/180/112 83/131/83
f 83/131/83 82/130/82 94/148/94
f 83/131/83 96/150/96 102/183/102
f 83/131/83 98/153/98 96/150/96
f 101/182/101 116/186/116 83/131/83
f 84/132/84 114/184/114 117/187/117
f 118/188/118 88/140/88 84/189/84
f 117/190/117 118/188/118 84/189/84
f 90/142/90 107/191/107 86/137/86
f 107/192/107 109/177/109 86/176/86
f 87/139/87 88/140/88 118/188/118
f 91/193/91 87/194/87 90/195/90
f 87/139/87 118/188/118 90/142/90
f 118/188/118 107/191/107 90/142/90
f 90/195/90 89/196/89 91/193/91
f 119/197/119 120/198/120 92/146/92
f 92/146/92 105/162/105 121/199/121
f 92/146/92 121/199/121 122/200/122
f 92/146/92 120/198/120 93/147/93
f 92/146/92 122/200/122 123/201/123
f 92/146/92 123/201/123 119/197/119
f 120/198/120 104/160/104 93/147/93
f 95/149/95 99/202/99 96/150/96
f 96/150/96 99/202/99 100/203/100
f 102/183/102 96/150/96 100/203/100
f 124/204/124 116/186/116 101/182/101
f 103/205/103 124/204/124 101/182/101
f 125/206/125 115/207/115 103/208/103
f 126/209/126 103/159/103 104/160/104
f 103/208/103 115/207/115 124/210/124
f 103/208/103 126/211/126 125/206/125
f 120/198/120 126/209/126 104/160/104
f 105/162/105 108/170/108 121/199/121
f 107/169/107 125/206/125 106/164/106
f 127/212/127 106/164/106 125/206/125
f 127/212/127 108/171/108 106/164/106
f 107/213/107 114/184/114 111/179/111
f 107/213/107 110/178/110 113/181/113
f 111/179/111 110/178/110 107/213/107
f 113/181/113 112/180/112 107/213/107
f 117/190/117 107/191/107 118/188/118
f 117/187/117 114/184/114 107/213/107
f 107/169/107 112/214/112 125/206/125
f 128/215/128 108/170/108 127/216/127
f 128/215/128 121/199/121 108/170/108
f 115/207/115 125/206/125 112/214/112
f 115/185/115 116/186/116 124/204/124
f 120/198/120 119/197/119 126/209/126
f 119/217/119 123/218/123 126/219/126
f 122/200/122 121/199/121 128/215/128
f 129/220/129 122/200/122 130/221/130
f 123/201/123 122/200/122 129/220/129
f 130/221/130 122/200/122 128/215/128
f 126/209/126 123/201/123 129/220/129
f 127/212/127 125/206/125 129/222/129
f 125/206/125 126/211/126 129/222/129
f 127/216/127 129/220/129 130/221/130
f 130/221/130 128/215/128 127/216/127
