# Blender 4.3.0
# www.blender.org
mtllib second_cuneiform_rv.mtl
o second_cuneiform_rv
v 0.104206 0.031725 -0.005107
v 0.094254 0.032434 -0.008425
v 0.099289 0.030901 -0.005076
v 0.104931 0.032459 -0.005840
v 0.103284 0.030233 -0.004159
v 0.104764 0.031082 -0.004819
v 0.090819 0.032656 -0.009148
v 0.090986 0.033628 -0.010423
v 0.103168 0.034745 -0.011724
v 0.093655 0.034344 -0.016305
v 0.105496 0.034111 -0.010511
v 0.091721 0.034225 -0.013110
v 0.093935 0.031780 -0.008157
v 0.095424 0.031254 -0.007127
v 0.098303 0.028897 -0.005653
v 0.100951 0.028829 -0.004731
v 0.099267 0.028799 -0.005102
v 0.105538 0.033074 -0.007935
v 0.105473 0.031822 -0.005576
v 0.104249 0.029180 -0.004805
v 0.102476 0.028904 -0.004566
v 0.103311 0.028998 -0.004649
v 0.105004 0.029876 -0.005319
v 0.090178 0.032011 -0.009480
v 0.090649 0.032193 -0.008939
v 0.090791 0.033497 -0.013387
v 0.090286 0.032736 -0.011641
v 0.106886 0.033265 -0.013747
v 0.106372 0.032409 -0.016955
v 0.107376 0.032185 -0.015960
v 0.102683 0.031983 -0.018942
v 0.094759 0.032687 -0.018511
v 0.093447 0.031404 -0.019062
v 0.092601 0.032954 -0.016527
v 0.091703 0.033324 -0.014994
v 0.093057 0.032216 -0.017810
v 0.106045 0.033337 -0.010371
v 0.106708 0.032964 -0.012159
v 0.090670 0.031010 -0.009208
v 0.092298 0.030714 -0.008850
v 0.095646 0.029845 -0.007327
v 0.097166 0.029235 -0.006326
v 0.097518 0.027667 -0.006659
v 0.096230 0.019392 -0.009107
v 0.107262 0.031847 -0.014001
v 0.104425 0.027898 -0.005385
v 0.097917 0.019096 -0.008654
v 0.099616 0.018934 -0.008341
v 0.101798 0.019667 -0.007798
v 0.102523 0.019675 -0.007883
v 0.103913 0.020452 -0.008512
v 0.106418 0.025845 -0.015460
v 0.104965 0.022249 -0.012238
v 0.090090 0.030881 -0.010578
v 0.090244 0.030764 -0.009823
v 0.107398 0.032120 -0.014826
v 0.107138 0.032616 -0.013875
v 0.107456 0.032015 -0.016468
v 0.107933 0.030348 -0.017174
v 0.107672 0.031439 -0.015832
v 0.107751 0.031231 -0.016409
v 0.094781 0.030366 -0.021491
v 0.094543 0.030964 -0.021067
v 0.103982 0.029801 -0.018620
v 0.102072 0.029837 -0.019350
v 0.099815 0.029675 -0.019999
v 0.093629 0.030580 -0.020123
v 0.093482 0.029056 -0.019856
v 0.093311 0.021424 -0.016663
v 0.092544 0.020440 -0.010428
v 0.095133 0.018829 -0.009813
v 0.098339 0.018332 -0.008926
v 0.092921 0.019575 -0.010460
v 0.093956 0.019200 -0.010144
v 0.107837 0.030432 -0.016186
v 0.100879 0.019038 -0.008158
v 0.101449 0.018767 -0.008520
v 0.102281 0.019252 -0.008195
v 0.102965 0.019621 -0.008460
v 0.103531 0.019954 -0.008718
v 0.103977 0.020567 -0.009268
v 0.100538 0.020575 -0.015508
v 0.106824 0.029438 -0.017416
v 0.104475 0.021624 -0.014004
v 0.107549 0.029177 -0.017064
v 0.103667 0.020390 -0.009733
v 0.104099 0.021201 -0.013116
v 0.103692 0.020812 -0.012259
v 0.103786 0.020654 -0.010456
v 0.103900 0.020905 -0.011154
v 0.103796 0.020856 -0.011700
v 0.092144 0.022444 -0.013235
v 0.092841 0.020962 -0.015942
v 0.105838 0.029627 -0.017871
v 0.094813 0.028996 -0.021106
v 0.094241 0.030178 -0.021268
v 0.097647 0.029459 -0.020402
v 0.096008 0.029201 -0.020794
v 0.093832 0.029976 -0.020959
v 0.093707 0.028448 -0.020730
v 0.093609 0.026764 -0.020459
v 0.093397 0.021790 -0.017598
v 0.093585 0.019623 -0.016185
v 0.093200 0.020273 -0.016115
v 0.092623 0.020109 -0.010928
v 0.094090 0.018918 -0.010629
v 0.099587 0.017884 -0.011669
v 0.093098 0.019335 -0.010932
v 0.103423 0.019986 -0.009271
v 0.101167 0.020089 -0.014608
v 0.100287 0.019793 -0.014843
v 0.098591 0.019526 -0.015036
v 0.096880 0.019287 -0.015151
v 0.102066 0.020364 -0.014340
v 0.094794 0.019770 -0.016160
v 0.095700 0.019166 -0.015284
v 0.102635 0.020527 -0.014106
v 0.103540 0.020892 -0.013601
v 0.092782 0.020373 -0.015227
v 0.092776 0.019903 -0.014536
v 0.092887 0.019814 -0.011398
v 0.092550 0.020641 -0.013151
v 0.092676 0.020269 -0.013871
v 0.094145 0.019640 -0.016187
v 0.095601 0.018616 -0.014134
v 0.093366 0.019203 -0.014826
v 0.093661 0.018882 -0.012330
v 0.093038 0.019744 -0.011915
v 0.093097 0.019725 -0.012712
v 0.094210 0.018825 -0.013547
vn 0.0211 0.6451 0.7638
vn -0.1477 0.7819 0.6057
vn -0.2820 0.4140 0.8655
vn 0.2306 0.8053 0.5462
vn 0.0902 0.1043 0.9905
vn 0.4857 0.1970 0.8516
vn -0.4243 0.6408 0.6398
vn -0.4044 0.8651 0.2969
vn 0.0676 0.9948 0.0761
vn -0.2314 0.9069 -0.3520
vn 0.4199 0.8830 0.2096
vn -0.2179 0.9760 -0.0021
vn -0.3434 0.2306 0.9104
vn -0.5166 0.1529 0.8425
vn -0.5067 -0.1865 0.8417
vn -0.1636 -0.2132 0.9632
vn -0.3534 -0.1574 0.9222
vn 0.6565 0.6862 0.3134
vn 0.7769 0.2874 0.5601
vn 0.4634 -0.2680 0.8446
vn 0.0116 -0.3254 0.9455
vn 0.1693 -0.3949 0.9030
vn 0.8462 -0.1914 0.4974
vn -0.9081 0.1645 0.3851
vn -0.5209 0.1872 0.8329
vn -0.8627 0.3758 -0.3385
vn -0.9580 0.2672 -0.1037
vn 0.6395 0.7590 -0.1220
vn 0.3583 0.7508 -0.5549
vn 0.7144 0.6894 -0.1201
vn 0.2343 0.5914 -0.7716
vn -0.1211 0.8122 -0.5707
vn -0.8293 0.3695 -0.4191
vn -0.8051 0.3327 -0.4910
vn -0.8323 0.2784 -0.4793
vn -0.8268 0.2915 -0.4811
vn 0.8293 0.5157 0.2155
vn 0.9094 0.3617 0.2053
vn -0.5382 -0.2056 0.8173
vn -0.3099 -0.1594 0.9373
vn -0.5259 -0.1719 0.8330
vn -0.5662 -0.2186 0.7948
vn -0.5601 -0.1972 0.8046
vn -0.3372 -0.3248 0.8836
vn 0.9728 -0.0115 0.2316
vn 0.5735 -0.3227 0.7530
vn -0.2652 -0.3629 0.8933
vn -0.1273 -0.4652 0.8760
vn 0.0264 -0.4638 0.8856
vn 0.3579 -0.5381 0.7631
vn 0.8015 -0.4568 0.3860
vn 0.8433 -0.4212 -0.3339
vn 0.9048 -0.4214 0.0607
vn -0.9919 -0.0972 -0.0818
vn -0.9025 -0.1889 0.3870
vn 0.9605 0.2586 0.1027
vn 0.9575 0.2429 0.1553
vn 0.7219 0.5995 -0.3457
vn 0.8495 0.0150 -0.5274
vn 0.9690 0.2293 0.0917
vn 0.9655 0.2590 -0.0252
vn -0.0610 0.1560 -0.9859
vn -0.3186 0.6514 -0.6886
vn 0.3378 -0.1753 -0.9247
vn 0.3119 -0.1543 -0.9375
vn 0.2683 -0.1881 -0.9448
vn -0.8838 0.2717 -0.3809
vn -0.9860 0.0184 -0.1659
vn -0.9316 -0.1056 -0.3479
vn -0.8038 -0.2695 0.5303
vn -0.3128 -0.7654 0.5624
vn -0.1497 -0.8234 0.5474
vn -0.6750 -0.5441 0.4983
vn -0.4132 -0.6152 0.6714
vn 0.9755 -0.0911 0.2002
vn -0.0029 -0.5966 0.8025
vn 0.2854 -0.8847 0.3686
vn 0.3446 -0.8036 0.4852
vn 0.5595 -0.7918 0.2450
vn 0.6568 -0.7438 0.1240
vn 0.7872 -0.6099 -0.0909
vn 0.3009 -0.5595 -0.7723
vn 0.3435 -0.3299 -0.8793
vn 0.6753 -0.6173 -0.4036
vn 0.7263 -0.4061 -0.5546
vn 0.6505 -0.7279 -0.2167
vn 0.6669 -0.7438 -0.0458
vn 0.5783 -0.8123 -0.0757
vn 0.6645 -0.7342 -0.1393
vn 0.7540 -0.6485 -0.1040
vn 0.7609 -0.6419 -0.0943
vn -0.9740 -0.2115 -0.0810
vn -0.8861 -0.1627 -0.4339
vn 0.3385 -0.2820 -0.8977
vn 0.0390 -0.2830 -0.9583
vn -0.5324 0.0627 -0.8441
vn 0.2281 -0.3994 -0.8880
vn 0.2786 -0.3284 -0.9025
vn -0.7619 0.0799 -0.6427
vn -0.7076 -0.0626 -0.7038
vn -0.5540 -0.3099 -0.7727
vn -0.6112 -0.3939 -0.6865
vn -0.4246 -0.6910 -0.5850
vn -0.7635 -0.3650 -0.5328
vn -0.9206 -0.3864 -0.0565
vn -0.3129 -0.9284 0.2005
vn 0.1929 -0.9723 -0.1317
vn -0.6683 -0.7423 0.0482
vn 0.6265 -0.7487 -0.2168
vn 0.3936 -0.7505 -0.5310
vn 0.2893 -0.7673 -0.5723
vn 0.1594 -0.7549 -0.6361
vn 0.1430 -0.7782 -0.6115
vn 0.4095 -0.7379 -0.5364
vn 0.1677 -0.6113 -0.7734
vn 0.1055 -0.8326 -0.5437
vn 0.4591 -0.7703 -0.4425
vn 0.5323 -0.8193 -0.2132
vn -0.9124 -0.3189 -0.2566
vn -0.8631 -0.5042 -0.0298
vn -0.8582 -0.4882 -0.1584
vn -0.9267 -0.3757 0.0060
vn -0.8717 -0.4768 0.1131
vn 0.0709 -0.7057 -0.7049
vn -0.0551 -0.9680 -0.2447
vn -0.5644 -0.8141 -0.1364
vn -0.5089 -0.8573 -0.0782
vn -0.8128 -0.5692 -0.1241
vn -0.7925 -0.5809 -0.1859
vn -0.3902 -0.9186 -0.0630
vt 0.145103 0.431156
vt 0.175376 0.692478
vt 0.111061 0.550512
vt 0.172475 0.417903
vt 0.104460 0.447425
vt 0.135201 0.415429
vt 0.176127 0.780456
vt 0.215129 0.783886
vt 0.317871 0.493717
vt 0.367854 0.749874
vt 0.296395 0.429892
vt 0.285055 0.780436
vt 0.161309 0.698294
vt 0.140688 0.656039
vt 0.706535 0.367465
vt 0.694517 0.283682
vt 0.709554 0.279909
vt 0.642980 0.153427
vt 0.696300 0.131543
vt 0.689026 0.239312
vt 0.649714 0.083587
vt 0.690187 0.027988
vt 0.644755 0.126234
vt 0.867846 0.391582
vt 0.924016 0.389829
vt 0.932998 0.405865
vt 0.163088 0.402697
vt 0.228636 0.414518
vt 0.662429 0.006698
vt 0.709554 0.000000
vt 0.654490 0.046342
vt 0.657502 0.027355
vt 0.954467 0.448076
vt 0.958599 0.415132
vt 0.974134 0.457632
vt 0.173958 0.797280
vt 0.166023 0.783108
vt 0.696066 0.368669
vt 0.948757 0.323587
vt 0.932563 0.266449
vt 0.962563 0.265101
vt 0.979963 0.299121
vt 0.988455 0.337154
vt 0.367854 0.411976
vt 0.104460 0.535814
vt 0.104460 0.658862
vt 0.069090 0.540319
vt 0.788839 0.000000
vt 0.713234 0.164766
vt 0.709554 0.000563
vt 0.904279 0.180638
vt 0.918687 0.108114
vt 0.045781 0.589024
vt 0.069090 0.531406
vt 0.069090 0.690798
vt 0.965823 0.100640
vt 0.947696 0.175765
vt 0.953418 0.220513
vt 0.955573 0.137844
vt 0.806401 0.403374
vt 0.799417 0.383264
vt 0.723879 0.430732
vt 0.764344 0.426854
vt 0.665787 0.366729
vt 0.662633 0.324574
vt 0.653855 0.231444
vt 0.646204 0.186305
vt 0.606636 0.175853
vt 0.389939 0.200500
vt 0.726642 0.467787
vt 0.968853 0.492578
vt 0.628333 0.003039
vt 0.387357 0.156255
vt 0.387344 0.113122
vt 0.411058 0.059401
vt 0.411807 0.042798
vt 0.949042 0.686576
vt 0.737339 0.615288
vt 0.844248 0.672892
vt 0.688174 0.383265
vt 0.604528 0.747161
vt 0.637167 0.705205
vt 0.659628 0.734026
vt 0.656009 0.380606
vt 0.654892 0.702789
vt 0.557068 0.759556
vt 0.513577 0.747143
vt 0.677312 0.472849
vt 0.704647 0.467248
vt 0.724598 0.448154
vt 0.073960 0.531406
vt 0.034507 0.402697
vt 0.000000 0.362731
vt 0.137839 0.402697
vt 0.005129 0.391921
vt 0.684655 0.491146
vt 0.666178 0.480513
vt 0.672155 0.500147
vt 0.966092 0.026627
vt 0.959005 0.043439
vt 0.105438 0.353709
vt 0.156512 0.356471
vt 0.215305 0.352920
vt 0.346302 0.369298
vt 0.979516 0.069606
vt 0.399396 0.624560
vt 0.411382 0.683110
vt 0.387307 0.660181
vt 0.501534 0.446110
vt 0.441299 0.707313
vt 0.472575 0.730165
vt 0.403674 0.300719
vt 0.371023 0.230085
vt 0.367854 0.146000
vt 0.382881 0.289508
vt 0.376767 0.261533
vt 0.682832 0.518077
vt 0.974134 0.694241
vt 0.392563 0.082060
vt 0.384847 0.070348
vt 0.399523 0.049600
vt 0.779884 0.699151
vt 0.802067 0.728963
vt 0.785131 0.722211
vt 0.795020 0.737171
vt 0.776101 0.710073
vt 0.948951 0.697846
vt 0.930047 0.688992
vt 0.167534 0.102928
vt 0.028674 0.341383
vt 0.024851 0.238816
vt 0.061751 0.122693
vt 0.671825 0.552041
vt 0.659628 0.526848
vt 0.008821 0.333964
vt 0.808346 0.696622
vt 0.032993 0.417996
vt 0.104460 0.402697
vt 0.098244 0.415624
vt 0.023113 0.449410
vt 0.045583 0.447454
vt 0.082069 0.422146
vt 0.066456 0.428467
vt 0.056150 0.437879
vt 0.833701 0.699151
vt 0.587803 0.483780
vt 0.659628 0.437767
vt 0.523093 0.438951
vt 0.055566 0.347469
vt 0.343190 0.334414
vt 0.357512 0.361204
vt 0.978452 0.035717
vt 0.270104 0.345888
vt 0.312250 0.339319
vt 0.988455 0.044869
vt 0.378912 0.606946
vt 0.367854 0.642861
vt 0.391321 0.567162
vt 0.477304 0.452829
vt 0.517184 0.401657
vt 0.519030 0.419817
vt 0.648141 0.428391
vt 0.659422 0.414507
vt 0.804252 0.950892
vt 0.790938 0.951101
vt 0.803192 0.920560
vt 0.801422 0.837690
vt 0.791454 0.759726
vt 0.804727 0.770856
vt 0.726102 0.826284
vt 0.647764 0.406809
vt 0.804727 0.977698
vt 0.791555 0.976755
vt 0.763685 0.716358
vt 0.761691 0.702594
vt 0.033352 0.646672
vt 0.045781 0.654661
vt 0.041550 0.664873
vt 0.145831 0.084537
vt 0.168721 0.077692
vt 0.210689 0.068721
vt 0.252398 0.059546
vt 0.367854 0.273755
vt 0.353048 0.131211
vt 0.122242 0.090624
vt 0.309612 0.074780
vt 0.281558 0.054759
vt 0.106820 0.093569
vt 0.000483 0.452383
vt 0.019406 0.468092
vt 0.019676 0.494486
vt 0.104460 0.531406
vt 0.045781 0.531406
vt 0.004508 0.531406
vt 0.004508 0.575669
vt 0.002541 0.562537
vt 0.000483 0.549739
vt 0.542557 0.426276
vt 0.560762 0.416131
vt 0.636207 0.418850
vt 0.593186 0.437805
vt 0.576245 0.426770
vt 0.364947 0.352291
vt 0.366848 0.314966
vt 0.325322 0.070238
vt 0.338639 0.068218
vt 0.663396 1.000000
vt 0.669418 0.943303
vt 0.696030 0.938360
vt 0.552586 0.395160
vt 0.659628 0.986506
vt 0.696190 0.996461
vt 0.753016 0.972854
vt 0.161706 0.000000
vt 0.665006 0.913892
vt 0.612201 0.390034
vt 0.623075 0.415349
vt 0.033352 0.531406
vt 0.033352 0.563399
vt 0.025921 0.547244
vt 0.603545 0.413135
vt 0.579843 0.383265
vt 0.720036 0.967811
s 1
usemtl Material_with_Texture.264
f 1/1/1 2/2/2 3/3/3
f 4/4/4 2/2/2 1/1/1
f 3/3/3 5/5/5 1/1/1
f 5/5/5 6/6/6 1/1/1
f 6/6/6 4/4/4 1/1/1
f 7/7/7 2/2/2 8/8/8
f 9/9/9 10/10/10 2/2/2
f 2/2/2 4/4/4 11/11/11
f 2/2/2 11/11/11 9/9/9
f 8/8/8 2/2/2 12/12/12
f 12/12/12 2/2/2 10/10/10
f 13/13/13 14/14/14 2/2/2
f 14/14/14 3/3/3 2/2/2
f 7/15/7 13/16/13 2/17/2
f 15/18/15 3/19/3 14/20/14
f 16/21/16 5/22/5 3/19/3
f 16/21/16 3/19/3 17/23/17
f 17/23/17 3/19/3 15/18/15
f 18/24/18 4/25/4 19/26/19
f 6/6/6 19/27/19 4/4/4
f 11/11/11 4/4/4 18/28/18
f 20/29/20 6/30/6 5/22/5
f 21/31/21 5/22/5 16/21/16
f 22/32/22 5/22/5 21/31/21
f 20/29/20 5/22/5 22/32/22
f 23/33/23 6/34/6 20/35/20
f 23/33/23 19/26/19 6/34/6
f 7/7/7 24/36/24 25/37/25
f 7/7/7 8/8/8 24/36/24
f 7/15/7 25/38/25 13/16/13
f 8/39/8 12/40/12 26/41/26
f 26/41/26 27/42/27 8/39/8
f 27/42/27 24/43/24 8/39/8
f 28/44/28 9/9/9 11/11/11
f 29/45/29 9/46/9 30/47/30
f 31/48/31 9/49/9 29/50/29
f 10/51/10 9/49/9 32/52/32
f 32/52/32 9/49/9 31/48/31
f 28/53/28 30/54/30 9/55/9
f 10/51/10 32/52/32 33/56/33
f 34/57/34 35/58/35 10/51/10
f 35/58/35 12/40/12 10/51/10
f 33/56/33 36/59/36 10/51/10
f 36/59/36 34/57/34 10/51/10
f 18/24/18 37/60/37 11/61/11
f 28/62/28 11/61/11 38/63/38
f 11/61/11 37/60/37 38/63/38
f 35/58/35 26/41/26 12/40/12
f 39/64/39 13/16/13 25/38/25
f 40/65/40 13/16/13 39/64/39
f 41/66/41 14/20/14 13/16/13
f 41/66/41 13/16/13 40/65/40
f 15/18/15 14/20/14 42/67/42
f 42/67/42 14/20/14 41/66/41
f 43/68/43 15/18/15 42/67/42
f 17/23/17 15/18/15 43/68/43
f 16/21/16 44/69/44 21/31/21
f 44/69/44 16/21/16 17/23/17
f 44/69/44 17/23/17 43/68/43
f 19/26/19 37/60/37 18/24/18
f 38/63/38 37/60/37 19/26/19
f 19/26/19 45/70/45 38/63/38
f 45/70/45 19/26/19 23/33/23
f 46/71/46 23/33/23 20/35/20
f 46/72/46 20/29/20 22/32/22
f 44/69/44 47/73/47 21/31/21
f 46/72/46 22/32/22 21/31/21
f 47/73/47 48/74/48 21/31/21
f 21/31/21 48/74/48 49/75/49
f 21/31/21 49/75/49 50/76/50
f 21/31/21 50/76/50 46/72/46
f 23/33/23 46/71/46 51/77/51
f 52/78/52 45/70/45 23/33/23
f 23/33/23 51/77/51 53/79/53
f 53/79/53 52/78/52 23/33/23
f 24/80/24 39/64/39 25/38/25
f 27/81/27 54/82/54 24/83/24
f 55/84/55 39/64/39 24/80/24
f 24/83/24 54/82/54 55/85/55
f 54/82/54 26/86/26 35/87/35
f 26/86/26 54/82/54 27/81/27
f 30/88/30 28/62/28 56/89/56
f 28/62/28 57/90/57 56/89/56
f 38/63/38 57/90/57 28/62/28
f 58/91/58 29/45/29 30/47/30
f 29/92/29 59/93/59 31/94/31
f 29/92/29 58/95/58 59/93/59
f 56/89/56 60/96/60 30/88/30
f 58/97/58 30/88/30 61/98/61
f 30/88/30 60/96/60 61/98/61
f 31/48/31 62/99/62 63/100/63
f 63/100/63 32/52/32 31/48/31
f 64/101/64 31/94/31 59/93/59
f 65/102/65 31/94/31 64/101/64
f 66/103/66 62/104/62 31/94/31
f 66/103/66 31/94/31 65/102/65
f 32/52/32 63/100/63 33/56/33
f 63/100/63 67/105/67 33/56/33
f 68/106/68 33/107/33 67/108/67
f 69/109/69 36/110/36 33/107/33
f 69/109/69 33/107/33 68/106/68
f 54/82/54 35/87/35 34/111/34
f 54/82/54 34/111/34 36/110/36
f 36/110/36 69/109/69 54/82/54
f 45/70/45 57/90/57 38/63/38
f 55/84/55 70/112/70 39/64/39
f 70/112/70 40/65/40 39/64/39
f 41/66/41 40/65/40 70/112/70
f 44/69/44 41/66/41 70/112/70
f 43/68/43 41/66/41 44/69/44
f 42/67/42 41/66/41 43/68/43
f 71/113/71 72/114/72 44/69/44
f 72/114/72 47/73/47 44/69/44
f 44/69/44 70/112/70 73/115/73
f 74/116/74 71/113/71 44/69/44
f 73/115/73 74/116/74 44/69/44
f 56/89/56 57/90/57 45/70/45
f 45/70/45 75/117/75 60/96/60
f 45/70/45 60/96/60 56/89/56
f 52/78/52 75/117/75 45/70/45
f 46/71/46 50/118/50 51/77/51
f 48/74/48 47/73/47 72/114/72
f 72/114/72 76/119/76 48/74/48
f 49/75/49 48/74/48 76/119/76
f 50/76/50 49/75/49 77/120/77
f 49/75/49 76/119/76 77/120/77
f 50/76/50 77/120/77 78/121/78
f 51/122/51 50/123/50 79/124/79
f 50/123/50 78/125/78 79/124/79
f 51/122/51 79/124/79 80/126/80
f 51/77/51 80/127/80 81/128/81
f 53/79/53 51/77/51 81/128/81
f 82/129/82 83/130/83 52/131/52
f 52/131/52 84/132/84 82/129/82
f 85/133/85 59/134/59 52/78/52
f 52/131/52 83/130/83 85/135/85
f 52/78/52 59/134/59 75/117/75
f 53/79/53 84/136/84 52/78/52
f 53/137/53 81/138/81 86/139/86
f 87/140/87 53/137/53 88/141/88
f 89/142/89 90/143/90 53/137/53
f 86/139/86 89/142/89 53/137/53
f 91/144/91 88/141/88 53/137/53
f 91/144/91 53/137/53 90/143/90
f 84/136/84 53/79/53 87/145/87
f 54/82/54 92/146/92 70/147/70
f 69/109/69 93/148/93 54/82/54
f 93/148/93 92/146/92 54/82/54
f 54/82/54 70/147/70 55/85/55
f 58/97/58 61/98/61 59/134/59
f 64/101/64 59/93/59 94/149/94
f 94/149/94 59/93/59 83/130/83
f 83/130/83 59/93/59 85/135/85
f 61/98/61 60/96/60 75/117/75
f 61/98/61 75/117/75 59/134/59
f 95/150/95 96/151/96 62/104/62
f 62/99/62 96/152/96 63/100/63
f 97/153/97 62/104/62 66/103/66
f 98/154/98 62/104/62 97/153/97
f 95/150/95 62/104/62 98/154/98
f 63/100/63 99/155/99 67/105/67
f 96/152/96 99/155/99 63/100/63
f 82/129/82 64/101/64 94/149/94
f 65/102/65 64/101/64 82/129/82
f 82/129/82 66/103/66 65/102/65
f 97/153/97 66/103/66 82/129/82
f 100/156/100 67/108/67 99/157/99
f 68/106/68 67/108/67 100/156/100
f 68/106/68 101/158/101 102/159/102
f 69/109/69 68/106/68 102/159/102
f 101/158/101 68/106/68 100/156/100
f 103/160/103 69/109/69 102/159/102
f 69/109/69 103/160/103 104/161/104
f 69/109/69 104/161/104 93/148/93
f 105/162/105 73/163/73 70/147/70
f 105/162/105 70/147/70 92/146/92
f 74/164/74 106/165/106 71/166/71
f 71/166/71 106/165/106 72/167/72
f 72/167/72 77/168/77 76/169/76
f 77/168/77 72/167/72 107/170/107
f 106/165/106 107/170/107 72/167/72
f 105/162/105 108/171/108 73/163/73
f 73/172/73 108/173/108 106/165/106
f 73/172/73 106/165/106 74/164/74
f 79/124/79 78/125/78 77/168/77
f 77/168/77 107/170/107 79/124/79
f 79/124/79 107/170/107 80/126/80
f 80/126/80 109/174/109 81/175/81
f 109/174/109 80/126/80 107/170/107
f 109/176/109 86/177/86 81/178/81
f 110/179/110 111/180/111 82/129/82
f 112/181/112 113/182/113 82/129/82
f 82/129/82 98/154/98 97/153/97
f 101/183/101 82/129/82 102/184/102
f 82/129/82 84/132/84 114/185/114
f 82/129/82 114/185/114 110/179/110
f 82/129/82 111/180/111 112/181/112
f 115/186/115 82/129/82 116/187/116
f 82/129/82 113/182/113 116/187/116
f 94/149/94 83/130/83 82/129/82
f 101/183/101 95/150/95 82/129/82
f 95/150/95 98/154/98 82/129/82
f 82/129/82 115/186/115 102/184/102
f 117/188/117 114/185/114 84/132/84
f 84/189/84 87/140/87 118/190/118
f 84/189/84 118/190/118 117/191/117
f 86/139/86 107/192/107 89/142/89
f 86/177/86 109/176/109 107/193/107
f 118/190/118 87/140/87 88/141/88
f 89/194/89 88/195/88 91/196/91
f 89/142/89 118/190/118 88/141/88
f 89/142/89 107/192/107 118/190/118
f 91/196/91 90/197/90 89/194/89
f 92/146/92 119/198/119 120/199/120
f 121/200/121 105/162/105 92/146/92
f 122/201/122 121/200/121 92/146/92
f 93/148/93 119/198/119 92/146/92
f 123/202/123 122/201/122 92/146/92
f 120/199/120 123/202/123 92/146/92
f 93/148/93 104/161/104 119/198/119
f 95/150/95 99/203/99 96/151/96
f 100/204/100 99/203/99 95/150/95
f 100/204/100 95/150/95 101/183/101
f 102/184/102 115/186/115 124/205/124
f 102/184/102 124/205/124 103/206/103
f 103/207/103 116/208/116 125/209/125
f 104/161/104 103/160/103 126/210/126
f 124/211/124 116/208/116 103/207/103
f 125/209/125 126/212/126 103/207/103
f 104/161/104 126/210/126 119/198/119
f 121/200/121 108/171/108 105/162/105
f 106/165/106 125/209/125 107/170/107
f 125/209/125 106/165/106 127/213/127
f 106/165/106 108/173/108 127/213/127
f 110/179/110 114/185/114 107/214/107
f 112/181/112 111/180/111 107/214/107
f 107/214/107 111/180/111 110/179/110
f 107/214/107 113/182/113 112/181/112
f 118/190/118 107/192/107 117/191/117
f 107/214/107 114/185/114 117/188/117
f 125/209/125 113/215/113 107/170/107
f 127/216/127 108/171/108 128/217/128
f 108/171/108 121/200/121 128/217/128
f 113/215/113 125/209/125 116/208/116
f 124/205/124 115/186/115 116/187/116
f 126/210/126 120/199/120 119/198/119
f 126/218/126 123/219/123 120/220/120
f 128/217/128 121/200/121 122/201/122
f 129/221/129 122/201/122 130/222/130
f 130/222/130 122/201/122 123/202/123
f 128/217/128 122/201/122 129/221/129
f 130/222/130 123/202/123 126/210/126
f 130/223/130 125/209/125 127/213/127
f 130/223/130 126/212/126 125/209/125
f 129/221/129 130/222/130 127/216/127
f 127/216/127 128/217/128 129/221/129
