# Blender 4.3.0
# www.blender.org
mtllib talus.mtl
o talus
v -0.015336 -0.001709 -0.005020
v -0.014889 -0.004263 -0.007677
v -0.017534 -0.005773 -0.001672
v -0.015134 -0.009392 -0.006469
v -0.016145 -0.011160 -0.000750
v -0.016894 -0.008737 0.003632
v -0.017213 -0.004306 0.005621
v -0.016408 -0.000916 0.001140
v -0.009812 0.008402 -0.009034
v -0.008588 0.000363 -0.016332
v -0.008109 -0.002378 -0.019176
v -0.008156 -0.010315 -0.019210
v -0.009509 -0.013840 -0.011591
v -0.011753 -0.011069 0.001350
v -0.012790 -0.004464 0.007535
v -0.013200 0.000903 0.010083
v -0.011834 0.006489 0.002472
v -0.002403 0.009072 -0.015098
v -0.001819 0.005958 -0.018558
v -0.001849 0.000709 -0.018580
v -0.001458 -0.007908 -0.021141
v -0.002952 -0.009810 -0.012653
v -0.003984 -0.009892 -0.006743
v -0.005343 -0.006355 0.001153
v -0.006902 -0.002759 0.010219
v -0.007451 -0.000894 0.013429
v -0.007312 0.002795 0.012766
v -0.006053 0.006568 0.005703
v -0.004040 0.008542 -0.005741
v 0.004224 0.010541 -0.016663
v 0.004404 0.008107 -0.017781
v 0.004365 0.001357 -0.017810
v 0.004701 -0.003949 -0.019925
v 0.004377 -0.007954 -0.018219
v 0.002490 -0.006676 -0.007377
v 0.001319 -0.004636 -0.000596
v 0.000020 -0.008159 0.006716
v -0.001083 -0.009117 0.012991
v -0.001320 -0.007122 0.014416
v -0.000879 -0.001614 0.012100
v -0.001113 0.006381 0.013734
v -0.000964 0.011758 0.013080
v -0.000284 0.012208 0.009203
v 0.001097 0.009358 0.001186
v 0.002786 0.009264 -0.008480
v 0.010816 0.013197 -0.017977
v 0.011067 0.008327 -0.019597
v 0.010820 0.001011 -0.018459
v 0.009790 -0.000758 -0.012617
v 0.008875 -0.006587 -0.007593
v 0.008122 -0.008226 -0.003352
v 0.006425 -0.009819 0.006307
v 0.004808 -0.016224 0.015331
v 0.004027 -0.013425 0.019898
v 0.003969 -0.008552 0.020410
v 0.004587 -0.002166 0.017112
v 0.004393 0.005266 0.018499
v 0.004559 0.013894 0.017860
v 0.006297 0.013113 0.007881
v 0.007844 0.010954 -0.001054
v 0.009372 0.012608 -0.009729
v 0.016815 0.009905 -0.016115
v 0.017353 0.006290 -0.019331
v 0.017451 -0.000895 -0.020162
v 0.016136 -0.007106 -0.012861
v 0.015590 -0.010241 -0.009858
v 0.014124 -0.007268 -0.001350
v 0.012082 -0.006681 0.010352
v 0.011014 -0.007763 0.016441
v 0.011147 -0.005011 0.015775
v 0.011431 -0.002194 0.014249
v 0.011223 0.000865 0.015554
v 0.010979 0.007109 0.017182
v 0.011171 0.012550 0.016281
v 0.011494 0.012555 0.014434
v 0.013560 0.010656 0.002543
v 0.022744 0.006111 -0.013885
v 0.023483 -0.002124 -0.018414
v 0.023415 -0.006313 -0.018186
v 0.022780 -0.008386 -0.014624
v 0.022242 -0.008646 -0.011547
v 0.021713 -0.010781 -0.008600
v 0.020847 -0.009610 -0.003608
v 0.018541 -0.006527 0.009704
v 0.018140 -0.007222 0.011979
v 0.017952 -0.004539 0.013159
v 0.018189 -0.002472 0.011876
v 0.018252 0.003153 0.011715
v 0.018275 0.006965 0.011730
v 0.018882 0.007665 0.008285
v 0.020859 0.007388 -0.003044
v 0.022406 0.007167 -0.011911
v 0.028566 0.003878 -0.010972
v 0.027208 -0.004271 -0.003496
v 0.024665 -0.001069 0.011172
v 0.025728 0.002451 0.005214
v 0.026307 0.005710 0.002026
v 0.028607 -0.002347 -0.002356
v 0.027173 -0.000936 0.005899
vn -0.8949 0.3152 -0.3161
vn -0.8843 0.1104 -0.4537
vn -0.9843 0.0115 -0.1761
vn -0.8645 -0.3212 -0.3866
vn -0.6499 -0.7562 0.0763
vn -0.6559 -0.5689 0.4961
vn -0.8560 -0.0354 0.5157
vn -0.9139 0.4058 0.0004
vn -0.5697 0.7881 -0.2329
vn -0.6697 0.4096 -0.6195
vn -0.4642 0.2458 -0.8510
vn -0.3952 -0.5160 -0.7600
vn -0.1490 -0.9734 -0.1743
vn 0.1599 -0.8750 0.4570
vn -0.2628 -0.5740 0.7755
vn -0.6931 0.2781 0.6651
vn -0.5523 0.8070 0.2093
vn -0.3445 0.8658 -0.3628
vn -0.2607 0.3326 -0.9063
vn -0.0932 0.1763 -0.9799
vn 0.0394 -0.4295 -0.9022
vn 0.4325 -0.9016 0.0089
vn 0.4554 -0.8571 0.2409
vn 0.2953 -0.9148 0.2755
vn -0.1791 -0.8131 0.5539
vn -0.2043 -0.3932 0.8965
vn -0.4372 0.5151 0.7373
vn -0.4477 0.8671 0.2184
vn -0.1224 0.9900 0.0707
vn -0.3182 0.8076 -0.4964
vn -0.1033 0.2137 -0.9714
vn 0.2563 -0.0610 -0.9647
vn 0.6072 0.0623 -0.7921
vn 0.5649 -0.7222 -0.3991
vn 0.1504 -0.9783 0.1426
vn -0.0585 -0.9981 -0.0211
vn -0.4079 -0.8615 -0.3022
vn -0.7969 -0.5957 0.1003
vn -0.7551 -0.0566 0.6532
vn -0.3962 0.0042 0.9182
vn -0.6356 0.1278 0.7613
vn -0.7203 0.5693 0.3964
vn -0.4314 0.8853 -0.1732
vn -0.3022 0.9421 -0.1451
vn -0.2596 0.9648 0.0423
vn 0.0781 0.8400 -0.5369
vn -0.0175 0.1627 -0.9865
vn -0.2281 -0.5618 -0.7952
vn -0.1587 -0.7476 -0.6450
vn -0.0865 -0.9012 -0.4247
vn -0.1773 -0.9774 -0.1153
vn 0.0982 -0.9352 -0.3401
vn 0.0223 -0.9982 0.0563
vn -0.1270 -0.5667 0.8141
vn -0.1377 0.1196 0.9832
vn -0.1778 0.1569 0.9715
vn -0.2390 -0.0747 0.9681
vn -0.1872 0.7122 0.6766
vn -0.0014 0.9833 -0.1818
vn -0.0795 0.9938 -0.0781
vn 0.0405 0.9868 0.1570
vn 0.4738 0.8063 -0.3541
vn 0.3109 0.3676 -0.8765
vn -0.1442 -0.2759 -0.9503
vn -0.3718 -0.6976 -0.6124
vn -0.3193 -0.8806 -0.3502
vn -0.0625 -0.9915 0.1143
vn 0.3063 -0.9496 -0.0664
vn 0.6352 -0.2909 0.7155
vn 0.3908 0.2796 0.8770
vn 0.3495 0.0367 0.9362
vn 0.3789 -0.2331 0.8956
vn 0.3991 -0.0278 0.9165
vn 0.4692 0.6600 0.5867
vn 0.4257 0.9045 0.0267
vn 0.3179 0.9469 -0.0481
vn 0.5833 0.6260 -0.5177
vn 0.5917 0.0912 -0.8010
vn 0.4043 -0.5790 -0.7080
vn 0.3071 -0.9047 -0.2953
vn 0.3684 -0.8946 -0.2530
vn 0.3725 -0.9186 -0.1322
vn 0.2312 -0.9379 0.2587
vn 0.3790 -0.9235 0.0588
vn 0.3984 -0.8625 0.3120
vn 0.3397 0.0274 0.9401
vn 0.2859 0.3545 0.8903
vn 0.5972 -0.0176 0.8019
vn 0.7131 0.3749 0.5925
vn 0.5731 0.8019 0.1689
vn 0.3542 0.9345 0.0346
vn 0.4764 0.8694 -0.1313
vn 0.8781 0.3741 -0.2982
vn 0.7904 -0.6120 0.0260
vn 0.5860 0.1684 0.7926
vn 0.6668 0.4601 0.5862
vn 0.7069 0.6682 0.2320
vn 0.9498 -0.3064 0.0634
vn 0.8997 -0.2491 0.3584
vt 0.274017 0.550595
vt 0.286095 0.519995
vt 0.335493 0.568205
vt 0.340193 0.521365
vt 0.027092 0.647820
vt 0.047231 0.713067
vt 0.000000 0.701372
vt 0.383025 0.572739
vt 0.380054 0.619638
vt 0.347153 0.647563
vt 0.294604 0.611306
vt 0.136816 0.551490
vt 0.179676 0.465412
vt 0.192670 0.432646
vt 0.976335 0.011979
vt 0.976335 0.186101
vt 0.947104 0.160663
vt 0.494073 0.974616
vt 0.441559 0.918638
vt 0.494073 0.802471
vt 0.053372 0.488077
vt 0.087026 0.576999
vt 0.093160 0.713036
vt 0.040672 0.756581
vt 0.984210 0.727711
vt 0.913015 0.780508
vt 0.916089 0.720738
vt 0.881065 0.760495
vt 0.869779 0.828387
vt 0.295036 0.720060
vt 0.207410 0.658132
vt 0.858829 0.088230
vt 0.814118 0.090885
vt 0.878805 0.004642
vt 0.768671 0.008345
vt 0.757572 0.084091
vt 0.729967 0.010293
vt 0.644465 0.000000
vt 0.656567 0.077827
vt 0.093160 0.432646
vt 0.977687 0.490837
vt 0.941708 0.577999
vt 0.869779 0.569331
vt 0.929431 0.638495
vt 0.873216 0.701327
vt 0.383025 0.847417
vt 0.441559 0.881862
vt 0.405230 0.961237
vt 0.549115 0.884482
vt 0.595553 0.802471
vt 0.595553 0.948668
vt 0.944780 0.825850
vt 0.916039 0.837814
vt 0.296484 0.774304
vt 0.258520 0.775290
vt 0.190564 0.715012
vt 0.223749 0.409704
vt 0.312928 0.314973
vt 0.290587 0.432646
vt 0.380072 0.337223
vt 0.383025 0.234650
vt 0.862026 0.164114
vt 0.832216 0.163118
vt 0.759499 0.154375
vt 0.695560 0.151576
vt 0.922782 0.381048
vt 0.970302 0.374180
vt 0.979932 0.428149
vt 0.654278 0.802471
vt 0.654278 0.903419
vt 0.595553 0.823733
vt 1.000000 0.540913
vt 0.992149 0.651661
vt 1.000000 0.720738
vt 0.441559 0.802471
vt 0.588700 0.213845
vt 0.559390 0.126890
vt 0.635074 0.163570
vt 0.644465 0.071439
vt 0.546111 0.056328
vt 0.555809 0.044657
vt 0.329153 0.797065
vt 0.266413 0.785815
vt 0.299509 0.739773
vt 0.984210 0.867267
vt 0.932547 0.942930
vt 0.900555 0.875570
vt 0.198133 0.817436
vt 0.144217 0.821876
vt 0.122274 0.785554
vt 0.112713 0.702908
vt 0.220897 0.326304
vt 0.291619 0.241605
vt 0.355039 0.173514
vt 0.878805 0.241070
vt 0.821161 0.237864
vt 0.746136 0.226114
vt 0.584883 0.448201
vt 0.567460 0.380792
vt 0.644465 0.414037
vt 0.899751 0.278046
vt 0.979932 0.243988
vt 0.878805 0.348722
vt 0.527752 0.314332
vt 0.585400 0.284038
vt 0.591497 0.400182
vt 0.513094 0.264685
vt 0.491960 0.155843
vt 0.443979 0.044475
vt 0.454399 0.000000
vt 0.383025 0.862834
vt 0.341547 0.779413
vt 0.339201 0.877462
vt 0.263666 0.858534
vt 0.199591 0.886664
vt 0.114955 0.897722
vt 0.066990 0.432646
vt 0.138224 0.343396
vt 0.169468 0.403910
vt 0.198191 0.259599
vt 0.881525 0.186101
vt 0.878805 0.088943
vt 0.947104 0.109033
vt 0.947104 0.018373
vt 0.885113 0.000000
vt 0.841877 0.304116
vt 0.792566 0.305643
vt 0.712572 0.297887
vt 0.517631 0.490837
vt 0.472903 0.398707
vt 0.451186 0.359664
vt 0.457696 0.272412
vt 0.091801 0.971683
vt 0.024526 0.871344
vt 0.104627 0.881701
vt 0.104627 0.756581
vt 0.000000 0.809476
vt 0.569052 0.606184
vt 0.525945 0.507531
vt 0.568345 0.490837
vt 0.557322 0.634225
vt 0.495366 0.553381
vt 0.550223 0.664834
vt 0.478357 0.622421
vt 0.525315 0.691400
vt 0.428200 0.690984
vt 0.480486 0.747958
vt 0.383025 0.775642
vt 0.454894 0.802471
vt 0.031754 0.363901
vt 0.045327 0.347776
vt 0.127671 0.238840
vt 0.262707 0.073846
vt 0.266197 0.188199
vt 0.328303 0.117718
vt 0.193114 0.031873
vt 0.276881 0.036140
vt 0.800744 0.365766
vt 0.697471 0.363839
vt 0.653142 0.357927
vt 0.425663 0.486288
vt 0.409335 0.443226
vt 0.404014 0.409045
vt 0.388102 0.372587
vt 0.388649 0.320254
vt 0.446567 0.145494
vt 0.389846 0.180636
vt 0.383025 0.154374
vt 0.432777 0.076737
vt 0.646976 0.657685
vt 0.624929 0.680909
vt 0.620670 0.703738
vt 0.589728 0.758351
vt 0.568055 0.795093
vt 0.007260 0.257910
vt 0.034379 0.229672
vt 0.116843 0.129969
vt 0.181378 0.051926
vt 0.778616 0.428149
vt 0.869779 0.582509
vt 0.746264 0.495888
vt 0.789587 0.490837
vt 0.775343 0.664874
vt 0.719842 0.533965
vt 0.712729 0.565873
vt 0.686556 0.597644
vt 0.691345 0.648372
vt 0.786982 0.814091
vt 0.703728 0.783682
vt 0.693310 0.807598
vt 0.671886 0.755086
vt 0.686556 0.876909
vt 0.730533 0.825033
vt 0.730533 0.923255
vt 0.686556 0.802471
vt 0.000000 0.137612
vt 0.531604 0.903661
vt 0.494073 0.894508
vt 0.549115 0.802471
vt 0.031915 0.118422
vt 0.122568 0.000000
vt 0.800778 0.680086
vt 0.803314 0.764315
vt 0.703280 0.814091
vt 0.549115 0.937808
vt 0.869779 0.715388
s 1
usemtl Material_with_Texture.269
f 1/1/1 2/2/2 3/3/3
f 2/2/2 4/4/4 3/3/3
f 4/5/4 5/6/5 3/7/3
f 5/8/5 6/9/6 3/3/3
f 6/9/6 7/10/7 3/3/3
f 7/10/7 8/11/8 3/3/3
f 8/11/8 1/1/1 3/3/3
f 9/12/9 10/13/10 1/1/1
f 10/13/10 2/2/2 1/1/1
f 10/13/10 11/14/11 2/2/2
f 11/15/11 4/16/4 2/17/2
f 11/18/11 12/19/12 4/20/4
f 12/21/12 13/22/13 4/5/4
f 13/22/13 5/6/5 4/5/4
f 13/22/13 14/23/14 5/6/5
f 14/23/14 6/24/6 5/6/5
f 14/25/14 15/26/15 6/27/6
f 15/26/15 7/28/7 6/27/6
f 15/26/15 16/29/16 7/28/7
f 16/30/16 17/31/17 7/10/7
f 17/31/17 8/11/8 7/10/7
f 17/31/17 9/12/9 8/11/8
f 9/12/9 1/1/1 8/11/8
f 18/32/18 19/33/19 9/34/9
f 19/33/19 10/35/10 9/34/9
f 19/33/19 20/36/20 10/35/10
f 20/36/20 11/37/11 10/35/10
f 20/36/20 12/38/12 11/37/11
f 20/36/20 21/39/21 12/38/12
f 21/40/21 13/22/13 12/21/12
f 21/41/21 22/42/22 13/43/13
f 22/42/22 23/44/23 13/43/13
f 23/44/23 14/45/14 13/43/13
f 23/46/23 24/47/24 14/48/14
f 24/49/24 25/50/25 14/51/14
f 25/52/25 15/26/15 14/25/14
f 25/52/25 26/53/26 15/26/15
f 26/53/26 16/29/16 15/26/15
f 26/54/26 27/55/27 16/30/16
f 27/55/27 28/56/28 16/30/16
f 28/56/28 17/31/17 16/30/16
f 28/57/28 29/58/29 17/59/17
f 29/58/29 9/60/9 17/59/17
f 29/58/29 18/61/18 9/60/9
f 30/62/30 19/33/19 18/32/18
f 30/62/30 31/63/31 19/33/19
f 31/63/31 20/36/20 19/33/19
f 31/63/31 32/64/32 20/36/20
f 32/64/32 33/65/33 20/36/20
f 33/65/33 21/39/21 20/36/20
f 33/66/33 34/67/34 21/68/21
f 34/69/34 22/70/22 21/71/21
f 34/72/34 35/73/35 22/42/22
f 35/73/35 23/44/23 22/42/22
f 35/73/35 36/74/36 23/44/23
f 36/75/36 24/47/24 23/46/23
f 36/76/36 37/77/37 24/78/24
f 37/77/37 25/79/25 24/78/24
f 37/77/37 38/80/38 25/79/25
f 38/80/38 39/81/39 25/79/25
f 39/82/39 40/83/40 25/84/25
f 40/85/40 26/53/26 25/52/25
f 40/85/40 41/86/41 26/53/26
f 41/86/41 27/87/27 26/53/26
f 41/88/41 28/56/28 27/55/27
f 41/88/41 42/89/42 28/56/28
f 42/89/42 43/90/43 28/56/28
f 43/90/43 44/91/44 28/56/28
f 44/92/44 29/58/29 28/57/28
f 44/92/44 45/93/45 29/58/29
f 45/93/45 18/61/18 29/58/29
f 45/93/45 30/94/30 18/61/18
f 46/95/46 47/96/47 30/62/30
f 47/96/47 31/63/31 30/62/30
f 47/96/47 48/97/48 31/63/31
f 48/97/48 32/64/32 31/63/31
f 48/98/48 49/99/49 32/100/32
f 49/101/49 50/102/50 32/103/32
f 50/102/50 33/66/33 32/103/32
f 50/102/50 34/67/34 33/66/33
f 50/104/50 35/105/35 34/106/34
f 50/104/50 51/107/51 35/105/35
f 51/107/51 36/76/36 35/105/35
f 51/107/51 52/108/52 36/76/36
f 52/108/52 37/77/37 36/76/36
f 52/108/52 53/109/53 37/77/37
f 53/109/53 38/80/38 37/77/37
f 53/109/53 54/110/54 38/80/38
f 54/111/54 39/82/39 38/112/38
f 54/111/54 55/113/55 39/82/39
f 55/113/55 40/83/40 39/82/39
f 55/113/55 56/114/56 40/83/40
f 56/114/56 41/88/41 40/83/40
f 56/114/56 57/115/57 41/88/41
f 57/115/57 42/89/42 41/88/41
f 57/115/57 58/116/58 42/89/42
f 58/116/58 43/90/43 42/89/42
f 58/117/58 59/118/59 43/119/43
f 59/118/59 44/92/44 43/119/43
f 59/118/59 60/120/60 44/92/44
f 60/120/60 45/93/45 44/92/44
f 60/121/60 61/122/61 45/123/45
f 61/122/61 30/124/30 45/123/45
f 61/122/61 46/125/46 30/124/30
f 62/126/62 47/96/47 46/95/46
f 62/126/62 63/127/63 47/96/47
f 63/127/63 48/97/48 47/96/47
f 63/127/63 64/128/64 48/97/48
f 64/129/64 49/99/49 48/98/48
f 64/129/64 50/104/50 49/99/49
f 64/129/64 65/130/65 50/104/50
f 65/130/65 51/107/51 50/104/50
f 65/130/65 66/131/66 51/107/51
f 66/131/66 67/132/67 51/107/51
f 67/132/67 52/108/52 51/107/51
f 67/133/67 68/134/68 52/135/52
f 68/134/68 53/136/53 52/135/52
f 68/134/68 69/137/69 53/136/53
f 69/138/69 54/139/54 53/140/53
f 69/138/69 70/141/70 54/139/54
f 70/141/70 55/142/55 54/139/54
f 70/141/70 71/143/71 55/142/55
f 71/143/71 56/144/56 55/142/55
f 71/143/71 72/145/72 56/144/56
f 72/145/72 57/146/57 56/144/56
f 72/145/72 73/147/73 57/146/57
f 73/147/73 58/148/58 57/146/57
f 73/147/73 74/149/74 58/148/58
f 74/150/74 75/151/75 58/117/58
f 75/151/75 59/118/59 58/117/58
f 75/151/75 76/152/76 59/118/59
f 76/152/76 60/120/60 59/118/59
f 76/152/76 62/153/62 60/120/60
f 62/153/62 61/154/61 60/120/60
f 62/153/62 46/155/46 61/154/61
f 77/156/77 63/157/63 62/153/62
f 77/158/77 78/159/78 63/127/63
f 78/159/78 64/128/64 63/127/63
f 78/159/78 79/160/79 64/128/64
f 79/161/79 65/130/65 64/129/64
f 79/161/79 80/162/80 65/130/65
f 80/162/80 81/163/81 65/130/65
f 81/163/81 66/131/66 65/130/65
f 81/163/81 82/164/82 66/131/66
f 82/164/82 83/165/83 66/131/66
f 83/165/83 67/132/67 66/131/66
f 83/165/83 68/166/68 67/132/67
f 83/165/83 84/167/84 68/166/68
f 84/167/84 85/168/85 68/166/68
f 85/168/85 69/169/69 68/166/68
f 85/170/85 70/141/70 69/138/69
f 85/170/85 86/171/86 70/141/70
f 86/171/86 71/143/71 70/141/70
f 86/171/86 87/172/87 71/143/71
f 87/172/87 72/145/72 71/143/71
f 87/172/87 88/173/88 72/145/72
f 88/173/88 73/147/73 72/145/72
f 88/173/88 89/174/89 73/147/73
f 89/174/89 74/149/74 73/147/73
f 89/175/89 75/151/75 74/150/74
f 89/175/89 90/176/90 75/151/75
f 90/176/90 76/152/76 75/151/75
f 90/176/90 91/177/91 76/152/76
f 91/177/91 62/153/62 76/152/76
f 91/177/91 92/178/92 62/153/62
f 92/178/92 77/156/77 62/153/62
f 93/179/93 78/159/78 77/158/77
f 93/180/93 79/181/79 78/182/78
f 93/180/93 94/183/94 79/181/79
f 94/183/94 80/184/80 79/181/79
f 94/183/94 81/185/81 80/184/80
f 94/183/94 82/186/82 81/185/81
f 94/183/94 83/187/83 82/186/82
f 94/183/94 95/188/95 83/187/83
f 95/188/95 84/189/84 83/187/83
f 95/188/95 85/190/85 84/189/84
f 95/191/95 86/171/86 85/170/85
f 95/191/95 87/172/87 86/171/86
f 95/192/95 96/193/96 87/194/87
f 96/195/96 88/173/88 87/172/87
f 96/195/96 89/174/89 88/173/88
f 96/196/96 90/176/90 89/175/89
f 96/197/96 97/198/97 90/199/90
f 97/200/97 91/177/91 90/176/90
f 97/200/97 92/178/92 91/177/91
f 97/200/97 93/201/93 92/178/92
f 93/201/93 77/156/77 92/178/92
f 98/202/98 94/183/94 93/180/93
f 98/202/98 95/188/95 94/183/94
f 98/202/98 99/203/99 95/188/95
f 99/204/99 96/193/96 95/192/95
f 99/205/99 97/198/97 96/197/96
f 99/203/99 93/180/93 97/206/97
f 99/203/99 98/202/98 93/180/93
