# Blender 4.3.0
# www.blender.org
mtllib third_cuneiform_rv.mtl
o third_cuneiform_rv
v 0.097881 0.028891 0.004987
v 0.096248 0.028286 0.005175
v 0.096699 0.026871 0.007478
v 0.097407 0.027728 0.006365
v 0.098692 0.029804 0.002838
v 0.095614 0.027187 0.006630
v 0.096773 0.029435 -0.000690
v 0.095146 0.028181 0.004653
v 0.093725 0.029727 -0.001111
v 0.095830 0.025888 0.008276
v 0.095860 0.025360 0.008496
v 0.096731 0.026299 0.007676
v 0.098176 0.027915 0.005055
v 0.098652 0.028430 0.003548
v 0.098691 0.030020 0.000820
v 0.099046 0.028855 0.002050
v 0.099064 0.028952 0.000958
v 0.089573 0.028362 0.002209
v 0.095196 0.029299 -0.001098
v 0.097902 0.029227 -0.000357
v 0.095398 0.017276 -0.000729
v 0.089777 0.019828 -0.002824
v 0.090368 0.029324 0.001281
v 0.090678 0.030810 -0.001545
v 0.092584 0.029903 -0.002825
v 0.093165 0.029570 -0.002200
v 0.093689 0.029132 -0.001602
v 0.085980 0.024033 0.006448
v 0.093242 0.021802 0.009159
v 0.094980 0.024372 0.009192
v 0.094683 0.023091 0.008521
v 0.094335 0.021632 0.007675
v 0.098897 0.029024 0.000021
v 0.084999 0.031631 -0.001693
v 0.088506 0.029777 0.000629
v 0.094013 0.019984 0.006657
v 0.093762 0.014091 -0.000072
v 0.093737 0.015282 -0.002638
v 0.094242 0.014751 -0.001078
v 0.094280 0.014969 -0.002222
v 0.090418 0.015743 -0.003795
v 0.089282 0.016923 -0.004247
v 0.093144 0.015514 -0.002788
v 0.092316 0.015820 -0.002980
v 0.087828 0.020684 -0.005243
v 0.090936 0.030003 -0.005264
v 0.092672 0.029589 -0.003329
v 0.085740 0.032936 -0.006538
v 0.091116 0.030723 -0.004123
v 0.089234 0.031434 -0.006183
v 0.088557 0.021812 0.006908
v 0.091302 0.021032 0.007829
v 0.082290 0.026311 0.004569
v 0.092315 0.020910 0.008331
v 0.085645 0.021771 0.005308
v 0.083994 0.022757 0.004340
v 0.093117 0.021120 0.008754
v 0.092958 0.020302 0.008165
v 0.093652 0.020953 0.007983
v 0.093434 0.019628 0.006825
v 0.076996 0.027238 0.000267
v 0.080552 0.031048 -0.003834
v 0.084125 0.032484 -0.006500
v 0.092901 0.013948 0.002379
v 0.093073 0.013723 0.001516
v 0.091182 0.013373 0.003285
v 0.092566 0.017794 0.005828
v 0.092402 0.013715 0.002916
v 0.093876 0.014294 -0.001262
v 0.093438 0.013753 -0.000278
v 0.093120 0.013546 0.000445
v 0.093953 0.014483 -0.002307
v 0.093133 0.014097 -0.002986
v 0.091965 0.015245 -0.003213
v 0.091607 0.014770 -0.003299
v 0.090205 0.014043 -0.002815
v 0.089618 0.015430 -0.003672
v 0.088533 0.016189 -0.004249
v 0.084445 0.017458 -0.006503
v 0.087826 0.018038 -0.005800
v 0.084047 0.027609 -0.006423
v 0.085775 0.028439 -0.006888
v 0.089009 0.030981 -0.006691
v 0.091123 0.030457 -0.004747
v 0.087074 0.031703 -0.007208
v 0.085249 0.032284 -0.007448
v 0.092169 0.020122 0.007757
v 0.082728 0.022291 0.002417
v 0.080104 0.023487 0.001025
v 0.087152 0.015608 -0.001243
v 0.085888 0.015633 -0.002579
v 0.084701 0.015704 -0.003692
v 0.090544 0.015703 0.003104
v 0.081843 0.016694 -0.004863
v 0.076318 0.027136 -0.001040
v 0.077986 0.024331 -0.000418
v 0.077761 0.024407 -0.001375
v 0.080173 0.030834 -0.004317
v 0.077545 0.028881 -0.003131
v 0.081444 0.031500 -0.005053
v 0.082500 0.031699 -0.006048
v 0.083855 0.032048 -0.006786
v 0.091669 0.013084 0.002652
v 0.092676 0.013506 0.001981
v 0.092780 0.013355 0.001175
v 0.091016 0.012586 0.002315
v 0.089834 0.013823 0.002491
v 0.092039 0.012982 -0.001651
v 0.091487 0.012741 0.002207
v 0.088382 0.014427 -0.002289
v 0.088695 0.014609 -0.002702
v 0.089162 0.014880 -0.003403
v 0.083801 0.016256 -0.004457
v 0.087315 0.015004 -0.002864
v 0.081017 0.017361 -0.006338
v 0.082411 0.019457 -0.007841
v 0.083629 0.019026 -0.007627
v 0.077450 0.025455 -0.003713
v 0.079659 0.027960 -0.004538
v 0.079799 0.029252 -0.004568
v 0.077845 0.023213 -0.002152
v 0.078952 0.020923 -0.004926
v 0.079459 0.018059 -0.006246
v 0.079106 0.019213 -0.005683
v 0.087177 0.015128 -0.001818
v 0.088553 0.014723 0.000626
v 0.085966 0.015262 -0.003096
v 0.077178 0.024306 -0.002561
v 0.076870 0.024771 -0.003236
v 0.077660 0.026661 -0.003284
v 0.077587 0.027809 -0.003181
v 0.077880 0.023238 -0.002959
v 0.079930 0.030445 -0.004590
v 0.078579 0.028507 -0.003874
v 0.090021 0.012555 0.001511
v 0.090621 0.012482 0.001816
v 0.089203 0.013509 0.000997
v 0.088117 0.014275 -0.001878
v 0.088024 0.014064 -0.001354
v 0.089379 0.012959 0.000870
v 0.087200 0.014791 -0.002406
v 0.081146 0.017868 -0.006670
v 0.077304 0.024212 -0.004162
v 0.079384 0.019666 -0.006231
v 0.079661 0.018698 -0.006158
v 0.078340 0.021342 -0.005447
vn 0.3541 0.7657 0.5369
vn -0.2600 0.8748 0.4087
vn 0.2550 0.6074 0.7523
vn 0.8901 0.1385 0.4341
vn 0.4579 0.8372 0.2991
vn -0.2512 0.7846 0.5669
vn 0.1658 0.7176 -0.6764
vn -0.1973 0.8942 0.4019
vn 0.3160 0.9342 -0.1655
vn -0.0087 0.5645 0.8254
vn 0.6530 -0.0169 0.7572
vn 0.7921 -0.0637 0.6071
vn 0.9282 -0.0853 0.3622
vn 0.9545 -0.1571 0.2536
vn 0.4247 0.8914 -0.1583
vn 0.9920 -0.0382 0.1200
vn 0.9973 0.0199 -0.0710
vn -0.1563 0.7546 0.6373
vn 0.2275 0.3049 -0.9248
vn 0.3522 0.3341 -0.8743
vn 0.9165 -0.1945 -0.3495
vn 0.6030 0.0383 -0.7968
vn -0.0176 0.8545 0.5192
vn 0.2578 0.9287 0.2666
vn 0.5751 0.7912 -0.2077
vn 0.7807 0.4799 -0.4003
vn 0.6144 0.1785 -0.7685
vn -0.3956 0.1875 0.8991
vn 0.1197 -0.2265 0.9666
vn -0.0334 0.2191 0.9751
vn 0.7428 -0.4467 0.4988
vn 0.7952 -0.4442 0.4126
vn 0.7716 0.1632 -0.6148
vn -0.0919 0.8942 0.4382
vn -0.0056 0.7918 0.6108
vn 0.7248 -0.4693 0.5044
vn 0.8142 -0.5638 0.1386
vn 0.5035 0.1292 -0.8543
vn 0.8630 -0.5050 0.0114
vn 0.8205 -0.2642 -0.5070
vn 0.2298 -0.1377 -0.9635
vn 0.5244 -0.0710 -0.8485
vn 0.3009 0.1879 -0.9350
vn 0.3281 0.1985 -0.9235
vn 0.6302 0.0198 -0.7762
vn 0.6505 0.0524 -0.7577
vn 0.8149 0.2244 -0.5344
vn 0.0723 0.9726 -0.2210
vn 0.5150 0.8475 -0.1284
vn 0.5343 0.7382 -0.4118
vn -0.4018 -0.3724 0.8366
vn -0.4209 -0.4300 0.7987
vn -0.4155 0.3056 0.8567
vn -0.3721 -0.4492 0.8123
vn -0.5437 -0.4875 0.6832
vn -0.6501 -0.4160 0.6359
vn 0.2410 -0.5652 0.7890
vn 0.2117 -0.6283 0.7486
vn 0.6640 -0.5029 0.5533
vn 0.5729 -0.5727 0.5863
vn -0.7486 0.2687 0.6062
vn -0.4096 0.8835 0.2272
vn -0.3643 0.8988 -0.2438
vn 0.7729 -0.5263 0.3545
vn 0.7842 -0.5685 0.2488
vn -0.1563 -0.5682 0.8079
vn 0.0665 -0.6231 0.7793
vn 0.5644 -0.6511 0.5074
vn 0.7540 -0.6539 -0.0628
vn 0.6306 -0.7758 -0.0231
vn 0.5907 -0.8043 0.0644
vn 0.7359 -0.5305 -0.4207
vn 0.4058 -0.4938 -0.7691
vn 0.3244 0.0761 -0.9429
vn 0.1068 -0.2965 -0.9490
vn -0.1611 -0.7507 -0.6407
vn 0.0882 -0.4512 -0.8880
vn 0.3224 -0.3667 -0.8727
vn 0.0848 -0.6793 -0.7289
vn 0.5239 -0.2307 -0.8199
vn -0.2334 -0.0318 -0.9719
vn 0.0248 -0.1741 -0.9844
vn 0.4709 0.0946 -0.8771
vn 0.6880 0.5616 -0.4596
vn 0.2855 0.3120 -0.9062
vn -0.1300 0.3998 -0.9073
vn -0.3350 -0.5689 0.7511
vn -0.6332 -0.5289 0.5651
vn -0.5933 -0.5472 0.5904
vn -0.6610 -0.5778 0.4787
vn -0.5260 -0.6999 0.4832
vn -0.3289 -0.9443 -0.0099
vn -0.6590 -0.3211 0.6801
vn -0.4037 -0.9117 0.0768
vn -0.9710 0.1863 0.1497
vn -0.7586 -0.4602 0.4611
vn -0.8872 -0.3609 0.2873
vn -0.5916 0.7867 -0.1765
vn -0.7948 0.5295 -0.2966
vn -0.4710 0.8626 -0.1843
vn -0.5504 0.4526 -0.7016
vn -0.4672 0.3086 -0.8285
vn 0.4355 -0.7561 0.4886
vn 0.6176 -0.7208 0.3147
vn 0.5519 -0.8299 0.0815
vn -0.0314 -0.9063 0.4214
vn -0.7102 -0.2510 0.6577
vn 0.1577 -0.9346 -0.3189
vn 0.3988 -0.8960 0.1953
vn -0.2216 -0.8699 -0.4407
vn -0.2447 -0.8185 -0.5198
vn -0.0560 -0.6927 -0.7190
vn -0.0792 -0.8478 -0.5244
vn -0.1940 -0.8839 -0.4255
vn -0.2360 -0.7891 -0.5671
vn -0.1473 -0.1247 -0.9812
vn 0.1802 -0.2585 -0.9490
vn -0.6432 0.2943 -0.7069
vn -0.4531 0.0460 -0.8903
vn -0.4734 0.0153 -0.8807
vn -0.8674 -0.4507 0.2108
vn -0.7839 -0.5065 0.3590
vn -0.7872 -0.4300 -0.4421
vn -0.9609 -0.2742 -0.0385
vn -0.6604 -0.6327 0.4044
vn -0.8464 -0.1638 0.5067
vn -0.3402 -0.9402 -0.0182
vn -0.8240 -0.5224 0.2193
vn -0.9579 -0.1449 -0.2477
vn -0.7343 0.2159 -0.6436
vn -0.7397 0.0093 -0.6729
vn -0.9042 -0.4228 0.0603
vn -0.6285 0.3938 -0.6708
vn -0.5474 0.0364 -0.8361
vn -0.4191 -0.8864 0.1966
vn 0.1528 -0.9017 -0.4044
vn -0.8369 -0.3653 0.4076
vn -0.1806 -0.8957 -0.4064
vn -0.5830 -0.8114 -0.0411
vn -0.6394 -0.7634 0.0917
vn -0.4304 -0.8993 -0.0776
vn -0.2620 -0.4068 -0.8752
vn -0.8118 -0.0209 -0.5836
vn -0.6959 -0.0664 -0.7151
vn -0.4741 0.0125 -0.8804
vn -0.8697 -0.2712 -0.4124
vt 0.232083 0.025420
vt 0.201152 0.050165
vt 0.155780 0.006833
vt 0.191644 0.011385
vt 0.285420 0.039467
vt 0.158264 0.038815
vt 0.309165 0.111007
vt 0.193566 0.075967
vt 0.279778 0.175643
vt 0.121069 0.007803
vt 0.111922 0.001089
vt 0.146467 0.000000
vt 0.728302 0.788441
vt 0.697653 0.769814
vt 0.693033 0.760055
vt 0.763037 0.809071
vt 0.762920 0.793640
vt 0.799706 0.800982
vt 0.816788 0.824474
vt 0.318132 0.062572
vt 0.318132 0.000260
vt 0.346507 0.000000
vt 0.355872 0.014547
vt 0.334604 0.027931
vt 0.835521 0.805716
vt 0.160694 0.209478
vt 0.360267 0.113917
vt 0.347957 0.142853
vt 0.357275 0.080328
vt 0.360928 0.054382
vt 0.601820 0.051900
vt 0.557269 0.193599
vt 0.196150 0.211154
vt 0.259952 0.246084
vt 0.359209 0.187143
vt 0.322667 0.209048
vt 0.360999 0.166786
vt 0.365062 0.147360
vt 0.000000 0.201560
vt 0.026326 0.018302
vt 0.235247 0.607830
vt 0.223553 0.538605
vt 0.235247 0.499248
vt 0.078535 0.003321
vt 0.654411 0.679478
vt 0.667221 0.736500
vt 0.643934 0.711239
vt 0.668014 0.642768
vt 0.363674 0.030311
vt 0.851883 0.525333
vt 0.859166 0.802063
vt 0.877935 0.796708
vt 0.198959 0.361714
vt 0.187348 0.256826
vt 0.685303 0.601754
vt 0.820716 0.448739
vt 0.657965 0.098618
vt 0.846968 0.461585
vt 0.872028 0.460237
vt 0.661413 0.081808
vt 0.652131 0.176578
vt 0.629896 0.208547
vt 0.653289 0.112462
vt 0.646944 0.131481
vt 0.559917 0.264991
vt 0.378223 0.249943
vt 0.371040 0.190807
vt 0.296339 0.408679
vt 0.303090 0.264626
vt 0.318132 0.327557
vt 0.292836 0.216926
vt 0.352214 0.234764
vt 0.354085 0.745663
vt 0.352477 0.810611
vt 0.325090 0.672729
vt 0.007652 0.308253
vt 0.346557 0.834551
vt 0.318994 0.849463
vt 0.379963 0.679429
vt 0.379480 0.630029
vt 0.318132 0.564670
vt 0.634268 0.625089
vt 0.627394 0.641886
vt 0.336539 0.850397
vt 0.644649 0.604301
vt 0.655012 0.623653
vt 0.676522 0.589341
vt 0.014960 0.461638
vt 0.166979 0.465058
vt 0.269692 0.435781
vt 0.760950 0.449386
vt 0.780601 0.442351
vt 0.726700 0.424071
vt 0.688642 0.538818
vt 0.745066 0.442190
vt 0.847372 0.447691
vt 0.822071 0.437510
vt 0.803727 0.433785
vt 0.671361 0.086743
vt 0.684167 0.108982
vt 0.870601 0.446727
vt 0.660175 0.138417
vt 0.669830 0.143980
vt 0.890519 0.504295
vt 0.890133 0.467515
vt 0.926218 0.478144
vt 0.908007 0.513043
vt 0.888150 0.542245
vt 0.908380 0.546234
vt 0.927910 0.652879
vt 0.877935 0.595344
vt 0.619561 0.260633
vt 0.421505 0.380428
vt 0.413792 0.358714
vt 0.812734 0.113039
vt 0.846892 0.141891
vt 0.719822 0.248511
vt 0.368181 0.308354
vt 0.354272 0.299540
vt 0.364104 0.241707
vt 0.910285 0.193794
vt 0.890133 0.248511
vt 0.353920 0.353736
vt 0.339944 0.392819
vt 0.318498 0.374715
vt 0.200036 0.782213
vt 0.173970 0.773691
vt 0.193774 0.748004
vt 0.368576 0.834421
vt 0.418137 0.592506
vt 0.420896 0.519733
vt 0.372108 0.417638
vt 0.587211 0.699859
vt 0.608333 0.663483
vt 0.625072 0.630375
vt 0.515378 0.804179
vt 0.627394 0.558421
vt 0.359281 0.850214
vt 0.437801 0.845333
vt 0.024590 0.487763
vt 0.430332 0.458775
vt 0.444800 0.443489
vt 0.395017 0.392819
vt 0.211323 0.639692
vt 0.206961 0.559796
vt 0.223553 0.644734
vt 0.092239 0.499248
vt 0.202001 0.464326
vt 0.206767 0.676430
vt 0.191130 0.706068
vt 0.182535 0.740537
vt 0.743955 0.420454
vt 0.767119 0.436207
vt 0.785070 0.430168
vt 0.745218 0.401806
vt 0.549950 0.842683
vt 0.555300 0.806238
vt 0.578473 0.837792
vt 0.839052 0.399904
vt 0.751596 0.409430
vt 0.877935 0.426630
vt 0.878750 0.430323
vt 0.925237 0.422924
vt 0.955906 0.508966
vt 0.943870 0.509727
vt 0.924878 0.511661
vt 0.977296 0.629978
vt 0.996957 0.672613
vt 0.979570 0.600662
vt 0.958215 0.539637
vt 0.983457 0.708793
vt 0.918545 0.724478
vt 0.907745 0.696412
vt 0.607699 0.365831
vt 0.000000 0.574502
vt 0.151891 0.522435
vt 0.132710 0.687997
vt 0.885114 0.075685
vt 0.753564 0.025545
vt 0.775147 0.019207
vt 0.684167 0.000000
vt 0.598047 0.392819
vt 0.910218 0.100716
vt 0.912933 0.144938
vt 0.476757 0.449446
vt 0.559583 0.462425
vt 0.627394 0.487904
vt 0.599499 0.475490
vt 0.604384 0.699179
vt 0.571126 0.753995
vt 0.622825 0.663132
vt 1.000000 0.742988
vt 0.465736 0.421602
vt 0.469296 0.403763
vt 0.223553 0.499248
vt 0.175680 0.536758
vt 0.151790 0.499927
vt 0.192301 0.548226
vt 0.489673 0.440758
vt 0.200954 0.633147
vt 0.188769 0.580047
vt 0.185988 0.616459
vt 0.857463 0.052642
vt 0.591829 0.812479
vt 0.752525 0.392819
vt 0.588207 0.826752
vt 0.584704 0.782469
vt 1.000000 0.422271
vt 0.983919 0.392819
vt 0.299486 0.514276
vt 0.302444 0.499248
vt 0.302444 0.535142
vt 0.966824 0.507765
vt 0.977211 0.501836
vt 0.997085 0.444212
vt 0.972873 0.568030
vt 0.968152 0.534688
vt 0.971323 0.715850
vt 0.127295 0.508976
vt 0.982030 0.763495
vt 0.990321 0.746396
vt 0.066785 0.504288
vt 0.031133 0.509590
vt 0.169899 0.598366
vt 0.561221 0.441713
vt 0.601389 0.469030
vt 0.302793 0.499248
vt 0.318132 0.537124
vt 0.302444 0.537124
vt 0.249645 0.515962
vt 0.235247 0.517051
vt 0.253357 0.499248
vt 0.253357 0.544082
vt 0.998443 0.757587
vt 0.619480 0.696737
vt 0.614105 0.730335
vt 0.493681 0.406904
vt 0.595673 0.790091
s 1
usemtl Material_with_Texture.273
f 1/1/1 2/2/2 3/3/3
f 1/1/1 3/3/3 4/4/4
f 1/1/1 5/5/5 2/2/2
f 6/6/6 3/3/3 2/2/2
f 7/7/7 2/2/2 5/5/5
f 8/8/8 2/2/2 9/9/9
f 7/7/7 9/9/9 2/2/2
f 6/6/6 2/2/2 8/8/8
f 3/3/3 6/6/6 10/10/10
f 11/11/11 12/12/12 3/3/3
f 11/11/11 3/3/3 10/10/10
f 4/13/4 3/14/3 12/15/12
f 12/15/12 1/16/1 4/13/4
f 13/17/13 14/18/14 1/16/1
f 14/18/14 5/19/5 1/16/1
f 12/15/12 13/17/13 1/16/1
f 7/7/7 5/5/5 15/20/15
f 5/21/5 16/22/16 17/23/17
f 5/21/5 17/23/17 15/24/15
f 14/18/14 16/25/16 5/19/5
f 6/6/6 18/26/18 10/10/10
f 18/26/18 6/6/6 8/8/8
f 19/27/19 9/28/9 7/29/7
f 15/24/15 20/30/20 7/29/7
f 21/31/21 22/32/22 7/29/7
f 22/32/22 19/27/19 7/29/7
f 7/29/7 20/30/20 21/31/21
f 9/9/9 23/33/23 8/8/8
f 23/33/23 18/26/18 8/8/8
f 24/34/24 23/33/23 9/9/9
f 9/28/9 25/35/25 24/36/24
f 25/35/25 9/28/9 26/37/26
f 26/37/26 9/28/9 27/38/27
f 19/27/19 27/38/27 9/28/9
f 10/10/10 18/26/18 28/39/28
f 28/39/28 29/40/29 10/10/10
f 29/41/29 30/42/30 10/43/10
f 30/44/30 11/11/11 10/10/10
f 31/45/31 11/46/11 30/47/30
f 32/48/32 12/15/12 11/46/11
f 32/48/32 11/46/11 31/45/31
f 13/17/13 12/15/12 32/48/32
f 32/48/32 14/18/14 13/17/13
f 32/48/32 16/25/16 14/18/14
f 15/24/15 17/23/17 33/49/33
f 15/24/15 33/49/33 20/30/20
f 21/50/21 17/51/17 16/25/16
f 21/50/21 16/25/16 32/48/32
f 21/50/21 33/52/33 17/51/17
f 18/26/18 34/53/34 28/39/28
f 34/53/34 18/26/18 35/54/35
f 23/33/23 35/54/35 18/26/18
f 22/32/22 27/38/27 19/27/19
f 20/30/20 33/49/33 21/31/21
f 36/55/36 37/56/37 21/50/21
f 21/50/21 32/48/32 36/55/36
f 21/31/21 38/57/38 22/32/22
f 21/50/21 39/58/39 40/59/40
f 37/56/37 39/58/39 21/50/21
f 40/60/40 38/57/38 21/31/21
f 22/32/22 41/61/41 42/62/42
f 22/32/22 43/63/43 44/64/44
f 45/65/45 46/66/46 22/32/22
f 44/64/44 41/61/41 22/32/22
f 22/32/22 42/62/42 45/65/45
f 22/32/22 47/67/47 27/38/27
f 46/66/46 47/67/47 22/32/22
f 38/57/38 43/63/43 22/32/22
f 23/33/23 24/34/24 35/54/35
f 34/53/34 35/54/35 24/34/24
f 48/68/48 34/53/34 24/34/24
f 49/69/49 50/70/50 24/34/24
f 25/71/25 49/69/49 24/34/24
f 24/34/24 50/70/50 48/68/48
f 26/37/26 47/67/47 25/35/25
f 49/72/49 25/35/25 47/67/47
f 27/38/27 47/67/47 26/37/26
f 51/73/51 52/74/52 28/75/28
f 53/76/53 28/39/28 34/53/34
f 54/77/54 29/78/29 28/75/28
f 54/77/54 28/75/28 52/74/52
f 55/79/55 51/73/51 28/75/28
f 56/80/56 55/79/55 28/75/28
f 53/81/53 56/80/56 28/75/28
f 57/82/57 30/47/30 29/83/29
f 57/84/57 29/78/29 54/77/54
f 58/85/58 30/47/30 57/82/57
f 58/85/58 59/86/59 30/47/30
f 59/86/59 31/45/31 30/47/30
f 59/86/59 32/48/32 31/45/31
f 32/48/32 60/87/60 36/55/36
f 32/48/32 59/86/59 60/87/60
f 61/88/61 53/76/53 34/53/34
f 62/89/62 61/88/61 34/53/34
f 62/89/62 34/53/34 63/90/63
f 63/90/63 34/53/34 48/68/48
f 36/55/36 64/91/64 65/92/65
f 66/93/66 36/55/36 67/94/67
f 60/87/60 67/94/67 36/55/36
f 36/55/36 68/95/68 64/91/64
f 36/55/36 65/92/65 37/56/37
f 36/55/36 66/93/66 68/95/68
f 69/96/69 37/56/37 70/97/70
f 71/98/71 70/97/70 37/56/37
f 71/98/71 37/56/37 65/92/65
f 39/58/39 37/56/37 69/96/69
f 38/57/38 72/99/72 73/100/73
f 43/63/43 38/57/38 73/100/73
f 40/59/40 39/58/39 69/96/69
f 69/96/69 72/101/72 40/59/40
f 38/57/38 40/60/40 72/99/72
f 74/102/74 75/103/75 41/61/41
f 41/104/41 75/105/75 76/106/76
f 41/104/41 76/106/76 77/107/77
f 44/64/44 74/102/74 41/61/41
f 42/108/42 41/104/41 77/107/77
f 77/107/77 78/109/78 42/108/42
f 79/110/79 80/111/80 42/108/42
f 79/110/79 42/108/42 78/109/78
f 45/65/45 42/62/42 80/112/80
f 44/64/44 43/63/43 73/100/73
f 44/64/44 73/100/73 74/102/74
f 80/112/80 81/113/81 45/65/45
f 46/66/46 45/65/45 82/114/82
f 81/115/81 82/116/82 45/117/45
f 46/66/46 83/118/83 50/119/50
f 47/67/47 46/66/46 84/120/84
f 46/66/46 50/119/50 84/120/84
f 82/116/82 83/121/83 46/122/46
f 49/72/49 47/67/47 84/120/84
f 85/123/85 86/124/86 48/125/48
f 48/126/48 86/127/86 63/128/63
f 48/125/48 50/119/50 85/123/85
f 50/119/50 49/72/49 84/120/84
f 85/123/85 50/119/50 83/118/83
f 55/79/55 87/129/87 51/73/51
f 87/129/87 52/74/52 51/73/51
f 87/129/87 54/77/54 52/74/52
f 56/80/56 53/81/53 88/130/88
f 53/81/53 89/131/89 88/130/88
f 61/132/61 89/131/89 53/81/53
f 57/84/57 54/77/54 87/129/87
f 90/133/90 55/79/55 91/134/91
f 55/79/55 92/135/92 91/134/91
f 87/129/87 55/79/55 93/136/93
f 93/136/93 55/79/55 90/133/90
f 55/79/55 56/80/56 88/130/88
f 55/79/55 94/137/94 92/135/92
f 55/79/55 88/130/88 94/137/94
f 58/138/58 57/84/57 87/129/87
f 59/86/59 58/85/58 67/94/67
f 58/138/58 87/129/87 67/139/67
f 59/86/59 67/94/67 60/87/60
f 95/140/95 61/88/61 62/89/62
f 89/131/89 61/132/61 96/141/96
f 61/132/61 97/142/97 96/141/96
f 61/132/61 95/143/95 97/142/97
f 98/144/98 99/145/99 62/146/62
f 62/89/62 99/147/99 95/140/95
f 62/89/62 63/90/63 100/148/100
f 100/149/100 98/144/98 62/146/62
f 100/149/100 63/128/63 101/150/101
f 102/151/102 101/150/101 63/128/63
f 86/127/86 102/151/102 63/128/63
f 64/91/64 68/95/68 103/152/103
f 64/91/64 103/152/103 104/153/104
f 65/92/65 64/91/64 104/153/104
f 105/154/105 65/92/65 104/153/104
f 105/154/105 71/98/71 65/92/65
f 103/152/103 66/93/66 106/155/106
f 66/156/66 67/139/67 93/136/93
f 66/156/66 107/157/107 106/158/106
f 68/95/68 66/93/66 103/152/103
f 107/157/107 66/156/66 93/136/93
f 87/129/87 93/136/93 67/139/67
f 70/97/70 72/101/72 69/96/69
f 70/97/70 71/98/71 108/159/108
f 72/101/72 70/97/70 108/159/108
f 71/98/71 105/154/105 109/160/109
f 71/98/71 109/160/109 108/159/108
f 72/101/72 108/159/108 73/161/73
f 76/106/76 73/162/73 108/163/108
f 76/106/76 75/105/75 73/162/73
f 73/100/73 75/103/75 74/102/74
f 76/106/76 110/164/110 111/165/111
f 76/106/76 111/165/111 112/166/112
f 110/164/110 76/106/76 108/163/108
f 76/106/76 112/166/112 77/107/77
f 112/166/112 78/109/78 77/107/77
f 112/166/112 79/110/79 78/109/78
f 112/166/112 111/165/111 79/110/79
f 113/167/113 94/168/94 79/110/79
f 92/169/92 79/110/79 114/170/114
f 115/171/115 79/110/79 94/168/94
f 79/110/79 116/172/116 117/173/117
f 115/171/115 116/172/116 79/110/79
f 110/164/110 114/170/114 79/110/79
f 110/164/110 79/110/79 111/165/111
f 113/167/113 79/110/79 92/169/92
f 117/173/117 80/111/80 79/110/79
f 117/174/117 81/113/81 80/112/80
f 116/175/116 118/176/118 81/177/81
f 102/178/102 82/116/82 81/115/81
f 119/179/119 120/180/120 81/115/81
f 119/179/119 81/115/81 118/181/118
f 120/180/120 102/178/102 81/115/81
f 81/113/81 117/174/117 116/182/116
f 82/116/82 102/178/102 86/183/86
f 82/116/82 86/183/86 85/184/85
f 82/116/82 85/184/85 83/121/83
f 88/130/88 121/185/121 122/186/122
f 88/130/88 123/187/123 94/137/94
f 88/130/88 124/188/124 123/187/123
f 89/131/89 121/185/121 88/130/88
f 122/186/122 124/188/124 88/130/88
f 89/131/89 96/141/96 121/185/121
f 91/134/91 125/189/125 90/133/90
f 126/190/126 90/133/90 125/189/125
f 90/133/90 126/190/126 93/136/93
f 92/135/92 127/191/127 91/134/91
f 127/191/127 125/189/125 91/134/91
f 92/169/92 94/168/94 113/167/113
f 93/136/93 126/190/126 107/157/107
f 123/192/123 115/171/115 94/168/94
f 95/143/95 128/193/128 97/142/97
f 95/143/95 129/194/129 128/193/128
f 95/195/95 130/196/130 118/176/118
f 95/195/95 118/176/118 129/197/129
f 130/196/130 95/195/95 131/198/131
f 95/195/95 99/145/99 131/198/131
f 97/142/97 121/185/121 96/141/96
f 97/142/97 128/193/128 132/199/132
f 97/142/97 132/199/132 121/185/121
f 133/200/133 99/145/99 98/144/98
f 133/200/133 98/144/98 100/149/100
f 134/201/134 131/198/131 99/145/99
f 134/201/134 99/145/99 133/200/133
f 101/150/101 133/200/133 100/149/100
f 120/202/120 133/200/133 101/150/101
f 102/178/102 120/180/120 101/203/101
f 104/153/104 103/152/103 109/160/109
f 106/155/106 109/160/109 103/152/103
f 109/160/109 105/154/105 104/153/104
f 107/157/107 135/204/135 106/158/106
f 106/155/106 136/205/136 109/160/109
f 135/204/135 136/206/136 106/158/106
f 137/207/137 107/157/107 126/190/126
f 135/204/135 107/157/107 137/207/137
f 135/208/135 108/163/108 109/209/109
f 135/208/135 110/164/110 108/163/108
f 136/210/136 135/211/135 109/212/109
f 138/213/138 110/164/110 139/214/139
f 139/214/139 110/164/110 140/215/140
f 140/215/140 110/164/110 135/208/135
f 138/213/138 114/170/114 110/164/110
f 127/216/127 92/169/92 114/170/114
f 114/170/114 139/214/139 141/217/141
f 138/213/138 139/214/139 114/170/114
f 141/217/141 127/216/127 114/170/114
f 115/171/115 142/218/142 116/172/116
f 115/171/115 123/192/123 142/218/142
f 116/175/116 143/219/143 118/176/118
f 144/220/144 116/172/116 145/221/145
f 142/218/142 145/221/145 116/172/116
f 143/219/143 116/175/116 146/222/146
f 146/222/146 116/175/116 144/223/144
f 129/197/129 118/176/118 143/219/143
f 130/196/130 119/224/119 118/176/118
f 119/224/119 134/201/134 120/202/120
f 119/224/119 130/196/130 134/201/134
f 134/201/134 133/200/133 120/202/120
f 122/186/122 121/185/121 132/199/132
f 122/186/122 146/225/146 144/226/144
f 122/186/122 132/199/132 146/225/146
f 122/227/122 144/228/144 124/229/124
f 145/230/145 123/231/123 124/232/124
f 142/233/142 123/231/123 145/230/145
f 124/234/124 144/220/144 145/221/145
f 126/190/126 125/189/125 141/235/141
f 127/191/127 141/235/141 125/189/125
f 139/236/139 126/190/126 141/235/141
f 137/207/137 126/190/126 139/236/139
f 128/193/128 143/237/143 132/199/132
f 129/194/129 143/237/143 128/193/128
f 130/196/130 131/198/131 134/201/134
f 146/225/146 132/199/132 143/237/143
f 135/204/135 137/207/137 140/238/140
f 140/238/140 137/207/137 139/236/139
