# Blender 4.3.0
# www.blender.org
mtllib tibia_l.mtl
o tibia_l
v 0.006000 -0.031255 -0.003181
v 0.006000 -0.028520 0.008335
v 0.016460 -0.031255 0.009683
v 0.027593 -0.033990 0.003088
v 0.027593 -0.033990 -0.009449
v 0.016009 -0.034675 -0.015491
v 0.006000 -0.035359 -0.013324
v -0.007525 -0.034503 -0.019815
v -0.026973 -0.033649 -0.012754
v -0.026973 -0.033649 0.006393
v -0.007977 -0.031083 0.014009
v 0.006000 -0.038777 0.028074
v 0.023854 -0.040317 0.018777
v 0.030512 -0.041855 0.003937
v 0.030512 -0.041855 -0.010298
v 0.019165 -0.036555 -0.019372
v 0.006000 -0.031255 -0.020178
v -0.011132 -0.042881 -0.024252
v -0.031351 -0.054507 -0.014025
v -0.031351 -0.054507 0.007664
v -0.015821 -0.046642 0.023657
v 0.006000 -0.048694 0.029719
v 0.024485 -0.052627 0.019554
v 0.030804 -0.056559 0.004021
v 0.030804 -0.056559 -0.010382
v 0.024576 -0.045959 -0.026026
v 0.006000 -0.035359 -0.036354
v -0.015371 -0.047497 -0.029463
v -0.027850 -0.059636 -0.013008
v -0.027850 -0.059636 0.006647
v -0.015280 -0.054165 0.022992
v 0.006000 -0.068186 0.023687
v 0.024937 -0.068357 0.020108
v 0.038683 -0.068529 0.006308
v 0.038683 -0.068529 -0.012669
v 0.027371 -0.062202 -0.029463
v 0.006000 -0.055875 -0.037450
v -0.013477 -0.059294 -0.027134
v -0.020554 -0.062715 -0.010890
v -0.020554 -0.062715 0.004528
v -0.011042 -0.065450 0.017780
v 0.006000 -0.079129 0.013818
v 0.022682 -0.080667 0.017336
v 0.039000 -0.082205 0.007241
v 0.039000 -0.082205 -0.013603
v 0.028633 -0.070580 -0.031017
v 0.006000 -0.058953 -0.038273
v -0.011312 -0.069554 -0.024473
v -0.012676 -0.080155 -0.008602
v -0.012676 -0.080155 0.002242
v -0.005362 -0.079642 0.010793
v 0.006000 -0.133499 0.007785
v 0.019616 -0.117256 0.013565
v 0.038389 -0.101014 0.006224
v 0.038389 -0.101014 -0.012585
v 0.024304 -0.084087 -0.025692
v 0.006000 -0.067159 -0.028403
v -0.007256 -0.101014 -0.019482
v -0.010049 -0.134867 -0.007841
v -0.010049 -0.134867 0.001480
v -0.002566 -0.134183 0.007355
v 0.006000 -0.235059 0.005866
v 0.017092 -0.186161 0.010460
v 0.032262 -0.137261 0.004445
v 0.032262 -0.137261 -0.010806
v 0.019797 -0.110418 -0.020148
v 0.006000 -0.083575 -0.020452
v -0.004641 -0.126660 -0.016267
v -0.010049 -0.169746 -0.007841
v -0.010049 -0.169746 0.001480
v -0.001935 -0.202403 0.006578
v 0.006000 -0.304476 0.006689
v 0.014837 -0.254550 0.007688
v 0.024092 -0.204625 0.002072
v 0.024092 -0.204625 -0.008433
v 0.015558 -0.169404 -0.014935
v 0.006000 -0.134183 -0.015243
v -0.001394 -0.202231 -0.012274
v -0.005088 -0.270283 -0.006401
v -0.007569 -0.220015 -0.007121
v -0.007569 -0.220015 0.000760
v -0.000673 -0.287377 0.005027
v 0.006641 -0.368004 0.010593
v 0.014927 -0.320036 0.007798
v 0.019423 -0.271990 0.000716
v 0.019423 -0.271990 -0.007078
v 0.013754 -0.253356 -0.012718
v 0.006000 -0.234718 -0.014147
v -0.002747 -0.286523 -0.013938
v -0.010632 -0.338330 -0.008009
v -0.005088 -0.270283 0.000040
v -0.010632 -0.338330 0.001648
v -0.003919 -0.353205 0.009019
v 0.006000 -0.390306 0.020945
v 0.018624 -0.365173 0.012346
v 0.021174 -0.340039 0.001225
v 0.021174 -0.340039 -0.007586
v 0.014566 -0.320720 -0.013717
v 0.006000 -0.301399 -0.014970
v -0.003198 -0.336963 -0.014492
v -0.011216 -0.372526 -0.008178
v -0.011216 -0.372526 0.001817
v -0.007256 -0.381415 0.013121
v 0.006000 -0.405352 0.023414
v 0.020879 -0.396121 0.015118
v 0.025842 -0.386886 0.002580
v 0.025842 -0.386886 -0.008942
v 0.017812 -0.378509 -0.017707
v 0.006000 -0.370131 -0.020452
v -0.008879 -0.388938 -0.021478
v -0.012391 -0.377167 -0.013907
v -0.023764 -0.407746 -0.011821
v -0.023764 -0.407746 0.005459
v -0.011944 -0.406550 0.018889
v 0.006000 -0.415269 0.017380
v 0.020788 -0.406891 0.015007
v 0.031970 -0.398514 0.004361
v 0.031970 -0.398514 -0.010722
v 0.022051 -0.392871 -0.022920
v 0.006000 -0.387229 -0.027580
v -0.010321 -0.400052 -0.023253
v -0.020846 -0.412876 -0.010974
v -0.020846 -0.412876 0.004614
v -0.009058 -0.414073 0.015340
v 0.006000 -0.403302 0.013269
v 0.018263 -0.405010 0.011902
v 0.028176 -0.406719 0.003259
v 0.028176 -0.406719 -0.009620
v 0.019616 -0.403472 -0.019927
v 0.006000 -0.400223 -0.023742
v -0.005542 -0.406550 -0.017376
v -0.009466 -0.412876 -0.007671
v -0.009466 -0.412876 0.001310
v -0.004190 -0.408089 0.009352
v 0.006000 -0.400565 0.008882
v 0.013214 -0.404839 0.005692
v 0.016505 -0.409115 -0.000131
v 0.016505 -0.409115 -0.006230
v 0.013574 -0.409115 -0.012495
v 0.006000 -0.409115 -0.016339
v -0.002870 -0.410539 -0.013503
v -0.006558 -0.412772 -0.010193
v -0.006558 -0.412772 -0.003417
v -0.001574 -0.410312 0.006135
v 0.006000 -0.403984 -0.003181
vn 0.0268 0.9809 -0.1929
vn 0.0548 0.9952 0.0806
vn 0.2929 0.9067 0.3036
vn 0.6381 0.6989 0.3230
vn 0.6084 0.7419 -0.2818
vn 0.1499 0.9747 -0.1656
vn 0.0105 0.9998 -0.0150
vn -0.1923 0.7966 -0.5731
vn -0.6037 0.6560 -0.4530
vn -0.6598 0.6948 0.2863
vn -0.2163 0.9039 0.3691
vn 0.1021 0.5359 0.8381
vn 0.6646 0.4522 0.5948
vn 0.9378 0.2455 0.2456
vn 0.9347 0.2460 -0.2564
vn 0.4813 0.7899 -0.3800
vn -0.0427 0.9981 0.0443
vn -0.5205 0.7231 -0.4542
vn -0.8814 -0.1587 -0.4449
vn -0.9123 -0.1979 0.3585
vn -0.4990 0.2128 0.8401
vn 0.0933 -0.0213 0.9954
vn 0.7149 0.1198 0.6889
vn 0.9311 0.3369 0.1395
vn 0.9377 0.3109 -0.1553
vn 0.7303 0.3592 -0.5811
vn 0.0016 0.6328 -0.7743
vn -0.6116 0.2640 -0.7459
vn -0.5369 -0.7574 -0.3717
vn -0.6332 -0.7313 0.2535
vn -0.4859 -0.2958 0.8224
vn -0.1202 -0.4586 0.8805
vn 0.4750 -0.1183 0.8720
vn 0.9163 0.2496 0.3131
vn 0.9327 0.2868 -0.2186
vn 0.6875 0.2885 -0.6664
vn -0.0649 0.1314 -0.9892
vn -0.6623 -0.2627 -0.7016
vn -0.6646 -0.6835 -0.3019
vn -0.6128 -0.7793 0.1308
vn -0.5067 -0.5678 0.6487
vn -0.2550 -0.3800 0.8892
vn 0.2026 -0.2436 0.9485
vn 0.8830 -0.0390 0.4677
vn 0.9270 -0.0635 -0.3696
vn 0.4954 -0.1415 -0.8570
vn -0.1277 -0.0788 -0.9887
vn -0.7788 -0.2349 -0.5817
vn -0.9746 -0.1996 -0.1013
vn -0.9013 -0.2575 0.3484
vn -0.5060 -0.3143 0.8032
vn -0.2015 -0.0463 0.9784
vn 0.0912 -0.1032 0.9905
vn 0.8576 -0.1188 0.5004
vn 0.8670 -0.1464 -0.4762
vn 0.1821 -0.3195 -0.9299
vn 0.3316 -0.6056 -0.7234
vn -0.3147 -0.2021 -0.9274
vn -0.9921 -0.0181 -0.1241
vn -0.8970 -0.0282 0.4412
vn -0.3506 -0.0378 0.9358
vn -0.0658 -0.0070 0.9978
vn 0.1856 -0.0634 0.9806
vn 0.8617 -0.1263 0.4915
vn 0.8346 -0.1469 -0.5309
vn 0.1213 -0.1421 -0.9824
vn 0.0624 -0.3228 -0.9444
vn -0.2221 -0.1037 -0.9695
vn -0.9296 -0.0380 -0.3666
vn -0.8788 -0.0154 0.4770
vn -0.2940 -0.0170 0.9557
vn -0.1074 0.0316 0.9937
vn 0.3297 -0.0288 0.9436
vn 0.9178 -0.0855 0.3877
vn 0.8629 -0.0781 -0.4992
vn 0.1889 -0.0493 -0.9808
vn 0.1340 -0.0834 -0.9875
vn -0.4491 -0.0196 -0.8932
vn -0.9941 0.0428 0.1001
vn -0.9260 -0.0511 -0.3740
vn -0.9542 -0.0513 0.2947
vn -0.4535 0.0267 0.8908
vn 0.0595 0.3080 0.9495
vn 0.4106 0.0509 0.9104
vn 0.9543 -0.0150 0.2985
vn 0.9262 -0.0072 -0.3769
vn 0.4157 -0.0201 -0.9093
vn 0.0773 -0.0152 -0.9969
vn -0.4221 0.0203 -0.9063
vn -0.9151 0.0358 -0.4017
vn -0.9494 -0.0088 0.3140
vn -0.9146 0.0707 0.3981
vn -0.3020 0.1462 0.9420
vn -0.0182 0.1886 0.9819
vn 0.4884 0.1801 0.8538
vn 0.9636 0.0866 0.2531
vn 0.9436 0.0747 -0.3226
vn 0.5280 0.0523 -0.8476
vn 0.0416 0.0237 -0.9989
vn -0.6764 0.0982 -0.7299
vn -0.9762 0.2136 -0.0368
vn -0.9661 0.1483 0.2113
vn -0.6405 0.2135 0.7377
vn 0.0870 -0.1566 0.9838
vn 0.6175 0.1158 0.7780
vn 0.9281 0.2688 0.2576
vn 0.9115 0.3309 -0.2441
vn 0.6192 0.2559 -0.7424
vn 0.1147 0.1578 -0.9808
vn -0.4665 0.1793 -0.8661
vn -0.8933 0.2556 -0.3698
vn -0.8471 -0.1499 -0.5098
vn -0.9310 -0.0934 0.3528
vn -0.5228 -0.1116 0.8451
vn 0.1357 -0.9907 -0.0075
vn 0.5540 -0.7105 0.4339
vn 0.9417 0.0424 0.3337
vn 0.9433 -0.0127 -0.3316
vn 0.5860 0.0621 -0.8079
vn -0.0297 0.1328 -0.9907
vn -0.3965 -0.2491 -0.8836
vn -0.4238 -0.7892 -0.4445
vn -0.4958 -0.8319 0.2491
vn -0.0885 -0.9629 0.2551
vn 0.0411 -0.7178 -0.6951
vn -0.1061 -0.9522 -0.2866
vn 0.6018 -0.7718 0.2052
vn 0.6097 -0.7409 -0.2816
vn 0.3519 -0.5772 -0.7369
vn -0.0712 -0.4249 -0.9024
vn -0.1306 -0.6854 -0.7164
vn -0.0214 -0.9694 -0.2446
vn 0.0989 -0.9735 0.2060
vn 0.4105 -0.9088 0.0746
vn 0.0618 -0.9899 -0.1279
vn -0.4051 -0.8905 0.2071
vn -0.1669 -0.9722 0.1644
vn -0.0761 -0.9969 0.0195
vn 0.0227 -0.9926 -0.1190
vn 0.0252 -0.9381 -0.3454
vn 0.1564 -0.9165 -0.3682
vn 0.0171 -0.9360 -0.3516
vn 0.3055 -0.9522 0.0065
vn 0.4125 -0.8274 0.3810
vn 0.1089 -0.9730 0.2035
vt 0.717821 0.100151
vt 0.743546 0.116602
vt 0.731236 0.141078
vt 0.700633 0.155931
vt 0.673251 0.138412
vt 0.676170 0.104463
vt 0.694807 0.085440
vt 0.699792 0.046806
vt 0.742689 0.014113
vt 0.784508 0.040869
vt 0.775018 0.093528
vt 0.784508 0.142842
vt 0.738821 0.168823
vt 0.527499 0.000000
vt 0.531657 0.028825
vt 0.491768 0.030607
vt 0.495151 0.009121
vt 0.464933 0.026135
vt 0.471517 0.005183
vt 0.689276 0.636909
vt 0.705775 0.623112
vt 0.705775 0.660739
vt 0.662869 0.105718
vt 0.680698 0.076400
vt 0.693407 0.031594
vt 0.741685 0.000000
vt 0.670087 0.427181
vt 0.670087 0.503501
vt 0.638770 0.457551
vt 0.699022 0.427181
vt 0.699022 0.482111
vt 0.687642 0.459925
vt 0.215621 0.000000
vt 0.220114 0.051903
vt 0.164502 0.056428
vt 0.166527 0.003995
vt 0.138032 0.005913
vt 0.148994 0.059644
vt 0.097795 0.038709
vt 0.084807 0.000000
vt 0.039698 0.019616
vt 0.581216 0.021075
vt 0.584647 0.046960
vt 0.532398 0.060795
vt 0.038935 0.045222
vt 0.491892 0.068356
vt 0.645934 0.331012
vt 0.676463 0.338468
vt 0.669214 0.375172
vt 0.638770 0.367287
vt 0.648109 0.410256
vt 0.665651 0.142601
vt 0.638770 0.107060
vt 0.644507 0.053258
vt 0.687008 0.014407
vt 0.265561 0.036143
vt 0.219791 0.066519
vt 0.169394 0.070620
vt 0.141292 0.073397
vt 0.097319 0.058396
vt 0.044458 0.096597
vt 0.000000 0.099060
vt 0.533154 0.101377
vt 0.482443 0.102664
vt 0.446669 0.096703
vt 0.464740 0.063832
vt 0.689276 0.673348
vt 0.666883 0.673348
vt 0.677282 0.623112
vt 0.676463 0.427181
vt 0.344212 0.956412
vt 0.339679 0.914220
vt 0.398933 0.930724
vt 0.398163 0.984129
vt 0.440237 0.921384
vt 0.446669 0.952154
vt 0.262179 0.067639
vt 0.217979 0.077395
vt 0.703897 0.556526
vt 0.682809 0.522342
vt 0.703897 0.518999
vt 0.178446 0.080612
vt 0.148994 0.093690
vt 0.091261 0.088695
vt 0.052473 0.126171
vt 0.008320 0.131196
vt 0.532391 0.131145
vt 0.484088 0.138060
vt 0.584647 0.680082
vt 0.638770 0.678616
vt 0.586346 0.709180
vt 0.635622 0.707846
vt 0.299116 0.861809
vt 0.337633 0.892451
vt 0.299250 0.897401
vt 0.399523 0.922729
vt 0.296544 0.063393
vt 0.299116 0.071142
vt 0.257832 0.095342
vt 0.432890 0.894611
vt 0.218138 0.125464
vt 0.190333 0.127726
vt 0.124872 0.082266
vt 0.107828 0.128553
vt 0.083099 0.126878
vt 0.171496 0.130708
vt 0.059699 0.268256
vt 0.020602 0.226520
vt 0.532011 0.222399
vt 0.483896 0.185623
vt 0.588075 0.638388
vt 0.636914 0.637065
vt 0.299892 0.812790
vt 0.344614 0.857097
vt 0.392397 0.901100
vt 0.682810 0.623112
vt 0.666883 0.597136
vt 0.682810 0.503501
vt 0.251509 0.178737
vt 0.225530 0.267319
vt 0.201631 0.269264
vt 0.104529 0.271157
vt 0.081399 0.269354
vt 0.066107 0.532609
vt 0.032605 0.405863
vt 0.532990 0.396731
vt 0.492761 0.275474
vt 0.593228 0.550899
vt 0.632828 0.549827
vt 0.313908 0.718286
vt 0.351869 0.788335
vt 0.386647 0.858137
vt 0.419107 0.812579
vt 0.410218 0.745723
vt 0.417633 0.633240
vt 0.230763 0.357075
vt 0.206863 0.359020
vt 0.106231 0.361870
vt 0.083744 0.446921
vt 0.068870 0.713056
vt 0.043660 0.583849
vt 0.534096 0.569949
vt 0.505214 0.443966
vt 0.601019 0.393019
vt 0.628297 0.392280
vt 0.332576 0.542706
vt 0.358660 0.634535
vt 0.382839 0.726194
vt 0.399135 0.548823
vt 0.404077 0.371398
vt 0.237531 0.487438
vt 0.248244 0.246303
vt 0.244299 0.617799
vt 0.103050 0.492902
vt 0.085921 0.668203
vt 0.217323 0.489082
vt 0.067412 0.877893
vt 0.046547 0.754160
vt 0.536324 0.737530
vt 0.513293 0.614099
vt 0.606866 0.240266
vt 0.627104 0.239718
vt 0.343216 0.367179
vt 0.361491 0.415809
vt 0.381947 0.464323
vt 0.403636 0.329317
vt 0.251352 0.269539
vt 0.267073 0.658823
vt 0.250747 0.442724
vt 0.256231 0.790663
vt 0.227784 0.619143
vt 0.231470 0.792678
vt 0.099867 0.623932
vt 0.094193 0.838682
vt 0.062250 0.934674
vt 0.036091 0.871354
vt 0.656694 0.576712
vt 0.656694 0.679272
vt 0.638771 0.618082
vt 0.539758 0.855813
vt 0.513373 0.788988
vt 0.609180 0.095439
vt 0.632059 0.094820
vt 0.339131 0.189974
vt 0.360111 0.240394
vt 0.382473 0.290674
vt 0.405113 0.197957
vt 0.275865 0.788352
vt 0.261541 0.878425
vt 0.235914 0.880510
vt 0.115779 0.800254
vt 0.209976 0.907107
vt 0.100773 0.911303
vt 0.579491 0.918045
vt 0.584647 0.957308
vt 0.541963 0.936698
vt 0.061112 0.973527
vt 0.509101 0.911007
vt 0.608853 0.000810
vt 0.638770 0.000000
vt 0.328379 0.068037
vt 0.354805 0.090014
vt 0.386357 0.111805
vt 0.424317 0.062722
vt 0.275736 0.699900
vt 0.299116 0.918688
vt 0.276418 0.888768
vt 0.270736 0.963979
vt 0.226429 0.967584
vt 0.118774 0.889122
vt 0.148994 0.979242
vt 0.109307 0.975624
vt 0.573603 0.980780
vt 0.542276 0.964178
vt 0.066170 1.000000
vt 0.501833 0.943621
vt 0.473400 0.938883
vt 0.487380 0.907388
vt 0.314313 0.037851
vt 0.347941 0.052781
vt 0.391480 0.067459
vt 0.429195 0.033810
vt 0.693469 0.397150
vt 0.676463 0.374540
vt 0.693469 0.331012
vt 0.694753 0.556526
vt 0.694753 0.623112
vt 0.682810 0.613187
vt 0.270596 0.978361
vt 0.230628 0.981613
vt 0.142615 0.992928
vt 0.105174 0.995836
vt 0.666883 0.545093
vt 0.638770 0.531069
vt 0.658146 0.508141
vt 0.666883 0.503501
vt 0.643583 0.576712
vt 0.662981 0.610008
vt 0.656694 0.603355
vt 0.662981 0.576712
vt 0.692651 0.247182
vt 0.672175 0.273771
vt 0.651083 0.263487
vt 0.661661 0.305530
vt 0.638770 0.300681
vt 0.323006 0.016420
vt 0.351866 0.025072
vt 0.388699 0.033517
vt 0.412989 0.016774
vt 0.415805 0.000011
vt 0.446669 0.000000
vt 0.647973 0.175479
vt 0.662502 0.185815
vt 0.657200 0.208533
vt 0.638770 0.214910
vt 0.670063 0.232647
vt 0.647015 0.243381
vt 0.692478 0.247182
vt 0.681682 0.498286
vt 0.671393 0.489629
vt 0.681034 0.475002
vt 0.676463 0.413945
vt 0.690942 0.397150
vt 0.691651 0.413945
vt 0.700769 0.237716
vt 0.687642 0.487510
vt 0.687642 0.455911
vt 0.689917 0.254137
vt 0.690897 0.287552
vt 0.685918 0.302592
vt 0.684985 0.318932
vt 0.658897 0.331012
vt 0.692651 0.330715
vt 0.383351 0.010165
vt 0.403505 0.006306
vt 0.410346 0.000373
vt 0.661119 0.664094
vt 0.656694 0.639678
vt 0.661119 0.633362
vt 0.668419 0.180004
vt 0.664418 0.197144
vt 0.671120 0.223640
vt 0.657341 0.610008
vt 0.664198 0.633362
vt 0.656694 0.633362
vt 0.670087 0.457591
vt 0.700769 0.205165
vt 0.682719 0.441014
vt 0.676981 0.427181
vt 0.679074 0.673347
vt 0.684895 0.691402
vt 0.666883 0.691402
vt 0.697849 0.168823
vt 0.680364 0.173604
s 1
usemtl Material_with_Texture.302
f 1/1/1 2/2/2 3/3/3
f 1/1/1 3/3/3 4/4/4
f 1/1/1 4/4/4 5/5/5
f 1/1/1 5/5/5 6/6/6
f 1/1/1 6/6/6 7/7/7
f 1/1/1 7/7/7 8/8/8
f 1/1/1 8/8/8 9/9/9
f 1/1/1 9/9/9 10/10/10
f 1/1/1 10/10/10 11/11/11
f 1/1/1 11/11/11 2/2/2
f 2/2/2 12/12/12 13/13/13
f 2/2/2 13/13/13 3/3/3
f 11/11/11 12/12/12 2/2/2
f 3/14/3 13/15/13 14/16/14
f 3/14/3 14/16/14 4/17/4
f 4/17/4 14/16/14 15/18/15
f 4/17/4 15/18/15 5/19/5
f 5/20/5 15/21/15 16/22/16
f 5/5/5 16/23/16 6/6/6
f 6/6/6 16/23/16 17/24/17
f 6/6/6 17/24/17 7/7/7
f 17/24/17 8/8/8 7/7/7
f 8/8/8 18/25/18 19/26/19
f 8/27/8 19/28/19 9/29/9
f 17/30/17 18/31/18 8/32/8
f 9/33/9 19/34/19 20/35/20
f 9/33/9 20/35/20 10/36/10
f 10/37/10 20/38/20 21/39/21
f 10/37/10 21/39/21 11/40/11
f 11/40/11 21/39/21 12/41/12
f 12/42/12 22/43/22 23/44/23
f 12/42/12 23/44/23 13/15/13
f 21/39/21 22/45/22 12/41/12
f 13/15/13 23/44/23 24/46/24
f 13/15/13 24/46/24 14/16/14
f 14/47/14 24/48/24 25/49/25
f 14/47/14 25/49/25 15/50/15
f 15/50/15 25/49/25 26/51/26
f 15/52/15 26/53/26 16/23/16
f 16/23/16 26/53/26 27/54/27
f 16/23/16 27/54/27 17/24/17
f 17/24/17 27/54/27 28/55/28
f 17/24/17 28/55/28 18/25/18
f 18/25/18 28/55/28 19/26/19
f 28/56/28 29/57/29 19/34/19
f 19/34/19 29/57/29 30/58/30
f 19/34/19 30/58/30 20/35/20
f 20/38/20 30/59/30 31/60/31
f 20/38/20 31/60/31 21/39/21
f 21/39/21 31/60/31 22/45/22
f 22/45/22 32/61/32 33/62/33
f 22/43/22 33/63/33 23/44/23
f 31/60/31 32/61/32 22/45/22
f 23/44/23 33/63/33 34/64/34
f 23/44/23 34/64/34 24/46/24
f 24/46/24 34/64/34 35/65/35
f 24/46/24 35/65/35 25/66/25
f 25/67/25 35/68/35 36/69/36
f 25/49/25 36/70/36 26/51/26
f 26/71/26 36/72/36 37/73/37
f 26/71/26 37/73/37 27/74/27
f 27/74/27 37/73/37 38/75/38
f 27/74/27 38/75/38 28/76/28
f 28/56/28 38/77/38 39/78/39
f 28/79/28 39/80/39 29/81/29
f 29/57/29 39/78/39 40/82/40
f 29/57/29 40/82/40 30/58/30
f 30/58/30 40/82/40 41/83/41
f 30/59/30 41/84/41 31/60/31
f 31/60/31 41/84/41 32/61/32
f 32/61/32 42/85/42 43/86/43
f 32/61/32 43/86/43 33/62/33
f 41/84/41 42/85/42 32/61/32
f 43/87/43 44/88/44 33/63/33
f 33/63/33 44/88/44 34/64/34
f 44/89/44 45/90/45 34/91/34
f 34/91/34 45/90/45 35/92/35
f 45/93/45 46/94/46 35/95/35
f 35/95/35 46/94/46 36/72/36
f 36/72/36 46/94/46 47/96/47
f 36/72/36 47/96/47 37/73/37
f 37/97/37 47/98/47 48/99/48
f 37/73/37 48/100/48 38/75/38
f 38/77/38 48/99/48 49/101/49
f 38/77/38 49/101/49 39/78/39
f 39/78/39 49/101/49 50/102/50
f 39/78/39 50/102/50 40/82/40
f 40/103/40 50/104/50 51/105/51
f 40/82/40 51/106/51 41/83/41
f 41/84/41 51/105/51 42/85/42
f 42/85/42 52/107/52 53/108/53
f 42/85/42 53/108/53 43/86/43
f 51/105/51 52/107/52 42/85/42
f 53/109/53 54/110/54 43/87/43
f 43/87/43 54/110/54 44/88/44
f 54/111/54 55/112/55 44/89/44
f 44/89/44 55/112/55 45/90/45
f 55/113/55 56/114/56 45/93/45
f 45/93/45 56/114/56 46/94/46
f 46/94/46 56/114/56 57/115/57
f 46/94/46 57/115/57 47/96/47
f 47/116/47 57/117/57 58/118/58
f 47/98/47 58/119/58 48/99/48
f 48/99/48 58/119/58 59/120/59
f 48/99/48 59/120/59 49/101/49
f 49/101/49 59/120/59 60/121/60
f 49/101/49 60/121/60 50/102/50
f 50/104/50 60/122/60 61/123/61
f 50/104/50 61/123/61 51/105/51
f 51/105/51 61/123/61 52/107/52
f 52/107/52 62/124/62 63/125/63
f 52/107/52 63/125/63 53/108/53
f 61/123/61 62/124/62 52/107/52
f 53/109/53 63/126/63 64/127/64
f 53/109/53 64/127/64 54/110/54
f 54/111/54 64/128/64 65/129/65
f 54/111/54 65/129/65 55/112/55
f 55/113/55 65/130/65 66/131/66
f 55/113/55 66/131/66 56/114/56
f 56/114/56 66/131/66 67/132/67
f 56/114/56 67/132/67 57/115/57
f 58/133/58 57/115/57 67/132/67
f 58/133/58 68/134/68 69/135/69
f 58/119/58 69/136/69 59/120/59
f 58/133/58 67/132/67 68/134/68
f 59/120/59 69/136/69 70/137/70
f 59/120/59 70/137/70 60/121/60
f 60/122/60 70/138/70 71/139/71
f 60/122/60 71/139/71 61/123/61
f 61/123/61 71/139/71 62/124/62
f 62/124/62 72/140/72 73/141/73
f 62/124/62 73/141/73 63/125/63
f 71/139/71 72/140/72 62/124/62
f 63/126/63 73/142/73 74/143/74
f 63/126/63 74/143/74 64/127/64
f 64/128/64 74/144/74 75/145/75
f 64/128/64 75/145/75 65/129/65
f 65/130/65 75/146/75 76/147/76
f 65/130/65 76/147/76 66/131/66
f 66/131/66 76/147/76 77/148/77
f 66/131/66 77/148/77 67/132/67
f 67/132/67 77/148/77 78/149/78
f 67/132/67 78/149/78 68/134/68
f 68/134/68 78/149/78 79/150/79
f 80/151/80 69/136/69 68/152/68
f 79/153/79 80/151/80 68/152/68
f 70/137/70 69/136/69 80/151/80
f 70/138/70 81/154/81 82/155/82
f 70/138/70 82/155/82 71/139/71
f 70/137/70 80/151/80 81/156/81
f 71/139/71 82/155/82 72/140/72
f 72/140/72 83/157/83 84/158/84
f 72/140/72 84/158/84 73/141/73
f 82/155/82 83/157/83 72/140/72
f 73/142/73 84/159/84 85/160/85
f 73/142/73 85/160/85 74/143/74
f 74/144/74 85/161/85 86/162/86
f 74/144/74 86/162/86 75/145/75
f 75/146/75 86/163/86 87/164/87
f 75/146/75 87/164/87 76/147/76
f 76/147/76 87/164/87 88/165/88
f 76/147/76 88/165/88 77/148/77
f 77/148/77 88/165/88 89/166/89
f 77/167/77 89/168/89 78/169/78
f 78/169/78 89/168/89 90/170/90
f 78/169/78 90/170/90 79/153/79
f 81/156/81 79/153/79 91/171/91
f 79/153/79 90/170/90 92/172/92
f 79/153/79 92/172/92 91/171/91
f 81/156/81 80/151/80 79/153/79
f 81/154/81 91/173/91 82/155/82
f 91/173/91 93/174/93 82/155/82
f 82/155/82 93/174/93 83/157/83
f 83/157/83 94/175/94 95/176/95
f 83/157/83 95/176/95 84/158/84
f 93/177/93 94/178/94 83/179/83
f 84/159/84 95/180/95 96/181/96
f 84/159/84 96/181/96 85/160/85
f 85/161/85 96/182/96 97/183/97
f 85/161/85 97/183/97 86/162/86
f 86/163/86 97/184/97 98/185/98
f 86/163/86 98/185/98 87/164/87
f 87/164/87 98/185/98 99/186/99
f 87/164/87 99/186/99 88/165/88
f 88/165/88 99/186/99 100/187/100
f 88/165/88 100/187/100 89/166/89
f 89/168/89 100/188/100 101/189/101
f 89/168/89 101/189/101 90/170/90
f 90/170/90 101/189/101 102/190/102
f 90/170/90 102/190/102 92/172/92
f 91/173/91 92/191/92 93/174/93
f 92/172/92 102/190/102 103/192/103
f 92/191/92 103/193/103 93/174/93
f 93/174/93 103/193/103 94/175/94
f 94/194/94 104/195/104 105/196/105
f 94/194/94 105/196/105 95/180/95
f 103/193/103 104/197/104 94/175/94
f 95/180/95 105/196/105 106/198/106
f 95/180/95 106/198/106 96/181/96
f 96/182/96 106/199/106 107/200/107
f 96/182/96 107/200/107 97/183/97
f 97/184/97 107/201/107 108/202/108
f 97/184/97 108/202/108 98/185/98
f 98/185/98 108/202/108 109/203/109
f 98/185/98 109/203/109 99/186/99
f 99/186/99 109/203/109 110/204/110
f 99/205/99 110/206/110 100/188/100
f 101/189/101 100/188/100 111/207/111
f 110/206/110 111/207/111 100/188/100
f 101/189/101 112/208/112 113/209/113
f 101/189/101 113/209/113 102/190/102
f 112/208/112 101/189/101 111/207/111
f 102/210/102 113/211/113 114/212/114
f 102/210/102 114/212/114 103/193/103
f 103/193/103 114/212/114 104/197/104
f 104/195/104 115/213/115 116/214/116
f 104/195/104 116/214/116 105/196/105
f 114/212/114 115/215/115 104/197/104
f 105/196/105 116/214/116 117/216/117
f 105/196/105 117/216/117 106/198/106
f 106/198/106 117/216/117 118/217/118
f 106/198/106 118/217/118 107/218/107
f 107/201/107 118/219/118 119/220/119
f 107/201/107 119/220/119 108/202/108
f 108/202/108 119/220/119 120/221/120
f 108/202/108 120/221/120 109/203/109
f 109/203/109 120/221/120 121/222/121
f 109/203/109 121/222/121 110/204/110
f 110/223/110 121/224/121 122/225/122
f 110/226/110 122/227/122 112/228/112
f 110/206/110 112/208/112 111/207/111
f 112/208/112 122/229/122 123/230/123
f 112/208/112 123/230/123 113/209/113
f 113/211/113 123/231/123 124/232/124
f 113/211/113 124/232/124 114/212/114
f 114/212/114 124/232/124 115/215/115
f 115/233/115 125/234/125 126/235/126
f 115/233/115 126/235/126 116/236/116
f 124/237/124 125/234/125 115/233/115
f 116/238/116 126/239/126 127/240/127
f 116/241/116 127/242/127 117/243/117
f 117/243/117 127/242/127 128/244/128
f 117/243/117 128/244/128 118/245/118
f 118/219/118 128/246/128 129/247/129
f 118/219/118 129/247/129 119/220/119
f 119/220/119 129/247/129 130/248/130
f 119/220/119 130/248/130 120/221/120
f 120/221/120 130/248/130 131/249/131
f 120/221/120 131/249/131 121/222/121
f 121/222/121 131/249/131 132/250/132
f 121/222/121 132/250/132 122/251/122
f 122/252/122 132/253/132 133/254/133
f 122/252/122 133/254/133 123/255/123
f 123/255/123 133/254/133 134/256/134
f 123/255/123 134/256/134 124/257/124
f 124/257/124 134/256/134 125/258/125
f 125/259/125 135/260/135 136/261/136
f 125/262/125 136/263/136 126/264/126
f 134/256/134 135/265/135 125/258/125
f 126/266/126 136/261/136 137/267/137
f 126/268/126 137/269/137 127/242/127
f 127/242/127 137/269/137 138/270/138
f 127/242/127 138/270/138 128/244/128
f 128/244/128 138/270/138 139/271/139
f 128/244/128 139/271/139 129/272/129
f 129/272/129 139/271/139 140/273/140
f 129/247/129 140/274/140 130/248/130
f 130/248/130 140/274/140 141/275/141
f 130/248/130 141/275/141 131/249/131
f 131/249/131 141/275/141 142/276/142
f 131/277/131 142/278/142 132/279/132
f 132/253/132 142/280/142 143/281/143
f 132/253/132 143/281/143 133/254/133
f 133/254/133 143/281/143 144/282/144
f 133/283/133 144/284/144 134/285/134
f 134/256/134 144/282/144 135/265/135
f 135/260/135 145/286/145 136/261/136
f 144/282/144 145/287/145 135/265/135
f 136/261/136 145/286/145 137/267/137
f 137/267/137 145/286/145 138/288/138
f 138/288/138 145/286/145 139/289/139
f 139/290/139 145/291/145 140/292/140
f 140/293/140 145/287/145 141/294/141
f 141/294/141 145/287/145 142/280/142
f 142/280/142 145/287/145 143/281/143
f 143/281/143 145/287/145 144/282/144
