# Blender 4.3.0
# www.blender.org
mtllib trapezoid_rvs.mtl
o trapezoid_rvs
v -0.005640 -0.017322 0.013969
v -0.009152 -0.018579 0.011381
v -0.008342 -0.018183 0.014597
v -0.004191 -0.018032 0.013093
v -0.001362 -0.019175 0.013396
v -0.007001 -0.018645 0.014963
v -0.005005 -0.017888 0.012336
v -0.012866 -0.021554 0.012787
v -0.007563 -0.020459 0.007417
v -0.007020 -0.018929 0.009347
v -0.010093 -0.022503 0.006132
v -0.011256 -0.023327 0.006809
v -0.012424 -0.022626 0.016288
v -0.002906 -0.018125 0.011902
v -0.003985 -0.022220 0.015605
v -0.001115 -0.018735 0.011972
v -0.000022 -0.020573 0.014252
v -0.013952 -0.025192 0.016289
v -0.015117 -0.028125 0.009671
v -0.011297 -0.026951 0.003743
v -0.004254 -0.020008 0.008510
v -0.003941 -0.023957 0.005821
v -0.002581 -0.018806 0.010179
v -0.012474 -0.028571 0.004128
v -0.014417 -0.028937 0.007008
v -0.008494 -0.023872 0.016299
v -0.005123 -0.023686 0.016152
v -0.001224 -0.025076 0.015969
v -0.000670 -0.022598 0.016138
v -0.000975 -0.018851 0.010678
v 0.000064 -0.019271 0.011494
v 0.003124 -0.020047 0.012583
v -0.015018 -0.029889 0.011884
v -0.009016 -0.025610 0.015160
v -0.014657 -0.031399 0.008937
v -0.010598 -0.029688 0.003593
v -0.008555 -0.028758 0.003451
v -0.000543 -0.023223 0.007838
v 0.000393 -0.020715 0.009054
v 0.000435 -0.025272 0.008175
v -0.005145 -0.026982 0.004535
v -0.002120 -0.025547 0.006657
v 0.000162 -0.019606 0.010179
v -0.013586 -0.031691 0.006527
v -0.012061 -0.030866 0.004507
v -0.005093 -0.026480 0.015521
v -0.002014 -0.026752 0.016319
v 0.000251 -0.026604 0.014827
v 0.001188 -0.023096 0.015732
v 0.003037 -0.020042 0.009983
v 0.001687 -0.025174 0.014231
v -0.005381 -0.027753 0.013416
v -0.004604 -0.028868 0.008963
v -0.009495 -0.029858 0.004318
v -0.010578 -0.030830 0.005160
v 0.003134 -0.020914 0.009476
v -0.002701 -0.027032 0.006592
v 0.002668 -0.026728 0.009571
v -0.003522 -0.028118 0.007517
v 0.000311 -0.028088 0.014934
v 0.001560 -0.028112 0.012979
v 0.002534 -0.026384 0.012282
v -0.001446 -0.028733 0.010162
v -0.000805 -0.028194 0.008836
v 0.002377 -0.027334 0.009885
vn 0.1311 0.9239 0.3594
vn -0.4468 0.8618 -0.2402
vn -0.3360 0.8019 0.4941
vn 0.3047 0.9520 -0.0274
vn 0.3674 0.7392 0.5645
vn 0.0769 0.4277 0.9006
vn 0.0682 0.9649 -0.2535
vn -0.8007 0.5980 -0.0362
vn -0.0847 0.6922 -0.7167
vn -0.1088 0.8636 -0.4923
vn -0.3499 0.6111 -0.7100
vn -0.7300 0.5268 -0.4355
vn -0.4597 0.4228 0.7810
vn 0.2249 0.9724 -0.0627
vn 0.0926 0.3348 0.9377
vn 0.3752 0.9163 0.1401
vn 0.2048 0.7021 0.6819
vn -0.6266 -0.1402 0.7667
vn -0.9703 0.1849 -0.1557
vn -0.3641 0.3436 -0.8657
vn 0.1777 0.6473 -0.7413
vn 0.3099 0.3693 -0.8761
vn 0.1560 0.8530 -0.4981
vn -0.6500 0.0758 -0.7562
vn -0.8981 0.1148 -0.4245
vn 0.0122 -0.1736 0.9847
vn 0.0360 0.0872 0.9955
vn 0.2338 -0.0553 0.9707
vn 0.0766 0.3160 0.9457
vn 0.2604 0.9133 -0.3133
vn 0.3370 0.9370 0.0921
vn 0.7971 0.5211 0.3051
vn -0.6412 -0.6105 0.4649
vn -0.0104 -0.6188 0.7855
vn -0.5799 -0.8090 0.0963
vn -0.0114 -0.4312 -0.9022
vn 0.3252 -0.3078 -0.8942
vn 0.3568 0.2449 -0.9015
vn 0.1546 0.5418 -0.8262
vn 0.4795 -0.0275 -0.8771
vn 0.4171 -0.1848 -0.8899
vn 0.5325 -0.0125 -0.8463
vn 0.2123 0.8429 -0.4944
vn -0.4339 -0.8506 -0.2969
vn -0.2592 -0.6766 -0.6892
vn -0.2034 -0.5999 0.7738
vn 0.0752 -0.4057 0.9109
vn 0.6120 -0.1467 0.7771
vn 0.5667 0.0825 0.8198
vn 0.7131 0.6075 -0.3499
vn 0.8126 -0.2112 0.5432
vn -0.0585 -0.8996 0.4328
vn 0.2065 -0.9783 0.0170
vn 0.3755 -0.7783 -0.5033
vn 0.2998 -0.9115 -0.2815
vn 0.8393 0.2086 -0.5020
vn 0.4937 -0.4932 -0.7162
vn 0.8297 -0.3111 -0.4635
vn 0.3315 -0.8375 -0.4343
vn 0.4570 -0.6224 0.6354
vn 0.6171 -0.7363 0.2775
vn 0.9406 -0.2029 0.2720
vn 0.1181 -0.9909 -0.0645
vn 0.3111 -0.8289 -0.4648
vn 0.6641 -0.6896 -0.2889
vt 0.441660 0.223676
vt 0.481235 0.355092
vt 0.402962 0.293585
vt 0.489048 0.194855
vt 0.526674 0.114288
vt 0.169651 0.684872
vt 0.115808 0.719861
vt 0.159545 0.642952
vt 0.497607 0.226323
vt 0.142298 0.859426
vt 0.433271 0.448260
vt 0.623059 0.361174
vt 0.562815 0.320145
vt 0.648803 0.451212
vt 0.703706 0.596830
vt 0.703706 0.783493
vt 0.667315 0.774978
vt 0.593276 0.593356
vt 0.322302 0.543463
vt 0.504368 0.536761
vt 0.656501 0.521879
vt 0.536039 0.173148
vt 0.262982 0.794258
vt 0.561797 0.123362
vt 0.535235 0.069369
vt 0.183767 0.905730
vt 0.437528 0.573717
vt 0.485790 0.771399
vt 0.744683 0.521879
vt 0.628611 0.254706
vt 0.744683 0.285471
vt 0.591929 0.185765
vt 0.637267 0.912744
vt 0.587194 0.925741
vt 0.518180 0.852596
vt 0.402962 0.512783
vt 0.338737 0.667904
vt 0.315560 0.767685
vt 0.334408 0.892443
vt 0.262635 0.894225
vt 0.598286 0.134980
vt 0.593810 0.097052
vt 0.031838 0.591611
vt 0.000000 0.536319
vt 0.031838 0.512783
vt 0.137509 1.000000
vt 0.609779 0.000000
vt 0.402962 0.754700
vt 0.099085 0.268863
vt 0.000000 0.152020
vt 0.124436 0.039722
vt 0.067996 0.307646
vt 0.422708 0.853004
vt 0.950220 0.508968
vt 0.870009 0.502272
vt 0.930952 0.450426
vt 0.915038 0.540792
vt 0.834662 0.258614
vt 0.724236 0.165026
vt 0.676591 0.119531
vt 0.744683 0.196779
vt 0.789892 0.075023
vt 0.846709 0.136818
vt 0.912842 0.123866
vt 0.904533 0.332588
vt 0.895819 0.213170
vt 0.632714 0.110522
vt 0.464172 0.921378
vt 0.526749 0.963201
vt 0.577065 0.972680
vt 0.146248 0.374510
vt 0.389095 0.786122
vt 0.389400 0.877880
vt 0.359912 0.947697
vt 0.263895 0.953387
vt 0.676211 0.033190
vt 0.900956 0.700053
vt 0.759290 0.550928
vt 0.834314 0.543899
vt 0.946650 0.636145
vt 0.204533 0.332552
vt 0.215216 0.003268
vt 0.339824 0.290596
vt 0.295910 0.000000
vt 0.966502 0.471845
vt 0.997534 0.496244
vt 0.986204 0.543899
vt 0.811229 0.000000
vt 0.699915 0.038176
vt 0.935378 0.241392
vt 0.977073 0.058920
vt 0.971570 0.258818
vt 0.367442 0.020531
vt 0.369786 0.069160
vt 0.167632 0.466366
vt 0.402962 0.957881
vt 0.242190 0.503891
vt 0.869017 0.792017
vt 0.932598 0.748069
vt 0.936928 0.792017
vt 0.838135 0.737476
vt 0.758345 0.754232
vt 0.744683 0.577949
vt 0.349724 0.392066
vt 0.390213 0.305970
vt 0.402962 0.093520
vt 0.997534 0.170989
vt 0.770760 0.772943
vt 0.996122 0.067120
vt 0.391813 0.395782
vt 0.311884 0.512783
vt 0.402962 0.500263
s 1
usemtl Material_with_Texture.307
f 1/1/1 2/2/2 3/3/3
f 4/4/4 1/1/1 5/5/5
f 6/6/6 1/7/1 3/8/3
f 1/1/1 7/9/7 2/2/2
f 6/6/6 5/10/5 1/7/1
f 7/9/7 1/1/1 4/4/4
f 8/11/8 3/3/3 2/2/2
f 9/12/9 2/2/2 10/13/10
f 2/2/2 9/12/9 11/14/11
f 2/15/2 11/16/11 12/17/12
f 8/18/8 2/15/2 12/17/12
f 10/13/10 2/2/2 7/9/7
f 3/8/3 13/19/13 6/6/6
f 8/18/8 13/20/13 3/21/3
f 5/5/5 14/22/14 4/4/4
f 14/22/14 7/9/7 4/4/4
f 5/10/5 6/6/6 15/23/15
f 5/5/5 16/24/16 14/22/14
f 17/25/17 16/24/16 5/5/5
f 15/23/15 17/26/17 5/10/5
f 15/23/15 6/6/6 13/19/13
f 14/22/14 10/13/10 7/9/7
f 18/27/18 8/18/8 19/28/19
f 13/20/13 8/18/8 18/27/18
f 8/18/8 12/17/12 19/28/19
f 20/29/20 11/14/11 9/12/9
f 9/12/9 21/30/21 22/31/22
f 20/29/20 9/12/9 22/31/22
f 10/13/10 23/32/23 9/12/9
f 23/32/23 21/30/21 9/12/9
f 14/22/14 23/32/23 10/13/10
f 20/33/20 12/17/12 11/16/11
f 24/34/24 12/17/12 20/33/20
f 12/17/12 25/35/25 19/28/19
f 25/35/25 12/17/12 24/34/24
f 13/19/13 18/36/18 26/37/26
f 13/19/13 26/37/26 27/38/27
f 15/23/15 13/19/13 27/38/27
f 23/32/23 14/22/14 16/24/16
f 27/38/27 28/39/28 15/23/15
f 28/39/28 29/40/29 15/23/15
f 15/23/15 29/40/29 17/26/17
f 16/24/16 30/41/30 23/32/23
f 30/41/30 16/24/16 31/42/31
f 17/43/17 31/44/31 16/45/16
f 17/26/17 29/40/29 32/46/32
f 32/47/32 31/42/31 17/25/17
f 18/27/18 19/28/19 33/48/33
f 34/49/34 18/50/18 33/51/33
f 34/49/34 26/52/26 18/50/18
f 19/28/19 35/53/35 33/48/33
f 25/35/25 35/53/35 19/28/19
f 36/54/36 20/55/20 37/56/37
f 24/57/24 20/55/20 36/54/36
f 20/55/20 22/58/22 37/56/37
f 38/59/38 22/31/22 21/30/21
f 39/60/39 21/30/21 23/32/23
f 21/61/21 39/62/39 38/63/38
f 40/64/40 22/58/22 38/63/38
f 22/58/22 41/65/41 37/56/37
f 42/66/42 41/65/41 22/58/22
f 42/66/42 22/58/22 40/64/40
f 43/67/43 23/32/23 30/41/30
f 43/67/43 39/60/39 23/32/23
f 44/68/44 24/34/24 45/69/45
f 24/34/24 44/68/44 25/35/25
f 45/69/45 24/34/24 36/70/36
f 25/35/25 44/68/44 35/53/35
f 26/52/26 34/49/34 46/71/46
f 46/72/46 27/38/27 26/37/26
f 46/72/46 47/73/47 27/38/27
f 47/73/47 28/39/28 27/38/27
f 28/39/28 48/74/48 49/75/49
f 28/39/28 47/73/47 48/74/48
f 29/40/29 28/39/28 49/75/49
f 49/75/49 32/46/32 29/40/29
f 30/41/30 31/42/31 43/67/43
f 32/47/32 50/76/50 31/42/31
f 50/76/50 43/67/43 31/42/31
f 51/77/51 50/78/50 32/79/32
f 32/79/32 49/80/49 51/77/51
f 34/49/34 33/51/33 52/81/52
f 33/51/33 35/82/35 53/83/53
f 53/83/53 52/81/52 33/51/33
f 52/81/52 46/71/46 34/49/34
f 44/84/44 53/83/53 35/82/35
f 36/54/36 37/56/37 54/85/54
f 55/86/55 45/87/45 36/54/36
f 55/86/55 36/54/36 54/85/54
f 37/56/37 41/65/41 54/85/54
f 56/88/56 38/63/38 39/62/39
f 56/88/56 40/64/40 38/63/38
f 43/67/43 50/76/50 39/60/39
f 50/76/50 56/89/56 39/60/39
f 57/90/57 42/66/42 40/64/40
f 56/88/56 58/91/58 40/64/40
f 58/91/58 57/90/57 40/64/40
f 59/92/59 54/85/54 41/65/41
f 41/65/41 42/66/42 57/90/57
f 41/65/41 57/90/57 59/92/59
f 45/93/45 55/94/55 44/84/44
f 55/94/55 53/83/53 44/84/44
f 52/81/52 47/95/47 46/71/46
f 60/96/60 48/74/48 47/73/47
f 52/81/52 60/97/60 47/95/47
f 61/98/61 48/99/48 60/100/60
f 48/99/48 61/98/61 51/77/51
f 51/77/51 49/80/49 48/99/48
f 50/78/50 62/101/62 58/102/58
f 62/101/62 50/78/50 51/77/51
f 50/78/50 58/102/58 56/103/56
f 62/101/62 51/77/51 61/98/61
f 52/81/52 53/83/53 63/104/63
f 63/104/63 60/97/60 52/81/52
f 59/105/59 53/83/53 55/94/55
f 63/104/63 53/83/53 59/105/59
f 59/105/59 55/94/55 54/106/54
f 59/92/59 57/90/57 64/107/64
f 57/90/57 58/91/58 64/107/64
f 65/108/65 58/102/58 62/101/62
f 58/91/58 65/109/65 64/107/64
f 63/104/63 59/105/59 64/110/64
f 63/104/63 61/111/61 60/97/60
f 65/108/65 62/101/62 61/98/61
f 61/111/61 63/104/63 65/112/65
f 64/110/64 65/112/65 63/104/63
