# Blender 4.3.0
# www.blender.org
mtllib triquetrum_lvs.mtl
o triquetrum_lvs
v -0.002791 -0.010802 0.013712
v -0.008368 -0.012117 0.013576
v -0.006227 -0.005999 0.019078
v -0.001091 -0.006372 0.017515
v -0.007909 -0.012536 0.014026
v -0.007617 -0.012699 0.014688
v -0.000987 -0.010584 0.014097
v -0.000494 -0.012897 0.016195
v -0.009177 -0.009207 0.017151
v -0.009708 -0.014488 0.015533
v -0.006400 -0.005650 0.020172
v -0.003519 -0.005579 0.019102
v 0.003013 -0.010693 0.016508
v 0.001978 -0.010222 0.015438
v -0.000791 -0.005790 0.020325
v -0.001689 -0.005491 0.019841
v -0.010097 -0.016565 0.018456
v -0.009056 -0.017487 0.020225
v 0.002216 -0.010920 0.015356
v 0.002385 -0.011413 0.015601
v 0.003258 -0.016033 0.020187
v 0.003239 -0.012300 0.017176
v -0.009096 -0.011887 0.020008
v -0.010015 -0.014486 0.019839
v -0.004644 -0.005772 0.022469
v -0.005218 -0.005167 0.020918
v -0.006913 -0.007970 0.022782
v -0.002003 -0.005135 0.020423
v 0.003476 -0.011808 0.017776
v 0.002814 -0.011144 0.015953
v 0.002424 -0.016092 0.027901
v -0.000745 -0.006716 0.023729
v -0.001315 -0.005069 0.021285
v 0.003732 -0.015708 0.020432
v -0.009092 -0.016033 0.022175
v -0.008198 -0.018093 0.021001
v -0.007076 -0.016816 0.023808
v -0.006940 -0.018561 0.021244
v 0.004109 -0.019388 0.022363
v -0.003027 -0.020575 0.022666
v -0.007653 -0.011263 0.022316
v -0.008356 -0.012954 0.021333
v -0.003552 -0.005604 0.022888
v -0.004808 -0.009255 0.025027
v -0.002989 -0.005079 0.022427
v -0.002607 -0.004869 0.021445
v -0.006451 -0.011171 0.024242
v 0.001621 -0.014616 0.027841
v 0.002323 -0.018405 0.028242
v 0.003153 -0.017429 0.027982
v 0.002073 -0.016547 0.028148
v -0.002104 -0.005485 0.023104
v -0.001692 -0.007977 0.025261
v 0.003779 -0.020365 0.026713
v 0.004536 -0.021513 0.024183
v -0.005184 -0.013940 0.023544
v -0.004869 -0.020067 0.022683
v -0.004911 -0.016507 0.025546
v -0.002708 -0.021179 0.023933
v -0.002433 -0.019899 0.028090
v 0.004300 -0.022027 0.023604
v 0.003804 -0.022214 0.023276
v 0.002064 -0.022265 0.023175
v -0.002635 -0.021163 0.023152
v -0.000978 -0.011626 0.027022
v -0.003518 -0.012404 0.025346
v -0.000290 -0.014894 0.027606
v 0.001685 -0.017078 0.028214
v 0.003351 -0.020710 0.027076
v 0.000956 -0.021507 0.025801
v -0.000378 -0.020255 0.028184
v 0.000936 -0.017747 0.028623
v 0.004065 -0.021356 0.025394
v 0.003565 -0.021688 0.025807
v 0.004235 -0.022046 0.024398
v -0.002814 -0.015117 0.023811
v -0.003015 -0.016826 0.027882
v -0.002162 -0.018023 0.028592
v 0.003819 -0.022497 0.023781
v 0.003651 -0.022426 0.024456
v -0.001664 -0.013749 0.026419
v -0.000637 -0.016111 0.028194
v -0.002091 -0.015488 0.026291
vn 0.0649 0.0140 -0.9978
vn -0.3895 0.0031 -0.9210
vn -0.3240 0.8130 -0.4837
vn 0.2806 0.8062 -0.5208
vn 0.2447 -0.7475 -0.6176
vn 0.3029 -0.8126 -0.4980
vn 0.2481 0.0307 -0.9682
vn 0.1692 -0.6973 -0.6965
vn -0.8253 0.5203 -0.2194
vn -0.5597 -0.5565 -0.6141
vn -0.5901 0.8070 0.0223
vn -0.0581 0.9016 -0.4286
vn 0.8785 0.4111 -0.2436
vn 0.5435 0.5087 -0.6677
vn 0.7245 0.6851 -0.0755
vn 0.2880 0.9001 -0.3268
vn -0.6406 -0.6830 -0.3508
vn -0.5216 -0.8398 -0.1508
vn 0.5538 0.0261 -0.8323
vn 0.4768 -0.4741 -0.7402
vn 0.3695 -0.5356 -0.7593
vn 0.7392 -0.3854 -0.5523
vn -0.9209 0.2220 0.3204
vn -0.9579 0.1677 0.2329
vn -0.4195 0.7037 0.5734
vn -0.3460 0.9327 0.1023
vn -0.7433 0.4225 0.5187
vn 0.1768 0.9297 -0.3232
vn 0.9755 0.2143 0.0502
vn 0.8134 0.0099 -0.5816
vn 0.6862 0.3600 0.6321
vn 0.6788 0.5831 0.4463
vn 0.5278 0.8489 0.0284
vn 0.9679 -0.0174 -0.2509
vn -0.7696 -0.1127 0.6285
vn -0.5879 -0.8050 0.0795
vn -0.6974 -0.1199 0.7065
vn -0.0712 -0.7173 -0.6931
vn 0.6443 -0.2867 -0.7090
vn -0.0878 -0.6187 -0.7807
vn -0.8101 -0.0451 0.5846
vn -0.7212 0.1484 0.6767
vn -0.2886 0.6964 0.6571
vn -0.4357 0.3167 0.8425
vn -0.0861 0.9088 0.4082
vn 0.0350 0.9992 0.0190
vn -0.6883 -0.1401 0.7118
vn 0.3961 0.3659 0.8422
vn 0.2930 -0.2202 0.9304
vn 0.7145 0.1970 0.6713
vn 0.2283 0.1381 0.9637
vn 0.1626 0.8000 0.5776
vn 0.0834 0.5476 0.8326
vn 0.8947 -0.1124 0.4323
vn 0.9888 -0.1308 0.0721
vn -0.4700 0.0013 0.8827
vn -0.5143 -0.8576 -0.0000
vn -0.5093 0.4680 0.7223
vn -0.4202 -0.8914 0.1698
vn -0.4563 -0.5696 0.6836
vn 0.8098 -0.4717 -0.3490
vn 0.3042 -0.5997 -0.7402
vn -0.0987 -0.7931 -0.6010
vn -0.2738 -0.8849 -0.3768
vn -0.1513 0.2506 0.9562
vn -0.4999 -0.3713 0.7825
vn -0.2175 0.2885 0.9325
vn 0.1189 0.1927 0.9740
vn 0.3238 -0.5359 0.7797
vn -0.1131 -0.8912 0.4393
vn 0.0433 -0.6591 0.7508
vn 0.1389 0.0735 0.9876
vn 0.8015 -0.4195 0.4261
vn 0.3703 -0.7524 0.5448
vn 0.7302 -0.6090 0.3097
vn -0.5020 0.2721 0.8210
vn -0.5786 0.4145 0.7024
vn -0.3398 0.0172 0.9403
vn 0.3100 -0.9421 -0.1278
vn 0.1903 -0.9288 0.3180
vn -0.7126 -0.0254 0.7011
vn -0.1358 0.4320 0.8916
vn -0.7269 0.5215 0.4468
vt 0.708211 0.736825
vt 0.742439 0.570976
vt 0.932248 0.725450
vt 0.839562 0.851828
vt 0.074335 0.035075
vt 0.061869 0.016146
vt 0.230761 0.000000
vt 0.082987 0.051329
vt 0.703683 0.789755
vt 0.293368 0.098779
vt 0.284989 0.005731
vt 0.874641 0.599920
vt 0.779533 0.517263
vt 0.015963 0.103938
vt 0.966038 0.730111
vt 0.912131 0.803273
vt 0.392881 0.875916
vt 0.396986 0.913931
vt 0.255515 0.984091
vt 0.187615 0.942931
vt 0.915092 0.857136
vt 0.915917 0.880237
vt 0.714618 0.880237
vt 0.000000 0.204045
vt 0.029084 0.259577
vt 0.374805 0.027623
vt 0.379277 0.043221
vt 0.382752 0.059612
vt 0.396577 0.252227
vt 0.406270 0.110455
vt 0.558754 0.611802
vt 0.552579 0.517263
vt 0.703683 0.561829
vt 0.411904 0.564619
vt 0.621697 0.633287
vt 0.695317 0.639754
vt 0.604103 0.517263
vt 0.653093 0.459909
vt 0.642422 0.505490
vt 0.979603 0.771090
vt 0.415129 0.638569
vt 0.567487 0.423128
vt 0.937025 0.855592
vt 0.411904 0.898267
vt 0.386210 0.824557
vt 0.409321 0.877750
vt 0.205738 0.552676
vt 0.124690 0.859719
vt 0.148889 0.945188
vt 0.953625 0.879060
vt 0.385524 0.688161
vt 0.611413 0.715656
vt 0.681584 0.704275
vt 0.679793 0.742853
vt 0.596304 0.792842
vt 0.088557 0.307827
vt 0.052946 0.289610
vt 0.396659 0.060456
vt 0.411904 0.249948
vt 0.411904 0.372119
vt 0.197998 0.389512
vt 0.403765 0.826612
vt 0.499331 0.668812
vt 0.557038 0.665332
vt 0.411904 0.353742
vt 0.423013 0.270365
vt 0.474824 0.348465
vt 0.685438 0.447573
vt 0.614087 0.337832
vt 0.706222 0.463025
vt 0.998762 0.839439
vt 0.972073 0.847351
vt 0.459468 0.723076
vt 0.548087 0.321823
vt 0.175613 0.592407
vt 0.719427 0.018973
vt 0.752431 0.038859
vt 0.745982 0.076081
vt 0.731676 0.064299
vt 0.738932 0.116638
vt 0.232445 0.516184
vt 0.103695 0.908757
vt 0.714040 0.337559
vt 0.752431 0.385414
vt 0.727034 0.434897
vt 0.096067 0.811231
vt 0.752095 0.470135
vt 0.718379 0.482071
vt 0.311230 0.470180
vt 0.394494 0.485580
vt 0.399591 0.568974
vt 0.554142 0.261986
vt 0.471951 0.207865
vt 0.689656 0.862872
vt 0.145588 0.373645
vt 0.536410 0.166814
vt 0.689198 0.940948
vt 0.580583 1.000000
vt 0.554299 0.857406
vt 0.411904 0.486758
vt 0.409432 0.457003
vt 0.393863 0.454494
vt 0.342377 0.449991
vt 0.207931 0.412926
vt 0.534527 0.776514
vt 0.697192 0.218874
vt 0.463892 0.814123
vt 0.412119 0.876863
vt 0.682815 0.129768
vt 0.715437 0.054309
vt 0.817445 0.114643
vt 0.853004 0.193200
vt 0.816705 0.186047
vt 0.048974 0.601470
vt 0.048974 0.721111
vt 0.004055 0.668820
vt 0.096067 0.470180
vt 0.096067 0.594057
vt 0.026832 0.526066
vt 0.058330 0.601470
vt 0.687961 0.038027
vt 0.835260 0.110155
vt 0.836259 0.060544
vt 0.853004 0.027036
vt 0.816501 0.066738
vt 0.836653 0.024264
vt 0.843107 0.005357
vt 0.607953 0.212003
vt 0.554132 0.841752
vt 0.703683 0.928037
vt 0.515348 0.937743
vt 0.587273 0.103237
vt 0.096067 0.764876
vt 0.048974 0.656378
vt 0.096067 0.644757
vt 0.206472 0.426991
vt 0.804058 0.339430
vt 0.752431 0.244481
vt 0.804058 0.193200
vt 0.809357 0.339430
vt 0.809357 0.463709
vt 0.752431 0.398498
vt 0.528225 0.984328
vt 0.066253 0.601470
vt 0.393792 0.470180
vt 0.823255 0.003476
vt 0.048974 0.789259
vt 0.001820 0.755608
vt 0.785129 0.000000
vt 0.816105 0.021491
vt 0.472355 0.887253
vt 0.474509 0.950776
vt 0.655749 0.187387
vt 0.660942 0.094829
vt 0.752431 0.080149
vt 0.599021 0.057038
vt 0.625188 0.000000
vt 0.625785 0.154046
vt 0.514597 0.904692
vt 0.491177 0.974233
s 1
usemtl Material_with_Texture.309
f 1/1/1 2/2/2 3/3/3
f 1/1/1 3/3/3 4/4/4
f 5/5/5 2/6/2 1/7/1
f 6/8/6 5/5/5 1/7/1
f 4/4/4 7/9/7 1/1/1
f 8/10/8 1/7/1 7/11/7
f 1/7/1 8/10/8 6/8/6
f 2/2/2 9/12/9 3/3/3
f 10/13/10 9/12/9 2/2/2
f 10/14/10 2/6/2 5/5/5
f 3/3/3 9/12/9 11/15/11
f 12/16/12 4/4/4 3/3/3
f 3/3/3 11/15/11 12/16/12
f 13/17/13 14/18/14 4/19/4
f 15/20/15 13/17/13 4/19/4
f 16/21/16 15/22/15 4/4/4
f 12/16/12 16/21/16 4/4/4
f 4/4/4 14/23/14 7/9/7
f 10/14/10 5/5/5 6/8/6
f 10/14/10 6/8/6 17/24/17
f 6/8/6 18/25/18 17/24/17
f 8/10/8 18/25/18 6/8/6
f 14/26/14 19/27/19 7/11/7
f 7/11/7 20/28/20 8/10/8
f 19/27/19 20/28/20 7/11/7
f 8/10/8 21/29/21 18/25/18
f 8/10/8 20/28/20 22/30/22
f 21/29/21 8/10/8 22/30/22
f 23/31/23 9/32/9 10/33/10
f 11/34/11 9/32/9 23/31/23
f 10/33/10 24/35/24 23/31/23
f 10/33/10 17/36/17 24/35/24
f 11/37/11 25/38/25 26/39/26
f 12/16/12 11/15/11 26/40/26
f 11/34/11 23/31/23 27/41/27
f 25/38/25 11/37/11 27/42/27
f 28/43/28 12/16/12 26/40/26
f 16/21/16 12/16/12 28/43/28
f 14/18/14 13/17/13 19/44/19
f 29/45/29 13/17/13 15/20/15
f 30/46/30 13/17/13 29/45/29
f 19/44/19 13/17/13 30/46/30
f 31/47/31 15/20/15 32/48/32
f 32/48/32 15/20/15 33/49/33
f 15/22/15 28/43/28 33/50/33
f 15/22/15 16/21/16 28/43/28
f 31/47/31 34/51/34 15/20/15
f 29/45/29 15/20/15 34/51/34
f 24/35/24 17/36/17 35/52/35
f 35/52/35 17/36/17 18/53/18
f 36/54/36 37/55/37 18/53/18
f 21/29/21 38/56/38 18/25/18
f 18/53/18 37/55/37 35/52/35
f 38/56/38 36/57/36 18/25/18
f 19/27/19 30/58/30 20/28/20
f 30/58/30 22/30/22 20/28/20
f 21/29/21 34/59/34 39/60/39
f 21/29/21 40/61/40 38/56/38
f 22/30/22 34/59/34 21/29/21
f 40/61/40 21/29/21 39/60/39
f 29/45/29 22/62/22 30/46/30
f 22/62/22 29/45/29 34/51/34
f 41/63/41 27/41/27 23/31/23
f 23/31/23 24/35/24 42/64/42
f 23/31/23 42/64/42 41/63/41
f 24/65/24 35/66/35 42/67/42
f 26/39/26 25/38/25 43/68/43
f 27/42/27 44/69/44 25/38/25
f 25/38/25 44/69/44 43/68/43
f 26/39/26 43/68/43 45/70/45
f 45/71/45 46/72/46 26/40/26
f 46/72/46 28/43/28 26/40/26
f 27/41/27 41/63/41 47/73/47
f 27/42/27 47/74/47 44/69/44
f 33/50/33 28/43/28 46/72/46
f 48/75/48 31/47/31 32/48/32
f 49/76/49 50/77/50 31/78/31
f 51/79/51 31/78/31 48/80/48
f 51/79/51 49/76/49 31/78/31
f 34/51/34 31/47/31 50/81/50
f 33/49/33 52/82/52 32/48/32
f 53/83/53 32/84/32 52/85/52
f 48/75/48 32/48/32 53/86/53
f 52/85/52 33/87/33 46/88/46
f 54/89/54 34/51/34 50/81/50
f 34/51/34 54/89/54 55/90/55
f 39/91/39 34/51/34 55/90/55
f 42/67/42 35/66/35 56/92/56
f 37/93/37 56/92/56 35/66/35
f 37/55/37 36/54/36 57/94/57
f 38/56/38 57/95/57 36/57/36
f 58/96/58 56/92/56 37/93/37
f 37/55/37 57/94/57 59/97/59
f 37/55/37 59/97/59 60/98/60
f 37/55/37 60/98/60 58/99/58
f 38/56/38 40/61/40 57/95/57
f 55/90/55 61/100/61 39/91/39
f 39/60/39 61/101/61 62/102/62
f 39/60/39 62/102/62 40/61/40
f 40/61/40 63/103/63 64/104/64
f 40/61/40 62/102/62 63/103/63
f 57/95/57 40/61/40 64/104/64
f 42/64/42 56/105/56 41/63/41
f 47/73/47 41/63/41 56/105/56
f 45/70/45 43/68/43 52/85/52
f 52/85/52 43/68/43 53/83/53
f 53/83/53 43/68/43 44/69/44
f 53/83/53 44/69/44 65/106/65
f 44/69/44 47/74/47 65/106/65
f 45/70/45 52/85/52 46/88/46
f 56/105/56 66/107/66 47/73/47
f 47/73/47 66/107/66 65/108/65
f 48/80/48 67/109/67 68/110/68
f 51/79/51 48/80/48 68/110/68
f 53/83/53 65/106/65 48/80/48
f 65/106/65 67/109/67 48/80/48
f 69/111/69 50/112/50 49/113/49
f 49/114/49 70/115/70 69/116/69
f 51/79/51 68/110/68 49/76/49
f 70/117/70 49/118/49 71/119/71
f 71/119/71 49/118/49 72/120/72
f 72/121/72 49/76/49 68/110/68
f 50/112/50 69/111/69 54/122/54
f 54/122/54 73/123/73 55/124/55
f 74/125/74 54/122/54 69/111/69
f 74/125/74 73/123/73 54/122/54
f 55/124/55 75/126/75 61/127/61
f 55/124/55 73/123/73 75/126/75
f 56/92/56 58/96/58 76/128/76
f 66/107/66 56/105/56 76/129/76
f 57/94/57 64/130/64 59/97/59
f 60/98/60 77/131/77 58/99/58
f 58/96/58 77/132/77 76/128/76
f 59/133/59 71/134/71 60/135/60
f 63/103/63 59/136/59 64/104/64
f 59/137/59 70/138/70 71/139/71
f 59/140/59 63/141/63 70/142/70
f 60/98/60 78/143/78 77/131/77
f 71/134/71 78/144/78 60/135/60
f 61/101/61 79/145/79 62/102/62
f 61/127/61 75/126/75 79/146/79
f 63/103/63 62/102/62 79/145/79
f 63/147/63 80/148/80 70/115/70
f 63/149/63 79/146/79 80/150/80
f 65/108/65 66/107/66 81/151/81
f 65/108/65 81/151/81 67/152/67
f 66/107/66 76/129/76 81/151/81
f 72/121/72 68/110/68 67/109/67
f 67/109/67 81/153/81 82/154/82
f 82/154/82 72/121/72 67/109/67
f 70/155/70 74/125/74 69/111/69
f 80/150/80 74/125/74 70/155/70
f 78/156/78 71/157/71 72/121/72
f 72/121/72 82/154/82 78/156/78
f 80/150/80 73/123/73 74/125/74
f 73/123/73 80/150/80 75/126/75
f 75/126/75 80/150/80 79/146/79
f 83/158/83 76/128/76 77/132/77
f 81/151/81 76/129/76 83/159/83
f 82/154/82 83/158/83 77/132/77
f 82/154/82 77/132/77 78/156/78
f 81/151/81 83/159/83 82/160/82
