# Blender v3.5.0 OBJ File: ''
# www.blender.org
mtllib triquetrum_lvs.mtl
o triquetrum_lvs
v -0.002791 -0.010802 0.013712
v -0.008368 -0.012117 0.013576
v -0.006227 -0.005999 0.019078
v -0.001091 -0.006372 0.017515
v -0.007909 -0.012536 0.014026
v -0.007617 -0.012699 0.014688
v -0.000987 -0.010584 0.014097
v -0.000494 -0.012897 0.016195
v -0.009177 -0.009207 0.017151
v -0.009708 -0.014488 0.015533
v -0.006400 -0.005650 0.020172
v -0.003519 -0.005579 0.019102
v 0.003013 -0.010693 0.016508
v 0.001978 -0.010222 0.015438
v -0.000791 -0.005790 0.020325
v -0.001689 -0.005491 0.019841
v -0.010097 -0.016565 0.018456
v -0.009056 -0.017487 0.020225
v 0.002216 -0.010920 0.015356
v 0.002385 -0.011413 0.015601
v 0.003258 -0.016033 0.020187
v 0.003239 -0.012300 0.017176
v -0.009096 -0.011887 0.020008
v -0.010015 -0.014486 0.019839
v -0.004644 -0.005772 0.022469
v -0.005218 -0.005167 0.020918
v -0.006913 -0.007970 0.022782
v -0.002003 -0.005135 0.020423
v 0.003476 -0.011808 0.017776
v 0.002814 -0.011144 0.015953
v 0.002424 -0.016092 0.027901
v -0.000745 -0.006716 0.023729
v -0.001315 -0.005069 0.021285
v 0.003732 -0.015708 0.020432
v -0.009092 -0.016033 0.022175
v -0.008198 -0.018093 0.021001
v -0.007076 -0.016816 0.023808
v -0.006940 -0.018561 0.021244
v 0.004109 -0.019388 0.022363
v -0.003027 -0.020575 0.022666
v -0.007653 -0.011263 0.022316
v -0.008356 -0.012954 0.021333
v -0.003552 -0.005604 0.022888
v -0.004808 -0.009255 0.025027
v -0.002989 -0.005079 0.022427
v -0.002607 -0.004869 0.021445
v -0.006451 -0.011171 0.024242
v 0.001621 -0.014616 0.027841
v 0.002323 -0.018405 0.028242
v 0.003153 -0.017429 0.027982
v 0.002073 -0.016547 0.028148
v -0.002104 -0.005485 0.023104
v -0.001692 -0.007977 0.025261
v 0.003779 -0.020365 0.026713
v 0.004536 -0.021513 0.024183
v -0.005184 -0.013940 0.023544
v -0.004869 -0.020067 0.022683
v -0.004911 -0.016507 0.025546
v -0.002708 -0.021179 0.023933
v -0.002433 -0.019899 0.028090
v 0.004300 -0.022027 0.023604
v 0.003804 -0.022214 0.023276
v 0.002064 -0.022265 0.023175
v -0.002635 -0.021163 0.023152
v -0.000978 -0.011626 0.027022
v -0.003518 -0.012404 0.025346
v -0.000290 -0.014894 0.027606
v 0.001685 -0.017078 0.028214
v 0.003351 -0.020710 0.027076
v 0.000956 -0.021507 0.025801
v -0.000378 -0.020255 0.028184
v 0.000936 -0.017747 0.028623
v 0.004065 -0.021356 0.025394
v 0.003565 -0.021688 0.025807
v 0.004235 -0.022046 0.024398
v -0.002814 -0.015117 0.023811
v -0.003015 -0.016826 0.027882
v -0.002162 -0.018023 0.028592
v 0.003819 -0.022497 0.023781
v 0.003651 -0.022426 0.024456
v -0.001664 -0.013749 0.026419
v -0.000637 -0.016111 0.028194
v -0.002091 -0.015488 0.026291
vt 0.708211 0.736825
vt 0.742439 0.570976
vt 0.932248 0.725450
vt 0.839562 0.851828
vt 0.074335 0.035075
vt 0.061869 0.016146
vt 0.230761 0.000000
vt 0.082987 0.051329
vt 0.703683 0.789755
vt 0.293368 0.098779
vt 0.284989 0.005731
vt 0.874641 0.599920
vt 0.779533 0.517263
vt 0.015963 0.103938
vt 0.966038 0.730111
vt 0.912131 0.803273
vt 0.392881 0.875916
vt 0.396986 0.913931
vt 0.255515 0.984091
vt 0.187615 0.942931
vt 0.915092 0.857136
vt 0.915917 0.880237
vt 0.714618 0.880237
vt 0.000000 0.204045
vt 0.029084 0.259577
vt 0.374805 0.027623
vt 0.379277 0.043221
vt 0.382752 0.059612
vt 0.396577 0.252227
vt 0.406270 0.110455
vt 0.558754 0.611802
vt 0.552579 0.517263
vt 0.703683 0.561829
vt 0.411904 0.564619
vt 0.621697 0.633287
vt 0.695317 0.639754
vt 0.604103 0.517263
vt 0.653093 0.459909
vt 0.642422 0.505490
vt 0.979603 0.771090
vt 0.415129 0.638569
vt 0.567487 0.423128
vt 0.937025 0.855592
vt 0.411904 0.898267
vt 0.386210 0.824557
vt 0.409321 0.877750
vt 0.205738 0.552676
vt 0.124690 0.859719
vt 0.148889 0.945188
vt 0.953625 0.879060
vt 0.385524 0.688161
vt 0.611413 0.715656
vt 0.681584 0.704275
vt 0.679793 0.742853
vt 0.596304 0.792842
vt 0.088557 0.307827
vt 0.052946 0.289610
vt 0.396659 0.060456
vt 0.411904 0.249948
vt 0.411904 0.372119
vt 0.197998 0.389512
vt 0.403765 0.826612
vt 0.499331 0.668812
vt 0.557038 0.665332
vt 0.411904 0.353742
vt 0.423013 0.270365
vt 0.474824 0.348465
vt 0.685438 0.447573
vt 0.614087 0.337832
vt 0.706222 0.463025
vt 0.998762 0.839439
vt 0.972073 0.847351
vt 0.459468 0.723076
vt 0.548087 0.321823
vt 0.175613 0.592407
vt 0.719427 0.018973
vt 0.752431 0.038859
vt 0.745982 0.076081
vt 0.731676 0.064299
vt 0.738932 0.116638
vt 0.232445 0.516184
vt 0.103695 0.908757
vt 0.714040 0.337559
vt 0.752431 0.385414
vt 0.727034 0.434897
vt 0.096067 0.811231
vt 0.752095 0.470135
vt 0.718379 0.482071
vt 0.311230 0.470180
vt 0.394494 0.485580
vt 0.399591 0.568974
vt 0.554142 0.261986
vt 0.471951 0.207865
vt 0.689656 0.862872
vt 0.145588 0.373645
vt 0.536410 0.166814
vt 0.689198 0.940948
vt 0.580583 1.000000
vt 0.554299 0.857406
vt 0.411904 0.486758
vt 0.409432 0.457003
vt 0.393863 0.454494
vt 0.342377 0.449991
vt 0.207931 0.412926
vt 0.534527 0.776514
vt 0.697192 0.218874
vt 0.463892 0.814123
vt 0.412119 0.876863
vt 0.682815 0.129768
vt 0.715437 0.054309
vt 0.817445 0.114643
vt 0.853004 0.193200
vt 0.816705 0.186047
vt 0.048974 0.601470
vt 0.048974 0.721111
vt 0.004055 0.668820
vt 0.096067 0.470180
vt 0.096067 0.594057
vt 0.026832 0.526066
vt 0.058330 0.601470
vt 0.687961 0.038027
vt 0.835260 0.110155
vt 0.836259 0.060544
vt 0.853004 0.027036
vt 0.816501 0.066738
vt 0.836653 0.024264
vt 0.843107 0.005357
vt 0.607953 0.212003
vt 0.554132 0.841752
vt 0.703683 0.928037
vt 0.515348 0.937743
vt 0.587273 0.103237
vt 0.096067 0.764876
vt 0.048974 0.656378
vt 0.096067 0.644757
vt 0.206472 0.426991
vt 0.804058 0.339430
vt 0.752431 0.244481
vt 0.804058 0.193200
vt 0.809357 0.339430
vt 0.809357 0.463709
vt 0.752431 0.398498
vt 0.528225 0.984328
vt 0.066253 0.601470
vt 0.393792 0.470180
vt 0.823255 0.003476
vt 0.048974 0.789259
vt 0.001820 0.755608
vt 0.785129 0.000000
vt 0.816105 0.021491
vt 0.472355 0.887253
vt 0.474509 0.950776
vt 0.655749 0.187387
vt 0.660942 0.094829
vt 0.752431 0.080149
vt 0.599021 0.057038
vt 0.625188 0.000000
vt 0.625785 0.154046
vt 0.514597 0.904692
vt 0.491177 0.974233
vn -0.1452 0.6892 -0.7099
vn -0.1683 0.6785 -0.7151
vn 0.1672 -0.6307 -0.7578
vn 0.2822 -0.8952 -0.3449
vn 0.0888 0.6290 -0.7724
vn 0.2344 -0.6252 -0.7444
vn 0.1303 -0.6951 -0.7070
vn -0.3351 0.6921 -0.6392
vn -0.9055 0.2049 -0.3717
vn 0.1100 -0.6690 -0.7351
vn -0.5885 0.7386 -0.3287
vn -0.1194 0.8030 -0.5839
vn -0.1424 0.9363 -0.3212
vn 0.6476 0.6903 -0.3226
vn 0.6819 0.6984 -0.2174
vn 0.4155 0.8808 -0.2268
vn 0.0892 0.9388 -0.3327
vn 0.2627 0.6119 -0.7460
vn 0.4933 -0.7688 -0.4069
vn 0.4530 -0.7541 -0.4755
vn 0.3069 -0.7579 -0.5756
vn 0.1126 -0.7659 -0.6330
vn 0.3768 0.2338 -0.8963
vn 0.1759 -0.6405 -0.7475
vn 0.3143 -0.3339 -0.8887
vn 0.0857 -0.7428 -0.6640
vn 0.2751 -0.7662 -0.5807
vn 0.2917 -0.5996 -0.7452
vn -0.9930 0.0709 0.0946
vn -0.8586 0.3616 0.3635
vn -0.9393 0.3365 -0.0671
vn -0.9937 0.0864 -0.0709
vn -0.5723 0.6698 0.4731
vn -0.1540 0.9227 -0.3534
vn -0.9067 0.3876 0.1663
vn -0.5770 0.6635 0.4763
vn -0.0505 0.9627 -0.2657
vn 0.1432 0.8768 -0.4591
vn 0.7473 0.3230 -0.5807
vn 0.8358 0.5260 0.1573
vn 0.9404 0.0037 -0.3401
vn 0.7197 0.3896 -0.5747
vn 0.9323 0.3521 0.0832
vn 0.8713 0.4764 0.1178
vn 0.4126 0.8221 -0.3923
vn 0.4377 0.8526 -0.2854
vn 0.8946 0.4099 0.1777
vn 0.8024 0.3710 0.4674
vn -0.9493 -0.1472 0.2776
vn -0.8625 -0.4132 0.2922
vn -0.7535 -0.4304 0.4970
vn 0.0697 -0.6109 -0.7886
vn -0.6202 -0.6343 0.4615
vn -0.2467 -0.8771 -0.4122
vn 0.6761 -0.1288 -0.7255
vn 0.7166 -0.3652 -0.5942
vn 0.5998 -0.3228 -0.7322
vn 0.0410 -0.5218 -0.8521
vn 0.6396 -0.4806 -0.5999
vn 0.0530 -0.5339 -0.8439
vn 0.9367 -0.0252 -0.3493
vn 0.9535 -0.1244 -0.2746
vn -0.8561 0.1213 0.5024
vn -0.7596 0.2290 0.6087
vn -0.8531 0.0529 0.5191
vn -0.7817 0.3313 0.5283
vn -0.2993 0.8462 0.4409
vn -0.4311 0.5472 0.7174
vn -0.3704 0.5611 0.7403
vn -0.3560 0.8024 0.4790
vn -0.1426 0.9778 0.1536
vn -0.0527 0.9584 -0.2806
vn -0.8451 0.1161 0.5219
vn -0.6342 0.2432 0.7339
vn 0.1290 0.9756 -0.1777
vn 0.7959 0.4495 0.4056
vn 0.1445 0.1381 0.9798
vn 0.3474 0.2260 0.9101
vn 0.4746 0.1081 0.8735
vn 0.8599 0.4795 0.1752
vn 0.5098 0.7638 0.3958
vn 0.2691 0.6554 0.7058
vn 0.4730 0.5141 0.7155
vn 0.1816 0.9386 0.2934
vn 0.9806 0.1607 0.1118
vn 0.9538 0.2447 0.1743
vn 0.9574 -0.0511 -0.2843
vn -0.4663 0.3353 0.8186
vn -0.4834 0.3900 0.7837
vn -0.6145 -0.5960 0.5168
vn -0.1886 -0.8015 -0.5675
vn -0.5965 0.4532 0.6624
vn -0.6093 -0.5950 0.5241
vn -0.6870 -0.6805 0.2550
vn -0.6318 0.1136 0.7668
vn -0.2307 -0.8191 -0.5252
vn 0.9458 -0.0796 -0.3148
vn 0.6025 -0.3035 -0.7381
vn 0.0109 -0.3085 -0.9512
vn -0.1583 -0.6896 -0.7067
vn 0.0609 -0.1151 -0.9915
vn -0.1993 -0.6998 -0.6859
vn -0.6013 -0.1997 0.7736
vn -0.7423 -0.4620 0.4853
vn -0.1582 0.7418 0.6517
vn -0.1650 0.6298 0.7591
vn -0.2866 0.5558 0.7804
vn -0.2259 0.3872 0.8939
vn -0.4513 0.0215 0.8921
vn 0.2128 0.9353 0.2828
vn -0.4674 -0.4112 0.7826
vn -0.4497 -0.3246 0.8321
vn -0.1415 0.1447 0.9793
vn -0.0355 0.1488 0.9882
vn 0.2627 0.4606 0.8479
vn -0.1415 0.1452 0.9792
vn 0.5012 -0.2021 0.8414
vn -0.2572 -0.5251 0.8113
vn 0.0847 0.0617 0.9945
vn 0.4438 -0.6667 0.5987
vn 0.1471 -0.2448 0.9583
vn 0.3402 0.1830 0.9224
vn 0.7065 -0.1484 0.6920
vn 0.8919 -0.2469 0.3789
vn 0.7602 -0.4463 0.4721
vn 0.7266 -0.4643 0.5064
vn 0.8794 -0.4722 0.0607
vn 0.8629 -0.3344 0.3790
vn 0.2197 0.6144 0.7578
vn -0.3496 -0.5284 0.7736
vn -0.4297 -0.9010 -0.0586
vn -0.7791 -0.1057 0.6179
vn -0.2918 0.8870 0.3579
vn -0.1761 -0.9374 0.3003
vn -0.2279 -0.9728 -0.0412
vn -0.2523 -0.9076 0.3356
vn -0.1874 -0.9620 0.1986
vn -0.7060 -0.0861 0.7030
vn -0.0867 -0.2458 0.9654
vn 0.5501 -0.7214 -0.4206
vn 0.7060 -0.7071 0.0409
vn 0.0539 -0.8704 -0.4894
vn -0.2383 -0.9553 0.1752
vn -0.1530 -0.9860 0.0656
vn -0.5353 -0.0662 0.8420
vn -0.6551 -0.0029 0.7555
vn -0.6746 -0.4883 0.5536
vn 0.1496 0.3884 0.9093
vn -0.3057 0.4835 0.8202
vn 0.1606 0.3919 0.9059
vn -0.0566 -0.7954 0.6035
vn -0.0620 -0.8776 0.4754
vn 0.0058 -0.1753 0.9845
vn -0.0299 0.2265 0.9735
vn 0.7071 -0.6007 0.3731
vn 0.4930 -0.6735 0.5508
vn 0.5472 -0.8073 0.2211
vn -0.5952 0.7510 0.2859
vn -0.9307 0.2063 0.3022
vn -0.3088 0.8087 0.5007
vn -0.2295 0.3704 0.9001
vn -0.7638 0.1412 0.6298
usemtl Material_with_Texture.309
s off
f 1/1/1 2/2/1 3/3/1
f 1/1/2 3/3/2 4/4/2
f 5/5/3 2/6/3 1/7/3
f 6/8/4 5/5/4 1/7/4
f 4/4/5 7/9/5 1/1/5
f 8/10/6 1/7/6 7/11/6
f 1/7/7 8/10/7 6/8/7
f 2/2/8 9/12/8 3/3/8
f 10/13/9 9/12/9 2/2/9
f 10/14/10 2/6/10 5/5/10
f 3/3/11 9/12/11 11/15/11
f 12/16/12 4/4/12 3/3/12
f 3/3/13 11/15/13 12/16/13
f 13/17/14 14/18/14 4/19/14
f 15/20/15 13/17/15 4/19/15
f 16/21/16 15/22/16 4/4/16
f 12/16/17 16/21/17 4/4/17
f 4/4/18 14/23/18 7/9/18
f 10/14/19 5/5/19 6/8/19
f 10/14/20 6/8/20 17/24/20
f 6/8/21 18/25/21 17/24/21
f 8/10/22 18/25/22 6/8/22
f 14/26/23 19/27/23 7/11/23
f 7/11/24 20/28/24 8/10/24
f 19/27/25 20/28/25 7/11/25
f 8/10/26 21/29/26 18/25/26
f 8/10/27 20/28/27 22/30/27
f 21/29/28 8/10/28 22/30/28
f 23/31/29 9/32/29 10/33/29
f 11/34/30 9/32/30 23/31/30
f 10/33/31 24/35/31 23/31/31
f 10/33/32 17/36/32 24/35/32
f 11/37/33 25/38/33 26/39/33
f 12/16/34 11/15/34 26/40/34
f 11/34/35 23/31/35 27/41/35
f 25/38/36 11/37/36 27/42/36
f 28/43/37 12/16/37 26/40/37
f 16/21/38 12/16/38 28/43/38
f 14/18/39 13/17/39 19/44/39
f 29/45/40 13/17/40 15/20/40
f 30/46/41 13/17/41 29/45/41
f 19/44/42 13/17/42 30/46/42
f 31/47/43 15/20/43 32/48/43
f 32/48/44 15/20/44 33/49/44
f 15/22/45 28/43/45 33/50/45
f 15/22/46 16/21/46 28/43/46
f 31/47/47 34/51/47 15/20/47
f 29/45/48 15/20/48 34/51/48
f 24/35/49 17/36/49 35/52/49
f 35/52/50 17/36/50 18/53/50
f 36/54/51 37/55/51 18/53/51
f 21/29/52 38/56/52 18/25/52
f 18/53/53 37/55/53 35/52/53
f 38/56/54 36/57/54 18/25/54
f 19/27/55 30/58/55 20/28/55
f 30/58/56 22/30/56 20/28/56
f 21/29/57 34/59/57 39/60/57
f 21/29/58 40/61/58 38/56/58
f 22/30/59 34/59/59 21/29/59
f 40/61/60 21/29/60 39/60/60
f 29/45/61 22/62/61 30/46/61
f 22/62/62 29/45/62 34/51/62
f 41/63/63 27/41/63 23/31/63
f 23/31/64 24/35/64 42/64/64
f 23/31/65 42/64/65 41/63/65
f 24/65/66 35/66/66 42/67/66
f 26/39/67 25/38/67 43/68/67
f 27/42/68 44/69/68 25/38/68
f 25/38/69 44/69/69 43/68/69
f 26/39/70 43/68/70 45/70/70
f 45/71/71 46/72/71 26/40/71
f 46/72/72 28/43/72 26/40/72
f 27/41/73 41/63/73 47/73/73
f 27/42/74 47/74/74 44/69/74
f 33/50/75 28/43/75 46/72/75
f 48/75/76 31/47/76 32/48/76
f 49/76/77 50/77/77 31/78/77
f 51/79/78 31/78/78 48/80/78
f 51/79/79 49/76/79 31/78/79
f 34/51/80 31/47/80 50/81/80
f 33/49/81 52/82/81 32/48/81
f 53/83/82 32/84/82 52/85/82
f 48/75/83 32/48/83 53/86/83
f 52/85/84 33/87/84 46/88/84
f 54/89/85 34/51/85 50/81/85
f 34/51/86 54/89/86 55/90/86
f 39/91/87 34/51/87 55/90/87
f 42/67/88 35/66/88 56/92/88
f 37/93/89 56/92/89 35/66/89
f 37/55/90 36/54/90 57/94/90
f 38/56/91 57/95/91 36/57/91
f 58/96/92 56/92/92 37/93/92
f 37/55/93 57/94/93 59/97/93
f 37/55/94 59/97/94 60/98/94
f 37/55/95 60/98/95 58/99/95
f 38/56/96 40/61/96 57/95/96
f 55/90/97 61/100/97 39/91/97
f 39/60/98 61/101/98 62/102/98
f 39/60/99 62/102/99 40/61/99
f 40/61/100 63/103/100 64/104/100
f 40/61/101 62/102/101 63/103/101
f 57/95/102 40/61/102 64/104/102
f 42/64/103 56/105/103 41/63/103
f 47/73/104 41/63/104 56/105/104
f 45/70/105 43/68/105 52/85/105
f 52/85/106 43/68/106 53/83/106
f 53/83/107 43/68/107 44/69/107
f 53/83/108 44/69/108 65/106/108
f 44/69/109 47/74/109 65/106/109
f 45/70/110 52/85/110 46/88/110
f 56/105/111 66/107/111 47/73/111
f 47/73/112 66/107/112 65/108/112
f 48/80/113 67/109/113 68/110/113
f 51/79/114 48/80/114 68/110/114
f 53/83/115 65/106/115 48/80/115
f 65/106/116 67/109/116 48/80/116
f 69/111/117 50/112/117 49/113/117
f 49/114/118 70/115/118 69/116/118
f 51/79/119 68/110/119 49/76/119
f 70/117/120 49/118/120 71/119/120
f 71/119/121 49/118/121 72/120/121
f 72/121/122 49/76/122 68/110/122
f 50/112/123 69/111/123 54/122/123
f 54/122/124 73/123/124 55/124/124
f 74/125/125 54/122/125 69/111/125
f 74/125/126 73/123/126 54/122/126
f 55/124/127 75/126/127 61/127/127
f 55/124/128 73/123/128 75/126/128
f 56/92/129 58/96/129 76/128/129
f 66/107/130 56/105/130 76/129/130
f 57/94/131 64/130/131 59/97/131
f 60/98/132 77/131/132 58/99/132
f 58/96/133 77/132/133 76/128/133
f 59/133/134 71/134/134 60/135/134
f 63/103/135 59/136/135 64/104/135
f 59/137/136 70/138/136 71/139/136
f 59/140/137 63/141/137 70/142/137
f 60/98/138 78/143/138 77/131/138
f 71/134/139 78/144/139 60/135/139
f 61/101/140 79/145/140 62/102/140
f 61/127/141 75/126/141 79/146/141
f 63/103/142 62/102/142 79/145/142
f 63/147/143 80/148/143 70/115/143
f 63/149/144 79/146/144 80/150/144
f 65/108/145 66/107/145 81/151/145
f 65/108/146 81/151/146 67/152/146
f 66/107/147 76/129/147 81/151/147
f 72/121/148 68/110/148 67/109/148
f 67/109/149 81/153/149 82/154/149
f 82/154/150 72/121/150 67/109/150
f 70/155/151 74/125/151 69/111/151
f 80/150/152 74/125/152 70/155/152
f 78/156/153 71/157/153 72/121/153
f 72/121/154 82/154/154 78/156/154
f 80/150/155 73/123/155 74/125/155
f 73/123/156 80/150/156 75/126/156
f 75/126/157 80/150/157 79/146/157
f 83/158/158 76/128/158 77/132/158
f 81/151/159 76/129/159 83/159/159
f 82/154/160 83/158/160 77/132/160
f 82/154/161 77/132/161 78/156/161
f 81/151/162 83/159/162 82/160/162
