# Blender 4.3.0
# www.blender.org
mtllib unit_plane.mtl
o unit_plane
v -0.005000 -0.500000 -0.500000
v -0.005000 -0.500000 0.500000
v -0.005000 0.500000 -0.500000
v -0.005000 0.500000 0.500000
v 0.005000 -0.500000 -0.500000
v 0.005000 -0.500000 0.500000
v 0.005000 0.500000 -0.500000
v 0.005000 0.500000 0.500000
v -0.005000 -0.500000 -0.500000
v -0.005000 -0.500000 0.500000
v 0.005000 -0.500000 -0.500000
v 0.005000 -0.500000 0.500000
v -0.005000 0.500000 -0.500000
v -0.005000 0.500000 0.500000
v 0.005000 0.500000 -0.500000
v 0.005000 0.500000 0.500000
v -0.005000 -0.500000 -0.500000
v 0.005000 -0.500000 -0.500000
v -0.005000 0.500000 -0.500000
v 0.005000 0.500000 -0.500000
v -0.005000 -0.500000 0.500000
v 0.005000 -0.500000 0.500000
v -0.005000 0.500000 0.500000
v 0.005000 0.500000 0.500000
v -0.035000 0.497000 0.500000
v -0.100000 0.497000 0.500000
v -0.035000 0.497228 0.498852
v -0.100000 0.497228 0.498852
v -0.035000 0.497879 0.497879
v -0.100000 0.497879 0.497879
v -0.035000 0.498852 0.497228
v -0.100000 0.498852 0.497228
v -0.035000 0.500000 0.497000
v -0.100000 0.500000 0.497000
v -0.035000 0.501148 0.497228
v -0.100000 0.501148 0.497228
v -0.035000 0.502121 0.497879
v -0.100000 0.502121 0.497879
v -0.035000 0.502772 0.498852
v -0.100000 0.502772 0.498852
v -0.035000 0.503000 0.500000
v -0.100000 0.503000 0.500000
v -0.035000 0.502772 0.501148
v -0.100000 0.502772 0.501148
v -0.035000 0.502121 0.502121
v -0.100000 0.502121 0.502121
v -0.035000 0.501148 0.502772
v -0.100000 0.501148 0.502772
v -0.035000 0.500000 0.503000
v -0.100000 0.500000 0.503000
v -0.035000 0.498852 0.502772
v -0.100000 0.498852 0.502772
v -0.035000 0.497879 0.502121
v -0.100000 0.497879 0.502121
v -0.035000 0.497228 0.501148
v -0.100000 0.497228 0.501148
v -0.035000 0.497000 0.500000
v -0.035000 0.497228 0.498852
v -0.035000 0.497879 0.497879
v -0.035000 0.498852 0.497228
v -0.035000 0.500000 0.497000
v -0.035000 0.501148 0.497228
v -0.035000 0.502121 0.497879
v -0.035000 0.502772 0.498852
v -0.035000 0.503000 0.500000
v -0.035000 0.502772 0.501148
v -0.035000 0.502121 0.502121
v -0.035000 0.501148 0.502772
v -0.035000 0.500000 0.503000
v -0.035000 0.498852 0.502772
v -0.035000 0.497879 0.502121
v -0.035000 0.497228 0.501148
v -0.100000 0.497228 0.501148
v -0.100000 0.497879 0.502121
v -0.100000 0.498852 0.502772
v -0.100000 0.500000 0.503000
v -0.100000 0.501148 0.502772
v -0.100000 0.502121 0.502121
v -0.100000 0.502772 0.501148
v -0.100000 0.503000 0.500000
v -0.100000 0.502772 0.498852
v -0.100000 0.502121 0.497879
v -0.100000 0.501148 0.497228
v -0.100000 0.500000 0.497000
v -0.100000 0.498852 0.497228
v -0.100000 0.497879 0.497879
v -0.100000 0.497228 0.498852
v -0.100000 0.497000 0.500000
v 0.000000 0.500000 0.500000
v -0.035000 0.510000 0.500000
v -0.035000 0.509239 0.503827
v -0.035000 0.507071 0.507071
v -0.035000 0.503827 0.509239
v -0.035000 0.500000 0.510000
v -0.035000 0.496173 0.509239
v -0.035000 0.492929 0.507071
v -0.035000 0.490761 0.503827
v -0.035000 0.490000 0.500000
v -0.035000 0.490761 0.496173
v -0.035000 0.492929 0.492929
v -0.035000 0.496173 0.490761
v -0.035000 0.500000 0.490000
v -0.035000 0.503827 0.490761
v -0.035000 0.507071 0.492929
v -0.035000 0.509239 0.496173
v -0.035000 0.497000 -0.500000
v -0.100000 0.497000 -0.500000
v -0.035000 0.497228 -0.501148
v -0.100000 0.497228 -0.501148
v -0.035000 0.497879 -0.502121
v -0.100000 0.497879 -0.502121
v -0.035000 0.498852 -0.502772
v -0.100000 0.498852 -0.502772
v -0.035000 0.500000 -0.503000
v -0.100000 0.500000 -0.503000
v -0.035000 0.501148 -0.502772
v -0.100000 0.501148 -0.502772
v -0.035000 0.502121 -0.502121
v -0.100000 0.502121 -0.502121
v -0.035000 0.502772 -0.501148
v -0.100000 0.502772 -0.501148
v -0.035000 0.503000 -0.500000
v -0.100000 0.503000 -0.500000
v -0.035000 0.502772 -0.498852
v -0.100000 0.502772 -0.498852
v -0.035000 0.502121 -0.497879
v -0.100000 0.502121 -0.497879
v -0.035000 0.501148 -0.497228
v -0.100000 0.501148 -0.497228
v -0.035000 0.500000 -0.497000
v -0.100000 0.500000 -0.497000
v -0.035000 0.498852 -0.497228
v -0.100000 0.498852 -0.497228
v -0.035000 0.497879 -0.497879
v -0.100000 0.497879 -0.497879
v -0.035000 0.497228 -0.498852
v -0.100000 0.497228 -0.498852
v -0.035000 0.497000 -0.500000
v -0.035000 0.497228 -0.501148
v -0.035000 0.497879 -0.502121
v -0.035000 0.498852 -0.502772
v -0.035000 0.500000 -0.503000
v -0.035000 0.501148 -0.502772
v -0.035000 0.502121 -0.502121
v -0.035000 0.502772 -0.501148
v -0.035000 0.503000 -0.500000
v -0.035000 0.502772 -0.498852
v -0.035000 0.502121 -0.497879
v -0.035000 0.501148 -0.497228
v -0.035000 0.500000 -0.497000
v -0.035000 0.498852 -0.497228
v -0.035000 0.497879 -0.497879
v -0.035000 0.497228 -0.498852
v -0.100000 0.497228 -0.498852
v -0.100000 0.497879 -0.497879
v -0.100000 0.498852 -0.497228
v -0.100000 0.500000 -0.497000
v -0.100000 0.501148 -0.497228
v -0.100000 0.502121 -0.497879
v -0.100000 0.502772 -0.498852
v -0.100000 0.503000 -0.500000
v -0.100000 0.502772 -0.501148
v -0.100000 0.502121 -0.502121
v -0.100000 0.501148 -0.502772
v -0.100000 0.500000 -0.503000
v -0.100000 0.498852 -0.502772
v -0.100000 0.497879 -0.502121
v -0.100000 0.497228 -0.501148
v -0.100000 0.497000 -0.500000
v 0.000000 0.500000 -0.500000
v -0.035000 0.510000 -0.500000
v -0.035000 0.509239 -0.496173
v -0.035000 0.507071 -0.492929
v -0.035000 0.503827 -0.490761
v -0.035000 0.500000 -0.490000
v -0.035000 0.496173 -0.490761
v -0.035000 0.492929 -0.492929
v -0.035000 0.490761 -0.496173
v -0.035000 0.490000 -0.500000
v -0.035000 0.490761 -0.503827
v -0.035000 0.492929 -0.507071
v -0.035000 0.496173 -0.509239
v -0.035000 0.500000 -0.510000
v -0.035000 0.503827 -0.509239
v -0.035000 0.507071 -0.507071
v -0.035000 0.509239 -0.503827
v -0.035000 -0.503000 -0.500000
v -0.100000 -0.503000 -0.500000
v -0.035000 -0.502772 -0.501148
v -0.100000 -0.502772 -0.501148
v -0.035000 -0.502121 -0.502121
v -0.100000 -0.502121 -0.502121
v -0.035000 -0.501148 -0.502772
v -0.100000 -0.501148 -0.502772
v -0.035000 -0.500000 -0.503000
v -0.100000 -0.500000 -0.503000
v -0.035000 -0.498852 -0.502772
v -0.100000 -0.498852 -0.502772
v -0.035000 -0.497879 -0.502121
v -0.100000 -0.497879 -0.502121
v -0.035000 -0.497228 -0.501148
v -0.100000 -0.497228 -0.501148
v -0.035000 -0.497000 -0.500000
v -0.100000 -0.497000 -0.500000
v -0.035000 -0.497228 -0.498852
v -0.100000 -0.497228 -0.498852
v -0.035000 -0.497879 -0.497879
v -0.100000 -0.497879 -0.497879
v -0.035000 -0.498852 -0.497228
v -0.100000 -0.498852 -0.497228
v -0.035000 -0.500000 -0.497000
v -0.100000 -0.500000 -0.497000
v -0.035000 -0.501148 -0.497228
v -0.100000 -0.501148 -0.497228
v -0.035000 -0.502121 -0.497879
v -0.100000 -0.502121 -0.497879
v -0.035000 -0.502772 -0.498852
v -0.100000 -0.502772 -0.498852
v -0.035000 -0.503000 -0.500000
v -0.035000 -0.502772 -0.501148
v -0.035000 -0.502121 -0.502121
v -0.035000 -0.501148 -0.502772
v -0.035000 -0.500000 -0.503000
v -0.035000 -0.498852 -0.502772
v -0.035000 -0.497879 -0.502121
v -0.035000 -0.497228 -0.501148
v -0.035000 -0.497000 -0.500000
v -0.035000 -0.497228 -0.498852
v -0.035000 -0.497879 -0.497879
v -0.035000 -0.498852 -0.497228
v -0.035000 -0.500000 -0.497000
v -0.035000 -0.501148 -0.497228
v -0.035000 -0.502121 -0.497879
v -0.035000 -0.502772 -0.498852
v -0.100000 -0.502772 -0.498852
v -0.100000 -0.502121 -0.497879
v -0.100000 -0.501148 -0.497228
v -0.100000 -0.500000 -0.497000
v -0.100000 -0.498852 -0.497228
v -0.100000 -0.497879 -0.497879
v -0.100000 -0.497228 -0.498852
v -0.100000 -0.497000 -0.500000
v -0.100000 -0.497228 -0.501148
v -0.100000 -0.497879 -0.502121
v -0.100000 -0.498852 -0.502772
v -0.100000 -0.500000 -0.503000
v -0.100000 -0.501148 -0.502772
v -0.100000 -0.502121 -0.502121
v -0.100000 -0.502772 -0.501148
v -0.100000 -0.503000 -0.500000
v 0.000000 -0.500000 -0.500000
v -0.035000 -0.490000 -0.500000
v -0.035000 -0.490761 -0.496173
v -0.035000 -0.492929 -0.492929
v -0.035000 -0.496173 -0.490761
v -0.035000 -0.500000 -0.490000
v -0.035000 -0.503827 -0.490761
v -0.035000 -0.507071 -0.492929
v -0.035000 -0.509239 -0.496173
v -0.035000 -0.510000 -0.500000
v -0.035000 -0.509239 -0.503827
v -0.035000 -0.507071 -0.507071
v -0.035000 -0.503827 -0.509239
v -0.035000 -0.500000 -0.510000
v -0.035000 -0.496173 -0.509239
v -0.035000 -0.492929 -0.507071
v -0.035000 -0.490761 -0.503827
v -0.035000 -0.503000 0.500000
v -0.100000 -0.503000 0.500000
v -0.035000 -0.502772 0.498852
v -0.100000 -0.502772 0.498852
v -0.035000 -0.502121 0.497879
v -0.100000 -0.502121 0.497879
v -0.035000 -0.501148 0.497228
v -0.100000 -0.501148 0.497228
v -0.035000 -0.500000 0.497000
v -0.100000 -0.500000 0.497000
v -0.035000 -0.498852 0.497228
v -0.100000 -0.498852 0.497228
v -0.035000 -0.497879 0.497879
v -0.100000 -0.497879 0.497879
v -0.035000 -0.497228 0.498852
v -0.100000 -0.497228 0.498852
v -0.035000 -0.497000 0.500000
v -0.100000 -0.497000 0.500000
v -0.035000 -0.497228 0.501148
v -0.100000 -0.497228 0.501148
v -0.035000 -0.497879 0.502121
v -0.100000 -0.497879 0.502121
v -0.035000 -0.498852 0.502772
v -0.100000 -0.498852 0.502772
v -0.035000 -0.500000 0.503000
v -0.100000 -0.500000 0.503000
v -0.035000 -0.501148 0.502772
v -0.100000 -0.501148 0.502772
v -0.035000 -0.502121 0.502121
v -0.100000 -0.502121 0.502121
v -0.035000 -0.502772 0.501148
v -0.100000 -0.502772 0.501148
v -0.035000 -0.503000 0.500000
v -0.035000 -0.502772 0.498852
v -0.035000 -0.502121 0.497879
v -0.035000 -0.501148 0.497228
v -0.035000 -0.500000 0.497000
v -0.035000 -0.498852 0.497228
v -0.035000 -0.497879 0.497879
v -0.035000 -0.497228 0.498852
v -0.035000 -0.497000 0.500000
v -0.035000 -0.497228 0.501148
v -0.035000 -0.497879 0.502121
v -0.035000 -0.498852 0.502772
v -0.035000 -0.500000 0.503000
v -0.035000 -0.501148 0.502772
v -0.035000 -0.502121 0.502121
v -0.035000 -0.502772 0.501148
v -0.100000 -0.502772 0.501148
v -0.100000 -0.502121 0.502121
v -0.100000 -0.501148 0.502772
v -0.100000 -0.500000 0.503000
v -0.100000 -0.498852 0.502772
v -0.100000 -0.497879 0.502121
v -0.100000 -0.497228 0.501148
v -0.100000 -0.497000 0.500000
v -0.100000 -0.497228 0.498852
v -0.100000 -0.497879 0.497879
v -0.100000 -0.498852 0.497228
v -0.100000 -0.500000 0.497000
v -0.100000 -0.501148 0.497228
v -0.100000 -0.502121 0.497879
v -0.100000 -0.502772 0.498852
v -0.100000 -0.503000 0.500000
v 0.000000 -0.500000 0.500000
v -0.035000 -0.490000 0.500000
v -0.035000 -0.490761 0.503827
v -0.035000 -0.492929 0.507071
v -0.035000 -0.496173 0.509239
v -0.035000 -0.500000 0.510000
v -0.035000 -0.503827 0.509239
v -0.035000 -0.507071 0.507071
v -0.035000 -0.509239 0.503827
v -0.035000 -0.510000 0.500000
v -0.035000 -0.509239 0.496173
v -0.035000 -0.507071 0.492929
v -0.035000 -0.503827 0.490761
v -0.035000 -0.500000 0.490000
v -0.035000 -0.496173 0.490761
v -0.035000 -0.492929 0.492929
v -0.035000 -0.490761 0.496173
vn -1.0000 -0.0000 -0.0000
vn 1.0000 -0.0000 -0.0000
vn -0.0000 -1.0000 -0.0000
vn -0.0000 1.0000 -0.0000
vn -0.0000 -0.0000 -1.0000
vn -0.0000 -0.0000 1.0000
vn -0.0000 -0.9978 -0.0661
vn -0.0000 -0.9978 0.0661
vn -0.0000 -0.9472 -0.3207
vn -0.0000 -0.8965 -0.4430
vn -0.0000 -0.7523 -0.6588
vn -0.0000 -0.6588 -0.7523
vn -0.0000 -0.4430 -0.8965
vn -0.0000 -0.3207 -0.9472
vn -0.0000 -0.0661 -0.9978
vn -0.0000 0.0661 -0.9978
vn -0.0000 0.3207 -0.9472
vn -0.0000 0.4429 -0.8966
vn -0.0000 0.6588 -0.7523
vn -0.0000 0.7524 -0.6588
vn -0.0000 0.8966 -0.4429
vn -0.0000 0.9472 -0.3208
vn -0.0000 0.9978 -0.0661
vn -0.0000 0.9978 0.0661
vn -0.0000 0.9472 0.3208
vn -0.0000 0.8965 0.4429
vn -0.0000 0.7523 0.6588
vn -0.0000 0.6588 0.7523
vn -0.0000 0.4430 0.8965
vn -0.0000 0.3207 0.9472
vn -0.0000 0.0661 0.9978
vn -0.0000 -0.0661 0.9978
vn -0.0000 -0.3207 0.9472
vn -0.0000 -0.4429 0.8966
vn -0.0000 -0.6588 0.7523
vn -0.0000 -0.7523 0.6588
vn -0.0000 -0.8965 0.4430
vn -0.0000 -0.9472 0.3207
vn -0.8944 0.4132 -0.1711
vn 0.2553 0.6836 -0.6837
vn 0.1981 0.3750 -0.9056
vn 0.1087 -0.0000 -0.9941
vn -0.0000 -0.3826 -0.9239
vn -0.1087 -0.7029 -0.7029
vn -0.1981 -0.9056 -0.3751
vn -0.2553 -0.9669 -0.0000
vn -0.2748 -0.8884 0.3679
vn -0.2553 -0.6837 0.6837
vn -0.1981 -0.3751 0.9056
vn -0.1087 -0.0000 0.9941
vn -0.0000 0.3826 0.9239
vn 0.1087 0.7029 0.7029
vn 0.1981 0.9055 0.3752
vn 0.2553 0.9669 -0.0001
vn -0.0000 -0.4429 -0.8966
vn -0.0000 0.4430 -0.8965
vn -0.0000 0.7523 -0.6588
vn -0.0000 0.8965 -0.4429
vn -0.0000 0.8966 0.4429
vn -0.0000 0.7524 0.6588
vn -0.0000 0.4429 0.8966
vn -0.0000 -0.4430 0.8965
vn 0.1088 -0.0000 -0.9941
vn -0.2748 -0.8883 0.3680
vn -0.0000 -0.9472 -0.3208
vn -0.0000 -0.8965 -0.4429
vn -0.0000 0.8965 -0.4430
vn -0.0000 0.9472 -0.3207
vn -0.0000 0.9472 0.3207
vn -0.0000 0.8965 0.4430
vn -0.0000 -0.7524 0.6588
vn -0.0000 -0.8966 0.4429
vn -0.0000 -0.9472 0.3208
vn -0.0000 -0.8966 -0.4429
vn -0.0000 -0.7524 -0.6588
vn -0.0000 -0.8965 0.4429
s 1
f 1//1 2//1 4//1
f 1//1 4//1 3//1
f 5//2 7//2 8//2
f 5//2 8//2 6//2
f 9//3 11//3 12//3
f 9//3 12//3 10//3
f 13//4 14//4 16//4
f 13//4 16//4 15//4
f 17//5 19//5 20//5
f 17//5 20//5 18//5
f 21//6 22//6 24//6
f 21//6 24//6 23//6
f 25//7 26//8 28//9
f 25//7 28//9 27//10
f 27//10 28//9 30//11
f 27//10 30//11 29//12
f 29//12 30//11 32//13
f 29//12 32//13 31//14
f 31//14 32//13 34//15
f 31//14 34//15 33//16
f 33//16 34//15 36//17
f 33//16 36//17 35//18
f 35//18 36//17 38//19
f 35//18 38//19 37//20
f 37//20 38//19 40//21
f 37//20 40//21 39//22
f 39//22 40//21 42//23
f 39//22 42//23 41//24
f 41//24 42//23 44//25
f 41//24 44//25 43//26
f 43//26 44//25 46//27
f 43//26 46//27 45//28
f 45//28 46//27 48//29
f 45//28 48//29 47//30
f 47//30 48//29 50//31
f 47//30 50//31 49//32
f 49//32 50//31 52//33
f 49//32 52//33 51//34
f 51//34 52//33 54//35
f 51//34 54//35 53//36
f 53//36 54//35 56//37
f 53//36 56//37 55//38
f 55//38 56//37 26//8
f 55//38 26//8 25//7
f 57//2 58//2 59//2
f 57//2 59//2 60//2
f 57//2 60//2 61//2
f 57//2 61//2 62//2
f 57//2 62//2 63//2
f 57//2 63//2 64//2
f 57//2 64//2 65//2
f 57//2 65//2 66//2
f 57//2 66//2 67//2
f 57//2 67//2 68//2
f 57//2 68//2 69//2
f 57//2 69//2 70//2
f 57//2 70//2 71//2
f 57//2 71//2 72//2
f 73//1 74//1 75//1
f 73//1 75//1 76//1
f 73//1 76//1 77//1
f 73//1 77//1 78//1
f 73//1 78//1 79//1
f 73//1 79//1 80//1
f 73//1 80//1 81//1
f 73//1 81//1 82//1
f 73//1 82//1 83//1
f 73//1 83//1 84//1
f 73//1 84//1 85//1
f 73//1 85//1 86//1
f 73//1 86//1 87//1
f 73//1 87//1 88//1
f 105//39 104//40 103//41
f 105//39 103//41 102//42
f 105//39 102//42 101//43
f 105//39 101//43 100//44
f 105//39 100//44 99//45
f 105//39 99//45 98//46
f 105//39 98//46 97//47
f 105//39 97//47 96//48
f 105//39 96//48 95//49
f 105//39 95//49 94//50
f 105//39 94//50 93//51
f 105//39 93//51 92//52
f 105//39 92//52 91//53
f 105//39 91//53 90//54
f 89//2 90//54 91//53
f 89//2 91//53 92//52
f 89//2 92//52 93//51
f 89//2 93//51 94//50
f 89//2 94//50 95//49
f 89//2 95//49 96//48
f 89//2 96//48 97//47
f 89//2 97//47 98//46
f 89//2 98//46 99//45
f 89//2 99//45 100//44
f 89//2 100//44 101//43
f 89//2 101//43 102//42
f 89//2 102//42 103//41
f 89//2 103//41 104//40
f 89//2 104//40 105//39
f 89//2 105//39 90//54
f 106//7 107//8 109//9
f 106//7 109//9 108//10
f 108//10 109//9 111//11
f 108//10 111//11 110//12
f 110//12 111//11 113//55
f 110//12 113//55 112//14
f 112//14 113//55 115//15
f 112//14 115//15 114//16
f 114//16 115//15 117//17
f 114//16 117//17 116//56
f 116//56 117//17 119//19
f 116//56 119//19 118//57
f 118//57 119//19 121//58
f 118//57 121//58 120//22
f 120//22 121//58 123//23
f 120//22 123//23 122//24
f 122//24 123//23 125//25
f 122//24 125//25 124//59
f 124//59 125//25 127//60
f 124//59 127//60 126//28
f 126//28 127//60 129//61
f 126//28 129//61 128//30
f 128//30 129//61 131//31
f 128//30 131//31 130//32
f 130//32 131//31 133//33
f 130//32 133//33 132//62
f 132//62 133//33 135//35
f 132//62 135//35 134//36
f 134//36 135//35 137//37
f 134//36 137//37 136//38
f 136//38 137//37 107//8
f 136//38 107//8 106//7
f 138//2 139//2 140//2
f 138//2 140//2 141//2
f 138//2 141//2 142//2
f 138//2 142//2 143//2
f 138//2 143//2 144//2
f 138//2 144//2 145//2
f 138//2 145//2 146//2
f 138//2 146//2 147//2
f 138//2 147//2 148//2
f 138//2 148//2 149//2
f 138//2 149//2 150//2
f 138//2 150//2 151//2
f 138//2 151//2 152//2
f 138//2 152//2 153//2
f 154//1 155//1 156//1
f 154//1 156//1 157//1
f 154//1 157//1 158//1
f 154//1 158//1 159//1
f 154//1 159//1 160//1
f 154//1 160//1 161//1
f 154//1 161//1 162//1
f 154//1 162//1 163//1
f 154//1 163//1 164//1
f 154//1 164//1 165//1
f 154//1 165//1 166//1
f 154//1 166//1 167//1
f 154//1 167//1 168//1
f 154//1 168//1 169//1
f 186//39 185//40 184//41
f 186//39 184//41 183//63
f 186//39 183//63 182//43
f 186//39 182//43 181//44
f 186//39 181//44 180//45
f 186//39 180//45 179//46
f 186//39 179//46 178//64
f 186//39 178//64 177//48
f 186//39 177//48 176//49
f 186//39 176//49 175//50
f 186//39 175//50 174//51
f 186//39 174//51 173//52
f 186//39 173//52 172//53
f 186//39 172//53 171//54
f 170//2 171//54 172//53
f 170//2 172//53 173//52
f 170//2 173//52 174//51
f 170//2 174//51 175//50
f 170//2 175//50 176//49
f 170//2 176//49 177//48
f 170//2 177//48 178//64
f 170//2 178//64 179//46
f 170//2 179//46 180//45
f 170//2 180//45 181//44
f 170//2 181//44 182//43
f 170//2 182//43 183//63
f 170//2 183//63 184//41
f 170//2 184//41 185//40
f 170//2 185//40 186//39
f 170//2 186//39 171//54
f 187//7 188//8 190//65
f 187//7 190//65 189//66
f 189//66 190//65 192//11
f 189//66 192//11 191//12
f 191//12 192//11 194//13
f 191//12 194//13 193//14
f 193//14 194//13 196//15
f 193//14 196//15 195//16
f 195//16 196//15 198//17
f 195//16 198//17 197//18
f 197//18 198//17 200//19
f 197//18 200//19 199//57
f 199//57 200//19 202//67
f 199//57 202//67 201//68
f 201//68 202//67 204//23
f 201//68 204//23 203//24
f 203//24 204//23 206//69
f 203//24 206//69 205//70
f 205//70 206//69 208//27
f 205//70 208//27 207//28
f 207//28 208//27 210//29
f 207//28 210//29 209//30
f 209//30 210//29 212//31
f 209//30 212//31 211//32
f 211//32 212//31 214//33
f 211//32 214//33 213//34
f 213//34 214//33 216//35
f 213//34 216//35 215//71
f 215//71 216//35 218//72
f 215//71 218//72 217//73
f 217//73 218//72 188//8
f 217//73 188//8 187//7
f 219//2 220//2 221//2
f 219//2 221//2 222//2
f 219//2 222//2 223//2
f 219//2 223//2 224//2
f 219//2 224//2 225//2
f 219//2 225//2 226//2
f 219//2 226//2 227//2
f 219//2 227//2 228//2
f 219//2 228//2 229//2
f 219//2 229//2 230//2
f 219//2 230//2 231//2
f 219//2 231//2 232//2
f 219//2 232//2 233//2
f 219//2 233//2 234//2
f 235//1 236//1 237//1
f 235//1 237//1 238//1
f 235//1 238//1 239//1
f 235//1 239//1 240//1
f 235//1 240//1 241//1
f 235//1 241//1 242//1
f 235//1 242//1 243//1
f 235//1 243//1 244//1
f 235//1 244//1 245//1
f 235//1 245//1 246//1
f 235//1 246//1 247//1
f 235//1 247//1 248//1
f 235//1 248//1 249//1
f 235//1 249//1 250//1
f 267//39 266//40 265//41
f 267//39 265//41 264//63
f 267//39 264//63 263//43
f 267//39 263//43 262//44
f 267//39 262//44 261//45
f 267//39 261//45 260//46
f 267//39 260//46 259//64
f 267//39 259//64 258//48
f 267//39 258//48 257//49
f 267//39 257//49 256//50
f 267//39 256//50 255//51
f 267//39 255//51 254//52
f 267//39 254//52 253//53
f 267//39 253//53 252//54
f 251//2 252//54 253//53
f 251//2 253//53 254//52
f 251//2 254//52 255//51
f 251//2 255//51 256//50
f 251//2 256//50 257//49
f 251//2 257//49 258//48
f 251//2 258//48 259//64
f 251//2 259//64 260//46
f 251//2 260//46 261//45
f 251//2 261//45 262//44
f 251//2 262//44 263//43
f 251//2 263//43 264//63
f 251//2 264//63 265//41
f 251//2 265//41 266//40
f 251//2 266//40 267//39
f 251//2 267//39 252//54
f 268//7 269//8 271//65
f 268//7 271//65 270//74
f 270//74 271//65 273//75
f 270//74 273//75 272//12
f 272//12 273//75 275//55
f 272//12 275//55 274//14
f 274//14 275//55 277//15
f 274//14 277//15 276//16
f 276//16 277//15 279//17
f 276//16 279//17 278//56
f 278//56 279//17 281//19
f 278//56 281//19 280//57
f 280//57 281//19 283//67
f 280//57 283//67 282//68
f 282//68 283//67 285//23
f 282//68 285//23 284//24
f 284//24 285//23 287//69
f 284//24 287//69 286//70
f 286//70 287//69 289//27
f 286//70 289//27 288//28
f 288//28 289//27 291//61
f 288//28 291//61 290//30
f 290//30 291//61 293//31
f 290//30 293//31 292//32
f 292//32 293//31 295//33
f 292//32 295//33 294//62
f 294//62 295//33 297//35
f 294//62 297//35 296//36
f 296//36 297//35 299//76
f 296//36 299//76 298//73
f 298//73 299//76 269//8
f 298//73 269//8 268//7
f 300//2 301//2 302//2
f 300//2 302//2 303//2
f 300//2 303//2 304//2
f 300//2 304//2 305//2
f 300//2 305//2 306//2
f 300//2 306//2 307//2
f 300//2 307//2 308//2
f 300//2 308//2 309//2
f 300//2 309//2 310//2
f 300//2 310//2 311//2
f 300//2 311//2 312//2
f 300//2 312//2 313//2
f 300//2 313//2 314//2
f 300//2 314//2 315//2
f 316//1 317//1 318//1
f 316//1 318//1 319//1
f 316//1 319//1 320//1
f 316//1 320//1 321//1
f 316//1 321//1 322//1
f 316//1 322//1 323//1
f 316//1 323//1 324//1
f 316//1 324//1 325//1
f 316//1 325//1 326//1
f 316//1 326//1 327//1
f 316//1 327//1 328//1
f 316//1 328//1 329//1
f 316//1 329//1 330//1
f 316//1 330//1 331//1
f 348//39 347//40 346//41
f 348//39 346//41 345//42
f 348//39 345//42 344//43
f 348//39 344//43 343//44
f 348//39 343//44 342//45
f 348//39 342//45 341//46
f 348//39 341//46 340//47
f 348//39 340//47 339//48
f 348//39 339//48 338//49
f 348//39 338//49 337//50
f 348//39 337//50 336//51
f 348//39 336//51 335//52
f 348//39 335//52 334//53
f 348//39 334//53 333//54
f 332//2 333//54 334//53
f 332//2 334//53 335//52
f 332//2 335//52 336//51
f 332//2 336//51 337//50
f 332//2 337//50 338//49
f 332//2 338//49 339//48
f 332//2 339//48 340//47
f 332//2 340//47 341//46
f 332//2 341//46 342//45
f 332//2 342//45 343//44
f 332//2 343//44 344//43
f 332//2 344//43 345//42
f 332//2 345//42 346//41
f 332//2 346//41 347//40
f 332//2 347//40 348//39
f 332//2 348//39 333//54
